ISO-10303-21;
HEADER;
/* Generated by software containing ST-Developer
 * from STEP Tools, Inc. (www.steptools.com) 
 */

FILE_DESCRIPTION(
/* description */ (''),
/* implementation_level */ '2;1');

FILE_NAME(
/* name */ 'Aku korpus.step',
/* time_stamp */ '2026-05-07T11:46:41+03:00',
/* author */ (''),
/* organization */ (''),
/* preprocessor_version */ 'ST-DEVELOPER v20.1',
/* originating_system */ 'Autodesk Translation Framework v15.8.0.0',
/* authorisation */ '');

FILE_SCHEMA (('AUTOMOTIVE_DESIGN { 1 0 10303 214 3 1 1 }'));
ENDSEC;

DATA;
#10=MECHANICAL_DESIGN_GEOMETRIC_PRESENTATION_REPRESENTATION('',(#13),#919);
#11=SHAPE_REPRESENTATION_RELATIONSHIP('SRR','None',#926,#12);
#12=ADVANCED_BREP_SHAPE_REPRESENTATION('',(#14),#918);
#13=STYLED_ITEM('',(#936),#14);
#14=MANIFOLD_SOLID_BREP('Body1',#560);
#15=FACE_BOUND('',#71,.T.);
#16=FACE_BOUND('',#75,.T.);
#17=FACE_BOUND('',#79,.T.);
#18=FACE_BOUND('',#93,.T.);
#19=CIRCLE('',#579,4.);
#20=CIRCLE('',#580,4.);
#21=CIRCLE('',#581,4.);
#22=CIRCLE('',#584,2.);
#23=CIRCLE('',#585,2.);
#24=CIRCLE('',#587,3.50972892355401);
#25=CIRCLE('',#588,3.50972892355401);
#26=CIRCLE('',#590,2.10000000000001);
#27=CIRCLE('',#592,2.10000000000001);
#28=CIRCLE('',#596,2.);
#29=CIRCLE('',#597,2.);
#30=CYLINDRICAL_SURFACE('',#578,4.);
#31=CYLINDRICAL_SURFACE('',#586,3.50972892355401);
#32=CYLINDRICAL_SURFACE('',#591,2.10000000000001);
#33=CYLINDRICAL_SURFACE('',#595,2.);
#34=FACE_OUTER_BOUND('',#62,.T.);
#35=FACE_OUTER_BOUND('',#63,.T.);
#36=FACE_OUTER_BOUND('',#64,.T.);
#37=FACE_OUTER_BOUND('',#65,.T.);
#38=FACE_OUTER_BOUND('',#66,.T.);
#39=FACE_OUTER_BOUND('',#67,.T.);
#40=FACE_OUTER_BOUND('',#68,.T.);
#41=FACE_OUTER_BOUND('',#69,.T.);
#42=FACE_OUTER_BOUND('',#70,.T.);
#43=FACE_OUTER_BOUND('',#72,.T.);
#44=FACE_OUTER_BOUND('',#73,.T.);
#45=FACE_OUTER_BOUND('',#74,.T.);
#46=FACE_OUTER_BOUND('',#76,.T.);
#47=FACE_OUTER_BOUND('',#77,.T.);
#48=FACE_OUTER_BOUND('',#78,.T.);
#49=FACE_OUTER_BOUND('',#80,.T.);
#50=FACE_OUTER_BOUND('',#81,.T.);
#51=FACE_OUTER_BOUND('',#82,.T.);
#52=FACE_OUTER_BOUND('',#83,.T.);
#53=FACE_OUTER_BOUND('',#84,.T.);
#54=FACE_OUTER_BOUND('',#85,.T.);
#55=FACE_OUTER_BOUND('',#86,.T.);
#56=FACE_OUTER_BOUND('',#87,.T.);
#57=FACE_OUTER_BOUND('',#88,.T.);
#58=FACE_OUTER_BOUND('',#89,.T.);
#59=FACE_OUTER_BOUND('',#90,.T.);
#60=FACE_OUTER_BOUND('',#91,.T.);
#61=FACE_OUTER_BOUND('',#92,.T.);
#62=EDGE_LOOP('',(#354,#355,#356,#357,#358,#359,#360,#361));
#63=EDGE_LOOP('',(#362,#363,#364,#365));
#64=EDGE_LOOP('',(#366,#367,#368,#369,#370,#371,#372,#373));
#65=EDGE_LOOP('',(#374,#375,#376,#377));
#66=EDGE_LOOP('',(#378,#379,#380,#381,#382));
#67=EDGE_LOOP('',(#383,#384,#385,#386));
#68=EDGE_LOOP('',(#387,#388,#389,#390,#391));
#69=EDGE_LOOP('',(#392,#393,#394,#395));
#70=EDGE_LOOP('',(#396));
#71=EDGE_LOOP('',(#397));
#72=EDGE_LOOP('',(#398,#399,#400,#401));
#73=EDGE_LOOP('',(#402,#403,#404,#405));
#74=EDGE_LOOP('',(#406,#407,#408,#409));
#75=EDGE_LOOP('',(#410));
#76=EDGE_LOOP('',(#411,#412,#413,#414,#415,#416,#417,#418));
#77=EDGE_LOOP('',(#419,#420,#421,#422,#423));
#78=EDGE_LOOP('',(#424,#425,#426,#427));
#79=EDGE_LOOP('',(#428));
#80=EDGE_LOOP('',(#429,#430,#431,#432));
#81=EDGE_LOOP('',(#433,#434,#435,#436));
#82=EDGE_LOOP('',(#437,#438,#439,#440));
#83=EDGE_LOOP('',(#441,#442,#443,#444));
#84=EDGE_LOOP('',(#445,#446,#447,#448));
#85=EDGE_LOOP('',(#449,#450,#451,#452,#453,#454,#455,#456));
#86=EDGE_LOOP('',(#457,#458,#459,#460));
#87=EDGE_LOOP('',(#461,#462,#463,#464,#465,#466));
#88=EDGE_LOOP('',(#467,#468,#469,#470));
#89=EDGE_LOOP('',(#471,#472,#473,#474,#475,#476));
#90=EDGE_LOOP('',(#477,#478,#479,#480,#481,#482,#483,#484));
#91=EDGE_LOOP('',(#485,#486,#487,#488));
#92=EDGE_LOOP('',(#489,#490,#491,#492,#493,#494,#495,#496,#497,#498,#499,
#500,#501,#502,#503,#504,#505,#506));
#93=EDGE_LOOP('',(#507));
#94=LINE('',#763,#160);
#95=LINE('',#765,#161);
#96=LINE('',#767,#162);
#97=LINE('',#769,#163);
#98=LINE('',#771,#164);
#99=LINE('',#773,#165);
#100=LINE('',#775,#166);
#101=LINE('',#776,#167);
#102=LINE('',#779,#168);
#103=LINE('',#781,#169);
#104=LINE('',#782,#170);
#105=LINE('',#786,#171);
#106=LINE('',#787,#172);
#107=LINE('',#789,#173);
#108=LINE('',#791,#174);
#109=LINE('',#793,#175);
#110=LINE('',#795,#176);
#111=LINE('',#796,#177);
#112=LINE('',#800,#178);
#113=LINE('',#802,#179);
#114=LINE('',#804,#180);
#115=LINE('',#805,#181);
#116=LINE('',#812,#182);
#117=LINE('',#816,#183);
#118=LINE('',#818,#184);
#119=LINE('',#819,#185);
#120=LINE('',#828,#186);
#121=LINE('',#836,#187);
#122=LINE('',#840,#188);
#123=LINE('',#842,#189);
#124=LINE('',#844,#190);
#125=LINE('',#845,#191);
#126=LINE('',#849,#192);
#127=LINE('',#850,#193);
#128=LINE('',#851,#194);
#129=LINE('',#855,#195);
#130=LINE('',#859,#196);
#131=LINE('',#861,#197);
#132=LINE('',#863,#198);
#133=LINE('',#865,#199);
#134=LINE('',#866,#200);
#135=LINE('',#869,#201);
#136=LINE('',#871,#202);
#137=LINE('',#872,#203);
#138=LINE('',#874,#204);
#139=LINE('',#875,#205);
#140=LINE('',#879,#206);
#141=LINE('',#880,#207);
#142=LINE('',#881,#208);
#143=LINE('',#884,#209);
#144=LINE('',#885,#210);
#145=LINE('',#888,#211);
#146=LINE('',#889,#212);
#147=LINE('',#892,#213);
#148=LINE('',#893,#214);
#149=LINE('',#895,#215);
#150=LINE('',#896,#216);
#151=LINE('',#898,#217);
#152=LINE('',#901,#218);
#153=LINE('',#902,#219);
#154=LINE('',#905,#220);
#155=LINE('',#906,#221);
#156=LINE('',#908,#222);
#157=LINE('',#911,#223);
#158=LINE('',#912,#224);
#159=LINE('',#914,#225);
#160=VECTOR('',#617,10.);
#161=VECTOR('',#618,10.);
#162=VECTOR('',#619,10.);
#163=VECTOR('',#620,10.);
#164=VECTOR('',#621,10.);
#165=VECTOR('',#622,10.);
#166=VECTOR('',#623,10.);
#167=VECTOR('',#624,10.);
#168=VECTOR('',#627,10.);
#169=VECTOR('',#628,10.);
#170=VECTOR('',#629,10.);
#171=VECTOR('',#632,10.);
#172=VECTOR('',#633,10.);
#173=VECTOR('',#634,10.);
#174=VECTOR('',#635,10.);
#175=VECTOR('',#636,10.);
#176=VECTOR('',#637,10.);
#177=VECTOR('',#638,10.);
#178=VECTOR('',#641,10.);
#179=VECTOR('',#642,10.);
#180=VECTOR('',#643,10.);
#181=VECTOR('',#644,10.);
#182=VECTOR('',#651,10.);
#183=VECTOR('',#656,10.);
#184=VECTOR('',#657,10.);
#185=VECTOR('',#658,10.);
#186=VECTOR('',#669,3.50972892355401);
#187=VECTOR('',#680,2.10000000000001);
#188=VECTOR('',#683,10.);
#189=VECTOR('',#684,10.);
#190=VECTOR('',#685,10.);
#191=VECTOR('',#686,10.);
#192=VECTOR('',#689,10.);
#193=VECTOR('',#690,10.);
#194=VECTOR('',#691,10.);
#195=VECTOR('',#696,2.);
#196=VECTOR('',#701,10.);
#197=VECTOR('',#702,10.);
#198=VECTOR('',#703,10.);
#199=VECTOR('',#704,10.);
#200=VECTOR('',#705,10.);
#201=VECTOR('',#708,10.);
#202=VECTOR('',#709,10.);
#203=VECTOR('',#710,10.);
#204=VECTOR('',#713,10.);
#205=VECTOR('',#714,10.);
#206=VECTOR('',#717,10.);
#207=VECTOR('',#718,10.);
#208=VECTOR('',#719,10.);
#209=VECTOR('',#722,10.);
#210=VECTOR('',#723,10.);
#211=VECTOR('',#726,10.);
#212=VECTOR('',#727,10.);
#213=VECTOR('',#730,10.);
#214=VECTOR('',#731,10.);
#215=VECTOR('',#734,10.);
#216=VECTOR('',#735,10.);
#217=VECTOR('',#738,10.);
#218=VECTOR('',#741,10.);
#219=VECTOR('',#742,10.);
#220=VECTOR('',#745,10.);
#221=VECTOR('',#746,10.);
#222=VECTOR('',#749,10.);
#223=VECTOR('',#752,10.);
#224=VECTOR('',#753,10.);
#225=VECTOR('',#756,10.);
#226=VERTEX_POINT('',#761);
#227=VERTEX_POINT('',#762);
#228=VERTEX_POINT('',#764);
#229=VERTEX_POINT('',#766);
#230=VERTEX_POINT('',#768);
#231=VERTEX_POINT('',#770);
#232=VERTEX_POINT('',#772);
#233=VERTEX_POINT('',#774);
#234=VERTEX_POINT('',#778);
#235=VERTEX_POINT('',#780);
#236=VERTEX_POINT('',#784);
#237=VERTEX_POINT('',#785);
#238=VERTEX_POINT('',#788);
#239=VERTEX_POINT('',#790);
#240=VERTEX_POINT('',#792);
#241=VERTEX_POINT('',#794);
#242=VERTEX_POINT('',#798);
#243=VERTEX_POINT('',#799);
#244=VERTEX_POINT('',#801);
#245=VERTEX_POINT('',#803);
#246=VERTEX_POINT('',#807);
#247=VERTEX_POINT('',#809);
#248=VERTEX_POINT('',#811);
#249=VERTEX_POINT('',#815);
#250=VERTEX_POINT('',#817);
#251=VERTEX_POINT('',#821);
#252=VERTEX_POINT('',#825);
#253=VERTEX_POINT('',#827);
#254=VERTEX_POINT('',#831);
#255=VERTEX_POINT('',#834);
#256=VERTEX_POINT('',#838);
#257=VERTEX_POINT('',#839);
#258=VERTEX_POINT('',#841);
#259=VERTEX_POINT('',#843);
#260=VERTEX_POINT('',#847);
#261=VERTEX_POINT('',#848);
#262=VERTEX_POINT('',#853);
#263=VERTEX_POINT('',#858);
#264=VERTEX_POINT('',#860);
#265=VERTEX_POINT('',#862);
#266=VERTEX_POINT('',#864);
#267=VERTEX_POINT('',#868);
#268=VERTEX_POINT('',#870);
#269=VERTEX_POINT('',#877);
#270=VERTEX_POINT('',#878);
#271=VERTEX_POINT('',#883);
#272=VERTEX_POINT('',#887);
#273=VERTEX_POINT('',#891);
#274=VERTEX_POINT('',#900);
#275=VERTEX_POINT('',#904);
#276=VERTEX_POINT('',#910);
#277=EDGE_CURVE('',#226,#227,#94,.T.);
#278=EDGE_CURVE('',#227,#228,#95,.T.);
#279=EDGE_CURVE('',#228,#229,#96,.T.);
#280=EDGE_CURVE('',#229,#230,#97,.T.);
#281=EDGE_CURVE('',#230,#231,#98,.T.);
#282=EDGE_CURVE('',#231,#232,#99,.T.);
#283=EDGE_CURVE('',#233,#232,#100,.T.);
#284=EDGE_CURVE('',#226,#233,#101,.T.);
#285=EDGE_CURVE('',#232,#234,#102,.T.);
#286=EDGE_CURVE('',#235,#234,#103,.T.);
#287=EDGE_CURVE('',#233,#235,#104,.T.);
#288=EDGE_CURVE('',#236,#237,#105,.T.);
#289=EDGE_CURVE('',#237,#235,#106,.T.);
#290=EDGE_CURVE('',#234,#238,#107,.T.);
#291=EDGE_CURVE('',#238,#239,#108,.T.);
#292=EDGE_CURVE('',#239,#240,#109,.T.);
#293=EDGE_CURVE('',#240,#241,#110,.T.);
#294=EDGE_CURVE('',#241,#236,#111,.T.);
#295=EDGE_CURVE('',#242,#243,#112,.T.);
#296=EDGE_CURVE('',#242,#244,#113,.T.);
#297=EDGE_CURVE('',#245,#244,#114,.T.);
#298=EDGE_CURVE('',#243,#245,#115,.T.);
#299=EDGE_CURVE('',#243,#246,#19,.T.);
#300=EDGE_CURVE('',#247,#245,#20,.T.);
#301=EDGE_CURVE('',#248,#247,#116,.T.);
#302=EDGE_CURVE('',#246,#248,#21,.T.);
#303=EDGE_CURVE('',#248,#249,#117,.T.);
#304=EDGE_CURVE('',#250,#247,#118,.T.);
#305=EDGE_CURVE('',#249,#250,#119,.T.);
#306=EDGE_CURVE('',#244,#251,#22,.T.);
#307=EDGE_CURVE('',#251,#250,#23,.T.);
#308=EDGE_CURVE('',#252,#252,#24,.T.);
#309=EDGE_CURVE('',#252,#253,#120,.T.);
#310=EDGE_CURVE('',#253,#253,#25,.T.);
#311=EDGE_CURVE('',#254,#254,#26,.T.);
#312=EDGE_CURVE('',#255,#255,#27,.T.);
#313=EDGE_CURVE('',#255,#254,#121,.T.);
#314=EDGE_CURVE('',#256,#257,#122,.T.);
#315=EDGE_CURVE('',#257,#258,#123,.T.);
#316=EDGE_CURVE('',#259,#258,#124,.T.);
#317=EDGE_CURVE('',#256,#259,#125,.T.);
#318=EDGE_CURVE('',#260,#261,#126,.T.);
#319=EDGE_CURVE('',#260,#259,#127,.T.);
#320=EDGE_CURVE('',#258,#261,#128,.T.);
#321=EDGE_CURVE('',#262,#262,#28,.T.);
#322=EDGE_CURVE('',#262,#251,#129,.T.);
#323=EDGE_CURVE('',#242,#249,#29,.T.);
#324=EDGE_CURVE('',#263,#246,#130,.T.);
#325=EDGE_CURVE('',#246,#264,#131,.T.);
#326=EDGE_CURVE('',#264,#265,#132,.T.);
#327=EDGE_CURVE('',#266,#265,#133,.T.);
#328=EDGE_CURVE('',#263,#266,#134,.T.);
#329=EDGE_CURVE('',#265,#267,#135,.T.);
#330=EDGE_CURVE('',#268,#267,#136,.T.);
#331=EDGE_CURVE('',#268,#266,#137,.T.);
#332=EDGE_CURVE('',#267,#239,#138,.T.);
#333=EDGE_CURVE('',#268,#238,#139,.T.);
#334=EDGE_CURVE('',#269,#270,#140,.T.);
#335=EDGE_CURVE('',#269,#230,#141,.T.);
#336=EDGE_CURVE('',#270,#229,#142,.T.);
#337=EDGE_CURVE('',#270,#271,#143,.T.);
#338=EDGE_CURVE('',#271,#228,#144,.T.);
#339=EDGE_CURVE('',#271,#272,#145,.T.);
#340=EDGE_CURVE('',#272,#227,#146,.T.);
#341=EDGE_CURVE('',#273,#272,#147,.T.);
#342=EDGE_CURVE('',#273,#226,#148,.T.);
#343=EDGE_CURVE('',#257,#273,#149,.T.);
#344=EDGE_CURVE('',#261,#237,#150,.T.);
#345=EDGE_CURVE('',#260,#236,#151,.T.);
#346=EDGE_CURVE('',#274,#256,#152,.T.);
#347=EDGE_CURVE('',#274,#241,#153,.T.);
#348=EDGE_CURVE('',#275,#274,#154,.T.);
#349=EDGE_CURVE('',#275,#240,#155,.T.);
#350=EDGE_CURVE('',#264,#275,#156,.T.);
#351=EDGE_CURVE('',#276,#263,#157,.T.);
#352=EDGE_CURVE('',#276,#231,#158,.T.);
#353=EDGE_CURVE('',#269,#276,#159,.T.);
#354=ORIENTED_EDGE('',*,*,#277,.T.);
#355=ORIENTED_EDGE('',*,*,#278,.T.);
#356=ORIENTED_EDGE('',*,*,#279,.T.);
#357=ORIENTED_EDGE('',*,*,#280,.T.);
#358=ORIENTED_EDGE('',*,*,#281,.T.);
#359=ORIENTED_EDGE('',*,*,#282,.T.);
#360=ORIENTED_EDGE('',*,*,#283,.F.);
#361=ORIENTED_EDGE('',*,*,#284,.F.);
#362=ORIENTED_EDGE('',*,*,#283,.T.);
#363=ORIENTED_EDGE('',*,*,#285,.T.);
#364=ORIENTED_EDGE('',*,*,#286,.F.);
#365=ORIENTED_EDGE('',*,*,#287,.F.);
#366=ORIENTED_EDGE('',*,*,#288,.T.);
#367=ORIENTED_EDGE('',*,*,#289,.T.);
#368=ORIENTED_EDGE('',*,*,#286,.T.);
#369=ORIENTED_EDGE('',*,*,#290,.T.);
#370=ORIENTED_EDGE('',*,*,#291,.T.);
#371=ORIENTED_EDGE('',*,*,#292,.T.);
#372=ORIENTED_EDGE('',*,*,#293,.T.);
#373=ORIENTED_EDGE('',*,*,#294,.T.);
#374=ORIENTED_EDGE('',*,*,#295,.F.);
#375=ORIENTED_EDGE('',*,*,#296,.T.);
#376=ORIENTED_EDGE('',*,*,#297,.F.);
#377=ORIENTED_EDGE('',*,*,#298,.F.);
#378=ORIENTED_EDGE('',*,*,#299,.F.);
#379=ORIENTED_EDGE('',*,*,#298,.T.);
#380=ORIENTED_EDGE('',*,*,#300,.F.);
#381=ORIENTED_EDGE('',*,*,#301,.F.);
#382=ORIENTED_EDGE('',*,*,#302,.F.);
#383=ORIENTED_EDGE('',*,*,#303,.F.);
#384=ORIENTED_EDGE('',*,*,#301,.T.);
#385=ORIENTED_EDGE('',*,*,#304,.F.);
#386=ORIENTED_EDGE('',*,*,#305,.F.);
#387=ORIENTED_EDGE('',*,*,#306,.T.);
#388=ORIENTED_EDGE('',*,*,#307,.T.);
#389=ORIENTED_EDGE('',*,*,#304,.T.);
#390=ORIENTED_EDGE('',*,*,#300,.T.);
#391=ORIENTED_EDGE('',*,*,#297,.T.);
#392=ORIENTED_EDGE('',*,*,#308,.F.);
#393=ORIENTED_EDGE('',*,*,#309,.T.);
#394=ORIENTED_EDGE('',*,*,#310,.F.);
#395=ORIENTED_EDGE('',*,*,#309,.F.);
#396=ORIENTED_EDGE('',*,*,#308,.T.);
#397=ORIENTED_EDGE('',*,*,#311,.T.);
#398=ORIENTED_EDGE('',*,*,#312,.F.);
#399=ORIENTED_EDGE('',*,*,#313,.T.);
#400=ORIENTED_EDGE('',*,*,#311,.F.);
#401=ORIENTED_EDGE('',*,*,#313,.F.);
#402=ORIENTED_EDGE('',*,*,#314,.T.);
#403=ORIENTED_EDGE('',*,*,#315,.T.);
#404=ORIENTED_EDGE('',*,*,#316,.F.);
#405=ORIENTED_EDGE('',*,*,#317,.F.);
#406=ORIENTED_EDGE('',*,*,#318,.F.);
#407=ORIENTED_EDGE('',*,*,#319,.T.);
#408=ORIENTED_EDGE('',*,*,#316,.T.);
#409=ORIENTED_EDGE('',*,*,#320,.T.);
#410=ORIENTED_EDGE('',*,*,#312,.T.);
#411=ORIENTED_EDGE('',*,*,#321,.F.);
#412=ORIENTED_EDGE('',*,*,#322,.T.);
#413=ORIENTED_EDGE('',*,*,#306,.F.);
#414=ORIENTED_EDGE('',*,*,#296,.F.);
#415=ORIENTED_EDGE('',*,*,#323,.T.);
#416=ORIENTED_EDGE('',*,*,#305,.T.);
#417=ORIENTED_EDGE('',*,*,#307,.F.);
#418=ORIENTED_EDGE('',*,*,#322,.F.);
#419=ORIENTED_EDGE('',*,*,#324,.T.);
#420=ORIENTED_EDGE('',*,*,#325,.T.);
#421=ORIENTED_EDGE('',*,*,#326,.T.);
#422=ORIENTED_EDGE('',*,*,#327,.F.);
#423=ORIENTED_EDGE('',*,*,#328,.F.);
#424=ORIENTED_EDGE('',*,*,#327,.T.);
#425=ORIENTED_EDGE('',*,*,#329,.T.);
#426=ORIENTED_EDGE('',*,*,#330,.F.);
#427=ORIENTED_EDGE('',*,*,#331,.T.);
#428=ORIENTED_EDGE('',*,*,#321,.T.);
#429=ORIENTED_EDGE('',*,*,#330,.T.);
#430=ORIENTED_EDGE('',*,*,#332,.T.);
#431=ORIENTED_EDGE('',*,*,#291,.F.);
#432=ORIENTED_EDGE('',*,*,#333,.F.);
#433=ORIENTED_EDGE('',*,*,#334,.F.);
#434=ORIENTED_EDGE('',*,*,#335,.T.);
#435=ORIENTED_EDGE('',*,*,#280,.F.);
#436=ORIENTED_EDGE('',*,*,#336,.F.);
#437=ORIENTED_EDGE('',*,*,#337,.F.);
#438=ORIENTED_EDGE('',*,*,#336,.T.);
#439=ORIENTED_EDGE('',*,*,#279,.F.);
#440=ORIENTED_EDGE('',*,*,#338,.F.);
#441=ORIENTED_EDGE('',*,*,#339,.F.);
#442=ORIENTED_EDGE('',*,*,#338,.T.);
#443=ORIENTED_EDGE('',*,*,#278,.F.);
#444=ORIENTED_EDGE('',*,*,#340,.F.);
#445=ORIENTED_EDGE('',*,*,#341,.T.);
#446=ORIENTED_EDGE('',*,*,#340,.T.);
#447=ORIENTED_EDGE('',*,*,#277,.F.);
#448=ORIENTED_EDGE('',*,*,#342,.F.);
#449=ORIENTED_EDGE('',*,*,#343,.T.);
#450=ORIENTED_EDGE('',*,*,#342,.T.);
#451=ORIENTED_EDGE('',*,*,#284,.T.);
#452=ORIENTED_EDGE('',*,*,#287,.T.);
#453=ORIENTED_EDGE('',*,*,#289,.F.);
#454=ORIENTED_EDGE('',*,*,#344,.F.);
#455=ORIENTED_EDGE('',*,*,#320,.F.);
#456=ORIENTED_EDGE('',*,*,#315,.F.);
#457=ORIENTED_EDGE('',*,*,#318,.T.);
#458=ORIENTED_EDGE('',*,*,#344,.T.);
#459=ORIENTED_EDGE('',*,*,#288,.F.);
#460=ORIENTED_EDGE('',*,*,#345,.F.);
#461=ORIENTED_EDGE('',*,*,#346,.T.);
#462=ORIENTED_EDGE('',*,*,#317,.T.);
#463=ORIENTED_EDGE('',*,*,#319,.F.);
#464=ORIENTED_EDGE('',*,*,#345,.T.);
#465=ORIENTED_EDGE('',*,*,#294,.F.);
#466=ORIENTED_EDGE('',*,*,#347,.F.);
#467=ORIENTED_EDGE('',*,*,#348,.T.);
#468=ORIENTED_EDGE('',*,*,#347,.T.);
#469=ORIENTED_EDGE('',*,*,#293,.F.);
#470=ORIENTED_EDGE('',*,*,#349,.F.);
#471=ORIENTED_EDGE('',*,*,#350,.T.);
#472=ORIENTED_EDGE('',*,*,#349,.T.);
#473=ORIENTED_EDGE('',*,*,#292,.F.);
#474=ORIENTED_EDGE('',*,*,#332,.F.);
#475=ORIENTED_EDGE('',*,*,#329,.F.);
#476=ORIENTED_EDGE('',*,*,#326,.F.);
#477=ORIENTED_EDGE('',*,*,#351,.T.);
#478=ORIENTED_EDGE('',*,*,#328,.T.);
#479=ORIENTED_EDGE('',*,*,#331,.F.);
#480=ORIENTED_EDGE('',*,*,#333,.T.);
#481=ORIENTED_EDGE('',*,*,#290,.F.);
#482=ORIENTED_EDGE('',*,*,#285,.F.);
#483=ORIENTED_EDGE('',*,*,#282,.F.);
#484=ORIENTED_EDGE('',*,*,#352,.F.);
#485=ORIENTED_EDGE('',*,*,#353,.T.);
#486=ORIENTED_EDGE('',*,*,#352,.T.);
#487=ORIENTED_EDGE('',*,*,#281,.F.);
#488=ORIENTED_EDGE('',*,*,#335,.F.);
#489=ORIENTED_EDGE('',*,*,#303,.T.);
#490=ORIENTED_EDGE('',*,*,#323,.F.);
#491=ORIENTED_EDGE('',*,*,#295,.T.);
#492=ORIENTED_EDGE('',*,*,#299,.T.);
#493=ORIENTED_EDGE('',*,*,#324,.F.);
#494=ORIENTED_EDGE('',*,*,#351,.F.);
#495=ORIENTED_EDGE('',*,*,#353,.F.);
#496=ORIENTED_EDGE('',*,*,#334,.T.);
#497=ORIENTED_EDGE('',*,*,#337,.T.);
#498=ORIENTED_EDGE('',*,*,#339,.T.);
#499=ORIENTED_EDGE('',*,*,#341,.F.);
#500=ORIENTED_EDGE('',*,*,#343,.F.);
#501=ORIENTED_EDGE('',*,*,#314,.F.);
#502=ORIENTED_EDGE('',*,*,#346,.F.);
#503=ORIENTED_EDGE('',*,*,#348,.F.);
#504=ORIENTED_EDGE('',*,*,#350,.F.);
#505=ORIENTED_EDGE('',*,*,#325,.F.);
#506=ORIENTED_EDGE('',*,*,#302,.T.);
#507=ORIENTED_EDGE('',*,*,#310,.T.);
#508=PLANE('',#574);
#509=PLANE('',#575);
#510=PLANE('',#576);
#511=PLANE('',#577);
#512=PLANE('',#582);
#513=PLANE('',#583);
#514=PLANE('',#589);
#515=PLANE('',#593);
#516=PLANE('',#594);
#517=PLANE('',#598);
#518=PLANE('',#599);
#519=PLANE('',#600);
#520=PLANE('',#601);
#521=PLANE('',#602);
#522=PLANE('',#603);
#523=PLANE('',#604);
#524=PLANE('',#605);
#525=PLANE('',#606);
#526=PLANE('',#607);
#527=PLANE('',#608);
#528=PLANE('',#609);
#529=PLANE('',#610);
#530=PLANE('',#611);
#531=PLANE('',#612);
#532=ADVANCED_FACE('',(#34),#508,.F.);
#533=ADVANCED_FACE('',(#35),#509,.T.);
#534=ADVANCED_FACE('',(#36),#510,.T.);
#535=ADVANCED_FACE('',(#37),#511,.T.);
#536=ADVANCED_FACE('',(#38),#30,.T.);
#537=ADVANCED_FACE('',(#39),#512,.T.);
#538=ADVANCED_FACE('',(#40),#513,.F.);
#539=ADVANCED_FACE('',(#41),#31,.T.);
#540=ADVANCED_FACE('',(#42,#15),#514,.F.);
#541=ADVANCED_FACE('',(#43),#32,.F.);
#542=ADVANCED_FACE('',(#44),#515,.T.);
#543=ADVANCED_FACE('',(#45,#16),#516,.T.);
#544=ADVANCED_FACE('',(#46),#33,.F.);
#545=ADVANCED_FACE('',(#47),#517,.T.);
#546=ADVANCED_FACE('',(#48,#17),#518,.T.);
#547=ADVANCED_FACE('',(#49),#519,.T.);
#548=ADVANCED_FACE('',(#50),#520,.T.);
#549=ADVANCED_FACE('',(#51),#521,.T.);
#550=ADVANCED_FACE('',(#52),#522,.T.);
#551=ADVANCED_FACE('',(#53),#523,.T.);
#552=ADVANCED_FACE('',(#54),#524,.T.);
#553=ADVANCED_FACE('',(#55),#525,.T.);
#554=ADVANCED_FACE('',(#56),#526,.T.);
#555=ADVANCED_FACE('',(#57),#527,.T.);
#556=ADVANCED_FACE('',(#58),#528,.T.);
#557=ADVANCED_FACE('',(#59),#529,.T.);
#558=ADVANCED_FACE('',(#60),#530,.T.);
#559=ADVANCED_FACE('',(#61,#18),#531,.F.);
#560=CLOSED_SHELL('',(#532,#533,#534,#535,#536,#537,#538,#539,#540,#541,
#542,#543,#544,#545,#546,#547,#548,#549,#550,#551,#552,#553,#554,#555,#556,
#557,#558,#559));
#561=DERIVED_UNIT_ELEMENT(#563,1.);
#562=DERIVED_UNIT_ELEMENT(#921,-3.);
#563=(
MASS_UNIT()
NAMED_UNIT(*)
SI_UNIT(.KILO.,.GRAM.)
);
#564=DERIVED_UNIT((#561,#562));
#565=MEASURE_REPRESENTATION_ITEM('density measure',
POSITIVE_RATIO_MEASURE(1420.),#564);
#566=PROPERTY_DEFINITION_REPRESENTATION(#571,#568);
#567=PROPERTY_DEFINITION_REPRESENTATION(#572,#569);
#568=REPRESENTATION('material name',(#570),#918);
#569=REPRESENTATION('density',(#565),#918);
#570=DESCRIPTIVE_REPRESENTATION_ITEM('PET','PET');
#571=PROPERTY_DEFINITION('material property','material name',#928);
#572=PROPERTY_DEFINITION('material property','density of part',#928);
#573=AXIS2_PLACEMENT_3D('',#759,#613,#614);
#574=AXIS2_PLACEMENT_3D('',#760,#615,#616);
#575=AXIS2_PLACEMENT_3D('',#777,#625,#626);
#576=AXIS2_PLACEMENT_3D('',#783,#630,#631);
#577=AXIS2_PLACEMENT_3D('',#797,#639,#640);
#578=AXIS2_PLACEMENT_3D('',#806,#645,#646);
#579=AXIS2_PLACEMENT_3D('',#808,#647,#648);
#580=AXIS2_PLACEMENT_3D('',#810,#649,#650);
#581=AXIS2_PLACEMENT_3D('',#813,#652,#653);
#582=AXIS2_PLACEMENT_3D('',#814,#654,#655);
#583=AXIS2_PLACEMENT_3D('',#820,#659,#660);
#584=AXIS2_PLACEMENT_3D('',#822,#661,#662);
#585=AXIS2_PLACEMENT_3D('',#823,#663,#664);
#586=AXIS2_PLACEMENT_3D('',#824,#665,#666);
#587=AXIS2_PLACEMENT_3D('',#826,#667,#668);
#588=AXIS2_PLACEMENT_3D('',#829,#670,#671);
#589=AXIS2_PLACEMENT_3D('',#830,#672,#673);
#590=AXIS2_PLACEMENT_3D('',#832,#674,#675);
#591=AXIS2_PLACEMENT_3D('',#833,#676,#677);
#592=AXIS2_PLACEMENT_3D('',#835,#678,#679);
#593=AXIS2_PLACEMENT_3D('',#837,#681,#682);
#594=AXIS2_PLACEMENT_3D('',#846,#687,#688);
#595=AXIS2_PLACEMENT_3D('',#852,#692,#693);
#596=AXIS2_PLACEMENT_3D('',#854,#694,#695);
#597=AXIS2_PLACEMENT_3D('',#856,#697,#698);
#598=AXIS2_PLACEMENT_3D('',#857,#699,#700);
#599=AXIS2_PLACEMENT_3D('',#867,#706,#707);
#600=AXIS2_PLACEMENT_3D('',#873,#711,#712);
#601=AXIS2_PLACEMENT_3D('',#876,#715,#716);
#602=AXIS2_PLACEMENT_3D('',#882,#720,#721);
#603=AXIS2_PLACEMENT_3D('',#886,#724,#725);
#604=AXIS2_PLACEMENT_3D('',#890,#728,#729);
#605=AXIS2_PLACEMENT_3D('',#894,#732,#733);
#606=AXIS2_PLACEMENT_3D('',#897,#736,#737);
#607=AXIS2_PLACEMENT_3D('',#899,#739,#740);
#608=AXIS2_PLACEMENT_3D('',#903,#743,#744);
#609=AXIS2_PLACEMENT_3D('',#907,#747,#748);
#610=AXIS2_PLACEMENT_3D('',#909,#750,#751);
#611=AXIS2_PLACEMENT_3D('',#913,#754,#755);
#612=AXIS2_PLACEMENT_3D('',#915,#757,#758);
#613=DIRECTION('axis',(0.,0.,1.));
#614=DIRECTION('refdir',(1.,0.,0.));
#615=DIRECTION('center_axis',(0.,1.,0.));
#616=DIRECTION('ref_axis',(-1.,0.,0.));
#617=DIRECTION('',(0.,0.,-1.));
#618=DIRECTION('',(1.,0.,0.));
#619=DIRECTION('',(0.,0.,1.));
#620=DIRECTION('',(-1.,0.,1.67071320524657E-16));
#621=DIRECTION('',(0.,0.,-1.));
#622=DIRECTION('',(1.,0.,0.));
#623=DIRECTION('',(0.,0.,1.));
#624=DIRECTION('',(1.,0.,0.));
#625=DIRECTION('center_axis',(-1.,0.,0.));
#626=DIRECTION('ref_axis',(0.,0.,1.));
#627=DIRECTION('',(0.,1.,0.));
#628=DIRECTION('',(0.,0.,1.));
#629=DIRECTION('',(0.,1.,0.));
#630=DIRECTION('center_axis',(0.,1.,0.));
#631=DIRECTION('ref_axis',(0.,0.,1.));
#632=DIRECTION('',(0.,0.,1.));
#633=DIRECTION('',(1.,0.,0.));
#634=DIRECTION('',(-1.,0.,0.));
#635=DIRECTION('',(0.,0.,1.));
#636=DIRECTION('',(1.,0.,0.));
#637=DIRECTION('',(0.,0.,-1.));
#638=DIRECTION('',(-1.,0.,0.));
#639=DIRECTION('center_axis',(1.,0.,0.));
#640=DIRECTION('ref_axis',(0.,0.,1.));
#641=DIRECTION('',(0.,0.,-1.));
#642=DIRECTION('',(0.,-1.,0.));
#643=DIRECTION('',(0.,0.,1.));
#644=DIRECTION('',(0.,-1.,0.));
#645=DIRECTION('center_axis',(0.,-1.,0.));
#646=DIRECTION('ref_axis',(-1.,0.,0.));
#647=DIRECTION('center_axis',(0.,1.,0.));
#648=DIRECTION('ref_axis',(0.504999999999987,0.,-0.863119342848956));
#649=DIRECTION('center_axis',(0.,-1.,0.));
#650=DIRECTION('ref_axis',(0.504999999999987,0.,-0.863119342848956));
#651=DIRECTION('',(0.,-1.,0.));
#652=DIRECTION('center_axis',(0.,1.,0.));
#653=DIRECTION('ref_axis',(0.504999999999987,0.,-0.863119342848956));
#654=DIRECTION('center_axis',(1.,0.,0.));
#655=DIRECTION('ref_axis',(0.,0.,1.));
#656=DIRECTION('',(0.,0.,-1.));
#657=DIRECTION('',(0.,0.,1.));
#658=DIRECTION('',(0.,-1.,0.));
#659=DIRECTION('center_axis',(0.,1.,0.));
#660=DIRECTION('ref_axis',(-1.,0.,0.));
#661=DIRECTION('center_axis',(0.,1.,0.));
#662=DIRECTION('ref_axis',(0.504999999999987,0.,-0.863119342848956));
#663=DIRECTION('center_axis',(0.,1.,0.));
#664=DIRECTION('ref_axis',(0.504999999999987,0.,-0.863119342848956));
#665=DIRECTION('center_axis',(0.,-1.,0.));
#666=DIRECTION('ref_axis',(-1.,0.,0.));
#667=DIRECTION('center_axis',(0.,-1.,0.));
#668=DIRECTION('ref_axis',(-1.,0.,0.));
#669=DIRECTION('',(0.,1.,0.));
#670=DIRECTION('center_axis',(0.,1.,0.));
#671=DIRECTION('ref_axis',(-1.,0.,0.));
#672=DIRECTION('center_axis',(0.,1.,0.));
#673=DIRECTION('ref_axis',(-1.,0.,0.));
#674=DIRECTION('center_axis',(0.,1.,0.));
#675=DIRECTION('ref_axis',(-1.,0.,0.));
#676=DIRECTION('center_axis',(0.,1.,0.));
#677=DIRECTION('ref_axis',(-1.,0.,0.));
#678=DIRECTION('center_axis',(0.,-1.,0.));
#679=DIRECTION('ref_axis',(-1.,0.,0.));
#680=DIRECTION('',(0.,-1.,0.));
#681=DIRECTION('center_axis',(-1.,0.,0.));
#682=DIRECTION('ref_axis',(0.,0.,1.));
#683=DIRECTION('',(0.,0.,1.));
#684=DIRECTION('',(0.,1.,0.));
#685=DIRECTION('',(0.,0.,1.));
#686=DIRECTION('',(0.,1.,0.));
#687=DIRECTION('center_axis',(0.,1.,0.));
#688=DIRECTION('ref_axis',(-1.,0.,0.));
#689=DIRECTION('',(0.,0.,1.));
#690=DIRECTION('',(-1.,0.,0.));
#691=DIRECTION('',(1.,0.,0.));
#692=DIRECTION('center_axis',(0.,1.,0.));
#693=DIRECTION('ref_axis',(0.504999999999987,0.,-0.863119342848956));
#694=DIRECTION('center_axis',(0.,-1.,0.));
#695=DIRECTION('ref_axis',(0.504999999999987,0.,-0.863119342848956));
#696=DIRECTION('',(0.,-1.,0.));
#697=DIRECTION('center_axis',(0.,-1.,0.));
#698=DIRECTION('ref_axis',(0.504999999999987,0.,-0.863119342848956));
#699=DIRECTION('center_axis',(-1.,0.,0.));
#700=DIRECTION('ref_axis',(0.,0.,1.));
#701=DIRECTION('',(0.,0.,1.));
#702=DIRECTION('',(0.,0.,1.));
#703=DIRECTION('',(0.,1.,0.));
#704=DIRECTION('',(0.,0.,1.));
#705=DIRECTION('',(0.,1.,0.));
#706=DIRECTION('center_axis',(0.,1.,0.));
#707=DIRECTION('ref_axis',(-1.,0.,0.));
#708=DIRECTION('',(1.,0.,0.));
#709=DIRECTION('',(0.,0.,1.));
#710=DIRECTION('',(-1.,0.,0.));
#711=DIRECTION('center_axis',(-1.,0.,0.));
#712=DIRECTION('ref_axis',(0.,0.,1.));
#713=DIRECTION('',(0.,1.,0.));
#714=DIRECTION('',(0.,1.,0.));
#715=DIRECTION('center_axis',(-1.67071320524657E-16,0.,-1.));
#716=DIRECTION('ref_axis',(-1.,0.,1.67071320524657E-16));
#717=DIRECTION('',(1.,0.,-1.67071320524657E-16));
#718=DIRECTION('',(0.,1.,0.));
#719=DIRECTION('',(0.,1.,0.));
#720=DIRECTION('center_axis',(-1.,0.,0.));
#721=DIRECTION('ref_axis',(0.,0.,1.));
#722=DIRECTION('',(0.,0.,-1.));
#723=DIRECTION('',(0.,1.,0.));
#724=DIRECTION('center_axis',(0.,0.,1.));
#725=DIRECTION('ref_axis',(1.,0.,0.));
#726=DIRECTION('',(-1.,0.,0.));
#727=DIRECTION('',(0.,1.,0.));
#728=DIRECTION('center_axis',(1.,0.,0.));
#729=DIRECTION('ref_axis',(0.,0.,-1.));
#730=DIRECTION('',(0.,0.,-1.));
#731=DIRECTION('',(0.,1.,0.));
#732=DIRECTION('center_axis',(0.,0.,1.));
#733=DIRECTION('ref_axis',(1.,0.,0.));
#734=DIRECTION('',(1.,0.,0.));
#735=DIRECTION('',(0.,1.,0.));
#736=DIRECTION('center_axis',(-1.,0.,0.));
#737=DIRECTION('ref_axis',(0.,0.,1.));
#738=DIRECTION('',(0.,1.,0.));
#739=DIRECTION('center_axis',(0.,0.,-1.));
#740=DIRECTION('ref_axis',(-1.,0.,0.));
#741=DIRECTION('',(-1.,0.,0.));
#742=DIRECTION('',(0.,1.,0.));
#743=DIRECTION('center_axis',(1.,0.,0.));
#744=DIRECTION('ref_axis',(0.,0.,-1.));
#745=DIRECTION('',(0.,0.,-1.));
#746=DIRECTION('',(0.,1.,0.));
#747=DIRECTION('center_axis',(0.,0.,1.));
#748=DIRECTION('ref_axis',(1.,0.,0.));
#749=DIRECTION('',(1.,0.,0.));
#750=DIRECTION('center_axis',(0.,0.,-1.));
#751=DIRECTION('ref_axis',(-1.,0.,0.));
#752=DIRECTION('',(-1.,0.,0.));
#753=DIRECTION('',(0.,1.,0.));
#754=DIRECTION('center_axis',(1.,0.,0.));
#755=DIRECTION('ref_axis',(0.,0.,-1.));
#756=DIRECTION('',(0.,0.,-1.));
#757=DIRECTION('center_axis',(0.,1.,0.));
#758=DIRECTION('ref_axis',(-1.,0.,0.));
#759=CARTESIAN_POINT('',(0.,0.,0.));
#760=CARTESIAN_POINT('Origin',(152.419183588453,38.5,-75.0500000000001));
#761=CARTESIAN_POINT('',(126.838367176906,38.5,-96.));
#762=CARTESIAN_POINT('',(126.838367176906,38.5,-116.1));
#763=CARTESIAN_POINT('',(126.838367176906,38.5,-34.0000000000002));
#764=CARTESIAN_POINT('',(178.,38.5,-116.1));
#765=CARTESIAN_POINT('',(178.,38.5,-116.1));
#766=CARTESIAN_POINT('',(178.,38.5,-34.0000000000002));
#767=CARTESIAN_POINT('',(178.,38.5,-34.0000000000002));
#768=CARTESIAN_POINT('',(126.838367176906,38.5,-34.0000000000002));
#769=CARTESIAN_POINT('',(124.838367176906,38.5,-34.0000000000002));
#770=CARTESIAN_POINT('',(126.838367176906,38.5,-54.9999986588955));
#771=CARTESIAN_POINT('',(126.838367176906,38.5,-34.0000000000002));
#772=CARTESIAN_POINT('',(138.5,38.5,-54.9999986588955));
#773=CARTESIAN_POINT('',(120.991101212697,38.5,-54.9999986588955));
#774=CARTESIAN_POINT('',(138.5,38.5,-96.));
#775=CARTESIAN_POINT('',(138.5,38.5,-96.));
#776=CARTESIAN_POINT('',(111.99,38.5,-96.));
#777=CARTESIAN_POINT('Origin',(138.5,38.5,-96.));
#778=CARTESIAN_POINT('',(138.5,40.5,-54.9999986588955));
#779=CARTESIAN_POINT('',(138.5,38.5,-54.9999986588955));
#780=CARTESIAN_POINT('',(138.5,40.5,-96.));
#781=CARTESIAN_POINT('',(138.5,40.5,-96.));
#782=CARTESIAN_POINT('',(138.5,38.5,-96.));
#783=CARTESIAN_POINT('Origin',(152.419183588453,40.5,-75.0500000000001));
#784=CARTESIAN_POINT('',(124.838367176906,40.5,-118.1));
#785=CARTESIAN_POINT('',(124.838367176906,40.5,-96.));
#786=CARTESIAN_POINT('',(124.838367176906,40.5,-116.1));
#787=CARTESIAN_POINT('',(111.99,40.5,-96.));
#788=CARTESIAN_POINT('',(124.838367176906,40.5,-54.9999986588955));
#789=CARTESIAN_POINT('',(120.991101212697,40.5,-54.9999986588955));
#790=CARTESIAN_POINT('',(124.838367176906,40.5,-32.0000000000002));
#791=CARTESIAN_POINT('',(124.838367176906,40.5,-116.1));
#792=CARTESIAN_POINT('',(180.,40.5,-32.0000000000002));
#793=CARTESIAN_POINT('',(111.99,40.5,-32.0000000000002));
#794=CARTESIAN_POINT('',(180.,40.5,-118.1));
#795=CARTESIAN_POINT('',(180.,40.5,-32.0000000000002));
#796=CARTESIAN_POINT('',(180.,40.5,-118.1));
#797=CARTESIAN_POINT('Origin',(117.,27.,-49.0603875774914));
#798=CARTESIAN_POINT('',(117.,27.,-46.9162386856979));
#799=CARTESIAN_POINT('',(117.,27.,-49.0603875774914));
#800=CARTESIAN_POINT('',(117.,27.,-62.0551937887458));
#801=CARTESIAN_POINT('',(117.,15.,-46.9162386856979));
#802=CARTESIAN_POINT('',(117.,27.,-46.9162386856979));
#803=CARTESIAN_POINT('',(117.,15.,-49.0603875774914));
#804=CARTESIAN_POINT('',(117.,15.,-46.9162386856979));
#805=CARTESIAN_POINT('',(117.,27.,-49.0603875774914));
#806=CARTESIAN_POINT('Origin',(115.99,27.,-45.19));
#807=CARTESIAN_POINT('',(111.99,27.,-45.19));
#808=CARTESIAN_POINT('Origin',(115.99,27.,-45.19));
#809=CARTESIAN_POINT('',(117.,15.,-41.3196124225085));
#810=CARTESIAN_POINT('Origin',(115.99,15.,-45.19));
#811=CARTESIAN_POINT('',(117.,27.,-41.3196124225085));
#812=CARTESIAN_POINT('',(117.,27.,-41.3196124225085));
#813=CARTESIAN_POINT('Origin',(115.99,27.,-45.19));
#814=CARTESIAN_POINT('Origin',(117.,27.,-43.4637613143021));
#815=CARTESIAN_POINT('',(117.,27.,-43.4637613143021));
#816=CARTESIAN_POINT('',(117.,27.,-59.2568806571511));
#817=CARTESIAN_POINT('',(117.,15.,-43.4637613143021));
#818=CARTESIAN_POINT('',(117.,15.,-43.4637613143021));
#819=CARTESIAN_POINT('',(117.,27.,-43.4637613143021));
#820=CARTESIAN_POINT('Origin',(114.495,15.,-45.19));
#821=CARTESIAN_POINT('',(114.98,15.,-43.4637613143021));
#822=CARTESIAN_POINT('Origin',(115.99,15.,-45.19));
#823=CARTESIAN_POINT('Origin',(115.99,15.,-45.19));
#824=CARTESIAN_POINT('Origin',(115.96,27.,-104.7));
#825=CARTESIAN_POINT('',(119.469728923554,19.,-104.7));
#826=CARTESIAN_POINT('Origin',(115.96,19.,-104.7));
#827=CARTESIAN_POINT('',(119.469728923554,27.,-104.7));
#828=CARTESIAN_POINT('',(119.469728923554,27.,-104.7));
#829=CARTESIAN_POINT('Origin',(115.96,27.,-104.7));
#830=CARTESIAN_POINT('Origin',(115.96,19.,-104.7));
#831=CARTESIAN_POINT('',(118.06,19.,-104.7));
#832=CARTESIAN_POINT('Origin',(115.96,19.,-104.7));
#833=CARTESIAN_POINT('Origin',(115.96,27.,-104.7));
#834=CARTESIAN_POINT('',(118.06,29.,-104.7));
#835=CARTESIAN_POINT('Origin',(115.96,29.,-104.7));
#836=CARTESIAN_POINT('',(118.06,27.,-104.7));
#837=CARTESIAN_POINT('Origin',(111.99,27.,-118.1));
#838=CARTESIAN_POINT('',(111.99,27.,-118.1));
#839=CARTESIAN_POINT('',(111.99,27.,-96.));
#840=CARTESIAN_POINT('',(111.99,27.,-118.1));
#841=CARTESIAN_POINT('',(111.99,29.,-96.));
#842=CARTESIAN_POINT('',(111.99,27.,-96.));
#843=CARTESIAN_POINT('',(111.99,29.,-118.1));
#844=CARTESIAN_POINT('',(111.99,29.,-118.1));
#845=CARTESIAN_POINT('',(111.99,27.,-118.1));
#846=CARTESIAN_POINT('Origin',(118.414183588453,29.,-107.05));
#847=CARTESIAN_POINT('',(124.838367176906,29.,-118.1));
#848=CARTESIAN_POINT('',(124.838367176906,29.,-96.));
#849=CARTESIAN_POINT('',(124.838367176906,29.,-112.575));
#850=CARTESIAN_POINT('',(180.,29.,-118.1));
#851=CARTESIAN_POINT('',(111.99,29.,-96.));
#852=CARTESIAN_POINT('Origin',(115.99,27.,-45.19));
#853=CARTESIAN_POINT('',(114.98,29.,-43.4637613143021));
#854=CARTESIAN_POINT('Origin',(115.99,29.,-45.19));
#855=CARTESIAN_POINT('',(114.98,27.,-43.4637613143021));
#856=CARTESIAN_POINT('Origin',(115.99,27.,-45.19));
#857=CARTESIAN_POINT('Origin',(111.99,27.,-54.9999986588955));
#858=CARTESIAN_POINT('',(111.99,27.,-54.9999986588955));
#859=CARTESIAN_POINT('',(111.99,27.,-118.1));
#860=CARTESIAN_POINT('',(111.99,27.,-32.0000000000002));
#861=CARTESIAN_POINT('',(111.99,27.,-118.1));
#862=CARTESIAN_POINT('',(111.99,29.,-32.0000000000002));
#863=CARTESIAN_POINT('',(111.99,27.,-32.0000000000002));
#864=CARTESIAN_POINT('',(111.99,29.,-54.9999986588955));
#865=CARTESIAN_POINT('',(111.99,29.,-118.1));
#866=CARTESIAN_POINT('',(111.99,27.,-54.9999986588955));
#867=CARTESIAN_POINT('Origin',(118.414183588453,29.,-43.4999993294478));
#868=CARTESIAN_POINT('',(124.838367176906,29.,-32.0000000000002));
#869=CARTESIAN_POINT('',(111.99,29.,-32.0000000000002));
#870=CARTESIAN_POINT('',(124.838367176906,29.,-54.9999986588955));
#871=CARTESIAN_POINT('',(124.838367176906,29.,-49.2499989941717));
#872=CARTESIAN_POINT('',(126.838367176906,29.,-54.9999986588955));
#873=CARTESIAN_POINT('Origin',(124.838367176906,27.,-54.9999986588955));
#874=CARTESIAN_POINT('',(124.838367176906,27.,-32.0000000000002));
#875=CARTESIAN_POINT('',(124.838367176906,27.,-54.9999986588955));
#876=CARTESIAN_POINT('Origin',(178.,27.,-34.0000000000002));
#877=CARTESIAN_POINT('',(126.838367176906,27.,-34.0000000000002));
#878=CARTESIAN_POINT('',(178.,27.,-34.0000000000002));
#879=CARTESIAN_POINT('',(124.838367176906,27.,-34.0000000000002));
#880=CARTESIAN_POINT('',(126.838367176906,27.,-34.0000000000002));
#881=CARTESIAN_POINT('',(178.,27.,-34.0000000000002));
#882=CARTESIAN_POINT('Origin',(178.,27.,-116.1));
#883=CARTESIAN_POINT('',(178.,27.,-116.1));
#884=CARTESIAN_POINT('',(178.,27.,-34.0000000000002));
#885=CARTESIAN_POINT('',(178.,27.,-116.1));
#886=CARTESIAN_POINT('Origin',(126.838367176906,27.,-116.1));
#887=CARTESIAN_POINT('',(126.838367176906,27.,-116.1));
#888=CARTESIAN_POINT('',(178.,27.,-116.1));
#889=CARTESIAN_POINT('',(126.838367176906,27.,-116.1));
#890=CARTESIAN_POINT('Origin',(126.838367176906,27.,-96.));
#891=CARTESIAN_POINT('',(126.838367176906,27.,-96.));
#892=CARTESIAN_POINT('',(126.838367176906,27.,-34.0000000000002));
#893=CARTESIAN_POINT('',(126.838367176906,27.,-96.));
#894=CARTESIAN_POINT('Origin',(124.838367176906,27.,-96.));
#895=CARTESIAN_POINT('',(111.99,27.,-96.));
#896=CARTESIAN_POINT('',(124.838367176906,27.,-96.));
#897=CARTESIAN_POINT('Origin',(124.838367176906,27.,-118.1));
#898=CARTESIAN_POINT('',(124.838367176906,27.,-118.1));
#899=CARTESIAN_POINT('Origin',(180.,27.,-118.1));
#900=CARTESIAN_POINT('',(180.,27.,-118.1));
#901=CARTESIAN_POINT('',(180.,27.,-118.1));
#902=CARTESIAN_POINT('',(180.,27.,-118.1));
#903=CARTESIAN_POINT('Origin',(180.,27.,-32.0000000000002));
#904=CARTESIAN_POINT('',(180.,27.,-32.0000000000002));
#905=CARTESIAN_POINT('',(180.,27.,-32.0000000000002));
#906=CARTESIAN_POINT('',(180.,27.,-32.0000000000002));
#907=CARTESIAN_POINT('Origin',(124.838367176906,27.,-32.0000000000002));
#908=CARTESIAN_POINT('',(111.99,27.,-32.0000000000002));
#909=CARTESIAN_POINT('Origin',(126.838367176906,27.,-54.9999986588955));
#910=CARTESIAN_POINT('',(126.838367176906,27.,-54.9999986588955));
#911=CARTESIAN_POINT('',(126.838367176906,27.,-54.9999986588955));
#912=CARTESIAN_POINT('',(126.838367176906,27.,-54.9999986588955));
#913=CARTESIAN_POINT('Origin',(126.838367176906,27.,-34.0000000000002));
#914=CARTESIAN_POINT('',(126.838367176906,27.,-34.0000000000002));
#915=CARTESIAN_POINT('Origin',(152.419183588453,27.,-75.0500000000001));
#916=UNCERTAINTY_MEASURE_WITH_UNIT(LENGTH_MEASURE(0.01),#920,
'DISTANCE_ACCURACY_VALUE',
'Maximum model space distance between geometric entities at asserted c
onnectivities');
#917=UNCERTAINTY_MEASURE_WITH_UNIT(LENGTH_MEASURE(0.01),#920,
'DISTANCE_ACCURACY_VALUE',
'Maximum model space distance between geometric entities at asserted c
onnectivities');
#918=(
GEOMETRIC_REPRESENTATION_CONTEXT(3)
GLOBAL_UNCERTAINTY_ASSIGNED_CONTEXT((#916))
GLOBAL_UNIT_ASSIGNED_CONTEXT((#920,#922,#923))
REPRESENTATION_CONTEXT('','3D')
);
#919=(
GEOMETRIC_REPRESENTATION_CONTEXT(3)
GLOBAL_UNCERTAINTY_ASSIGNED_CONTEXT((#917))
GLOBAL_UNIT_ASSIGNED_CONTEXT((#920,#922,#923))
REPRESENTATION_CONTEXT('','3D')
);
#920=(
LENGTH_UNIT()
NAMED_UNIT(*)
SI_UNIT(.MILLI.,.METRE.)
);
#921=(
LENGTH_UNIT()
NAMED_UNIT(*)
SI_UNIT($,.METRE.)
);
#922=(
NAMED_UNIT(*)
PLANE_ANGLE_UNIT()
SI_UNIT($,.RADIAN.)
);
#923=(
NAMED_UNIT(*)
SI_UNIT($,.STERADIAN.)
SOLID_ANGLE_UNIT()
);
#924=SHAPE_DEFINITION_REPRESENTATION(#925,#926);
#925=PRODUCT_DEFINITION_SHAPE('',$,#928);
#926=SHAPE_REPRESENTATION('',(#573),#918);
#927=PRODUCT_DEFINITION_CONTEXT('part definition',#932,'design');
#928=PRODUCT_DEFINITION('2026-05-07-11-46-41-118','Aku korpus',#929,#927);
#929=PRODUCT_DEFINITION_FORMATION('',$,#934);
#930=PRODUCT_RELATED_PRODUCT_CATEGORY('Aku korpus','Aku korpus',(#934));
#931=APPLICATION_PROTOCOL_DEFINITION('international standard',
'automotive_design',2009,#932);
#932=APPLICATION_CONTEXT(
'Core Data for Automotive Mechanical Design Process');
#933=PRODUCT_CONTEXT('part definition',#932,'mechanical');
#934=PRODUCT('2026-05-07-11-46-41-118','Aku korpus',$,(#933));
#935=PRESENTATION_STYLE_ASSIGNMENT((#937));
#936=PRESENTATION_STYLE_ASSIGNMENT((#938));
#937=SURFACE_STYLE_USAGE(.BOTH.,#939);
#938=SURFACE_STYLE_USAGE(.BOTH.,#940);
#939=SURFACE_SIDE_STYLE('',(#941));
#940=SURFACE_SIDE_STYLE('',(#942));
#941=SURFACE_STYLE_FILL_AREA(#943);
#942=SURFACE_STYLE_FILL_AREA(#944);
#943=FILL_AREA_STYLE('Steel - Satin',(#945));
#944=FILL_AREA_STYLE('EPX 82 (with Carbon M2 M3 L1 3D Printers)',(#946));
#945=FILL_AREA_STYLE_COLOUR('Steel - Satin',#947);
#946=FILL_AREA_STYLE_COLOUR('EPX 82 (with Carbon M2 M3 L1 3D Printers)',
#948);
#947=COLOUR_RGB('Steel - Satin',0.627450980392157,0.627450980392157,0.627450980392157);
#948=COLOUR_RGB('EPX 82 (with Carbon M2 M3 L1 3D Printers)',0.247058823529412,
0.247058823529412,0.247058823529412);
ENDSEC;
END-ISO-10303-21;
