ISO-10303-21;
HEADER;
/* Generated by software containing ST-Developer
 * from STEP Tools, Inc. (www.steptools.com) 
 */

FILE_DESCRIPTION(
/* description */ (''),
/* implementation_level */ '2;1');

FILE_NAME(
/* name */ 'Vastuvtja kinnitus.step',
/* time_stamp */ '2026-05-07T11:46:58+03:00',
/* author */ (''),
/* organization */ (''),
/* preprocessor_version */ 'ST-DEVELOPER v20.1',
/* originating_system */ 'Autodesk Translation Framework v15.8.0.0',
/* authorisation */ '');

FILE_SCHEMA (('AUTOMOTIVE_DESIGN { 1 0 10303 214 3 1 1 }'));
ENDSEC;

DATA;
#10=MECHANICAL_DESIGN_GEOMETRIC_PRESENTATION_REPRESENTATION('',(#13,#14),
#1540);
#11=SHAPE_REPRESENTATION_RELATIONSHIP('SRR','None',#1547,#12);
#12=ADVANCED_BREP_SHAPE_REPRESENTATION('',(#15,#16),#1539);
#13=STYLED_ITEM('',(#1557),#15);
#14=STYLED_ITEM('',(#1557),#16);
#15=MANIFOLD_SOLID_BREP('Body1',#945);
#16=MANIFOLD_SOLID_BREP('Body1',#946);
#17=FACE_BOUND('',#118,.T.);
#18=FACE_BOUND('',#119,.T.);
#19=FACE_BOUND('',#135,.T.);
#20=FACE_BOUND('',#136,.T.);
#21=FACE_BOUND('',#141,.T.);
#22=FACE_BOUND('',#142,.T.);
#23=FACE_BOUND('',#144,.T.);
#24=FACE_BOUND('',#145,.T.);
#25=FACE_BOUND('',#146,.T.);
#26=PLANE('',#966);
#27=PLANE('',#967);
#28=PLANE('',#968);
#29=PLANE('',#969);
#30=PLANE('',#972);
#31=PLANE('',#973);
#32=PLANE('',#976);
#33=PLANE('',#977);
#34=PLANE('',#979);
#35=PLANE('',#983);
#36=PLANE('',#984);
#37=PLANE('',#985);
#38=PLANE('',#989);
#39=PLANE('',#990);
#40=PLANE('',#991);
#41=PLANE('',#992);
#42=PLANE('',#993);
#43=PLANE('',#994);
#44=PLANE('',#995);
#45=PLANE('',#996);
#46=PLANE('',#997);
#47=PLANE('',#998);
#48=PLANE('',#1003);
#49=PLANE('',#1004);
#50=PLANE('',#1005);
#51=PLANE('',#1006);
#52=PLANE('',#1007);
#53=PLANE('',#1008);
#54=PLANE('',#1009);
#55=PLANE('',#1010);
#56=PLANE('',#1011);
#57=PLANE('',#1012);
#58=PLANE('',#1013);
#59=PLANE('',#1014);
#60=PLANE('',#1015);
#61=PLANE('',#1016);
#62=PLANE('',#1019);
#63=PLANE('',#1022);
#64=PLANE('',#1024);
#65=FACE_OUTER_BOUND('',#112,.T.);
#66=FACE_OUTER_BOUND('',#113,.T.);
#67=FACE_OUTER_BOUND('',#114,.T.);
#68=FACE_OUTER_BOUND('',#115,.T.);
#69=FACE_OUTER_BOUND('',#116,.T.);
#70=FACE_OUTER_BOUND('',#117,.T.);
#71=FACE_OUTER_BOUND('',#120,.T.);
#72=FACE_OUTER_BOUND('',#121,.T.);
#73=FACE_OUTER_BOUND('',#122,.T.);
#74=FACE_OUTER_BOUND('',#123,.T.);
#75=FACE_OUTER_BOUND('',#124,.T.);
#76=FACE_OUTER_BOUND('',#125,.T.);
#77=FACE_OUTER_BOUND('',#126,.T.);
#78=FACE_OUTER_BOUND('',#127,.T.);
#79=FACE_OUTER_BOUND('',#128,.T.);
#80=FACE_OUTER_BOUND('',#129,.T.);
#81=FACE_OUTER_BOUND('',#130,.T.);
#82=FACE_OUTER_BOUND('',#131,.T.);
#83=FACE_OUTER_BOUND('',#132,.T.);
#84=FACE_OUTER_BOUND('',#133,.T.);
#85=FACE_OUTER_BOUND('',#134,.T.);
#86=FACE_OUTER_BOUND('',#137,.T.);
#87=FACE_OUTER_BOUND('',#138,.T.);
#88=FACE_OUTER_BOUND('',#139,.T.);
#89=FACE_OUTER_BOUND('',#140,.T.);
#90=FACE_OUTER_BOUND('',#143,.T.);
#91=FACE_OUTER_BOUND('',#147,.T.);
#92=FACE_OUTER_BOUND('',#148,.T.);
#93=FACE_OUTER_BOUND('',#149,.T.);
#94=FACE_OUTER_BOUND('',#150,.T.);
#95=FACE_OUTER_BOUND('',#151,.T.);
#96=FACE_OUTER_BOUND('',#152,.T.);
#97=FACE_OUTER_BOUND('',#153,.T.);
#98=FACE_OUTER_BOUND('',#154,.T.);
#99=FACE_OUTER_BOUND('',#155,.T.);
#100=FACE_OUTER_BOUND('',#156,.T.);
#101=FACE_OUTER_BOUND('',#157,.T.);
#102=FACE_OUTER_BOUND('',#158,.T.);
#103=FACE_OUTER_BOUND('',#159,.T.);
#104=FACE_OUTER_BOUND('',#160,.T.);
#105=FACE_OUTER_BOUND('',#161,.T.);
#106=FACE_OUTER_BOUND('',#162,.T.);
#107=FACE_OUTER_BOUND('',#163,.T.);
#108=FACE_OUTER_BOUND('',#164,.T.);
#109=FACE_OUTER_BOUND('',#165,.T.);
#110=FACE_OUTER_BOUND('',#166,.T.);
#111=FACE_OUTER_BOUND('',#167,.T.);
#112=EDGE_LOOP('',(#628,#629,#630,#631));
#113=EDGE_LOOP('',(#632,#633,#634,#635));
#114=EDGE_LOOP('',(#636,#637,#638,#639));
#115=EDGE_LOOP('',(#640,#641,#642,#643));
#116=EDGE_LOOP('',(#644,#645,#646,#647));
#117=EDGE_LOOP('',(#648,#649,#650,#651,#652,#653,#654,#655,#656,#657,#658));
#118=EDGE_LOOP('',(#659));
#119=EDGE_LOOP('',(#660,#661,#662,#663));
#120=EDGE_LOOP('',(#664,#665,#666,#667));
#121=EDGE_LOOP('',(#668,#669,#670,#671));
#122=EDGE_LOOP('',(#672,#673,#674,#675));
#123=EDGE_LOOP('',(#676,#677,#678,#679));
#124=EDGE_LOOP('',(#680,#681,#682,#683,#684,#685));
#125=EDGE_LOOP('',(#686,#687,#688,#689));
#126=EDGE_LOOP('',(#690,#691,#692,#693));
#127=EDGE_LOOP('',(#694,#695,#696,#697));
#128=EDGE_LOOP('',(#698,#699,#700,#701));
#129=EDGE_LOOP('',(#702,#703,#704,#705,#706,#707,#708,#709,#710,#711));
#130=EDGE_LOOP('',(#712,#713,#714,#715));
#131=EDGE_LOOP('',(#716,#717,#718,#719,#720,#721));
#132=EDGE_LOOP('',(#722,#723,#724,#725,#726,#727,#728,#729));
#133=EDGE_LOOP('',(#730,#731,#732,#733));
#134=EDGE_LOOP('',(#734,#735,#736,#737,#738,#739,#740,#741));
#135=EDGE_LOOP('',(#742));
#136=EDGE_LOOP('',(#743));
#137=EDGE_LOOP('',(#744,#745,#746,#747));
#138=EDGE_LOOP('',(#748,#749,#750,#751));
#139=EDGE_LOOP('',(#752,#753,#754,#755,#756,#757));
#140=EDGE_LOOP('',(#758,#759,#760,#761));
#141=EDGE_LOOP('',(#762));
#142=EDGE_LOOP('',(#763));
#143=EDGE_LOOP('',(#764,#765,#766,#767,#768,#769,#770,#771,#772,#773));
#144=EDGE_LOOP('',(#774));
#145=EDGE_LOOP('',(#775));
#146=EDGE_LOOP('',(#776,#777,#778,#779));
#147=EDGE_LOOP('',(#780,#781,#782,#783,#784,#785,#786,#787,#788));
#148=EDGE_LOOP('',(#789,#790,#791,#792));
#149=EDGE_LOOP('',(#793,#794,#795,#796,#797,#798,#799,#800));
#150=EDGE_LOOP('',(#801,#802,#803,#804));
#151=EDGE_LOOP('',(#805,#806,#807,#808));
#152=EDGE_LOOP('',(#809,#810,#811,#812));
#153=EDGE_LOOP('',(#813,#814,#815,#816,#817,#818,#819,#820,#821,#822));
#154=EDGE_LOOP('',(#823,#824,#825,#826));
#155=EDGE_LOOP('',(#827,#828,#829,#830,#831,#832,#833,#834));
#156=EDGE_LOOP('',(#835,#836,#837,#838));
#157=EDGE_LOOP('',(#839,#840,#841,#842));
#158=EDGE_LOOP('',(#843,#844,#845,#846));
#159=EDGE_LOOP('',(#847,#848,#849,#850,#851));
#160=EDGE_LOOP('',(#852,#853,#854,#855,#856,#857));
#161=EDGE_LOOP('',(#858,#859,#860,#861,#862,#863,#864,#865));
#162=EDGE_LOOP('',(#866,#867,#868,#869));
#163=EDGE_LOOP('',(#870,#871,#872,#873));
#164=EDGE_LOOP('',(#874,#875,#876,#877));
#165=EDGE_LOOP('',(#878,#879,#880,#881));
#166=EDGE_LOOP('',(#882,#883,#884,#885));
#167=EDGE_LOOP('',(#886,#887,#888,#889));
#168=LINE('',#1277,#280);
#169=LINE('',#1283,#281);
#170=LINE('',#1288,#282);
#171=LINE('',#1290,#283);
#172=LINE('',#1292,#284);
#173=LINE('',#1293,#285);
#174=LINE('',#1296,#286);
#175=LINE('',#1298,#287);
#176=LINE('',#1299,#288);
#177=LINE('',#1302,#289);
#178=LINE('',#1303,#290);
#179=LINE('',#1306,#291);
#180=LINE('',#1308,#292);
#181=LINE('',#1310,#293);
#182=LINE('',#1314,#294);
#183=LINE('',#1316,#295);
#184=LINE('',#1318,#296);
#185=LINE('',#1320,#297);
#186=LINE('',#1321,#298);
#187=LINE('',#1326,#299);
#188=LINE('',#1328,#300);
#189=LINE('',#1330,#301);
#190=LINE('',#1331,#302);
#191=LINE('',#1335,#303);
#192=LINE('',#1337,#304);
#193=LINE('',#1339,#305);
#194=LINE('',#1340,#306);
#195=LINE('',#1344,#307);
#196=LINE('',#1345,#308);
#197=LINE('',#1346,#309);
#198=LINE('',#1350,#310);
#199=LINE('',#1353,#311);
#200=LINE('',#1355,#312);
#201=LINE('',#1356,#313);
#202=LINE('',#1359,#314);
#203=LINE('',#1363,#315);
#204=LINE('',#1365,#316);
#205=LINE('',#1367,#317);
#206=LINE('',#1368,#318);
#207=LINE('',#1372,#319);
#208=LINE('',#1375,#320);
#209=LINE('',#1376,#321);
#210=LINE('',#1378,#322);
#211=LINE('',#1386,#323);
#212=LINE('',#1388,#324);
#213=LINE('',#1389,#325);
#214=LINE('',#1393,#326);
#215=LINE('',#1395,#327);
#216=LINE('',#1397,#328);
#217=LINE('',#1398,#329);
#218=LINE('',#1402,#330);
#219=LINE('',#1404,#331);
#220=LINE('',#1406,#332);
#221=LINE('',#1407,#333);
#222=LINE('',#1408,#334);
#223=LINE('',#1411,#335);
#224=LINE('',#1413,#336);
#225=LINE('',#1415,#337);
#226=LINE('',#1417,#338);
#227=LINE('',#1419,#339);
#228=LINE('',#1421,#340);
#229=LINE('',#1422,#341);
#230=LINE('',#1426,#342);
#231=LINE('',#1427,#343);
#232=LINE('',#1428,#344);
#233=LINE('',#1431,#345);
#234=LINE('',#1432,#346);
#235=LINE('',#1433,#347);
#236=LINE('',#1436,#348);
#237=LINE('',#1437,#349);
#238=LINE('',#1440,#350);
#239=LINE('',#1441,#351);
#240=LINE('',#1444,#352);
#241=LINE('',#1445,#353);
#242=LINE('',#1447,#354);
#243=LINE('',#1451,#355);
#244=LINE('',#1453,#356);
#245=LINE('',#1455,#357);
#246=LINE('',#1457,#358);
#247=LINE('',#1459,#359);
#248=LINE('',#1461,#360);
#249=LINE('',#1463,#361);
#250=LINE('',#1465,#362);
#251=LINE('',#1467,#363);
#252=LINE('',#1468,#364);
#253=LINE('',#1474,#365);
#254=LINE('',#1476,#366);
#255=LINE('',#1479,#367);
#256=LINE('',#1480,#368);
#257=LINE('',#1482,#369);
#258=LINE('',#1483,#370);
#259=LINE('',#1486,#371);
#260=LINE('',#1487,#372);
#261=LINE('',#1490,#373);
#262=LINE('',#1491,#374);
#263=LINE('',#1493,#375);
#264=LINE('',#1495,#376);
#265=LINE('',#1496,#377);
#266=LINE('',#1498,#378);
#267=LINE('',#1500,#379);
#268=LINE('',#1502,#380);
#269=LINE('',#1504,#381);
#270=LINE('',#1506,#382);
#271=LINE('',#1508,#383);
#272=LINE('',#1514,#384);
#273=LINE('',#1518,#385);
#274=LINE('',#1523,#386);
#275=LINE('',#1527,#387);
#276=LINE('',#1530,#388);
#277=LINE('',#1531,#389);
#278=LINE('',#1533,#390);
#279=LINE('',#1535,#391);
#280=VECTOR('',#1032,1.9);
#281=VECTOR('',#1039,1.9);
#282=VECTOR('',#1044,10.);
#283=VECTOR('',#1045,10.);
#284=VECTOR('',#1046,10.);
#285=VECTOR('',#1047,10.);
#286=VECTOR('',#1050,10.);
#287=VECTOR('',#1051,10.);
#288=VECTOR('',#1052,10.);
#289=VECTOR('',#1055,10.);
#290=VECTOR('',#1056,10.);
#291=VECTOR('',#1059,10.);
#292=VECTOR('',#1060,10.);
#293=VECTOR('',#1061,10.);
#294=VECTOR('',#1064,10.);
#295=VECTOR('',#1065,10.);
#296=VECTOR('',#1066,10.);
#297=VECTOR('',#1067,10.);
#298=VECTOR('',#1068,10.);
#299=VECTOR('',#1071,10.);
#300=VECTOR('',#1072,10.);
#301=VECTOR('',#1073,10.);
#302=VECTOR('',#1074,10.);
#303=VECTOR('',#1077,10.);
#304=VECTOR('',#1078,10.);
#305=VECTOR('',#1079,10.);
#306=VECTOR('',#1080,10.);
#307=VECTOR('',#1083,10.);
#308=VECTOR('',#1084,10.);
#309=VECTOR('',#1085,10.);
#310=VECTOR('',#1090,10.);
#311=VECTOR('',#1093,10.);
#312=VECTOR('',#1094,10.);
#313=VECTOR('',#1095,10.);
#314=VECTOR('',#1100,10.);
#315=VECTOR('',#1103,10.);
#316=VECTOR('',#1104,10.);
#317=VECTOR('',#1105,10.);
#318=VECTOR('',#1106,10.);
#319=VECTOR('',#1113,10.);
#320=VECTOR('',#1116,10.);
#321=VECTOR('',#1117,10.);
#322=VECTOR('',#1120,10.);
#323=VECTOR('',#1129,10.);
#324=VECTOR('',#1130,10.);
#325=VECTOR('',#1131,10.);
#326=VECTOR('',#1134,10.);
#327=VECTOR('',#1135,10.);
#328=VECTOR('',#1136,10.);
#329=VECTOR('',#1137,10.);
#330=VECTOR('',#1140,10.);
#331=VECTOR('',#1141,10.);
#332=VECTOR('',#1142,10.);
#333=VECTOR('',#1143,10.);
#334=VECTOR('',#1144,10.);
#335=VECTOR('',#1147,10.);
#336=VECTOR('',#1148,10.);
#337=VECTOR('',#1149,10.);
#338=VECTOR('',#1150,10.);
#339=VECTOR('',#1151,10.);
#340=VECTOR('',#1152,10.);
#341=VECTOR('',#1153,10.);
#342=VECTOR('',#1156,10.);
#343=VECTOR('',#1157,10.);
#344=VECTOR('',#1158,10.);
#345=VECTOR('',#1161,10.);
#346=VECTOR('',#1162,10.);
#347=VECTOR('',#1163,10.);
#348=VECTOR('',#1166,10.);
#349=VECTOR('',#1167,10.);
#350=VECTOR('',#1170,10.);
#351=VECTOR('',#1171,10.);
#352=VECTOR('',#1174,10.);
#353=VECTOR('',#1175,10.);
#354=VECTOR('',#1178,10.);
#355=VECTOR('',#1181,10.);
#356=VECTOR('',#1182,10.);
#357=VECTOR('',#1183,10.);
#358=VECTOR('',#1184,10.);
#359=VECTOR('',#1185,10.);
#360=VECTOR('',#1186,10.);
#361=VECTOR('',#1187,10.);
#362=VECTOR('',#1188,10.);
#363=VECTOR('',#1189,10.);
#364=VECTOR('',#1190,10.);
#365=VECTOR('',#1197,2.10000000000001);
#366=VECTOR('',#1200,2.1);
#367=VECTOR('',#1203,10.);
#368=VECTOR('',#1204,10.);
#369=VECTOR('',#1205,10.);
#370=VECTOR('',#1206,10.);
#371=VECTOR('',#1209,10.);
#372=VECTOR('',#1210,10.);
#373=VECTOR('',#1213,10.);
#374=VECTOR('',#1214,10.);
#375=VECTOR('',#1217,10.);
#376=VECTOR('',#1220,10.);
#377=VECTOR('',#1221,10.);
#378=VECTOR('',#1224,10.);
#379=VECTOR('',#1227,10.);
#380=VECTOR('',#1230,10.);
#381=VECTOR('',#1233,10.);
#382=VECTOR('',#1236,10.);
#383=VECTOR('',#1239,10.);
#384=VECTOR('',#1246,10.);
#385=VECTOR('',#1249,10.);
#386=VECTOR('',#1254,10.);
#387=VECTOR('',#1257,10.);
#388=VECTOR('',#1262,10.);
#389=VECTOR('',#1263,10.);
#390=VECTOR('',#1266,10.);
#391=VECTOR('',#1269,10.);
#392=CIRCLE('',#961,1.9);
#393=CIRCLE('',#962,1.9);
#394=CIRCLE('',#964,1.9);
#395=CIRCLE('',#965,1.9);
#396=CIRCLE('',#970,3.24154025160386);
#397=CIRCLE('',#971,2.1);
#398=CIRCLE('',#975,3.24154025160386);
#399=CIRCLE('',#978,2.10000000000001);
#400=CIRCLE('',#981,3.24154025160386);
#401=CIRCLE('',#982,3.24154025160386);
#402=CIRCLE('',#986,2.10000000000001);
#403=CIRCLE('',#987,2.10000000000001);
#404=CIRCLE('',#988,2.10000000000001);
#405=CIRCLE('',#999,2.10000000000001);
#406=CIRCLE('',#1000,2.1);
#407=CIRCLE('',#1017,2.10000000000001);
#408=CIRCLE('',#1018,1.99999999999999);
#409=CIRCLE('',#1020,1.99999999999999);
#410=CIRCLE('',#1021,2.10000000000001);
#411=VERTEX_POINT('',#1274);
#412=VERTEX_POINT('',#1276);
#413=VERTEX_POINT('',#1280);
#414=VERTEX_POINT('',#1282);
#415=VERTEX_POINT('',#1286);
#416=VERTEX_POINT('',#1287);
#417=VERTEX_POINT('',#1289);
#418=VERTEX_POINT('',#1291);
#419=VERTEX_POINT('',#1295);
#420=VERTEX_POINT('',#1297);
#421=VERTEX_POINT('',#1301);
#422=VERTEX_POINT('',#1305);
#423=VERTEX_POINT('',#1307);
#424=VERTEX_POINT('',#1309);
#425=VERTEX_POINT('',#1311);
#426=VERTEX_POINT('',#1313);
#427=VERTEX_POINT('',#1315);
#428=VERTEX_POINT('',#1317);
#429=VERTEX_POINT('',#1319);
#430=VERTEX_POINT('',#1322);
#431=VERTEX_POINT('',#1324);
#432=VERTEX_POINT('',#1325);
#433=VERTEX_POINT('',#1327);
#434=VERTEX_POINT('',#1329);
#435=VERTEX_POINT('',#1333);
#436=VERTEX_POINT('',#1334);
#437=VERTEX_POINT('',#1336);
#438=VERTEX_POINT('',#1338);
#439=VERTEX_POINT('',#1342);
#440=VERTEX_POINT('',#1343);
#441=VERTEX_POINT('',#1348);
#442=VERTEX_POINT('',#1352);
#443=VERTEX_POINT('',#1354);
#444=VERTEX_POINT('',#1361);
#445=VERTEX_POINT('',#1362);
#446=VERTEX_POINT('',#1364);
#447=VERTEX_POINT('',#1366);
#448=VERTEX_POINT('',#1374);
#449=VERTEX_POINT('',#1380);
#450=VERTEX_POINT('',#1382);
#451=VERTEX_POINT('',#1385);
#452=VERTEX_POINT('',#1387);
#453=VERTEX_POINT('',#1391);
#454=VERTEX_POINT('',#1392);
#455=VERTEX_POINT('',#1394);
#456=VERTEX_POINT('',#1396);
#457=VERTEX_POINT('',#1400);
#458=VERTEX_POINT('',#1401);
#459=VERTEX_POINT('',#1403);
#460=VERTEX_POINT('',#1405);
#461=VERTEX_POINT('',#1410);
#462=VERTEX_POINT('',#1412);
#463=VERTEX_POINT('',#1414);
#464=VERTEX_POINT('',#1416);
#465=VERTEX_POINT('',#1418);
#466=VERTEX_POINT('',#1420);
#467=VERTEX_POINT('',#1424);
#468=VERTEX_POINT('',#1425);
#469=VERTEX_POINT('',#1430);
#470=VERTEX_POINT('',#1435);
#471=VERTEX_POINT('',#1439);
#472=VERTEX_POINT('',#1443);
#473=VERTEX_POINT('',#1449);
#474=VERTEX_POINT('',#1450);
#475=VERTEX_POINT('',#1452);
#476=VERTEX_POINT('',#1454);
#477=VERTEX_POINT('',#1456);
#478=VERTEX_POINT('',#1458);
#479=VERTEX_POINT('',#1460);
#480=VERTEX_POINT('',#1462);
#481=VERTEX_POINT('',#1464);
#482=VERTEX_POINT('',#1466);
#483=VERTEX_POINT('',#1469);
#484=VERTEX_POINT('',#1471);
#485=VERTEX_POINT('',#1478);
#486=VERTEX_POINT('',#1481);
#487=VERTEX_POINT('',#1485);
#488=VERTEX_POINT('',#1489);
#489=VERTEX_POINT('',#1512);
#490=VERTEX_POINT('',#1513);
#491=VERTEX_POINT('',#1515);
#492=VERTEX_POINT('',#1517);
#493=VERTEX_POINT('',#1521);
#494=VERTEX_POINT('',#1522);
#495=VERTEX_POINT('',#1524);
#496=VERTEX_POINT('',#1526);
#497=EDGE_CURVE('',#411,#411,#392,.T.);
#498=EDGE_CURVE('',#411,#412,#168,.T.);
#499=EDGE_CURVE('',#412,#412,#393,.T.);
#500=EDGE_CURVE('',#413,#413,#394,.T.);
#501=EDGE_CURVE('',#413,#414,#169,.T.);
#502=EDGE_CURVE('',#414,#414,#395,.T.);
#503=EDGE_CURVE('',#415,#416,#170,.T.);
#504=EDGE_CURVE('',#416,#417,#171,.T.);
#505=EDGE_CURVE('',#418,#417,#172,.T.);
#506=EDGE_CURVE('',#415,#418,#173,.T.);
#507=EDGE_CURVE('',#419,#415,#174,.T.);
#508=EDGE_CURVE('',#420,#418,#175,.T.);
#509=EDGE_CURVE('',#419,#420,#176,.T.);
#510=EDGE_CURVE('',#416,#421,#177,.T.);
#511=EDGE_CURVE('',#421,#419,#178,.T.);
#512=EDGE_CURVE('',#417,#422,#179,.T.);
#513=EDGE_CURVE('',#423,#422,#180,.T.);
#514=EDGE_CURVE('',#423,#424,#181,.T.);
#515=EDGE_CURVE('',#424,#425,#396,.T.);
#516=EDGE_CURVE('',#425,#426,#182,.T.);
#517=EDGE_CURVE('',#426,#427,#183,.T.);
#518=EDGE_CURVE('',#428,#427,#184,.T.);
#519=EDGE_CURVE('',#429,#428,#185,.T.);
#520=EDGE_CURVE('',#420,#429,#186,.T.);
#521=EDGE_CURVE('',#430,#430,#397,.T.);
#522=EDGE_CURVE('',#431,#432,#187,.T.);
#523=EDGE_CURVE('',#433,#431,#188,.T.);
#524=EDGE_CURVE('',#434,#433,#189,.T.);
#525=EDGE_CURVE('',#432,#434,#190,.T.);
#526=EDGE_CURVE('',#435,#436,#191,.T.);
#527=EDGE_CURVE('',#435,#437,#192,.T.);
#528=EDGE_CURVE('',#438,#437,#193,.T.);
#529=EDGE_CURVE('',#436,#438,#194,.T.);
#530=EDGE_CURVE('',#439,#440,#195,.T.);
#531=EDGE_CURVE('',#439,#426,#196,.T.);
#532=EDGE_CURVE('',#440,#425,#197,.T.);
#533=EDGE_CURVE('',#441,#440,#398,.T.);
#534=EDGE_CURVE('',#441,#424,#198,.T.);
#535=EDGE_CURVE('',#442,#441,#199,.T.);
#536=EDGE_CURVE('',#443,#424,#200,.T.);
#537=EDGE_CURVE('',#442,#443,#201,.T.);
#538=EDGE_CURVE('',#442,#435,#399,.T.);
#539=EDGE_CURVE('',#436,#439,#202,.T.);
#540=EDGE_CURVE('',#444,#445,#203,.T.);
#541=EDGE_CURVE('',#444,#446,#204,.T.);
#542=EDGE_CURVE('',#447,#446,#205,.T.);
#543=EDGE_CURVE('',#445,#447,#206,.T.);
#544=EDGE_CURVE('',#445,#441,#400,.T.);
#545=EDGE_CURVE('',#424,#447,#401,.T.);
#546=EDGE_CURVE('',#441,#424,#207,.T.);
#547=EDGE_CURVE('',#441,#448,#208,.T.);
#548=EDGE_CURVE('',#448,#423,#209,.T.);
#549=EDGE_CURVE('',#448,#444,#210,.T.);
#550=EDGE_CURVE('',#449,#437,#402,.T.);
#551=EDGE_CURVE('',#450,#449,#403,.T.);
#552=EDGE_CURVE('',#443,#450,#404,.T.);
#553=EDGE_CURVE('',#451,#446,#211,.T.);
#554=EDGE_CURVE('',#451,#452,#212,.T.);
#555=EDGE_CURVE('',#452,#438,#213,.T.);
#556=EDGE_CURVE('',#453,#454,#214,.T.);
#557=EDGE_CURVE('',#454,#455,#215,.T.);
#558=EDGE_CURVE('',#455,#456,#216,.T.);
#559=EDGE_CURVE('',#456,#453,#217,.T.);
#560=EDGE_CURVE('',#457,#458,#218,.T.);
#561=EDGE_CURVE('',#459,#457,#219,.T.);
#562=EDGE_CURVE('',#460,#459,#220,.T.);
#563=EDGE_CURVE('',#460,#455,#221,.T.);
#564=EDGE_CURVE('',#458,#454,#222,.T.);
#565=EDGE_CURVE('',#458,#461,#223,.T.);
#566=EDGE_CURVE('',#461,#462,#224,.T.);
#567=EDGE_CURVE('',#462,#463,#225,.T.);
#568=EDGE_CURVE('',#463,#464,#226,.T.);
#569=EDGE_CURVE('',#464,#465,#227,.T.);
#570=EDGE_CURVE('',#465,#466,#228,.T.);
#571=EDGE_CURVE('',#466,#457,#229,.T.);
#572=EDGE_CURVE('',#467,#468,#230,.T.);
#573=EDGE_CURVE('',#467,#462,#231,.T.);
#574=EDGE_CURVE('',#468,#461,#232,.T.);
#575=EDGE_CURVE('',#468,#469,#233,.T.);
#576=EDGE_CURVE('',#465,#453,#234,.T.);
#577=EDGE_CURVE('',#469,#464,#235,.T.);
#578=EDGE_CURVE('',#469,#470,#236,.T.);
#579=EDGE_CURVE('',#470,#463,#237,.T.);
#580=EDGE_CURVE('',#459,#471,#238,.T.);
#581=EDGE_CURVE('',#471,#466,#239,.T.);
#582=EDGE_CURVE('',#471,#472,#240,.T.);
#583=EDGE_CURVE('',#472,#456,#241,.T.);
#584=EDGE_CURVE('',#472,#460,#242,.T.);
#585=EDGE_CURVE('',#473,#474,#243,.T.);
#586=EDGE_CURVE('',#474,#475,#244,.T.);
#587=EDGE_CURVE('',#475,#476,#245,.T.);
#588=EDGE_CURVE('',#476,#477,#246,.T.);
#589=EDGE_CURVE('',#477,#478,#247,.T.);
#590=EDGE_CURVE('',#478,#479,#248,.T.);
#591=EDGE_CURVE('',#479,#480,#249,.T.);
#592=EDGE_CURVE('',#480,#481,#250,.T.);
#593=EDGE_CURVE('',#481,#482,#251,.T.);
#594=EDGE_CURVE('',#482,#473,#252,.T.);
#595=EDGE_CURVE('',#483,#483,#405,.T.);
#596=EDGE_CURVE('',#484,#484,#406,.T.);
#597=EDGE_CURVE('',#483,#449,#253,.T.);
#598=EDGE_CURVE('',#484,#430,#254,.T.);
#599=EDGE_CURVE('',#431,#485,#255,.T.);
#600=EDGE_CURVE('',#470,#485,#256,.T.);
#601=EDGE_CURVE('',#486,#467,#257,.T.);
#602=EDGE_CURVE('',#433,#486,#258,.T.);
#603=EDGE_CURVE('',#487,#486,#259,.T.);
#604=EDGE_CURVE('',#434,#487,#260,.T.);
#605=EDGE_CURVE('',#488,#487,#261,.T.);
#606=EDGE_CURVE('',#432,#488,#262,.T.);
#607=EDGE_CURVE('',#485,#488,#263,.T.);
#608=EDGE_CURVE('',#422,#473,#264,.T.);
#609=EDGE_CURVE('',#451,#480,#265,.T.);
#610=EDGE_CURVE('',#452,#479,#266,.T.);
#611=EDGE_CURVE('',#427,#478,#267,.T.);
#612=EDGE_CURVE('',#428,#477,#268,.T.);
#613=EDGE_CURVE('',#429,#476,#269,.T.);
#614=EDGE_CURVE('',#420,#475,#270,.T.);
#615=EDGE_CURVE('',#421,#474,#271,.T.);
#616=EDGE_CURVE('',#489,#490,#272,.T.);
#617=EDGE_CURVE('',#491,#490,#407,.T.);
#618=EDGE_CURVE('',#491,#492,#273,.T.);
#619=EDGE_CURVE('',#492,#489,#408,.T.);
#620=EDGE_CURVE('',#493,#494,#274,.T.);
#621=EDGE_CURVE('',#494,#495,#409,.T.);
#622=EDGE_CURVE('',#495,#496,#275,.T.);
#623=EDGE_CURVE('',#493,#496,#410,.T.);
#624=EDGE_CURVE('',#489,#494,#276,.T.);
#625=EDGE_CURVE('',#490,#493,#277,.T.);
#626=EDGE_CURVE('',#492,#495,#278,.T.);
#627=EDGE_CURVE('',#491,#496,#279,.T.);
#628=ORIENTED_EDGE('',*,*,#497,.F.);
#629=ORIENTED_EDGE('',*,*,#498,.T.);
#630=ORIENTED_EDGE('',*,*,#499,.F.);
#631=ORIENTED_EDGE('',*,*,#498,.F.);
#632=ORIENTED_EDGE('',*,*,#500,.F.);
#633=ORIENTED_EDGE('',*,*,#501,.T.);
#634=ORIENTED_EDGE('',*,*,#502,.F.);
#635=ORIENTED_EDGE('',*,*,#501,.F.);
#636=ORIENTED_EDGE('',*,*,#503,.T.);
#637=ORIENTED_EDGE('',*,*,#504,.T.);
#638=ORIENTED_EDGE('',*,*,#505,.F.);
#639=ORIENTED_EDGE('',*,*,#506,.F.);
#640=ORIENTED_EDGE('',*,*,#507,.T.);
#641=ORIENTED_EDGE('',*,*,#506,.T.);
#642=ORIENTED_EDGE('',*,*,#508,.F.);
#643=ORIENTED_EDGE('',*,*,#509,.F.);
#644=ORIENTED_EDGE('',*,*,#510,.F.);
#645=ORIENTED_EDGE('',*,*,#503,.F.);
#646=ORIENTED_EDGE('',*,*,#507,.F.);
#647=ORIENTED_EDGE('',*,*,#511,.F.);
#648=ORIENTED_EDGE('',*,*,#508,.T.);
#649=ORIENTED_EDGE('',*,*,#505,.T.);
#650=ORIENTED_EDGE('',*,*,#512,.T.);
#651=ORIENTED_EDGE('',*,*,#513,.F.);
#652=ORIENTED_EDGE('',*,*,#514,.T.);
#653=ORIENTED_EDGE('',*,*,#515,.T.);
#654=ORIENTED_EDGE('',*,*,#516,.T.);
#655=ORIENTED_EDGE('',*,*,#517,.T.);
#656=ORIENTED_EDGE('',*,*,#518,.F.);
#657=ORIENTED_EDGE('',*,*,#519,.F.);
#658=ORIENTED_EDGE('',*,*,#520,.F.);
#659=ORIENTED_EDGE('',*,*,#521,.F.);
#660=ORIENTED_EDGE('',*,*,#522,.F.);
#661=ORIENTED_EDGE('',*,*,#523,.F.);
#662=ORIENTED_EDGE('',*,*,#524,.F.);
#663=ORIENTED_EDGE('',*,*,#525,.F.);
#664=ORIENTED_EDGE('',*,*,#526,.F.);
#665=ORIENTED_EDGE('',*,*,#527,.T.);
#666=ORIENTED_EDGE('',*,*,#528,.F.);
#667=ORIENTED_EDGE('',*,*,#529,.F.);
#668=ORIENTED_EDGE('',*,*,#530,.F.);
#669=ORIENTED_EDGE('',*,*,#531,.T.);
#670=ORIENTED_EDGE('',*,*,#516,.F.);
#671=ORIENTED_EDGE('',*,*,#532,.F.);
#672=ORIENTED_EDGE('',*,*,#533,.T.);
#673=ORIENTED_EDGE('',*,*,#532,.T.);
#674=ORIENTED_EDGE('',*,*,#515,.F.);
#675=ORIENTED_EDGE('',*,*,#534,.F.);
#676=ORIENTED_EDGE('',*,*,#535,.T.);
#677=ORIENTED_EDGE('',*,*,#534,.T.);
#678=ORIENTED_EDGE('',*,*,#536,.F.);
#679=ORIENTED_EDGE('',*,*,#537,.F.);
#680=ORIENTED_EDGE('',*,*,#538,.T.);
#681=ORIENTED_EDGE('',*,*,#526,.T.);
#682=ORIENTED_EDGE('',*,*,#539,.T.);
#683=ORIENTED_EDGE('',*,*,#530,.T.);
#684=ORIENTED_EDGE('',*,*,#533,.F.);
#685=ORIENTED_EDGE('',*,*,#535,.F.);
#686=ORIENTED_EDGE('',*,*,#540,.F.);
#687=ORIENTED_EDGE('',*,*,#541,.T.);
#688=ORIENTED_EDGE('',*,*,#542,.F.);
#689=ORIENTED_EDGE('',*,*,#543,.F.);
#690=ORIENTED_EDGE('',*,*,#544,.F.);
#691=ORIENTED_EDGE('',*,*,#543,.T.);
#692=ORIENTED_EDGE('',*,*,#545,.F.);
#693=ORIENTED_EDGE('',*,*,#546,.F.);
#694=ORIENTED_EDGE('',*,*,#547,.F.);
#695=ORIENTED_EDGE('',*,*,#546,.T.);
#696=ORIENTED_EDGE('',*,*,#514,.F.);
#697=ORIENTED_EDGE('',*,*,#548,.F.);
#698=ORIENTED_EDGE('',*,*,#547,.T.);
#699=ORIENTED_EDGE('',*,*,#549,.T.);
#700=ORIENTED_EDGE('',*,*,#540,.T.);
#701=ORIENTED_EDGE('',*,*,#544,.T.);
#702=ORIENTED_EDGE('',*,*,#528,.T.);
#703=ORIENTED_EDGE('',*,*,#550,.F.);
#704=ORIENTED_EDGE('',*,*,#551,.F.);
#705=ORIENTED_EDGE('',*,*,#552,.F.);
#706=ORIENTED_EDGE('',*,*,#536,.T.);
#707=ORIENTED_EDGE('',*,*,#545,.T.);
#708=ORIENTED_EDGE('',*,*,#542,.T.);
#709=ORIENTED_EDGE('',*,*,#553,.F.);
#710=ORIENTED_EDGE('',*,*,#554,.T.);
#711=ORIENTED_EDGE('',*,*,#555,.T.);
#712=ORIENTED_EDGE('',*,*,#556,.T.);
#713=ORIENTED_EDGE('',*,*,#557,.T.);
#714=ORIENTED_EDGE('',*,*,#558,.T.);
#715=ORIENTED_EDGE('',*,*,#559,.T.);
#716=ORIENTED_EDGE('',*,*,#560,.F.);
#717=ORIENTED_EDGE('',*,*,#561,.F.);
#718=ORIENTED_EDGE('',*,*,#562,.F.);
#719=ORIENTED_EDGE('',*,*,#563,.T.);
#720=ORIENTED_EDGE('',*,*,#557,.F.);
#721=ORIENTED_EDGE('',*,*,#564,.F.);
#722=ORIENTED_EDGE('',*,*,#565,.T.);
#723=ORIENTED_EDGE('',*,*,#566,.T.);
#724=ORIENTED_EDGE('',*,*,#567,.T.);
#725=ORIENTED_EDGE('',*,*,#568,.T.);
#726=ORIENTED_EDGE('',*,*,#569,.T.);
#727=ORIENTED_EDGE('',*,*,#570,.T.);
#728=ORIENTED_EDGE('',*,*,#571,.T.);
#729=ORIENTED_EDGE('',*,*,#560,.T.);
#730=ORIENTED_EDGE('',*,*,#572,.F.);
#731=ORIENTED_EDGE('',*,*,#573,.T.);
#732=ORIENTED_EDGE('',*,*,#566,.F.);
#733=ORIENTED_EDGE('',*,*,#574,.F.);
#734=ORIENTED_EDGE('',*,*,#575,.F.);
#735=ORIENTED_EDGE('',*,*,#574,.T.);
#736=ORIENTED_EDGE('',*,*,#565,.F.);
#737=ORIENTED_EDGE('',*,*,#564,.T.);
#738=ORIENTED_EDGE('',*,*,#556,.F.);
#739=ORIENTED_EDGE('',*,*,#576,.F.);
#740=ORIENTED_EDGE('',*,*,#569,.F.);
#741=ORIENTED_EDGE('',*,*,#577,.F.);
#742=ORIENTED_EDGE('',*,*,#499,.T.);
#743=ORIENTED_EDGE('',*,*,#502,.T.);
#744=ORIENTED_EDGE('',*,*,#578,.F.);
#745=ORIENTED_EDGE('',*,*,#577,.T.);
#746=ORIENTED_EDGE('',*,*,#568,.F.);
#747=ORIENTED_EDGE('',*,*,#579,.F.);
#748=ORIENTED_EDGE('',*,*,#580,.F.);
#749=ORIENTED_EDGE('',*,*,#561,.T.);
#750=ORIENTED_EDGE('',*,*,#571,.F.);
#751=ORIENTED_EDGE('',*,*,#581,.F.);
#752=ORIENTED_EDGE('',*,*,#582,.F.);
#753=ORIENTED_EDGE('',*,*,#581,.T.);
#754=ORIENTED_EDGE('',*,*,#570,.F.);
#755=ORIENTED_EDGE('',*,*,#576,.T.);
#756=ORIENTED_EDGE('',*,*,#559,.F.);
#757=ORIENTED_EDGE('',*,*,#583,.F.);
#758=ORIENTED_EDGE('',*,*,#584,.F.);
#759=ORIENTED_EDGE('',*,*,#583,.T.);
#760=ORIENTED_EDGE('',*,*,#558,.F.);
#761=ORIENTED_EDGE('',*,*,#563,.F.);
#762=ORIENTED_EDGE('',*,*,#497,.T.);
#763=ORIENTED_EDGE('',*,*,#500,.T.);
#764=ORIENTED_EDGE('',*,*,#585,.T.);
#765=ORIENTED_EDGE('',*,*,#586,.T.);
#766=ORIENTED_EDGE('',*,*,#587,.T.);
#767=ORIENTED_EDGE('',*,*,#588,.T.);
#768=ORIENTED_EDGE('',*,*,#589,.T.);
#769=ORIENTED_EDGE('',*,*,#590,.T.);
#770=ORIENTED_EDGE('',*,*,#591,.T.);
#771=ORIENTED_EDGE('',*,*,#592,.T.);
#772=ORIENTED_EDGE('',*,*,#593,.T.);
#773=ORIENTED_EDGE('',*,*,#594,.T.);
#774=ORIENTED_EDGE('',*,*,#595,.T.);
#775=ORIENTED_EDGE('',*,*,#596,.T.);
#776=ORIENTED_EDGE('',*,*,#580,.T.);
#777=ORIENTED_EDGE('',*,*,#582,.T.);
#778=ORIENTED_EDGE('',*,*,#584,.T.);
#779=ORIENTED_EDGE('',*,*,#562,.T.);
#780=ORIENTED_EDGE('',*,*,#595,.F.);
#781=ORIENTED_EDGE('',*,*,#597,.T.);
#782=ORIENTED_EDGE('',*,*,#550,.T.);
#783=ORIENTED_EDGE('',*,*,#527,.F.);
#784=ORIENTED_EDGE('',*,*,#538,.F.);
#785=ORIENTED_EDGE('',*,*,#537,.T.);
#786=ORIENTED_EDGE('',*,*,#552,.T.);
#787=ORIENTED_EDGE('',*,*,#551,.T.);
#788=ORIENTED_EDGE('',*,*,#597,.F.);
#789=ORIENTED_EDGE('',*,*,#596,.F.);
#790=ORIENTED_EDGE('',*,*,#598,.T.);
#791=ORIENTED_EDGE('',*,*,#521,.T.);
#792=ORIENTED_EDGE('',*,*,#598,.F.);
#793=ORIENTED_EDGE('',*,*,#523,.T.);
#794=ORIENTED_EDGE('',*,*,#599,.T.);
#795=ORIENTED_EDGE('',*,*,#600,.F.);
#796=ORIENTED_EDGE('',*,*,#579,.T.);
#797=ORIENTED_EDGE('',*,*,#567,.F.);
#798=ORIENTED_EDGE('',*,*,#573,.F.);
#799=ORIENTED_EDGE('',*,*,#601,.F.);
#800=ORIENTED_EDGE('',*,*,#602,.F.);
#801=ORIENTED_EDGE('',*,*,#524,.T.);
#802=ORIENTED_EDGE('',*,*,#602,.T.);
#803=ORIENTED_EDGE('',*,*,#603,.F.);
#804=ORIENTED_EDGE('',*,*,#604,.F.);
#805=ORIENTED_EDGE('',*,*,#525,.T.);
#806=ORIENTED_EDGE('',*,*,#604,.T.);
#807=ORIENTED_EDGE('',*,*,#605,.F.);
#808=ORIENTED_EDGE('',*,*,#606,.F.);
#809=ORIENTED_EDGE('',*,*,#522,.T.);
#810=ORIENTED_EDGE('',*,*,#606,.T.);
#811=ORIENTED_EDGE('',*,*,#607,.F.);
#812=ORIENTED_EDGE('',*,*,#599,.F.);
#813=ORIENTED_EDGE('',*,*,#553,.T.);
#814=ORIENTED_EDGE('',*,*,#541,.F.);
#815=ORIENTED_EDGE('',*,*,#549,.F.);
#816=ORIENTED_EDGE('',*,*,#548,.T.);
#817=ORIENTED_EDGE('',*,*,#513,.T.);
#818=ORIENTED_EDGE('',*,*,#608,.T.);
#819=ORIENTED_EDGE('',*,*,#594,.F.);
#820=ORIENTED_EDGE('',*,*,#593,.F.);
#821=ORIENTED_EDGE('',*,*,#592,.F.);
#822=ORIENTED_EDGE('',*,*,#609,.F.);
#823=ORIENTED_EDGE('',*,*,#554,.F.);
#824=ORIENTED_EDGE('',*,*,#609,.T.);
#825=ORIENTED_EDGE('',*,*,#591,.F.);
#826=ORIENTED_EDGE('',*,*,#610,.F.);
#827=ORIENTED_EDGE('',*,*,#555,.F.);
#828=ORIENTED_EDGE('',*,*,#610,.T.);
#829=ORIENTED_EDGE('',*,*,#590,.F.);
#830=ORIENTED_EDGE('',*,*,#611,.F.);
#831=ORIENTED_EDGE('',*,*,#517,.F.);
#832=ORIENTED_EDGE('',*,*,#531,.F.);
#833=ORIENTED_EDGE('',*,*,#539,.F.);
#834=ORIENTED_EDGE('',*,*,#529,.T.);
#835=ORIENTED_EDGE('',*,*,#518,.T.);
#836=ORIENTED_EDGE('',*,*,#611,.T.);
#837=ORIENTED_EDGE('',*,*,#589,.F.);
#838=ORIENTED_EDGE('',*,*,#612,.F.);
#839=ORIENTED_EDGE('',*,*,#519,.T.);
#840=ORIENTED_EDGE('',*,*,#612,.T.);
#841=ORIENTED_EDGE('',*,*,#588,.F.);
#842=ORIENTED_EDGE('',*,*,#613,.F.);
#843=ORIENTED_EDGE('',*,*,#520,.T.);
#844=ORIENTED_EDGE('',*,*,#613,.T.);
#845=ORIENTED_EDGE('',*,*,#587,.F.);
#846=ORIENTED_EDGE('',*,*,#614,.F.);
#847=ORIENTED_EDGE('',*,*,#614,.T.);
#848=ORIENTED_EDGE('',*,*,#586,.F.);
#849=ORIENTED_EDGE('',*,*,#615,.F.);
#850=ORIENTED_EDGE('',*,*,#511,.T.);
#851=ORIENTED_EDGE('',*,*,#509,.T.);
#852=ORIENTED_EDGE('',*,*,#615,.T.);
#853=ORIENTED_EDGE('',*,*,#585,.F.);
#854=ORIENTED_EDGE('',*,*,#608,.F.);
#855=ORIENTED_EDGE('',*,*,#512,.F.);
#856=ORIENTED_EDGE('',*,*,#504,.F.);
#857=ORIENTED_EDGE('',*,*,#510,.T.);
#858=ORIENTED_EDGE('',*,*,#600,.T.);
#859=ORIENTED_EDGE('',*,*,#607,.T.);
#860=ORIENTED_EDGE('',*,*,#605,.T.);
#861=ORIENTED_EDGE('',*,*,#603,.T.);
#862=ORIENTED_EDGE('',*,*,#601,.T.);
#863=ORIENTED_EDGE('',*,*,#572,.T.);
#864=ORIENTED_EDGE('',*,*,#575,.T.);
#865=ORIENTED_EDGE('',*,*,#578,.T.);
#866=ORIENTED_EDGE('',*,*,#616,.T.);
#867=ORIENTED_EDGE('',*,*,#617,.F.);
#868=ORIENTED_EDGE('',*,*,#618,.T.);
#869=ORIENTED_EDGE('',*,*,#619,.T.);
#870=ORIENTED_EDGE('',*,*,#620,.T.);
#871=ORIENTED_EDGE('',*,*,#621,.T.);
#872=ORIENTED_EDGE('',*,*,#622,.T.);
#873=ORIENTED_EDGE('',*,*,#623,.F.);
#874=ORIENTED_EDGE('',*,*,#616,.F.);
#875=ORIENTED_EDGE('',*,*,#624,.T.);
#876=ORIENTED_EDGE('',*,*,#620,.F.);
#877=ORIENTED_EDGE('',*,*,#625,.F.);
#878=ORIENTED_EDGE('',*,*,#619,.F.);
#879=ORIENTED_EDGE('',*,*,#626,.T.);
#880=ORIENTED_EDGE('',*,*,#621,.F.);
#881=ORIENTED_EDGE('',*,*,#624,.F.);
#882=ORIENTED_EDGE('',*,*,#618,.F.);
#883=ORIENTED_EDGE('',*,*,#627,.T.);
#884=ORIENTED_EDGE('',*,*,#622,.F.);
#885=ORIENTED_EDGE('',*,*,#626,.F.);
#886=ORIENTED_EDGE('',*,*,#617,.T.);
#887=ORIENTED_EDGE('',*,*,#625,.T.);
#888=ORIENTED_EDGE('',*,*,#623,.T.);
#889=ORIENTED_EDGE('',*,*,#627,.F.);
#890=CYLINDRICAL_SURFACE('',#960,1.9);
#891=CYLINDRICAL_SURFACE('',#963,1.9);
#892=CYLINDRICAL_SURFACE('',#974,3.24154025160386);
#893=CYLINDRICAL_SURFACE('',#980,3.24154025160386);
#894=CYLINDRICAL_SURFACE('',#1001,2.10000000000001);
#895=CYLINDRICAL_SURFACE('',#1002,2.1);
#896=CYLINDRICAL_SURFACE('',#1023,1.99999999999999);
#897=CYLINDRICAL_SURFACE('',#1025,2.10000000000001);
#898=ADVANCED_FACE('',(#65),#890,.F.);
#899=ADVANCED_FACE('',(#66),#891,.F.);
#900=ADVANCED_FACE('',(#67),#26,.T.);
#901=ADVANCED_FACE('',(#68),#27,.T.);
#902=ADVANCED_FACE('',(#69),#28,.F.);
#903=ADVANCED_FACE('',(#70,#17,#18),#29,.F.);
#904=ADVANCED_FACE('',(#71),#30,.T.);
#905=ADVANCED_FACE('',(#72),#31,.T.);
#906=ADVANCED_FACE('',(#73),#892,.T.);
#907=ADVANCED_FACE('',(#74),#32,.T.);
#908=ADVANCED_FACE('',(#75),#33,.F.);
#909=ADVANCED_FACE('',(#76),#34,.T.);
#910=ADVANCED_FACE('',(#77),#893,.F.);
#911=ADVANCED_FACE('',(#78),#35,.T.);
#912=ADVANCED_FACE('',(#79),#36,.F.);
#913=ADVANCED_FACE('',(#80),#37,.F.);
#914=ADVANCED_FACE('',(#81),#38,.T.);
#915=ADVANCED_FACE('',(#82),#39,.T.);
#916=ADVANCED_FACE('',(#83),#40,.T.);
#917=ADVANCED_FACE('',(#84),#41,.T.);
#918=ADVANCED_FACE('',(#85,#19,#20),#42,.T.);
#919=ADVANCED_FACE('',(#86),#43,.T.);
#920=ADVANCED_FACE('',(#87),#44,.T.);
#921=ADVANCED_FACE('',(#88),#45,.T.);
#922=ADVANCED_FACE('',(#89,#21,#22),#46,.T.);
#923=ADVANCED_FACE('',(#90,#23,#24,#25),#47,.T.);
#924=ADVANCED_FACE('',(#91),#894,.F.);
#925=ADVANCED_FACE('',(#92),#895,.F.);
#926=ADVANCED_FACE('',(#93),#48,.T.);
#927=ADVANCED_FACE('',(#94),#49,.T.);
#928=ADVANCED_FACE('',(#95),#50,.T.);
#929=ADVANCED_FACE('',(#96),#51,.T.);
#930=ADVANCED_FACE('',(#97),#52,.T.);
#931=ADVANCED_FACE('',(#98),#53,.T.);
#932=ADVANCED_FACE('',(#99),#54,.T.);
#933=ADVANCED_FACE('',(#100),#55,.T.);
#934=ADVANCED_FACE('',(#101),#56,.T.);
#935=ADVANCED_FACE('',(#102),#57,.T.);
#936=ADVANCED_FACE('',(#103),#58,.T.);
#937=ADVANCED_FACE('',(#104),#59,.T.);
#938=ADVANCED_FACE('',(#105),#60,.T.);
#939=ADVANCED_FACE('',(#106),#61,.F.);
#940=ADVANCED_FACE('',(#107),#62,.T.);
#941=ADVANCED_FACE('',(#108),#63,.T.);
#942=ADVANCED_FACE('',(#109),#896,.F.);
#943=ADVANCED_FACE('',(#110),#64,.T.);
#944=ADVANCED_FACE('',(#111),#897,.T.);
#945=CLOSED_SHELL('',(#898,#899,#900,#901,#902,#903,#904,#905,#906,#907,
#908,#909,#910,#911,#912,#913,#914,#915,#916,#917,#918,#919,#920,#921,#922,
#923,#924,#925,#926,#927,#928,#929,#930,#931,#932,#933,#934,#935,#936,#937,
#938));
#946=CLOSED_SHELL('',(#939,#940,#941,#942,#943,#944));
#947=DERIVED_UNIT_ELEMENT(#949,1.);
#948=DERIVED_UNIT_ELEMENT(#1542,-3.);
#949=(
MASS_UNIT()
NAMED_UNIT(*)
SI_UNIT(.KILO.,.GRAM.)
);
#950=DERIVED_UNIT((#947,#948));
#951=MEASURE_REPRESENTATION_ITEM('density measure',
POSITIVE_RATIO_MEASURE(1420.),#950);
#952=PROPERTY_DEFINITION_REPRESENTATION(#957,#954);
#953=PROPERTY_DEFINITION_REPRESENTATION(#958,#955);
#954=REPRESENTATION('material name',(#956),#1539);
#955=REPRESENTATION('density',(#951),#1539);
#956=DESCRIPTIVE_REPRESENTATION_ITEM('PET','PET');
#957=PROPERTY_DEFINITION('material property','material name',#1549);
#958=PROPERTY_DEFINITION('material property','density of part',#1549);
#959=AXIS2_PLACEMENT_3D('',#1272,#1026,#1027);
#960=AXIS2_PLACEMENT_3D('',#1273,#1028,#1029);
#961=AXIS2_PLACEMENT_3D('',#1275,#1030,#1031);
#962=AXIS2_PLACEMENT_3D('',#1278,#1033,#1034);
#963=AXIS2_PLACEMENT_3D('',#1279,#1035,#1036);
#964=AXIS2_PLACEMENT_3D('',#1281,#1037,#1038);
#965=AXIS2_PLACEMENT_3D('',#1284,#1040,#1041);
#966=AXIS2_PLACEMENT_3D('',#1285,#1042,#1043);
#967=AXIS2_PLACEMENT_3D('',#1294,#1048,#1049);
#968=AXIS2_PLACEMENT_3D('',#1300,#1053,#1054);
#969=AXIS2_PLACEMENT_3D('',#1304,#1057,#1058);
#970=AXIS2_PLACEMENT_3D('',#1312,#1062,#1063);
#971=AXIS2_PLACEMENT_3D('',#1323,#1069,#1070);
#972=AXIS2_PLACEMENT_3D('',#1332,#1075,#1076);
#973=AXIS2_PLACEMENT_3D('',#1341,#1081,#1082);
#974=AXIS2_PLACEMENT_3D('',#1347,#1086,#1087);
#975=AXIS2_PLACEMENT_3D('',#1349,#1088,#1089);
#976=AXIS2_PLACEMENT_3D('',#1351,#1091,#1092);
#977=AXIS2_PLACEMENT_3D('',#1357,#1096,#1097);
#978=AXIS2_PLACEMENT_3D('',#1358,#1098,#1099);
#979=AXIS2_PLACEMENT_3D('',#1360,#1101,#1102);
#980=AXIS2_PLACEMENT_3D('',#1369,#1107,#1108);
#981=AXIS2_PLACEMENT_3D('',#1370,#1109,#1110);
#982=AXIS2_PLACEMENT_3D('',#1371,#1111,#1112);
#983=AXIS2_PLACEMENT_3D('',#1373,#1114,#1115);
#984=AXIS2_PLACEMENT_3D('',#1377,#1118,#1119);
#985=AXIS2_PLACEMENT_3D('',#1379,#1121,#1122);
#986=AXIS2_PLACEMENT_3D('',#1381,#1123,#1124);
#987=AXIS2_PLACEMENT_3D('',#1383,#1125,#1126);
#988=AXIS2_PLACEMENT_3D('',#1384,#1127,#1128);
#989=AXIS2_PLACEMENT_3D('',#1390,#1132,#1133);
#990=AXIS2_PLACEMENT_3D('',#1399,#1138,#1139);
#991=AXIS2_PLACEMENT_3D('',#1409,#1145,#1146);
#992=AXIS2_PLACEMENT_3D('',#1423,#1154,#1155);
#993=AXIS2_PLACEMENT_3D('',#1429,#1159,#1160);
#994=AXIS2_PLACEMENT_3D('',#1434,#1164,#1165);
#995=AXIS2_PLACEMENT_3D('',#1438,#1168,#1169);
#996=AXIS2_PLACEMENT_3D('',#1442,#1172,#1173);
#997=AXIS2_PLACEMENT_3D('',#1446,#1176,#1177);
#998=AXIS2_PLACEMENT_3D('',#1448,#1179,#1180);
#999=AXIS2_PLACEMENT_3D('',#1470,#1191,#1192);
#1000=AXIS2_PLACEMENT_3D('',#1472,#1193,#1194);
#1001=AXIS2_PLACEMENT_3D('',#1473,#1195,#1196);
#1002=AXIS2_PLACEMENT_3D('',#1475,#1198,#1199);
#1003=AXIS2_PLACEMENT_3D('',#1477,#1201,#1202);
#1004=AXIS2_PLACEMENT_3D('',#1484,#1207,#1208);
#1005=AXIS2_PLACEMENT_3D('',#1488,#1211,#1212);
#1006=AXIS2_PLACEMENT_3D('',#1492,#1215,#1216);
#1007=AXIS2_PLACEMENT_3D('',#1494,#1218,#1219);
#1008=AXIS2_PLACEMENT_3D('',#1497,#1222,#1223);
#1009=AXIS2_PLACEMENT_3D('',#1499,#1225,#1226);
#1010=AXIS2_PLACEMENT_3D('',#1501,#1228,#1229);
#1011=AXIS2_PLACEMENT_3D('',#1503,#1231,#1232);
#1012=AXIS2_PLACEMENT_3D('',#1505,#1234,#1235);
#1013=AXIS2_PLACEMENT_3D('',#1507,#1237,#1238);
#1014=AXIS2_PLACEMENT_3D('',#1509,#1240,#1241);
#1015=AXIS2_PLACEMENT_3D('',#1510,#1242,#1243);
#1016=AXIS2_PLACEMENT_3D('',#1511,#1244,#1245);
#1017=AXIS2_PLACEMENT_3D('',#1516,#1247,#1248);
#1018=AXIS2_PLACEMENT_3D('',#1519,#1250,#1251);
#1019=AXIS2_PLACEMENT_3D('',#1520,#1252,#1253);
#1020=AXIS2_PLACEMENT_3D('',#1525,#1255,#1256);
#1021=AXIS2_PLACEMENT_3D('',#1528,#1258,#1259);
#1022=AXIS2_PLACEMENT_3D('',#1529,#1260,#1261);
#1023=AXIS2_PLACEMENT_3D('',#1532,#1264,#1265);
#1024=AXIS2_PLACEMENT_3D('',#1534,#1267,#1268);
#1025=AXIS2_PLACEMENT_3D('',#1536,#1270,#1271);
#1026=DIRECTION('axis',(0.,0.,1.));
#1027=DIRECTION('refdir',(1.,0.,0.));
#1028=DIRECTION('center_axis',(1.,0.,0.));
#1029=DIRECTION('ref_axis',(0.,-1.,0.));
#1030=DIRECTION('center_axis',(1.,0.,0.));
#1031=DIRECTION('ref_axis',(0.,-1.,0.));
#1032=DIRECTION('',(1.,0.,0.));
#1033=DIRECTION('center_axis',(-1.,0.,0.));
#1034=DIRECTION('ref_axis',(0.,-1.,0.));
#1035=DIRECTION('center_axis',(1.,0.,0.));
#1036=DIRECTION('ref_axis',(0.,-1.,0.));
#1037=DIRECTION('center_axis',(1.,0.,0.));
#1038=DIRECTION('ref_axis',(0.,-1.,0.));
#1039=DIRECTION('',(1.,0.,0.));
#1040=DIRECTION('center_axis',(-1.,0.,0.));
#1041=DIRECTION('ref_axis',(0.,-1.,0.));
#1042=DIRECTION('center_axis',(0.,0.,-1.));
#1043=DIRECTION('ref_axis',(-1.,0.,0.));
#1044=DIRECTION('',(-1.,0.,0.));
#1045=DIRECTION('',(0.,1.,0.));
#1046=DIRECTION('',(-1.,0.,0.));
#1047=DIRECTION('',(0.,1.,0.));
#1048=DIRECTION('center_axis',(1.,0.,0.));
#1049=DIRECTION('ref_axis',(0.,0.,-1.));
#1050=DIRECTION('',(0.,0.,-1.));
#1051=DIRECTION('',(0.,0.,-1.));
#1052=DIRECTION('',(0.,1.,0.));
#1053=DIRECTION('center_axis',(0.,1.,0.));
#1054=DIRECTION('ref_axis',(-1.,0.,0.));
#1055=DIRECTION('',(0.,0.,1.));
#1056=DIRECTION('',(1.,0.,0.));
#1057=DIRECTION('center_axis',(0.,1.,0.));
#1058=DIRECTION('ref_axis',(-1.,0.,0.));
#1059=DIRECTION('',(0.,0.,-1.));
#1060=DIRECTION('',(-1.,0.,0.));
#1061=DIRECTION('',(0.,0.,1.));
#1062=DIRECTION('center_axis',(0.,1.,0.));
#1063=DIRECTION('ref_axis',(-1.,0.,0.));
#1064=DIRECTION('',(0.,0.,1.));
#1065=DIRECTION('',(-1.,0.,0.));
#1066=DIRECTION('',(0.,0.,1.));
#1067=DIRECTION('',(0.707106781186548,0.,0.707106781186548));
#1068=DIRECTION('',(0.999999999999993,0.,-1.18063045732899E-7));
#1069=DIRECTION('center_axis',(0.,-1.,0.));
#1070=DIRECTION('ref_axis',(-1.,0.,0.));
#1071=DIRECTION('',(-1.,0.,0.));
#1072=DIRECTION('',(0.,0.,1.));
#1073=DIRECTION('',(1.,0.,0.));
#1074=DIRECTION('',(0.,0.,-1.));
#1075=DIRECTION('center_axis',(1.,0.,0.));
#1076=DIRECTION('ref_axis',(0.,0.,-1.));
#1077=DIRECTION('',(0.,0.,1.));
#1078=DIRECTION('',(0.,1.,0.));
#1079=DIRECTION('',(0.,0.,-1.));
#1080=DIRECTION('',(0.,1.,0.));
#1081=DIRECTION('center_axis',(-1.,0.,0.));
#1082=DIRECTION('ref_axis',(0.,0.,1.));
#1083=DIRECTION('',(0.,0.,-1.));
#1084=DIRECTION('',(0.,1.,0.));
#1085=DIRECTION('',(0.,1.,0.));
#1086=DIRECTION('center_axis',(0.,1.,0.));
#1087=DIRECTION('ref_axis',(-1.,0.,0.));
#1088=DIRECTION('center_axis',(0.,1.,0.));
#1089=DIRECTION('ref_axis',(-1.,0.,0.));
#1090=DIRECTION('',(0.,1.,0.));
#1091=DIRECTION('center_axis',(1.,0.,0.));
#1092=DIRECTION('ref_axis',(0.,0.,-1.));
#1093=DIRECTION('',(0.,0.,-1.));
#1094=DIRECTION('',(0.,0.,-1.));
#1095=DIRECTION('',(0.,1.,0.));
#1096=DIRECTION('center_axis',(0.,1.,0.));
#1097=DIRECTION('ref_axis',(-1.,0.,0.));
#1098=DIRECTION('center_axis',(0.,1.,0.));
#1099=DIRECTION('ref_axis',(-1.,0.,0.));
#1100=DIRECTION('',(-1.,0.,0.));
#1101=DIRECTION('center_axis',(1.,0.,0.));
#1102=DIRECTION('ref_axis',(0.,0.,-1.));
#1103=DIRECTION('',(0.,0.,1.));
#1104=DIRECTION('',(0.,1.,0.));
#1105=DIRECTION('',(0.,0.,-1.));
#1106=DIRECTION('',(0.,1.,0.));
#1107=DIRECTION('center_axis',(0.,1.,0.));
#1108=DIRECTION('ref_axis',(-1.,0.,0.));
#1109=DIRECTION('center_axis',(0.,1.,0.));
#1110=DIRECTION('ref_axis',(-1.,0.,0.));
#1111=DIRECTION('center_axis',(0.,-1.,0.));
#1112=DIRECTION('ref_axis',(-1.,0.,0.));
#1113=DIRECTION('',(0.,1.,0.));
#1114=DIRECTION('center_axis',(-1.,0.,0.));
#1115=DIRECTION('ref_axis',(0.,0.,1.));
#1116=DIRECTION('',(0.,0.,-1.));
#1117=DIRECTION('',(0.,1.,0.));
#1118=DIRECTION('center_axis',(0.,1.,0.));
#1119=DIRECTION('ref_axis',(-1.,0.,0.));
#1120=DIRECTION('',(1.,0.,0.));
#1121=DIRECTION('center_axis',(0.,1.,0.));
#1122=DIRECTION('ref_axis',(-1.,0.,0.));
#1123=DIRECTION('center_axis',(0.,-1.,0.));
#1124=DIRECTION('ref_axis',(-1.,0.,0.));
#1125=DIRECTION('center_axis',(0.,-1.,0.));
#1126=DIRECTION('ref_axis',(-1.,0.,0.));
#1127=DIRECTION('center_axis',(0.,-1.,0.));
#1128=DIRECTION('ref_axis',(-1.,0.,0.));
#1129=DIRECTION('',(-1.,0.,0.));
#1130=DIRECTION('',(0.,0.,1.));
#1131=DIRECTION('',(-1.,0.,0.));
#1132=DIRECTION('center_axis',(0.,1.,0.));
#1133=DIRECTION('ref_axis',(0.,0.,1.));
#1134=DIRECTION('',(0.,0.,-1.));
#1135=DIRECTION('',(-1.,0.,0.));
#1136=DIRECTION('',(0.,0.,1.));
#1137=DIRECTION('',(1.,0.,0.));
#1138=DIRECTION('center_axis',(0.,0.,-1.));
#1139=DIRECTION('ref_axis',(-1.,0.,0.));
#1140=DIRECTION('',(-1.,0.,0.));
#1141=DIRECTION('',(0.,1.,0.));
#1142=DIRECTION('',(1.,0.,0.));
#1143=DIRECTION('',(0.,1.,0.));
#1144=DIRECTION('',(0.,1.,0.));
#1145=DIRECTION('center_axis',(0.,1.,0.));
#1146=DIRECTION('ref_axis',(0.,0.,1.));
#1147=DIRECTION('',(0.,0.,1.));
#1148=DIRECTION('',(1.,0.,0.));
#1149=DIRECTION('',(0.,0.,1.));
#1150=DIRECTION('',(-1.,0.,0.));
#1151=DIRECTION('',(0.,0.,1.));
#1152=DIRECTION('',(1.,0.,0.));
#1153=DIRECTION('',(0.,0.,-1.));
#1154=DIRECTION('center_axis',(0.,0.,1.));
#1155=DIRECTION('ref_axis',(1.,0.,0.));
#1156=DIRECTION('',(-1.,0.,0.));
#1157=DIRECTION('',(0.,1.,0.));
#1158=DIRECTION('',(0.,1.,0.));
#1159=DIRECTION('center_axis',(1.,0.,0.));
#1160=DIRECTION('ref_axis',(0.,0.,-1.));
#1161=DIRECTION('',(0.,0.,1.));
#1162=DIRECTION('',(0.,1.,0.));
#1163=DIRECTION('',(0.,1.,0.));
#1164=DIRECTION('center_axis',(0.,0.,-1.));
#1165=DIRECTION('ref_axis',(-1.,0.,0.));
#1166=DIRECTION('',(1.,0.,0.));
#1167=DIRECTION('',(0.,1.,0.));
#1168=DIRECTION('center_axis',(1.,0.,0.));
#1169=DIRECTION('ref_axis',(0.,0.,-1.));
#1170=DIRECTION('',(0.,0.,1.));
#1171=DIRECTION('',(0.,1.,0.));
#1172=DIRECTION('center_axis',(0.,0.,1.));
#1173=DIRECTION('ref_axis',(1.,0.,0.));
#1174=DIRECTION('',(-1.,0.,0.));
#1175=DIRECTION('',(0.,1.,0.));
#1176=DIRECTION('center_axis',(-1.,0.,0.));
#1177=DIRECTION('ref_axis',(0.,0.,1.));
#1178=DIRECTION('',(0.,0.,-1.));
#1179=DIRECTION('center_axis',(0.,1.,0.));
#1180=DIRECTION('ref_axis',(-1.,0.,0.));
#1181=DIRECTION('',(0.,0.,1.));
#1182=DIRECTION('',(1.,0.,0.));
#1183=DIRECTION('',(0.999999999999993,0.,-1.18063045732899E-7));
#1184=DIRECTION('',(0.707106781186548,0.,0.707106781186548));
#1185=DIRECTION('',(0.,0.,1.));
#1186=DIRECTION('',(1.,0.,0.));
#1187=DIRECTION('',(0.,0.,-1.));
#1188=DIRECTION('',(-1.,0.,0.));
#1189=DIRECTION('',(-1.,0.,0.));
#1190=DIRECTION('',(-1.,0.,0.));
#1191=DIRECTION('center_axis',(0.,-1.,0.));
#1192=DIRECTION('ref_axis',(-1.,0.,0.));
#1193=DIRECTION('center_axis',(0.,-1.,0.));
#1194=DIRECTION('ref_axis',(-1.,0.,0.));
#1195=DIRECTION('center_axis',(0.,1.,0.));
#1196=DIRECTION('ref_axis',(-1.,0.,0.));
#1197=DIRECTION('',(0.,-1.,0.));
#1198=DIRECTION('center_axis',(0.,1.,0.));
#1199=DIRECTION('ref_axis',(-1.,0.,0.));
#1200=DIRECTION('',(0.,-1.,0.));
#1201=DIRECTION('center_axis',(-1.,0.,0.));
#1202=DIRECTION('ref_axis',(0.,0.,1.));
#1203=DIRECTION('',(0.,1.,0.));
#1204=DIRECTION('',(0.,0.,-1.));
#1205=DIRECTION('',(0.,0.,-1.));
#1206=DIRECTION('',(0.,1.,0.));
#1207=DIRECTION('center_axis',(0.,0.,1.));
#1208=DIRECTION('ref_axis',(1.,0.,0.));
#1209=DIRECTION('',(1.,0.,0.));
#1210=DIRECTION('',(0.,1.,0.));
#1211=DIRECTION('center_axis',(1.,0.,0.));
#1212=DIRECTION('ref_axis',(0.,0.,-1.));
#1213=DIRECTION('',(0.,0.,-1.));
#1214=DIRECTION('',(0.,1.,0.));
#1215=DIRECTION('center_axis',(0.,0.,-1.));
#1216=DIRECTION('ref_axis',(-1.,0.,0.));
#1217=DIRECTION('',(-1.,0.,0.));
#1218=DIRECTION('center_axis',(0.,0.,-1.));
#1219=DIRECTION('ref_axis',(-1.,0.,0.));
#1220=DIRECTION('',(0.,1.,0.));
#1221=DIRECTION('',(0.,1.,0.));
#1222=DIRECTION('center_axis',(1.,0.,0.));
#1223=DIRECTION('ref_axis',(0.,0.,-1.));
#1224=DIRECTION('',(0.,1.,0.));
#1225=DIRECTION('center_axis',(0.,0.,1.));
#1226=DIRECTION('ref_axis',(1.,0.,0.));
#1227=DIRECTION('',(0.,1.,0.));
#1228=DIRECTION('center_axis',(-1.,0.,0.));
#1229=DIRECTION('ref_axis',(0.,0.,1.));
#1230=DIRECTION('',(0.,1.,0.));
#1231=DIRECTION('center_axis',(-0.707106781186548,0.,0.707106781186548));
#1232=DIRECTION('ref_axis',(0.707106781186548,0.,0.707106781186548));
#1233=DIRECTION('',(0.,1.,0.));
#1234=DIRECTION('center_axis',(1.18063045732899E-7,0.,0.999999999999993));
#1235=DIRECTION('ref_axis',(0.999999999999993,0.,-1.18063045732899E-7));
#1236=DIRECTION('',(0.,1.,0.));
#1237=DIRECTION('center_axis',(0.,0.,1.));
#1238=DIRECTION('ref_axis',(1.,0.,0.));
#1239=DIRECTION('',(0.,1.,0.));
#1240=DIRECTION('center_axis',(-1.,0.,0.));
#1241=DIRECTION('ref_axis',(0.,0.,1.));
#1242=DIRECTION('center_axis',(0.,1.,0.));
#1243=DIRECTION('ref_axis',(-1.,0.,0.));
#1244=DIRECTION('center_axis',(0.,1.,0.));
#1245=DIRECTION('ref_axis',(-1.,0.,0.));
#1246=DIRECTION('',(0.,0.,-1.));
#1247=DIRECTION('center_axis',(0.,1.,0.));
#1248=DIRECTION('ref_axis',(-1.,0.,0.));
#1249=DIRECTION('',(0.,0.,1.));
#1250=DIRECTION('center_axis',(0.,1.,0.));
#1251=DIRECTION('ref_axis',(0.520000000000006,0.,-0.854166260162501));
#1252=DIRECTION('center_axis',(0.,1.,0.));
#1253=DIRECTION('ref_axis',(-1.,0.,0.));
#1254=DIRECTION('',(0.,0.,1.));
#1255=DIRECTION('center_axis',(0.,-1.,0.));
#1256=DIRECTION('ref_axis',(0.520000000000006,0.,-0.854166260162501));
#1257=DIRECTION('',(0.,0.,-1.));
#1258=DIRECTION('center_axis',(0.,-1.,0.));
#1259=DIRECTION('ref_axis',(-1.,0.,0.));
#1260=DIRECTION('center_axis',(-1.,0.,0.));
#1261=DIRECTION('ref_axis',(0.,0.,1.));
#1262=DIRECTION('',(0.,1.,0.));
#1263=DIRECTION('',(0.,1.,0.));
#1264=DIRECTION('center_axis',(0.,1.,0.));
#1265=DIRECTION('ref_axis',(0.520000000000006,0.,-0.854166260162501));
#1266=DIRECTION('',(0.,1.,0.));
#1267=DIRECTION('center_axis',(1.,0.,0.));
#1268=DIRECTION('ref_axis',(0.,0.,-1.));
#1269=DIRECTION('',(0.,1.,0.));
#1270=DIRECTION('center_axis',(0.,1.,0.));
#1271=DIRECTION('ref_axis',(-1.,0.,0.));
#1272=CARTESIAN_POINT('',(0.,0.,0.));
#1273=CARTESIAN_POINT('Origin',(91.734864461777,39.5,-119.499998234212));
#1274=CARTESIAN_POINT('',(91.734864461777,41.4,-119.499998234212));
#1275=CARTESIAN_POINT('Origin',(91.734864461777,39.5,-119.499998234212));
#1276=CARTESIAN_POINT('',(93.734864461777,41.4,-119.499998234212));
#1277=CARTESIAN_POINT('',(91.734864461777,41.4,-119.499998234212));
#1278=CARTESIAN_POINT('Origin',(93.734864461777,39.5,-119.499998234212));
#1279=CARTESIAN_POINT('Origin',(91.734864461777,39.5,-124.249998580664));
#1280=CARTESIAN_POINT('',(91.734864461777,41.4,-124.249998580664));
#1281=CARTESIAN_POINT('Origin',(91.734864461777,39.5,-124.249998580664));
#1282=CARTESIAN_POINT('',(93.734864461777,41.4,-124.249998580664));
#1283=CARTESIAN_POINT('',(91.734864461777,41.4,-124.249998580664));
#1284=CARTESIAN_POINT('Origin',(93.734864461777,39.5,-124.249998580664));
#1285=CARTESIAN_POINT('Origin',(81.,15.,-109.299998347117));
#1286=CARTESIAN_POINT('',(81.,15.,-109.299998347117));
#1287=CARTESIAN_POINT('',(75.,15.,-109.299998347117));
#1288=CARTESIAN_POINT('',(81.,15.,-109.299998347117));
#1289=CARTESIAN_POINT('',(75.,17.,-109.299998347117));
#1290=CARTESIAN_POINT('',(75.,15.,-109.299998347117));
#1291=CARTESIAN_POINT('',(81.,17.,-109.299998347117));
#1292=CARTESIAN_POINT('',(89.1174322308885,17.,-109.299998347117));
#1293=CARTESIAN_POINT('',(81.,15.,-109.299998347117));
#1294=CARTESIAN_POINT('Origin',(81.,15.,-103.299998347117));
#1295=CARTESIAN_POINT('',(81.,15.,-103.299998347117));
#1296=CARTESIAN_POINT('',(81.,15.,-103.299998347117));
#1297=CARTESIAN_POINT('',(81.,17.,-103.299998347117));
#1298=CARTESIAN_POINT('',(81.,17.,-111.400001673559));
#1299=CARTESIAN_POINT('',(81.,15.,-103.299998347117));
#1300=CARTESIAN_POINT('Origin',(78.,15.,-106.299998347117));
#1301=CARTESIAN_POINT('',(75.,15.,-103.299998347117));
#1302=CARTESIAN_POINT('',(75.,15.,-109.299998347117));
#1303=CARTESIAN_POINT('',(75.,15.,-103.299998347117));
#1304=CARTESIAN_POINT('Origin',(97.234864461777,17.,-119.500005));
#1305=CARTESIAN_POINT('',(75.,17.,-143.));
#1306=CARTESIAN_POINT('',(75.,17.,-96.));
#1307=CARTESIAN_POINT('',(113.999997384846,17.,-142.999996803701));
#1308=CARTESIAN_POINT('',(119.469728923554,17.,-143.));
#1309=CARTESIAN_POINT('',(113.999997384846,17.,-107.281854556585));
#1310=CARTESIAN_POINT('',(113.999997384846,17.,-131.25000090185));
#1311=CARTESIAN_POINT('',(113.999997384846,17.,-102.118145443415));
#1312=CARTESIAN_POINT('Origin',(115.96,17.,-104.7));
#1313=CARTESIAN_POINT('',(113.999997384846,17.,-96.));
#1314=CARTESIAN_POINT('',(113.999997384846,17.,-110.809075221708));
#1315=CARTESIAN_POINT('',(91.3,17.,-96.));
#1316=CARTESIAN_POINT('',(119.469728923554,17.,-96.));
#1317=CARTESIAN_POINT('',(91.3,17.,-101.124264068712));
#1318=CARTESIAN_POINT('',(91.3,17.,-101.124264068712));
#1319=CARTESIAN_POINT('',(89.1242640540409,17.,-103.300000014671));
#1320=CARTESIAN_POINT('',(89.1242640540409,17.,-103.300000014671));
#1321=CARTESIAN_POINT('',(75.,17.,-103.299998347117));
#1322=CARTESIAN_POINT('',(81.0926406871193,17.,-135.));
#1323=CARTESIAN_POINT('Origin',(78.9926406871193,17.,-135.));
#1324=CARTESIAN_POINT('',(100.734864461777,17.,-115.249998927116));
#1325=CARTESIAN_POINT('',(96.234864461777,17.,-115.249998927116));
#1326=CARTESIAN_POINT('',(97.234864461777,17.,-115.249998927116));
#1327=CARTESIAN_POINT('',(100.734864461777,17.,-123.749998927116));
#1328=CARTESIAN_POINT('',(100.734864461777,17.,-115.249998927116));
#1329=CARTESIAN_POINT('',(96.234864461777,17.,-123.749998927116));
#1330=CARTESIAN_POINT('',(100.734864461777,17.,-123.749998927116));
#1331=CARTESIAN_POINT('',(96.234864461777,17.,-115.249998927116));
#1332=CARTESIAN_POINT('Origin',(116.999997384846,15.,-96.));
#1333=CARTESIAN_POINT('',(116.999997384846,15.,-102.875608200108));
#1334=CARTESIAN_POINT('',(116.999997384846,15.,-96.));
#1335=CARTESIAN_POINT('',(116.999997384846,15.,-142.999996803701));
#1336=CARTESIAN_POINT('',(116.999997384846,17.,-102.875608200108));
#1337=CARTESIAN_POINT('',(116.999997384846,15.,-102.875608200108));
#1338=CARTESIAN_POINT('',(116.999997384846,17.,-96.));
#1339=CARTESIAN_POINT('',(116.999997384846,17.,-107.7500025));
#1340=CARTESIAN_POINT('',(116.999997384846,15.,-96.));
#1341=CARTESIAN_POINT('Origin',(113.999997384846,15.,-102.118145443415));
#1342=CARTESIAN_POINT('',(113.999997384846,15.,-96.));
#1343=CARTESIAN_POINT('',(113.999997384846,15.,-102.118145443415));
#1344=CARTESIAN_POINT('',(113.999997384846,15.,-96.));
#1345=CARTESIAN_POINT('',(113.999997384846,15.,-96.));
#1346=CARTESIAN_POINT('',(113.999997384846,15.,-102.118145443415));
#1347=CARTESIAN_POINT('Origin',(115.96,15.,-104.7));
#1348=CARTESIAN_POINT('',(113.999997384846,15.,-107.281854556585));
#1349=CARTESIAN_POINT('Origin',(115.96,15.,-104.7));
#1350=CARTESIAN_POINT('',(113.999997384846,15.,-107.281854556585));
#1351=CARTESIAN_POINT('Origin',(113.999997384846,15.,-105.453916274257));
#1352=CARTESIAN_POINT('',(113.999997384846,15.,-105.453916274257));
#1353=CARTESIAN_POINT('',(113.999997384846,15.,-96.));
#1354=CARTESIAN_POINT('',(113.999997384846,17.,-105.453916274257));
#1355=CARTESIAN_POINT('',(113.999997384846,17.,-112.476960637129));
#1356=CARTESIAN_POINT('',(113.999997384846,15.,-105.453916274257));
#1357=CARTESIAN_POINT('Origin',(115.96,15.,-104.7));
#1358=CARTESIAN_POINT('Origin',(115.96,15.,-104.7));
#1359=CARTESIAN_POINT('',(116.999997384846,15.,-96.));
#1360=CARTESIAN_POINT('Origin',(116.999997384846,15.,-107.770177298183));
#1361=CARTESIAN_POINT('',(116.999997384846,15.,-142.999996803701));
#1362=CARTESIAN_POINT('',(116.999997384846,15.,-107.770177298183));
#1363=CARTESIAN_POINT('',(116.999997384846,15.,-142.999996803701));
#1364=CARTESIAN_POINT('',(116.999997384846,17.,-142.999996803701));
#1365=CARTESIAN_POINT('',(116.999997384846,15.,-142.999996803701));
#1366=CARTESIAN_POINT('',(116.999997384846,17.,-107.770177298183));
#1367=CARTESIAN_POINT('',(116.999997384846,17.,-113.635091149092));
#1368=CARTESIAN_POINT('',(116.999997384846,15.,-107.770177298183));
#1369=CARTESIAN_POINT('Origin',(115.96,15.,-104.7));
#1370=CARTESIAN_POINT('Origin',(115.96,15.,-104.7));
#1371=CARTESIAN_POINT('Origin',(115.96,17.,-104.7));
#1372=CARTESIAN_POINT('',(113.999997384846,15.,-107.281854556585));
#1373=CARTESIAN_POINT('Origin',(113.999997384846,15.,-142.999996803701));
#1374=CARTESIAN_POINT('',(113.999997384846,15.,-142.999996803701));
#1375=CARTESIAN_POINT('',(113.999997384846,15.,-96.));
#1376=CARTESIAN_POINT('',(113.999997384846,15.,-142.999996803701));
#1377=CARTESIAN_POINT('Origin',(115.96,15.,-122.229228276049));
#1378=CARTESIAN_POINT('',(113.999997384846,15.,-142.999996803701));
#1379=CARTESIAN_POINT('Origin',(97.234864461777,17.,-119.500005));
#1380=CARTESIAN_POINT('',(118.06,17.,-104.7));
#1381=CARTESIAN_POINT('Origin',(115.96,17.,-104.7));
#1382=CARTESIAN_POINT('',(116.999997384846,17.,-106.524391799892));
#1383=CARTESIAN_POINT('Origin',(115.96,17.,-104.7));
#1384=CARTESIAN_POINT('Origin',(115.96,17.,-104.7));
#1385=CARTESIAN_POINT('',(119.469728923554,17.,-143.));
#1386=CARTESIAN_POINT('',(119.469728923554,17.,-143.));
#1387=CARTESIAN_POINT('',(119.469728923554,17.,-96.));
#1388=CARTESIAN_POINT('',(119.469728923554,17.,-150.));
#1389=CARTESIAN_POINT('',(119.469728923554,17.,-96.));
#1390=CARTESIAN_POINT('Origin',(92.734864461777,42.,-119.499998927116));
#1391=CARTESIAN_POINT('',(93.734864461777,42.,-109.999998927116));
#1392=CARTESIAN_POINT('',(93.734864461777,42.,-128.999997116625));
#1393=CARTESIAN_POINT('',(93.734864461777,42.,-126.999998927116));
#1394=CARTESIAN_POINT('',(91.734864461777,42.,-128.999998927116));
#1395=CARTESIAN_POINT('',(102.734864461777,42.,-128.999998927116));
#1396=CARTESIAN_POINT('',(91.734864461777,42.,-109.999998927116));
#1397=CARTESIAN_POINT('',(91.734864461777,42.,-128.999998927116));
#1398=CARTESIAN_POINT('',(91.734864461777,42.,-109.999998927116));
#1399=CARTESIAN_POINT('Origin',(102.734864461777,19.,-128.999998927116));
#1400=CARTESIAN_POINT('',(102.734864461777,27.,-128.999998927116));
#1401=CARTESIAN_POINT('',(93.734864461777,27.,-128.999997116625));
#1402=CARTESIAN_POINT('',(102.734864461777,27.,-128.999998927116));
#1403=CARTESIAN_POINT('',(102.734864461777,19.,-128.999998927116));
#1404=CARTESIAN_POINT('',(102.734864461777,19.,-128.999998927116));
#1405=CARTESIAN_POINT('',(91.734864461777,19.,-128.999998927116));
#1406=CARTESIAN_POINT('',(99.984864461777,19.,-128.999998927116));
#1407=CARTESIAN_POINT('',(91.734864461777,19.,-128.999998927116));
#1408=CARTESIAN_POINT('',(93.734864461777,17.,-128.999997116625));
#1409=CARTESIAN_POINT('Origin',(97.234864461777,27.,-119.499998927116));
#1410=CARTESIAN_POINT('',(93.734864461777,27.,-126.999998927116));
#1411=CARTESIAN_POINT('',(93.734864461777,27.,-114.749998927116));
#1412=CARTESIAN_POINT('',(100.734864461777,27.,-126.999998927116));
#1413=CARTESIAN_POINT('',(100.734864461777,27.,-126.999998927116));
#1414=CARTESIAN_POINT('',(100.734864461777,27.,-111.999998927116));
#1415=CARTESIAN_POINT('',(100.734864461777,27.,-115.249998927116));
#1416=CARTESIAN_POINT('',(93.734864461777,27.,-111.999998927116));
#1417=CARTESIAN_POINT('',(93.734864461777,27.,-111.999998927116));
#1418=CARTESIAN_POINT('',(93.734864461777,27.,-109.999998927116));
#1419=CARTESIAN_POINT('',(93.734864461777,27.,-114.749998927116));
#1420=CARTESIAN_POINT('',(102.734864461777,27.,-109.999998927116));
#1421=CARTESIAN_POINT('',(91.734864461777,27.,-109.999998927116));
#1422=CARTESIAN_POINT('',(102.734864461777,27.,-109.999998927116));
#1423=CARTESIAN_POINT('Origin',(93.734864461777,19.,-126.999998927116));
#1424=CARTESIAN_POINT('',(100.734864461777,19.,-126.999998927116));
#1425=CARTESIAN_POINT('',(93.734864461777,19.,-126.999998927116));
#1426=CARTESIAN_POINT('',(95.484864461777,19.,-126.999998927116));
#1427=CARTESIAN_POINT('',(100.734864461777,19.,-126.999998927116));
#1428=CARTESIAN_POINT('',(93.734864461777,19.,-126.999998927116));
#1429=CARTESIAN_POINT('Origin',(93.734864461777,19.,-111.999998927116));
#1430=CARTESIAN_POINT('',(93.734864461777,19.,-111.999998927116));
#1431=CARTESIAN_POINT('',(93.734864461777,19.,-115.750001963558));
#1432=CARTESIAN_POINT('',(93.734864461777,17.,-109.999998927116));
#1433=CARTESIAN_POINT('',(93.734864461777,19.,-111.999998927116));
#1434=CARTESIAN_POINT('Origin',(100.734864461777,19.,-111.999998927116));
#1435=CARTESIAN_POINT('',(100.734864461777,19.,-111.999998927116));
#1436=CARTESIAN_POINT('',(98.984864461777,19.,-111.999998927116));
#1437=CARTESIAN_POINT('',(100.734864461777,19.,-111.999998927116));
#1438=CARTESIAN_POINT('Origin',(102.734864461777,19.,-109.999998927116));
#1439=CARTESIAN_POINT('',(102.734864461777,19.,-109.999998927116));
#1440=CARTESIAN_POINT('',(102.734864461777,19.,-114.750001963558));
#1441=CARTESIAN_POINT('',(102.734864461777,19.,-109.999998927116));
#1442=CARTESIAN_POINT('Origin',(91.734864461777,19.,-109.999998927116));
#1443=CARTESIAN_POINT('',(91.734864461777,19.,-109.999998927116));
#1444=CARTESIAN_POINT('',(94.484864461777,19.,-109.999998927116));
#1445=CARTESIAN_POINT('',(91.734864461777,19.,-109.999998927116));
#1446=CARTESIAN_POINT('Origin',(91.734864461777,19.,-128.999998927116));
#1447=CARTESIAN_POINT('',(91.734864461777,19.,-124.250001963558));
#1448=CARTESIAN_POINT('Origin',(97.234864461777,19.,-119.500005));
#1449=CARTESIAN_POINT('',(75.,19.,-143.));
#1450=CARTESIAN_POINT('',(75.,19.,-103.299998347117));
#1451=CARTESIAN_POINT('',(75.,19.,-96.));
#1452=CARTESIAN_POINT('',(81.,19.,-103.299998347117));
#1453=CARTESIAN_POINT('',(75.,19.,-103.299998347117));
#1454=CARTESIAN_POINT('',(89.1242640540409,19.,-103.300000014671));
#1455=CARTESIAN_POINT('',(75.,19.,-103.299998347117));
#1456=CARTESIAN_POINT('',(91.3,19.,-101.124264068712));
#1457=CARTESIAN_POINT('',(89.1242640540409,19.,-103.300000014671));
#1458=CARTESIAN_POINT('',(91.3,19.,-96.));
#1459=CARTESIAN_POINT('',(91.3,19.,-101.124264068712));
#1460=CARTESIAN_POINT('',(119.469728923554,19.,-96.));
#1461=CARTESIAN_POINT('',(119.469728923554,19.,-96.));
#1462=CARTESIAN_POINT('',(119.469728923554,19.,-143.));
#1463=CARTESIAN_POINT('',(119.469728923554,19.,-150.));
#1464=CARTESIAN_POINT('',(116.999997384846,19.,-142.999996803701));
#1465=CARTESIAN_POINT('',(119.469728923554,19.,-143.));
#1466=CARTESIAN_POINT('',(113.999997384846,19.,-142.999996803701));
#1467=CARTESIAN_POINT('',(113.999997384846,19.,-142.999996803701));
#1468=CARTESIAN_POINT('',(119.469728923554,19.,-143.));
#1469=CARTESIAN_POINT('',(118.06,19.,-104.7));
#1470=CARTESIAN_POINT('Origin',(115.96,19.,-104.7));
#1471=CARTESIAN_POINT('',(81.0926406871193,19.,-135.));
#1472=CARTESIAN_POINT('Origin',(78.9926406871193,19.,-135.));
#1473=CARTESIAN_POINT('Origin',(115.96,17.,-104.7));
#1474=CARTESIAN_POINT('',(118.06,17.,-104.7));
#1475=CARTESIAN_POINT('Origin',(78.9926406871193,17.,-135.));
#1476=CARTESIAN_POINT('',(81.0926406871193,17.,-135.));
#1477=CARTESIAN_POINT('Origin',(100.734864461777,17.,-123.749998927116));
#1478=CARTESIAN_POINT('',(100.734864461777,19.,-115.249998927116));
#1479=CARTESIAN_POINT('',(100.734864461777,17.,-115.249998927116));
#1480=CARTESIAN_POINT('',(100.734864461777,19.,-123.250001963558));
#1481=CARTESIAN_POINT('',(100.734864461777,19.,-123.749998927116));
#1482=CARTESIAN_POINT('',(100.734864461777,19.,-123.250001963558));
#1483=CARTESIAN_POINT('',(100.734864461777,17.,-123.749998927116));
#1484=CARTESIAN_POINT('Origin',(96.234864461777,17.,-123.749998927116));
#1485=CARTESIAN_POINT('',(96.234864461777,19.,-123.749998927116));
#1486=CARTESIAN_POINT('',(100.734864461777,19.,-123.749998927116));
#1487=CARTESIAN_POINT('',(96.234864461777,17.,-123.749998927116));
#1488=CARTESIAN_POINT('Origin',(96.234864461777,17.,-115.249998927116));
#1489=CARTESIAN_POINT('',(96.234864461777,19.,-115.249998927116));
#1490=CARTESIAN_POINT('',(96.234864461777,19.,-115.249998927116));
#1491=CARTESIAN_POINT('',(96.234864461777,17.,-115.249998927116));
#1492=CARTESIAN_POINT('Origin',(100.734864461777,17.,-115.249998927116));
#1493=CARTESIAN_POINT('',(97.234864461777,19.,-115.249998927116));
#1494=CARTESIAN_POINT('Origin',(119.469728923554,17.,-143.));
#1495=CARTESIAN_POINT('',(75.,17.,-143.));
#1496=CARTESIAN_POINT('',(119.469728923554,17.,-143.));
#1497=CARTESIAN_POINT('Origin',(119.469728923554,17.,-96.));
#1498=CARTESIAN_POINT('',(119.469728923554,17.,-96.));
#1499=CARTESIAN_POINT('Origin',(91.3,17.,-96.));
#1500=CARTESIAN_POINT('',(91.3,17.,-96.));
#1501=CARTESIAN_POINT('Origin',(91.3,17.,-101.124264068712));
#1502=CARTESIAN_POINT('',(91.3,17.,-101.124264068712));
#1503=CARTESIAN_POINT('Origin',(89.1242640540409,17.,-103.300000014671));
#1504=CARTESIAN_POINT('',(89.1242640540409,17.,-103.300000014671));
#1505=CARTESIAN_POINT('Origin',(80.9999999999999,17.,-103.299999055496));
#1506=CARTESIAN_POINT('',(81.,17.,-103.299998347117));
#1507=CARTESIAN_POINT('Origin',(75.,17.,-103.299998347117));
#1508=CARTESIAN_POINT('',(75.,17.,-103.299998347117));
#1509=CARTESIAN_POINT('Origin',(75.,17.,-143.));
#1510=CARTESIAN_POINT('Origin',(97.234864461777,19.,-119.500005));
#1511=CARTESIAN_POINT('Origin',(115.96,15.,-104.7));
#1512=CARTESIAN_POINT('',(113.999997384846,15.,-105.097982095816));
#1513=CARTESIAN_POINT('',(113.999997384846,15.,-105.453916274257));
#1514=CARTESIAN_POINT('',(113.999997384846,15.,-96.));
#1515=CARTESIAN_POINT('',(116.999997384846,15.,-106.524391799892));
#1516=CARTESIAN_POINT('Origin',(115.96,15.,-104.7));
#1517=CARTESIAN_POINT('',(116.999997384846,15.,-106.408332520325));
#1518=CARTESIAN_POINT('',(116.999997384846,15.,-142.999996803701));
#1519=CARTESIAN_POINT('Origin',(115.96,15.,-104.7));
#1520=CARTESIAN_POINT('Origin',(115.96,17.,-104.7));
#1521=CARTESIAN_POINT('',(113.999997384846,17.,-105.453916274257));
#1522=CARTESIAN_POINT('',(113.999997384846,17.,-105.097982095816));
#1523=CARTESIAN_POINT('',(113.999997384846,17.,-96.));
#1524=CARTESIAN_POINT('',(116.999997384846,17.,-106.408332520325));
#1525=CARTESIAN_POINT('Origin',(115.96,17.,-104.7));
#1526=CARTESIAN_POINT('',(116.999997384846,17.,-106.524391799892));
#1527=CARTESIAN_POINT('',(116.999997384846,17.,-142.999996803701));
#1528=CARTESIAN_POINT('Origin',(115.96,17.,-104.7));
#1529=CARTESIAN_POINT('Origin',(113.999997384846,15.,-105.453916274257));
#1530=CARTESIAN_POINT('',(113.999997384846,15.,-105.097982095816));
#1531=CARTESIAN_POINT('',(113.999997384846,15.,-105.453916274257));
#1532=CARTESIAN_POINT('Origin',(115.96,15.,-104.7));
#1533=CARTESIAN_POINT('',(116.999997384846,15.,-106.408332520325));
#1534=CARTESIAN_POINT('Origin',(116.999997384846,15.,-106.408332520325));
#1535=CARTESIAN_POINT('',(116.999997384846,15.,-106.524391799892));
#1536=CARTESIAN_POINT('Origin',(115.96,15.,-104.7));
#1537=UNCERTAINTY_MEASURE_WITH_UNIT(LENGTH_MEASURE(0.01),#1541,
'DISTANCE_ACCURACY_VALUE',
'Maximum model space distance between geometric entities at asserted c
onnectivities');
#1538=UNCERTAINTY_MEASURE_WITH_UNIT(LENGTH_MEASURE(0.01),#1541,
'DISTANCE_ACCURACY_VALUE',
'Maximum model space distance between geometric entities at asserted c
onnectivities');
#1539=(
GEOMETRIC_REPRESENTATION_CONTEXT(3)
GLOBAL_UNCERTAINTY_ASSIGNED_CONTEXT((#1537))
GLOBAL_UNIT_ASSIGNED_CONTEXT((#1541,#1543,#1544))
REPRESENTATION_CONTEXT('','3D')
);
#1540=(
GEOMETRIC_REPRESENTATION_CONTEXT(3)
GLOBAL_UNCERTAINTY_ASSIGNED_CONTEXT((#1538))
GLOBAL_UNIT_ASSIGNED_CONTEXT((#1541,#1543,#1544))
REPRESENTATION_CONTEXT('','3D')
);
#1541=(
LENGTH_UNIT()
NAMED_UNIT(*)
SI_UNIT(.MILLI.,.METRE.)
);
#1542=(
LENGTH_UNIT()
NAMED_UNIT(*)
SI_UNIT($,.METRE.)
);
#1543=(
NAMED_UNIT(*)
PLANE_ANGLE_UNIT()
SI_UNIT($,.RADIAN.)
);
#1544=(
NAMED_UNIT(*)
SI_UNIT($,.STERADIAN.)
SOLID_ANGLE_UNIT()
);
#1545=SHAPE_DEFINITION_REPRESENTATION(#1546,#1547);
#1546=PRODUCT_DEFINITION_SHAPE('',$,#1549);
#1547=SHAPE_REPRESENTATION('',(#959),#1539);
#1548=PRODUCT_DEFINITION_CONTEXT('part definition',#1553,'design');
#1549=PRODUCT_DEFINITION('2026-05-07-11-46-58-151',
'Vastuv\X\F5tja kinnitus',#1550,#1548);
#1550=PRODUCT_DEFINITION_FORMATION('',$,#1555);
#1551=PRODUCT_RELATED_PRODUCT_CATEGORY('Vastuv\X\F5tja kinnitus',
'Vastuv\X\F5tja kinnitus',(#1555));
#1552=APPLICATION_PROTOCOL_DEFINITION('international standard',
'automotive_design',2009,#1553);
#1553=APPLICATION_CONTEXT(
'Core Data for Automotive Mechanical Design Process');
#1554=PRODUCT_CONTEXT('part definition',#1553,'mechanical');
#1555=PRODUCT('2026-05-07-11-46-58-151','Vastuv\X\F5tja kinnitus',$,(#1554));
#1556=PRESENTATION_STYLE_ASSIGNMENT((#1558));
#1557=PRESENTATION_STYLE_ASSIGNMENT((#1559));
#1558=SURFACE_STYLE_USAGE(.BOTH.,#1560);
#1559=SURFACE_STYLE_USAGE(.BOTH.,#1561);
#1560=SURFACE_SIDE_STYLE('',(#1562));
#1561=SURFACE_SIDE_STYLE('',(#1563));
#1562=SURFACE_STYLE_FILL_AREA(#1564);
#1563=SURFACE_STYLE_FILL_AREA(#1565);
#1564=FILL_AREA_STYLE('Steel - Satin',(#1566));
#1565=FILL_AREA_STYLE('EPX 82 (with Carbon M2 M3 L1 3D Printers)',(#1567));
#1566=FILL_AREA_STYLE_COLOUR('Steel - Satin',#1568);
#1567=FILL_AREA_STYLE_COLOUR(
'EPX 82 (with Carbon M2 M3 L1 3D Printers)',#1569);
#1568=COLOUR_RGB('Steel - Satin',0.627450980392157,0.627450980392157,0.627450980392157);
#1569=COLOUR_RGB('EPX 82 (with Carbon M2 M3 L1 3D Printers)',0.247058823529412,
0.247058823529412,0.247058823529412);
ENDSEC;
END-ISO-10303-21;
