%TF.GenerationSoftware,Altium Limited,Altium Designer,26.2.0 (7)*%
G04 Layer_Physical_Order=4*
G04 Layer_Color=16711680*
%FSLAX45Y45*%
%MOMM*%
%TF.SameCoordinates,00FDB721-44CF-4368-98B2-66699BB62886*%
%TF.FilePolarity,Positive*%
%TF.FileFunction,Copper,L4,Bot,Signal*%
%TF.Part,Single*%
G01*
G75*
%TA.AperFunction,Conductor*%
%ADD34C,0.30000*%
%ADD35C,0.50000*%
%ADD37C,0.20000*%
%TA.AperFunction,ComponentPad*%
%ADD38C,3.00000*%
%ADD39C,1.50000*%
%ADD40C,0.65000*%
%ADD41C,1.20000*%
%ADD42C,1.60000*%
%ADD43C,1.55000*%
G04:AMPARAMS|DCode=44|XSize=0.9mm|YSize=2.4mm|CornerRadius=0.45mm|HoleSize=0mm|Usage=FLASHONLY|Rotation=0.000|XOffset=0mm|YOffset=0mm|HoleType=Round|Shape=RoundedRectangle|*
%AMROUNDEDRECTD44*
21,1,0.90000,1.50000,0,0,0.0*
21,1,0.00000,2.40000,0,0,0.0*
1,1,0.90000,0.00000,-0.75000*
1,1,0.90000,0.00000,-0.75000*
1,1,0.90000,0.00000,0.75000*
1,1,0.90000,0.00000,0.75000*
%
%ADD44ROUNDEDRECTD44*%
G04:AMPARAMS|DCode=45|XSize=0.9mm|YSize=1.7mm|CornerRadius=0.45mm|HoleSize=0mm|Usage=FLASHONLY|Rotation=0.000|XOffset=0mm|YOffset=0mm|HoleType=Round|Shape=RoundedRectangle|*
%AMROUNDEDRECTD45*
21,1,0.90000,0.80000,0,0,0.0*
21,1,0.00000,1.70000,0,0,0.0*
1,1,0.90000,0.00000,-0.40000*
1,1,0.90000,0.00000,-0.40000*
1,1,0.90000,0.00000,0.40000*
1,1,0.90000,0.00000,0.40000*
%
%ADD45ROUNDEDRECTD45*%
%ADD46R,1.55000X1.55000*%
%ADD47R,1.60000X1.60000*%
%TA.AperFunction,ViaPad*%
%ADD48C,0.70000*%
G36*
X11201604Y7244104D02*
X11201604Y4251491D01*
X11185604Y4244864D01*
X11030517Y4399950D01*
X11031026Y4400831D01*
X11037500Y4424993D01*
Y4450007D01*
X11031026Y4474168D01*
X11018519Y4495831D01*
X11000831Y4513519D01*
X10979169Y4526025D01*
X10955007Y4532500D01*
X10929993D01*
X10905832Y4526025D01*
X10884169Y4513519D01*
X10866482Y4495831D01*
X10853975Y4474168D01*
X10850782Y4462255D01*
X10834218D01*
X10831026Y4474168D01*
X10818519Y4495831D01*
X10800831Y4513519D01*
X10779169Y4526025D01*
X10755007Y4532500D01*
X10729993D01*
X10705832Y4526025D01*
X10684169Y4513519D01*
X10666482Y4495831D01*
X10653975Y4474168D01*
X10647500Y4450007D01*
Y4424993D01*
X10653975Y4400831D01*
X10666482Y4379169D01*
X10669259Y4376392D01*
X10662631Y4360392D01*
X10595947D01*
X10549419Y4406919D01*
X10542804Y4411340D01*
X10535000Y4412892D01*
X10430001D01*
X10430000Y4412892D01*
X10422196Y4411340D01*
X10415581Y4406919D01*
X10415580Y4406919D01*
X10378081Y4369419D01*
X10373660Y4362804D01*
X10372108Y4355000D01*
Y4252500D01*
X10373660Y4244697D01*
X10378081Y4238081D01*
X10378081Y4238080D01*
X10451831Y4164331D01*
X10458447Y4159910D01*
X10466250Y4158358D01*
X10635303D01*
X10663081Y4130581D01*
X10667808Y4127422D01*
X10670405Y4121635D01*
X10672336Y4109322D01*
X10662160Y4099147D01*
X10648942Y4076253D01*
X10642100Y4050718D01*
Y4050200D01*
X10742500D01*
Y4037500D01*
X10755200D01*
Y3937100D01*
X10755718D01*
X10781253Y3943942D01*
X10804147Y3957160D01*
X10822840Y3975853D01*
X10836058Y3998747D01*
X10837013Y4002312D01*
X10853578Y4002312D01*
X10853975Y4000831D01*
X10866482Y3979169D01*
X10884169Y3961481D01*
X10905832Y3948974D01*
X10929993Y3942500D01*
X10955007D01*
X10979169Y3948974D01*
X11000831Y3961481D01*
X11010814Y3971464D01*
X11026814Y3964836D01*
Y3887282D01*
X10962718Y3823186D01*
X10517282D01*
X10372734Y3967734D01*
X10369715Y3969751D01*
X10362500Y3975470D01*
Y4101627D01*
X10337394Y4126733D01*
X10342500Y4139060D01*
Y4160940D01*
X10334127Y4181155D01*
X10318655Y4196627D01*
X10298440Y4205000D01*
X10297616Y4206234D01*
X10305000Y4224060D01*
Y4245940D01*
X10296627Y4266155D01*
X10281155Y4281626D01*
X10277500Y4283141D01*
Y4461560D01*
X10277500Y4461560D01*
Y4483440D01*
X10277500Y4483441D01*
Y4717500D01*
X10277500Y4717500D01*
X10277500D01*
X10285439Y4729972D01*
X10395234Y4839766D01*
X10402969Y4851344D01*
X10405686Y4865000D01*
Y5029608D01*
X10409101Y5033035D01*
X10421686Y5040267D01*
X10425000Y5039608D01*
X10664994D01*
X10671621Y5023608D01*
X10662160Y5014147D01*
X10648942Y4991253D01*
X10642100Y4965718D01*
Y4965200D01*
X10742500D01*
Y4952500D01*
X10755200D01*
Y4852100D01*
X10755718D01*
X10781253Y4858942D01*
X10804147Y4872160D01*
X10822840Y4890853D01*
X10836058Y4913747D01*
X10837013Y4917312D01*
X10853578Y4917312D01*
X10853974Y4915831D01*
X10866481Y4894169D01*
X10884169Y4876481D01*
X10905832Y4863974D01*
X10929993Y4857500D01*
X10955007D01*
X10979169Y4863974D01*
X11000831Y4876481D01*
X11018519Y4894169D01*
X11031026Y4915831D01*
X11037500Y4939993D01*
Y4965007D01*
X11031026Y4989168D01*
X11018519Y5010831D01*
X11000831Y5028519D01*
X10979169Y5041025D01*
X10967255Y5044218D01*
Y5060782D01*
X10979169Y5063974D01*
X11000831Y5076481D01*
X11018519Y5094169D01*
X11031026Y5115832D01*
X11032756Y5122289D01*
X11087734Y5177267D01*
X11095469Y5188844D01*
X11098186Y5202500D01*
Y5617744D01*
X11095469Y5631401D01*
X11087734Y5642978D01*
X10712978Y6017734D01*
X10701401Y6025469D01*
X10687744Y6028186D01*
X10672930D01*
X10666807Y6042968D01*
X10681919Y6058080D01*
X10686339Y6064696D01*
X10687892Y6072499D01*
Y6355000D01*
X10686339Y6362804D01*
X10681919Y6369419D01*
X10675303Y6373840D01*
X10667500Y6375392D01*
X10507341D01*
X10496744Y6377500D01*
X10463257D01*
X10452660Y6375392D01*
X10312501D01*
X10312500Y6375392D01*
X10304696Y6373840D01*
X10298081Y6369419D01*
X10298080Y6369419D01*
X10189053Y6260392D01*
X9602500D01*
X9602186Y6260650D01*
Y6581727D01*
X9615621Y6589484D01*
X9630516Y6604379D01*
X9641048Y6622621D01*
X9646500Y6642968D01*
Y6664032D01*
X9641048Y6684379D01*
X9630516Y6702621D01*
X9615621Y6717516D01*
X9597379Y6728048D01*
X9577032Y6733500D01*
X9555968D01*
X9535621Y6728048D01*
X9517379Y6717516D01*
X9507314Y6729347D01*
X9621036Y6843068D01*
X9640400D01*
X9644066Y6843798D01*
X9644379Y6843484D01*
X9662621Y6832952D01*
X9682968Y6827500D01*
X9704032D01*
X9724379Y6832952D01*
X9742621Y6843484D01*
X9757516Y6858379D01*
X9768048Y6876621D01*
X9773500Y6896968D01*
Y6918032D01*
X9768048Y6938379D01*
X9757516Y6956621D01*
X9742621Y6971516D01*
X9724379Y6982048D01*
X9704032Y6987500D01*
X9682968D01*
X9667983Y6983485D01*
X9586234Y7065234D01*
X9574656Y7072969D01*
X9561000Y7075686D01*
X8718000D01*
X8704344Y7072969D01*
X8692767Y7065234D01*
X8611018Y6983485D01*
X8596032Y6987500D01*
X8574968D01*
X8554621Y6982048D01*
X8536379Y6971516D01*
X8521484Y6956621D01*
X8510952Y6938379D01*
X8505500Y6918032D01*
Y6896968D01*
X8510952Y6876621D01*
X8521484Y6858379D01*
X8536379Y6843484D01*
X8549814Y6835727D01*
Y6683625D01*
X8533815Y6681519D01*
X8533048Y6684379D01*
X8522516Y6702621D01*
X8507621Y6717516D01*
X8489379Y6728048D01*
X8469032Y6733500D01*
X8447968D01*
X8427621Y6728048D01*
X8409379Y6717516D01*
X8394484Y6702621D01*
X8383952Y6684379D01*
X8378500Y6664032D01*
Y6642968D01*
X8383952Y6622621D01*
X8394484Y6604379D01*
X8409379Y6589484D01*
X8427621Y6578952D01*
X8447968Y6573500D01*
X8467076D01*
X8486582Y6553994D01*
Y5544549D01*
X8410218Y5468186D01*
X7167282D01*
X7126734Y5508734D01*
X7115156Y5516469D01*
X7101500Y5519186D01*
X7079639D01*
X7075352Y5535186D01*
X7087437Y5542163D01*
X7103337Y5558063D01*
X7114580Y5577537D01*
X7120009Y5597800D01*
X7035000D01*
X6949990D01*
X6955420Y5577537D01*
X6966663Y5558063D01*
X6982563Y5542163D01*
X6994648Y5535186D01*
X6990361Y5519186D01*
X6852773D01*
X6845016Y5532621D01*
X6830121Y5547516D01*
X6811879Y5558048D01*
X6791532Y5563500D01*
X6770468D01*
X6750121Y5558048D01*
X6731879Y5547516D01*
X6716984Y5532621D01*
X6706452Y5514379D01*
X6701000Y5494032D01*
Y5472968D01*
X6706452Y5452621D01*
X6716984Y5434379D01*
X6731879Y5419484D01*
X6750121Y5408952D01*
X6770468Y5403500D01*
X6791532D01*
X6811879Y5408952D01*
X6830121Y5419484D01*
X6845016Y5434379D01*
X6852773Y5447814D01*
X7004874D01*
X7006981Y5431814D01*
X7004121Y5431048D01*
X6985879Y5420516D01*
X6970984Y5405621D01*
X6960452Y5387379D01*
X6955000Y5367032D01*
Y5345968D01*
X6960452Y5325621D01*
X6970984Y5307379D01*
X6985879Y5292484D01*
X7004121Y5281952D01*
X7024468Y5276500D01*
X7045532D01*
X7065879Y5281952D01*
X7084121Y5292484D01*
X7099016Y5307379D01*
X7109548Y5325621D01*
X7115000Y5345968D01*
Y5347454D01*
X7351081D01*
X7357204Y5332672D01*
X7162718Y5138186D01*
X7106773D01*
X7099016Y5151621D01*
X7084121Y5166516D01*
X7065879Y5177048D01*
X7045532Y5182500D01*
X7024468D01*
X7004121Y5177048D01*
X6985879Y5166516D01*
X6970984Y5151621D01*
X6960452Y5133379D01*
X6955000Y5113032D01*
Y5091968D01*
X6960452Y5071621D01*
X6970984Y5053379D01*
X6985879Y5038484D01*
X7004121Y5027952D01*
X7024468Y5022500D01*
X7045532D01*
X7065879Y5027952D01*
X7084121Y5038484D01*
X7099016Y5053379D01*
X7106773Y5066814D01*
X7177500D01*
X7191156Y5069531D01*
X7202734Y5077266D01*
X7412281Y5286814D01*
X8060219D01*
X8241814Y5105218D01*
Y4701460D01*
X8225814Y4692203D01*
X8213028Y4697500D01*
X8191148D01*
X8170933Y4689127D01*
X8155461Y4673655D01*
X8147088Y4653440D01*
Y4637967D01*
X8092266Y4583146D01*
X8089186Y4578535D01*
X8073186Y4583389D01*
Y4622500D01*
X8070469Y4636156D01*
X8062734Y4647734D01*
X8007887Y4702580D01*
X8000092Y4707789D01*
X7996627Y4716155D01*
X7981155Y4731627D01*
X7960940Y4740000D01*
X7939060D01*
X7918845Y4731627D01*
X7903374Y4716155D01*
X7895000Y4695940D01*
Y4674060D01*
X7903374Y4653845D01*
X7917219Y4640000D01*
X7903374Y4626155D01*
X7895000Y4605940D01*
Y4584060D01*
X7903374Y4563845D01*
X7914314Y4552904D01*
Y4254782D01*
X7850218Y4190686D01*
X7781734D01*
X7775107Y4206686D01*
X7787520Y4219099D01*
X7800685Y4241902D01*
X7807500Y4267335D01*
Y4293665D01*
X7800685Y4319098D01*
X7787520Y4341901D01*
X7768901Y4360520D01*
X7746098Y4373685D01*
X7720665Y4380500D01*
X7694335D01*
X7668902Y4373685D01*
X7666290Y4372177D01*
X7568186Y4470281D01*
Y4602442D01*
X7582968Y4608565D01*
X7615823Y4575710D01*
X7614315Y4573098D01*
X7607500Y4547665D01*
Y4521335D01*
X7614315Y4495902D01*
X7627480Y4473099D01*
X7646099Y4454480D01*
X7668902Y4441315D01*
X7694335Y4434500D01*
X7720665D01*
X7746098Y4441315D01*
X7768901Y4454480D01*
X7787520Y4473099D01*
X7800685Y4495902D01*
X7807500Y4521335D01*
Y4547665D01*
X7800685Y4573098D01*
X7787520Y4595901D01*
X7768901Y4614520D01*
X7746098Y4627685D01*
X7720665Y4634500D01*
X7694335D01*
X7668902Y4627685D01*
X7666290Y4626177D01*
X7618186Y4674281D01*
Y4706129D01*
X7634186Y4712756D01*
X7642783Y4704159D01*
X7666817Y4690283D01*
X7693624Y4683100D01*
X7694800D01*
Y4788500D01*
Y4893900D01*
X7693624D01*
X7666817Y4886717D01*
X7642783Y4872841D01*
X7634186Y4864244D01*
X7618186Y4870871D01*
Y4942718D01*
X7682967Y5007500D01*
X7698440D01*
X7718655Y5015873D01*
X7734127Y5031345D01*
X7742500Y5051560D01*
Y5059405D01*
X7758500Y5066033D01*
X7762266Y5062266D01*
X7773843Y5054531D01*
X7787500Y5051814D01*
X7940404D01*
X7951345Y5040874D01*
X7971560Y5032500D01*
X7993440D01*
X8013655Y5040874D01*
X8029126Y5056345D01*
X8037500Y5076560D01*
Y5098440D01*
X8029126Y5118655D01*
X8013655Y5134127D01*
X7993440Y5142500D01*
X7971560D01*
X7951345Y5134127D01*
X7940404Y5123186D01*
X7802281D01*
X7767734Y5157734D01*
X7756156Y5165469D01*
X7742500Y5168186D01*
X7605000D01*
X7591344Y5165469D01*
X7579766Y5157734D01*
X7507266Y5085234D01*
X7499531Y5073656D01*
X7496814Y5060000D01*
Y4888500D01*
X7307500D01*
Y4835000D01*
X7232500D01*
X7165831Y4768331D01*
Y4722728D01*
X7161910D01*
X7141695Y4714354D01*
X7126223Y4698883D01*
X7117850Y4678668D01*
Y4656788D01*
X7123609Y4642884D01*
X7122997Y4640267D01*
X7114801Y4628107D01*
X7113982Y4627500D01*
X7094993D01*
X7070832Y4621026D01*
X7049169Y4608519D01*
X7031481Y4590831D01*
X7018975Y4569168D01*
X7012500Y4545007D01*
Y4519993D01*
X7018975Y4495831D01*
X7031481Y4474169D01*
X7049169Y4456481D01*
X7070832Y4443974D01*
X7094993Y4437500D01*
X7120007D01*
X7144169Y4443974D01*
X7165831Y4456481D01*
X7183314Y4473964D01*
X7184273Y4473947D01*
X7199314Y4469527D01*
Y4351073D01*
X7183314Y4344673D01*
X7169147Y4358840D01*
X7146253Y4372058D01*
X7120718Y4378900D01*
X7120200D01*
Y4278500D01*
Y4178100D01*
X7120718D01*
X7146253Y4184942D01*
X7169147Y4198160D01*
X7187840Y4216853D01*
X7192309Y4224594D01*
X7203605Y4226323D01*
X7211390Y4225643D01*
X7307266Y4129766D01*
X7318844Y4122031D01*
X7332500Y4119314D01*
X7338360D01*
X7342894Y4103314D01*
X7327480Y4087901D01*
X7314315Y4065098D01*
X7307500Y4039665D01*
Y4013335D01*
X7314315Y3987902D01*
X7327480Y3965099D01*
Y3833901D01*
X7314315Y3811098D01*
X7307500Y3785665D01*
Y3759335D01*
X7314315Y3733902D01*
X7327480Y3711099D01*
X7346099Y3692480D01*
X7368902Y3679315D01*
X7394335Y3672500D01*
X7420665D01*
X7446098Y3679315D01*
X7468901Y3692480D01*
X7487520Y3711099D01*
X7500685Y3733902D01*
X7507500Y3759335D01*
Y3785665D01*
X7500685Y3811098D01*
X7499177Y3813710D01*
X7547282Y3861814D01*
X7607500D01*
Y3672500D01*
X7807500D01*
Y3861814D01*
X8002500D01*
X8016156Y3864531D01*
X8027733Y3872266D01*
X8130467Y3975000D01*
X8238892D01*
X8243533Y3959000D01*
X8145049Y3860517D01*
X8144168Y3861026D01*
X8120007Y3867500D01*
X8094993D01*
X8070831Y3861026D01*
X8049169Y3848519D01*
X8031481Y3830831D01*
X8018974Y3809168D01*
X8012500Y3785007D01*
Y3759993D01*
X8018974Y3735831D01*
X8031481Y3714169D01*
X8049169Y3696481D01*
X8070831Y3683974D01*
X8094993Y3677500D01*
X8120007D01*
X8144168Y3683974D01*
X8165831Y3696481D01*
X8176850Y3707500D01*
X8292150D01*
X8303169Y3696481D01*
X8324831Y3683974D01*
X8348993Y3677500D01*
X8374007D01*
X8398168Y3683974D01*
X8419831Y3696481D01*
X8437519Y3714169D01*
X8450026Y3735831D01*
X8456500Y3759993D01*
Y3785007D01*
X8450026Y3809168D01*
X8437519Y3830831D01*
X8419831Y3848519D01*
X8398168Y3861026D01*
X8397186Y3861289D01*
Y4386718D01*
X8438651Y4428184D01*
X8457525Y4424430D01*
X8460873Y4416345D01*
X8471814Y4405404D01*
Y4357500D01*
X8474531Y4343844D01*
X8482266Y4332267D01*
X8569766Y4244766D01*
X8581344Y4237031D01*
X8595000Y4234314D01*
X8802904D01*
X8813845Y4223374D01*
X8834060Y4215000D01*
X8855940D01*
X8865814Y4219090D01*
X8881814Y4208399D01*
Y4097636D01*
X8865814Y4086945D01*
X8858440Y4090000D01*
X8836560D01*
X8816345Y4081627D01*
X8800873Y4066155D01*
X8792500Y4045940D01*
Y4024060D01*
X8800873Y4003845D01*
X8816345Y3988374D01*
X8836560Y3980000D01*
X8858440D01*
X8865814Y3983055D01*
X8881814Y3972364D01*
Y3935000D01*
X8884531Y3921344D01*
X8892266Y3909766D01*
X8930131Y3871902D01*
X8920307Y3859098D01*
X8908253Y3866058D01*
X8882718Y3872900D01*
X8882200D01*
Y3785200D01*
X8969900D01*
Y3785718D01*
X8963058Y3811253D01*
X8956098Y3823307D01*
X8968902Y3833131D01*
X9002500Y3799533D01*
Y3784060D01*
X9010874Y3763845D01*
X9026345Y3748374D01*
X9046560Y3740000D01*
X9068440D01*
X9088655Y3748374D01*
X9104127Y3763845D01*
X9112500Y3784060D01*
Y3805940D01*
X9104127Y3826155D01*
X9088655Y3841627D01*
X9084580Y3843314D01*
X9087763Y3859314D01*
X9342164D01*
X9348792Y3843314D01*
X9341159Y3835682D01*
X9327612Y3812218D01*
X9320600Y3786047D01*
Y3785200D01*
X9423499D01*
X9526400D01*
Y3786047D01*
X9519387Y3812218D01*
X9505840Y3835682D01*
X9498208Y3843314D01*
X9504835Y3859314D01*
X9603801D01*
X9610429Y3843314D01*
X9599480Y3832366D01*
X9586645Y3810134D01*
X9580000Y3785336D01*
Y3759664D01*
X9586645Y3734866D01*
X9599480Y3712634D01*
X9617634Y3694481D01*
X9639866Y3681645D01*
X9664664Y3675000D01*
X9690336D01*
X9715133Y3681645D01*
X9737366Y3694481D01*
X9755519Y3712634D01*
X9768355Y3734866D01*
X9775000Y3759664D01*
Y3785336D01*
X9768355Y3810134D01*
X9755519Y3832366D01*
X9744571Y3843314D01*
X9751199Y3859314D01*
X9857801D01*
X9864429Y3843314D01*
X9853480Y3832366D01*
X9840645Y3810134D01*
X9834000Y3785336D01*
Y3759664D01*
X9840645Y3734866D01*
X9853480Y3712634D01*
X9871634Y3694481D01*
X9893866Y3681645D01*
X9918664Y3675000D01*
X9944336D01*
X9969133Y3681645D01*
X9991366Y3694481D01*
X10009519Y3712634D01*
X10022355Y3734866D01*
X10029000Y3759664D01*
Y3785336D01*
X10022355Y3810134D01*
X10009519Y3832366D01*
X9998571Y3843314D01*
X10005199Y3859314D01*
X10088000D01*
Y3675000D01*
X10283000D01*
Y3859314D01*
X10310218D01*
X10454766Y3714766D01*
X10466344Y3707031D01*
X10480000Y3704314D01*
X11037500D01*
X11051156Y3707031D01*
X11062734Y3714766D01*
X11185604Y3837637D01*
X11201604Y3831009D01*
Y3595896D01*
X6553396D01*
Y7244104D01*
X6674194D01*
X6682382Y7213548D01*
X6683880Y7210510D01*
X6684969Y7207303D01*
X6701937Y7177913D01*
X6704170Y7175366D01*
X6706053Y7172549D01*
X6730049Y7148553D01*
X6732866Y7146670D01*
X6735413Y7144437D01*
X6764803Y7127469D01*
X6768011Y7126380D01*
X6771049Y7124882D01*
X6803829Y7116098D01*
X6807210Y7115877D01*
X6810532Y7115216D01*
X6844468D01*
X6847790Y7115877D01*
X6851171Y7116098D01*
X6883951Y7124882D01*
X6886990Y7126380D01*
X6890197Y7127469D01*
X6919587Y7144437D01*
X6922133Y7146670D01*
X6924950Y7148553D01*
X6948947Y7172549D01*
X6950829Y7175366D01*
X6953063Y7177913D01*
X6970031Y7207303D01*
X6971120Y7210511D01*
X6972618Y7213549D01*
X6980805Y7244104D01*
X10774194Y7244103D01*
X10782382Y7213548D01*
X10783880Y7210510D01*
X10784969Y7207303D01*
X10801937Y7177913D01*
X10804170Y7175366D01*
X10806053Y7172549D01*
X10830049Y7148552D01*
X10832867Y7146670D01*
X10835413Y7144437D01*
X10864803Y7127469D01*
X10868011Y7126380D01*
X10871049Y7124882D01*
X10903829Y7116098D01*
X10907210Y7115877D01*
X10910532Y7115216D01*
X10944468D01*
X10947790Y7115877D01*
X10951171Y7116098D01*
X10983951Y7124882D01*
X10986990Y7126380D01*
X10990197Y7127469D01*
X11019587Y7144437D01*
X11022133Y7146670D01*
X11024951Y7148553D01*
X11048947Y7172549D01*
X11050830Y7175367D01*
X11053063Y7177913D01*
X11070031Y7207303D01*
X11071120Y7210511D01*
X11072618Y7213549D01*
X11080805Y7244104D01*
X11201604Y7244104D01*
D02*
G37*
G36*
X9617515Y6933017D02*
X9613500Y6918032D01*
Y6914440D01*
X9606254D01*
X9592598Y6911723D01*
X9581020Y6903988D01*
X9432266Y6755234D01*
X9424531Y6743656D01*
X9421814Y6730000D01*
Y6611601D01*
X9408120Y6602451D01*
X9392945Y6606417D01*
X9385996Y6620799D01*
X9387048Y6622621D01*
X9392500Y6642968D01*
Y6664032D01*
X9387048Y6684379D01*
X9376516Y6702621D01*
X9361621Y6717516D01*
X9343379Y6728048D01*
X9323032Y6733500D01*
X9301968D01*
X9281621Y6728048D01*
X9263379Y6717516D01*
X9248484Y6702621D01*
X9237952Y6684379D01*
X9232500Y6664032D01*
Y6642968D01*
X9237952Y6622621D01*
X9248484Y6604379D01*
X9263379Y6589484D01*
X9281621Y6578952D01*
X9301968Y6573500D01*
X9317884D01*
X9328008Y6563006D01*
X9330000Y6558803D01*
Y6539060D01*
X9338374Y6518845D01*
X9353845Y6503374D01*
X9369313Y6496966D01*
Y6162281D01*
X8889968Y5682935D01*
X8875186Y5689058D01*
Y6835727D01*
X8888621Y6843484D01*
X8903516Y6858379D01*
X8914048Y6876621D01*
X8919500Y6896968D01*
Y6918032D01*
X8914048Y6938379D01*
X8925000Y6949331D01*
Y7004314D01*
X9201562D01*
X9208190Y6988314D01*
X9207181Y6987306D01*
X9198807Y6967091D01*
Y6945211D01*
X9207181Y6924996D01*
X9222652Y6909524D01*
X9242867Y6901151D01*
X9264747D01*
X9284962Y6909524D01*
X9300434Y6924996D01*
X9308807Y6945211D01*
Y6967091D01*
X9300434Y6987306D01*
X9299425Y6988314D01*
X9306053Y7004314D01*
X9409037D01*
X9411144Y6988314D01*
X9406537Y6987080D01*
X9387063Y6975837D01*
X9371163Y6959937D01*
X9359920Y6940463D01*
X9354491Y6920200D01*
X9524510D01*
X9519080Y6940463D01*
X9507837Y6959937D01*
X9491937Y6975837D01*
X9472463Y6987080D01*
X9467856Y6988314D01*
X9469963Y7004314D01*
X9546218D01*
X9617515Y6933017D01*
D02*
G37*
G36*
X10667500Y6072499D02*
X10627500Y6032500D01*
X9602500D01*
Y6240000D01*
X10197500D01*
X10312500Y6355000D01*
X10667500D01*
Y6072499D01*
D02*
G37*
G36*
X10926814Y5637152D02*
Y5446648D01*
X10905832Y5441026D01*
X10884169Y5428519D01*
X10866481Y5410831D01*
X10853974Y5389169D01*
X10850782Y5377255D01*
X10834218D01*
X10831026Y5389169D01*
X10818519Y5410831D01*
X10800831Y5428519D01*
X10779168Y5441026D01*
X10755007Y5447500D01*
X10729993D01*
X10705832Y5441026D01*
X10684169Y5428519D01*
X10666481Y5410831D01*
X10653974Y5389169D01*
X10647500Y5365007D01*
Y5339993D01*
X10653974Y5315832D01*
X10666481Y5294169D01*
X10674259Y5286392D01*
X10667631Y5270392D01*
X10475000D01*
X10467196Y5268840D01*
X10460581Y5264419D01*
X10390581Y5194419D01*
X10386454Y5194013D01*
X10342500Y5237967D01*
Y5253440D01*
X10334127Y5273655D01*
X10318655Y5289127D01*
X10298440Y5297500D01*
X10276560D01*
X10256345Y5289127D01*
X10184317Y5361155D01*
X10151627D01*
X10136155Y5376626D01*
X10115940Y5385000D01*
X10094060D01*
X10073845Y5376626D01*
X10065453Y5368234D01*
X10055000Y5362882D01*
X10044548Y5368234D01*
X10036155Y5376626D01*
X10015940Y5385000D01*
X9994060D01*
X9973845Y5376626D01*
X9965453Y5368234D01*
X9955000Y5362882D01*
X9944548Y5368234D01*
X9936155Y5376626D01*
X9915940Y5385000D01*
X9894060D01*
X9873845Y5376626D01*
X9865453Y5368234D01*
X9855000Y5362882D01*
X9844548Y5368234D01*
X9836155Y5376626D01*
X9815940Y5385000D01*
X9794060D01*
X9773845Y5376626D01*
X9758374Y5361155D01*
X9750000Y5340940D01*
Y5319060D01*
X9758374Y5298845D01*
X9773845Y5283373D01*
X9794060Y5275000D01*
X9815940D01*
X9836155Y5283373D01*
X9844548Y5291766D01*
X9855000Y5297117D01*
X9865453Y5291766D01*
X9873845Y5283373D01*
X9894060Y5275000D01*
X9915940D01*
X9936155Y5283373D01*
X9944548Y5291766D01*
X9955000Y5297117D01*
X9965453Y5291766D01*
X9973845Y5283373D01*
X9994060Y5275000D01*
X10015940D01*
X10036155Y5283373D01*
X10044548Y5291766D01*
X10055000Y5297117D01*
X10065453Y5291766D01*
X10073845Y5283373D01*
X10094060Y5275000D01*
X10115940D01*
X10136155Y5283373D01*
X10140687Y5287905D01*
X10151627Y5283373D01*
X10180814Y5254186D01*
X10179760Y5238186D01*
X9727282D01*
X9535686Y5429782D01*
Y5502364D01*
X9551686Y5513055D01*
X9559060Y5510000D01*
X9580940D01*
X9601155Y5518374D01*
X9616626Y5533845D01*
X9625000Y5554060D01*
Y5575940D01*
X9616626Y5596155D01*
X9601155Y5611627D01*
X9588309Y5616948D01*
X9587077Y5626346D01*
X9587417Y5634635D01*
X9601626Y5648845D01*
X9610000Y5669060D01*
Y5690940D01*
X9601626Y5711155D01*
X9596624Y5716157D01*
X9717282Y5836814D01*
X10132904D01*
X10143845Y5825874D01*
X10164060Y5817500D01*
X10185940D01*
X10206155Y5825874D01*
X10221626Y5841345D01*
X10230000Y5861560D01*
Y5883440D01*
X10225910Y5893314D01*
X10236601Y5909314D01*
X10654652D01*
X10926814Y5637152D01*
D02*
G37*
G36*
X9551345Y5828373D02*
X9571560Y5820000D01*
X9576905D01*
X9583533Y5804000D01*
X9533835Y5754302D01*
X9526099Y5742725D01*
X9523383Y5729069D01*
Y5726164D01*
X9508373Y5711155D01*
X9500000Y5690940D01*
Y5669060D01*
X9508373Y5648845D01*
X9523845Y5633374D01*
X9536691Y5628052D01*
X9537923Y5618654D01*
X9537583Y5610365D01*
X9523373Y5596155D01*
X9517096Y5580999D01*
X9515210Y5579288D01*
X9503496Y5574832D01*
X9499000Y5574399D01*
X9493656Y5577969D01*
X9480000Y5580686D01*
X9347500D01*
X9333844Y5577969D01*
X9322267Y5570234D01*
X9226349Y5474316D01*
X9207475Y5478070D01*
X9204127Y5486155D01*
X9188655Y5501627D01*
X9175267Y5507172D01*
X9170249Y5524782D01*
X9484781Y5839314D01*
X9540404D01*
X9551345Y5828373D01*
D02*
G37*
G36*
X8470987Y5331454D02*
X8299766Y5160234D01*
X8288812Y5159155D01*
X8115295Y5332672D01*
X8121419Y5347454D01*
X8464359D01*
X8470987Y5331454D01*
D02*
G37*
G36*
X10835000Y5215000D02*
Y5110000D01*
X10785000Y5060000D01*
X10425000D01*
X10405686Y5079314D01*
Y5160000D01*
X10405000Y5163448D01*
Y5180000D01*
X10475000Y5250000D01*
X10800000D01*
X10835000Y5215000D01*
D02*
G37*
G36*
X9141814Y5001405D02*
Y4737282D01*
X9090219Y4685686D01*
X8797096D01*
X8786155Y4696627D01*
X8765940Y4705000D01*
X8765755Y4705277D01*
X8772500Y4721560D01*
Y4738506D01*
X8783739Y4748684D01*
X8786560Y4750000D01*
X8808440D01*
X8828655Y4758374D01*
X8844127Y4773845D01*
X8852500Y4794060D01*
Y4809533D01*
X9045234Y5002266D01*
X9058633Y5003586D01*
X9058845Y5003374D01*
X9079060Y4995000D01*
X9100940D01*
X9121155Y5003374D01*
X9125814Y5008033D01*
X9141814Y5001405D01*
D02*
G37*
G36*
X8991369Y5328728D02*
X8994314Y5326219D01*
Y5179782D01*
X8791000Y4976467D01*
X8775000Y4983095D01*
Y4990940D01*
X8766627Y5011155D01*
X8751155Y5026626D01*
X8730940Y5035000D01*
X8730686D01*
Y5085218D01*
X8979251Y5333783D01*
X8991369Y5328728D01*
D02*
G37*
G36*
X9669767Y5127266D02*
X9681344Y5119531D01*
X9695000Y5116814D01*
X9895219D01*
X10039767Y4972266D01*
X10040000Y4972111D01*
Y4865235D01*
X9650686D01*
Y4955000D01*
Y5125442D01*
X9665468Y5131565D01*
X9669767Y5127266D01*
D02*
G37*
G36*
X9542266Y4439766D02*
X9553844Y4432031D01*
X9567500Y4429314D01*
X9612942D01*
X9619065Y4414532D01*
X9495219Y4290686D01*
X9462282D01*
X9418902Y4334066D01*
X9425595Y4350000D01*
X9440940D01*
X9461155Y4358374D01*
X9476626Y4373845D01*
X9485000Y4394060D01*
Y4415940D01*
X9476626Y4436155D01*
X9465686Y4447096D01*
Y4493719D01*
X9481686Y4500347D01*
X9542266Y4439766D01*
D02*
G37*
G36*
X10587500Y4340000D02*
X10802500D01*
X10842500Y4300000D01*
Y4200000D01*
X10787500Y4145000D01*
X10677500D01*
X10643750Y4178750D01*
X10466250D01*
X10392500Y4252500D01*
Y4355000D01*
X10430000Y4392500D01*
X10535000D01*
X10587500Y4340000D01*
D02*
G37*
G36*
X9959314Y4300218D02*
Y4237500D01*
X9962031Y4223844D01*
X9969766Y4212266D01*
X10057266Y4124766D01*
X10065547Y4119234D01*
X10065598Y4119156D01*
X10068319Y4105835D01*
X10068087Y4100868D01*
X10065453Y4098234D01*
X10055000Y4092882D01*
X10044548Y4098234D01*
X10036155Y4106627D01*
X10015940Y4115000D01*
X9994060D01*
X9973845Y4106627D01*
X9965453Y4098234D01*
X9955000Y4092882D01*
X9944548Y4098234D01*
X9936155Y4106627D01*
X9915940Y4115000D01*
X9894060D01*
X9873845Y4106627D01*
X9865452Y4098234D01*
X9855000Y4092882D01*
X9844547Y4098234D01*
X9836155Y4106627D01*
X9815940Y4115000D01*
X9794060D01*
X9773845Y4106627D01*
X9765452Y4098234D01*
X9755000Y4092882D01*
X9744547Y4098234D01*
X9736155Y4106627D01*
X9715940Y4115000D01*
X9695000D01*
Y4322033D01*
X9704782Y4331814D01*
X9927718D01*
X9959314Y4300218D01*
D02*
G37*
%LPC*%
G36*
X8344200Y6992510D02*
Y6920200D01*
X8416510D01*
X8411080Y6940463D01*
X8399837Y6959937D01*
X8383937Y6975837D01*
X8364463Y6987080D01*
X8344200Y6992510D01*
D02*
G37*
G36*
X8318800D02*
X8298537Y6987080D01*
X8279063Y6975837D01*
X8263163Y6959937D01*
X8251920Y6940463D01*
X8246491Y6920200D01*
X8318800D01*
Y6992510D01*
D02*
G37*
G36*
X7935000Y7119061D02*
X7918032Y7116827D01*
X7902220Y7110277D01*
X7888642Y7099859D01*
X7878223Y7086280D01*
X7871674Y7070469D01*
X7869440Y7053500D01*
Y6973500D01*
X7871674Y6956532D01*
X7878223Y6940720D01*
X7888642Y6927142D01*
X7902220Y6916723D01*
X7918032Y6910174D01*
X7935000Y6907940D01*
X7951969Y6910174D01*
X7967781Y6916723D01*
X7981359Y6927142D01*
X7991778Y6940720D01*
X7998327Y6956532D01*
X8000561Y6973500D01*
Y7053500D01*
X7998327Y7070469D01*
X7991778Y7086280D01*
X7981359Y7099859D01*
X7967781Y7110277D01*
X7951969Y7116827D01*
X7935000Y7119061D01*
D02*
G37*
G36*
X9958032Y6987500D02*
X9936968D01*
X9916621Y6982048D01*
X9898379Y6971516D01*
X9883484Y6956621D01*
X9872952Y6938379D01*
X9867500Y6918032D01*
Y6896968D01*
X9872952Y6876621D01*
X9883484Y6858379D01*
X9898379Y6843484D01*
X9916621Y6832952D01*
X9936968Y6827500D01*
X9958032D01*
X9978379Y6832952D01*
X9996621Y6843484D01*
X10011516Y6858379D01*
X10022048Y6876621D01*
X10027500Y6896968D01*
Y6918032D01*
X10022048Y6938379D01*
X10011516Y6956621D01*
X9996621Y6971516D01*
X9978379Y6982048D01*
X9958032Y6987500D01*
D02*
G37*
G36*
X8416510Y6894800D02*
X8344200D01*
Y6822491D01*
X8364463Y6827920D01*
X8383937Y6839163D01*
X8399837Y6855063D01*
X8411080Y6874537D01*
X8416510Y6894800D01*
D02*
G37*
G36*
X8318800D02*
X8246491D01*
X8251920Y6874537D01*
X8263163Y6855063D01*
X8279063Y6839163D01*
X8298537Y6827920D01*
X8318800Y6822491D01*
Y6894800D01*
D02*
G37*
G36*
X10497275Y6882900D02*
X10492701D01*
Y6720200D01*
X10655400D01*
Y6724775D01*
X10648659Y6758662D01*
X10635437Y6790583D01*
X10616242Y6819311D01*
X10591811Y6843742D01*
X10563083Y6862937D01*
X10531162Y6876159D01*
X10497275Y6882900D01*
D02*
G37*
G36*
X10467301D02*
X10462725D01*
X10428838Y6876159D01*
X10396917Y6862937D01*
X10368189Y6843742D01*
X10343758Y6819311D01*
X10324563Y6790583D01*
X10311341Y6758662D01*
X10304600Y6724775D01*
Y6720200D01*
X10467301D01*
Y6882900D01*
D02*
G37*
G36*
X10087500Y6828190D02*
X10066616Y6825441D01*
X10047155Y6817380D01*
X10030443Y6804557D01*
X10017620Y6787845D01*
X10009559Y6768384D01*
X10006810Y6747500D01*
Y6707500D01*
X10009559Y6686616D01*
X10017620Y6667155D01*
X10030443Y6650444D01*
X10047155Y6637620D01*
X10066616Y6629560D01*
X10087500Y6626810D01*
X10108384Y6629560D01*
X10127845Y6637620D01*
X10144557Y6650444D01*
X10157380Y6667155D01*
X10165441Y6686616D01*
X10168190Y6707500D01*
Y6747500D01*
X10165441Y6768384D01*
X10157380Y6787845D01*
X10144557Y6804557D01*
X10127845Y6817380D01*
X10108384Y6825441D01*
X10087500Y6828190D01*
D02*
G37*
G36*
X9831032Y6733500D02*
X9809968D01*
X9789621Y6728048D01*
X9771379Y6717516D01*
X9756484Y6702621D01*
X9745952Y6684379D01*
X9740500Y6664032D01*
Y6642968D01*
X9745952Y6622621D01*
X9756484Y6604379D01*
X9771379Y6589484D01*
X9789621Y6578952D01*
X9809968Y6573500D01*
X9831032D01*
X9851379Y6578952D01*
X9869621Y6589484D01*
X9884516Y6604379D01*
X9895048Y6622621D01*
X9900500Y6642968D01*
Y6664032D01*
X9895048Y6684379D01*
X9884516Y6702621D01*
X9869621Y6717516D01*
X9851379Y6728048D01*
X9831032Y6733500D01*
D02*
G37*
G36*
X8215032D02*
X8193968D01*
X8173621Y6728048D01*
X8155379Y6717516D01*
X8140484Y6702621D01*
X8129952Y6684379D01*
X8124500Y6664032D01*
Y6642968D01*
X8129952Y6622621D01*
X8140484Y6604379D01*
X8155379Y6589484D01*
X8173621Y6578952D01*
X8193968Y6573500D01*
X8215032D01*
X8235379Y6578952D01*
X8253621Y6589484D01*
X8268516Y6604379D01*
X8279048Y6622621D01*
X8284500Y6642968D01*
Y6664032D01*
X8279048Y6684379D01*
X8268516Y6702621D01*
X8253621Y6717516D01*
X8235379Y6728048D01*
X8215032Y6733500D01*
D02*
G37*
G36*
X7070000Y7119061D02*
X7053032Y7116827D01*
X7037220Y7110277D01*
X7023642Y7099859D01*
X7013223Y7086280D01*
X7006674Y7070469D01*
X7004440Y7053500D01*
Y6973500D01*
X7006674Y6956532D01*
X7013223Y6940720D01*
X7023642Y6927142D01*
X7034315Y6918953D01*
Y6805048D01*
X7023642Y6796859D01*
X7013223Y6783281D01*
X7006674Y6767469D01*
X7004440Y6750500D01*
Y6600500D01*
X7006674Y6583532D01*
X7013223Y6567720D01*
X7023642Y6554142D01*
X7037220Y6543723D01*
X7053032Y6537173D01*
X7070000Y6534939D01*
X7086969Y6537173D01*
X7102781Y6543723D01*
X7116359Y6554142D01*
X7126777Y6567720D01*
X7131100Y6578155D01*
X7147100Y6574973D01*
Y6565983D01*
X7155915Y6544702D01*
X7172203Y6528415D01*
X7192300Y6520090D01*
Y6577500D01*
X7217700D01*
Y6520090D01*
X7237798Y6528415D01*
X7251319Y6541936D01*
X7260262Y6532993D01*
X7279557Y6525000D01*
X7300443D01*
X7319739Y6532993D01*
X7332500Y6545754D01*
X7345261Y6532993D01*
X7364557Y6525000D01*
X7385443D01*
X7404739Y6532993D01*
X7417500Y6545754D01*
X7430261Y6532993D01*
X7449557Y6525000D01*
X7470443D01*
X7489739Y6532993D01*
X7502500Y6545754D01*
X7515262Y6532993D01*
X7534557Y6525000D01*
X7555443D01*
X7574739Y6532993D01*
X7587500Y6545754D01*
X7600262Y6532993D01*
X7619558Y6525000D01*
X7640443D01*
X7659739Y6532993D01*
X7672500Y6545754D01*
X7685261Y6532993D01*
X7704557Y6525000D01*
X7725443D01*
X7744739Y6532993D01*
X7753682Y6541936D01*
X7767203Y6528415D01*
X7787300Y6520090D01*
Y6577500D01*
X7812700D01*
Y6520090D01*
X7832798Y6528415D01*
X7849086Y6544702D01*
X7857900Y6565983D01*
Y6574973D01*
X7873900Y6578155D01*
X7878223Y6567720D01*
X7888642Y6554142D01*
X7902220Y6543723D01*
X7918032Y6537173D01*
X7935000Y6534939D01*
X7951969Y6537173D01*
X7967781Y6543723D01*
X7981359Y6554142D01*
X7991778Y6567720D01*
X7998327Y6583532D01*
X8000561Y6600500D01*
Y6750500D01*
X7998327Y6767469D01*
X7991778Y6783281D01*
X7981359Y6796859D01*
X7967781Y6807277D01*
X7951969Y6813827D01*
X7935000Y6816061D01*
X7918032Y6813827D01*
X7902220Y6807277D01*
X7888642Y6796859D01*
X7878223Y6783281D01*
X7871674Y6767469D01*
X7869440Y6750500D01*
Y6737969D01*
X7853440Y6734787D01*
X7849086Y6745298D01*
X7832798Y6761585D01*
X7812700Y6769910D01*
Y6712500D01*
X7787300D01*
Y6769910D01*
X7767203Y6761585D01*
X7757906Y6752289D01*
X7743989Y6761000D01*
Y6772426D01*
X7741273Y6786082D01*
X7733537Y6797660D01*
X7715963Y6815234D01*
X7704386Y6822969D01*
X7690730Y6825686D01*
X7332500D01*
X7318844Y6822969D01*
X7307266Y6815234D01*
X7271463Y6779431D01*
X7263728Y6767853D01*
X7262140Y6759871D01*
X7247816Y6751568D01*
X7237798Y6761585D01*
X7217700Y6769910D01*
Y6712500D01*
X7192300D01*
Y6769910D01*
X7172203Y6761585D01*
X7155915Y6745298D01*
X7151561Y6734787D01*
X7135561Y6737969D01*
Y6750500D01*
X7133327Y6767469D01*
X7126777Y6783281D01*
X7116359Y6796859D01*
X7105686Y6805048D01*
Y6918953D01*
X7116359Y6927142D01*
X7126777Y6940720D01*
X7133327Y6956532D01*
X7135561Y6973500D01*
Y7053500D01*
X7133327Y7070469D01*
X7126777Y7086280D01*
X7116359Y7099859D01*
X7102781Y7110277D01*
X7086969Y7116827D01*
X7070000Y7119061D01*
D02*
G37*
G36*
X10655400Y6694800D02*
X10492701D01*
Y6532100D01*
X10497275D01*
X10531162Y6538841D01*
X10563083Y6552063D01*
X10591811Y6571258D01*
X10616242Y6595689D01*
X10635437Y6624417D01*
X10648659Y6656338D01*
X10655400Y6690225D01*
Y6694800D01*
D02*
G37*
G36*
X10467301D02*
X10304600D01*
Y6690225D01*
X10311341Y6656338D01*
X10324563Y6624417D01*
X10343758Y6595689D01*
X10368189Y6571258D01*
X10396917Y6552063D01*
X10428838Y6538841D01*
X10462725Y6532100D01*
X10467301D01*
Y6694800D01*
D02*
G37*
G36*
X8103440Y6042500D02*
X8081560D01*
X8061345Y6034127D01*
X8045873Y6018655D01*
X8037500Y5998440D01*
Y5976560D01*
X8045873Y5956345D01*
X8061345Y5940874D01*
X8081560Y5932500D01*
X8103440D01*
X8123655Y5940874D01*
X8139126Y5956345D01*
X8147500Y5976560D01*
Y5998440D01*
X8139126Y6018655D01*
X8123655Y6034127D01*
X8103440Y6042500D01*
D02*
G37*
G36*
X6791532Y5817500D02*
X6770468D01*
X6750121Y5812048D01*
X6731879Y5801516D01*
X6716984Y5786621D01*
X6706452Y5768379D01*
X6701000Y5748032D01*
Y5726968D01*
X6706452Y5706621D01*
X6716984Y5688379D01*
X6731879Y5673484D01*
X6750121Y5662952D01*
X6770468Y5657500D01*
X6791532D01*
X6811879Y5662952D01*
X6830121Y5673484D01*
X6845016Y5688379D01*
X6855548Y5706621D01*
X6861000Y5726968D01*
Y5748032D01*
X6855548Y5768379D01*
X6845016Y5786621D01*
X6830121Y5801516D01*
X6811879Y5812048D01*
X6791532Y5817500D01*
D02*
G37*
G36*
X6903440Y6272500D02*
X6881560D01*
X6861345Y6264126D01*
X6845874Y6248655D01*
X6837500Y6228440D01*
Y6206560D01*
X6845874Y6186345D01*
X6861345Y6170873D01*
X6881560Y6162500D01*
X6882614D01*
X6987557Y6057557D01*
X7002442Y6047611D01*
X7020000Y6044118D01*
X7390995D01*
X7634118Y5800996D01*
Y5731900D01*
X7633373Y5731155D01*
X7625000Y5710940D01*
Y5689060D01*
X7633373Y5668845D01*
X7648845Y5653374D01*
X7669060Y5645000D01*
X7690940D01*
X7711155Y5653374D01*
X7726626Y5668845D01*
X7735000Y5689060D01*
Y5710940D01*
X7726626Y5731155D01*
X7725881Y5731900D01*
Y5820000D01*
X7722389Y5837558D01*
X7712443Y5852443D01*
X7442443Y6122443D01*
X7427558Y6132389D01*
X7410000Y6135882D01*
X7039005D01*
X6947500Y6227386D01*
Y6228440D01*
X6939127Y6248655D01*
X6923655Y6264126D01*
X6903440Y6272500D01*
D02*
G37*
G36*
X7047700Y5695510D02*
Y5623200D01*
X7120009D01*
X7114580Y5643463D01*
X7103337Y5662937D01*
X7087437Y5678837D01*
X7067963Y5690080D01*
X7047700Y5695510D01*
D02*
G37*
G36*
X7022300D02*
X7002037Y5690080D01*
X6982563Y5678837D01*
X6966663Y5662937D01*
X6955420Y5643463D01*
X6949990Y5623200D01*
X7022300D01*
Y5695510D01*
D02*
G37*
G36*
X7948440Y5707500D02*
X7926560D01*
X7906345Y5699127D01*
X7890873Y5683655D01*
X7882500Y5663440D01*
Y5641560D01*
X7890873Y5621345D01*
X7906345Y5605873D01*
X7926560Y5597500D01*
X7948440D01*
X7968655Y5605873D01*
X7984127Y5621345D01*
X7992500Y5641560D01*
Y5663440D01*
X7984127Y5683655D01*
X7968655Y5699127D01*
X7948440Y5707500D01*
D02*
G37*
G36*
X6791532Y5309500D02*
X6770468D01*
X6750121Y5304048D01*
X6731879Y5293516D01*
X6716984Y5278621D01*
X6706452Y5260379D01*
X6701000Y5240032D01*
Y5218968D01*
X6706452Y5198621D01*
X6716984Y5180379D01*
X6731879Y5165484D01*
X6750121Y5154952D01*
X6770468Y5149500D01*
X6791532D01*
X6811879Y5154952D01*
X6830121Y5165484D01*
X6845016Y5180379D01*
X6855548Y5198621D01*
X6861000Y5218968D01*
Y5240032D01*
X6855548Y5260379D01*
X6845016Y5278621D01*
X6830121Y5293516D01*
X6811879Y5304048D01*
X6791532Y5309500D01*
D02*
G37*
G36*
X6875000Y5043190D02*
X6835000D01*
X6814116Y5040441D01*
X6794655Y5032380D01*
X6777944Y5019557D01*
X6765120Y5002845D01*
X6757059Y4983384D01*
X6754310Y4962500D01*
X6757059Y4941616D01*
X6765120Y4922155D01*
X6777944Y4905444D01*
X6794655Y4892620D01*
X6814116Y4884559D01*
X6835000Y4881810D01*
X6875000D01*
X6895884Y4884559D01*
X6915345Y4892620D01*
X6932056Y4905444D01*
X6944880Y4922155D01*
X6952941Y4941616D01*
X6955690Y4962500D01*
X6952941Y4983384D01*
X6944880Y5002845D01*
X6932056Y5019557D01*
X6915345Y5032380D01*
X6895884Y5040441D01*
X6875000Y5043190D01*
D02*
G37*
G36*
X10729800Y4939800D02*
X10642100D01*
Y4939282D01*
X10648942Y4913747D01*
X10662160Y4890853D01*
X10680853Y4872160D01*
X10703747Y4858942D01*
X10729282Y4852100D01*
X10729800D01*
Y4939800D01*
D02*
G37*
G36*
X7721376Y4893900D02*
X7720200D01*
Y4801200D01*
X7812900D01*
Y4802376D01*
X7805717Y4829183D01*
X7791841Y4853217D01*
X7772217Y4872841D01*
X7748183Y4886717D01*
X7721376Y4893900D01*
D02*
G37*
G36*
X7812900Y4775800D02*
X7720200D01*
Y4683100D01*
X7721376D01*
X7748183Y4690283D01*
X7772217Y4704159D01*
X7791841Y4723783D01*
X7805717Y4747817D01*
X7812900Y4774624D01*
Y4775800D01*
D02*
G37*
G36*
X7094800Y4378900D02*
X7094282D01*
X7068747Y4372058D01*
X7045853Y4358840D01*
X7027160Y4340147D01*
X7013942Y4317253D01*
X7007100Y4291718D01*
Y4291200D01*
X7094800D01*
Y4378900D01*
D02*
G37*
G36*
Y4265800D02*
X7007100D01*
Y4265282D01*
X7013942Y4239747D01*
X7027160Y4216853D01*
X7045853Y4198160D01*
X7068747Y4184942D01*
X7094282Y4178100D01*
X7094800D01*
Y4265800D01*
D02*
G37*
G36*
X10729800Y4024800D02*
X10642100D01*
Y4024282D01*
X10648942Y3998747D01*
X10662160Y3975853D01*
X10680853Y3957160D01*
X10703747Y3943942D01*
X10729282Y3937100D01*
X10729800D01*
Y4024800D01*
D02*
G37*
G36*
X7120007Y4119500D02*
X7094993D01*
X7070832Y4113026D01*
X7049169Y4100519D01*
X7031481Y4082831D01*
X7018975Y4061168D01*
X7012500Y4037007D01*
Y4011993D01*
X7018975Y3987831D01*
X7031481Y3966169D01*
X7049169Y3948481D01*
X7070832Y3935974D01*
X7094993Y3929500D01*
X7120007D01*
X7144169Y3935974D01*
X7165831Y3948481D01*
X7183519Y3966169D01*
X7196026Y3987831D01*
X7202500Y4011993D01*
Y4037007D01*
X7196026Y4061168D01*
X7183519Y4082831D01*
X7165831Y4100519D01*
X7144169Y4113026D01*
X7120007Y4119500D01*
D02*
G37*
G36*
X8856800Y3872900D02*
X8856282D01*
X8830747Y3866058D01*
X8807853Y3852840D01*
X8789160Y3834147D01*
X8775942Y3811253D01*
X8769100Y3785718D01*
Y3785200D01*
X8856800D01*
Y3872900D01*
D02*
G37*
G36*
X6845931Y4010000D02*
X6809069D01*
X6773462Y4000459D01*
X6741538Y3982028D01*
X6715472Y3955962D01*
X6697041Y3924038D01*
X6687500Y3888431D01*
Y3851569D01*
X6697041Y3815962D01*
X6715472Y3784038D01*
X6741538Y3757972D01*
X6773462Y3739541D01*
X6809069Y3730000D01*
X6845931D01*
X6881538Y3739541D01*
X6913462Y3757972D01*
X6939528Y3784038D01*
X6957959Y3815962D01*
X6967500Y3851569D01*
Y3888431D01*
X6957959Y3924038D01*
X6939528Y3955962D01*
X6913462Y3982028D01*
X6881538Y4000459D01*
X6845931Y4010000D01*
D02*
G37*
G36*
X8628007Y3867500D02*
X8602993D01*
X8578831Y3861026D01*
X8557169Y3848519D01*
X8539481Y3830831D01*
X8526974Y3809168D01*
X8520500Y3785007D01*
Y3759993D01*
X8526974Y3735831D01*
X8539481Y3714169D01*
X8557169Y3696481D01*
X8578831Y3683974D01*
X8602993Y3677500D01*
X8628007D01*
X8652168Y3683974D01*
X8673831Y3696481D01*
X8691519Y3714169D01*
X8704026Y3735831D01*
X8710500Y3759993D01*
Y3785007D01*
X8704026Y3809168D01*
X8691519Y3830831D01*
X8673831Y3848519D01*
X8652168Y3861026D01*
X8628007Y3867500D01*
D02*
G37*
G36*
X8969900Y3759800D02*
X8882200D01*
Y3672100D01*
X8882718D01*
X8908253Y3678942D01*
X8931147Y3692160D01*
X8949840Y3710853D01*
X8963058Y3733747D01*
X8969900Y3759282D01*
Y3759800D01*
D02*
G37*
G36*
X8856800D02*
X8769100D01*
Y3759282D01*
X8775942Y3733747D01*
X8789160Y3710853D01*
X8807853Y3692160D01*
X8830747Y3678942D01*
X8856282Y3672100D01*
X8856800D01*
Y3759800D01*
D02*
G37*
G36*
X9526400Y3759800D02*
X9436199D01*
Y3669600D01*
X9437047D01*
X9463218Y3676612D01*
X9486682Y3690159D01*
X9505840Y3709318D01*
X9519387Y3732782D01*
X9526400Y3758953D01*
Y3759800D01*
D02*
G37*
G36*
X9410799D02*
X9320600D01*
Y3758953D01*
X9327612Y3732782D01*
X9341159Y3709318D01*
X9360318Y3690159D01*
X9383782Y3676612D01*
X9409953Y3669600D01*
X9410799D01*
Y3759800D01*
D02*
G37*
G36*
X9524510Y6894800D02*
X9452200D01*
Y6822491D01*
X9472463Y6827920D01*
X9491937Y6839163D01*
X9507837Y6855063D01*
X9519080Y6874537D01*
X9524510Y6894800D01*
D02*
G37*
G36*
X9426800D02*
X9354491D01*
X9359920Y6874537D01*
X9371163Y6855063D01*
X9387063Y6839163D01*
X9406537Y6827920D01*
X9426800Y6822491D01*
Y6894800D01*
D02*
G37*
G36*
X8979500Y6828190D02*
X8958616Y6825441D01*
X8939155Y6817380D01*
X8922444Y6804557D01*
X8909620Y6787845D01*
X8901560Y6768384D01*
X8898810Y6747500D01*
Y6707500D01*
X8901560Y6686616D01*
X8909620Y6667155D01*
X8922444Y6650444D01*
X8939155Y6637620D01*
X8958616Y6629560D01*
X8979500Y6626810D01*
X9000384Y6629560D01*
X9019845Y6637620D01*
X9036557Y6650444D01*
X9049380Y6667155D01*
X9057441Y6686616D01*
X9060190Y6707500D01*
Y6747500D01*
X9057441Y6768384D01*
X9049380Y6787845D01*
X9036557Y6804557D01*
X9019845Y6817380D01*
X9000384Y6825441D01*
X8979500Y6828190D01*
D02*
G37*
%LPD*%
D34*
X7085993Y5383140D02*
X8473140D01*
X7035000Y5356500D02*
X7059354D01*
X7085993Y5383140D01*
X8473140D02*
X8585500Y5495500D01*
X8717500Y4852500D02*
X9030000Y5165000D01*
Y5327500D01*
X9020000Y5080000D02*
X9107500Y5167500D01*
X9020000Y5027500D02*
Y5080000D01*
X9107500Y5167500D02*
Y5297500D01*
X8717500Y4732500D02*
Y4852500D01*
X9030000Y5327500D02*
X9157500Y5455000D01*
X8797819Y4805319D02*
X9020000Y5027500D01*
X7397500Y5322500D02*
X8075000D01*
X7035000Y5102500D02*
X7177500D01*
X7397500Y5322500D01*
X7152500Y5432500D02*
X8425000D01*
X7101500Y5483500D02*
X7152500Y5432500D01*
X8425000D02*
X8522268Y5529768D01*
X8075000Y5322500D02*
X8277500Y5120000D01*
X7690730Y6790000D02*
X7708304Y6772426D01*
X7332500Y6790000D02*
X7690730D01*
X7708304Y6719197D02*
Y6772426D01*
X7296697Y6754197D02*
X7332500Y6790000D01*
X7296697Y6719197D02*
Y6754197D01*
X7290000Y6712500D02*
X7296697Y6719197D01*
X7708304D02*
X7715000Y6712500D01*
X7982654Y4677346D02*
X8037500Y4622500D01*
Y4182500D02*
Y4622500D01*
X7901639Y4046638D02*
X8037500Y4182500D01*
X10225000Y5202500D02*
X10300000Y5127500D01*
X9712501Y5202500D02*
X10225000D01*
X9500000Y5415000D02*
X9712501Y5202500D01*
X8585500Y5495500D02*
Y6907500D01*
X8458500Y6632543D02*
Y6653500D01*
Y6632543D02*
X8522268Y6568776D01*
Y5529768D02*
Y6568776D01*
X6781000Y5483500D02*
X7101500D01*
X8277500Y4610000D02*
Y5120000D01*
X9555000Y5680000D02*
X9559069Y5684069D01*
X9702500Y5872500D02*
X10175000D01*
X9559069Y5684069D02*
Y5729069D01*
X9702500Y5872500D01*
X9177500Y4722500D02*
Y5375000D01*
X8755000Y4650000D02*
X9105000D01*
X9177500Y4722500D01*
X10215000Y4465000D02*
X10222500Y4472500D01*
X9567500Y4465000D02*
X10215000D01*
X9467500Y4565000D02*
X9567500Y4465000D01*
X10165000Y4660000D02*
X10370000Y4865000D01*
X9450000Y4660000D02*
X10165000D01*
X10370000Y4865000D02*
Y5160000D01*
X10287500Y5242500D02*
X10370000Y5160000D01*
X8855000Y4412500D02*
X8862654Y4404846D01*
Y4374846D02*
X8917500Y4320000D01*
X8862654Y4374846D02*
Y4404846D01*
X8507500Y4357500D02*
X8595000Y4270000D01*
X8845000D01*
X8917500Y3935000D02*
Y4320000D01*
X8797500Y4492500D02*
X8976602D01*
X9040000Y4429102D01*
X8965000Y3955000D02*
Y4387500D01*
X8695000Y5015824D02*
Y5100000D01*
X8720000Y4980000D02*
Y4990824D01*
X8695000Y5015824D02*
X8720000Y4990824D01*
X8695000Y5100000D02*
X9470000Y5875000D01*
X8645000Y4558324D02*
X8667500Y4535824D01*
X8645000Y4558324D02*
Y5117500D01*
X8667500Y4525000D02*
Y4535824D01*
X8645000Y5117500D02*
X9472500Y5945000D01*
X8597500Y5137500D02*
X9452500Y5992500D01*
X8597500Y4545824D02*
Y5137500D01*
X8575000Y4512500D02*
Y4523324D01*
X8597500Y4545824D01*
X8507500Y4357500D02*
Y4447500D01*
X8361500Y3772500D02*
Y4401500D01*
X8550000Y4590000D01*
Y4762426D01*
X8500000Y4615000D02*
Y4676676D01*
X8282500Y3947500D02*
Y4397500D01*
X8500000Y4615000D01*
X8372500Y4698324D02*
X8422500Y4648324D01*
Y4637500D02*
Y4648324D01*
X8372500Y4698324D02*
Y5115000D01*
X8477500Y4699176D02*
X8500000Y4676676D01*
X8477500Y4699176D02*
Y4710000D01*
X8447500Y4750824D02*
X8477500Y4720824D01*
X8447500Y4750824D02*
Y5122500D01*
X8522500Y4789926D02*
Y5130000D01*
Y4789926D02*
X8550000Y4762426D01*
X8272500Y4505000D02*
X8280154Y4512653D01*
Y4545154D01*
X8325000Y4590000D01*
X8117500Y4557912D02*
X8202088Y4642500D01*
X8117500Y4012500D02*
Y4557912D01*
X8200000Y4447500D02*
Y4532500D01*
X8277500Y4610000D01*
X8917500Y3935000D02*
X9057500Y3795000D01*
X9040000Y4312500D02*
Y4429102D01*
X9015000Y4287500D02*
X9040000Y4312500D01*
X8965000Y3955000D02*
X9025000Y3895000D01*
X9177500Y5375000D02*
X9347500Y5545000D01*
X9480000D01*
X9500000Y5525000D01*
X8325000Y4590000D02*
Y5135000D01*
X8002500Y3897500D02*
X8117500Y4012500D01*
X8372500Y5115000D02*
X9404999Y6147499D01*
X8522500Y5130000D02*
X9566500Y6174000D01*
X7532500Y3897500D02*
X8002500D01*
X7407500Y3772500D02*
X7532500Y3897500D01*
X7070000Y6675500D02*
Y7013500D01*
X7742500Y5132500D02*
X7787500Y5087500D01*
X7605000Y5132500D02*
X7742500D01*
X7787500Y5087500D02*
X7982500D01*
X7532500Y5060000D02*
X7605000Y5132500D01*
X8325000Y5135000D02*
X8839500Y5649500D01*
X9404999Y6147499D02*
Y6519177D01*
X8839500Y5649500D02*
Y6907500D01*
X8447500Y5122500D02*
X9457500Y6132500D01*
Y6730000D01*
X9566500Y6174000D02*
Y6653500D01*
X9470000Y5875000D02*
X9582500D01*
X9472500Y5945000D02*
X10669434D01*
X9452500Y5992500D02*
X10687744D01*
X9362500Y5475000D02*
X9427500D01*
X9500000Y5415000D02*
Y5525000D01*
X9442500Y5225000D02*
X9453324D01*
X9430000Y5317500D02*
X9437653Y5309846D01*
X9460000Y5387500D02*
X9695000Y5152500D01*
X9400000Y5387500D02*
X9460000D01*
X9447500Y5130000D02*
X9457500D01*
X9360000Y5067500D02*
Y5347500D01*
X9462654Y5309846D02*
X9615000Y5157500D01*
X9437653Y5309846D02*
X9462654D01*
X9385000Y6539176D02*
Y6550000D01*
X8718000Y7040000D02*
X9561000D01*
X9385000Y6539176D02*
X9404999Y6519177D01*
X9530000Y4207500D02*
X9690000Y4367500D01*
X9427500Y4207500D02*
X9530000D01*
X9690000Y4367500D02*
X9942500D01*
X9672500Y4417500D02*
X9960000D01*
X9510000Y4255000D02*
X9672500Y4417500D01*
X9447500Y4255000D02*
X9510000D01*
X9332500Y4370000D02*
X9447500Y4255000D01*
X9332500Y4370000D02*
Y4730000D01*
X9285000Y4350000D02*
X9427500Y4207500D01*
X9285000Y4350000D02*
Y4870000D01*
X9427500Y4155000D02*
Y4207500D01*
X9370000Y4097500D02*
X9427500Y4155000D01*
X9085000Y4097500D02*
X9370000D01*
X9237500Y4830412D02*
X9239000Y4828912D01*
Y4296000D02*
Y4828912D01*
Y4296000D02*
X9350000Y4185000D01*
X9237500Y4830412D02*
Y5350000D01*
X7235000Y4252500D02*
Y4605578D01*
X7172850Y4667728D02*
X7235000Y4605578D01*
Y4252500D02*
X7332500Y4155000D01*
X7950000Y4240000D02*
Y4595000D01*
X7865000Y4155000D02*
X7950000Y4240000D01*
X7332500Y4155000D02*
X7865000D01*
X10300000Y4920000D02*
Y5127500D01*
X10669434Y5945000D02*
X10962500Y5651934D01*
X10687744Y5992500D02*
X11062500Y5617744D01*
X9457500Y6730000D02*
X9606254Y6878754D01*
X9640400D01*
X11037500Y3740000D02*
X11167500Y3870000D01*
X10480000Y3740000D02*
X11037500D01*
X10325000Y3895000D02*
X10480000Y3740000D01*
X10347500Y3942500D02*
X10502500Y3787500D01*
X10977500D01*
X11062500Y3872500D01*
Y4117500D01*
X10942500Y4237500D02*
X11062500Y4117500D01*
X11167500Y3870000D02*
Y4212500D01*
X10942500Y4437500D02*
X11167500Y4212500D01*
X11062500Y5202500D02*
Y5617744D01*
X10962500Y5102500D02*
X11062500Y5202500D01*
X7957654Y4677346D02*
X7982654D01*
X7950000Y4685000D02*
X7957654Y4677346D01*
X8107500Y3772500D02*
X8282500Y3947500D01*
X9960000Y4417500D02*
X10045000Y4332500D01*
X10065000Y4235000D02*
X10250000D01*
X10045000Y4255000D02*
X10065000Y4235000D01*
X10045000Y4255000D02*
Y4332500D01*
X10962500Y5302500D02*
Y5651934D01*
X9015000Y3975000D02*
Y4287500D01*
Y3975000D02*
X9047500Y3942500D01*
X9025000Y3895000D02*
X10325000D01*
X9047500Y3942500D02*
X10347500D01*
X9380000Y4552500D02*
X9430000Y4502501D01*
X9380000Y4552500D02*
Y4692500D01*
X9417500Y4730000D01*
X9480000D01*
X9520000Y4770000D01*
X9447182Y4797182D02*
X9450000Y4800000D01*
X9520000Y4770000D02*
Y4857500D01*
X9615000Y4952500D01*
X9332500Y4730000D02*
X9399681Y4797182D01*
X9447182D01*
X9285000Y4870000D02*
X9382500Y4967500D01*
X9237500Y5350000D02*
X9362500Y5475000D01*
X9430000Y4405000D02*
Y4502501D01*
X9447500Y4897500D02*
X9451362Y4901362D01*
X9382500Y4967500D02*
X9487500D01*
X9387500Y5040000D02*
X9442500D01*
X9487500Y4967500D02*
X9520000Y5000000D01*
X10082500Y4150000D02*
X10287500D01*
X9995000Y4237500D02*
X10082500Y4150000D01*
X9995000Y4237500D02*
Y4315000D01*
X9942500Y4367500D02*
X9995000Y4315000D01*
X10065000Y4997500D02*
X10217500D01*
X9695000Y5152500D02*
X9910000D01*
X10065000Y4997500D01*
X9615000Y4952500D02*
Y5157500D01*
X9360000Y5347500D02*
X9400000Y5387500D01*
X9360000Y5067500D02*
X9387500Y5040000D01*
X9473324Y5205000D02*
X9475000D01*
X9453324Y5225000D02*
X9473324Y5205000D01*
X9475000D02*
X9567500Y5112500D01*
Y4972088D02*
Y5112500D01*
X9451362Y4901362D02*
X9496775D01*
X9567500Y4972088D01*
X9457500Y5130000D02*
X9520000Y5067500D01*
Y5000000D02*
Y5067500D01*
X7582500Y4659500D02*
Y4957500D01*
X7687500Y5062500D01*
X7532500Y4455500D02*
Y5060000D01*
X7727638Y4046638D02*
X7901639D01*
X7707500Y4026500D02*
X7727638Y4046638D01*
X7532500Y4455500D02*
X7707500Y4280500D01*
X7582500Y4659500D02*
X7707500Y4534500D01*
X9640400Y6878754D02*
X9678000Y6916354D01*
X9561000Y7040000D02*
X9678000Y6923000D01*
Y6916354D02*
Y6923000D01*
X8585500Y6907500D02*
X8718000Y7040000D01*
D35*
X7410000Y6090000D02*
X7680000Y5820000D01*
X7020000Y6090000D02*
X7410000D01*
X7680000Y5700000D02*
Y5820000D01*
X6892500Y6217500D02*
X7020000Y6090000D01*
D37*
X7536390Y6586111D02*
X7545000Y6577500D01*
X7536390Y6586111D02*
Y6611110D01*
X7468611Y6678889D02*
X7536390Y6611110D01*
X7468611Y6678889D02*
Y6703890D01*
X7460000Y6712500D02*
X7468611Y6703890D01*
D38*
X10480000Y6207500D02*
D03*
Y6707500D02*
D03*
D39*
X10742500Y4037500D02*
D03*
X10742500Y4952500D02*
D03*
X7107500Y4278500D02*
D03*
X8869500Y3772500D02*
D03*
X10742500Y4237500D02*
D03*
Y4437500D02*
D03*
X10942500D02*
D03*
Y4237500D02*
D03*
Y4037500D02*
D03*
X10742500Y5152500D02*
D03*
Y5352500D02*
D03*
X10942500D02*
D03*
Y5152500D02*
D03*
Y4952500D02*
D03*
X7107500Y4532500D02*
D03*
Y4024500D02*
D03*
X8615500Y3772500D02*
D03*
X8361500D02*
D03*
X8107500D02*
D03*
D40*
X7205000Y6712500D02*
D03*
Y6577500D02*
D03*
X7800000Y6712500D02*
D03*
Y6577500D02*
D03*
X7460000D02*
D03*
X7545000Y6712500D02*
D03*
Y6577500D02*
D03*
X7460000Y6712500D02*
D03*
X7290000Y6577500D02*
D03*
X7375000D02*
D03*
X7630000D02*
D03*
X7715000D02*
D03*
Y6712500D02*
D03*
X7630000D02*
D03*
X7375000D02*
D03*
X7290000D02*
D03*
D41*
X7035000Y5610500D02*
D03*
X8331500Y6907500D02*
D03*
X9439500D02*
D03*
X7035000Y5102500D02*
D03*
X9312500Y6653500D02*
D03*
X8204500D02*
D03*
X6781000Y5737500D02*
D03*
Y5483500D02*
D03*
X7035000Y5356500D02*
D03*
X6781000Y5229500D02*
D03*
X9947500Y6907500D02*
D03*
X9820500Y6653500D02*
D03*
X9693500Y6907500D02*
D03*
X9566500Y6653500D02*
D03*
X8458500D02*
D03*
X8585500Y6907500D02*
D03*
X8712500Y6653500D02*
D03*
X8839500Y6907500D02*
D03*
D42*
X7707500Y4788500D02*
D03*
Y4280500D02*
D03*
Y4026500D02*
D03*
Y4534500D02*
D03*
X7407500Y4280500D02*
D03*
Y4534500D02*
D03*
Y4026500D02*
D03*
Y3772500D02*
D03*
D43*
X9423500D02*
D03*
X9931500D02*
D03*
X9677500D02*
D03*
D44*
X7070000Y6675500D02*
D03*
X7935000D02*
D03*
D45*
X7070000Y7013500D02*
D03*
X7935000D02*
D03*
D46*
X10185500Y3772500D02*
D03*
D47*
X7707500D02*
D03*
X7407500Y4788500D02*
D03*
D48*
X8436452Y5753679D02*
D03*
X8957500Y5257500D02*
D03*
X9090000Y5050000D02*
D03*
X9107500Y4960001D02*
D03*
X7190000Y5232500D02*
D03*
X8330000Y5522500D02*
D03*
X7612500Y7160000D02*
D03*
X7260000D02*
D03*
X6645000Y6555000D02*
D03*
Y6192500D02*
D03*
Y5760000D02*
D03*
X6640000Y5067500D02*
D03*
X7167500Y4887500D02*
D03*
X7422500Y4992500D02*
D03*
X7805000Y5252500D02*
D03*
X7922500Y5780000D02*
D03*
X7410000Y5935000D02*
D03*
X7212500Y5512500D02*
D03*
X7180000Y5697500D02*
D03*
Y5797500D02*
D03*
Y5897500D02*
D03*
Y5997500D02*
D03*
Y5597500D02*
D03*
X7215000Y6175000D02*
D03*
X7160000Y6312500D02*
D03*
X7550000Y6147500D02*
D03*
X7635000Y6235000D02*
D03*
X7620000Y6447500D02*
D03*
X8287500Y5307500D02*
D03*
X11099997Y7049998D02*
D03*
Y6749998D02*
D03*
Y6449998D02*
D03*
Y6149998D02*
D03*
Y4649999D02*
D03*
X11024996Y6899998D02*
D03*
Y6599998D02*
D03*
X10949997Y6449998D02*
D03*
Y6149998D02*
D03*
X11024996Y5999998D02*
D03*
X10799997Y7049998D02*
D03*
X10874997Y6899998D02*
D03*
X10799997Y6749998D02*
D03*
X10874997Y6599998D02*
D03*
X10799997Y6449998D02*
D03*
X10874997Y6299998D02*
D03*
X10799997Y6149998D02*
D03*
X10874997Y5999998D02*
D03*
X10649997Y7049998D02*
D03*
X10724997Y6899998D02*
D03*
Y6599998D02*
D03*
Y5699998D02*
D03*
X10499997Y7049998D02*
D03*
X10574997Y6899998D02*
D03*
Y5699998D02*
D03*
X10349997Y7049998D02*
D03*
X10199997D02*
D03*
X10274997Y6899998D02*
D03*
Y6599998D02*
D03*
X10199997Y6449998D02*
D03*
X10049997Y7049998D02*
D03*
Y6449998D02*
D03*
X8750000Y5672500D02*
D03*
X8660000D02*
D03*
X6892500Y6217500D02*
D03*
X8675000Y6360000D02*
D03*
X7937500Y5652500D02*
D03*
X8092500Y5987500D02*
D03*
X7680000Y5700000D02*
D03*
X7982500Y5087500D02*
D03*
X10175000Y5872500D02*
D03*
X9167500Y4462500D02*
D03*
X8567918Y4192705D02*
D03*
X9480000Y4327500D02*
D03*
X6640000Y4700000D02*
D03*
X8155000Y3922500D02*
D03*
X8205000Y4965000D02*
D03*
X8145000Y6410000D02*
D03*
X9797500Y4295000D02*
D03*
X9897500D02*
D03*
X9792500Y5032500D02*
D03*
Y4932500D02*
D03*
X9892500D02*
D03*
Y5032500D02*
D03*
X9840000Y6310000D02*
D03*
Y6427500D02*
D03*
X9897500Y4195000D02*
D03*
X9797500D02*
D03*
X10385000Y5305000D02*
D03*
X10175000Y5472500D02*
D03*
Y5757500D02*
D03*
Y5615000D02*
D03*
X10555000Y4450000D02*
D03*
X10552500Y4547500D02*
D03*
X10595000Y4030000D02*
D03*
X10512500Y4095000D02*
D03*
X10600000Y4947500D02*
D03*
X10585000Y5305000D02*
D03*
X7342500Y6890000D02*
D03*
X6640000Y3665000D02*
D03*
Y4145000D02*
D03*
Y4452500D02*
D03*
X8795000Y5030000D02*
D03*
X7862500Y4355000D02*
D03*
X7915000Y3745000D02*
D03*
X6917500Y3665000D02*
D03*
X9242500Y4017500D02*
D03*
X10675000Y3662500D02*
D03*
X11127500Y3685000D02*
D03*
X11132287Y4466241D02*
D03*
X11120000Y5057500D02*
D03*
X11121222Y5757982D02*
D03*
X9335000Y6195000D02*
D03*
X9116500Y6500000D02*
D03*
X8717332Y6451571D02*
D03*
X9185000Y6357500D02*
D03*
X9460000Y5715000D02*
D03*
X10222500Y4472500D02*
D03*
X9467500Y4565000D02*
D03*
X10287500Y5242500D02*
D03*
X9450000Y4660000D02*
D03*
X8797500Y4805000D02*
D03*
X8717500Y4732500D02*
D03*
X9107500Y5297500D02*
D03*
X8855000Y4412500D02*
D03*
X8845000Y4270000D02*
D03*
X8965000Y4387500D02*
D03*
X8797500Y4492500D02*
D03*
X8720000Y4980000D02*
D03*
X8667500Y4525000D02*
D03*
X8575000Y4512500D02*
D03*
X8507500Y4447500D02*
D03*
X8422500Y4637500D02*
D03*
X8477500Y4710000D02*
D03*
X8272500Y4505000D02*
D03*
X8200000Y4447500D02*
D03*
X8202088Y4642500D02*
D03*
X8755000Y4650000D02*
D03*
X8847500Y4035000D02*
D03*
X9157500Y5455000D02*
D03*
X8522500Y4800000D02*
D03*
X9582500Y5875000D02*
D03*
X9427500Y5475000D02*
D03*
X9442500Y5225000D02*
D03*
X9430000Y5317500D02*
D03*
X10005000Y5330000D02*
D03*
X9905000D02*
D03*
X10102983Y4810235D02*
D03*
X10005000Y4810000D02*
D03*
X10005000Y4580000D02*
D03*
X10105000D02*
D03*
X9447500Y5130000D02*
D03*
X9385000Y6550000D02*
D03*
X9253807Y6956151D02*
D03*
X9350000Y4185000D02*
D03*
X7172850Y4667728D02*
D03*
X7950000Y4595000D02*
D03*
Y4685000D02*
D03*
X10441859Y5131839D02*
D03*
X10463955Y4333228D02*
D03*
X10595000Y4260000D02*
D03*
X10597500Y5152500D02*
D03*
X9570000Y5565000D02*
D03*
X9555000Y5680000D02*
D03*
X9085000Y4097500D02*
D03*
X9057500Y3795000D02*
D03*
X9910000Y6162500D02*
D03*
X9810000D02*
D03*
X9910000Y6065000D02*
D03*
X9810000D02*
D03*
X10010000D02*
D03*
X10110000D02*
D03*
X10010000Y6162500D02*
D03*
X10110000D02*
D03*
X9805000Y4810000D02*
D03*
X9902983Y4810235D02*
D03*
X9705000Y4580000D02*
D03*
X9805000D02*
D03*
X9905000D02*
D03*
X9450000Y4800000D02*
D03*
X9430000Y4405000D02*
D03*
X9447500Y4897500D02*
D03*
X9442500Y5040000D02*
D03*
X10287500Y4150000D02*
D03*
X10250000Y4235000D02*
D03*
X10300000Y4920000D02*
D03*
X10217500Y4997500D02*
D03*
X9705000Y4810000D02*
D03*
X10105000Y5330000D02*
D03*
X9805000D02*
D03*
X9705000Y4060000D02*
D03*
X9805000D02*
D03*
X10005000D02*
D03*
X10105000D02*
D03*
X9905000D02*
D03*
X7687500Y5062500D02*
D03*
X8035000Y4045000D02*
D03*
%TF.MD5,e258241731f9364fe340bec7ef14a35c*%
M02*
