%TF.GenerationSoftware,Altium Limited,Altium Designer,26.2.0 (7)*%
G04 Layer_Physical_Order=1*
G04 Layer_Color=255*
%FSLAX45Y45*%
%MOMM*%
%TF.SameCoordinates,89D92440-2D2D-4804-A2D7-E5BC57F2A4C4*%
%TF.FilePolarity,Positive*%
%TF.FileFunction,Copper,L1,Top,Signal*%
%TF.Part,Single*%
G01*
G75*
%TA.AperFunction,SMDPad,CuDef*%
%ADD10R,1.40000X0.30000*%
%ADD11R,0.30000X1.40000*%
%ADD12R,0.60000X1.00000*%
%ADD13R,1.00000X0.60000*%
%ADD14R,1.00000X0.40000*%
%ADD15R,2.70000X4.00000*%
%ADD16R,1.70000X0.65000*%
%ADD17R,1.00000X0.70000*%
G04:AMPARAMS|DCode=18|XSize=0.63mm|YSize=0.61mm|CornerRadius=0.14945mm|HoleSize=0mm|Usage=FLASHONLY|Rotation=270.000|XOffset=0mm|YOffset=0mm|HoleType=Round|Shape=RoundedRectangle|*
%AMROUNDEDRECTD18*
21,1,0.63000,0.31110,0,0,270.0*
21,1,0.33110,0.61000,0,0,270.0*
1,1,0.29890,-0.15555,-0.16555*
1,1,0.29890,-0.15555,0.16555*
1,1,0.29890,0.15555,0.16555*
1,1,0.29890,0.15555,-0.16555*
%
%ADD18ROUNDEDRECTD18*%
%AMCUSTOMSHAPE19*
4,1,5,0.20000,0.37500,0.35000,0.22500,0.35000,-0.37500,-0.30000,-0.37500,-0.30000,0.37500,0.20000,0.37500,0.0*%
%ADD19CUSTOMSHAPE19*%

%ADD20R,1.20000X1.40000*%
%ADD21R,0.65000X0.75000*%
%ADD22R,0.90000X1.60000*%
G04:AMPARAMS|DCode=23|XSize=0.6mm|YSize=1mm|CornerRadius=0mm|HoleSize=0mm|Usage=FLASHONLY|Rotation=225.000|XOffset=0mm|YOffset=0mm|HoleType=Round|Shape=Rectangle|*
%AMROTATEDRECTD23*
4,1,4,-0.14142,0.56569,0.56569,-0.14142,0.14142,-0.56569,-0.56569,0.14142,-0.14142,0.56569,0.0*
%
%ADD23ROTATEDRECTD23*%

%ADD24R,0.60000X1.20000*%
%ADD25R,1.80000X1.15000*%
%ADD26R,1.20000X1.52000*%
G04:AMPARAMS|DCode=27|XSize=0.6mm|YSize=1mm|CornerRadius=0mm|HoleSize=0mm|Usage=FLASHONLY|Rotation=135.000|XOffset=0mm|YOffset=0mm|HoleType=Round|Shape=Rectangle|*
%AMROTATEDRECTD27*
4,1,4,0.56569,0.14142,-0.14142,-0.56569,-0.56569,-0.14142,0.14142,0.56569,0.56569,0.14142,0.0*
%
%ADD27ROTATEDRECTD27*%

%ADD28R,0.80000X0.80000*%
%ADD29R,0.55000X0.60000*%
%ADD30R,1.20000X1.20000*%
%ADD31R,1.22000X1.15000*%
%ADD32R,4.40000X1.50000*%
%ADD33R,1.15000X1.22000*%
%TA.AperFunction,Conductor*%
%ADD34C,0.30000*%
%ADD35C,0.50000*%
%ADD36C,1.00000*%
%ADD37C,0.20000*%
%TA.AperFunction,ComponentPad*%
%ADD38C,3.00000*%
%ADD39C,1.50000*%
%ADD40C,0.65000*%
%ADD41C,1.20000*%
%ADD42C,1.60000*%
%ADD43C,1.55000*%
G04:AMPARAMS|DCode=44|XSize=0.9mm|YSize=2.4mm|CornerRadius=0.45mm|HoleSize=0mm|Usage=FLASHONLY|Rotation=0.000|XOffset=0mm|YOffset=0mm|HoleType=Round|Shape=RoundedRectangle|*
%AMROUNDEDRECTD44*
21,1,0.90000,1.50000,0,0,0.0*
21,1,0.00000,2.40000,0,0,0.0*
1,1,0.90000,0.00000,-0.75000*
1,1,0.90000,0.00000,-0.75000*
1,1,0.90000,0.00000,0.75000*
1,1,0.90000,0.00000,0.75000*
%
%ADD44ROUNDEDRECTD44*%
G04:AMPARAMS|DCode=45|XSize=0.9mm|YSize=1.7mm|CornerRadius=0.45mm|HoleSize=0mm|Usage=FLASHONLY|Rotation=0.000|XOffset=0mm|YOffset=0mm|HoleType=Round|Shape=RoundedRectangle|*
%AMROUNDEDRECTD45*
21,1,0.90000,0.80000,0,0,0.0*
21,1,0.00000,1.70000,0,0,0.0*
1,1,0.90000,0.00000,-0.40000*
1,1,0.90000,0.00000,-0.40000*
1,1,0.90000,0.00000,0.40000*
1,1,0.90000,0.00000,0.40000*
%
%ADD45ROUNDEDRECTD45*%
%ADD46R,1.55000X1.55000*%
%ADD47R,1.60000X1.60000*%
%TA.AperFunction,ViaPad*%
%ADD48C,0.70000*%
G36*
X11201604Y7244104D02*
X11201604Y3595896D01*
X10626331D01*
X10612900Y3602100D01*
Y3664800D01*
X10557500D01*
Y3690200D01*
X10612900D01*
Y3737109D01*
X10924998Y3737107D01*
X10924999Y3737107D01*
X10932803Y3738660D01*
X10939419Y3743080D01*
X10939419Y3743081D01*
X11056919Y3860581D01*
X11061340Y3867196D01*
X11062892Y3875000D01*
Y4087499D01*
X11062892Y4087500D01*
X11061340Y4095304D01*
X11056919Y4101920D01*
X11019420Y4139419D01*
X11012804Y4143840D01*
X11005000Y4145392D01*
X11004964D01*
X11000677Y4161392D01*
X11000831Y4161481D01*
X11018519Y4179169D01*
X11031026Y4200831D01*
X11037500Y4224993D01*
Y4250007D01*
X11031026Y4274168D01*
X11018519Y4295831D01*
X11000831Y4313518D01*
X10979169Y4326025D01*
X10967256Y4329218D01*
Y4345782D01*
X10979169Y4348974D01*
X11000831Y4361481D01*
X11018519Y4379169D01*
X11031026Y4400831D01*
X11037500Y4424993D01*
Y4450007D01*
X11031026Y4474168D01*
X11018519Y4495831D01*
X11000831Y4513519D01*
X10979169Y4526025D01*
X10955007Y4532500D01*
X10929993D01*
X10905832Y4526025D01*
X10884169Y4513519D01*
X10876392Y4505741D01*
X10860392Y4512369D01*
Y4600000D01*
X10858840Y4607804D01*
X10854419Y4614420D01*
X10784013Y4684826D01*
X10790136Y4699608D01*
X10979999D01*
X10980000Y4699608D01*
X10987804Y4701160D01*
X10994419Y4705581D01*
X11079419Y4790581D01*
X11083840Y4797196D01*
X11085392Y4805000D01*
Y5002500D01*
X11083840Y5010304D01*
X11079419Y5016919D01*
X11034419Y5061919D01*
X11027804Y5066340D01*
X11020000Y5067892D01*
X11014869D01*
X11008242Y5083892D01*
X11018519Y5094169D01*
X11031026Y5115832D01*
X11037500Y5139993D01*
Y5165007D01*
X11031026Y5189168D01*
X11018519Y5210831D01*
X11000831Y5228519D01*
X10979169Y5241026D01*
X10967255Y5244218D01*
Y5260782D01*
X10979169Y5263974D01*
X11000831Y5276481D01*
X11018519Y5294169D01*
X11031026Y5315832D01*
X11037500Y5339993D01*
Y5365007D01*
X11031026Y5389169D01*
X11018519Y5410831D01*
X11000831Y5428519D01*
X10979169Y5441026D01*
X10955007Y5447500D01*
X10929993D01*
X10905832Y5441026D01*
X10884169Y5428519D01*
X10874871Y5419221D01*
X10870985Y5418877D01*
X10855630Y5422607D01*
X10854419Y5424419D01*
X10854418Y5424420D01*
X10736919Y5541919D01*
X10730304Y5546340D01*
X10722500Y5547892D01*
X10270001D01*
X10270000Y5547892D01*
X10262196Y5546340D01*
X10255581Y5541919D01*
X10255580Y5541919D01*
X10214392Y5500730D01*
X10209971Y5494115D01*
X10208419Y5486312D01*
Y5486311D01*
X10209608Y5480333D01*
Y5465616D01*
X10204339Y5452896D01*
X10194604Y5443161D01*
X10181884Y5437892D01*
X10167167D01*
X10161189Y5439081D01*
X10153385Y5437529D01*
X10146769Y5433108D01*
X10146769Y5433107D01*
X10136553Y5422892D01*
X10115400D01*
Y5459800D01*
X10050000D01*
X9984600D01*
Y5422892D01*
X9960021D01*
X9960000Y5674819D01*
X9959998Y5697498D01*
X9960000Y5697500D01*
X9960000D01*
Y5817500D01*
X9959988D01*
X9959986Y5839987D01*
X9960000Y5840001D01*
X9960000D01*
Y5957108D01*
X9990000D01*
Y5840001D01*
X10110000D01*
Y5843893D01*
X10126000Y5847075D01*
X10128373Y5841345D01*
X10143845Y5825874D01*
X10164060Y5817500D01*
X10185940D01*
X10206155Y5825874D01*
X10221626Y5841345D01*
X10230000Y5861560D01*
Y5883440D01*
X10221626Y5903655D01*
X10206155Y5919127D01*
X10185940Y5927500D01*
X10164060D01*
X10160639Y5926083D01*
X10150331Y5932970D01*
X10136675Y5935686D01*
X10110000D01*
Y5957108D01*
X10572500D01*
X10580304Y5958660D01*
X10586920Y5963081D01*
X10586920Y5963082D01*
X10681919Y6058080D01*
X10686339Y6064696D01*
X10687892Y6072499D01*
Y6375392D01*
X10686339Y6383196D01*
X10681919Y6389811D01*
X10675303Y6394232D01*
X10667500Y6395784D01*
X10332893D01*
X10332892Y6395784D01*
X10325088Y6394232D01*
X10318473Y6389811D01*
X10189053Y6260392D01*
X9427900D01*
Y6344800D01*
X9355200D01*
Y6256100D01*
X9372738D01*
X9374761Y6254849D01*
X9384627Y6240100D01*
X9384607Y6240000D01*
X9384608Y5980400D01*
D01*
Y5958830D01*
Y5832892D01*
X9385000Y5832500D01*
Y5815000D01*
X9402500D01*
X9408255Y5809245D01*
X9407339Y5811400D01*
X9410431Y5814608D01*
X9435506D01*
X9513213Y5736900D01*
X9522557Y5727557D01*
X9512788Y5715570D01*
X9508373Y5711155D01*
X9500000Y5690940D01*
Y5669060D01*
X9508373Y5648845D01*
X9523845Y5633374D01*
X9536691Y5628052D01*
X9537923Y5618654D01*
X9537583Y5610365D01*
X9523373Y5596155D01*
X9515000Y5575940D01*
Y5554060D01*
X9510616Y5547500D01*
X9472500D01*
X9450150Y5525150D01*
X9438440Y5530000D01*
X9416560D01*
X9415400Y5530775D01*
Y5531160D01*
X9402323Y5524103D01*
X9396345Y5521626D01*
X9387219Y5512500D01*
X9330000D01*
X9295392Y5547108D01*
Y5980400D01*
X9295000D01*
Y6040530D01*
X9295392Y6042500D01*
Y6195000D01*
X9295000Y6196970D01*
Y6215000D01*
X9276972D01*
X9275000Y6215392D01*
X9123446D01*
X8992892Y6345947D01*
Y6435000D01*
X8991339Y6442804D01*
X8990500Y6444061D01*
Y6453500D01*
X8980812D01*
X8980303Y6453840D01*
X8972500Y6455392D01*
X8850000D01*
X8842196Y6453840D01*
X8841687Y6453500D01*
X8830500D01*
Y6439484D01*
X8829608Y6435000D01*
Y6343442D01*
X8698662Y6212500D01*
X8687501D01*
X8675400Y6221915D01*
Y6230400D01*
X8670000D01*
Y6255113D01*
X8703616Y6288730D01*
X8713562Y6303615D01*
X8717055Y6321173D01*
Y6324273D01*
X8721626Y6328845D01*
X8730000Y6349060D01*
Y6370940D01*
X8721626Y6391155D01*
X8706155Y6406627D01*
X8685940Y6415000D01*
X8664060D01*
X8643845Y6406627D01*
X8628373Y6391155D01*
X8620000Y6370940D01*
Y6349060D01*
X8624151Y6339037D01*
X8605114Y6320000D01*
X8530000D01*
Y6318600D01*
Y6230400D01*
Y6210000D01*
X8655000D01*
Y6135392D01*
X8550000D01*
X8542196Y6133840D01*
X8538007Y6132259D01*
X8532023Y6130000D01*
X8532016D01*
D01*
X8530000D01*
X8529607Y6115000D01*
X8529608Y6114163D01*
X8529608Y5853750D01*
X8529608D01*
X8529608Y5717500D01*
X8531160Y5709696D01*
X8535581Y5703081D01*
X8535582Y5703080D01*
X8550000Y5688662D01*
D01*
X8602109Y5636553D01*
Y5510000D01*
X8603661Y5502196D01*
X8608081Y5495581D01*
X8614697Y5491160D01*
X8622501Y5489608D01*
X8934608D01*
X8944000Y5499000D01*
X8945501D01*
X8946010Y5498660D01*
X8953813Y5497108D01*
X9100922D01*
X9108783Y5481108D01*
X9102500Y5465940D01*
Y5444060D01*
X9110874Y5423845D01*
X9126345Y5408373D01*
X9146560Y5400000D01*
X9168440D01*
X9170000Y5398958D01*
Y5370001D01*
X9169999D01*
Y5367499D01*
X9170000D01*
Y5333186D01*
X9149596D01*
X9138655Y5344126D01*
X9118440Y5352500D01*
X9096560D01*
X9076345Y5344126D01*
X9060873Y5328655D01*
X9052500Y5308440D01*
Y5286560D01*
X9060873Y5266345D01*
X9076345Y5250873D01*
X9096560Y5242500D01*
X9118440D01*
X9138655Y5250873D01*
X9149596Y5261814D01*
X9170000D01*
Y5240062D01*
X9170000Y5227501D01*
X9169999Y5227500D01*
X9170837Y5224408D01*
X9170838D01*
Y5205535D01*
X9156056Y5199412D01*
X9142734Y5212734D01*
X9131157Y5220469D01*
X9117500Y5223186D01*
X8810000D01*
Y5255000D01*
X8560686D01*
Y5540000D01*
X8557969Y5553656D01*
X8550234Y5565234D01*
X8259734Y5855734D01*
X8248157Y5863469D01*
X8234500Y5866186D01*
X8197500D01*
Y5883000D01*
X7987500D01*
Y5778000D01*
X8047308D01*
X8055248Y5762000D01*
X8050692Y5756000D01*
X7987500D01*
Y5741881D01*
X7981000D01*
X7963442Y5738389D01*
X7948557Y5728443D01*
X7935506Y5715392D01*
X7781183D01*
X7775060Y5730174D01*
X7922443Y5877557D01*
X7932389Y5892442D01*
X7935882Y5910000D01*
Y5917500D01*
X7945000D01*
Y5941619D01*
X8060600D01*
X8061345Y5940874D01*
X8081560Y5932500D01*
X8103440D01*
X8123655Y5940874D01*
X8139126Y5956345D01*
X8147500Y5976560D01*
Y5998440D01*
X8139126Y6018655D01*
X8123655Y6034127D01*
X8103440Y6042500D01*
X8081560D01*
X8061345Y6034127D01*
X8060600Y6033382D01*
X7945000D01*
Y6057500D01*
X7845000D01*
Y5986932D01*
X7844119Y5982500D01*
Y5931009D01*
X7831388Y5921112D01*
X7827500Y5925000D01*
X7810400D01*
Y5974800D01*
X7755000D01*
Y5987500D01*
X7742300D01*
Y6062900D01*
X7699601D01*
Y6062900D01*
X7697900D01*
Y6062900D01*
X7655200D01*
Y5987500D01*
X7642500D01*
Y5974800D01*
X7587100D01*
Y5925000D01*
X7552500D01*
Y6057500D01*
X7452500D01*
Y5917501D01*
X7452500Y5917500D01*
X7452500D01*
X7444850Y5904851D01*
X7423000Y5883000D01*
X7375500D01*
X7368186Y5886030D01*
Y6013019D01*
X7420797Y6065631D01*
X7428533Y6077208D01*
X7431249Y6090864D01*
Y6112601D01*
X7444645Y6118150D01*
X7444645D01*
X7515355Y6188860D01*
X7614350Y6287855D01*
X7545943Y6356263D01*
Y6365333D01*
X7554128Y6373518D01*
X7554129Y6373519D01*
X7560760Y6383442D01*
X7563088Y6395148D01*
Y6528167D01*
X7574739Y6532993D01*
X7587500Y6545754D01*
X7600262Y6532993D01*
X7619558Y6525000D01*
X7640443D01*
X7659739Y6532993D01*
X7672500Y6545754D01*
X7685261Y6532993D01*
X7704557Y6525000D01*
X7725443D01*
X7744739Y6532993D01*
X7753682Y6541936D01*
X7767203Y6528415D01*
X7787300Y6520090D01*
Y6577500D01*
X7812700D01*
Y6520090D01*
X7832798Y6528415D01*
X7849086Y6544702D01*
X7857900Y6565983D01*
Y6574973D01*
X7873900Y6578155D01*
X7878223Y6567720D01*
X7888642Y6554142D01*
X7902220Y6543723D01*
X7918032Y6537173D01*
X7931653Y6535380D01*
X7967251Y6499782D01*
X7961128Y6485000D01*
X7960000D01*
Y6285000D01*
X8089999D01*
Y6485000D01*
X8060685D01*
Y6492501D01*
X8057969Y6506157D01*
X8050233Y6517734D01*
X7994258Y6573709D01*
X7998327Y6583532D01*
X8000561Y6600500D01*
Y6750500D01*
X7998327Y6767469D01*
X7991778Y6783281D01*
X7981359Y6796859D01*
X7970686Y6805048D01*
Y6918953D01*
X7981359Y6927142D01*
X7991778Y6940720D01*
X7998327Y6956532D01*
X8000561Y6973500D01*
Y7053500D01*
X7998327Y7070469D01*
X7991778Y7086280D01*
X7981359Y7099859D01*
X7967781Y7110277D01*
X7951969Y7116827D01*
X7935000Y7119061D01*
X7918032Y7116827D01*
X7902220Y7110277D01*
X7888642Y7099859D01*
X7878223Y7086280D01*
X7871674Y7070469D01*
X7869440Y7053500D01*
Y7049186D01*
X7135561D01*
Y7053500D01*
X7133327Y7070469D01*
X7126777Y7086280D01*
X7116359Y7099859D01*
X7102781Y7110277D01*
X7086969Y7116827D01*
X7070000Y7119061D01*
X7053032Y7116827D01*
X7037220Y7110277D01*
X7023642Y7099859D01*
X7013223Y7086280D01*
X7006674Y7070469D01*
X7004440Y7053500D01*
Y7033186D01*
X6977500D01*
Y7067500D01*
X6877500D01*
Y6927500D01*
X6977500D01*
Y6961814D01*
X7005978D01*
X7006674Y6956532D01*
X7013223Y6940720D01*
X7023642Y6927142D01*
X7037220Y6916723D01*
X7044552Y6913686D01*
X7041370Y6897686D01*
X6978000D01*
X6964344Y6894969D01*
X6952767Y6887234D01*
X6863033Y6797500D01*
X6751500D01*
Y6642500D01*
X6913500D01*
Y6747032D01*
X6992782Y6826315D01*
X7041369D01*
X7044552Y6810315D01*
X7037220Y6807277D01*
X7023642Y6796859D01*
X7013223Y6783281D01*
X7006674Y6767469D01*
X7004440Y6750500D01*
Y6600500D01*
X7006674Y6583532D01*
X7013223Y6567720D01*
X7023642Y6554142D01*
X7037220Y6543723D01*
X7053032Y6537173D01*
X7070000Y6534939D01*
X7086969Y6537173D01*
X7102781Y6543723D01*
X7116359Y6554142D01*
X7126777Y6567720D01*
X7131100Y6578155D01*
X7147100Y6574973D01*
Y6565983D01*
X7155915Y6544702D01*
X7169218Y6531400D01*
X7165523Y6517396D01*
X7164312Y6515400D01*
X7142701D01*
Y6452701D01*
X7185400D01*
Y6505630D01*
X7192214Y6517407D01*
X7192300Y6517432D01*
Y6577500D01*
X7217700D01*
Y6511836D01*
X7218497Y6511201D01*
X7220001Y6504818D01*
Y6370000D01*
X7239215D01*
X7276360Y6332855D01*
X7205650Y6262145D01*
X7289878Y6177917D01*
Y6134641D01*
X7237266Y6082029D01*
X7229531Y6070452D01*
X7226814Y6056796D01*
Y5568505D01*
X7229531Y5554849D01*
X7237266Y5543272D01*
X7257500Y5523038D01*
Y5440000D01*
X7397500D01*
X7397500Y5424000D01*
Y5416000D01*
X7397500Y5409096D01*
X7384549Y5400000D01*
X7382743Y5400000D01*
X7257500D01*
Y5400000D01*
X7241930Y5401037D01*
X7130234Y5512734D01*
X7118656Y5520469D01*
X7105000Y5523186D01*
X7086567D01*
X7082280Y5539186D01*
X7087437Y5542163D01*
X7103337Y5558063D01*
X7114580Y5577537D01*
X7120009Y5597800D01*
X7035000D01*
X6949990D01*
X6950794Y5594801D01*
X6936449Y5586519D01*
X6839802Y5683165D01*
X6845016Y5688379D01*
X6855548Y5706621D01*
X6861000Y5726968D01*
Y5748032D01*
X6855548Y5768379D01*
X6845016Y5786621D01*
X6830121Y5801516D01*
X6816686Y5809273D01*
Y5881218D01*
X6840467Y5905000D01*
X6890000D01*
Y6045000D01*
X6790000D01*
Y5955467D01*
X6755766Y5921234D01*
X6748031Y5909656D01*
X6745314Y5896000D01*
Y5809273D01*
X6731879Y5801516D01*
X6716984Y5786621D01*
X6706452Y5768379D01*
X6701000Y5748032D01*
Y5726968D01*
X6706452Y5706621D01*
X6716984Y5688379D01*
X6731879Y5673484D01*
X6750121Y5662952D01*
X6766656Y5658522D01*
X6772987Y5649046D01*
X6959767Y5462266D01*
X6971344Y5454531D01*
X6985000Y5451814D01*
X7019803D01*
X7021909Y5435814D01*
X7004121Y5431048D01*
X6985879Y5420516D01*
X6970984Y5405621D01*
X6960452Y5387379D01*
X6955000Y5367032D01*
Y5345968D01*
X6960452Y5325621D01*
X6970984Y5307379D01*
X6985879Y5292484D01*
X7004121Y5281952D01*
X7024468Y5276500D01*
X7045532D01*
X7065879Y5281952D01*
X7084121Y5292484D01*
X7099016Y5307379D01*
X7109548Y5325621D01*
X7115000Y5345968D01*
Y5367032D01*
X7109548Y5387379D01*
X7099016Y5405621D01*
X7084121Y5420516D01*
X7065879Y5431048D01*
X7048091Y5435814D01*
X7050197Y5451814D01*
X7090218D01*
X7217266Y5324766D01*
X7228844Y5317031D01*
X7242500Y5314314D01*
X7257500D01*
Y5300000D01*
X7317100D01*
Y5237700D01*
X7372500D01*
X7427900D01*
Y5300400D01*
X7397500D01*
Y5381000D01*
X7397500Y5387903D01*
X7410451Y5396999D01*
X7412257Y5397000D01*
X7607500D01*
Y5502000D01*
X7457801D01*
X7453484Y5508000D01*
X7461683Y5524000D01*
X7607500D01*
Y5629000D01*
X7397500D01*
Y5603186D01*
X7377281D01*
X7368186Y5612282D01*
Y5755662D01*
X7369000Y5756000D01*
X7397500D01*
Y5651000D01*
X7607500D01*
Y5654118D01*
X7634118D01*
Y5337500D01*
X7597500D01*
Y5287132D01*
X7562500D01*
Y5295000D01*
X7462500D01*
Y5155000D01*
X7562500D01*
Y5195369D01*
X7597500D01*
Y5177500D01*
X7757500D01*
Y5337500D01*
X7725881D01*
Y5519608D01*
X7891618D01*
Y5337500D01*
X7857500D01*
Y5177500D01*
X7967033D01*
X7986033Y5158500D01*
X7979405Y5142500D01*
X7971560D01*
X7951345Y5134127D01*
X7935873Y5118655D01*
X7927500Y5098440D01*
Y5076560D01*
X7931590Y5066686D01*
X7920899Y5050686D01*
X7760605D01*
X7742500Y5068791D01*
Y5073440D01*
X7734127Y5093655D01*
X7718655Y5109126D01*
X7698440Y5117500D01*
X7676560D01*
X7656345Y5109126D01*
X7645404Y5098186D01*
X7602500D01*
X7588844Y5095469D01*
X7577266Y5087734D01*
X7442718Y4953186D01*
X7310000D01*
X7296344Y4950469D01*
X7284766Y4942734D01*
X7234766Y4892734D01*
X7227031Y4881156D01*
X7224314Y4867500D01*
Y4850249D01*
X7222500Y4835000D01*
X7082500D01*
Y4835000D01*
Y4835000D01*
X6982500D01*
Y4695000D01*
X7011814D01*
Y4610074D01*
X7014531Y4596418D01*
X7022266Y4584840D01*
X7025916Y4581191D01*
X7018975Y4569168D01*
X7012500Y4545007D01*
Y4519993D01*
X7018975Y4495831D01*
X7031481Y4474169D01*
X7049169Y4456481D01*
X7070832Y4443974D01*
X7094993Y4437500D01*
X7120007D01*
X7144169Y4443974D01*
X7165831Y4456481D01*
X7183519Y4474169D01*
X7196026Y4495831D01*
X7202500Y4519993D01*
Y4545007D01*
X7196026Y4569168D01*
X7183519Y4590831D01*
X7177622Y4596728D01*
X7183790Y4612728D01*
X7204005Y4621101D01*
X7208314Y4625411D01*
X7224314Y4618783D01*
Y3979781D01*
X7194243Y3949711D01*
X7190444Y3950466D01*
X7186080Y3960362D01*
X7184549Y3967953D01*
X7196026Y3987831D01*
X7202500Y4011993D01*
Y4037007D01*
X7196026Y4061168D01*
X7183519Y4082831D01*
X7165831Y4100519D01*
X7144169Y4113026D01*
X7120007Y4119500D01*
X7094993D01*
X7070832Y4113026D01*
X7049169Y4100519D01*
X7031481Y4082831D01*
X7024448Y4070648D01*
X7004965Y4068003D01*
X6966779Y4106188D01*
X6972500Y4120000D01*
X6972500D01*
Y4220000D01*
X6832500D01*
Y4120000D01*
X6874241D01*
Y4112574D01*
X6876957Y4098917D01*
X6884693Y4087340D01*
X6972766Y3999266D01*
X6984344Y3991531D01*
X6998000Y3988814D01*
X7018711D01*
X7018975Y3987831D01*
X7031481Y3966169D01*
X7049169Y3948481D01*
X7070832Y3935974D01*
X7088220Y3931315D01*
X7093991Y3914459D01*
X7072267Y3892734D01*
X7065429Y3882500D01*
X6992500D01*
Y3782500D01*
X7119001D01*
X7132500Y3782500D01*
X7135001Y3767536D01*
Y3747900D01*
X7075200D01*
Y3692500D01*
Y3637100D01*
X7135001D01*
Y3595896D01*
X6553396D01*
Y7244104D01*
X6674194D01*
X6682382Y7213548D01*
X6683880Y7210510D01*
X6684969Y7207303D01*
X6701937Y7177913D01*
X6704170Y7175366D01*
X6706053Y7172549D01*
X6730049Y7148553D01*
X6732866Y7146670D01*
X6735413Y7144437D01*
X6764803Y7127469D01*
X6768011Y7126380D01*
X6771049Y7124882D01*
X6803829Y7116098D01*
X6807210Y7115877D01*
X6810532Y7115216D01*
X6844468D01*
X6847790Y7115877D01*
X6851171Y7116098D01*
X6883951Y7124882D01*
X6886990Y7126380D01*
X6890197Y7127469D01*
X6919587Y7144437D01*
X6922133Y7146670D01*
X6924950Y7148553D01*
X6948947Y7172549D01*
X6950829Y7175366D01*
X6953063Y7177913D01*
X6970031Y7207303D01*
X6971120Y7210511D01*
X6972618Y7213549D01*
X6980805Y7244104D01*
X10774194Y7244103D01*
X10782382Y7213548D01*
X10783880Y7210510D01*
X10784969Y7207303D01*
X10801937Y7177913D01*
X10804170Y7175366D01*
X10806053Y7172549D01*
X10830049Y7148552D01*
X10832867Y7146670D01*
X10835413Y7144437D01*
X10864803Y7127469D01*
X10868011Y7126380D01*
X10871049Y7124882D01*
X10903829Y7116098D01*
X10907210Y7115877D01*
X10910532Y7115216D01*
X10944468D01*
X10947790Y7115877D01*
X10951171Y7116098D01*
X10983951Y7124882D01*
X10986990Y7126380D01*
X10990197Y7127469D01*
X11019587Y7144437D01*
X11022133Y7146670D01*
X11024951Y7148553D01*
X11048947Y7172549D01*
X11050830Y7175367D01*
X11053063Y7177913D01*
X11070031Y7207303D01*
X11071120Y7210511D01*
X11072618Y7213549D01*
X11080805Y7244104D01*
X11201604Y7244104D01*
D02*
G37*
G36*
X7869440Y6973500D02*
X7871674Y6956532D01*
X7878223Y6940720D01*
X7888642Y6927142D01*
X7899315Y6918953D01*
Y6805048D01*
X7888642Y6796859D01*
X7878223Y6783281D01*
X7871674Y6767469D01*
X7869440Y6750500D01*
Y6737969D01*
X7853440Y6734787D01*
X7849086Y6745298D01*
X7843283Y6751100D01*
X7849911Y6767100D01*
X7852900D01*
Y6829800D01*
X7797500D01*
Y6842500D01*
D01*
Y6829800D01*
X7742100D01*
Y6775419D01*
X7727286Y6764237D01*
X7725443Y6765000D01*
X7720394D01*
X7707500Y6772501D01*
Y6912500D01*
X7607500D01*
Y6822967D01*
X7604767Y6820234D01*
X7597031Y6808657D01*
X7594315Y6795000D01*
Y6760060D01*
X7578315Y6753432D01*
X7574739Y6757008D01*
X7555443Y6765000D01*
X7534557D01*
X7515262Y6757008D01*
X7502500Y6744246D01*
X7489739Y6757008D01*
X7470443Y6765000D01*
X7449557D01*
X7430261Y6757008D01*
X7417500Y6744246D01*
X7404739Y6757008D01*
X7385443Y6765000D01*
X7364557D01*
X7345261Y6757008D01*
X7341686Y6753432D01*
X7325686Y6760060D01*
Y6772500D01*
X7322970Y6786156D01*
X7315234Y6797733D01*
X7225733Y6887234D01*
X7214156Y6894969D01*
X7200500Y6897686D01*
X7098631D01*
X7095448Y6913686D01*
X7102781Y6916723D01*
X7116359Y6927142D01*
X7126777Y6940720D01*
X7133327Y6956532D01*
X7135561Y6973500D01*
Y6977815D01*
X7869440D01*
Y6973500D01*
D02*
G37*
G36*
X8972500Y6337500D02*
X9115000Y6195000D01*
X9275000D01*
Y6042500D01*
X8707500D01*
Y6192500D01*
X8850000Y6334995D01*
Y6435000D01*
X8972500D01*
Y6337500D01*
D02*
G37*
G36*
X10667500Y6072499D02*
X10572500Y5977500D01*
X9564999D01*
X9485000Y5897498D01*
Y5835000D01*
X9405000D01*
X9404999Y6240000D01*
X10197500D01*
X10332892Y6375392D01*
X10667500D01*
Y6072499D01*
D02*
G37*
G36*
X8370347Y5644186D02*
X8363720Y5628186D01*
X8197500D01*
Y5629000D01*
X7987500D01*
Y5540000D01*
X7725881D01*
Y5668100D01*
X7726626Y5668845D01*
X7735000Y5689060D01*
Y5690114D01*
X7739886Y5695000D01*
X8025000D01*
X8108000Y5778000D01*
X8197500D01*
Y5794814D01*
X8219719D01*
X8370347Y5644186D01*
D02*
G37*
G36*
X9275000Y5555000D02*
X9237500Y5517500D01*
X8953813D01*
X8942500Y5528814D01*
X8942500Y5618749D01*
X8823750Y5737500D01*
X8707500D01*
Y5887500D01*
X9112500D01*
X9180000Y5955000D01*
X9275000D01*
Y5555000D01*
D02*
G37*
G36*
X8655000Y5750001D02*
X8687500Y5717500D01*
Y5717500D01*
X8687501D01*
X8697501Y5707500D01*
X8810000D01*
Y5510000D01*
X8622501D01*
Y5645000D01*
X8550000Y5717500D01*
X8550000Y6115000D01*
X8655000D01*
Y5750001D01*
D02*
G37*
G36*
X10840000Y5410000D02*
Y5302500D01*
X10807892Y5270392D01*
X10697108D01*
X10667892Y5299608D01*
Y5314999D01*
X10667892Y5315000D01*
X10666340Y5322804D01*
X10661919Y5329419D01*
X10661918Y5329420D01*
X10614419Y5376919D01*
X10607804Y5381340D01*
X10600000Y5382892D01*
X10340000D01*
X10332196Y5381340D01*
X10325581Y5376919D01*
X10280581Y5331919D01*
X10276160Y5325304D01*
X10274608Y5317500D01*
Y5297500D01*
X10274673Y5297173D01*
X10273896Y5296397D01*
X10256345Y5289127D01*
X10240874Y5273655D01*
X10233604Y5256104D01*
X10217500Y5240000D01*
X10035000D01*
X10000000Y5275000D01*
Y5290000D01*
X9985000D01*
X9985000Y5290000D01*
X9670000D01*
X9625000Y5245000D01*
X9500000D01*
Y5282500D01*
X9620000Y5402500D01*
X10145000D01*
X10161189Y5418689D01*
X10164060Y5417500D01*
X10185940D01*
X10206155Y5425874D01*
X10221626Y5441345D01*
X10230000Y5461560D01*
Y5483440D01*
X10228811Y5486311D01*
X10270000Y5527500D01*
X10722500D01*
X10840000Y5410000D01*
D02*
G37*
G36*
X10647500Y5315000D02*
Y5270392D01*
X10350000D01*
X10342196Y5268840D01*
X10335248Y5270947D01*
X10334127Y5273655D01*
X10318655Y5289127D01*
X10298440Y5297500D01*
X10295000D01*
Y5317500D01*
X10340000Y5362500D01*
X10600000D01*
X10647500Y5315000D01*
D02*
G37*
G36*
X8439315Y5505218D02*
Y5255000D01*
X8315400D01*
Y5260400D01*
X8287700D01*
Y5165001D01*
X8262300D01*
Y5260400D01*
X8234600D01*
Y5260400D01*
X8229200Y5255000D01*
X8190001Y5255000D01*
X8182900Y5268059D01*
Y5272300D01*
X8107500D01*
Y5285000D01*
X8094800D01*
Y5340400D01*
X8032299D01*
X8032100Y5340400D01*
X8017302Y5337500D01*
X8016100Y5337500D01*
X7983382D01*
Y5391600D01*
X8079800D01*
Y5449500D01*
Y5507400D01*
X8021953D01*
X8014369Y5523400D01*
X8014859Y5524000D01*
X8197500D01*
Y5556814D01*
X8387719D01*
X8439315Y5505218D01*
D02*
G37*
G36*
X10840000Y5222500D02*
Y5090000D01*
X10817500Y5067500D01*
X10791970D01*
X10790000Y5067892D01*
X10480001D01*
X10480000Y5067892D01*
X10478029Y5067500D01*
X10472500D01*
X10469614Y5064614D01*
X10465581Y5061919D01*
X10465580Y5061919D01*
X10385581Y4981919D01*
X10382886Y4977887D01*
X10377499Y4972500D01*
X10340000D01*
X10262500Y5050000D01*
X10234475D01*
X10228440Y5052500D01*
X10206560D01*
X10200525Y5050000D01*
X10057500D01*
Y5160000D01*
X10190000D01*
Y5160000D01*
X10260000D01*
X10287500Y5187500D01*
X10298440D01*
X10318655Y5195874D01*
X10334127Y5211345D01*
X10342500Y5231560D01*
Y5242500D01*
X10350000Y5250000D01*
X10812500D01*
X10840000Y5222500D01*
D02*
G37*
G36*
X8844600Y5122700D02*
X8899999D01*
Y5097300D01*
X8844600D01*
Y5050000D01*
X8835000D01*
Y5005400D01*
X8829600D01*
Y4977700D01*
X8925000D01*
Y4952300D01*
X8829600D01*
Y4943495D01*
X8813600Y4936867D01*
X8775000Y4975467D01*
Y4990940D01*
X8766627Y5011155D01*
X8751155Y5026626D01*
X8730940Y5035000D01*
X8709060D01*
X8688845Y5026626D01*
X8673374Y5011155D01*
X8665000Y4990940D01*
Y4969060D01*
X8673374Y4948845D01*
X8562405Y4837877D01*
X8553655Y4846627D01*
X8533440Y4855000D01*
X8511560D01*
X8491345Y4846627D01*
X8480404Y4835686D01*
X8355000D01*
X8341344Y4832969D01*
X8329766Y4825234D01*
X8305219Y4800686D01*
X8165000D01*
Y4930001D01*
Y5026814D01*
X8307427D01*
X8321083Y5029531D01*
X8332660Y5037266D01*
X8350234Y5054840D01*
X8357970Y5066417D01*
X8359677Y5075001D01*
X8810000D01*
Y5151814D01*
X8844600D01*
Y5122700D01*
D02*
G37*
G36*
X10835000Y5002500D02*
Y4900000D01*
X10810000Y4875000D01*
X10660089D01*
X10659216Y4872892D01*
X10501140D01*
X10500266Y4875000D01*
X10400000D01*
Y4967500D01*
X10480000Y5047500D01*
X10790000D01*
X10835000Y5002500D01*
D02*
G37*
G36*
X9981160Y5267196D02*
X9985581Y5260581D01*
X9985582Y5260580D01*
X9987500Y5258661D01*
Y4870392D01*
X9702500D01*
Y4922500D01*
X9645000Y4979999D01*
X9640000D01*
Y4980000D01*
X9560000D01*
X9517500Y4980000D01*
Y5149533D01*
X9527281Y5159314D01*
X9557500D01*
X9560947Y5160000D01*
X9640000D01*
Y5162500D01*
X9647500D01*
Y5226579D01*
X9690529Y5269608D01*
X9980681D01*
X9981160Y5267196D01*
D02*
G37*
G36*
X11065000Y5002500D02*
Y4805000D01*
X10980000Y4720000D01*
X10435000Y4720000D01*
X9609999Y4720000D01*
X9500000Y4830000D01*
Y4880525D01*
X9502500Y4886560D01*
Y4891208D01*
X9506292Y4895000D01*
X9647500D01*
X9690000Y4852499D01*
Y4850000D01*
X9692499D01*
X9692499Y4850000D01*
X9997500D01*
X9997500Y4850000D01*
X10000000D01*
Y4852500D01*
X10042500Y4895000D01*
X10170538D01*
X10170771Y4894766D01*
X10182349Y4887031D01*
X10196005Y4884314D01*
X10200685D01*
X10217500Y4867500D01*
X10232499Y4852500D01*
X10815000D01*
X10820386Y4857886D01*
X10824419Y4860581D01*
X10824420Y4860581D01*
X10849419Y4885581D01*
X10853840Y4892196D01*
X10855392Y4900000D01*
Y5002500D01*
X10854497Y5006997D01*
X10895000Y5047500D01*
X11020000D01*
X11065000Y5002500D01*
D02*
G37*
G36*
X7939060Y4540000D02*
X7960940D01*
X7962455Y4540628D01*
X7964063Y4541294D01*
X7965590Y4539767D01*
X7977167Y4532031D01*
X7979600Y4531547D01*
X7985000Y4530473D01*
Y4530001D01*
X7987376D01*
X7990824Y4529315D01*
X8075000D01*
X8078448Y4530001D01*
X8125039D01*
X8130000Y4518023D01*
Y4500000D01*
X8108448D01*
X8105000Y4500686D01*
X8075000D01*
X8071553Y4500000D01*
X7985000D01*
Y4474600D01*
Y4430400D01*
Y4430001D01*
X8015000D01*
Y4265000D01*
X7987500D01*
Y4085000D01*
X7987500Y4085000D01*
X7985716Y4069739D01*
X7980000Y4055940D01*
Y4034060D01*
X7988373Y4013845D01*
X8003845Y3998374D01*
X8008900Y3996280D01*
X8024060Y3990000D01*
X8045940D01*
X8066155Y3998374D01*
X8081626Y4013845D01*
X8090000Y4034060D01*
Y4055940D01*
X8084590Y4069000D01*
X8093496Y4084666D01*
X8093963Y4085000D01*
X8142841D01*
X8155933Y4073691D01*
X8156039Y4073549D01*
X8155358Y4068141D01*
X8146441Y4054796D01*
X8143310Y4039054D01*
Y4035199D01*
X8200000D01*
X8256690D01*
Y4039054D01*
X8253559Y4054796D01*
X8244642Y4068141D01*
X8242925Y4083895D01*
X8252003Y4095564D01*
X8282500D01*
Y4077500D01*
X8282500D01*
X8285217Y4061500D01*
X8284188Y4060812D01*
X8278574Y4052410D01*
X8276602Y4042500D01*
Y4017700D01*
X8332500D01*
Y4005000D01*
X8345200D01*
Y3941602D01*
X8367500D01*
X8377410Y3943574D01*
X8383286Y3947500D01*
X8487500D01*
Y3986814D01*
X8515200D01*
X8519251Y3980751D01*
X8530810Y3973028D01*
X8544445Y3970315D01*
X8575555D01*
X8589190Y3973028D01*
X8600749Y3980751D01*
X8608472Y3992310D01*
X8611184Y4005944D01*
X8627100Y4005741D01*
Y3980200D01*
X8682501D01*
X8737900D01*
Y4027100D01*
Y4089800D01*
X8682501D01*
Y4115200D01*
X8737900D01*
Y4130857D01*
X8753138Y4137566D01*
X8762108Y4130372D01*
Y3917500D01*
X8763660Y3909696D01*
X8768081Y3903081D01*
X8772500Y3900128D01*
Y3897500D01*
X8780529D01*
X8782500Y3897108D01*
X9001663D01*
X9002500Y3897108D01*
X9017501Y3897500D01*
X9017501Y3897500D01*
X9117500D01*
Y3942100D01*
X9154800D01*
Y3997500D01*
X9167500D01*
Y4010200D01*
X9220400D01*
Y4052899D01*
X9220401Y4052899D01*
X9216290Y4063373D01*
X9223162Y4079314D01*
X9363314D01*
X9369694Y4072406D01*
X9373686Y4063314D01*
X9369600Y4052900D01*
X9369600Y4052737D01*
Y4010200D01*
X9422500D01*
X9475400D01*
Y4034416D01*
X9491160Y4037196D01*
X9495581Y4030581D01*
X9495581Y4030580D01*
X9580580Y3945581D01*
X9580580Y3945580D01*
X9587195Y3941160D01*
X9594999Y3939608D01*
X9600000Y3925679D01*
Y3832886D01*
X9599480Y3832366D01*
X9586645Y3810134D01*
X9580000Y3785336D01*
Y3759664D01*
X9586645Y3734866D01*
X9587653Y3733120D01*
X9532718Y3678186D01*
X9496402D01*
X9490708Y3694186D01*
X9505840Y3709318D01*
X9519387Y3732782D01*
X9526400Y3758953D01*
Y3759800D01*
X9423499D01*
X9320600D01*
Y3758953D01*
X9327612Y3732782D01*
X9341159Y3709318D01*
X9356292Y3694186D01*
X9350598Y3678186D01*
X9240000D01*
Y3702500D01*
X9100000D01*
Y3602500D01*
X9086735Y3595896D01*
X7603911D01*
X7597364Y3611896D01*
X7657967Y3672500D01*
X7807500D01*
Y3853474D01*
X7810021Y3856033D01*
X7823500Y3861627D01*
X7830274Y3857100D01*
X7843930Y3854384D01*
X7847500D01*
Y3830000D01*
X7987500D01*
Y3930000D01*
X7854467D01*
X7830508Y3953960D01*
X7802500Y3981967D01*
X7799177Y3985290D01*
X7800685Y3987902D01*
X7807500Y4013335D01*
Y4039665D01*
X7806740Y4042500D01*
X7802500Y4058324D01*
X7800685Y4065098D01*
X7787520Y4087901D01*
X7768901Y4106520D01*
X7746098Y4119685D01*
X7720665Y4126500D01*
X7694335D01*
X7668902Y4119685D01*
X7646099Y4106520D01*
X7631686Y4092107D01*
X7615686Y4098054D01*
Y4138219D01*
X7666290Y4188823D01*
X7668902Y4187315D01*
X7694335Y4180500D01*
X7720665D01*
X7746098Y4187315D01*
X7768901Y4200480D01*
X7787520Y4219099D01*
X7796100Y4233960D01*
X7802500Y4232245D01*
Y4248676D01*
X7807500Y4267335D01*
Y4284495D01*
Y4293665D01*
X7802500Y4312324D01*
X7800685Y4319098D01*
X7787520Y4341901D01*
X7773282Y4356138D01*
X7773181Y4358173D01*
X7777568Y4372294D01*
X7778024Y4372913D01*
X7786156Y4374531D01*
X7797733Y4382266D01*
X7802500Y4387033D01*
X7895234Y4479767D01*
X7902969Y4491344D01*
X7905686Y4505000D01*
Y4540628D01*
D01*
X7921686Y4547197D01*
X7939060Y4540000D01*
D02*
G37*
G36*
X9980000Y4112500D02*
X9921975D01*
X9915940Y4115000D01*
X9894060D01*
X9888025Y4112500D01*
X9821975D01*
X9815940Y4115000D01*
X9794060D01*
X9788025Y4112500D01*
X9721975D01*
X9715940Y4115000D01*
X9702500D01*
Y4167500D01*
X9640000Y4229999D01*
Y4230000D01*
X9640000D01*
X9637500Y4232500D01*
X9490541Y4232500D01*
X9425686Y4297355D01*
Y4350000D01*
X9440940D01*
X9461155Y4358374D01*
X9476626Y4373845D01*
X9485000Y4394060D01*
Y4407587D01*
X9500000Y4410000D01*
X9500001Y4409999D01*
X9500001Y4410000D01*
X9640000D01*
Y4467500D01*
X9695000Y4522500D01*
X9980000D01*
Y4112500D01*
D02*
G37*
G36*
X10576420Y4588581D02*
X10576919Y4588081D01*
X10580420Y4585742D01*
X10634608Y4531553D01*
Y4400392D01*
X10528447D01*
X10401919Y4526919D01*
X10465000Y4590000D01*
X10575000D01*
X10576420Y4588581D01*
D02*
G37*
G36*
X10742500Y4697500D02*
X10840000Y4600000D01*
Y4390000D01*
X10817993Y4367993D01*
X10804419Y4359419D01*
X10797804Y4363840D01*
X10790000Y4365392D01*
X10764337D01*
X10761720Y4364871D01*
X10759059Y4364697D01*
X10752323Y4362892D01*
X10732678D01*
X10725942Y4364697D01*
X10723281Y4364871D01*
X10720664Y4365392D01*
X10684608D01*
X10655000Y4395000D01*
Y4540000D01*
X10592500Y4602500D01*
X10591339D01*
X10589420Y4604419D01*
X10582804Y4608840D01*
X10575000Y4610392D01*
X10465001D01*
X10465000Y4610392D01*
X10457196Y4608840D01*
X10450581Y4604419D01*
X10450580Y4604419D01*
X10448662Y4602500D01*
X10447500D01*
X10378174Y4533174D01*
X10335283D01*
X10335282Y4533174D01*
X10331894Y4532500D01*
X10217500D01*
X10212500Y4527500D01*
X10211560D01*
X10191345Y4519127D01*
X10175873Y4503655D01*
X10170501Y4490685D01*
X10125000D01*
X10121553Y4490000D01*
X10050000D01*
X10001250Y4538750D01*
X10000000D01*
Y4540000D01*
X9989809D01*
X9987804Y4541340D01*
X9980000Y4542892D01*
X9695001D01*
X9695000Y4542892D01*
X9687196Y4541340D01*
X9683320Y4538750D01*
X9668750D01*
X9623750Y4493750D01*
X9510000D01*
Y4529719D01*
X9514127Y4533845D01*
X9522500Y4554060D01*
Y4557499D01*
X9662499Y4697500D01*
X10742500Y4697500D01*
D02*
G37*
G36*
X9287500Y4440000D02*
Y4327500D01*
X9172500D01*
Y4392500D01*
X9160000Y4405000D01*
Y4412500D01*
X9152500D01*
X9132500Y4432500D01*
X9040000D01*
Y4502500D01*
X9225000D01*
X9287500Y4440000D01*
D02*
G37*
G36*
X10520000Y4380000D02*
X10637500D01*
X10672500Y4345000D01*
X10720664D01*
X10729993Y4342500D01*
X10755007D01*
X10764337Y4345000D01*
X10790000D01*
X10837500Y4297500D01*
Y4182500D01*
X10797500Y4142500D01*
X10585000D01*
X10543100Y4184400D01*
X10543848Y4185147D01*
X10473138Y4255858D01*
X10424780Y4207500D01*
X10327500D01*
X10305000Y4230000D01*
Y4245940D01*
X10296627Y4266155D01*
X10281155Y4281626D01*
X10260940Y4290000D01*
X10245000D01*
X10239999Y4295000D01*
X10057500Y4295000D01*
Y4410000D01*
X10190000D01*
Y4410000D01*
X10232500D01*
X10244639Y4422139D01*
X10253655Y4425874D01*
X10269127Y4441345D01*
X10272861Y4450361D01*
X10335282Y4512782D01*
X10387218D01*
X10520000Y4380000D01*
D02*
G37*
G36*
X10202500Y4112500D02*
X10247219D01*
X10256345Y4103374D01*
X10276560Y4095000D01*
X10298440D01*
X10318655Y4103374D01*
X10327781Y4112500D01*
X10365000D01*
X10552500Y3925000D01*
X10565530D01*
X10567500Y3924608D01*
X10800000D01*
X10801970Y3925000D01*
X10805000D01*
X10805753Y3925752D01*
X10807804Y3926160D01*
X10814419Y3930581D01*
X10841919Y3958081D01*
X10846340Y3964696D01*
X10846748Y3966747D01*
X10847500Y3967500D01*
Y3970530D01*
X10847892Y3972500D01*
Y4087892D01*
X10885000Y4125000D01*
X11005000D01*
X11042500Y4087500D01*
Y3875000D01*
X10924999Y3757499D01*
X10484999Y3757501D01*
X10282500Y3960000D01*
X9594999Y3959999D01*
X9510000Y4045000D01*
Y4145000D01*
X9652411D01*
X9682108Y4115302D01*
Y4115000D01*
X9683660Y4107196D01*
X9688081Y4100581D01*
X9694696Y4096160D01*
X9702500Y4094608D01*
X9711884D01*
X9714171Y4093660D01*
X9721975Y4092108D01*
X9721975D01*
D01*
X9788025D01*
D01*
X9788025D01*
X9795829Y4093660D01*
X9798117Y4094608D01*
X9811884D01*
X9814171Y4093660D01*
X9821975Y4092108D01*
X9821975D01*
D01*
X9888025D01*
D01*
X9888025D01*
X9895829Y4093660D01*
X9898117Y4094608D01*
X9911884D01*
X9914171Y4093660D01*
X9921975Y4092108D01*
X9921975D01*
D01*
X9980000D01*
X9987804Y4093660D01*
X9994419Y4098081D01*
X9995702Y4100000D01*
X10012500D01*
X10057500Y4145000D01*
X10170000D01*
X10202500Y4112500D01*
D02*
G37*
G36*
X10525670Y4174487D02*
X10528681Y4169980D01*
X10532499Y4166162D01*
D01*
X10557850Y4140812D01*
X10570580Y4128081D01*
X10570581Y4128081D01*
X10577197Y4123660D01*
X10585000Y4122108D01*
X10797499D01*
X10797500Y4122108D01*
X10799471Y4122500D01*
X10805000D01*
X10827500Y4100000D01*
Y3972500D01*
X10800000Y3945000D01*
X10567500D01*
D01*
X10567500D01*
X10565530Y3945392D01*
X10560947D01*
X10443095Y4063244D01*
X10443731Y4068769D01*
X10376250Y4136250D01*
X10427686Y4187686D01*
X10432583Y4188660D01*
X10439199Y4193081D01*
X10473138Y4227019D01*
X10525670Y4174487D01*
D02*
G37*
G36*
X9002500Y4162500D02*
Y3917500D01*
X8782500D01*
Y4162500D01*
X9002500Y4162500D01*
D02*
G37*
%LPC*%
G36*
X8400400Y7162900D02*
X8357700D01*
Y7100200D01*
X8400400D01*
Y7162900D01*
D02*
G37*
G36*
X8332300D02*
X8289600D01*
Y7100200D01*
X8332300D01*
Y7162900D01*
D02*
G37*
G36*
X9387300Y7077300D02*
X9344600D01*
Y7014600D01*
X9387300D01*
Y7077300D01*
D02*
G37*
G36*
X9437500Y7215686D02*
X9330000D01*
X9316343Y7212969D01*
X9304766Y7205234D01*
X9259532Y7160000D01*
X9210000D01*
Y7020000D01*
X9221218D01*
Y7001343D01*
X9219573Y6999698D01*
X9147500D01*
Y7060000D01*
X9007500D01*
Y6960000D01*
X9084829D01*
X9087267Y6956352D01*
X9104840Y6938778D01*
X9108999Y6936000D01*
X9104145Y6920000D01*
X9007500D01*
Y6838401D01*
X8991500Y6826610D01*
X8979500Y6828190D01*
X8958616Y6825441D01*
X8939155Y6817380D01*
X8922444Y6804557D01*
X8909620Y6787845D01*
X8901560Y6768384D01*
X8898810Y6747500D01*
Y6707500D01*
X8901560Y6686616D01*
X8909620Y6667155D01*
X8922444Y6650444D01*
X8939155Y6637620D01*
X8958616Y6629560D01*
X8979500Y6626810D01*
X9000384Y6629560D01*
X9019845Y6637620D01*
X9036557Y6650444D01*
X9049380Y6667155D01*
X9057441Y6686616D01*
X9060190Y6707500D01*
Y6747500D01*
X9057441Y6768384D01*
X9049380Y6787845D01*
X9036984Y6804000D01*
X9037372Y6806602D01*
X9042713Y6820000D01*
X9147500D01*
Y6820000D01*
X9163070Y6818962D01*
X9199533Y6782500D01*
X9000218Y6583186D01*
X8777950D01*
X8771323Y6599186D01*
X8776516Y6604379D01*
X8787048Y6622621D01*
X8792500Y6642968D01*
Y6664032D01*
X8787048Y6684379D01*
X8776516Y6702621D01*
X8761621Y6717516D01*
X8743379Y6728048D01*
X8723032Y6733500D01*
X8701968D01*
X8681621Y6728048D01*
X8663379Y6717516D01*
X8648484Y6702621D01*
X8637952Y6684379D01*
X8632500Y6664032D01*
Y6642968D01*
X8637952Y6622621D01*
X8648484Y6604379D01*
X8653678Y6599186D01*
X8647050Y6583186D01*
X8579282D01*
X8534485Y6627983D01*
X8538500Y6642968D01*
Y6664032D01*
X8533048Y6684379D01*
X8522516Y6702621D01*
X8507621Y6717516D01*
X8489379Y6728048D01*
X8469032Y6733500D01*
X8447968D01*
X8427621Y6728048D01*
X8409379Y6717516D01*
X8394484Y6702621D01*
X8383952Y6684379D01*
X8378500Y6664032D01*
Y6642968D01*
X8383952Y6622621D01*
X8394484Y6604379D01*
X8409379Y6589484D01*
X8427621Y6578952D01*
X8447968Y6573500D01*
X8469032D01*
X8484018Y6577515D01*
X8539267Y6522266D01*
X8550844Y6514531D01*
X8564500Y6511814D01*
X9015000D01*
X9028656Y6514531D01*
X9040234Y6522266D01*
X9264782Y6746814D01*
X9289839D01*
X9291945Y6730814D01*
X9281621Y6728048D01*
X9263379Y6717516D01*
X9248484Y6702621D01*
X9237952Y6684379D01*
X9232500Y6664032D01*
Y6642968D01*
X9237952Y6622621D01*
X9248484Y6604379D01*
X9263379Y6589484D01*
X9281621Y6578952D01*
X9301968Y6573500D01*
X9317884D01*
X9328008Y6563006D01*
X9330000Y6558803D01*
Y6539060D01*
X9338374Y6518845D01*
X9353845Y6503374D01*
X9374060Y6495000D01*
X9395940D01*
X9416155Y6503374D01*
X9425596Y6512814D01*
X9505206D01*
X9517100Y6502900D01*
X9517100Y6496814D01*
Y6432700D01*
X9747899D01*
Y6496814D01*
X9747900Y6502900D01*
X9759793Y6512814D01*
X9873500D01*
X9887156Y6515531D01*
X9898734Y6523266D01*
X9972734Y6597266D01*
X9980469Y6608844D01*
X9983186Y6622500D01*
Y6835727D01*
X9996621Y6843484D01*
X10011516Y6858379D01*
X10022048Y6876621D01*
X10027500Y6896968D01*
Y6918032D01*
X10022048Y6938379D01*
X10011516Y6956621D01*
X9996621Y6971516D01*
X9978379Y6982048D01*
X9958032Y6987500D01*
X9936968D01*
X9916621Y6982048D01*
X9898379Y6971516D01*
X9883484Y6956621D01*
X9872952Y6938379D01*
X9867500Y6918032D01*
Y6896968D01*
X9872952Y6876621D01*
X9883484Y6858379D01*
X9898379Y6843484D01*
X9911814Y6835727D01*
Y6683625D01*
X9895814Y6681519D01*
X9895048Y6684379D01*
X9884516Y6702621D01*
X9869621Y6717516D01*
X9851379Y6728048D01*
X9831032Y6733500D01*
X9809968D01*
X9789621Y6728048D01*
X9771379Y6717516D01*
X9756484Y6702621D01*
X9745952Y6684379D01*
X9740500Y6664032D01*
Y6642968D01*
X9745952Y6622621D01*
X9756484Y6604379D01*
X9760677Y6600186D01*
X9754050Y6584186D01*
X9632950D01*
X9626323Y6600186D01*
X9630516Y6604379D01*
X9641048Y6622621D01*
X9646500Y6642968D01*
Y6664032D01*
X9641048Y6684379D01*
X9630516Y6702621D01*
X9615621Y6717516D01*
X9597379Y6728048D01*
X9577032Y6733500D01*
X9555968D01*
X9540983Y6729485D01*
X9462734Y6807734D01*
X9461650Y6808458D01*
X9464511Y6825789D01*
X9472463Y6827920D01*
X9491937Y6839163D01*
X9507837Y6855063D01*
X9519080Y6874537D01*
X9524510Y6894800D01*
X9354491D01*
X9359920Y6874537D01*
X9371163Y6855063D01*
X9387063Y6839163D01*
X9395684Y6834186D01*
X9391397Y6818186D01*
X9264782D01*
X9187734Y6895234D01*
X9176156Y6902969D01*
X9162500Y6905686D01*
X9158814D01*
X9156595Y6907905D01*
X9157585Y6922991D01*
X9163249Y6928326D01*
X9205801D01*
X9207181Y6924996D01*
X9222652Y6909524D01*
X9242867Y6901151D01*
X9264747D01*
X9284962Y6909524D01*
X9300434Y6924996D01*
X9308807Y6945211D01*
Y6967091D01*
X9300434Y6987306D01*
X9292589Y6995150D01*
Y7020000D01*
X9310000D01*
Y7109533D01*
X9329818Y7129351D01*
X9344600Y7123228D01*
Y7102700D01*
X9400000D01*
Y7090000D01*
X9412700D01*
Y7014600D01*
X9455399D01*
X9455400Y7014599D01*
X9455405Y7014601D01*
X9470199Y7017500D01*
X9567500D01*
Y7157500D01*
X9510467D01*
X9462733Y7205234D01*
X9451156Y7212969D01*
X9437500Y7215686D01*
D02*
G37*
G36*
X8400400Y7074800D02*
X8357700D01*
Y7012100D01*
X8400400D01*
Y7074800D01*
D02*
G37*
G36*
X8332300D02*
X8289600D01*
Y7012100D01*
X8332300D01*
Y7074800D01*
D02*
G37*
G36*
X6842900Y7072900D02*
X6800200D01*
Y7010200D01*
X6842900D01*
Y7072900D01*
D02*
G37*
G36*
X6774800D02*
X6732100D01*
Y7010200D01*
X6774800D01*
Y7072900D01*
D02*
G37*
G36*
X6842900Y6984800D02*
X6800200D01*
Y6922100D01*
X6842900D01*
Y6984800D01*
D02*
G37*
G36*
X6774800D02*
X6732100D01*
Y6922100D01*
X6774800D01*
Y6984800D01*
D02*
G37*
G36*
X9452200Y6992510D02*
Y6920200D01*
X9524510D01*
X9519080Y6940463D01*
X9507837Y6959937D01*
X9491937Y6975837D01*
X9472463Y6987080D01*
X9452200Y6992510D01*
D02*
G37*
G36*
X9426800D02*
X9406537Y6987080D01*
X9387063Y6975837D01*
X9371163Y6959937D01*
X9359920Y6940463D01*
X9354491Y6920200D01*
X9426800D01*
Y6992510D01*
D02*
G37*
G36*
X8344200D02*
Y6920200D01*
X8416510D01*
X8411080Y6940463D01*
X8399837Y6959937D01*
X8383937Y6975837D01*
X8364463Y6987080D01*
X8344200Y6992510D01*
D02*
G37*
G36*
X9707500Y7157500D02*
X9607500D01*
Y7017500D01*
X9657033D01*
X9657814Y7016718D01*
Y6979273D01*
X9644379Y6971516D01*
X9629484Y6956621D01*
X9618952Y6938379D01*
X9613500Y6918032D01*
Y6896968D01*
X9618952Y6876621D01*
X9629484Y6858379D01*
X9644379Y6843484D01*
X9662621Y6832952D01*
X9682968Y6827500D01*
X9704032D01*
X9724379Y6832952D01*
X9742621Y6843484D01*
X9757516Y6858379D01*
X9768048Y6876621D01*
X9773500Y6896968D01*
Y6918032D01*
X9768048Y6938379D01*
X9757516Y6956621D01*
X9742621Y6971516D01*
X9729186Y6979273D01*
Y7031500D01*
X9726469Y7045156D01*
X9718734Y7056733D01*
X9707500Y7067967D01*
Y7157500D01*
D02*
G37*
G36*
X8850032Y6987500D02*
X8828968D01*
X8808621Y6982048D01*
X8790379Y6971516D01*
X8775484Y6956621D01*
X8764952Y6938379D01*
X8759500Y6918032D01*
Y6896968D01*
X8764952Y6876621D01*
X8775484Y6858379D01*
X8790379Y6843484D01*
X8808621Y6832952D01*
X8828968Y6827500D01*
X8850032D01*
X8870379Y6832952D01*
X8888621Y6843484D01*
X8903516Y6858379D01*
X8914048Y6876621D01*
X8919500Y6896968D01*
Y6918032D01*
X8914048Y6938379D01*
X8903516Y6956621D01*
X8888621Y6971516D01*
X8870379Y6982048D01*
X8850032Y6987500D01*
D02*
G37*
G36*
X8596032D02*
X8574968D01*
X8554621Y6982048D01*
X8536379Y6971516D01*
X8521484Y6956621D01*
X8510952Y6938379D01*
X8505500Y6918032D01*
Y6896968D01*
X8510952Y6876621D01*
X8521484Y6858379D01*
X8536379Y6843484D01*
X8554621Y6832952D01*
X8574968Y6827500D01*
X8596032D01*
X8616379Y6832952D01*
X8634621Y6843484D01*
X8649516Y6858379D01*
X8660048Y6876621D01*
X8665500Y6896968D01*
Y6918032D01*
X8660048Y6938379D01*
X8649516Y6956621D01*
X8634621Y6971516D01*
X8616379Y6982048D01*
X8596032Y6987500D01*
D02*
G37*
G36*
X8416510Y6894800D02*
X8344200D01*
Y6822491D01*
X8364463Y6827920D01*
X8383937Y6839163D01*
X8399837Y6855063D01*
X8411080Y6874537D01*
X8416510Y6894800D01*
D02*
G37*
G36*
X8255000Y7157500D02*
X8155000D01*
Y7017500D01*
X8169064D01*
Y6725417D01*
X8155379Y6717516D01*
X8140484Y6702621D01*
X8129952Y6684379D01*
X8124500Y6664032D01*
Y6642968D01*
X8129952Y6622621D01*
X8140484Y6604379D01*
X8155379Y6589484D01*
X8173621Y6578952D01*
X8181241Y6576910D01*
X8291896Y6466255D01*
Y6410000D01*
Y6320000D01*
X8290000D01*
Y6210000D01*
X8322448D01*
X8327198Y6206355D01*
X8344227Y6199302D01*
X8362500Y6196896D01*
X8380774Y6199302D01*
X8397802Y6206355D01*
X8402552Y6210000D01*
X8430000D01*
Y6247540D01*
X8430698Y6249226D01*
X8433104Y6267500D01*
Y6329763D01*
Y6410000D01*
Y6490237D01*
Y6495500D01*
X8432931Y6496814D01*
X8430698Y6513774D01*
X8423645Y6530802D01*
X8412425Y6545425D01*
X8281090Y6676759D01*
X8279048Y6684379D01*
X8268516Y6702621D01*
X8253621Y6717516D01*
X8240436Y6725129D01*
Y6862428D01*
X8256436Y6866716D01*
X8263163Y6855063D01*
X8279063Y6839163D01*
X8298537Y6827920D01*
X8318800Y6822491D01*
Y6907500D01*
Y6992510D01*
X8298537Y6987080D01*
X8279063Y6975837D01*
X8263163Y6959937D01*
X8256436Y6948285D01*
X8240436Y6952572D01*
Y7017500D01*
X8255000D01*
Y7157500D01*
D02*
G37*
G36*
X10497275Y6882900D02*
X10492701D01*
Y6720200D01*
X10655400D01*
Y6724775D01*
X10648659Y6758662D01*
X10635437Y6790583D01*
X10616242Y6819311D01*
X10591811Y6843742D01*
X10563083Y6862937D01*
X10531162Y6876159D01*
X10497275Y6882900D01*
D02*
G37*
G36*
X10467301D02*
X10462725D01*
X10428838Y6876159D01*
X10396917Y6862937D01*
X10368189Y6843742D01*
X10343758Y6819311D01*
X10324563Y6790583D01*
X10311341Y6758662D01*
X10304600Y6724775D01*
Y6720200D01*
X10467301D01*
Y6882900D01*
D02*
G37*
G36*
X10087500Y6828190D02*
X10066616Y6825441D01*
X10047155Y6817380D01*
X10030443Y6804557D01*
X10017620Y6787845D01*
X10009559Y6768384D01*
X10006810Y6747500D01*
Y6707500D01*
X10009559Y6686616D01*
X10017620Y6667155D01*
X10030443Y6650444D01*
X10047155Y6637620D01*
X10066616Y6629560D01*
X10087500Y6626810D01*
X10108384Y6629560D01*
X10127845Y6637620D01*
X10144557Y6650444D01*
X10157380Y6667155D01*
X10165441Y6686616D01*
X10168190Y6707500D01*
Y6747500D01*
X10165441Y6768384D01*
X10157380Y6787845D01*
X10144557Y6804557D01*
X10127845Y6817380D01*
X10108384Y6825441D01*
X10087500Y6828190D01*
D02*
G37*
G36*
X10655400Y6694800D02*
X10492701D01*
Y6532100D01*
X10497275D01*
X10531162Y6538841D01*
X10563083Y6552063D01*
X10591811Y6571258D01*
X10616242Y6595689D01*
X10635437Y6624417D01*
X10648659Y6656338D01*
X10655400Y6690225D01*
Y6694800D01*
D02*
G37*
G36*
X10467301D02*
X10304600D01*
Y6690225D01*
X10311341Y6656338D01*
X10324563Y6624417D01*
X10343758Y6595689D01*
X10368189Y6571258D01*
X10396917Y6552063D01*
X10428838Y6538841D01*
X10462725Y6532100D01*
X10467301D01*
Y6694800D01*
D02*
G37*
G36*
X7117301Y6515400D02*
X7074600D01*
Y6452701D01*
X7117301D01*
Y6515400D01*
D02*
G37*
G36*
X7805400Y6490400D02*
X7747700D01*
Y6397700D01*
X7805400D01*
Y6490400D01*
D02*
G37*
G36*
X7722300D02*
X7664600D01*
Y6397700D01*
X7722300D01*
Y6490400D01*
D02*
G37*
G36*
X9427900Y6458900D02*
X9355200D01*
Y6370200D01*
X9427900D01*
Y6458900D01*
D02*
G37*
G36*
X9329800D02*
X9257100D01*
Y6370200D01*
X9329800D01*
Y6458900D01*
D02*
G37*
G36*
X7185400Y6427301D02*
X7142701D01*
Y6364600D01*
X7185400D01*
Y6427301D01*
D02*
G37*
G36*
X7117301D02*
X7074600D01*
Y6364600D01*
X7117301D01*
Y6427301D01*
D02*
G37*
G36*
X9747899Y6407300D02*
X9645200D01*
Y6337100D01*
X9747899D01*
Y6407300D01*
D02*
G37*
G36*
X9619800D02*
X9517100D01*
Y6337100D01*
X9619800D01*
Y6407300D01*
D02*
G37*
G36*
X7805400Y6372300D02*
X7747700D01*
Y6279600D01*
X7805400D01*
Y6372300D01*
D02*
G37*
G36*
X7722300D02*
X7664600D01*
Y6279600D01*
X7722300D01*
Y6372300D01*
D02*
G37*
G36*
X9329800Y6344800D02*
X9257100D01*
Y6256100D01*
X9329800D01*
Y6344800D01*
D02*
G37*
G36*
X6913500Y6487500D02*
X6751500D01*
Y6332500D01*
X6786618D01*
Y6277500D01*
X6790111Y6259942D01*
X6800057Y6245057D01*
X6837500Y6207614D01*
Y6206560D01*
X6845874Y6186345D01*
X6861345Y6170873D01*
X6881560Y6162500D01*
X6903440D01*
X6923655Y6170873D01*
X6939127Y6186345D01*
X6947500Y6206560D01*
Y6228440D01*
X6939127Y6248655D01*
X6923655Y6264126D01*
X6903440Y6272500D01*
X6902387D01*
X6878381Y6296505D01*
Y6332500D01*
X6913500D01*
Y6487500D01*
D02*
G37*
G36*
X7810400Y6062900D02*
X7767700D01*
Y6000200D01*
X7810400D01*
Y6062900D01*
D02*
G37*
G36*
X7629800D02*
X7587100D01*
Y6000200D01*
X7629800D01*
Y6062900D01*
D02*
G37*
G36*
X7035400Y6050400D02*
X6992700D01*
Y5987700D01*
X7035400D01*
Y6050400D01*
D02*
G37*
G36*
X6967300D02*
X6924600D01*
Y5987700D01*
X6967300D01*
Y6050400D01*
D02*
G37*
G36*
X7035400Y5962300D02*
X6992700D01*
Y5899600D01*
X7035400D01*
Y5962300D01*
D02*
G37*
G36*
X6967300D02*
X6924600D01*
Y5899600D01*
X6967300D01*
Y5962300D01*
D02*
G37*
G36*
X10115400Y5822900D02*
X10062700D01*
Y5770201D01*
X10115400D01*
Y5822900D01*
D02*
G37*
G36*
X10037300D02*
X9984600D01*
Y5770201D01*
X10037300D01*
Y5822900D01*
D02*
G37*
G36*
X10115400Y5744801D02*
X10050000D01*
X9984600D01*
Y5696401D01*
X9984600Y5692100D01*
Y5680400D01*
X9984600Y5676100D01*
Y5627700D01*
X10049999D01*
X10115400D01*
Y5676100D01*
X10115400Y5680400D01*
Y5692100D01*
X10115400Y5696401D01*
Y5744801D01*
D02*
G37*
G36*
X7047700Y5695510D02*
Y5623200D01*
X7120009D01*
X7114580Y5643463D01*
X7103337Y5662937D01*
X7087437Y5678837D01*
X7067963Y5690080D01*
X7047700Y5695510D01*
D02*
G37*
G36*
X7022300D02*
X7002037Y5690080D01*
X6982563Y5678837D01*
X6966663Y5662937D01*
X6955420Y5643463D01*
X6949990Y5623200D01*
X7022300D01*
Y5695510D01*
D02*
G37*
G36*
X10115400Y5602300D02*
X10049999D01*
X9984600D01*
Y5553900D01*
X9984600Y5549601D01*
Y5537900D01*
X9984600Y5533600D01*
Y5485200D01*
X10050000D01*
X10115400D01*
Y5533600D01*
X10115400Y5537900D01*
Y5549601D01*
X10115400Y5553900D01*
Y5602300D01*
D02*
G37*
G36*
X6791532Y5563500D02*
X6770468D01*
X6750121Y5558048D01*
X6731879Y5547516D01*
X6716984Y5532621D01*
X6706452Y5514379D01*
X6701000Y5494032D01*
Y5472968D01*
X6706452Y5452621D01*
X6716984Y5434379D01*
X6731879Y5419484D01*
X6750121Y5408952D01*
X6770468Y5403500D01*
X6791532D01*
X6811879Y5408952D01*
X6830121Y5419484D01*
X6845016Y5434379D01*
X6855548Y5452621D01*
X6861000Y5472968D01*
Y5494032D01*
X6855548Y5514379D01*
X6845016Y5532621D01*
X6830121Y5547516D01*
X6811879Y5558048D01*
X6791532Y5563500D01*
D02*
G37*
G36*
X7427900Y5212300D02*
X7385200D01*
Y5149600D01*
X7427900D01*
Y5212300D01*
D02*
G37*
G36*
X7359800D02*
X7317100D01*
Y5149600D01*
X7359800D01*
Y5212300D01*
D02*
G37*
G36*
X6791532Y5309500D02*
X6770468D01*
X6750121Y5304048D01*
X6731879Y5293516D01*
X6716984Y5278621D01*
X6706452Y5260379D01*
X6701000Y5240032D01*
Y5218968D01*
X6706452Y5198621D01*
X6716984Y5180379D01*
X6731879Y5165484D01*
X6750121Y5154952D01*
X6770468Y5149500D01*
X6791532D01*
X6811879Y5154952D01*
X6830121Y5165484D01*
X6845016Y5180379D01*
X6855548Y5198621D01*
X6861000Y5218968D01*
Y5240032D01*
X6855548Y5260379D01*
X6845016Y5278621D01*
X6830121Y5293516D01*
X6811879Y5304048D01*
X6791532Y5309500D01*
D02*
G37*
G36*
X7045532Y5182500D02*
X7024468D01*
X7004121Y5177048D01*
X6985879Y5166516D01*
X6970984Y5151621D01*
X6960452Y5133379D01*
X6955000Y5113032D01*
Y5091968D01*
X6960452Y5071621D01*
X6970984Y5053379D01*
X6985879Y5038484D01*
X7004121Y5027952D01*
X7024468Y5022500D01*
X7045532D01*
X7065879Y5027952D01*
X7084121Y5038484D01*
X7099016Y5053379D01*
X7109548Y5071621D01*
X7115000Y5091968D01*
Y5113032D01*
X7109548Y5133379D01*
X7099016Y5151621D01*
X7084121Y5166516D01*
X7065879Y5177048D01*
X7045532Y5182500D01*
D02*
G37*
G36*
X6875000Y5043190D02*
X6835000D01*
X6814116Y5040441D01*
X6794655Y5032380D01*
X6777944Y5019557D01*
X6765120Y5002845D01*
X6757059Y4983384D01*
X6754310Y4962500D01*
X6757059Y4941616D01*
X6765120Y4922155D01*
X6777944Y4905444D01*
X6794655Y4892620D01*
X6814116Y4884559D01*
X6835000Y4881810D01*
X6875000D01*
X6895884Y4884559D01*
X6915345Y4892620D01*
X6932056Y4905444D01*
X6944880Y4922155D01*
X6952941Y4941616D01*
X6955690Y4962500D01*
X6952941Y4983384D01*
X6944880Y5002845D01*
X6932056Y5019557D01*
X6915345Y5032380D01*
X6895884Y5040441D01*
X6875000Y5043190D01*
D02*
G37*
G36*
X6977900Y4365400D02*
X6915200D01*
Y4322700D01*
X6977900D01*
Y4365400D01*
D02*
G37*
G36*
X6889800D02*
X6827100D01*
Y4322700D01*
X6889800D01*
Y4365400D01*
D02*
G37*
G36*
X7120718Y4378900D02*
X7120200D01*
Y4291200D01*
X7207900D01*
Y4291718D01*
X7201058Y4317253D01*
X7187840Y4340147D01*
X7169147Y4358840D01*
X7146253Y4372058D01*
X7120718Y4378900D01*
D02*
G37*
G36*
X7094800D02*
X7094282D01*
X7068747Y4372058D01*
X7045853Y4358840D01*
X7027160Y4340147D01*
X7013942Y4317253D01*
X7007100Y4291718D01*
Y4291200D01*
X7094800D01*
Y4378900D01*
D02*
G37*
G36*
X6977900Y4297300D02*
X6915200D01*
Y4254600D01*
X6977900D01*
Y4297300D01*
D02*
G37*
G36*
X6889800D02*
X6827100D01*
Y4254600D01*
X6889800D01*
Y4297300D01*
D02*
G37*
G36*
X7207900Y4265800D02*
X7120200D01*
Y4178100D01*
X7120718D01*
X7146253Y4184942D01*
X7169147Y4198160D01*
X7187840Y4216853D01*
X7201058Y4239747D01*
X7207900Y4265282D01*
Y4265800D01*
D02*
G37*
G36*
X7094800D02*
X7007100D01*
Y4265282D01*
X7013942Y4239747D01*
X7027160Y4216853D01*
X7045853Y4198160D01*
X7068747Y4184942D01*
X7094282Y4178100D01*
X7094800D01*
Y4265800D01*
D02*
G37*
G36*
X6845931Y4010000D02*
X6809069D01*
X6773462Y4000459D01*
X6741538Y3982028D01*
X6715472Y3955962D01*
X6697041Y3924038D01*
X6687500Y3888431D01*
Y3851569D01*
X6697041Y3815962D01*
X6715472Y3784038D01*
X6741538Y3757972D01*
X6773462Y3739541D01*
X6809069Y3730000D01*
X6845931D01*
X6881538Y3739541D01*
X6913462Y3757972D01*
X6939528Y3784038D01*
X6957959Y3815962D01*
X6967500Y3851569D01*
Y3888431D01*
X6957959Y3924038D01*
X6939528Y3955962D01*
X6913462Y3982028D01*
X6881538Y4000459D01*
X6845931Y4010000D01*
D02*
G37*
G36*
X7049800Y3747900D02*
X6987100D01*
Y3705200D01*
X7049800D01*
Y3747900D01*
D02*
G37*
G36*
Y3679800D02*
X6987100D01*
Y3637100D01*
X7049800D01*
Y3679800D01*
D02*
G37*
G36*
X7852900Y6917900D02*
X7810200D01*
Y6855200D01*
X7852900D01*
Y6917900D01*
D02*
G37*
G36*
X7784800D02*
X7742100D01*
Y6855200D01*
X7784800D01*
Y6917900D01*
D02*
G37*
G36*
X8202900Y5507400D02*
X8105200D01*
Y5462200D01*
X8202900D01*
Y5507400D01*
D02*
G37*
G36*
Y5436800D02*
X8105200D01*
Y5391600D01*
X8202900D01*
Y5436800D01*
D02*
G37*
G36*
X8120200Y5340400D02*
Y5297700D01*
X8182900D01*
Y5340400D01*
X8120200D01*
D02*
G37*
G36*
X8256690Y4009799D02*
X8212700D01*
Y3964809D01*
X8215555D01*
X8231297Y3967941D01*
X8244642Y3976857D01*
X8253559Y3990203D01*
X8256690Y4005944D01*
Y4009799D01*
D02*
G37*
G36*
X8187300D02*
X8143310D01*
Y4005944D01*
X8146441Y3990203D01*
X8155358Y3976857D01*
X8168703Y3967941D01*
X8184445Y3964809D01*
X8187300D01*
Y4009799D01*
D02*
G37*
G36*
X9475400Y3984800D02*
X9435200D01*
Y3942100D01*
X9475400D01*
Y3984800D01*
D02*
G37*
G36*
X9409800D02*
X9369600D01*
Y3942100D01*
X9409800D01*
Y3984800D01*
D02*
G37*
G36*
X9220400D02*
X9180200D01*
Y3942100D01*
X9220400D01*
Y3984800D01*
D02*
G37*
G36*
X8319800Y3992300D02*
X8276602D01*
Y3967500D01*
X8278574Y3957589D01*
X8284188Y3949188D01*
X8292589Y3943574D01*
X8302500Y3941602D01*
X8319800D01*
Y3992300D01*
D02*
G37*
G36*
X8737900Y3954800D02*
X8695201D01*
Y3892100D01*
X8737900D01*
Y3954800D01*
D02*
G37*
G36*
X8669801D02*
X8627100D01*
Y3892100D01*
X8669801D01*
Y3954800D01*
D02*
G37*
G36*
X9437047Y3875400D02*
X9436199D01*
Y3785200D01*
X9526400D01*
Y3786047D01*
X9519387Y3812218D01*
X9505840Y3835682D01*
X9486682Y3854840D01*
X9463218Y3868387D01*
X9437047Y3875400D01*
D02*
G37*
G36*
X9410799D02*
X9409953D01*
X9383782Y3868387D01*
X9360318Y3854840D01*
X9341159Y3835682D01*
X9327612Y3812218D01*
X9320600Y3786047D01*
Y3785200D01*
X9410799D01*
Y3875400D01*
D02*
G37*
G36*
X8882718Y3872900D02*
X8882200D01*
Y3785200D01*
X8969900D01*
Y3785718D01*
X8963058Y3811253D01*
X8949840Y3834147D01*
X8931147Y3852840D01*
X8908253Y3866058D01*
X8882718Y3872900D01*
D02*
G37*
G36*
X8856800D02*
X8856282D01*
X8830747Y3866058D01*
X8807853Y3852840D01*
X8789160Y3834147D01*
X8775942Y3811253D01*
X8769100Y3785718D01*
Y3785200D01*
X8856800D01*
Y3872900D01*
D02*
G37*
G36*
X9068440Y3850000D02*
X9046560D01*
X9026345Y3841627D01*
X9010874Y3826155D01*
X9002500Y3805940D01*
Y3784060D01*
X9010874Y3763845D01*
X9026345Y3748374D01*
X9046560Y3740000D01*
X9068440D01*
X9084000Y3746445D01*
X9100000Y3742500D01*
Y3742500D01*
X9240000D01*
Y3842500D01*
X9100000D01*
X9100000Y3842500D01*
X9084373Y3843400D01*
X9068440Y3850000D01*
D02*
G37*
G36*
X8628007Y3867500D02*
X8602993D01*
X8578831Y3861026D01*
X8557169Y3848519D01*
X8539481Y3830831D01*
X8526974Y3809168D01*
X8520500Y3785007D01*
Y3759993D01*
X8526974Y3735831D01*
X8539481Y3714169D01*
X8557169Y3696481D01*
X8578831Y3683974D01*
X8602993Y3677500D01*
X8628007D01*
X8652168Y3683974D01*
X8673831Y3696481D01*
X8691519Y3714169D01*
X8704026Y3735831D01*
X8710500Y3759993D01*
Y3785007D01*
X8704026Y3809168D01*
X8691519Y3830831D01*
X8673831Y3848519D01*
X8652168Y3861026D01*
X8628007Y3867500D01*
D02*
G37*
G36*
X8374007D02*
X8348993D01*
X8324831Y3861026D01*
X8303169Y3848519D01*
X8285481Y3830831D01*
X8272974Y3809168D01*
X8266500Y3785007D01*
Y3759993D01*
X8272974Y3735831D01*
X8285481Y3714169D01*
X8303169Y3696481D01*
X8324831Y3683974D01*
X8348993Y3677500D01*
X8374007D01*
X8398168Y3683974D01*
X8419831Y3696481D01*
X8437519Y3714169D01*
X8450026Y3735831D01*
X8456500Y3759993D01*
Y3785007D01*
X8450026Y3809168D01*
X8437519Y3830831D01*
X8419831Y3848519D01*
X8398168Y3861026D01*
X8374007Y3867500D01*
D02*
G37*
G36*
X8120007D02*
X8094993D01*
X8070831Y3861026D01*
X8049169Y3848519D01*
X8031481Y3830831D01*
X8018974Y3809168D01*
X8012500Y3785007D01*
Y3759993D01*
X8018974Y3735831D01*
X8031481Y3714169D01*
X8049169Y3696481D01*
X8070831Y3683974D01*
X8094993Y3677500D01*
X8120007D01*
X8144168Y3683974D01*
X8165831Y3696481D01*
X8183519Y3714169D01*
X8196026Y3735831D01*
X8202500Y3759993D01*
Y3785007D01*
X8196026Y3809168D01*
X8183519Y3830831D01*
X8165831Y3848519D01*
X8144168Y3861026D01*
X8120007Y3867500D01*
D02*
G37*
G36*
X8969900Y3759800D02*
X8882200D01*
Y3672100D01*
X8882718D01*
X8908253Y3678942D01*
X8931147Y3692160D01*
X8949840Y3710853D01*
X8963058Y3733747D01*
X8969900Y3759282D01*
Y3759800D01*
D02*
G37*
G36*
X8856800D02*
X8769100D01*
Y3759282D01*
X8775942Y3733747D01*
X8789160Y3710853D01*
X8807853Y3692160D01*
X8830747Y3678942D01*
X8856282Y3672100D01*
X8856800D01*
Y3759800D01*
D02*
G37*
%LPD*%
D10*
X8925000Y4465000D02*
D03*
X8075000Y4715000D02*
D03*
Y4615000D02*
D03*
Y5015000D02*
D03*
Y4915001D02*
D03*
Y4965000D02*
D03*
Y4865000D02*
D03*
Y4565001D02*
D03*
Y4665001D02*
D03*
Y4765000D02*
D03*
Y4815001D02*
D03*
Y4465000D02*
D03*
X8925000Y4815001D02*
D03*
Y5015000D02*
D03*
Y4765000D02*
D03*
Y4715000D02*
D03*
Y4665001D02*
D03*
Y4615000D02*
D03*
Y4565001D02*
D03*
Y4865000D02*
D03*
Y4915001D02*
D03*
Y4515000D02*
D03*
Y4965000D02*
D03*
X8075000Y4515000D02*
D03*
D11*
X8475000Y4315000D02*
D03*
X8525000D02*
D03*
X8625000D02*
D03*
X8225000D02*
D03*
X8275000D02*
D03*
X8375000D02*
D03*
X8425000D02*
D03*
X8225000Y5165000D02*
D03*
X8325000D02*
D03*
X8375000D02*
D03*
X8425000D02*
D03*
X8475000D02*
D03*
X8525000D02*
D03*
X8575000D02*
D03*
X8625000D02*
D03*
X8675000D02*
D03*
X8725000D02*
D03*
X8775000D02*
D03*
X8775000Y4315000D02*
D03*
X8725000D02*
D03*
X8675000D02*
D03*
X8325000D02*
D03*
X8275000Y5165000D02*
D03*
X8575000Y4315000D02*
D03*
D12*
X9220000Y4585000D02*
D03*
Y4727500D02*
D03*
X9360000D02*
D03*
Y4585000D02*
D03*
X7372500Y5225000D02*
D03*
X7755000Y5987500D02*
D03*
X7642500D02*
D03*
X7965000Y4355000D02*
D03*
X8682500Y4102500D02*
D03*
X7130000Y6440000D02*
D03*
X7797500Y6842500D02*
D03*
X6787500Y6997500D02*
D03*
X8447500Y5932500D02*
D03*
X8502500Y6410000D02*
D03*
X8900000Y5110000D02*
D03*
X9360000Y5580000D02*
D03*
Y5720000D02*
D03*
X6980000Y5975000D02*
D03*
X8345000Y7087500D02*
D03*
X9400000Y7090000D02*
D03*
X8682500Y3967500D02*
D03*
X10557500Y3677500D02*
D03*
X6927500Y6997500D02*
D03*
X7657500Y6842500D02*
D03*
X7270000Y6440000D02*
D03*
X7502500Y5987500D02*
D03*
X7512500Y5225000D02*
D03*
X7895000Y5987500D02*
D03*
X7172500Y4765000D02*
D03*
X7032500D02*
D03*
X9797500Y5472500D02*
D03*
X9657500D02*
D03*
X9657500Y5615000D02*
D03*
X9797500D02*
D03*
X9657500Y5760000D02*
D03*
X9797500D02*
D03*
X9797500Y5900001D02*
D03*
X9657500D02*
D03*
X9220000Y5012500D02*
D03*
Y4870000D02*
D03*
Y5440000D02*
D03*
X9517500Y7087500D02*
D03*
X9040000Y5110000D02*
D03*
X9260000Y7090000D02*
D03*
X8205000Y7087500D02*
D03*
X8822500Y3967500D02*
D03*
X8927500D02*
D03*
X6840000Y5975000D02*
D03*
X8822500Y4102500D02*
D03*
X8362500Y6410000D02*
D03*
X8587500Y5932500D02*
D03*
X8105000Y4355000D02*
D03*
X9657500Y7087500D02*
D03*
X10417500Y3677500D02*
D03*
X9220000Y5580000D02*
D03*
Y5720000D02*
D03*
X9360000Y4870000D02*
D03*
X9220838Y5154409D02*
D03*
X9220000Y5297500D02*
D03*
X9067500Y3967500D02*
D03*
X9360000Y5297500D02*
D03*
X9360838Y5154409D02*
D03*
X9360000Y5012500D02*
D03*
Y5440000D02*
D03*
D13*
X9092500Y4605000D02*
D03*
Y4762500D02*
D03*
Y4465000D02*
D03*
Y4902500D02*
D03*
X8107500Y5285000D02*
D03*
X7062500Y3692500D02*
D03*
X10495000Y5327500D02*
D03*
X6902500Y4310000D02*
D03*
X7917500Y4020000D02*
D03*
X9227500Y4362500D02*
D03*
X8107500Y5145000D02*
D03*
X7205000Y3832500D02*
D03*
Y3692500D02*
D03*
X7062500Y3832500D02*
D03*
X9227500Y4222500D02*
D03*
X7917500Y3880000D02*
D03*
X7327500Y5490000D02*
D03*
Y5350000D02*
D03*
X9077500Y7010000D02*
D03*
X8947500Y4082500D02*
D03*
X9077500Y6870000D02*
D03*
X6902500Y4170000D02*
D03*
X9170000Y3652500D02*
D03*
Y3792500D02*
D03*
X10495000Y5187500D02*
D03*
X9090000Y4362500D02*
D03*
Y4222500D02*
D03*
X8947500Y4222500D02*
D03*
D14*
X10120000Y4875000D02*
D03*
Y5200000D02*
D03*
Y5135000D02*
D03*
Y5070000D02*
D03*
Y5005000D02*
D03*
X9570000Y5265000D02*
D03*
Y4875000D02*
D03*
Y4940000D02*
D03*
Y5200000D02*
D03*
X10120000Y5265000D02*
D03*
Y4940000D02*
D03*
X9570000Y5005000D02*
D03*
Y5135000D02*
D03*
Y5070000D02*
D03*
X10120000Y4320000D02*
D03*
Y4385000D02*
D03*
Y4515000D02*
D03*
X9570000Y4450000D02*
D03*
Y4190000D02*
D03*
Y4125000D02*
D03*
Y4515000D02*
D03*
X10120000Y4255000D02*
D03*
Y4190000D02*
D03*
Y4450000D02*
D03*
Y4125000D02*
D03*
X9570000Y4385000D02*
D03*
Y4320000D02*
D03*
Y4255000D02*
D03*
D15*
X9845000Y5070000D02*
D03*
Y4320000D02*
D03*
D16*
X8092500Y5449500D02*
D03*
X7502500Y5830500D02*
D03*
Y5703500D02*
D03*
Y5576500D02*
D03*
Y5449500D02*
D03*
X8092500Y5576500D02*
D03*
Y5703500D02*
D03*
Y5830500D02*
D03*
D17*
X8600000Y6170000D02*
D03*
Y6075000D02*
D03*
Y6265000D02*
D03*
X8360000D02*
D03*
Y6075000D02*
D03*
D18*
X8200000Y4022499D02*
D03*
X8560000Y4127500D02*
D03*
Y4022500D02*
D03*
X8200000Y4127500D02*
D03*
D19*
X8332500Y4005000D02*
D03*
D20*
X7897500Y4175000D02*
D03*
X8067500D02*
D03*
D21*
X8435000Y4135000D02*
D03*
Y4005000D02*
D03*
X8335000Y4135000D02*
D03*
D22*
X7735000Y6385000D02*
D03*
X8024999D02*
D03*
D23*
X10466998Y4506998D02*
D03*
X7529498Y6301998D02*
D03*
X7430503Y6203003D02*
D03*
X7389498Y6346997D02*
D03*
X7290503Y6248002D02*
D03*
X10368003Y4408002D02*
D03*
D24*
X9340000Y5895000D02*
D03*
X9245000Y6135000D02*
D03*
Y5895000D02*
D03*
X9435000Y6135000D02*
D03*
Y5895000D02*
D03*
D25*
X9632500Y6420000D02*
D03*
Y6130000D02*
D03*
D26*
X9342500Y6357500D02*
D03*
X8910500D02*
D03*
D27*
X10458995Y4171005D02*
D03*
X10466998Y4938003D02*
D03*
X10368003Y5036998D02*
D03*
X10360000Y4270000D02*
D03*
D28*
X10050000Y5757500D02*
D03*
Y5472500D02*
D03*
Y5615000D02*
D03*
Y5900001D02*
D03*
X9900000D02*
D03*
Y5615000D02*
D03*
Y5472500D02*
D03*
Y5757500D02*
D03*
D29*
X9167500Y3997500D02*
D03*
X9422500D02*
D03*
X9167500Y4116500D02*
D03*
X9422500D02*
D03*
D30*
X7677500Y5257500D02*
D03*
X7937500D02*
D03*
D31*
X6832500Y6720000D02*
D03*
Y6410000D02*
D03*
D32*
X8927500Y6117500D02*
D03*
Y5812500D02*
D03*
D33*
X9000000Y5580000D02*
D03*
X8690000D02*
D03*
D34*
X7242500Y5350000D02*
X7327500D01*
X6985000Y5487500D02*
X7105000D01*
X7242500Y5350000D01*
X9040000Y5090000D02*
X9071934Y5058066D01*
X9081935D01*
X9040000Y5090000D02*
Y5110000D01*
Y5095000D02*
Y5110000D01*
X9081935Y5058066D02*
X9090000Y5050000D01*
X9102500Y4965000D02*
X9107500Y4960001D01*
X9092500Y4902500D02*
X9107500Y4917500D01*
Y4960001D01*
X9117500Y5187500D02*
X9165000Y5140000D01*
X8775000Y5165000D02*
Y5187500D01*
X9117500D01*
X8925000Y4965000D02*
X9102500D01*
X8402500Y5592500D02*
X8475000Y5520000D01*
X8092500Y5576500D02*
X8108500Y5592500D01*
X8402500D01*
X7290000Y6712500D02*
Y6772500D01*
X6798221Y5674280D02*
X6985000Y5487500D01*
X6798221Y5674280D02*
Y5720279D01*
X6781000Y5737500D02*
X6798221Y5720279D01*
X6781000Y5737500D02*
Y5896000D01*
X6840000Y5955000D02*
Y5975000D01*
X6781000Y5896000D02*
X6840000Y5955000D01*
X8036930Y5158070D02*
X8094430D01*
X7937500Y5257500D02*
X8036930Y5158070D01*
X8094430D02*
X8107500Y5145000D01*
X8225000D02*
Y5165000D01*
X8107500Y5145000D02*
X8225000D01*
X8325000Y5080074D02*
Y5165000D01*
X8307427Y5062500D02*
X8325000Y5080074D01*
X7993324Y5087500D02*
X8018324Y5062500D01*
X8307427D01*
X7982500Y5087500D02*
X7993324D01*
X7502500Y5830500D02*
Y5987500D01*
X10164176Y5872500D02*
X10175000D01*
X10136675Y5900001D02*
X10164176Y5872500D01*
X10050000Y5900001D02*
X10136675D01*
X7205000Y6577500D02*
Y6712500D01*
X7800000Y6577500D02*
Y6712500D01*
X7946481Y6571019D02*
Y6664020D01*
X8024999Y6385000D02*
Y6492501D01*
X7935000Y6675500D02*
Y7013500D01*
X7946481Y6571019D02*
X8024999Y6492501D01*
X7935000Y6675500D02*
X7946481Y6664020D01*
X8360000Y6265000D02*
X8362500Y6267500D01*
X8234500Y5830500D02*
X8525000Y5540000D01*
X8092500Y5830500D02*
X8234500D01*
X8525000Y5165000D02*
Y5540000D01*
X8475000Y5165000D02*
Y5520000D01*
X6909926Y4112574D02*
Y4162574D01*
X6902500Y4170000D02*
X6909926Y4162574D01*
X6998000Y4024500D02*
X7107500D01*
X6909926Y4112574D02*
X6998000Y4024500D01*
X9090000Y4765000D02*
X9092500Y4762500D01*
X8925000Y4765000D02*
X9090000D01*
X9014999Y4715000D02*
X9067574Y4662426D01*
Y4620000D02*
X9082574Y4605000D01*
X9067574Y4620000D02*
Y4662426D01*
X9082574Y4605000D02*
X9205000D01*
X8925000Y4715000D02*
X9014999D01*
X9092500Y4762500D02*
X9112500D01*
X9145000Y4730000D01*
X9217500D01*
X9220000Y4727500D01*
X9025000Y5045000D02*
Y5095000D01*
X9165000Y5070000D02*
Y5140000D01*
Y5070000D02*
X9187500Y5047500D01*
X9220000Y4585000D02*
Y4590000D01*
X9205000Y4605000D02*
X9220000Y4590000D01*
X8575000Y4142500D02*
Y4315000D01*
X7797500Y6842500D02*
X7798750Y6841250D01*
Y6713750D02*
Y6841250D01*
Y6713750D02*
X7800000Y6712500D01*
X8560000Y4127500D02*
X8575000Y4142500D01*
X8560000Y4127500D02*
X8667500D01*
X8682500Y4112500D01*
Y4102500D02*
Y4112500D01*
X10211676Y4472500D02*
X10222500D01*
X10125000Y4455000D02*
X10194175D01*
X10211676Y4472500D01*
X9375000Y4565000D02*
X9467500D01*
X9360000Y4580000D02*
X9375000Y4565000D01*
X10120000Y4450000D02*
X10125000Y4455000D01*
X9360000Y4580000D02*
Y4585000D01*
X10120000Y5200000D02*
X10234176D01*
X10276676Y5242500D02*
X10287500D01*
X10234176Y5200000D02*
X10276676Y5242500D01*
X9442346Y4667654D02*
X9450000Y4660000D01*
X9399846Y4667654D02*
X9442346D01*
X9348770Y4718729D02*
X9399846Y4667654D01*
X8782654Y4724847D02*
X8842499Y4665001D01*
X8725153Y4724847D02*
X8782654D01*
X8717500Y4732500D02*
X8725153Y4724847D01*
X8647500Y4767500D02*
X8685000Y4805000D01*
X8647500Y4650000D02*
X8732499Y4565001D01*
X8647500Y4650000D02*
Y4767500D01*
X8685000Y4805000D02*
X8797500D01*
X8842499Y4665001D02*
X8925000D01*
X9107500Y5297500D02*
X9220000D01*
X9220419Y5297081D01*
Y5154828D02*
Y5297081D01*
Y5154828D02*
X9220838Y5154409D01*
X8870000Y4465000D02*
X8925000D01*
X8870000Y4438324D02*
Y4465000D01*
X8855000Y4423324D02*
X8870000Y4438324D01*
X8855000Y4412500D02*
Y4423324D01*
X8845000Y4270000D02*
X8855824D01*
X8880824Y4295000D02*
X9002500D01*
X8855824Y4270000D02*
X8880824Y4295000D01*
X9002500D02*
X9070000Y4362500D01*
X8775000Y4342500D02*
X8909176D01*
X8775000Y4315000D02*
Y4342500D01*
X8909176D02*
X8954176Y4387500D01*
X8965000D01*
X8830000Y4515000D02*
X8925000D01*
X8807500Y4492500D02*
X8830000Y4515000D01*
X8797500Y4492500D02*
X8807500D01*
X8732499Y4565001D02*
X8925000D01*
X8667500Y4525000D02*
X8675154Y4517347D01*
Y4479847D02*
Y4517347D01*
Y4479847D02*
X8725000Y4430000D01*
Y4315000D02*
Y4430000D01*
X8575000Y4512500D02*
X8675000Y4412500D01*
Y4315000D02*
Y4412500D01*
X8835000Y4865000D02*
X8925000D01*
X8720000Y4980000D02*
X8835000Y4865000D01*
X8507500Y4436676D02*
Y4447500D01*
X8525000Y4315000D02*
Y4419176D01*
X8507500Y4436676D02*
X8525000Y4419176D01*
X8375000Y4590000D02*
X8422500Y4637500D01*
X8375000Y4315000D02*
Y4590000D01*
X8472499Y4715000D02*
X8477500Y4710000D01*
X8075000Y4715000D02*
X8472499D01*
X8272500Y4496863D02*
X8325000Y4444363D01*
X8272500Y4496863D02*
Y4505000D01*
X8325000Y4315000D02*
Y4444363D01*
X8196676Y4642500D02*
X8202088D01*
X8220509Y4439847D02*
X8275000Y4385355D01*
Y4315000D02*
Y4385355D01*
X8207654Y4439847D02*
X8220509D01*
X8200000Y4447500D02*
X8207654Y4439847D01*
X8765824Y4650000D02*
X8800824Y4615000D01*
X8925000D01*
X8755000Y4650000D02*
X8765824D01*
X9157500Y5455000D02*
X9205000D01*
X9220000Y5440000D01*
X8075000Y4615000D02*
X8169176D01*
X8196676Y4642500D01*
X8355000Y4800000D02*
X8522500D01*
X8320000Y4765000D02*
X8355000Y4800000D01*
X8075000Y4765000D02*
X8320000D01*
X8667145Y4202500D02*
X8742500D01*
X8625000Y4244645D02*
X8667145Y4202500D01*
X8625000Y4244645D02*
Y4315000D01*
X7290000Y6577500D02*
Y6712500D01*
X7200500Y6862000D02*
X7290000Y6772500D01*
X6978000Y6862000D02*
X7200500D01*
X6832500Y6720000D02*
X6836000D01*
X6978000Y6862000D01*
X7042284Y6997500D02*
X7070000Y6969784D01*
X6927500Y6997500D02*
X7042284D01*
X7313002Y5518003D02*
Y5518003D01*
X7333505Y5497500D02*
X7403000D01*
X7450000Y5449500D02*
X7502500D01*
X7422500Y5477000D02*
X7450000Y5449500D01*
X7422500Y5477000D02*
Y5478000D01*
X7403000Y5497500D02*
X7422500Y5478000D01*
X7313002Y5518003D02*
X7333505Y5497500D01*
X7262500Y5568505D02*
X7313002Y5518003D01*
X7290503Y6230134D02*
X7325563Y6195073D01*
Y6119859D02*
Y6195073D01*
X7262500Y6056796D02*
X7325563Y6119859D01*
X7290503Y6230134D02*
Y6248002D01*
X7262500Y5568505D02*
Y6056796D01*
X7362500Y5567500D02*
X7493500D01*
X7502500Y5576500D01*
X7332500Y5597500D02*
X7362500Y5567500D01*
X7332500Y5597500D02*
Y6027801D01*
X7430503Y6191668D02*
Y6203003D01*
X7395563Y6156729D02*
X7430503Y6191668D01*
X7395563Y6090864D02*
Y6156729D01*
X7332500Y6027801D02*
X7395563Y6090864D01*
X7070000Y7013500D02*
X7935000D01*
X8995001Y5015000D02*
X9025000Y5045000D01*
Y5095000D02*
X9030000Y5100000D01*
X8425000Y4235000D02*
Y4315000D01*
X8235000Y4207500D02*
X8397500D01*
X8425000Y4235000D01*
X8475000Y4225000D02*
Y4315000D01*
X8492500Y4022500D02*
Y4207500D01*
X8475000Y4225000D02*
X8492500Y4207500D01*
X7745824Y5015000D02*
X8075000D01*
X7980001Y4815001D02*
X8075000D01*
X7870000Y4705000D02*
X7980001Y4815001D01*
X7612333Y4915001D02*
X8075000D01*
X7980824Y4665001D02*
X8075000D01*
X7950000Y4685000D02*
X7960824D01*
X7980824Y4665001D01*
X8225000Y4315000D02*
Y4355000D01*
X8105000D02*
X8225000D01*
X8742500Y4202500D02*
X8822500Y4122500D01*
X8075000Y4465000D02*
X8105000D01*
Y4355000D02*
Y4465000D01*
X7990824Y4565001D02*
X8075000D01*
X7962500Y4865000D02*
X8075000D01*
X7757500Y4660000D02*
X7962500Y4865000D01*
X7584001Y4965000D02*
X8075000D01*
X7407500Y4788500D02*
X7584001Y4965000D01*
X7698324Y5062500D02*
X7745824Y5015000D01*
X7687500Y5062500D02*
X7698324D01*
X7602500D02*
X7687500D01*
X8925000Y5015000D02*
X8995001D01*
X7960824Y4595000D02*
X7990824Y4565001D01*
X7950000Y4595000D02*
X7960824D01*
X7610000Y4660000D02*
X7757500D01*
X7542500Y4592500D02*
X7610000Y4660000D01*
X7542500Y4382500D02*
Y4592500D01*
X7440500Y4280500D02*
X7542500Y4382500D01*
X7407500Y4280500D02*
X7440500D01*
X8822500Y4102500D02*
Y4122500D01*
X7535000Y4837667D02*
X7612333Y4915001D01*
X7535000Y4662000D02*
Y4837667D01*
X7407500Y4534500D02*
X7535000Y4662000D01*
X7870000Y4505000D02*
Y4705000D01*
X7772500Y4407500D02*
X7870000Y4505000D01*
X7655000Y4407500D02*
X7772500D01*
X7532500Y4285000D02*
X7655000Y4407500D01*
X7532500Y4151500D02*
Y4285000D01*
X7407500Y4026500D02*
X7532500Y4151500D01*
X8203398Y4175898D02*
X8235000Y4207500D01*
X8203398Y4130898D02*
Y4175898D01*
X8200000Y4127500D02*
X8203398Y4130898D01*
X7375000Y6510000D02*
Y6577500D01*
X7270000Y6440000D02*
Y6450000D01*
X7285000Y6465000D01*
X7330000D01*
X7375000Y6510000D01*
X7630000Y6712500D02*
Y6795000D01*
X7657500Y6822500D01*
Y6842500D01*
X7715000Y6577500D02*
Y6712500D01*
X9582500Y5875000D02*
X9642500D01*
X9375000Y5475000D02*
X9427500D01*
X9434847Y5217346D02*
X9442500Y5225000D01*
X9512500Y5195000D02*
X9557500D01*
X9447500Y5130000D02*
X9512500Y5195000D01*
X9375000Y5317500D02*
X9430000D01*
X9385000Y6550000D02*
X9386500Y6548500D01*
X9162500Y6870000D02*
X9250000Y6782500D01*
X9242983Y6956151D02*
X9253807D01*
X9386500Y6548500D02*
X9873500D01*
X9015000Y6547500D02*
X9250000Y6782500D01*
X9180000Y3642500D02*
X9547500D01*
X9677500Y3772500D02*
X9931500D01*
X9547500Y3642500D02*
X9677500Y3772500D01*
X9170000Y3652500D02*
X9180000Y3642500D01*
X9557500Y5195000D02*
X9566250Y5203750D01*
X9342426Y4192574D02*
X9350000Y4185000D01*
X9342426Y4192574D02*
Y4459926D01*
X9390000Y4282574D02*
X9482574Y4190000D01*
X9390000Y4365000D02*
X9430000Y4405000D01*
X9390000Y4282574D02*
Y4365000D01*
X7260000Y3965000D02*
Y4867500D01*
X7200000Y3905000D02*
X7260000Y3965000D01*
Y4867500D02*
X7310000Y4917500D01*
X7457500D02*
X7602500Y5062500D01*
X7310000Y4917500D02*
X7457500D01*
X7172500Y4665000D02*
Y4765000D01*
X7047500Y4610074D02*
X7107500Y4550073D01*
X7047500Y4610074D02*
Y4750000D01*
X7107500Y4532500D02*
Y4550073D01*
X7032500Y4765000D02*
X7047500Y4750000D01*
X7135000Y3905000D02*
X7200000D01*
X7097500Y3867500D02*
X7135000Y3905000D01*
X7097500Y3847500D02*
Y3867500D01*
X7082500Y3832500D02*
X7097500Y3847500D01*
X7062500Y3832500D02*
X7082500D01*
X7567500Y3632500D02*
X7707500Y3772500D01*
X7285000Y3632500D02*
X7567500D01*
X7225000Y3692500D02*
X7285000Y3632500D01*
X7205000Y3692500D02*
X7225000D01*
X7580000Y3982500D02*
Y4153000D01*
X7497500Y3900000D02*
X7580000Y3982500D01*
Y4153000D02*
X7707500Y4280500D01*
X7292500Y3900000D02*
X7497500D01*
X7225000Y3832500D02*
X7292500Y3900000D01*
X7205000Y3832500D02*
X7225000D01*
X9873500Y6548500D02*
X9947500Y6622500D01*
Y6907500D01*
X10441859Y5131839D02*
X10449512Y5139492D01*
Y5162013D01*
X10475000Y5187500D01*
X10495000D01*
X9642500Y5643482D02*
X9657500Y5628482D01*
X9602342Y5643482D02*
X9642500D01*
X9657500Y5615000D02*
Y5628482D01*
X9565824Y5680000D02*
X9602342Y5643482D01*
X9555000Y5680000D02*
X9565824D01*
X9657500Y5890000D02*
Y5900001D01*
X9642500Y5875000D02*
X9657500Y5890000D01*
X9797501Y5615000D02*
X9900000D01*
X9797500Y5472500D02*
X9900000D01*
X9800000Y5757500D02*
X9900000D01*
X9797500Y5760000D02*
X9800000Y5757500D01*
X9797500Y5900001D02*
X9900000D01*
X9077500Y3977500D02*
Y4090000D01*
X9067500Y3967500D02*
X9077500Y3977500D01*
Y4090000D02*
X9085000Y4097500D01*
X9221074Y4115000D02*
X9421000D01*
X9422500Y4116500D01*
X9167500Y4115000D02*
Y4116500D01*
Y4115000D02*
X9227500D01*
X9057500Y3795000D02*
X9058750Y3793750D01*
X9168750D01*
X9170000Y3792500D01*
X9227500Y4115000D02*
Y4222500D01*
X9090000D02*
X9206074D01*
X9227500D01*
X9090000Y4222500D02*
X9090000Y4222500D01*
X8947500Y4222500D02*
X9090000D01*
X8492500Y4022500D02*
X8560000D01*
X8452500D02*
X8492500D01*
X8200000Y4127500D02*
X8203750Y4131250D01*
X8331250D01*
X8335000Y4135000D01*
X8435000Y4005000D02*
X8452500Y4022500D01*
X7843930Y3890070D02*
X7907430D01*
X7917500Y3880000D01*
X7707500Y4026500D02*
X7843930Y3890070D01*
X9235122Y6964012D02*
X9242983Y6956151D01*
X9112500Y6981586D02*
Y6995000D01*
X9130074Y6964012D02*
X9235122D01*
X9097500Y7010000D02*
X9112500Y6995000D01*
Y6981586D02*
X9130074Y6964012D01*
X9077500Y7010000D02*
X9097500D01*
X9256904Y6959247D02*
Y7069898D01*
X9260000D02*
Y7090000D01*
X9330000Y7180000D02*
X9437500D01*
X9495000Y7122500D01*
X9265000Y7115000D02*
X9330000Y7180000D01*
X9495000Y7122500D02*
X9502500D01*
X9517500Y7087500D02*
Y7107500D01*
X9502500Y7122500D02*
X9517500Y7107500D01*
X9693500Y6907500D02*
Y7031500D01*
X9657500Y7067500D02*
X9693500Y7031500D01*
X9657500Y7067500D02*
Y7087500D01*
X8204500Y6653500D02*
X8204750Y6653750D01*
Y7087250D01*
X8205000Y7087500D01*
X9077500Y6870000D02*
X9162500D01*
X8564500Y6547500D02*
X9015000D01*
X9250000Y6782500D02*
X9437500D01*
X9442346Y4807654D02*
X9450000Y4800000D01*
X9402346Y4807654D02*
X9442346D01*
X9460000Y4480000D02*
X9490000Y4450000D01*
X10197182Y4235318D02*
X10249682D01*
X10125000Y4250000D02*
X10182500D01*
X10120000Y4255000D02*
X10125000Y4250000D01*
X10182500D02*
X10197182Y4235318D01*
X10249682D02*
X10250000Y4235000D01*
X10279847Y4157654D02*
X10287500Y4150000D01*
X10181676Y4185000D02*
X10209023Y4157654D01*
X10120000Y4190000D02*
X10125000Y4185000D01*
X10181676D01*
X10209023Y4157654D02*
X10279847D01*
X9482574Y4190000D02*
X9570000D01*
X9490000Y4450000D02*
X9570000D01*
X9362500Y4480000D02*
X9460000D01*
X9342426Y4459926D02*
X9362500Y4480000D01*
X9447500Y4897500D02*
X9458324D01*
X9375000Y5040000D02*
X9442500D01*
X10125000Y4935000D02*
X10181005D01*
X10120000Y4940000D02*
X10125000Y4935000D01*
X10181005D02*
X10196005Y4920000D01*
X10300000D01*
X10213750Y5001250D02*
X10217500Y4997500D01*
X10120000Y5005000D02*
X10123750Y5001250D01*
X10213750D01*
X9360000Y5297500D02*
X9375000Y5312500D01*
Y5317500D01*
X9458324Y4897500D02*
X9495824Y4935000D01*
X9565000D01*
X9570000Y4940000D01*
X9360000Y4850000D02*
Y4870000D01*
Y4850000D02*
X9402346Y4807654D01*
X9360000Y5012500D02*
Y5025000D01*
X9375000Y5040000D01*
X9360838Y5174409D02*
X9403775Y5217346D01*
X9434847D01*
X9360838Y5154409D02*
Y5174409D01*
X9220000Y4870000D02*
Y5032500D01*
X9205000Y5047500D02*
X9220000Y5032500D01*
X9187500Y5047500D02*
X9205000D01*
X8067500Y4175000D02*
X8105000Y4212500D01*
Y4355000D01*
X8035000Y4142500D02*
X8067500Y4175000D01*
X8458500Y6653500D02*
X8564500Y6547500D01*
X9437500Y6782500D02*
X9566500Y6653500D01*
X9360000Y5440000D02*
Y5460000D01*
X9375000Y5475000D01*
X9070000Y4362500D02*
X9090000D01*
D35*
X7677500Y5257500D02*
X7678750Y5258750D01*
X7661250Y5241250D02*
X7677500Y5257500D01*
X6892500Y6217500D02*
Y6217500D01*
X8671173Y6356173D02*
X8675000Y6360000D01*
X8671173Y6321173D02*
Y6356173D01*
X8615000Y6265000D02*
X8671173Y6321173D01*
X8600000Y6265000D02*
X8615000D01*
X7895000Y5987500D02*
X8092500D01*
X7506000Y5700000D02*
X7680000D01*
Y5260000D02*
Y5700000D01*
X7890000Y5982500D02*
X7895000Y5987500D01*
X7890000Y5910000D02*
Y5982500D01*
X7680000Y5700000D02*
X7890000Y5910000D01*
X6832500Y6277500D02*
X6892500Y6217500D01*
X6832500Y6277500D02*
Y6410000D01*
X7517500Y5241250D02*
X7661250D01*
X7512500Y5236250D02*
X7517500Y5241250D01*
X7512500Y5225000D02*
Y5236250D01*
X7937500Y5652500D02*
X7981000Y5696000D01*
X7937500Y5257500D02*
Y5652500D01*
X7981000Y5696000D02*
X8085000D01*
X8092500Y5703500D01*
X9555000Y5760000D02*
X9657500D01*
X9455000Y5860000D02*
X9555000Y5760000D01*
X10417500Y3677500D02*
Y3697500D01*
X10342500Y3772500D02*
X10417500Y3697500D01*
X10185500Y3772500D02*
X10342500D01*
X9570000Y5565000D02*
X9573827Y5561173D01*
Y5533673D02*
Y5561173D01*
Y5533673D02*
X9610000Y5497500D01*
X9652500D01*
X9657500Y5472500D02*
Y5492500D01*
X9652500Y5497500D02*
X9657500Y5492500D01*
X9440000Y5860000D02*
X9455000D01*
X9435000Y5865000D02*
X9440000Y5860000D01*
X9435000Y5865000D02*
Y5895000D01*
X8035000Y4045000D02*
Y4142500D01*
D36*
X8204500Y6653500D02*
X8362500Y6495500D01*
Y6410000D02*
Y6495500D01*
Y6267500D02*
Y6410000D01*
D37*
X8332500Y4005000D02*
Y4017500D01*
X8412500Y4097500D02*
Y4112500D01*
X8332500Y4017500D02*
X8412500Y4097500D01*
Y4112500D02*
X8435000Y4135000D01*
X7532500Y6395148D02*
Y6543284D01*
X7515355Y6378003D02*
X7532500Y6395148D01*
X7515355Y6316140D02*
X7529498Y6301998D01*
X7515355Y6316140D02*
Y6378003D01*
X7532500Y6543284D02*
X7536390Y6547174D01*
Y6568890D01*
X7545000Y6577500D01*
X7389498Y6346997D02*
X7399498D01*
X7472500Y6420000D01*
X7468611Y6547174D02*
X7472500Y6543284D01*
Y6420000D02*
Y6543284D01*
X7468611Y6547174D02*
Y6568890D01*
X7460000Y6577500D02*
X7468611Y6568890D01*
Y6611110D02*
X7536390Y6678890D01*
X7468611Y6586111D02*
Y6611110D01*
X7536390Y6703890D02*
X7545000Y6712500D01*
X7536390Y6678890D02*
Y6703890D01*
X7460000Y6577500D02*
X7468611Y6586111D01*
D38*
X10480000Y6207500D02*
D03*
Y6707500D02*
D03*
D39*
X10742500Y4037500D02*
D03*
X10742500Y4952500D02*
D03*
X7107500Y4278500D02*
D03*
X8869500Y3772500D02*
D03*
X10742500Y4237500D02*
D03*
Y4437500D02*
D03*
X10942500D02*
D03*
Y4237500D02*
D03*
Y4037500D02*
D03*
X10742500Y5152500D02*
D03*
Y5352500D02*
D03*
X10942500D02*
D03*
Y5152500D02*
D03*
Y4952500D02*
D03*
X7107500Y4532500D02*
D03*
Y4024500D02*
D03*
X8615500Y3772500D02*
D03*
X8361500D02*
D03*
X8107500D02*
D03*
D40*
X7205000Y6712500D02*
D03*
Y6577500D02*
D03*
X7800000Y6712500D02*
D03*
Y6577500D02*
D03*
X7460000D02*
D03*
X7545000Y6712500D02*
D03*
Y6577500D02*
D03*
X7460000Y6712500D02*
D03*
X7290000Y6577500D02*
D03*
X7375000D02*
D03*
X7630000D02*
D03*
X7715000D02*
D03*
Y6712500D02*
D03*
X7630000D02*
D03*
X7375000D02*
D03*
X7290000D02*
D03*
D41*
X7035000Y5610500D02*
D03*
X8331500Y6907500D02*
D03*
X9439500D02*
D03*
X7035000Y5102500D02*
D03*
X9312500Y6653500D02*
D03*
X8204500D02*
D03*
X6781000Y5737500D02*
D03*
Y5483500D02*
D03*
X7035000Y5356500D02*
D03*
X6781000Y5229500D02*
D03*
X9947500Y6907500D02*
D03*
X9820500Y6653500D02*
D03*
X9693500Y6907500D02*
D03*
X9566500Y6653500D02*
D03*
X8458500D02*
D03*
X8585500Y6907500D02*
D03*
X8712500Y6653500D02*
D03*
X8839500Y6907500D02*
D03*
D42*
X7707500Y4788500D02*
D03*
Y4280500D02*
D03*
Y4026500D02*
D03*
Y4534500D02*
D03*
X7407500Y4280500D02*
D03*
Y4534500D02*
D03*
Y4026500D02*
D03*
Y3772500D02*
D03*
D43*
X9423500D02*
D03*
X9931500D02*
D03*
X9677500D02*
D03*
D44*
X7070000Y6675500D02*
D03*
X7935000D02*
D03*
D45*
X7070000Y7013500D02*
D03*
X7935000D02*
D03*
D46*
X10185500Y3772500D02*
D03*
D47*
X7707500D02*
D03*
X7407500Y4788500D02*
D03*
D48*
X8436452Y5753679D02*
D03*
X8957500Y5257500D02*
D03*
X9090000Y5050000D02*
D03*
X9107500Y4960001D02*
D03*
X7190000Y5232500D02*
D03*
X8330000Y5522500D02*
D03*
X7612500Y7160000D02*
D03*
X7260000D02*
D03*
X6645000Y6555000D02*
D03*
Y6192500D02*
D03*
Y5760000D02*
D03*
X6640000Y5067500D02*
D03*
X7167500Y4887500D02*
D03*
X7422500Y4992500D02*
D03*
X7805000Y5252500D02*
D03*
X7922500Y5780000D02*
D03*
X7410000Y5935000D02*
D03*
X7212500Y5512500D02*
D03*
X7180000Y5697500D02*
D03*
Y5797500D02*
D03*
Y5897500D02*
D03*
Y5997500D02*
D03*
Y5597500D02*
D03*
X7215000Y6175000D02*
D03*
X7160000Y6312500D02*
D03*
X7550000Y6147500D02*
D03*
X7635000Y6235000D02*
D03*
X7620000Y6447500D02*
D03*
X8287500Y5307500D02*
D03*
X11099997Y7049998D02*
D03*
Y6749998D02*
D03*
Y6449998D02*
D03*
Y6149998D02*
D03*
Y4649999D02*
D03*
X11024996Y6899998D02*
D03*
Y6599998D02*
D03*
X10949997Y6449998D02*
D03*
Y6149998D02*
D03*
X11024996Y5999998D02*
D03*
X10799997Y7049998D02*
D03*
X10874997Y6899998D02*
D03*
X10799997Y6749998D02*
D03*
X10874997Y6599998D02*
D03*
X10799997Y6449998D02*
D03*
X10874997Y6299998D02*
D03*
X10799997Y6149998D02*
D03*
X10874997Y5999998D02*
D03*
X10649997Y7049998D02*
D03*
X10724997Y6899998D02*
D03*
Y6599998D02*
D03*
Y5699998D02*
D03*
X10499997Y7049998D02*
D03*
X10574997Y6899998D02*
D03*
Y5699998D02*
D03*
X10349997Y7049998D02*
D03*
X10199997D02*
D03*
X10274997Y6899998D02*
D03*
Y6599998D02*
D03*
X10199997Y6449998D02*
D03*
X10049997Y7049998D02*
D03*
Y6449998D02*
D03*
X8750000Y5672500D02*
D03*
X8660000D02*
D03*
X6892500Y6217500D02*
D03*
X8675000Y6360000D02*
D03*
X7937500Y5652500D02*
D03*
X8092500Y5987500D02*
D03*
X7680000Y5700000D02*
D03*
X7982500Y5087500D02*
D03*
X10175000Y5872500D02*
D03*
X9167500Y4462500D02*
D03*
X8567918Y4192705D02*
D03*
X9480000Y4327500D02*
D03*
X6640000Y4700000D02*
D03*
X8155000Y3922500D02*
D03*
X8205000Y4965000D02*
D03*
X8145000Y6410000D02*
D03*
X9797500Y4295000D02*
D03*
X9897500D02*
D03*
X9792500Y5032500D02*
D03*
Y4932500D02*
D03*
X9892500D02*
D03*
Y5032500D02*
D03*
X9840000Y6310000D02*
D03*
Y6427500D02*
D03*
X9897500Y4195000D02*
D03*
X9797500D02*
D03*
X10385000Y5305000D02*
D03*
X10175000Y5472500D02*
D03*
Y5757500D02*
D03*
Y5615000D02*
D03*
X10555000Y4450000D02*
D03*
X10552500Y4547500D02*
D03*
X10595000Y4030000D02*
D03*
X10512500Y4095000D02*
D03*
X10600000Y4947500D02*
D03*
X10585000Y5305000D02*
D03*
X7342500Y6890000D02*
D03*
X6640000Y3665000D02*
D03*
Y4145000D02*
D03*
Y4452500D02*
D03*
X8795000Y5030000D02*
D03*
X7862500Y4355000D02*
D03*
X7915000Y3745000D02*
D03*
X6917500Y3665000D02*
D03*
X9242500Y4017500D02*
D03*
X10675000Y3662500D02*
D03*
X11127500Y3685000D02*
D03*
X11132287Y4466241D02*
D03*
X11120000Y5057500D02*
D03*
X11121222Y5757982D02*
D03*
X9335000Y6195000D02*
D03*
X9116500Y6500000D02*
D03*
X8717332Y6451571D02*
D03*
X9185000Y6357500D02*
D03*
X9460000Y5715000D02*
D03*
X10222500Y4472500D02*
D03*
X9467500Y4565000D02*
D03*
X10287500Y5242500D02*
D03*
X9450000Y4660000D02*
D03*
X8797500Y4805000D02*
D03*
X8717500Y4732500D02*
D03*
X9107500Y5297500D02*
D03*
X8855000Y4412500D02*
D03*
X8845000Y4270000D02*
D03*
X8965000Y4387500D02*
D03*
X8797500Y4492500D02*
D03*
X8720000Y4980000D02*
D03*
X8667500Y4525000D02*
D03*
X8575000Y4512500D02*
D03*
X8507500Y4447500D02*
D03*
X8422500Y4637500D02*
D03*
X8477500Y4710000D02*
D03*
X8272500Y4505000D02*
D03*
X8200000Y4447500D02*
D03*
X8202088Y4642500D02*
D03*
X8755000Y4650000D02*
D03*
X8847500Y4035000D02*
D03*
X9157500Y5455000D02*
D03*
X8522500Y4800000D02*
D03*
X9582500Y5875000D02*
D03*
X9427500Y5475000D02*
D03*
X9442500Y5225000D02*
D03*
X9430000Y5317500D02*
D03*
X10005000Y5330000D02*
D03*
X9905000D02*
D03*
X10102983Y4810235D02*
D03*
X10005000Y4810000D02*
D03*
X10005000Y4580000D02*
D03*
X10105000D02*
D03*
X9447500Y5130000D02*
D03*
X9385000Y6550000D02*
D03*
X9253807Y6956151D02*
D03*
X9350000Y4185000D02*
D03*
X7172850Y4667728D02*
D03*
X7950000Y4595000D02*
D03*
Y4685000D02*
D03*
X10441859Y5131839D02*
D03*
X10463955Y4333228D02*
D03*
X10595000Y4260000D02*
D03*
X10597500Y5152500D02*
D03*
X9570000Y5565000D02*
D03*
X9555000Y5680000D02*
D03*
X9085000Y4097500D02*
D03*
X9057500Y3795000D02*
D03*
X9910000Y6162500D02*
D03*
X9810000D02*
D03*
X9910000Y6065000D02*
D03*
X9810000D02*
D03*
X10010000D02*
D03*
X10110000D02*
D03*
X10010000Y6162500D02*
D03*
X10110000D02*
D03*
X9805000Y4810000D02*
D03*
X9902983Y4810235D02*
D03*
X9705000Y4580000D02*
D03*
X9805000D02*
D03*
X9905000D02*
D03*
X9450000Y4800000D02*
D03*
X9430000Y4405000D02*
D03*
X9447500Y4897500D02*
D03*
X9442500Y5040000D02*
D03*
X10287500Y4150000D02*
D03*
X10250000Y4235000D02*
D03*
X10300000Y4920000D02*
D03*
X10217500Y4997500D02*
D03*
X9705000Y4810000D02*
D03*
X10105000Y5330000D02*
D03*
X9805000D02*
D03*
X9705000Y4060000D02*
D03*
X9805000D02*
D03*
X10005000D02*
D03*
X10105000D02*
D03*
X9905000D02*
D03*
X7687500Y5062500D02*
D03*
X8035000Y4045000D02*
D03*
%TF.MD5,5131d877f59dccd2e3e9ffe4476ef1f1*%
M02*
