%TF.GenerationSoftware,Altium Limited,Altium Designer,26.2.0 (7)*%
G04 Layer_Physical_Order=2*
G04 Layer_Color=36540*
%FSLAX45Y45*%
%MOMM*%
%TF.SameCoordinates,00FDB721-44CF-4368-98B2-66699BB62886*%
%TF.FilePolarity,Positive*%
%TF.FileFunction,Copper,L2,Inr,Signal*%
%TF.Part,Single*%
G01*
G75*
%TA.AperFunction,ComponentPad*%
%ADD38C,3.00000*%
%ADD39C,1.50000*%
%ADD40C,0.65000*%
%ADD41C,1.20000*%
%ADD42C,1.60000*%
%ADD43C,1.55000*%
G04:AMPARAMS|DCode=44|XSize=0.9mm|YSize=2.4mm|CornerRadius=0.45mm|HoleSize=0mm|Usage=FLASHONLY|Rotation=0.000|XOffset=0mm|YOffset=0mm|HoleType=Round|Shape=RoundedRectangle|*
%AMROUNDEDRECTD44*
21,1,0.90000,1.50000,0,0,0.0*
21,1,0.00000,2.40000,0,0,0.0*
1,1,0.90000,0.00000,-0.75000*
1,1,0.90000,0.00000,-0.75000*
1,1,0.90000,0.00000,0.75000*
1,1,0.90000,0.00000,0.75000*
%
%ADD44ROUNDEDRECTD44*%
G04:AMPARAMS|DCode=45|XSize=0.9mm|YSize=1.7mm|CornerRadius=0.45mm|HoleSize=0mm|Usage=FLASHONLY|Rotation=0.000|XOffset=0mm|YOffset=0mm|HoleType=Round|Shape=RoundedRectangle|*
%AMROUNDEDRECTD45*
21,1,0.90000,0.80000,0,0,0.0*
21,1,0.00000,1.70000,0,0,0.0*
1,1,0.90000,0.00000,-0.40000*
1,1,0.90000,0.00000,-0.40000*
1,1,0.90000,0.00000,0.40000*
1,1,0.90000,0.00000,0.40000*
%
%ADD45ROUNDEDRECTD45*%
%ADD46R,1.55000X1.55000*%
%ADD47R,1.60000X1.60000*%
%TA.AperFunction,ViaPad*%
%ADD48C,0.70000*%
G36*
X11201604Y7244104D02*
X11201604Y3595896D01*
X6553396D01*
Y7244104D01*
X6674194D01*
X6682382Y7213548D01*
X6683880Y7210510D01*
X6684969Y7207303D01*
X6701937Y7177913D01*
X6704170Y7175366D01*
X6706053Y7172549D01*
X6730049Y7148553D01*
X6732866Y7146670D01*
X6735413Y7144437D01*
X6764803Y7127469D01*
X6768011Y7126380D01*
X6771049Y7124882D01*
X6803829Y7116098D01*
X6807210Y7115877D01*
X6810532Y7115216D01*
X6844468D01*
X6847790Y7115877D01*
X6851171Y7116098D01*
X6883951Y7124882D01*
X6886990Y7126380D01*
X6890197Y7127469D01*
X6919587Y7144437D01*
X6922133Y7146670D01*
X6924950Y7148553D01*
X6948947Y7172549D01*
X6950829Y7175366D01*
X6953063Y7177913D01*
X6970031Y7207303D01*
X6971120Y7210511D01*
X6972618Y7213549D01*
X6980805Y7244104D01*
X10774194Y7244103D01*
X10782382Y7213548D01*
X10783880Y7210510D01*
X10784969Y7207303D01*
X10801937Y7177913D01*
X10804170Y7175366D01*
X10806053Y7172549D01*
X10830049Y7148552D01*
X10832867Y7146670D01*
X10835413Y7144437D01*
X10864803Y7127469D01*
X10868011Y7126380D01*
X10871049Y7124882D01*
X10903829Y7116098D01*
X10907210Y7115877D01*
X10910532Y7115216D01*
X10944468D01*
X10947790Y7115877D01*
X10951171Y7116098D01*
X10983951Y7124882D01*
X10986990Y7126380D01*
X10990197Y7127469D01*
X11019587Y7144437D01*
X11022133Y7146670D01*
X11024951Y7148553D01*
X11048947Y7172549D01*
X11050830Y7175367D01*
X11053063Y7177913D01*
X11070031Y7207303D01*
X11071120Y7210511D01*
X11072618Y7213549D01*
X11080805Y7244104D01*
X11201604Y7244104D01*
D02*
G37*
%LPC*%
G36*
X9452200Y6992510D02*
Y6920200D01*
X9524510D01*
X9519080Y6940463D01*
X9507837Y6959937D01*
X9491937Y6975837D01*
X9472463Y6987080D01*
X9452200Y6992510D01*
D02*
G37*
G36*
X9426800D02*
X9406537Y6987080D01*
X9387063Y6975837D01*
X9371163Y6959937D01*
X9359920Y6940463D01*
X9354491Y6920200D01*
X9426800D01*
Y6992510D01*
D02*
G37*
G36*
X8344200D02*
Y6920200D01*
X8416510D01*
X8411080Y6940463D01*
X8399837Y6959937D01*
X8383937Y6975837D01*
X8364463Y6987080D01*
X8344200Y6992510D01*
D02*
G37*
G36*
X8318800D02*
X8298537Y6987080D01*
X8279063Y6975837D01*
X8263163Y6959937D01*
X8251920Y6940463D01*
X8246491Y6920200D01*
X8318800D01*
Y6992510D01*
D02*
G37*
G36*
X7935000Y7119061D02*
X7918032Y7116827D01*
X7902220Y7110277D01*
X7888642Y7099859D01*
X7878223Y7086280D01*
X7871674Y7070469D01*
X7869440Y7053500D01*
Y6973500D01*
X7871674Y6956532D01*
X7878223Y6940720D01*
X7888642Y6927142D01*
X7902220Y6916723D01*
X7918032Y6910174D01*
X7935000Y6907940D01*
X7951969Y6910174D01*
X7967781Y6916723D01*
X7981359Y6927142D01*
X7991778Y6940720D01*
X7998327Y6956532D01*
X8000561Y6973500D01*
Y7053500D01*
X7998327Y7070469D01*
X7991778Y7086280D01*
X7981359Y7099859D01*
X7967781Y7110277D01*
X7951969Y7116827D01*
X7935000Y7119061D01*
D02*
G37*
G36*
X7070000D02*
X7053032Y7116827D01*
X7037220Y7110277D01*
X7023642Y7099859D01*
X7013223Y7086280D01*
X7006674Y7070469D01*
X7004440Y7053500D01*
Y6973500D01*
X7006674Y6956532D01*
X7013223Y6940720D01*
X7023642Y6927142D01*
X7037220Y6916723D01*
X7053032Y6910174D01*
X7070000Y6907940D01*
X7086969Y6910174D01*
X7102781Y6916723D01*
X7116359Y6927142D01*
X7126777Y6940720D01*
X7133327Y6956532D01*
X7135561Y6973500D01*
Y7053500D01*
X7133327Y7070469D01*
X7126777Y7086280D01*
X7116359Y7099859D01*
X7102781Y7110277D01*
X7086969Y7116827D01*
X7070000Y7119061D01*
D02*
G37*
G36*
X9264747Y7011151D02*
X9242867D01*
X9222652Y7002777D01*
X9207181Y6987306D01*
X9198807Y6967091D01*
Y6945211D01*
X9207181Y6924996D01*
X9222652Y6909524D01*
X9242867Y6901151D01*
X9264747D01*
X9284962Y6909524D01*
X9300434Y6924996D01*
X9308807Y6945211D01*
Y6967091D01*
X9300434Y6987306D01*
X9284962Y7002777D01*
X9264747Y7011151D01*
D02*
G37*
G36*
X9958032Y6987500D02*
X9936968D01*
X9916621Y6982048D01*
X9898379Y6971516D01*
X9883484Y6956621D01*
X9872952Y6938379D01*
X9867500Y6918032D01*
Y6896968D01*
X9872952Y6876621D01*
X9883484Y6858379D01*
X9898379Y6843484D01*
X9916621Y6832952D01*
X9936968Y6827500D01*
X9958032D01*
X9978379Y6832952D01*
X9996621Y6843484D01*
X10011516Y6858379D01*
X10022048Y6876621D01*
X10027500Y6896968D01*
Y6918032D01*
X10022048Y6938379D01*
X10011516Y6956621D01*
X9996621Y6971516D01*
X9978379Y6982048D01*
X9958032Y6987500D01*
D02*
G37*
G36*
X9704032D02*
X9682968D01*
X9662621Y6982048D01*
X9644379Y6971516D01*
X9629484Y6956621D01*
X9618952Y6938379D01*
X9613500Y6918032D01*
Y6896968D01*
X9618952Y6876621D01*
X9629484Y6858379D01*
X9644379Y6843484D01*
X9662621Y6832952D01*
X9682968Y6827500D01*
X9704032D01*
X9724379Y6832952D01*
X9742621Y6843484D01*
X9757516Y6858379D01*
X9768048Y6876621D01*
X9773500Y6896968D01*
Y6918032D01*
X9768048Y6938379D01*
X9757516Y6956621D01*
X9742621Y6971516D01*
X9724379Y6982048D01*
X9704032Y6987500D01*
D02*
G37*
G36*
X8850032D02*
X8828968D01*
X8808621Y6982048D01*
X8790379Y6971516D01*
X8775484Y6956621D01*
X8764952Y6938379D01*
X8759500Y6918032D01*
Y6896968D01*
X8764952Y6876621D01*
X8775484Y6858379D01*
X8790379Y6843484D01*
X8808621Y6832952D01*
X8828968Y6827500D01*
X8850032D01*
X8870379Y6832952D01*
X8888621Y6843484D01*
X8903516Y6858379D01*
X8914048Y6876621D01*
X8919500Y6896968D01*
Y6918032D01*
X8914048Y6938379D01*
X8903516Y6956621D01*
X8888621Y6971516D01*
X8870379Y6982048D01*
X8850032Y6987500D01*
D02*
G37*
G36*
X8596032D02*
X8574968D01*
X8554621Y6982048D01*
X8536379Y6971516D01*
X8521484Y6956621D01*
X8510952Y6938379D01*
X8505500Y6918032D01*
Y6896968D01*
X8510952Y6876621D01*
X8521484Y6858379D01*
X8536379Y6843484D01*
X8554621Y6832952D01*
X8574968Y6827500D01*
X8596032D01*
X8616379Y6832952D01*
X8634621Y6843484D01*
X8649516Y6858379D01*
X8660048Y6876621D01*
X8665500Y6896968D01*
Y6918032D01*
X8660048Y6938379D01*
X8649516Y6956621D01*
X8634621Y6971516D01*
X8616379Y6982048D01*
X8596032Y6987500D01*
D02*
G37*
G36*
X9524510Y6894800D02*
X9452200D01*
Y6822491D01*
X9472463Y6827920D01*
X9491937Y6839163D01*
X9507837Y6855063D01*
X9519080Y6874537D01*
X9524510Y6894800D01*
D02*
G37*
G36*
X9426800D02*
X9354491D01*
X9359920Y6874537D01*
X9371163Y6855063D01*
X9387063Y6839163D01*
X9406537Y6827920D01*
X9426800Y6822491D01*
Y6894800D01*
D02*
G37*
G36*
X8416510D02*
X8344200D01*
Y6822491D01*
X8364463Y6827920D01*
X8383937Y6839163D01*
X8399837Y6855063D01*
X8411080Y6874537D01*
X8416510Y6894800D01*
D02*
G37*
G36*
X8318800D02*
X8246491D01*
X8251920Y6874537D01*
X8263163Y6855063D01*
X8279063Y6839163D01*
X8298537Y6827920D01*
X8318800Y6822491D01*
Y6894800D01*
D02*
G37*
G36*
X7787300Y6769910D02*
X7767203Y6761585D01*
X7753682Y6748065D01*
X7744739Y6757008D01*
X7725443Y6765000D01*
X7704557D01*
X7685261Y6757008D01*
X7672500Y6744247D01*
X7659739Y6757008D01*
X7640443Y6765000D01*
X7619558D01*
X7600262Y6757008D01*
X7587500Y6744246D01*
X7574739Y6757008D01*
X7555443Y6765000D01*
X7534557D01*
X7515262Y6757008D01*
X7502500Y6744246D01*
X7489739Y6757008D01*
X7470443Y6765000D01*
X7449557D01*
X7430261Y6757008D01*
X7417500Y6744246D01*
X7404739Y6757008D01*
X7385443Y6765000D01*
X7364557D01*
X7345261Y6757008D01*
X7332500Y6744247D01*
X7319739Y6757008D01*
X7300443Y6765000D01*
X7279557D01*
X7260262Y6757008D01*
X7251319Y6748065D01*
X7237798Y6761585D01*
X7217700Y6769910D01*
Y6712500D01*
Y6655090D01*
X7237798Y6663415D01*
X7251319Y6676936D01*
X7260262Y6667993D01*
X7279557Y6660000D01*
X7300443D01*
X7319739Y6667993D01*
X7332500Y6680754D01*
X7345261Y6667993D01*
X7364557Y6660000D01*
X7385443D01*
X7404739Y6667993D01*
X7417500Y6680754D01*
X7430261Y6667993D01*
X7449557Y6660000D01*
X7470443D01*
X7489739Y6667993D01*
X7502500Y6680754D01*
X7515262Y6667993D01*
X7534557Y6660000D01*
X7555443D01*
X7574739Y6667993D01*
X7587500Y6680754D01*
X7600262Y6667993D01*
X7619558Y6660000D01*
X7640443D01*
X7659739Y6667993D01*
X7672500Y6680754D01*
X7685261Y6667993D01*
X7704557Y6660000D01*
X7725443D01*
X7744739Y6667993D01*
X7753682Y6676936D01*
X7767203Y6663415D01*
X7787300Y6655090D01*
Y6712500D01*
Y6769910D01*
D02*
G37*
G36*
X7935000Y6816061D02*
X7918032Y6813827D01*
X7902220Y6807277D01*
X7888642Y6796859D01*
X7878223Y6783281D01*
X7871674Y6767469D01*
X7869440Y6750500D01*
Y6737969D01*
X7853440Y6734787D01*
X7849086Y6745298D01*
X7832798Y6761585D01*
X7812700Y6769910D01*
Y6712500D01*
Y6655090D01*
X7832798Y6663415D01*
X7849086Y6679702D01*
X7853440Y6690214D01*
X7869440Y6687031D01*
Y6600500D01*
X7853747Y6599046D01*
X7849086Y6610298D01*
X7832798Y6626585D01*
X7812700Y6634910D01*
Y6577500D01*
Y6520090D01*
X7832798Y6528415D01*
X7849086Y6544702D01*
X7857900Y6565983D01*
Y6574973D01*
X7873900Y6578155D01*
X7878223Y6567720D01*
X7888642Y6554142D01*
X7902220Y6543723D01*
X7918032Y6537173D01*
X7935000Y6534939D01*
X7951969Y6537173D01*
X7967781Y6543723D01*
X7981359Y6554142D01*
X7991778Y6567720D01*
X7998327Y6583532D01*
X8000561Y6600500D01*
Y6750500D01*
X7998327Y6767469D01*
X7991778Y6783281D01*
X7981359Y6796859D01*
X7967781Y6807277D01*
X7951969Y6813827D01*
X7935000Y6816061D01*
D02*
G37*
G36*
X10497275Y6882900D02*
X10492701D01*
Y6720200D01*
X10655400D01*
Y6724775D01*
X10648659Y6758662D01*
X10635437Y6790583D01*
X10616242Y6819311D01*
X10591811Y6843742D01*
X10563083Y6862937D01*
X10531162Y6876159D01*
X10497275Y6882900D01*
D02*
G37*
G36*
X10467301D02*
X10462725D01*
X10428838Y6876159D01*
X10396917Y6862937D01*
X10368189Y6843742D01*
X10343758Y6819311D01*
X10324563Y6790583D01*
X10311341Y6758662D01*
X10304600Y6724775D01*
Y6720200D01*
X10467301D01*
Y6882900D01*
D02*
G37*
G36*
X7070000Y6816061D02*
X7053032Y6813827D01*
X7037220Y6807277D01*
X7023642Y6796859D01*
X7013223Y6783281D01*
X7006674Y6767469D01*
X7004440Y6750500D01*
Y6600500D01*
X7006674Y6583532D01*
X7013223Y6567720D01*
X7023642Y6554142D01*
X7037220Y6543723D01*
X7053032Y6537173D01*
X7070000Y6534939D01*
X7086969Y6537173D01*
X7102781Y6543723D01*
X7116359Y6554142D01*
X7126777Y6567720D01*
X7131100Y6578155D01*
X7147100Y6574973D01*
Y6565983D01*
X7155915Y6544702D01*
X7172203Y6528415D01*
X7192300Y6520090D01*
Y6577500D01*
Y6634910D01*
X7172203Y6626585D01*
X7155915Y6610298D01*
X7151254Y6599046D01*
X7135561Y6600500D01*
Y6687031D01*
X7151561Y6690214D01*
X7155915Y6679702D01*
X7172203Y6663415D01*
X7192300Y6655090D01*
Y6712500D01*
Y6769910D01*
X7172203Y6761585D01*
X7155915Y6745298D01*
X7151561Y6734787D01*
X7135561Y6737969D01*
Y6750500D01*
X7133327Y6767469D01*
X7126777Y6783281D01*
X7116359Y6796859D01*
X7102781Y6807277D01*
X7086969Y6813827D01*
X7070000Y6816061D01*
D02*
G37*
G36*
X10087500Y6828190D02*
X10066616Y6825441D01*
X10047155Y6817380D01*
X10030443Y6804557D01*
X10017620Y6787845D01*
X10009559Y6768384D01*
X10006810Y6747500D01*
Y6707500D01*
X10009559Y6686616D01*
X10017620Y6667155D01*
X10030443Y6650444D01*
X10047155Y6637620D01*
X10066616Y6629560D01*
X10087500Y6626810D01*
X10108384Y6629560D01*
X10127845Y6637620D01*
X10144557Y6650444D01*
X10157380Y6667155D01*
X10165441Y6686616D01*
X10168190Y6707500D01*
Y6747500D01*
X10165441Y6768384D01*
X10157380Y6787845D01*
X10144557Y6804557D01*
X10127845Y6817380D01*
X10108384Y6825441D01*
X10087500Y6828190D01*
D02*
G37*
G36*
X8979500D02*
X8958616Y6825441D01*
X8939155Y6817380D01*
X8922444Y6804557D01*
X8909620Y6787845D01*
X8901560Y6768384D01*
X8898810Y6747500D01*
Y6707500D01*
X8901560Y6686616D01*
X8909620Y6667155D01*
X8922444Y6650444D01*
X8939155Y6637620D01*
X8958616Y6629560D01*
X8979500Y6626810D01*
X9000384Y6629560D01*
X9019845Y6637620D01*
X9036557Y6650444D01*
X9049380Y6667155D01*
X9057441Y6686616D01*
X9060190Y6707500D01*
Y6747500D01*
X9057441Y6768384D01*
X9049380Y6787845D01*
X9036557Y6804557D01*
X9019845Y6817380D01*
X9000384Y6825441D01*
X8979500Y6828190D01*
D02*
G37*
G36*
X7787300Y6634910D02*
X7767203Y6626585D01*
X7753682Y6613065D01*
X7744739Y6622008D01*
X7725443Y6630000D01*
X7704557D01*
X7685261Y6622008D01*
X7672500Y6609247D01*
X7659739Y6622008D01*
X7640443Y6630000D01*
X7619558D01*
X7600262Y6622008D01*
X7587500Y6609246D01*
X7574739Y6622008D01*
X7555443Y6630000D01*
X7534557D01*
X7515262Y6622008D01*
X7502500Y6609246D01*
X7489739Y6622008D01*
X7470443Y6630000D01*
X7449557D01*
X7430261Y6622008D01*
X7417500Y6609246D01*
X7404739Y6622008D01*
X7385443Y6630000D01*
X7364557D01*
X7345261Y6622008D01*
X7332500Y6609247D01*
X7319739Y6622008D01*
X7300443Y6630000D01*
X7279557D01*
X7260262Y6622008D01*
X7251319Y6613065D01*
X7237798Y6626585D01*
X7217700Y6634910D01*
Y6577500D01*
Y6520090D01*
X7237798Y6528415D01*
X7251319Y6541936D01*
X7260262Y6532993D01*
X7279557Y6525000D01*
X7300443D01*
X7319739Y6532993D01*
X7332500Y6545754D01*
X7345261Y6532993D01*
X7364557Y6525000D01*
X7385443D01*
X7404739Y6532993D01*
X7417500Y6545754D01*
X7430261Y6532993D01*
X7449557Y6525000D01*
X7470443D01*
X7489739Y6532993D01*
X7502500Y6545754D01*
X7515262Y6532993D01*
X7534557Y6525000D01*
X7555443D01*
X7574739Y6532993D01*
X7587500Y6545754D01*
X7600262Y6532993D01*
X7619558Y6525000D01*
X7640443D01*
X7659739Y6532993D01*
X7672500Y6545754D01*
X7685261Y6532993D01*
X7704557Y6525000D01*
X7725443D01*
X7744739Y6532993D01*
X7753682Y6541936D01*
X7767203Y6528415D01*
X7787300Y6520090D01*
Y6577500D01*
Y6634910D01*
D02*
G37*
G36*
X9831032Y6733500D02*
X9809968D01*
X9789621Y6728048D01*
X9771379Y6717516D01*
X9756484Y6702621D01*
X9745952Y6684379D01*
X9740500Y6664032D01*
Y6642968D01*
X9745952Y6622621D01*
X9756484Y6604379D01*
X9771379Y6589484D01*
X9789621Y6578952D01*
X9809968Y6573500D01*
X9831032D01*
X9851379Y6578952D01*
X9869621Y6589484D01*
X9884516Y6604379D01*
X9895048Y6622621D01*
X9900500Y6642968D01*
Y6664032D01*
X9895048Y6684379D01*
X9884516Y6702621D01*
X9869621Y6717516D01*
X9851379Y6728048D01*
X9831032Y6733500D01*
D02*
G37*
G36*
X9577032D02*
X9555968D01*
X9535621Y6728048D01*
X9517379Y6717516D01*
X9502484Y6702621D01*
X9491952Y6684379D01*
X9486500Y6664032D01*
Y6642968D01*
X9491952Y6622621D01*
X9502484Y6604379D01*
X9517379Y6589484D01*
X9535621Y6578952D01*
X9555968Y6573500D01*
X9577032D01*
X9597379Y6578952D01*
X9615621Y6589484D01*
X9630516Y6604379D01*
X9641048Y6622621D01*
X9646500Y6642968D01*
Y6664032D01*
X9641048Y6684379D01*
X9630516Y6702621D01*
X9615621Y6717516D01*
X9597379Y6728048D01*
X9577032Y6733500D01*
D02*
G37*
G36*
X8723032D02*
X8701968D01*
X8681621Y6728048D01*
X8663379Y6717516D01*
X8648484Y6702621D01*
X8637952Y6684379D01*
X8632500Y6664032D01*
Y6642968D01*
X8637952Y6622621D01*
X8648484Y6604379D01*
X8663379Y6589484D01*
X8681621Y6578952D01*
X8701968Y6573500D01*
X8723032D01*
X8743379Y6578952D01*
X8761621Y6589484D01*
X8776516Y6604379D01*
X8787048Y6622621D01*
X8792500Y6642968D01*
Y6664032D01*
X8787048Y6684379D01*
X8776516Y6702621D01*
X8761621Y6717516D01*
X8743379Y6728048D01*
X8723032Y6733500D01*
D02*
G37*
G36*
X8469032D02*
X8447968D01*
X8427621Y6728048D01*
X8409379Y6717516D01*
X8394484Y6702621D01*
X8383952Y6684379D01*
X8378500Y6664032D01*
Y6642968D01*
X8383952Y6622621D01*
X8394484Y6604379D01*
X8409379Y6589484D01*
X8427621Y6578952D01*
X8447968Y6573500D01*
X8469032D01*
X8489379Y6578952D01*
X8507621Y6589484D01*
X8522516Y6604379D01*
X8533048Y6622621D01*
X8538500Y6642968D01*
Y6664032D01*
X8533048Y6684379D01*
X8522516Y6702621D01*
X8507621Y6717516D01*
X8489379Y6728048D01*
X8469032Y6733500D01*
D02*
G37*
G36*
X8215032D02*
X8193968D01*
X8173621Y6728048D01*
X8155379Y6717516D01*
X8140484Y6702621D01*
X8129952Y6684379D01*
X8124500Y6664032D01*
Y6642968D01*
X8129952Y6622621D01*
X8140484Y6604379D01*
X8155379Y6589484D01*
X8173621Y6578952D01*
X8193968Y6573500D01*
X8215032D01*
X8235379Y6578952D01*
X8253621Y6589484D01*
X8268516Y6604379D01*
X8279048Y6622621D01*
X8284500Y6642968D01*
Y6664032D01*
X8279048Y6684379D01*
X8268516Y6702621D01*
X8253621Y6717516D01*
X8235379Y6728048D01*
X8215032Y6733500D01*
D02*
G37*
G36*
X10655400Y6694800D02*
X10492701D01*
Y6532100D01*
X10497275D01*
X10531162Y6538841D01*
X10563083Y6552063D01*
X10591811Y6571258D01*
X10616242Y6595689D01*
X10635437Y6624417D01*
X10648659Y6656338D01*
X10655400Y6690225D01*
Y6694800D01*
D02*
G37*
G36*
X10467301D02*
X10304600D01*
Y6690225D01*
X10311341Y6656338D01*
X10324563Y6624417D01*
X10343758Y6595689D01*
X10368189Y6571258D01*
X10396917Y6552063D01*
X10428838Y6538841D01*
X10462725Y6532100D01*
X10467301D01*
Y6694800D01*
D02*
G37*
G36*
X9323032Y6733500D02*
X9301968D01*
X9281621Y6728048D01*
X9263379Y6717516D01*
X9248484Y6702621D01*
X9237952Y6684379D01*
X9232500Y6664032D01*
Y6642968D01*
X9237952Y6622621D01*
X9248484Y6604379D01*
X9263379Y6589484D01*
X9281621Y6578952D01*
X9301968Y6573500D01*
X9317884D01*
X9328008Y6563006D01*
X9330000Y6558803D01*
Y6539060D01*
X9338374Y6518845D01*
X9353845Y6503374D01*
X9374060Y6495000D01*
X9395940D01*
X9416155Y6503374D01*
X9431627Y6518845D01*
X9440000Y6539060D01*
Y6560940D01*
X9431627Y6581155D01*
X9416155Y6596627D01*
X9395940Y6605000D01*
X9392875D01*
X9384875Y6618856D01*
X9387048Y6622621D01*
X9392500Y6642968D01*
Y6664032D01*
X9387048Y6684379D01*
X9376516Y6702621D01*
X9361621Y6717516D01*
X9343379Y6728048D01*
X9323032Y6733500D01*
D02*
G37*
G36*
X8685940Y6415000D02*
X8664060D01*
X8643845Y6406627D01*
X8628373Y6391155D01*
X8620000Y6370940D01*
Y6349060D01*
X8628373Y6328845D01*
X8643845Y6313373D01*
X8664060Y6305000D01*
X8685940D01*
X8706155Y6313373D01*
X8721626Y6328845D01*
X8730000Y6349060D01*
Y6370940D01*
X8721626Y6391155D01*
X8706155Y6406627D01*
X8685940Y6415000D01*
D02*
G37*
G36*
X10120940Y6217500D02*
X10099060D01*
X10078845Y6209127D01*
X10070453Y6200734D01*
X10060000Y6195382D01*
X10049548Y6200734D01*
X10041155Y6209127D01*
X10020940Y6217500D01*
X9999060D01*
X9978845Y6209127D01*
X9970453Y6200734D01*
X9960000Y6195382D01*
X9949548Y6200734D01*
X9941155Y6209127D01*
X9920940Y6217500D01*
X9899060D01*
X9878845Y6209127D01*
X9870452Y6200734D01*
X9860000Y6195382D01*
X9849547Y6200734D01*
X9841155Y6209127D01*
X9820940Y6217500D01*
X9799060D01*
X9778845Y6209127D01*
X9763373Y6193655D01*
X9755000Y6173440D01*
Y6151560D01*
X9763373Y6131345D01*
X9770516Y6124203D01*
X9777438Y6113750D01*
X9770516Y6103297D01*
X9763373Y6096155D01*
X9755000Y6075940D01*
Y6054060D01*
X9763373Y6033845D01*
X9778845Y6018374D01*
X9799060Y6010000D01*
X9820940D01*
X9841155Y6018374D01*
X9849547Y6026766D01*
X9860000Y6032118D01*
X9870452Y6026766D01*
X9878845Y6018374D01*
X9899060Y6010000D01*
X9920940D01*
X9941155Y6018374D01*
X9949548Y6026766D01*
X9960000Y6032118D01*
X9970453Y6026766D01*
X9978845Y6018374D01*
X9999060Y6010000D01*
X10020940D01*
X10041155Y6018374D01*
X10049548Y6026766D01*
X10060000Y6032118D01*
X10070453Y6026766D01*
X10078845Y6018374D01*
X10099060Y6010000D01*
X10120940D01*
X10141155Y6018374D01*
X10156627Y6033845D01*
X10165000Y6054060D01*
Y6075940D01*
X10156627Y6096155D01*
X10149484Y6103297D01*
X10142562Y6113750D01*
X10149484Y6124203D01*
X10156627Y6131345D01*
X10165000Y6151560D01*
Y6173440D01*
X10156627Y6193655D01*
X10141155Y6209127D01*
X10120940Y6217500D01*
D02*
G37*
G36*
X6903440Y6272500D02*
X6881560D01*
X6861345Y6264126D01*
X6845874Y6248655D01*
X6837500Y6228440D01*
Y6206560D01*
X6845874Y6186345D01*
X6861345Y6170873D01*
X6881560Y6162500D01*
X6903440D01*
X6923655Y6170873D01*
X6939127Y6186345D01*
X6947500Y6206560D01*
Y6228440D01*
X6939127Y6248655D01*
X6923655Y6264126D01*
X6903440Y6272500D01*
D02*
G37*
G36*
X10496744Y6377500D02*
X10463257D01*
X10430413Y6370967D01*
X10399475Y6358152D01*
X10371632Y6339547D01*
X10347953Y6315868D01*
X10329348Y6288025D01*
X10316533Y6257087D01*
X10310000Y6224243D01*
Y6190756D01*
X10316533Y6157913D01*
X10329348Y6126975D01*
X10347953Y6099131D01*
X10371632Y6075452D01*
X10399475Y6056848D01*
X10430413Y6044033D01*
X10463257Y6037500D01*
X10496744D01*
X10529587Y6044033D01*
X10560525Y6056848D01*
X10588369Y6075452D01*
X10612048Y6099131D01*
X10630652Y6126975D01*
X10643467Y6157913D01*
X10650000Y6190756D01*
Y6224243D01*
X10643467Y6257087D01*
X10630652Y6288025D01*
X10612048Y6315868D01*
X10588369Y6339547D01*
X10560525Y6358152D01*
X10529587Y6370967D01*
X10496744Y6377500D01*
D02*
G37*
G36*
X8103440Y6042500D02*
X8081560D01*
X8061345Y6034127D01*
X8045873Y6018655D01*
X8037500Y5998440D01*
Y5976560D01*
X8045873Y5956345D01*
X8061345Y5940874D01*
X8081560Y5932500D01*
X8103440D01*
X8123655Y5940874D01*
X8139126Y5956345D01*
X8147500Y5976560D01*
Y5998440D01*
X8139126Y6018655D01*
X8123655Y6034127D01*
X8103440Y6042500D01*
D02*
G37*
G36*
X9593440Y5930000D02*
X9571560D01*
X9551345Y5921626D01*
X9535873Y5906155D01*
X9527500Y5885940D01*
Y5864060D01*
X9535873Y5843845D01*
X9551345Y5828373D01*
X9571560Y5820000D01*
X9593440D01*
X9613655Y5828373D01*
X9629127Y5843845D01*
X9637500Y5864060D01*
Y5885940D01*
X9629127Y5906155D01*
X9613655Y5921626D01*
X9593440Y5930000D01*
D02*
G37*
G36*
X10185940Y5927500D02*
X10164060D01*
X10143845Y5919127D01*
X10128373Y5903655D01*
X10120000Y5883440D01*
Y5861560D01*
X10128373Y5841345D01*
X10143845Y5825874D01*
X10164060Y5817500D01*
X10185940D01*
X10206155Y5825874D01*
X10221626Y5841345D01*
X10230000Y5861560D01*
Y5883440D01*
X10221626Y5903655D01*
X10206155Y5919127D01*
X10185940Y5927500D01*
D02*
G37*
G36*
X8760940Y5727500D02*
X8739060D01*
X8718845Y5719126D01*
X8705000Y5705281D01*
X8691155Y5719126D01*
X8670940Y5727500D01*
X8649060D01*
X8628845Y5719126D01*
X8613373Y5703655D01*
X8605000Y5683440D01*
Y5661560D01*
X8613373Y5641345D01*
X8628845Y5625873D01*
X8649060Y5617500D01*
X8670940D01*
X8691155Y5625873D01*
X8705000Y5639718D01*
X8718845Y5625873D01*
X8739060Y5617500D01*
X8760940D01*
X8781155Y5625873D01*
X8796627Y5641345D01*
X8805000Y5661560D01*
Y5683440D01*
X8796627Y5703655D01*
X8781155Y5719126D01*
X8760940Y5727500D01*
D02*
G37*
G36*
X6791532Y5817500D02*
X6770468D01*
X6750121Y5812048D01*
X6731879Y5801516D01*
X6716984Y5786621D01*
X6706452Y5768379D01*
X6701000Y5748032D01*
Y5726968D01*
X6706452Y5706621D01*
X6716984Y5688379D01*
X6731879Y5673484D01*
X6750121Y5662952D01*
X6770468Y5657500D01*
X6791532D01*
X6811879Y5662952D01*
X6830121Y5673484D01*
X6845016Y5688379D01*
X6855548Y5706621D01*
X6861000Y5726968D01*
Y5748032D01*
X6855548Y5768379D01*
X6845016Y5786621D01*
X6830121Y5801516D01*
X6811879Y5812048D01*
X6791532Y5817500D01*
D02*
G37*
G36*
X7690940Y5755000D02*
X7669060D01*
X7648845Y5746627D01*
X7633373Y5731155D01*
X7625000Y5710940D01*
Y5689060D01*
X7633373Y5668845D01*
X7648845Y5653374D01*
X7669060Y5645000D01*
X7690940D01*
X7711155Y5653374D01*
X7726626Y5668845D01*
X7735000Y5689060D01*
Y5710940D01*
X7726626Y5731155D01*
X7711155Y5746627D01*
X7690940Y5755000D01*
D02*
G37*
G36*
X7047700Y5695510D02*
Y5623200D01*
X7120009D01*
X7114580Y5643463D01*
X7103337Y5662937D01*
X7087437Y5678837D01*
X7067963Y5690080D01*
X7047700Y5695510D01*
D02*
G37*
G36*
X7022300D02*
X7002037Y5690080D01*
X6982563Y5678837D01*
X6966663Y5662937D01*
X6955420Y5643463D01*
X6949990Y5623200D01*
X7022300D01*
Y5695510D01*
D02*
G37*
G36*
X7948440Y5707500D02*
X7926560D01*
X7906345Y5699127D01*
X7890873Y5683655D01*
X7882500Y5663440D01*
Y5641560D01*
X7890873Y5621345D01*
X7906345Y5605873D01*
X7926560Y5597500D01*
X7948440D01*
X7968655Y5605873D01*
X7984127Y5621345D01*
X7992500Y5641560D01*
Y5663440D01*
X7984127Y5683655D01*
X7968655Y5699127D01*
X7948440Y5707500D01*
D02*
G37*
G36*
X7022300Y5597800D02*
X6949990D01*
X6955420Y5577537D01*
X6966663Y5558063D01*
X6982563Y5542163D01*
X7002037Y5530920D01*
X7022300Y5525491D01*
Y5597800D01*
D02*
G37*
G36*
X7120009D02*
X7047700D01*
Y5525491D01*
X7067963Y5530920D01*
X7087437Y5542163D01*
X7103337Y5558063D01*
X7114580Y5577537D01*
X7120009Y5597800D01*
D02*
G37*
G36*
X9565940Y5735000D02*
X9544060D01*
X9523845Y5726627D01*
X9508373Y5711155D01*
X9500000Y5690940D01*
Y5669060D01*
X9508373Y5648845D01*
X9523845Y5633374D01*
X9536691Y5628052D01*
X9537923Y5618654D01*
X9537583Y5610365D01*
X9523373Y5596155D01*
X9515000Y5575940D01*
Y5554060D01*
X9523373Y5533845D01*
X9538845Y5518374D01*
X9559060Y5510000D01*
X9580940D01*
X9601155Y5518374D01*
X9616626Y5533845D01*
X9625000Y5554060D01*
Y5575940D01*
X9616626Y5596155D01*
X9601155Y5611627D01*
X9588309Y5616948D01*
X9587077Y5626346D01*
X9587417Y5634635D01*
X9601626Y5648845D01*
X9610000Y5669060D01*
Y5690940D01*
X9601626Y5711155D01*
X9586155Y5726627D01*
X9565940Y5735000D01*
D02*
G37*
G36*
X9438440Y5530000D02*
X9416560D01*
X9396345Y5521626D01*
X9380874Y5506155D01*
X9372500Y5485940D01*
Y5464060D01*
X9380874Y5443845D01*
X9396345Y5428373D01*
X9416560Y5420000D01*
X9438440D01*
X9458655Y5428373D01*
X9474127Y5443845D01*
X9482500Y5464060D01*
Y5485940D01*
X9474127Y5506155D01*
X9458655Y5521626D01*
X9438440Y5530000D01*
D02*
G37*
G36*
X6791532Y5563500D02*
X6770468D01*
X6750121Y5558048D01*
X6731879Y5547516D01*
X6716984Y5532621D01*
X6706452Y5514379D01*
X6701000Y5494032D01*
Y5472968D01*
X6706452Y5452621D01*
X6716984Y5434379D01*
X6731879Y5419484D01*
X6750121Y5408952D01*
X6770468Y5403500D01*
X6791532D01*
X6811879Y5408952D01*
X6830121Y5419484D01*
X6845016Y5434379D01*
X6855548Y5452621D01*
X6861000Y5472968D01*
Y5494032D01*
X6855548Y5514379D01*
X6845016Y5532621D01*
X6830121Y5547516D01*
X6811879Y5558048D01*
X6791532Y5563500D01*
D02*
G37*
G36*
X9168440Y5510000D02*
X9146560D01*
X9126345Y5501627D01*
X9110874Y5486155D01*
X9102500Y5465940D01*
Y5444060D01*
X9110874Y5423845D01*
X9126345Y5408373D01*
X9146560Y5400000D01*
X9168440D01*
X9188655Y5408373D01*
X9204127Y5423845D01*
X9212500Y5444060D01*
Y5465940D01*
X9204127Y5486155D01*
X9188655Y5501627D01*
X9168440Y5510000D01*
D02*
G37*
G36*
X10955007Y5447500D02*
X10929993D01*
X10905832Y5441026D01*
X10884169Y5428519D01*
X10866481Y5410831D01*
X10853974Y5389169D01*
X10850782Y5377255D01*
X10834218D01*
X10831026Y5389169D01*
X10818519Y5410831D01*
X10800831Y5428519D01*
X10779168Y5441026D01*
X10755007Y5447500D01*
X10729993D01*
X10705832Y5441026D01*
X10684169Y5428519D01*
X10666481Y5410831D01*
X10653974Y5389169D01*
X10647500Y5365007D01*
Y5339993D01*
X10653974Y5315832D01*
X10666481Y5294169D01*
X10684169Y5276481D01*
X10705832Y5263974D01*
X10717745Y5260782D01*
Y5244218D01*
X10705832Y5241026D01*
X10684169Y5228519D01*
X10666481Y5210831D01*
X10656227Y5193070D01*
X10643134Y5189799D01*
X10637664Y5190117D01*
X10628655Y5199127D01*
X10608440Y5207500D01*
X10586560D01*
X10566345Y5199127D01*
X10550873Y5183655D01*
X10542500Y5163440D01*
Y5141560D01*
X10550873Y5121345D01*
X10566345Y5105873D01*
X10586560Y5097500D01*
X10608440D01*
X10628655Y5105873D01*
X10637664Y5114883D01*
X10643134Y5115201D01*
X10656227Y5111930D01*
X10666481Y5094169D01*
X10684169Y5076481D01*
X10705832Y5063974D01*
X10707313Y5063578D01*
X10707312Y5047013D01*
X10703747Y5046058D01*
X10680853Y5032840D01*
X10662160Y5014147D01*
X10648942Y4991253D01*
X10642100Y4965718D01*
Y4965200D01*
X10742500D01*
Y4952500D01*
X10755200D01*
Y4852100D01*
X10755718D01*
X10781253Y4858942D01*
X10804147Y4872160D01*
X10822840Y4890853D01*
X10836058Y4913747D01*
X10837013Y4917312D01*
X10853578Y4917312D01*
X10853974Y4915831D01*
X10866481Y4894169D01*
X10884169Y4876481D01*
X10905832Y4863974D01*
X10929993Y4857500D01*
X10955007D01*
X10979169Y4863974D01*
X11000831Y4876481D01*
X11018519Y4894169D01*
X11031026Y4915831D01*
X11037500Y4939993D01*
Y4965007D01*
X11031026Y4989168D01*
X11018519Y5010831D01*
X11000831Y5028519D01*
X10979169Y5041025D01*
X10967255Y5044218D01*
Y5060782D01*
X10979169Y5063974D01*
X11000831Y5076481D01*
X11018519Y5094169D01*
X11031026Y5115832D01*
X11037500Y5139993D01*
Y5165007D01*
X11031026Y5189168D01*
X11018519Y5210831D01*
X11000831Y5228519D01*
X10979169Y5241026D01*
X10967255Y5244218D01*
Y5260782D01*
X10979169Y5263974D01*
X11000831Y5276481D01*
X11018519Y5294169D01*
X11031026Y5315832D01*
X11037500Y5339993D01*
Y5365007D01*
X11031026Y5389169D01*
X11018519Y5410831D01*
X11000831Y5428519D01*
X10979169Y5441026D01*
X10955007Y5447500D01*
D02*
G37*
G36*
X10115940Y5385000D02*
X10094060D01*
X10073845Y5376626D01*
X10065453Y5368234D01*
X10055000Y5362882D01*
X10044548Y5368234D01*
X10036155Y5376626D01*
X10015940Y5385000D01*
X9994060D01*
X9973845Y5376626D01*
X9965453Y5368234D01*
X9955000Y5362882D01*
X9944548Y5368234D01*
X9936155Y5376626D01*
X9915940Y5385000D01*
X9894060D01*
X9873845Y5376626D01*
X9865453Y5368234D01*
X9855000Y5362882D01*
X9844548Y5368234D01*
X9836155Y5376626D01*
X9815940Y5385000D01*
X9794060D01*
X9773845Y5376626D01*
X9758374Y5361155D01*
X9750000Y5340940D01*
Y5319060D01*
X9758374Y5298845D01*
X9773845Y5283373D01*
X9794060Y5275000D01*
X9815940D01*
X9836155Y5283373D01*
X9844548Y5291766D01*
X9855000Y5297117D01*
X9865453Y5291766D01*
X9873845Y5283373D01*
X9894060Y5275000D01*
X9915940D01*
X9936155Y5283373D01*
X9944548Y5291766D01*
X9955000Y5297117D01*
X9965453Y5291766D01*
X9973845Y5283373D01*
X9994060Y5275000D01*
X10015940D01*
X10036155Y5283373D01*
X10044548Y5291766D01*
X10055000Y5297117D01*
X10065453Y5291766D01*
X10073845Y5283373D01*
X10094060Y5275000D01*
X10115940D01*
X10136155Y5283373D01*
X10151627Y5298845D01*
X10160000Y5319060D01*
Y5340940D01*
X10151627Y5361155D01*
X10136155Y5376626D01*
X10115940Y5385000D01*
D02*
G37*
G36*
X7045532Y5436500D02*
X7024468D01*
X7004121Y5431048D01*
X6985879Y5420516D01*
X6970984Y5405621D01*
X6960452Y5387379D01*
X6955000Y5367032D01*
Y5345968D01*
X6960452Y5325621D01*
X6970984Y5307379D01*
X6985879Y5292484D01*
X7004121Y5281952D01*
X7024468Y5276500D01*
X7045532D01*
X7065879Y5281952D01*
X7084121Y5292484D01*
X7099016Y5307379D01*
X7109548Y5325621D01*
X7115000Y5345968D01*
Y5367032D01*
X7109548Y5387379D01*
X7099016Y5405621D01*
X7084121Y5420516D01*
X7065879Y5431048D01*
X7045532Y5436500D01*
D02*
G37*
G36*
X9118440Y5352500D02*
X9096560D01*
X9076345Y5344126D01*
X9060873Y5328655D01*
X9052500Y5308440D01*
Y5286560D01*
X9060873Y5266345D01*
X9076345Y5250873D01*
X9096560Y5242500D01*
X9118440D01*
X9138655Y5250873D01*
X9154126Y5266345D01*
X9162500Y5286560D01*
Y5308440D01*
X9154126Y5328655D01*
X9138655Y5344126D01*
X9118440Y5352500D01*
D02*
G37*
G36*
X10298440Y5297500D02*
X10276560D01*
X10256345Y5289127D01*
X10240874Y5273655D01*
X10232500Y5253440D01*
Y5231560D01*
X10240874Y5211345D01*
X10256345Y5195874D01*
X10276560Y5187500D01*
X10298440D01*
X10318655Y5195874D01*
X10334127Y5211345D01*
X10342500Y5231560D01*
Y5253440D01*
X10334127Y5273655D01*
X10318655Y5289127D01*
X10298440Y5297500D01*
D02*
G37*
G36*
X6791532Y5309500D02*
X6770468D01*
X6750121Y5304048D01*
X6731879Y5293516D01*
X6716984Y5278621D01*
X6706452Y5260379D01*
X6701000Y5240032D01*
Y5218968D01*
X6706452Y5198621D01*
X6716984Y5180379D01*
X6731879Y5165484D01*
X6750121Y5154952D01*
X6770468Y5149500D01*
X6791532D01*
X6811879Y5154952D01*
X6830121Y5165484D01*
X6845016Y5180379D01*
X6855548Y5198621D01*
X6861000Y5218968D01*
Y5240032D01*
X6855548Y5260379D01*
X6845016Y5278621D01*
X6830121Y5293516D01*
X6811879Y5304048D01*
X6791532Y5309500D01*
D02*
G37*
G36*
X10452799Y5186839D02*
X10430919D01*
X10410704Y5178465D01*
X10395232Y5162994D01*
X10386859Y5142779D01*
Y5120899D01*
X10395232Y5100684D01*
X10410704Y5085212D01*
X10430919Y5076839D01*
X10452799D01*
X10473014Y5085212D01*
X10488485Y5100684D01*
X10496859Y5120899D01*
Y5142779D01*
X10488485Y5162994D01*
X10473014Y5178465D01*
X10452799Y5186839D01*
D02*
G37*
G36*
X7993440Y5142500D02*
X7971560D01*
X7951345Y5134127D01*
X7935873Y5118655D01*
X7927500Y5098440D01*
Y5076560D01*
X7935873Y5056345D01*
X7951345Y5040874D01*
X7971560Y5032500D01*
X7993440D01*
X8013655Y5040874D01*
X8029126Y5056345D01*
X8037500Y5076560D01*
Y5098440D01*
X8029126Y5118655D01*
X8013655Y5134127D01*
X7993440Y5142500D01*
D02*
G37*
G36*
X7045532Y5182500D02*
X7024468D01*
X7004121Y5177048D01*
X6985879Y5166516D01*
X6970984Y5151621D01*
X6960452Y5133379D01*
X6955000Y5113032D01*
Y5091968D01*
X6960452Y5071621D01*
X6970984Y5053379D01*
X6985879Y5038484D01*
X7004121Y5027952D01*
X7024468Y5022500D01*
X7045532D01*
X7065879Y5027952D01*
X7084121Y5038484D01*
X7099016Y5053379D01*
X7109548Y5071621D01*
X7115000Y5091968D01*
Y5113032D01*
X7109548Y5133379D01*
X7099016Y5151621D01*
X7084121Y5166516D01*
X7065879Y5177048D01*
X7045532Y5182500D01*
D02*
G37*
G36*
X7698440Y5117500D02*
X7676560D01*
X7656345Y5109126D01*
X7640873Y5093655D01*
X7632500Y5073440D01*
Y5051560D01*
X7640873Y5031345D01*
X7656345Y5015873D01*
X7676560Y5007500D01*
X7698440D01*
X7718655Y5015873D01*
X7734127Y5031345D01*
X7742500Y5051560D01*
Y5073440D01*
X7734127Y5093655D01*
X7718655Y5109126D01*
X7698440Y5117500D01*
D02*
G37*
G36*
X9100940Y5105000D02*
X9079060D01*
X9058845Y5096627D01*
X9043374Y5081155D01*
X9035000Y5060940D01*
Y5039060D01*
X9043374Y5018845D01*
X9058845Y5003374D01*
X9079060Y4995000D01*
X9100940D01*
X9121155Y5003374D01*
X9136627Y5018845D01*
X9145000Y5039060D01*
Y5060940D01*
X9136627Y5081155D01*
X9121155Y5096627D01*
X9100940Y5105000D01*
D02*
G37*
G36*
X9440940Y5372500D02*
X9419060D01*
X9398845Y5364126D01*
X9383373Y5348655D01*
X9375000Y5328440D01*
Y5306560D01*
X9383373Y5286345D01*
X9398845Y5270873D01*
X9395389Y5254986D01*
X9387500Y5235940D01*
Y5214060D01*
X9395874Y5193845D01*
X9403405Y5186314D01*
X9404802Y5165083D01*
X9400874Y5161155D01*
X9392500Y5140940D01*
Y5119060D01*
X9400874Y5098845D01*
X9401267Y5098452D01*
X9401147Y5076428D01*
X9395874Y5071155D01*
X9387500Y5050940D01*
Y5029060D01*
X9395874Y5008845D01*
X9411345Y4993374D01*
X9431560Y4985000D01*
X9453440D01*
X9473655Y4993374D01*
X9489127Y5008845D01*
X9497500Y5029060D01*
Y5050940D01*
X9489127Y5071155D01*
X9488733Y5071548D01*
X9488854Y5093572D01*
X9494127Y5098845D01*
X9502500Y5119060D01*
Y5140940D01*
X9494127Y5161155D01*
X9486595Y5168686D01*
X9485198Y5189916D01*
X9489127Y5193845D01*
X9497500Y5214060D01*
Y5235940D01*
X9489127Y5256155D01*
X9473655Y5271626D01*
X9477111Y5287513D01*
X9485000Y5306560D01*
Y5328440D01*
X9476626Y5348655D01*
X9461155Y5364126D01*
X9440940Y5372500D01*
D02*
G37*
G36*
X8730940Y5035000D02*
X8709060D01*
X8688845Y5026626D01*
X8673374Y5011155D01*
X8665000Y4990940D01*
Y4969060D01*
X8673374Y4948845D01*
X8688845Y4933373D01*
X8709060Y4925000D01*
X8730940D01*
X8751155Y4933373D01*
X8766627Y4948845D01*
X8775000Y4969060D01*
Y4990940D01*
X8766627Y5011155D01*
X8751155Y5026626D01*
X8730940Y5035000D01*
D02*
G37*
G36*
X6875000Y5043190D02*
X6835000D01*
X6814116Y5040441D01*
X6794655Y5032380D01*
X6777944Y5019557D01*
X6765120Y5002845D01*
X6757059Y4983384D01*
X6754310Y4962500D01*
X6757059Y4941616D01*
X6765120Y4922155D01*
X6777944Y4905444D01*
X6794655Y4892620D01*
X6814116Y4884559D01*
X6835000Y4881810D01*
X6875000D01*
X6895884Y4884559D01*
X6915345Y4892620D01*
X6932056Y4905444D01*
X6944880Y4922155D01*
X6952941Y4941616D01*
X6955690Y4962500D01*
X6952941Y4983384D01*
X6944880Y5002845D01*
X6932056Y5019557D01*
X6915345Y5032380D01*
X6895884Y5040441D01*
X6875000Y5043190D01*
D02*
G37*
G36*
X10228440Y5052500D02*
X10206560D01*
X10186345Y5044127D01*
X10170873Y5028655D01*
X10162500Y5008440D01*
Y4986560D01*
X10170873Y4966345D01*
X10186345Y4950874D01*
X10206560Y4942500D01*
X10228440D01*
X10233305Y4944515D01*
X10245551Y4932269D01*
X10245000Y4930940D01*
Y4909060D01*
X10253373Y4888845D01*
X10268845Y4873374D01*
X10289060Y4865000D01*
X10310940D01*
X10331155Y4873374D01*
X10346626Y4888845D01*
X10355000Y4909060D01*
Y4930940D01*
X10346626Y4951155D01*
X10331155Y4966627D01*
X10310940Y4975000D01*
X10289060D01*
X10284195Y4972985D01*
X10271949Y4985231D01*
X10272500Y4986560D01*
Y5008440D01*
X10264127Y5028655D01*
X10248655Y5044127D01*
X10228440Y5052500D01*
D02*
G37*
G36*
X10729800Y4939800D02*
X10642100D01*
Y4939282D01*
X10648942Y4913747D01*
X10662160Y4890853D01*
X10680853Y4872160D01*
X10703747Y4858942D01*
X10729282Y4852100D01*
X10729800D01*
Y4939800D01*
D02*
G37*
G36*
X10113923Y4865235D02*
X10092043D01*
X10071828Y4856861D01*
X10064327Y4849360D01*
X10054122Y4842767D01*
X10043422Y4849360D01*
X10036155Y4856626D01*
X10015940Y4865000D01*
X9994060D01*
X9973845Y4856626D01*
X9964491Y4847272D01*
X9953839Y4843061D01*
X9943657Y4847343D01*
X9934138Y4856861D01*
X9913923Y4865235D01*
X9892043D01*
X9871828Y4856861D01*
X9864327Y4849360D01*
X9854122Y4842767D01*
X9843422Y4849360D01*
X9836155Y4856626D01*
X9815940Y4865000D01*
X9794060D01*
X9773845Y4856626D01*
X9765453Y4848234D01*
X9755000Y4842882D01*
X9744548Y4848234D01*
X9736155Y4856626D01*
X9715940Y4865000D01*
X9694060D01*
X9673845Y4856626D01*
X9658374Y4841155D01*
X9650000Y4820940D01*
Y4799060D01*
X9658374Y4778845D01*
X9673845Y4763373D01*
X9694060Y4755000D01*
X9715940D01*
X9736155Y4763373D01*
X9744548Y4771766D01*
X9755000Y4777117D01*
X9765453Y4771766D01*
X9773845Y4763373D01*
X9794060Y4755000D01*
X9815940D01*
X9836155Y4763373D01*
X9843657Y4770875D01*
X9853862Y4777468D01*
X9864562Y4770875D01*
X9871828Y4763608D01*
X9892043Y4755235D01*
X9913923D01*
X9934138Y4763608D01*
X9943492Y4772962D01*
X9954145Y4777173D01*
X9964327Y4772892D01*
X9973845Y4763373D01*
X9994060Y4755000D01*
X10015940D01*
X10036155Y4763373D01*
X10043657Y4770875D01*
X10053862Y4777468D01*
X10064562Y4770875D01*
X10071828Y4763608D01*
X10092043Y4755235D01*
X10113923D01*
X10134138Y4763608D01*
X10149610Y4779080D01*
X10157983Y4799295D01*
Y4821175D01*
X10149610Y4841390D01*
X10134138Y4856861D01*
X10113923Y4865235D01*
D02*
G37*
G36*
X7721376Y4893900D02*
X7720200D01*
Y4801200D01*
X7812900D01*
Y4802376D01*
X7805717Y4829183D01*
X7791841Y4853217D01*
X7772217Y4872841D01*
X7748183Y4886717D01*
X7721376Y4893900D01*
D02*
G37*
G36*
X7694800D02*
X7693624D01*
X7666817Y4886717D01*
X7642783Y4872841D01*
X7623159Y4853217D01*
X7609283Y4829183D01*
X7602100Y4802376D01*
Y4801200D01*
X7694800D01*
Y4893900D01*
D02*
G37*
G36*
X9458440Y4952500D02*
X9436560D01*
X9416345Y4944127D01*
X9400874Y4928655D01*
X9392500Y4908440D01*
Y4886560D01*
X9400874Y4866345D01*
X9409266Y4857953D01*
X9415933Y4850069D01*
X9409266Y4837047D01*
X9403373Y4831155D01*
X9395000Y4810940D01*
Y4789060D01*
X9403373Y4768845D01*
X9418845Y4753374D01*
X9439060Y4745000D01*
X9460940D01*
X9481155Y4753374D01*
X9496626Y4768845D01*
X9505000Y4789060D01*
Y4810940D01*
X9496626Y4831155D01*
X9488234Y4839547D01*
X9481567Y4847431D01*
X9488234Y4860453D01*
X9494127Y4866345D01*
X9502500Y4886560D01*
Y4908440D01*
X9494127Y4928655D01*
X9478655Y4944127D01*
X9458440Y4952500D01*
D02*
G37*
G36*
X7507500Y4888500D02*
X7307500D01*
Y4688500D01*
X7507500D01*
Y4888500D01*
D02*
G37*
G36*
X7812900Y4775800D02*
X7720200D01*
Y4683100D01*
X7721376D01*
X7748183Y4690283D01*
X7772217Y4704159D01*
X7791841Y4723783D01*
X7805717Y4747817D01*
X7812900Y4774624D01*
Y4775800D01*
D02*
G37*
G36*
X7694800D02*
X7602100D01*
Y4774624D01*
X7609283Y4747817D01*
X7623159Y4723783D01*
X7642783Y4704159D01*
X7666817Y4690283D01*
X7693624Y4683100D01*
X7694800D01*
Y4775800D01*
D02*
G37*
G36*
X10115940Y4635000D02*
X10094060D01*
X10073845Y4626627D01*
X10065453Y4618234D01*
X10055000Y4612882D01*
X10044548Y4618234D01*
X10036155Y4626627D01*
X10015940Y4635000D01*
X9994060D01*
X9973845Y4626627D01*
X9965453Y4618234D01*
X9955000Y4612882D01*
X9944548Y4618234D01*
X9936155Y4626627D01*
X9915940Y4635000D01*
X9894060D01*
X9873845Y4626627D01*
X9865452Y4618234D01*
X9855000Y4612882D01*
X9844547Y4618234D01*
X9836155Y4626627D01*
X9815940Y4635000D01*
X9794060D01*
X9773845Y4626627D01*
X9765452Y4618234D01*
X9755000Y4612882D01*
X9744547Y4618234D01*
X9736155Y4626627D01*
X9715940Y4635000D01*
X9694060D01*
X9673845Y4626627D01*
X9658373Y4611155D01*
X9650000Y4590940D01*
Y4569060D01*
X9658373Y4548845D01*
X9673845Y4533373D01*
X9694060Y4525000D01*
X9715940D01*
X9736155Y4533373D01*
X9744547Y4541766D01*
X9755000Y4547118D01*
X9765452Y4541766D01*
X9773845Y4533373D01*
X9794060Y4525000D01*
X9815940D01*
X9836155Y4533373D01*
X9844547Y4541766D01*
X9855000Y4547118D01*
X9865452Y4541766D01*
X9873845Y4533373D01*
X9894060Y4525000D01*
X9915940D01*
X9936155Y4533373D01*
X9944548Y4541766D01*
X9955000Y4547118D01*
X9965453Y4541766D01*
X9973845Y4533373D01*
X9994060Y4525000D01*
X10015940D01*
X10036155Y4533373D01*
X10044548Y4541766D01*
X10055000Y4547118D01*
X10065453Y4541766D01*
X10073845Y4533373D01*
X10094060Y4525000D01*
X10115940D01*
X10136155Y4533373D01*
X10151627Y4548845D01*
X10160000Y4569060D01*
Y4590940D01*
X10151627Y4611155D01*
X10136155Y4626627D01*
X10115940Y4635000D01*
D02*
G37*
G36*
X8808440Y4860000D02*
X8786560D01*
X8766345Y4851627D01*
X8750874Y4836155D01*
X8742500Y4815940D01*
Y4798994D01*
X8731261Y4788816D01*
X8728440Y4787500D01*
X8706560D01*
X8686345Y4779127D01*
X8670873Y4763655D01*
X8662500Y4743440D01*
Y4721560D01*
X8670873Y4701345D01*
X8686345Y4685874D01*
X8706560Y4677500D01*
X8706745Y4677223D01*
X8700000Y4660940D01*
Y4639060D01*
X8708373Y4618845D01*
X8723845Y4603374D01*
X8744060Y4595000D01*
X8765940D01*
X8786155Y4603374D01*
X8801627Y4618845D01*
X8810000Y4639060D01*
Y4660940D01*
X8801627Y4681155D01*
X8786155Y4696627D01*
X8765940Y4705000D01*
X8765755Y4705277D01*
X8772500Y4721560D01*
Y4738506D01*
X8783739Y4748684D01*
X8786560Y4750000D01*
X8808440D01*
X8828655Y4758374D01*
X8844127Y4773845D01*
X8852500Y4794060D01*
Y4815940D01*
X8844127Y4836155D01*
X8828655Y4851627D01*
X8808440Y4860000D01*
D02*
G37*
G36*
X8213028Y4697500D02*
X8191148D01*
X8170933Y4689127D01*
X8155461Y4673655D01*
X8147088Y4653440D01*
Y4631560D01*
X8155461Y4611345D01*
X8170933Y4595873D01*
X8191148Y4587500D01*
X8213028D01*
X8233243Y4595873D01*
X8248715Y4611345D01*
X8257088Y4631560D01*
Y4653440D01*
X8248715Y4673655D01*
X8233243Y4689127D01*
X8213028Y4697500D01*
D02*
G37*
G36*
X8533440Y4855000D02*
X8511560D01*
X8491345Y4846627D01*
X8475874Y4831155D01*
X8467500Y4810940D01*
Y4789060D01*
X8470839Y4781000D01*
X8466560Y4765000D01*
X8446345Y4756627D01*
X8430873Y4741155D01*
X8422500Y4720940D01*
Y4699060D01*
X8408435Y4691206D01*
X8391345Y4684127D01*
X8375874Y4668655D01*
X8367500Y4648440D01*
Y4626560D01*
X8375874Y4606345D01*
X8391345Y4590873D01*
X8411560Y4582500D01*
X8433440D01*
X8453655Y4590873D01*
X8469127Y4606345D01*
X8477500Y4626560D01*
Y4648440D01*
X8491565Y4656294D01*
X8508655Y4663373D01*
X8524126Y4678845D01*
X8532500Y4699060D01*
Y4720940D01*
X8529161Y4729000D01*
X8533440Y4745000D01*
X8553655Y4753374D01*
X8569127Y4768845D01*
X8577500Y4789060D01*
Y4810940D01*
X8569127Y4831155D01*
X8553655Y4846627D01*
X8533440Y4855000D01*
D02*
G37*
G36*
X8678440Y4580000D02*
X8656560D01*
X8636345Y4571627D01*
X8620874Y4556155D01*
X8604987Y4559611D01*
X8585940Y4567500D01*
X8564060D01*
X8543845Y4559127D01*
X8528374Y4543655D01*
X8520000Y4523440D01*
Y4503543D01*
X8518440Y4502500D01*
X8496560D01*
X8476345Y4494127D01*
X8460873Y4478655D01*
X8452500Y4458440D01*
Y4436560D01*
X8460873Y4416345D01*
X8476345Y4400874D01*
X8496560Y4392500D01*
X8518440D01*
X8538655Y4400874D01*
X8554126Y4416345D01*
X8562500Y4436560D01*
Y4456457D01*
X8564060Y4457500D01*
X8585940D01*
X8606155Y4465873D01*
X8621627Y4481345D01*
X8637514Y4477889D01*
X8656560Y4470000D01*
X8678440D01*
X8698655Y4478374D01*
X8714127Y4493845D01*
X8722500Y4514060D01*
Y4535940D01*
X8714127Y4556155D01*
X8698655Y4571627D01*
X8678440Y4580000D01*
D02*
G37*
G36*
X7960940Y4740000D02*
X7939060D01*
X7918845Y4731627D01*
X7903374Y4716155D01*
X7895000Y4695940D01*
Y4674060D01*
X7903374Y4653845D01*
X7917219Y4640000D01*
X7903374Y4626155D01*
X7895000Y4605940D01*
Y4584060D01*
X7903374Y4563845D01*
X7918845Y4548373D01*
X7939060Y4540000D01*
X7960940D01*
X7981155Y4548373D01*
X7996627Y4563845D01*
X8005000Y4584060D01*
Y4605940D01*
X7996627Y4626155D01*
X7982782Y4640000D01*
X7996627Y4653845D01*
X8005000Y4674060D01*
Y4695940D01*
X7996627Y4716155D01*
X7981155Y4731627D01*
X7960940Y4740000D01*
D02*
G37*
G36*
X9460940Y4715000D02*
X9439060D01*
X9418845Y4706627D01*
X9403373Y4691155D01*
X9395000Y4670940D01*
Y4649060D01*
X9403373Y4628845D01*
X9418845Y4613374D01*
X9419151Y4613247D01*
X9421788Y4599993D01*
X9420541Y4595353D01*
X9412500Y4575940D01*
Y4554060D01*
X9420873Y4533845D01*
X9436345Y4518373D01*
X9456560Y4510000D01*
X9478440D01*
X9498655Y4518373D01*
X9514127Y4533845D01*
X9522500Y4554060D01*
Y4575940D01*
X9514127Y4596155D01*
X9498655Y4611627D01*
X9498349Y4611753D01*
X9495712Y4625008D01*
X9496959Y4629648D01*
X9505000Y4649060D01*
Y4670940D01*
X9496626Y4691155D01*
X9481155Y4706627D01*
X9460940Y4715000D01*
D02*
G37*
G36*
X10955007Y4532500D02*
X10929993D01*
X10905832Y4526025D01*
X10884169Y4513519D01*
X10866482Y4495831D01*
X10853975Y4474168D01*
X10850782Y4462255D01*
X10834218D01*
X10831026Y4474168D01*
X10818519Y4495831D01*
X10800831Y4513519D01*
X10779169Y4526025D01*
X10755007Y4532500D01*
X10729993D01*
X10705832Y4526025D01*
X10684169Y4513519D01*
X10666482Y4495831D01*
X10653975Y4474168D01*
X10647500Y4450007D01*
Y4424993D01*
X10653975Y4400831D01*
X10666482Y4379169D01*
X10684169Y4361481D01*
X10705832Y4348974D01*
X10717745Y4345782D01*
Y4329218D01*
X10705832Y4326025D01*
X10684169Y4313518D01*
X10666482Y4295831D01*
X10660965Y4286277D01*
X10643164Y4287444D01*
X10641626Y4291155D01*
X10626155Y4306627D01*
X10605940Y4315000D01*
X10584060D01*
X10563845Y4306627D01*
X10548373Y4291155D01*
X10540000Y4270940D01*
Y4249060D01*
X10548373Y4228845D01*
X10563845Y4213374D01*
X10584060Y4205000D01*
X10605940D01*
X10626155Y4213374D01*
X10632381Y4219600D01*
X10650227Y4214818D01*
X10653975Y4200831D01*
X10666482Y4179169D01*
X10684169Y4161481D01*
X10705832Y4148974D01*
X10707313Y4148577D01*
X10707313Y4132013D01*
X10703747Y4131058D01*
X10680853Y4117840D01*
X10662160Y4099147D01*
X10648942Y4076253D01*
X10642100Y4050718D01*
Y4050200D01*
X10742500D01*
Y4037500D01*
X10755200D01*
Y3937100D01*
X10755718D01*
X10781253Y3943942D01*
X10804147Y3957160D01*
X10822840Y3975853D01*
X10836058Y3998747D01*
X10837013Y4002312D01*
X10853578Y4002312D01*
X10853975Y4000831D01*
X10866482Y3979169D01*
X10884169Y3961481D01*
X10905832Y3948974D01*
X10929993Y3942500D01*
X10955007D01*
X10979169Y3948974D01*
X11000831Y3961481D01*
X11018519Y3979169D01*
X11031026Y4000831D01*
X11037500Y4024993D01*
Y4050007D01*
X11031026Y4074168D01*
X11018519Y4095831D01*
X11000831Y4113518D01*
X10979169Y4126025D01*
X10967256Y4129218D01*
Y4145782D01*
X10979169Y4148974D01*
X11000831Y4161481D01*
X11018519Y4179169D01*
X11031026Y4200831D01*
X11037500Y4224993D01*
Y4250007D01*
X11031026Y4274168D01*
X11018519Y4295831D01*
X11000831Y4313518D01*
X10979169Y4326025D01*
X10967256Y4329218D01*
Y4345782D01*
X10979169Y4348974D01*
X11000831Y4361481D01*
X11018519Y4379169D01*
X11031026Y4400831D01*
X11037500Y4424993D01*
Y4450007D01*
X11031026Y4474168D01*
X11018519Y4495831D01*
X11000831Y4513519D01*
X10979169Y4526025D01*
X10955007Y4532500D01*
D02*
G37*
G36*
X7183790Y4722728D02*
X7161910D01*
X7141695Y4714354D01*
X7126223Y4698883D01*
X7117850Y4678668D01*
Y4656788D01*
X7123609Y4642884D01*
X7122997Y4640267D01*
X7114801Y4628107D01*
X7113982Y4627500D01*
X7094993D01*
X7070832Y4621026D01*
X7049169Y4608519D01*
X7031481Y4590831D01*
X7018975Y4569168D01*
X7012500Y4545007D01*
Y4519993D01*
X7018975Y4495831D01*
X7031481Y4474169D01*
X7049169Y4456481D01*
X7070832Y4443974D01*
X7094993Y4437500D01*
X7120007D01*
X7144169Y4443974D01*
X7165831Y4456481D01*
X7183519Y4474169D01*
X7196026Y4495831D01*
X7202500Y4519993D01*
Y4545007D01*
X7196026Y4569168D01*
X7183519Y4590831D01*
X7177622Y4596728D01*
X7183790Y4612728D01*
X7204005Y4621101D01*
X7219477Y4636573D01*
X7227850Y4656788D01*
Y4678668D01*
X7219477Y4698883D01*
X7204005Y4714354D01*
X7183790Y4722728D01*
D02*
G37*
G36*
X7720665Y4634500D02*
X7694335D01*
X7668902Y4627685D01*
X7646099Y4614520D01*
X7627480Y4595901D01*
X7614315Y4573098D01*
X7607500Y4547665D01*
Y4521335D01*
X7614315Y4495902D01*
X7627480Y4473099D01*
X7646099Y4454480D01*
X7668902Y4441315D01*
X7694335Y4434500D01*
X7720665D01*
X7746098Y4441315D01*
X7768901Y4454480D01*
X7787520Y4473099D01*
X7800685Y4495902D01*
X7807500Y4521335D01*
Y4547665D01*
X7800685Y4573098D01*
X7787520Y4595901D01*
X7768901Y4614520D01*
X7746098Y4627685D01*
X7720665Y4634500D01*
D02*
G37*
G36*
X7420665D02*
X7394335D01*
X7368902Y4627685D01*
X7346099Y4614520D01*
X7327480Y4595901D01*
X7314315Y4573098D01*
X7307500Y4547665D01*
Y4521335D01*
X7314315Y4495902D01*
X7327480Y4473099D01*
X7346099Y4454480D01*
X7368902Y4441315D01*
X7394335Y4434500D01*
X7420665D01*
X7446098Y4441315D01*
X7468901Y4454480D01*
X7487520Y4473099D01*
X7500685Y4495902D01*
X7507500Y4521335D01*
Y4547665D01*
X7500685Y4573098D01*
X7487520Y4595901D01*
X7468901Y4614520D01*
X7446098Y4627685D01*
X7420665Y4634500D01*
D02*
G37*
G36*
X10233440Y4527500D02*
X10211560D01*
X10191345Y4519127D01*
X10175873Y4503655D01*
X10167500Y4483440D01*
Y4461560D01*
X10175873Y4441345D01*
X10191345Y4425874D01*
X10211560Y4417500D01*
X10233440D01*
X10253655Y4425874D01*
X10269127Y4441345D01*
X10277500Y4461560D01*
Y4483440D01*
X10269127Y4503655D01*
X10253655Y4519127D01*
X10233440Y4527500D01*
D02*
G37*
G36*
X8283440Y4560000D02*
X8261560D01*
X8241345Y4551626D01*
X8225874Y4536155D01*
X8217911Y4516931D01*
X8210940Y4502500D01*
X8189060D01*
X8168845Y4494127D01*
X8153374Y4478655D01*
X8145000Y4458440D01*
Y4436560D01*
X8153374Y4416345D01*
X8168845Y4400874D01*
X8189060Y4392500D01*
X8210940D01*
X8231155Y4400874D01*
X8246627Y4416345D01*
X8254590Y4435569D01*
X8261560Y4450000D01*
X8283440D01*
X8303655Y4458373D01*
X8319127Y4473845D01*
X8327500Y4494060D01*
Y4515940D01*
X8319127Y4536155D01*
X8303655Y4551626D01*
X8283440Y4560000D01*
D02*
G37*
G36*
X9440940Y4460000D02*
X9419060D01*
X9398845Y4451627D01*
X9383373Y4436155D01*
X9375000Y4415940D01*
Y4394060D01*
X9383373Y4373845D01*
X9398845Y4358374D01*
X9419060Y4350000D01*
X9440940D01*
X9461155Y4358374D01*
X9476626Y4373845D01*
X9485000Y4394060D01*
Y4415940D01*
X9476626Y4436155D01*
X9461155Y4451627D01*
X9440940Y4460000D01*
D02*
G37*
G36*
X8808440Y4547500D02*
X8786560D01*
X8766345Y4539127D01*
X8750874Y4523655D01*
X8742500Y4503440D01*
Y4481560D01*
X8750874Y4461345D01*
X8766345Y4445874D01*
X8786560Y4437500D01*
X8791424D01*
X8800314Y4424196D01*
X8800000Y4423440D01*
Y4401560D01*
X8808374Y4381345D01*
X8823845Y4365873D01*
X8844060Y4357500D01*
X8865940D01*
X8886155Y4365873D01*
X8894832Y4374551D01*
X8896012Y4374707D01*
X8912774Y4369865D01*
X8918374Y4356345D01*
X8933845Y4340873D01*
X8954060Y4332500D01*
X8975940D01*
X8996155Y4340873D01*
X9011627Y4356345D01*
X9020000Y4376560D01*
Y4398440D01*
X9011627Y4418655D01*
X8996155Y4434127D01*
X8975940Y4442500D01*
X8954060D01*
X8933845Y4434127D01*
X8925168Y4425449D01*
X8923988Y4425293D01*
X8907227Y4430135D01*
X8901627Y4443655D01*
X8886155Y4459126D01*
X8865940Y4467500D01*
X8861076D01*
X8852187Y4480804D01*
X8852500Y4481560D01*
Y4503440D01*
X8844127Y4523655D01*
X8828655Y4539127D01*
X8808440Y4547500D01*
D02*
G37*
G36*
X7120718Y4378900D02*
X7120200D01*
Y4291200D01*
X7207900D01*
Y4291718D01*
X7201058Y4317253D01*
X7187840Y4340147D01*
X7169147Y4358840D01*
X7146253Y4372058D01*
X7120718Y4378900D01*
D02*
G37*
G36*
X7094800D02*
X7094282D01*
X7068747Y4372058D01*
X7045853Y4358840D01*
X7027160Y4340147D01*
X7013942Y4317253D01*
X7007100Y4291718D01*
Y4291200D01*
X7094800D01*
Y4378900D01*
D02*
G37*
G36*
X10474895Y4388228D02*
X10453015D01*
X10432800Y4379854D01*
X10417328Y4364383D01*
X10408955Y4344168D01*
Y4322288D01*
X10417328Y4302073D01*
X10432800Y4286601D01*
X10453015Y4278228D01*
X10474895D01*
X10495110Y4286601D01*
X10510581Y4302073D01*
X10518955Y4322288D01*
Y4344168D01*
X10510581Y4364383D01*
X10495110Y4379854D01*
X10474895Y4388228D01*
D02*
G37*
G36*
X8855940Y4325000D02*
X8834060D01*
X8813845Y4316627D01*
X8798374Y4301155D01*
X8790000Y4280940D01*
Y4259060D01*
X8798374Y4238845D01*
X8813845Y4223374D01*
X8834060Y4215000D01*
X8855940D01*
X8876155Y4223374D01*
X8891627Y4238845D01*
X8900000Y4259060D01*
Y4280940D01*
X8891627Y4301155D01*
X8876155Y4316627D01*
X8855940Y4325000D01*
D02*
G37*
G36*
X7720665Y4380500D02*
X7694335D01*
X7668902Y4373685D01*
X7646099Y4360520D01*
X7627480Y4341901D01*
X7614315Y4319098D01*
X7607500Y4293665D01*
Y4267335D01*
X7614315Y4241902D01*
X7627480Y4219099D01*
X7646099Y4200480D01*
X7668902Y4187315D01*
X7694335Y4180500D01*
X7720665D01*
X7746098Y4187315D01*
X7768901Y4200480D01*
X7787520Y4219099D01*
X7800685Y4241902D01*
X7807500Y4267335D01*
Y4293665D01*
X7800685Y4319098D01*
X7787520Y4341901D01*
X7768901Y4360520D01*
X7746098Y4373685D01*
X7720665Y4380500D01*
D02*
G37*
G36*
X7420665D02*
X7394335D01*
X7368902Y4373685D01*
X7346099Y4360520D01*
X7327480Y4341901D01*
X7314315Y4319098D01*
X7307500Y4293665D01*
Y4267335D01*
X7314315Y4241902D01*
X7327480Y4219099D01*
X7346099Y4200480D01*
X7368902Y4187315D01*
X7394335Y4180500D01*
X7420665D01*
X7446098Y4187315D01*
X7468901Y4200480D01*
X7487520Y4219099D01*
X7500685Y4241902D01*
X7507500Y4267335D01*
Y4293665D01*
X7500685Y4319098D01*
X7487520Y4341901D01*
X7468901Y4360520D01*
X7446098Y4373685D01*
X7420665Y4380500D01*
D02*
G37*
G36*
X7207900Y4265800D02*
X7120200D01*
Y4178100D01*
X7120718D01*
X7146253Y4184942D01*
X7169147Y4198160D01*
X7187840Y4216853D01*
X7201058Y4239747D01*
X7207900Y4265282D01*
Y4265800D01*
D02*
G37*
G36*
X7094800D02*
X7007100D01*
Y4265282D01*
X7013942Y4239747D01*
X7027160Y4216853D01*
X7045853Y4198160D01*
X7068747Y4184942D01*
X7094282Y4178100D01*
X7094800D01*
Y4265800D01*
D02*
G37*
G36*
X9360940Y4240000D02*
X9339060D01*
X9318845Y4231627D01*
X9303374Y4216155D01*
X9295000Y4195940D01*
Y4174060D01*
X9303374Y4153845D01*
X9318845Y4138373D01*
X9339060Y4130000D01*
X9360940D01*
X9381155Y4138373D01*
X9396627Y4153845D01*
X9405000Y4174060D01*
Y4195940D01*
X9396627Y4216155D01*
X9381155Y4231627D01*
X9360940Y4240000D01*
D02*
G37*
G36*
X10260940Y4290000D02*
X10239060D01*
X10218845Y4281626D01*
X10203374Y4266155D01*
X10195000Y4245940D01*
Y4224060D01*
X10203374Y4203845D01*
X10218845Y4188373D01*
X10239060Y4180000D01*
X10239884Y4178766D01*
X10232500Y4160940D01*
Y4139060D01*
X10240874Y4118845D01*
X10256345Y4103374D01*
X10276560Y4095000D01*
X10298440D01*
X10318655Y4103374D01*
X10334127Y4118845D01*
X10342500Y4139060D01*
Y4160940D01*
X10334127Y4181155D01*
X10318655Y4196627D01*
X10298440Y4205000D01*
X10297616Y4206234D01*
X10305000Y4224060D01*
Y4245940D01*
X10296627Y4266155D01*
X10281155Y4281626D01*
X10260940Y4290000D01*
D02*
G37*
G36*
X10115940Y4115000D02*
X10094060D01*
X10073845Y4106627D01*
X10065453Y4098234D01*
X10055000Y4092882D01*
X10044548Y4098234D01*
X10036155Y4106627D01*
X10015940Y4115000D01*
X9994060D01*
X9973845Y4106627D01*
X9965453Y4098234D01*
X9955000Y4092882D01*
X9944548Y4098234D01*
X9936155Y4106627D01*
X9915940Y4115000D01*
X9894060D01*
X9873845Y4106627D01*
X9865452Y4098234D01*
X9855000Y4092882D01*
X9844547Y4098234D01*
X9836155Y4106627D01*
X9815940Y4115000D01*
X9794060D01*
X9773845Y4106627D01*
X9765452Y4098234D01*
X9755000Y4092882D01*
X9744547Y4098234D01*
X9736155Y4106627D01*
X9715940Y4115000D01*
X9694060D01*
X9673845Y4106627D01*
X9658373Y4091155D01*
X9650000Y4070940D01*
Y4049060D01*
X9658373Y4028845D01*
X9673845Y4013373D01*
X9694060Y4005000D01*
X9715940D01*
X9736155Y4013373D01*
X9744547Y4021766D01*
X9755000Y4027118D01*
X9765452Y4021766D01*
X9773845Y4013373D01*
X9794060Y4005000D01*
X9815940D01*
X9836155Y4013373D01*
X9844547Y4021766D01*
X9855000Y4027118D01*
X9865452Y4021766D01*
X9873845Y4013373D01*
X9894060Y4005000D01*
X9915940D01*
X9936155Y4013373D01*
X9944548Y4021766D01*
X9955000Y4027118D01*
X9965453Y4021766D01*
X9973845Y4013373D01*
X9994060Y4005000D01*
X10015940D01*
X10036155Y4013373D01*
X10044548Y4021766D01*
X10055000Y4027118D01*
X10065453Y4021766D01*
X10073845Y4013373D01*
X10094060Y4005000D01*
X10115940D01*
X10136155Y4013373D01*
X10151627Y4028845D01*
X10160000Y4049060D01*
Y4070940D01*
X10151627Y4091155D01*
X10136155Y4106627D01*
X10115940Y4115000D01*
D02*
G37*
G36*
X9095940Y4152500D02*
X9074060D01*
X9053845Y4144127D01*
X9038374Y4128655D01*
X9030000Y4108440D01*
Y4086560D01*
X9038374Y4066345D01*
X9053845Y4050874D01*
X9074060Y4042500D01*
X9095940D01*
X9116155Y4050874D01*
X9131627Y4066345D01*
X9140000Y4086560D01*
Y4108440D01*
X9131627Y4128655D01*
X9116155Y4144127D01*
X9095940Y4152500D01*
D02*
G37*
G36*
X8045940Y4100000D02*
X8024060D01*
X8003845Y4091627D01*
X7988373Y4076155D01*
X7980000Y4055940D01*
Y4034060D01*
X7988373Y4013845D01*
X8003845Y3998374D01*
X8024060Y3990000D01*
X8045940D01*
X8066155Y3998374D01*
X8081626Y4013845D01*
X8090000Y4034060D01*
Y4055940D01*
X8081626Y4076155D01*
X8066155Y4091627D01*
X8045940Y4100000D01*
D02*
G37*
G36*
X8858440Y4090000D02*
X8836560D01*
X8816345Y4081627D01*
X8800873Y4066155D01*
X8792500Y4045940D01*
Y4024060D01*
X8800873Y4003845D01*
X8816345Y3988374D01*
X8836560Y3980000D01*
X8858440D01*
X8878655Y3988374D01*
X8894126Y4003845D01*
X8902500Y4024060D01*
Y4045940D01*
X8894126Y4066155D01*
X8878655Y4081627D01*
X8858440Y4090000D01*
D02*
G37*
G36*
X10729800Y4024800D02*
X10642100D01*
Y4024282D01*
X10648942Y3998747D01*
X10662160Y3975853D01*
X10680853Y3957160D01*
X10703747Y3943942D01*
X10729282Y3937100D01*
X10729800D01*
Y4024800D01*
D02*
G37*
G36*
X7120007Y4119500D02*
X7094993D01*
X7070832Y4113026D01*
X7049169Y4100519D01*
X7031481Y4082831D01*
X7018975Y4061168D01*
X7012500Y4037007D01*
Y4011993D01*
X7018975Y3987831D01*
X7031481Y3966169D01*
X7049169Y3948481D01*
X7070832Y3935974D01*
X7094993Y3929500D01*
X7120007D01*
X7144169Y3935974D01*
X7165831Y3948481D01*
X7183519Y3966169D01*
X7196026Y3987831D01*
X7202500Y4011993D01*
Y4037007D01*
X7196026Y4061168D01*
X7183519Y4082831D01*
X7165831Y4100519D01*
X7144169Y4113026D01*
X7120007Y4119500D01*
D02*
G37*
G36*
X7720665Y4126500D02*
X7694335D01*
X7668902Y4119685D01*
X7646099Y4106520D01*
X7627480Y4087901D01*
X7614315Y4065098D01*
X7607500Y4039665D01*
Y4013335D01*
X7614315Y3987902D01*
X7627480Y3965099D01*
X7646099Y3946480D01*
X7668902Y3933315D01*
X7694335Y3926500D01*
X7720665D01*
X7746098Y3933315D01*
X7768901Y3946480D01*
X7787520Y3965099D01*
X7800685Y3987902D01*
X7807500Y4013335D01*
Y4039665D01*
X7800685Y4065098D01*
X7787520Y4087901D01*
X7768901Y4106520D01*
X7746098Y4119685D01*
X7720665Y4126500D01*
D02*
G37*
G36*
X7420665D02*
X7394335D01*
X7368902Y4119685D01*
X7346099Y4106520D01*
X7327480Y4087901D01*
X7314315Y4065098D01*
X7307500Y4039665D01*
Y4013335D01*
X7314315Y3987902D01*
X7327480Y3965099D01*
X7346099Y3946480D01*
X7368902Y3933315D01*
X7394335Y3926500D01*
X7420665D01*
X7446098Y3933315D01*
X7468901Y3946480D01*
X7487520Y3965099D01*
X7500685Y3987902D01*
X7507500Y4013335D01*
Y4039665D01*
X7500685Y4065098D01*
X7487520Y4087901D01*
X7468901Y4106520D01*
X7446098Y4119685D01*
X7420665Y4126500D01*
D02*
G37*
G36*
X9437047Y3875400D02*
X9436199D01*
Y3785200D01*
X9526400D01*
Y3786047D01*
X9519387Y3812218D01*
X9505840Y3835682D01*
X9486682Y3854840D01*
X9463218Y3868387D01*
X9437047Y3875400D01*
D02*
G37*
G36*
X9410799D02*
X9409953D01*
X9383782Y3868387D01*
X9360318Y3854840D01*
X9341159Y3835682D01*
X9327612Y3812218D01*
X9320600Y3786047D01*
Y3785200D01*
X9410799D01*
Y3875400D01*
D02*
G37*
G36*
X8882718Y3872900D02*
X8882200D01*
Y3785200D01*
X8969900D01*
Y3785718D01*
X8963058Y3811253D01*
X8949840Y3834147D01*
X8931147Y3852840D01*
X8908253Y3866058D01*
X8882718Y3872900D01*
D02*
G37*
G36*
X8856800D02*
X8856282D01*
X8830747Y3866058D01*
X8807853Y3852840D01*
X8789160Y3834147D01*
X8775942Y3811253D01*
X8769100Y3785718D01*
Y3785200D01*
X8856800D01*
Y3872900D01*
D02*
G37*
G36*
X9068440Y3850000D02*
X9046560D01*
X9026345Y3841627D01*
X9010874Y3826155D01*
X9002500Y3805940D01*
Y3784060D01*
X9010874Y3763845D01*
X9026345Y3748374D01*
X9046560Y3740000D01*
X9068440D01*
X9088655Y3748374D01*
X9104127Y3763845D01*
X9112500Y3784060D01*
Y3805940D01*
X9104127Y3826155D01*
X9088655Y3841627D01*
X9068440Y3850000D01*
D02*
G37*
G36*
X6845931Y4010000D02*
X6809069D01*
X6773462Y4000459D01*
X6741538Y3982028D01*
X6715472Y3955962D01*
X6697041Y3924038D01*
X6687500Y3888431D01*
Y3851569D01*
X6697041Y3815962D01*
X6715472Y3784038D01*
X6741538Y3757972D01*
X6773462Y3739541D01*
X6809069Y3730000D01*
X6845931D01*
X6881538Y3739541D01*
X6913462Y3757972D01*
X6939528Y3784038D01*
X6957959Y3815962D01*
X6967500Y3851569D01*
Y3888431D01*
X6957959Y3924038D01*
X6939528Y3955962D01*
X6913462Y3982028D01*
X6881538Y4000459D01*
X6845931Y4010000D01*
D02*
G37*
G36*
X8628007Y3867500D02*
X8602993D01*
X8578831Y3861026D01*
X8557169Y3848519D01*
X8539481Y3830831D01*
X8526974Y3809168D01*
X8520500Y3785007D01*
Y3759993D01*
X8526974Y3735831D01*
X8539481Y3714169D01*
X8557169Y3696481D01*
X8578831Y3683974D01*
X8602993Y3677500D01*
X8628007D01*
X8652168Y3683974D01*
X8673831Y3696481D01*
X8691519Y3714169D01*
X8704026Y3735831D01*
X8710500Y3759993D01*
Y3785007D01*
X8704026Y3809168D01*
X8691519Y3830831D01*
X8673831Y3848519D01*
X8652168Y3861026D01*
X8628007Y3867500D01*
D02*
G37*
G36*
X8374007D02*
X8348993D01*
X8324831Y3861026D01*
X8303169Y3848519D01*
X8285481Y3830831D01*
X8272974Y3809168D01*
X8266500Y3785007D01*
Y3759993D01*
X8272974Y3735831D01*
X8285481Y3714169D01*
X8303169Y3696481D01*
X8324831Y3683974D01*
X8348993Y3677500D01*
X8374007D01*
X8398168Y3683974D01*
X8419831Y3696481D01*
X8437519Y3714169D01*
X8450026Y3735831D01*
X8456500Y3759993D01*
Y3785007D01*
X8450026Y3809168D01*
X8437519Y3830831D01*
X8419831Y3848519D01*
X8398168Y3861026D01*
X8374007Y3867500D01*
D02*
G37*
G36*
X8120007D02*
X8094993D01*
X8070831Y3861026D01*
X8049169Y3848519D01*
X8031481Y3830831D01*
X8018974Y3809168D01*
X8012500Y3785007D01*
Y3759993D01*
X8018974Y3735831D01*
X8031481Y3714169D01*
X8049169Y3696481D01*
X8070831Y3683974D01*
X8094993Y3677500D01*
X8120007D01*
X8144168Y3683974D01*
X8165831Y3696481D01*
X8183519Y3714169D01*
X8196026Y3735831D01*
X8202500Y3759993D01*
Y3785007D01*
X8196026Y3809168D01*
X8183519Y3830831D01*
X8165831Y3848519D01*
X8144168Y3861026D01*
X8120007Y3867500D01*
D02*
G37*
G36*
X10283000Y3870000D02*
X10088000D01*
Y3675000D01*
X10283000D01*
Y3870000D01*
D02*
G37*
G36*
X9944336D02*
X9918664D01*
X9893866Y3863355D01*
X9871634Y3850519D01*
X9853480Y3832366D01*
X9840645Y3810134D01*
X9834000Y3785336D01*
Y3759664D01*
X9840645Y3734866D01*
X9853480Y3712634D01*
X9871634Y3694481D01*
X9893866Y3681645D01*
X9918664Y3675000D01*
X9944336D01*
X9969133Y3681645D01*
X9991366Y3694481D01*
X10009519Y3712634D01*
X10022355Y3734866D01*
X10029000Y3759664D01*
Y3785336D01*
X10022355Y3810134D01*
X10009519Y3832366D01*
X9991366Y3850519D01*
X9969133Y3863355D01*
X9944336Y3870000D01*
D02*
G37*
G36*
X9690336D02*
X9664664D01*
X9639866Y3863355D01*
X9617634Y3850519D01*
X9599480Y3832366D01*
X9586645Y3810134D01*
X9580000Y3785336D01*
Y3759664D01*
X9586645Y3734866D01*
X9599480Y3712634D01*
X9617634Y3694481D01*
X9639866Y3681645D01*
X9664664Y3675000D01*
X9690336D01*
X9715133Y3681645D01*
X9737366Y3694481D01*
X9755519Y3712634D01*
X9768355Y3734866D01*
X9775000Y3759664D01*
Y3785336D01*
X9768355Y3810134D01*
X9755519Y3832366D01*
X9737366Y3850519D01*
X9715133Y3863355D01*
X9690336Y3870000D01*
D02*
G37*
G36*
X7807500Y3872500D02*
X7607500D01*
Y3672500D01*
X7807500D01*
Y3872500D01*
D02*
G37*
G36*
X7420665D02*
X7394335D01*
X7368902Y3865685D01*
X7346099Y3852520D01*
X7327480Y3833901D01*
X7314315Y3811098D01*
X7307500Y3785665D01*
Y3759335D01*
X7314315Y3733902D01*
X7327480Y3711099D01*
X7346099Y3692480D01*
X7368902Y3679315D01*
X7394335Y3672500D01*
X7420665D01*
X7446098Y3679315D01*
X7468901Y3692480D01*
X7487520Y3711099D01*
X7500685Y3733902D01*
X7507500Y3759335D01*
Y3785665D01*
X7500685Y3811098D01*
X7487520Y3833901D01*
X7468901Y3852520D01*
X7446098Y3865685D01*
X7420665Y3872500D01*
D02*
G37*
G36*
X8969900Y3759800D02*
X8882200D01*
Y3672100D01*
X8882718D01*
X8908253Y3678942D01*
X8931147Y3692160D01*
X8949840Y3710853D01*
X8963058Y3733747D01*
X8969900Y3759282D01*
Y3759800D01*
D02*
G37*
G36*
X8856800D02*
X8769100D01*
Y3759282D01*
X8775942Y3733747D01*
X8789160Y3710853D01*
X8807853Y3692160D01*
X8830747Y3678942D01*
X8856282Y3672100D01*
X8856800D01*
Y3759800D01*
D02*
G37*
G36*
X9526400Y3759800D02*
X9436199D01*
Y3669600D01*
X9437047D01*
X9463218Y3676612D01*
X9486682Y3690159D01*
X9505840Y3709318D01*
X9519387Y3732782D01*
X9526400Y3758953D01*
Y3759800D01*
D02*
G37*
G36*
X9410799D02*
X9320600D01*
Y3758953D01*
X9327612Y3732782D01*
X9341159Y3709318D01*
X9360318Y3690159D01*
X9383782Y3676612D01*
X9409953Y3669600D01*
X9410799D01*
Y3759800D01*
D02*
G37*
%LPD*%
D38*
X10480000Y6207500D02*
D03*
Y6707500D02*
D03*
D39*
X10742500Y4037500D02*
D03*
X10742500Y4952500D02*
D03*
X7107500Y4278500D02*
D03*
X8869500Y3772500D02*
D03*
X10742500Y4237500D02*
D03*
Y4437500D02*
D03*
X10942500D02*
D03*
Y4237500D02*
D03*
Y4037500D02*
D03*
X10742500Y5152500D02*
D03*
Y5352500D02*
D03*
X10942500D02*
D03*
Y5152500D02*
D03*
Y4952500D02*
D03*
X7107500Y4532500D02*
D03*
Y4024500D02*
D03*
X8615500Y3772500D02*
D03*
X8361500D02*
D03*
X8107500D02*
D03*
D40*
X7205000Y6712500D02*
D03*
Y6577500D02*
D03*
X7800000Y6712500D02*
D03*
Y6577500D02*
D03*
X7460000D02*
D03*
X7545000Y6712500D02*
D03*
Y6577500D02*
D03*
X7460000Y6712500D02*
D03*
X7290000Y6577500D02*
D03*
X7375000D02*
D03*
X7630000D02*
D03*
X7715000D02*
D03*
Y6712500D02*
D03*
X7630000D02*
D03*
X7375000D02*
D03*
X7290000D02*
D03*
D41*
X7035000Y5610500D02*
D03*
X8331500Y6907500D02*
D03*
X9439500D02*
D03*
X7035000Y5102500D02*
D03*
X9312500Y6653500D02*
D03*
X8204500D02*
D03*
X6781000Y5737500D02*
D03*
Y5483500D02*
D03*
X7035000Y5356500D02*
D03*
X6781000Y5229500D02*
D03*
X9947500Y6907500D02*
D03*
X9820500Y6653500D02*
D03*
X9693500Y6907500D02*
D03*
X9566500Y6653500D02*
D03*
X8458500D02*
D03*
X8585500Y6907500D02*
D03*
X8712500Y6653500D02*
D03*
X8839500Y6907500D02*
D03*
D42*
X7707500Y4788500D02*
D03*
Y4280500D02*
D03*
Y4026500D02*
D03*
Y4534500D02*
D03*
X7407500Y4280500D02*
D03*
Y4534500D02*
D03*
Y4026500D02*
D03*
Y3772500D02*
D03*
D43*
X9423500D02*
D03*
X9931500D02*
D03*
X9677500D02*
D03*
D44*
X7070000Y6675500D02*
D03*
X7935000D02*
D03*
D45*
X7070000Y7013500D02*
D03*
X7935000D02*
D03*
D46*
X10185500Y3772500D02*
D03*
D47*
X7707500D02*
D03*
X7407500Y4788500D02*
D03*
D48*
X8436452Y5753679D02*
D03*
X8957500Y5257500D02*
D03*
X9090000Y5050000D02*
D03*
X9107500Y4960001D02*
D03*
X7190000Y5232500D02*
D03*
X8330000Y5522500D02*
D03*
X7612500Y7160000D02*
D03*
X7260000D02*
D03*
X6645000Y6555000D02*
D03*
Y6192500D02*
D03*
Y5760000D02*
D03*
X6640000Y5067500D02*
D03*
X7167500Y4887500D02*
D03*
X7422500Y4992500D02*
D03*
X7805000Y5252500D02*
D03*
X7922500Y5780000D02*
D03*
X7410000Y5935000D02*
D03*
X7212500Y5512500D02*
D03*
X7180000Y5697500D02*
D03*
Y5797500D02*
D03*
Y5897500D02*
D03*
Y5997500D02*
D03*
Y5597500D02*
D03*
X7215000Y6175000D02*
D03*
X7160000Y6312500D02*
D03*
X7550000Y6147500D02*
D03*
X7635000Y6235000D02*
D03*
X7620000Y6447500D02*
D03*
X8287500Y5307500D02*
D03*
X11099997Y7049998D02*
D03*
Y6749998D02*
D03*
Y6449998D02*
D03*
Y6149998D02*
D03*
Y4649999D02*
D03*
X11024996Y6899998D02*
D03*
Y6599998D02*
D03*
X10949997Y6449998D02*
D03*
Y6149998D02*
D03*
X11024996Y5999998D02*
D03*
X10799997Y7049998D02*
D03*
X10874997Y6899998D02*
D03*
X10799997Y6749998D02*
D03*
X10874997Y6599998D02*
D03*
X10799997Y6449998D02*
D03*
X10874997Y6299998D02*
D03*
X10799997Y6149998D02*
D03*
X10874997Y5999998D02*
D03*
X10649997Y7049998D02*
D03*
X10724997Y6899998D02*
D03*
Y6599998D02*
D03*
Y5699998D02*
D03*
X10499997Y7049998D02*
D03*
X10574997Y6899998D02*
D03*
Y5699998D02*
D03*
X10349997Y7049998D02*
D03*
X10199997D02*
D03*
X10274997Y6899998D02*
D03*
Y6599998D02*
D03*
X10199997Y6449998D02*
D03*
X10049997Y7049998D02*
D03*
Y6449998D02*
D03*
X8750000Y5672500D02*
D03*
X8660000D02*
D03*
X6892500Y6217500D02*
D03*
X8675000Y6360000D02*
D03*
X7937500Y5652500D02*
D03*
X8092500Y5987500D02*
D03*
X7680000Y5700000D02*
D03*
X7982500Y5087500D02*
D03*
X10175000Y5872500D02*
D03*
X9167500Y4462500D02*
D03*
X8567918Y4192705D02*
D03*
X9480000Y4327500D02*
D03*
X6640000Y4700000D02*
D03*
X8155000Y3922500D02*
D03*
X8205000Y4965000D02*
D03*
X8145000Y6410000D02*
D03*
X9797500Y4295000D02*
D03*
X9897500D02*
D03*
X9792500Y5032500D02*
D03*
Y4932500D02*
D03*
X9892500D02*
D03*
Y5032500D02*
D03*
X9840000Y6310000D02*
D03*
Y6427500D02*
D03*
X9897500Y4195000D02*
D03*
X9797500D02*
D03*
X10385000Y5305000D02*
D03*
X10175000Y5472500D02*
D03*
Y5757500D02*
D03*
Y5615000D02*
D03*
X10555000Y4450000D02*
D03*
X10552500Y4547500D02*
D03*
X10595000Y4030000D02*
D03*
X10512500Y4095000D02*
D03*
X10600000Y4947500D02*
D03*
X10585000Y5305000D02*
D03*
X7342500Y6890000D02*
D03*
X6640000Y3665000D02*
D03*
Y4145000D02*
D03*
Y4452500D02*
D03*
X8795000Y5030000D02*
D03*
X7862500Y4355000D02*
D03*
X7915000Y3745000D02*
D03*
X6917500Y3665000D02*
D03*
X9242500Y4017500D02*
D03*
X10675000Y3662500D02*
D03*
X11127500Y3685000D02*
D03*
X11132287Y4466241D02*
D03*
X11120000Y5057500D02*
D03*
X11121222Y5757982D02*
D03*
X9335000Y6195000D02*
D03*
X9116500Y6500000D02*
D03*
X8717332Y6451571D02*
D03*
X9185000Y6357500D02*
D03*
X9460000Y5715000D02*
D03*
X10222500Y4472500D02*
D03*
X9467500Y4565000D02*
D03*
X10287500Y5242500D02*
D03*
X9450000Y4660000D02*
D03*
X8797500Y4805000D02*
D03*
X8717500Y4732500D02*
D03*
X9107500Y5297500D02*
D03*
X8855000Y4412500D02*
D03*
X8845000Y4270000D02*
D03*
X8965000Y4387500D02*
D03*
X8797500Y4492500D02*
D03*
X8720000Y4980000D02*
D03*
X8667500Y4525000D02*
D03*
X8575000Y4512500D02*
D03*
X8507500Y4447500D02*
D03*
X8422500Y4637500D02*
D03*
X8477500Y4710000D02*
D03*
X8272500Y4505000D02*
D03*
X8200000Y4447500D02*
D03*
X8202088Y4642500D02*
D03*
X8755000Y4650000D02*
D03*
X8847500Y4035000D02*
D03*
X9157500Y5455000D02*
D03*
X8522500Y4800000D02*
D03*
X9582500Y5875000D02*
D03*
X9427500Y5475000D02*
D03*
X9442500Y5225000D02*
D03*
X9430000Y5317500D02*
D03*
X10005000Y5330000D02*
D03*
X9905000D02*
D03*
X10102983Y4810235D02*
D03*
X10005000Y4810000D02*
D03*
X10005000Y4580000D02*
D03*
X10105000D02*
D03*
X9447500Y5130000D02*
D03*
X9385000Y6550000D02*
D03*
X9253807Y6956151D02*
D03*
X9350000Y4185000D02*
D03*
X7172850Y4667728D02*
D03*
X7950000Y4595000D02*
D03*
Y4685000D02*
D03*
X10441859Y5131839D02*
D03*
X10463955Y4333228D02*
D03*
X10595000Y4260000D02*
D03*
X10597500Y5152500D02*
D03*
X9570000Y5565000D02*
D03*
X9555000Y5680000D02*
D03*
X9085000Y4097500D02*
D03*
X9057500Y3795000D02*
D03*
X9910000Y6162500D02*
D03*
X9810000D02*
D03*
X9910000Y6065000D02*
D03*
X9810000D02*
D03*
X10010000D02*
D03*
X10110000D02*
D03*
X10010000Y6162500D02*
D03*
X10110000D02*
D03*
X9805000Y4810000D02*
D03*
X9902983Y4810235D02*
D03*
X9705000Y4580000D02*
D03*
X9805000D02*
D03*
X9905000D02*
D03*
X9450000Y4800000D02*
D03*
X9430000Y4405000D02*
D03*
X9447500Y4897500D02*
D03*
X9442500Y5040000D02*
D03*
X10287500Y4150000D02*
D03*
X10250000Y4235000D02*
D03*
X10300000Y4920000D02*
D03*
X10217500Y4997500D02*
D03*
X9705000Y4810000D02*
D03*
X10105000Y5330000D02*
D03*
X9805000D02*
D03*
X9705000Y4060000D02*
D03*
X9805000D02*
D03*
X10005000D02*
D03*
X10105000D02*
D03*
X9905000D02*
D03*
X7687500Y5062500D02*
D03*
X8035000Y4045000D02*
D03*
%TF.MD5,2cc7e2b3c03548687933302aa8e4ca8a*%
M02*
