%TF.GenerationSoftware,Altium Limited,Altium Designer,26.2.0 (7)*%
G04 Layer_Physical_Order=3*
G04 Layer_Color=16440176*
%FSLAX45Y45*%
%MOMM*%
%TF.SameCoordinates,00FDB721-44CF-4368-98B2-66699BB62886*%
%TF.FilePolarity,Positive*%
%TF.FileFunction,Copper,L3,Inr,Signal*%
%TF.Part,Single*%
G01*
G75*
%TA.AperFunction,Conductor*%
%ADD34C,0.30000*%
%ADD35C,0.50000*%
%TA.AperFunction,ComponentPad*%
%ADD38C,3.00000*%
%ADD39C,1.50000*%
%ADD40C,0.65000*%
%ADD41C,1.20000*%
%ADD42C,1.60000*%
%ADD43C,1.55000*%
G04:AMPARAMS|DCode=44|XSize=0.9mm|YSize=2.4mm|CornerRadius=0.45mm|HoleSize=0mm|Usage=FLASHONLY|Rotation=0.000|XOffset=0mm|YOffset=0mm|HoleType=Round|Shape=RoundedRectangle|*
%AMROUNDEDRECTD44*
21,1,0.90000,1.50000,0,0,0.0*
21,1,0.00000,2.40000,0,0,0.0*
1,1,0.90000,0.00000,-0.75000*
1,1,0.90000,0.00000,-0.75000*
1,1,0.90000,0.00000,0.75000*
1,1,0.90000,0.00000,0.75000*
%
%ADD44ROUNDEDRECTD44*%
G04:AMPARAMS|DCode=45|XSize=0.9mm|YSize=1.7mm|CornerRadius=0.45mm|HoleSize=0mm|Usage=FLASHONLY|Rotation=0.000|XOffset=0mm|YOffset=0mm|HoleType=Round|Shape=RoundedRectangle|*
%AMROUNDEDRECTD45*
21,1,0.90000,0.80000,0,0,0.0*
21,1,0.00000,1.70000,0,0,0.0*
1,1,0.90000,0.00000,-0.40000*
1,1,0.90000,0.00000,-0.40000*
1,1,0.90000,0.00000,0.40000*
1,1,0.90000,0.00000,0.40000*
%
%ADD45ROUNDEDRECTD45*%
%ADD46R,1.55000X1.55000*%
%ADD47R,1.60000X1.60000*%
%TA.AperFunction,ViaPad*%
%ADD48C,0.70000*%
G36*
X11201604Y7244104D02*
Y6141604D01*
D01*
X11201604Y3595896D01*
X8762500D01*
Y3792500D01*
X9026466Y4056466D01*
X9048392Y4056326D01*
X9053845Y4050874D01*
X9074060Y4042500D01*
X9095940D01*
X9116155Y4050874D01*
X9131627Y4066345D01*
X9140000Y4086560D01*
Y4108440D01*
X9147724Y4120000D01*
X9219118D01*
X9222611Y4102442D01*
X9232557Y4087557D01*
X9447557Y3872557D01*
X9462442Y3862611D01*
X9480000Y3859119D01*
X9603605D01*
X9610233Y3843119D01*
X9599480Y3832366D01*
X9586645Y3810134D01*
X9580000Y3785336D01*
Y3759664D01*
X9586645Y3734866D01*
X9599480Y3712634D01*
X9617634Y3694481D01*
X9639866Y3681645D01*
X9664664Y3675000D01*
X9690336D01*
X9715133Y3681645D01*
X9737366Y3694481D01*
X9755519Y3712634D01*
X9768355Y3734866D01*
X9775000Y3759664D01*
Y3785336D01*
X9768355Y3810134D01*
X9755519Y3832366D01*
X9744767Y3843119D01*
X9751395Y3859119D01*
X9857605D01*
X9864233Y3843119D01*
X9853480Y3832366D01*
X9840645Y3810134D01*
X9834000Y3785336D01*
Y3759664D01*
X9840645Y3734866D01*
X9853480Y3712634D01*
X9871634Y3694481D01*
X9893866Y3681645D01*
X9918664Y3675000D01*
X9944336D01*
X9969133Y3681645D01*
X9991366Y3694481D01*
X10009519Y3712634D01*
X10022355Y3734866D01*
X10029000Y3759664D01*
Y3785336D01*
X10022355Y3810134D01*
X10009519Y3832366D01*
X9998767Y3843119D01*
X10005395Y3859119D01*
X10033995D01*
X10088000Y3805114D01*
Y3675000D01*
X10283000D01*
Y3870000D01*
X10152886D01*
X10099279Y3923607D01*
X10105906Y3939608D01*
X10246553D01*
X10443080Y3743082D01*
X10449695Y3738661D01*
X10457499Y3737109D01*
X10924998Y3737107D01*
X10924999Y3737107D01*
X10932803Y3738660D01*
X10939419Y3743080D01*
X10939419Y3743081D01*
X11056919Y3860581D01*
X11061340Y3867196D01*
X11062892Y3875000D01*
Y4087499D01*
X11062892Y4087500D01*
X11061340Y4095304D01*
X11056919Y4101920D01*
X11019420Y4139419D01*
X11012804Y4143840D01*
X11005000Y4145392D01*
X11004964D01*
X11000677Y4161392D01*
X11000831Y4161481D01*
X11018519Y4179169D01*
X11031026Y4200831D01*
X11037500Y4224993D01*
Y4250007D01*
X11031026Y4274168D01*
X11018519Y4295831D01*
X11000831Y4313518D01*
X10979169Y4326025D01*
X10967256Y4329218D01*
Y4345782D01*
X10979169Y4348974D01*
X11000831Y4361481D01*
X11018519Y4379169D01*
X11031026Y4400831D01*
X11037500Y4424993D01*
Y4450007D01*
X11031026Y4474168D01*
X11018519Y4495831D01*
X11000831Y4513519D01*
X10979169Y4526025D01*
X10955007Y4532500D01*
X10929993D01*
X10905832Y4526025D01*
X10884169Y4513519D01*
X10876392Y4505741D01*
X10860392Y4512369D01*
Y4600000D01*
X10858840Y4607804D01*
X10854419Y4614420D01*
X10854418Y4614420D01*
X10785231Y4683608D01*
X10791858Y4699608D01*
X10955000D01*
X10962803Y4701160D01*
X10969419Y4705580D01*
X11059419Y4795581D01*
X11063840Y4802196D01*
X11065392Y4810000D01*
Y5022499D01*
X11065392Y5022500D01*
X11063840Y5030304D01*
X11059419Y5036919D01*
X11034419Y5061919D01*
X11027804Y5066340D01*
X11020000Y5067892D01*
X11014869D01*
X11008242Y5083892D01*
X11018519Y5094169D01*
X11031026Y5115832D01*
X11037500Y5139993D01*
Y5165007D01*
X11031026Y5189168D01*
X11018519Y5210831D01*
X11000831Y5228519D01*
X10979169Y5241026D01*
X10967255Y5244218D01*
Y5260782D01*
X10979169Y5263974D01*
X11000831Y5276481D01*
X11018519Y5294169D01*
X11031026Y5315832D01*
X11037500Y5339993D01*
Y5365007D01*
X11031026Y5389169D01*
X11018519Y5410831D01*
X11000831Y5428519D01*
X10979169Y5441026D01*
X10955007Y5447500D01*
X10929993D01*
X10905832Y5441026D01*
X10884169Y5428519D01*
X10874871Y5419221D01*
X10870985Y5418877D01*
X10855630Y5422607D01*
X10854419Y5424419D01*
X10854418Y5424420D01*
X10736919Y5541919D01*
X10730304Y5546340D01*
X10722500Y5547892D01*
X10270001D01*
X10270000Y5547892D01*
X10262196Y5546340D01*
X10255581Y5541919D01*
X10255580Y5541919D01*
X10214392Y5500730D01*
X10209971Y5494115D01*
X10208419Y5486312D01*
Y5486311D01*
X10209608Y5480333D01*
Y5465616D01*
X10204339Y5452896D01*
X10194604Y5443161D01*
X10181884Y5437892D01*
X10167167D01*
X10161189Y5439081D01*
X10153385Y5437529D01*
X10146769Y5433108D01*
X10146769Y5433107D01*
X10136553Y5422892D01*
X9942635Y5422892D01*
D01*
Y5422892D01*
D01*
X9942240Y5423845D01*
X9942002Y5424419D01*
D01*
X9942002Y5424420D01*
X9940365Y5428373D01*
D01*
D01*
X9939257Y5431048D01*
D01*
X9938404Y5433108D01*
X9936512Y5437674D01*
D01*
D01*
X10084419Y5585581D01*
X10088840Y5592196D01*
X10090392Y5600000D01*
Y5820936D01*
X10090686Y5836814D01*
X10132904D01*
X10143845Y5825874D01*
X10164060Y5817500D01*
X10185940D01*
X10206155Y5825874D01*
X10221626Y5841345D01*
X10230000Y5861560D01*
Y5883440D01*
X10221626Y5903655D01*
X10215000Y5910282D01*
Y5937500D01*
X10210174Y5942326D01*
X10216297Y5957108D01*
X10572500D01*
X10580304Y5958660D01*
X10586920Y5963081D01*
X10586920Y5963082D01*
X10681919Y6058080D01*
X10686339Y6064696D01*
X10687892Y6072499D01*
Y6355000D01*
X10686339Y6362804D01*
X10681919Y6369419D01*
X10675303Y6373840D01*
X10667500Y6375392D01*
X10507341D01*
X10496744Y6377500D01*
X10463257D01*
X10452660Y6375392D01*
X10312501D01*
X10312500Y6375392D01*
X10304696Y6373840D01*
X10298081Y6369419D01*
X10298080Y6369419D01*
X10189053Y6260392D01*
X9750000D01*
Y6588235D01*
X9766000Y6594863D01*
X9771379Y6589484D01*
X9789621Y6578952D01*
X9809968Y6573500D01*
X9831032D01*
X9851379Y6578952D01*
X9869621Y6589484D01*
X9884516Y6604379D01*
X9895048Y6622621D01*
X9900500Y6642968D01*
Y6664032D01*
X9895048Y6684379D01*
X9884516Y6702621D01*
X9869621Y6717516D01*
X9851379Y6728048D01*
X9831032Y6733500D01*
X9809968D01*
X9789621Y6728048D01*
X9771379Y6717516D01*
X9766000Y6712137D01*
X9750000Y6718765D01*
Y6850863D01*
X9757516Y6858379D01*
X9768048Y6876621D01*
X9773500Y6896968D01*
Y6918032D01*
X9768048Y6938379D01*
X9757516Y6956621D01*
X9750000Y6964137D01*
Y7244103D01*
X10774194D01*
X10782382Y7213548D01*
X10783880Y7210510D01*
X10784969Y7207303D01*
X10801937Y7177913D01*
X10804170Y7175366D01*
X10806053Y7172549D01*
X10830049Y7148552D01*
X10832867Y7146670D01*
X10835413Y7144437D01*
X10864803Y7127469D01*
X10868011Y7126380D01*
X10871049Y7124882D01*
X10903829Y7116098D01*
X10907210Y7115877D01*
X10910532Y7115216D01*
X10944468D01*
X10947790Y7115877D01*
X10951171Y7116098D01*
X10983951Y7124882D01*
X10986990Y7126380D01*
X10990197Y7127469D01*
X11019587Y7144437D01*
X11022133Y7146670D01*
X11024951Y7148553D01*
X11048947Y7172549D01*
X11050830Y7175367D01*
X11053063Y7177913D01*
X11070031Y7207303D01*
X11071120Y7210511D01*
X11072618Y7213549D01*
X11080805Y7244104D01*
X11201604Y7244104D01*
D02*
G37*
G36*
X6682382Y7213548D02*
X6683880Y7210510D01*
X6684969Y7207303D01*
X6701937Y7177913D01*
X6704170Y7175366D01*
X6706053Y7172549D01*
X6730049Y7148553D01*
X6732866Y7146670D01*
X6735413Y7144437D01*
X6764803Y7127469D01*
X6768011Y7126380D01*
X6771049Y7124882D01*
X6803829Y7116098D01*
X6807210Y7115877D01*
X6810532Y7115216D01*
X6844468D01*
X6847790Y7115877D01*
X6851171Y7116098D01*
X6883951Y7124882D01*
X6886990Y7126380D01*
X6890197Y7127469D01*
X6919587Y7144437D01*
X6922133Y7146670D01*
X6924950Y7148553D01*
X6948947Y7172549D01*
X6950829Y7175366D01*
X6953063Y7177913D01*
X6970031Y7207303D01*
X6971120Y7210511D01*
X6972618Y7213549D01*
X6980805Y7244104D01*
X9562922Y7244103D01*
Y6733500D01*
X9555968D01*
X9535621Y6728048D01*
X9517379Y6717516D01*
X9502484Y6702621D01*
X9491952Y6684379D01*
X9486500Y6664032D01*
Y6642968D01*
X9491952Y6622621D01*
X9502484Y6604379D01*
X9517379Y6589484D01*
X9535621Y6578952D01*
X9555968Y6573500D01*
X9562922D01*
Y5926422D01*
X9551345Y5921626D01*
X9535873Y5906155D01*
X9527500Y5885940D01*
Y5864060D01*
X9535873Y5843845D01*
X9551345Y5828373D01*
X9571560Y5820000D01*
X9593440D01*
X9613655Y5828373D01*
X9629127Y5843845D01*
X9632786Y5852680D01*
X9649856Y5855675D01*
X9662108Y5845385D01*
Y5643447D01*
X9615721Y5597060D01*
X9601155Y5611627D01*
X9580940Y5620000D01*
X9559060D01*
X9538845Y5611627D01*
X9538100Y5610882D01*
X9336505D01*
X9242443Y5704943D01*
X9227558Y5714889D01*
X9210000Y5718382D01*
X8781900D01*
X8781155Y5719126D01*
X8760940Y5727500D01*
X8739060D01*
X8718845Y5719126D01*
X8718100Y5718382D01*
X8691900D01*
X8691155Y5719126D01*
X8670940Y5727500D01*
X8669886D01*
X8545882Y5851505D01*
Y5987500D01*
Y6165995D01*
X8684886Y6305000D01*
X8685940D01*
X8706155Y6313373D01*
X8721626Y6328845D01*
X8730000Y6349060D01*
Y6370940D01*
X8726010Y6380571D01*
X8728075Y6395177D01*
X8734342Y6399085D01*
X8748487Y6404945D01*
X8763958Y6420416D01*
X8772332Y6440631D01*
Y6462511D01*
X8763958Y6482726D01*
X8748487Y6498198D01*
X8728272Y6506571D01*
X8706392D01*
X8686177Y6498198D01*
X8670705Y6482726D01*
X8662332Y6462511D01*
Y6440631D01*
X8666321Y6431000D01*
X8664257Y6416394D01*
X8657990Y6412486D01*
X8643845Y6406627D01*
X8628373Y6391155D01*
X8620000Y6370940D01*
Y6369886D01*
X8467557Y6217443D01*
X8457611Y6202558D01*
X8454118Y6185000D01*
Y6033382D01*
X8124400D01*
X8123655Y6034127D01*
X8103440Y6042500D01*
X8081560D01*
X8061345Y6034127D01*
X8045873Y6018655D01*
X8037500Y5998440D01*
Y5976560D01*
X8045873Y5956345D01*
X8061345Y5940874D01*
X8081560Y5932500D01*
X8103440D01*
X8123655Y5940874D01*
X8124400Y5941619D01*
X8454118D01*
Y5832500D01*
X8456132Y5822377D01*
X8453160Y5817719D01*
X8444213Y5808873D01*
X8443785Y5808679D01*
X8425512D01*
X8405297Y5800306D01*
X8389825Y5784834D01*
X8381452Y5764619D01*
Y5742739D01*
X8389825Y5722524D01*
X8405297Y5707053D01*
X8425512Y5698679D01*
X8447392D01*
X8467607Y5707053D01*
X8483079Y5722524D01*
X8491452Y5742739D01*
Y5753534D01*
X8507452Y5760162D01*
X8605000Y5662614D01*
Y5661560D01*
X8613373Y5641345D01*
X8628845Y5625873D01*
X8649060Y5617500D01*
X8670940D01*
X8691155Y5625873D01*
X8691900Y5626618D01*
X8718100D01*
X8718845Y5625873D01*
X8739060Y5617500D01*
X8760940D01*
X8781155Y5625873D01*
X8781900Y5626618D01*
X9190995D01*
X9252613Y5565000D01*
X9232557Y5544943D01*
X9222611Y5530059D01*
X9219118Y5512500D01*
Y5491772D01*
X9207972Y5487596D01*
X9203118Y5487163D01*
X9188655Y5501627D01*
X9168440Y5510000D01*
X9146560D01*
X9126345Y5501627D01*
X9110874Y5486155D01*
X9102500Y5465940D01*
Y5444060D01*
X9110874Y5423845D01*
X9126345Y5408373D01*
X9146560Y5400000D01*
X9168440D01*
X9188655Y5408373D01*
X9203118Y5422837D01*
X9207972Y5422404D01*
X9219118Y5418228D01*
Y4511291D01*
X9203118Y4504663D01*
X9198655Y4509127D01*
X9178440Y4517500D01*
X9156560D01*
X9136345Y4509127D01*
X9120874Y4493655D01*
X9112500Y4473440D01*
Y4451560D01*
X9120874Y4431345D01*
X9136345Y4415874D01*
X9156560Y4407500D01*
X9178440D01*
X9198655Y4415874D01*
X9203118Y4420337D01*
X9219118Y4413709D01*
Y4165000D01*
X9060000D01*
X8717324Y3822324D01*
X8701460Y3824412D01*
X8695840Y3834147D01*
X8677147Y3852840D01*
X8654253Y3866058D01*
X8628718Y3872900D01*
X8628200D01*
Y3772500D01*
Y3672100D01*
X8628718D01*
X8654253Y3678942D01*
X8677147Y3692160D01*
X8691500Y3706513D01*
X8707500Y3700375D01*
Y3595896D01*
X6936201D01*
X6933018Y3611896D01*
X6948655Y3618374D01*
X6964127Y3633845D01*
X6972500Y3654060D01*
Y3675940D01*
X6964127Y3696155D01*
X6948655Y3711627D01*
X6928440Y3720000D01*
X6906560D01*
X6886345Y3711627D01*
X6870873Y3696155D01*
X6862500Y3675940D01*
Y3654060D01*
X6870873Y3633845D01*
X6886345Y3618374D01*
X6901982Y3611896D01*
X6898800Y3595896D01*
X6658700D01*
X6655518Y3611896D01*
X6671155Y3618374D01*
X6686626Y3633845D01*
X6695000Y3654060D01*
Y3675940D01*
X6686626Y3696155D01*
X6671155Y3711627D01*
X6650940Y3720000D01*
X6629060D01*
X6608845Y3711627D01*
X6593373Y3696155D01*
X6585000Y3675940D01*
Y3654060D01*
X6593373Y3633845D01*
X6608845Y3618374D01*
X6624482Y3611896D01*
X6621299Y3595896D01*
X6553396D01*
Y7244104D01*
X6674194D01*
X6682382Y7213548D01*
D02*
G37*
G36*
X10667500Y6072499D02*
X10572500Y5977500D01*
X10160000D01*
X10070000Y5887500D01*
Y5600000D01*
X9892892Y5422892D01*
X9815001D01*
X9815000Y5422892D01*
X9807196Y5421339D01*
X9800580Y5416919D01*
X9800580Y5416918D01*
X9755581Y5371919D01*
X9751160Y5365304D01*
X9749608Y5357500D01*
Y5290000D01*
X9751160Y5282196D01*
X9755581Y5275581D01*
X9762196Y5271160D01*
X9770000Y5269608D01*
X9976554D01*
X10020581Y5225581D01*
X10027197Y5221160D01*
X10035000Y5219608D01*
X10217498D01*
X10217500Y5219608D01*
X10225303Y5221160D01*
X10240557Y5212109D01*
X10240874Y5211345D01*
X10256345Y5195874D01*
X10276560Y5187500D01*
X10298440D01*
X10318655Y5195874D01*
X10334127Y5211345D01*
X10342500Y5231560D01*
Y5247091D01*
X10346552Y5251121D01*
X10356439Y5256749D01*
X10357282Y5256950D01*
X10374060Y5250000D01*
X10395940D01*
X10416155Y5258374D01*
X10431627Y5273845D01*
X10440000Y5294060D01*
Y5315940D01*
X10438651Y5319196D01*
X10447540Y5332500D01*
X10522460D01*
X10531349Y5319196D01*
X10530000Y5315940D01*
Y5294060D01*
X10538373Y5273845D01*
X10553845Y5258374D01*
X10574060Y5250000D01*
X10595940D01*
X10616155Y5258374D01*
X10631626Y5273845D01*
X10634720Y5281314D01*
X10653594Y5285068D01*
X10685581Y5253081D01*
X10692196Y5248660D01*
X10700000Y5247108D01*
X10804999D01*
X10805000Y5247108D01*
X10812804Y5248660D01*
X10819419Y5253081D01*
X10834065Y5250935D01*
X10842500Y5242500D01*
Y5042500D01*
X10773666D01*
X10755007Y5047500D01*
X10729993D01*
X10711334Y5042500D01*
X10250282D01*
X10248655Y5044127D01*
X10228440Y5052500D01*
X10206560D01*
X10186345Y5044127D01*
X10184719Y5042500D01*
X9947500D01*
Y5043440D01*
X9939126Y5063655D01*
X9923655Y5079126D01*
X9903440Y5087500D01*
X9881560D01*
X9861345Y5079126D01*
X9852952Y5070734D01*
X9842500Y5065382D01*
X9832047Y5070734D01*
X9823655Y5079126D01*
X9803440Y5087500D01*
X9781560D01*
X9761345Y5079126D01*
X9745873Y5063655D01*
X9737500Y5043440D01*
Y5042500D01*
X9736560D01*
X9670000Y4975940D01*
Y4872892D01*
X9662196Y4871340D01*
X9655581Y4866919D01*
X9651160Y4860304D01*
X9649608Y4852500D01*
Y4720000D01*
X9651160Y4712196D01*
X9655581Y4705580D01*
Y4691919D01*
X9651160Y4685304D01*
X9649608Y4677500D01*
Y4540000D01*
X9651160Y4532196D01*
X9655581Y4525581D01*
X9662196Y4521160D01*
X9670000Y4519608D01*
X10169199Y4519608D01*
X10175873Y4503655D01*
X10167500Y4483440D01*
Y4461560D01*
X10175873Y4441345D01*
X10191345Y4425874D01*
X10211560Y4417500D01*
X10233440D01*
X10253655Y4425874D01*
X10269127Y4441345D01*
X10277500Y4461560D01*
Y4483440D01*
X10269127Y4503655D01*
X10275801Y4519608D01*
X10412500D01*
X10420303Y4521160D01*
X10420925Y4521575D01*
X10500000Y4442500D01*
Y4439060D01*
X10508373Y4418845D01*
X10523845Y4403373D01*
X10544060Y4395000D01*
X10547500D01*
X10602500Y4340000D01*
X10682691D01*
X10684696Y4338660D01*
X10692500Y4337108D01*
X10805392D01*
X10842500Y4300000D01*
Y4145000D01*
X10815000Y4117500D01*
X10793935D01*
X10779169Y4126025D01*
X10755007Y4132499D01*
X10729993D01*
X10705832Y4126025D01*
X10691065Y4117500D01*
X10562711Y4117500D01*
X10559126Y4126155D01*
X10543655Y4141626D01*
X10523440Y4150000D01*
X10501560D01*
X10481345Y4141626D01*
X10479859Y4140141D01*
X10352500Y4267500D01*
X10295281D01*
X10281155Y4281626D01*
X10260940Y4290000D01*
X10239060D01*
X10218845Y4281626D01*
X10204719Y4267500D01*
X10035000D01*
X9942500Y4360000D01*
X9620000D01*
X9495000Y4485000D01*
Y4516860D01*
X9498655Y4518373D01*
X9514127Y4533845D01*
X9522500Y4554060D01*
Y4575940D01*
X9514127Y4596155D01*
X9498655Y4611627D01*
X9497320Y4612179D01*
X9495704Y4627923D01*
X9496626Y4628845D01*
X9505000Y4649060D01*
Y4670940D01*
X9496626Y4691155D01*
X9495000Y4692781D01*
Y4767219D01*
X9496626Y4768845D01*
X9505000Y4789060D01*
Y4810940D01*
X9496626Y4831155D01*
X9495000Y4832781D01*
Y4868454D01*
X9502500Y4886560D01*
Y4908440D01*
X9495000Y4926546D01*
Y5023025D01*
X9497500Y5029060D01*
Y5050940D01*
X9495000Y5056975D01*
Y5100954D01*
X9502500Y5119060D01*
Y5140940D01*
X9495000Y5159046D01*
Y5208025D01*
X9497500Y5214060D01*
Y5235940D01*
X9495000Y5241975D01*
Y5447500D01*
X9557957Y5510457D01*
X9559060Y5510000D01*
X9580940D01*
X9601155Y5518374D01*
X9616626Y5533845D01*
X9625000Y5554060D01*
Y5575940D01*
X9624543Y5577043D01*
X9682500Y5635000D01*
Y6177500D01*
X9747500Y6240000D01*
X10197500D01*
X10312500Y6355000D01*
X10667500D01*
Y6072499D01*
D02*
G37*
G36*
X10840000Y5410000D02*
Y5302500D01*
X10805000Y5267500D01*
X10700000D01*
X10631825Y5335675D01*
X10631626Y5336155D01*
X10616155Y5351627D01*
X10615674Y5351825D01*
X10605000Y5362500D01*
X10340000D01*
X10273896Y5296397D01*
X10256345Y5289127D01*
X10240874Y5273655D01*
X10233604Y5256104D01*
X10217500Y5240000D01*
X10035000D01*
X9985000Y5290000D01*
X9770000D01*
Y5357500D01*
X9815000Y5402500D01*
X10145000Y5402500D01*
X10161189Y5418689D01*
X10164060Y5417500D01*
X10185940D01*
X10206155Y5425874D01*
X10221626Y5441345D01*
X10230000Y5461560D01*
Y5483440D01*
X10228811Y5486311D01*
X10270000Y5527500D01*
X10722500D01*
X10840000Y5410000D01*
D02*
G37*
G36*
X9379616Y5503118D02*
X9372500Y5485940D01*
Y5464060D01*
X9380874Y5443845D01*
X9396345Y5428373D01*
X9416560Y5420000D01*
X9438440D01*
X9458655Y5428373D01*
X9474608Y5421699D01*
Y5371578D01*
X9458608Y5365181D01*
X9440940Y5372500D01*
X9419060D01*
X9398845Y5364126D01*
X9383373Y5348655D01*
X9375000Y5328440D01*
Y5306560D01*
X9383373Y5286345D01*
X9393405Y5276314D01*
X9395874Y5256155D01*
X9387500Y5235940D01*
Y5214060D01*
X9395874Y5193845D01*
X9403405Y5186314D01*
X9404802Y5165083D01*
X9400874Y5161155D01*
X9392500Y5140940D01*
Y5119060D01*
X9400874Y5098845D01*
X9401267Y5098452D01*
X9401147Y5076428D01*
X9395874Y5071155D01*
X9387500Y5050940D01*
Y5029060D01*
X9395874Y5008845D01*
X9411345Y4993374D01*
X9431560Y4985000D01*
X9453440D01*
X9458608Y4987141D01*
X9474608Y4976450D01*
Y4960202D01*
X9461304Y4951313D01*
X9458440Y4952500D01*
X9436560D01*
X9416345Y4944127D01*
X9400874Y4928655D01*
X9392500Y4908440D01*
Y4886560D01*
X9400874Y4866345D01*
X9409266Y4857953D01*
X9415933Y4850069D01*
X9409266Y4837047D01*
X9403373Y4831155D01*
X9395000Y4810940D01*
Y4789060D01*
X9403373Y4768845D01*
X9418845Y4753374D01*
X9439060Y4745000D01*
X9460940D01*
X9471670Y4734611D01*
Y4726556D01*
X9458476Y4715000D01*
X9439060D01*
X9418845Y4706627D01*
X9403373Y4691155D01*
X9395000Y4670940D01*
Y4649060D01*
X9403373Y4628845D01*
X9418845Y4613374D01*
X9419151Y4613247D01*
X9421788Y4599993D01*
X9420541Y4595353D01*
X9412500Y4575940D01*
Y4554060D01*
X9420873Y4533845D01*
X9436345Y4518373D01*
X9456560Y4510000D01*
X9474608D01*
Y4485000D01*
X9476160Y4477196D01*
X9480581Y4470581D01*
X9480581Y4470580D01*
X9605581Y4345581D01*
X9612196Y4341160D01*
X9620000Y4339608D01*
X9934054D01*
X10020581Y4253081D01*
X10027196Y4248660D01*
X10035000Y4247108D01*
X10194219D01*
X10195000Y4245940D01*
Y4224060D01*
X10203374Y4203845D01*
X10218845Y4188373D01*
X10239060Y4180000D01*
X10239884Y4178766D01*
X10232500Y4160940D01*
Y4139060D01*
X10232651Y4138696D01*
X10223762Y4125392D01*
X9670000D01*
X9662196Y4123840D01*
X9655581Y4119419D01*
X9651160Y4112804D01*
X9649608Y4105000D01*
Y3959999D01*
X9635108Y3950882D01*
X9499005D01*
X9334668Y4115218D01*
X9336110Y4120071D01*
X9342514Y4130000D01*
X9360940D01*
X9381155Y4138373D01*
X9396627Y4153845D01*
X9405000Y4174060D01*
Y4195940D01*
X9396627Y4216155D01*
X9381155Y4231627D01*
X9360940Y4240000D01*
X9339060D01*
X9326882Y4234955D01*
X9310882Y4244568D01*
Y5493495D01*
X9336505Y5519119D01*
X9372932D01*
X9379616Y5503118D01*
D02*
G37*
G36*
X9912104Y5061839D02*
X9921839Y5052104D01*
X9928300Y5036505D01*
X9928660Y5034696D01*
X9933080Y5028081D01*
X9939696Y5023660D01*
X9947500Y5022108D01*
X10153762D01*
X10162651Y5008804D01*
X10162500Y5008440D01*
Y4986560D01*
X10170873Y4966345D01*
X10186345Y4950874D01*
X10206560Y4942500D01*
X10228440D01*
X10233305Y4944515D01*
X10245551Y4932269D01*
X10245000Y4930940D01*
Y4909060D01*
X10253373Y4888845D01*
X10246699Y4872892D01*
X9690392D01*
Y4967493D01*
X9749086Y5026188D01*
X9751919Y5028081D01*
X9756340Y5034696D01*
X9756699Y5036505D01*
X9763161Y5052104D01*
X9772896Y5061839D01*
X9785616Y5067108D01*
X9799384D01*
X9812104Y5061839D01*
X9817628Y5056314D01*
X9820267Y5054551D01*
X9822754Y5052583D01*
X9833206Y5047231D01*
X9834794Y5046780D01*
X9836236Y5045976D01*
X9838585Y5045703D01*
X9840860Y5045056D01*
X9842500Y5045247D01*
X9844139Y5045056D01*
X9846413Y5045703D01*
X9848763Y5045976D01*
X9850206Y5046780D01*
X9851793Y5047231D01*
X9862245Y5052582D01*
X9864735Y5054553D01*
X9867372Y5056315D01*
X9872896Y5061839D01*
X9885616Y5067108D01*
X9899384D01*
X9912104Y5061839D01*
D02*
G37*
G36*
X10768388Y5022803D02*
X10771049Y5022629D01*
X10773666Y5022108D01*
X10818975D01*
X10827609Y5009357D01*
X10828323Y5006108D01*
X10827108Y5000000D01*
Y4893446D01*
X10806553Y4872892D01*
X10353301D01*
X10346626Y4888845D01*
X10355000Y4909060D01*
Y4930940D01*
X10346626Y4951155D01*
X10331155Y4966627D01*
X10310940Y4975000D01*
X10289060D01*
X10284195Y4972985D01*
X10271949Y4985231D01*
X10272500Y4986560D01*
Y5008440D01*
X10272349Y5008804D01*
X10281238Y5022108D01*
X10711334D01*
X10713950Y5022629D01*
X10716612Y5022803D01*
X10732677Y5027108D01*
X10752322D01*
X10768388Y5022803D01*
D02*
G37*
G36*
X11045000Y5022500D02*
Y4810000D01*
X10955000Y4720000D01*
X9670000D01*
Y4852500D01*
X10815000D01*
X10847500Y4885000D01*
Y5000000D01*
X10895000Y5047500D01*
X11020000D01*
X11045000Y5022500D01*
D02*
G37*
G36*
X10634608Y4531553D02*
Y4395000D01*
X10636160Y4387196D01*
X10640581Y4380581D01*
X10640581Y4380580D01*
X10645987Y4375174D01*
X10639864Y4360392D01*
X10610947D01*
X10561919Y4409419D01*
X10555304Y4413840D01*
X10548686Y4415156D01*
X10535396Y4420661D01*
X10525661Y4430396D01*
X10520157Y4443685D01*
X10518840Y4450304D01*
X10514419Y4456919D01*
X10436339Y4535000D01*
X10483447Y4582108D01*
X10584054D01*
X10634608Y4531553D01*
D02*
G37*
G36*
X10840000Y4600000D02*
Y4390000D01*
X10807500Y4357500D01*
X10692500D01*
X10655000Y4395000D01*
Y4540000D01*
X10592500Y4602500D01*
X10475000D01*
X10412500Y4540000D01*
X9670000Y4540000D01*
Y4677500D01*
X10762500D01*
X10840000Y4600000D01*
D02*
G37*
G36*
X10465440Y4125721D02*
X10472056Y4121301D01*
X10479859Y4119749D01*
X10487663Y4121301D01*
X10491090Y4123591D01*
X10505616Y4129608D01*
X10519384D01*
X10532104Y4124339D01*
X10541839Y4114604D01*
X10543872Y4109696D01*
X10548292Y4103080D01*
X10554908Y4098660D01*
X10562711Y4097108D01*
X10691065Y4097108D01*
X10692385Y4097371D01*
X10693727Y4097283D01*
X10696253Y4098140D01*
X10698869Y4098660D01*
X10699988Y4099408D01*
X10701262Y4099840D01*
X10713703Y4107023D01*
X10732678Y4112108D01*
X10752323D01*
X10771298Y4107023D01*
X10783739Y4099840D01*
X10785012Y4099408D01*
X10786131Y4098660D01*
X10788748Y4098140D01*
X10791273Y4097283D01*
X10792615Y4097371D01*
X10793935Y4097108D01*
X10812706D01*
X10818313Y4093547D01*
X10827108Y4083758D01*
Y3975946D01*
X10796554Y3945392D01*
X10560947D01*
X10386919Y4119419D01*
X10380304Y4123840D01*
X10372500Y4125392D01*
X10351238D01*
X10342349Y4138696D01*
X10342500Y4139060D01*
Y4160940D01*
X10334127Y4181155D01*
X10318655Y4196627D01*
X10298440Y4205000D01*
X10297616Y4206234D01*
X10305000Y4224060D01*
Y4245940D01*
X10305781Y4247108D01*
X10344053D01*
X10465440Y4125721D01*
D02*
G37*
G36*
X11042500Y4087500D02*
Y3875000D01*
X10924999Y3757499D01*
X10457499Y3757501D01*
X10255000Y3959999D01*
X9670000Y3959999D01*
Y4105000D01*
X10254719D01*
X10256345Y4103374D01*
X10276560Y4095000D01*
X10298440D01*
X10318655Y4103374D01*
X10320281Y4105000D01*
X10372500D01*
X10552500Y3925000D01*
X10805000D01*
X10847500Y3967500D01*
Y4087500D01*
X10885000Y4125000D01*
X11005000D01*
X11042500Y4087500D01*
D02*
G37*
%LPC*%
G36*
X9958032Y6987500D02*
X9936968D01*
X9916621Y6982048D01*
X9898379Y6971516D01*
X9883484Y6956621D01*
X9872952Y6938379D01*
X9867500Y6918032D01*
Y6896968D01*
X9872952Y6876621D01*
X9883484Y6858379D01*
X9898379Y6843484D01*
X9916621Y6832952D01*
X9936968Y6827500D01*
X9958032D01*
X9978379Y6832952D01*
X9996621Y6843484D01*
X10011516Y6858379D01*
X10022048Y6876621D01*
X10027500Y6896968D01*
Y6918032D01*
X10022048Y6938379D01*
X10011516Y6956621D01*
X9996621Y6971516D01*
X9978379Y6982048D01*
X9958032Y6987500D01*
D02*
G37*
G36*
X10497275Y6882900D02*
X10492701D01*
Y6720200D01*
X10655400D01*
Y6724775D01*
X10648659Y6758662D01*
X10635437Y6790583D01*
X10616242Y6819311D01*
X10591811Y6843742D01*
X10563083Y6862937D01*
X10531162Y6876159D01*
X10497275Y6882900D01*
D02*
G37*
G36*
X10467301D02*
X10462725D01*
X10428838Y6876159D01*
X10396917Y6862937D01*
X10368189Y6843742D01*
X10343758Y6819311D01*
X10324563Y6790583D01*
X10311341Y6758662D01*
X10304600Y6724775D01*
Y6720200D01*
X10467301D01*
Y6882900D01*
D02*
G37*
G36*
X10087500Y6828190D02*
X10066616Y6825441D01*
X10047155Y6817380D01*
X10030443Y6804557D01*
X10017620Y6787845D01*
X10009559Y6768384D01*
X10006810Y6747500D01*
Y6707500D01*
X10009559Y6686616D01*
X10017620Y6667155D01*
X10030443Y6650444D01*
X10047155Y6637620D01*
X10066616Y6629560D01*
X10087500Y6626810D01*
X10108384Y6629560D01*
X10127845Y6637620D01*
X10144557Y6650444D01*
X10157380Y6667155D01*
X10165441Y6686616D01*
X10168190Y6707500D01*
Y6747500D01*
X10165441Y6768384D01*
X10157380Y6787845D01*
X10144557Y6804557D01*
X10127845Y6817380D01*
X10108384Y6825441D01*
X10087500Y6828190D01*
D02*
G37*
G36*
X10655400Y6694800D02*
X10492701D01*
Y6532100D01*
X10497275D01*
X10531162Y6538841D01*
X10563083Y6552063D01*
X10591811Y6571258D01*
X10616242Y6595689D01*
X10635437Y6624417D01*
X10648659Y6656338D01*
X10655400Y6690225D01*
Y6694800D01*
D02*
G37*
G36*
X10467301D02*
X10304600D01*
Y6690225D01*
X10311341Y6656338D01*
X10324563Y6624417D01*
X10343758Y6595689D01*
X10368189Y6571258D01*
X10396917Y6552063D01*
X10428838Y6538841D01*
X10462725Y6532100D01*
X10467301D01*
Y6694800D01*
D02*
G37*
G36*
X9068440Y3850000D02*
X9046560D01*
X9026345Y3841627D01*
X9010874Y3826155D01*
X9002500Y3805940D01*
Y3784060D01*
X9010874Y3763845D01*
X9026345Y3748374D01*
X9046560Y3740000D01*
X9068440D01*
X9088655Y3748374D01*
X9104127Y3763845D01*
X9112500Y3784060D01*
Y3805940D01*
X9104127Y3826155D01*
X9088655Y3841627D01*
X9068440Y3850000D01*
D02*
G37*
G36*
X7623440Y7215000D02*
X7601560D01*
X7581345Y7206626D01*
X7565873Y7191155D01*
X7557500Y7170940D01*
Y7149060D01*
X7565873Y7128845D01*
X7581345Y7113373D01*
X7601560Y7105000D01*
X7623440D01*
X7643655Y7113373D01*
X7659126Y7128845D01*
X7667500Y7149060D01*
Y7170940D01*
X7659126Y7191155D01*
X7643655Y7206626D01*
X7623440Y7215000D01*
D02*
G37*
G36*
X7270940D02*
X7249060D01*
X7228845Y7206626D01*
X7213373Y7191155D01*
X7205000Y7170940D01*
Y7149060D01*
X7213373Y7128845D01*
X7228845Y7113373D01*
X7249060Y7105000D01*
X7270940D01*
X7291155Y7113373D01*
X7306626Y7128845D01*
X7315000Y7149060D01*
Y7170940D01*
X7306626Y7191155D01*
X7291155Y7206626D01*
X7270940Y7215000D01*
D02*
G37*
G36*
X7935000Y7119061D02*
X7918032Y7116827D01*
X7902220Y7110277D01*
X7888642Y7099859D01*
X7878223Y7086280D01*
X7871674Y7070469D01*
X7869440Y7053500D01*
Y6973500D01*
X7871674Y6956532D01*
X7878223Y6940720D01*
X7888642Y6927142D01*
X7902220Y6916723D01*
X7918032Y6910174D01*
X7935000Y6907940D01*
X7951969Y6910174D01*
X7967781Y6916723D01*
X7981359Y6927142D01*
X7991778Y6940720D01*
X7998327Y6956532D01*
X8000561Y6973500D01*
Y7053500D01*
X7998327Y7070469D01*
X7991778Y7086280D01*
X7981359Y7099859D01*
X7967781Y7110277D01*
X7951969Y7116827D01*
X7935000Y7119061D01*
D02*
G37*
G36*
X7070000D02*
X7053032Y7116827D01*
X7037220Y7110277D01*
X7023642Y7099859D01*
X7013223Y7086280D01*
X7006674Y7070469D01*
X7004440Y7053500D01*
Y6973500D01*
X7006674Y6956532D01*
X7013223Y6940720D01*
X7023642Y6927142D01*
X7037220Y6916723D01*
X7053032Y6910174D01*
X7070000Y6907940D01*
X7086969Y6910174D01*
X7102781Y6916723D01*
X7116359Y6927142D01*
X7126777Y6940720D01*
X7133327Y6956532D01*
X7135561Y6973500D01*
Y7053500D01*
X7133327Y7070469D01*
X7126777Y7086280D01*
X7116359Y7099859D01*
X7102781Y7110277D01*
X7086969Y7116827D01*
X7070000Y7119061D01*
D02*
G37*
G36*
X7353440Y6945000D02*
X7331560D01*
X7311345Y6936626D01*
X7295873Y6921155D01*
X7287500Y6900940D01*
Y6879060D01*
X7295873Y6858845D01*
X7311345Y6843373D01*
X7331560Y6835000D01*
X7353440D01*
X7373655Y6843373D01*
X7389126Y6858845D01*
X7397500Y6879060D01*
Y6900940D01*
X7389126Y6921155D01*
X7373655Y6936626D01*
X7353440Y6945000D01*
D02*
G37*
G36*
X9450032Y6987500D02*
X9428968D01*
X9408621Y6982048D01*
X9390379Y6971516D01*
X9375484Y6956621D01*
X9364952Y6938379D01*
X9359500Y6918032D01*
Y6896968D01*
X9364952Y6876621D01*
X9375484Y6858379D01*
X9390379Y6843484D01*
X9408621Y6832952D01*
X9428968Y6827500D01*
X9450032D01*
X9470379Y6832952D01*
X9488621Y6843484D01*
X9503516Y6858379D01*
X9514048Y6876621D01*
X9519500Y6896968D01*
Y6918032D01*
X9514048Y6938379D01*
X9503516Y6956621D01*
X9488621Y6971516D01*
X9470379Y6982048D01*
X9450032Y6987500D01*
D02*
G37*
G36*
X8850032D02*
X8828968D01*
X8808621Y6982048D01*
X8790379Y6971516D01*
X8775484Y6956621D01*
X8764952Y6938379D01*
X8759500Y6918032D01*
Y6896968D01*
X8764952Y6876621D01*
X8775484Y6858379D01*
X8790379Y6843484D01*
X8808621Y6832952D01*
X8828968Y6827500D01*
X8850032D01*
X8870379Y6832952D01*
X8888621Y6843484D01*
X8903516Y6858379D01*
X8914048Y6876621D01*
X8919500Y6896968D01*
Y6918032D01*
X8914048Y6938379D01*
X8903516Y6956621D01*
X8888621Y6971516D01*
X8870379Y6982048D01*
X8850032Y6987500D01*
D02*
G37*
G36*
X8596032D02*
X8574968D01*
X8554621Y6982048D01*
X8536379Y6971516D01*
X8521484Y6956621D01*
X8510952Y6938379D01*
X8505500Y6918032D01*
Y6896968D01*
X8510952Y6876621D01*
X8521484Y6858379D01*
X8536379Y6843484D01*
X8554621Y6832952D01*
X8574968Y6827500D01*
X8596032D01*
X8616379Y6832952D01*
X8634621Y6843484D01*
X8649516Y6858379D01*
X8660048Y6876621D01*
X8665500Y6896968D01*
Y6918032D01*
X8660048Y6938379D01*
X8649516Y6956621D01*
X8634621Y6971516D01*
X8616379Y6982048D01*
X8596032Y6987500D01*
D02*
G37*
G36*
X8342032D02*
X8320968D01*
X8300621Y6982048D01*
X8282379Y6971516D01*
X8267484Y6956621D01*
X8256952Y6938379D01*
X8251500Y6918032D01*
Y6896968D01*
X8256952Y6876621D01*
X8267484Y6858379D01*
X8282379Y6843484D01*
X8300621Y6832952D01*
X8320968Y6827500D01*
X8342032D01*
X8362379Y6832952D01*
X8380621Y6843484D01*
X8395516Y6858379D01*
X8406048Y6876621D01*
X8411500Y6896968D01*
Y6918032D01*
X8406048Y6938379D01*
X8395516Y6956621D01*
X8380621Y6971516D01*
X8362379Y6982048D01*
X8342032Y6987500D01*
D02*
G37*
G36*
X7810443Y6765000D02*
X7789557D01*
X7770262Y6757008D01*
X7757500Y6744246D01*
X7744739Y6757008D01*
X7725443Y6765000D01*
X7704557D01*
X7685261Y6757008D01*
X7672500Y6744247D01*
X7659739Y6757008D01*
X7640443Y6765000D01*
X7619558D01*
X7600262Y6757008D01*
X7587500Y6744246D01*
X7574739Y6757008D01*
X7555443Y6765000D01*
X7534557D01*
X7515262Y6757008D01*
X7502500Y6744246D01*
X7489739Y6757008D01*
X7470443Y6765000D01*
X7449557D01*
X7430261Y6757008D01*
X7417500Y6744246D01*
X7404739Y6757008D01*
X7385443Y6765000D01*
X7364557D01*
X7345261Y6757008D01*
X7332500Y6744247D01*
X7319739Y6757008D01*
X7300443Y6765000D01*
X7279557D01*
X7260262Y6757008D01*
X7247500Y6744246D01*
X7234739Y6757008D01*
X7215443Y6765000D01*
X7194557D01*
X7175261Y6757008D01*
X7160493Y6742239D01*
X7152500Y6722943D01*
Y6702057D01*
X7160493Y6682761D01*
X7175261Y6667993D01*
X7194557Y6660000D01*
X7215443D01*
X7234739Y6667993D01*
X7247500Y6680754D01*
X7260262Y6667993D01*
X7279557Y6660000D01*
X7300443D01*
X7319739Y6667993D01*
X7332500Y6680754D01*
X7345261Y6667993D01*
X7364557Y6660000D01*
X7385443D01*
X7404739Y6667993D01*
X7417500Y6680754D01*
X7430261Y6667993D01*
X7449557Y6660000D01*
X7470443D01*
X7489739Y6667993D01*
X7502500Y6680754D01*
X7515262Y6667993D01*
X7534557Y6660000D01*
X7555443D01*
X7574739Y6667993D01*
X7587500Y6680754D01*
X7600262Y6667993D01*
X7619558Y6660000D01*
X7640443D01*
X7659739Y6667993D01*
X7672500Y6680754D01*
X7685261Y6667993D01*
X7704557Y6660000D01*
X7725443D01*
X7744739Y6667993D01*
X7757500Y6680754D01*
X7770262Y6667993D01*
X7789557Y6660000D01*
X7810443D01*
X7829739Y6667993D01*
X7844508Y6682761D01*
X7852500Y6702057D01*
Y6722943D01*
X7844508Y6742239D01*
X7829739Y6757008D01*
X7810443Y6765000D01*
D02*
G37*
G36*
X9325200Y6738510D02*
Y6666200D01*
X9397510D01*
X9392080Y6686463D01*
X9380837Y6705937D01*
X9364937Y6721837D01*
X9345463Y6733080D01*
X9325200Y6738510D01*
D02*
G37*
G36*
X9299800D02*
X9279537Y6733080D01*
X9260063Y6721837D01*
X9244163Y6705937D01*
X9232920Y6686463D01*
X9227491Y6666200D01*
X9299800D01*
Y6738510D01*
D02*
G37*
G36*
X8217200D02*
Y6666200D01*
X8289510D01*
X8284080Y6686463D01*
X8272837Y6705937D01*
X8256937Y6721837D01*
X8237463Y6733080D01*
X8217200Y6738510D01*
D02*
G37*
G36*
X8191800D02*
X8171537Y6733080D01*
X8152063Y6721837D01*
X8136163Y6705937D01*
X8124920Y6686463D01*
X8119491Y6666200D01*
X8191800D01*
Y6738510D01*
D02*
G37*
G36*
X8979500Y6828190D02*
X8958616Y6825441D01*
X8939155Y6817380D01*
X8922444Y6804557D01*
X8909620Y6787845D01*
X8901560Y6768384D01*
X8898810Y6747500D01*
Y6707500D01*
X8901560Y6686616D01*
X8909620Y6667155D01*
X8922444Y6650444D01*
X8939155Y6637620D01*
X8958616Y6629560D01*
X8979500Y6626810D01*
X9000384Y6629560D01*
X9019845Y6637620D01*
X9036557Y6650444D01*
X9049380Y6667155D01*
X9057441Y6686616D01*
X9060190Y6707500D01*
Y6747500D01*
X9057441Y6768384D01*
X9049380Y6787845D01*
X9036557Y6804557D01*
X9019845Y6817380D01*
X9000384Y6825441D01*
X8979500Y6828190D01*
D02*
G37*
G36*
X7810443Y6630000D02*
X7789557D01*
X7770262Y6622008D01*
X7757500Y6609246D01*
X7744739Y6622008D01*
X7725443Y6630000D01*
X7704557D01*
X7685261Y6622008D01*
X7672500Y6609247D01*
X7659739Y6622008D01*
X7640443Y6630000D01*
X7619558D01*
X7600262Y6622008D01*
X7587500Y6609246D01*
X7574739Y6622008D01*
X7555443Y6630000D01*
X7534557D01*
X7515262Y6622008D01*
X7502500Y6609246D01*
X7489739Y6622008D01*
X7470443Y6630000D01*
X7449557D01*
X7430261Y6622008D01*
X7417500Y6609246D01*
X7404739Y6622008D01*
X7385443Y6630000D01*
X7364557D01*
X7345261Y6622008D01*
X7332500Y6609247D01*
X7319739Y6622008D01*
X7300443Y6630000D01*
X7279557D01*
X7260262Y6622008D01*
X7247500Y6609246D01*
X7234739Y6622008D01*
X7215443Y6630000D01*
X7194557D01*
X7175261Y6622008D01*
X7160493Y6607239D01*
X7152500Y6587943D01*
Y6567057D01*
X7160493Y6547761D01*
X7175261Y6532993D01*
X7194557Y6525000D01*
X7215443D01*
X7234739Y6532993D01*
X7247500Y6545754D01*
X7260262Y6532993D01*
X7279557Y6525000D01*
X7300443D01*
X7319739Y6532993D01*
X7332500Y6545754D01*
X7345261Y6532993D01*
X7364557Y6525000D01*
X7385443D01*
X7404739Y6532993D01*
X7417500Y6545754D01*
X7430261Y6532993D01*
X7449557Y6525000D01*
X7470443D01*
X7489739Y6532993D01*
X7502500Y6545754D01*
X7515262Y6532993D01*
X7534557Y6525000D01*
X7555443D01*
X7574739Y6532993D01*
X7587500Y6545754D01*
X7600262Y6532993D01*
X7619558Y6525000D01*
X7640443D01*
X7659739Y6532993D01*
X7672500Y6545754D01*
X7685261Y6532993D01*
X7704557Y6525000D01*
X7725443D01*
X7744739Y6532993D01*
X7757500Y6545754D01*
X7770262Y6532993D01*
X7789557Y6525000D01*
X7810443D01*
X7829739Y6532993D01*
X7844508Y6547761D01*
X7852500Y6567057D01*
Y6587943D01*
X7844508Y6607239D01*
X7829739Y6622008D01*
X7810443Y6630000D01*
D02*
G37*
G36*
X8723032Y6733500D02*
X8701968D01*
X8681621Y6728048D01*
X8663379Y6717516D01*
X8648484Y6702621D01*
X8637952Y6684379D01*
X8632500Y6664032D01*
Y6642968D01*
X8637952Y6622621D01*
X8648484Y6604379D01*
X8663379Y6589484D01*
X8681621Y6578952D01*
X8701968Y6573500D01*
X8723032D01*
X8743379Y6578952D01*
X8761621Y6589484D01*
X8776516Y6604379D01*
X8787048Y6622621D01*
X8792500Y6642968D01*
Y6664032D01*
X8787048Y6684379D01*
X8776516Y6702621D01*
X8761621Y6717516D01*
X8743379Y6728048D01*
X8723032Y6733500D01*
D02*
G37*
G36*
X8469032D02*
X8447968D01*
X8427621Y6728048D01*
X8409379Y6717516D01*
X8394484Y6702621D01*
X8383952Y6684379D01*
X8378500Y6664032D01*
Y6642968D01*
X8383952Y6622621D01*
X8394484Y6604379D01*
X8409379Y6589484D01*
X8427621Y6578952D01*
X8447968Y6573500D01*
X8469032D01*
X8489379Y6578952D01*
X8507621Y6589484D01*
X8522516Y6604379D01*
X8533048Y6622621D01*
X8538500Y6642968D01*
Y6664032D01*
X8533048Y6684379D01*
X8522516Y6702621D01*
X8507621Y6717516D01*
X8489379Y6728048D01*
X8469032Y6733500D01*
D02*
G37*
G36*
X9299800Y6640800D02*
X9227491D01*
X9232920Y6620537D01*
X9244163Y6601063D01*
X9260063Y6585163D01*
X9279537Y6573920D01*
X9299800Y6568491D01*
Y6640800D01*
D02*
G37*
G36*
X8289510D02*
X8217200D01*
Y6568491D01*
X8237463Y6573920D01*
X8256937Y6585163D01*
X8272837Y6601063D01*
X8284080Y6620537D01*
X8289510Y6640800D01*
D02*
G37*
G36*
X8191800D02*
X8119491D01*
X8124920Y6620537D01*
X8136163Y6601063D01*
X8152063Y6585163D01*
X8171537Y6573920D01*
X8191800Y6568491D01*
Y6640800D01*
D02*
G37*
G36*
X7935000Y6816061D02*
X7918032Y6813827D01*
X7902220Y6807277D01*
X7888642Y6796859D01*
X7878223Y6783281D01*
X7871674Y6767469D01*
X7869440Y6750500D01*
Y6600500D01*
X7871674Y6583532D01*
X7878223Y6567720D01*
X7888642Y6554142D01*
X7902220Y6543723D01*
X7918032Y6537173D01*
X7935000Y6534939D01*
X7951969Y6537173D01*
X7967781Y6543723D01*
X7981359Y6554142D01*
X7991778Y6567720D01*
X7998327Y6583532D01*
X8000561Y6600500D01*
Y6750500D01*
X7998327Y6767469D01*
X7991778Y6783281D01*
X7981359Y6796859D01*
X7967781Y6807277D01*
X7951969Y6813827D01*
X7935000Y6816061D01*
D02*
G37*
G36*
X7070000D02*
X7053032Y6813827D01*
X7037220Y6807277D01*
X7023642Y6796859D01*
X7013223Y6783281D01*
X7006674Y6767469D01*
X7004440Y6750500D01*
Y6600500D01*
X7006674Y6583532D01*
X7013223Y6567720D01*
X7023642Y6554142D01*
X7037220Y6543723D01*
X7053032Y6537173D01*
X7070000Y6534939D01*
X7086969Y6537173D01*
X7102781Y6543723D01*
X7116359Y6554142D01*
X7126777Y6567720D01*
X7133327Y6583532D01*
X7135561Y6600500D01*
Y6750500D01*
X7133327Y6767469D01*
X7126777Y6783281D01*
X7116359Y6796859D01*
X7102781Y6807277D01*
X7086969Y6813827D01*
X7070000Y6816061D01*
D02*
G37*
G36*
X6655940Y6610000D02*
X6634060D01*
X6613845Y6601627D01*
X6598373Y6586155D01*
X6590000Y6565940D01*
Y6544060D01*
X6598373Y6523845D01*
X6613845Y6508374D01*
X6634060Y6500000D01*
X6655940D01*
X6676155Y6508374D01*
X6691626Y6523845D01*
X6700000Y6544060D01*
Y6565940D01*
X6691626Y6586155D01*
X6676155Y6601627D01*
X6655940Y6610000D01*
D02*
G37*
G36*
X9397510Y6640800D02*
X9325200D01*
Y6563335D01*
X9325891Y6562990D01*
X9330000Y6553212D01*
Y6539060D01*
X9338374Y6518845D01*
X9353845Y6503374D01*
X9374060Y6495000D01*
X9395940D01*
X9416155Y6503374D01*
X9431627Y6518845D01*
X9440000Y6539060D01*
Y6560940D01*
X9431627Y6581155D01*
X9416155Y6596627D01*
X9400496Y6603113D01*
X9391644Y6619782D01*
X9392080Y6620537D01*
X9397510Y6640800D01*
D02*
G37*
G36*
X9127440Y6555000D02*
X9105560D01*
X9085345Y6546626D01*
X9069873Y6531155D01*
X9061500Y6510940D01*
Y6489060D01*
X9069873Y6468845D01*
X9085345Y6453373D01*
X9105560Y6445000D01*
X9127440D01*
X9147655Y6453373D01*
X9163126Y6468845D01*
X9171500Y6489060D01*
Y6510940D01*
X9163126Y6531155D01*
X9147655Y6546626D01*
X9127440Y6555000D01*
D02*
G37*
G36*
X7630940Y6502500D02*
X7609060D01*
X7588845Y6494126D01*
X7573373Y6478655D01*
X7565000Y6458440D01*
Y6436560D01*
X7573373Y6416345D01*
X7588845Y6400873D01*
X7609060Y6392500D01*
X7630940D01*
X7651155Y6400873D01*
X7666627Y6416345D01*
X7675000Y6436560D01*
Y6458440D01*
X7666627Y6478655D01*
X7651155Y6494126D01*
X7630940Y6502500D01*
D02*
G37*
G36*
X8155940Y6465000D02*
X8134060D01*
X8113845Y6456626D01*
X8098373Y6441155D01*
X8090000Y6420940D01*
Y6399060D01*
X8098373Y6378845D01*
X8113845Y6363373D01*
X8134060Y6355000D01*
X8155940D01*
X8176155Y6363373D01*
X8191626Y6378845D01*
X8200000Y6399060D01*
Y6420940D01*
X8191626Y6441155D01*
X8176155Y6456626D01*
X8155940Y6465000D01*
D02*
G37*
G36*
X9195940Y6412500D02*
X9174060D01*
X9153845Y6404127D01*
X9138373Y6388655D01*
X9130000Y6368440D01*
Y6346560D01*
X9138373Y6326345D01*
X9153845Y6310874D01*
X9174060Y6302500D01*
X9195940D01*
X9216155Y6310874D01*
X9231626Y6326345D01*
X9240000Y6346560D01*
Y6368440D01*
X9231626Y6388655D01*
X9216155Y6404127D01*
X9195940Y6412500D01*
D02*
G37*
G36*
X7170940Y6367500D02*
X7149060D01*
X7128845Y6359126D01*
X7113373Y6343655D01*
X7105000Y6323440D01*
Y6301560D01*
X7113373Y6281345D01*
X7128845Y6265873D01*
X7149060Y6257500D01*
X7170940D01*
X7191155Y6265873D01*
X7206626Y6281345D01*
X7215000Y6301560D01*
Y6323440D01*
X7206626Y6343655D01*
X7191155Y6359126D01*
X7170940Y6367500D01*
D02*
G37*
G36*
X7645940Y6290000D02*
X7624060D01*
X7603845Y6281627D01*
X7588373Y6266155D01*
X7580000Y6245940D01*
Y6224060D01*
X7586069Y6209409D01*
X7574381Y6196932D01*
X7560940Y6202500D01*
X7539060D01*
X7518845Y6194127D01*
X7503373Y6178655D01*
X7495000Y6158440D01*
Y6136560D01*
X7503373Y6116345D01*
X7518845Y6100873D01*
X7539060Y6092500D01*
X7560940D01*
X7581155Y6100873D01*
X7596626Y6116345D01*
X7605000Y6136560D01*
Y6158440D01*
X7598931Y6173091D01*
X7610619Y6185568D01*
X7624060Y6180000D01*
X7645940D01*
X7666155Y6188373D01*
X7681626Y6203845D01*
X7690000Y6224060D01*
Y6245940D01*
X7681626Y6266155D01*
X7666155Y6281627D01*
X7645940Y6290000D01*
D02*
G37*
G36*
X6903440Y6272500D02*
X6881560D01*
X6861345Y6264126D01*
X6845874Y6248655D01*
X6837500Y6228440D01*
Y6206560D01*
X6845874Y6186345D01*
X6861345Y6170873D01*
X6881560Y6162500D01*
X6903440D01*
X6923655Y6170873D01*
X6939127Y6186345D01*
X6947500Y6206560D01*
Y6228440D01*
X6939127Y6248655D01*
X6923655Y6264126D01*
X6903440Y6272500D01*
D02*
G37*
G36*
X9345940Y6250000D02*
X9324060D01*
X9303845Y6241627D01*
X9288374Y6226155D01*
X9280000Y6205940D01*
Y6184060D01*
X9288374Y6163845D01*
X9303845Y6148374D01*
X9324060Y6140000D01*
X9345940D01*
X9366155Y6148374D01*
X9381627Y6163845D01*
X9390000Y6184060D01*
Y6205940D01*
X9381627Y6226155D01*
X9366155Y6241627D01*
X9345940Y6250000D01*
D02*
G37*
G36*
X6655940Y6247500D02*
X6634060D01*
X6613845Y6239126D01*
X6598373Y6223655D01*
X6590000Y6203440D01*
Y6181560D01*
X6598373Y6161345D01*
X6613845Y6145873D01*
X6634060Y6137500D01*
X6655940D01*
X6676155Y6145873D01*
X6691626Y6161345D01*
X6700000Y6181560D01*
Y6203440D01*
X6691626Y6223655D01*
X6676155Y6239126D01*
X6655940Y6247500D01*
D02*
G37*
G36*
X7225940Y6230000D02*
X7204060D01*
X7183845Y6221627D01*
X7168374Y6206155D01*
X7160000Y6185940D01*
Y6164060D01*
X7168374Y6143845D01*
X7183845Y6128374D01*
X7204060Y6120000D01*
X7225940D01*
X7246155Y6128374D01*
X7261627Y6143845D01*
X7270000Y6164060D01*
Y6185940D01*
X7261627Y6206155D01*
X7246155Y6221627D01*
X7225940Y6230000D01*
D02*
G37*
G36*
X7420940Y5990000D02*
X7399060D01*
X7378845Y5981627D01*
X7363373Y5966155D01*
X7355000Y5945940D01*
Y5924060D01*
X7363373Y5903845D01*
X7378845Y5888374D01*
X7399060Y5880000D01*
X7420940D01*
X7441155Y5888374D01*
X7456626Y5903845D01*
X7465000Y5924060D01*
Y5945940D01*
X7456626Y5966155D01*
X7441155Y5981627D01*
X7420940Y5990000D01*
D02*
G37*
G36*
X6768300Y5822510D02*
X6748037Y5817080D01*
X6728563Y5805837D01*
X6712663Y5789937D01*
X6710792Y5786696D01*
X6692990Y5787863D01*
X6691626Y5791155D01*
X6676155Y5806626D01*
X6655940Y5815000D01*
X6634060D01*
X6613845Y5806626D01*
X6598373Y5791155D01*
X6590000Y5770940D01*
Y5749060D01*
X6598373Y5728845D01*
X6613845Y5713373D01*
X6634060Y5705000D01*
X6655940D01*
X6676155Y5713373D01*
X6681149Y5718368D01*
X6698995Y5713586D01*
X6701420Y5704537D01*
X6712663Y5685063D01*
X6728563Y5669163D01*
X6748037Y5657920D01*
X6768300Y5652491D01*
Y5737500D01*
Y5822510D01*
D02*
G37*
G36*
X6793700D02*
Y5750200D01*
X6866009D01*
X6860580Y5770463D01*
X6849337Y5789937D01*
X6833437Y5805837D01*
X6813963Y5817080D01*
X6793700Y5822510D01*
D02*
G37*
G36*
X7933440Y5835000D02*
X7911560D01*
X7891345Y5826627D01*
X7875874Y5811155D01*
X7867500Y5790940D01*
Y5769060D01*
X7875874Y5748845D01*
X7891345Y5733374D01*
X7911560Y5725000D01*
X7933440D01*
X7953655Y5733374D01*
X7969127Y5748845D01*
X7977500Y5769060D01*
Y5790940D01*
X7969127Y5811155D01*
X7953655Y5826627D01*
X7933440Y5835000D01*
D02*
G37*
G36*
X9470940Y5770000D02*
X9449060D01*
X9428845Y5761627D01*
X9413373Y5746155D01*
X9405000Y5725940D01*
Y5704060D01*
X9413373Y5683845D01*
X9428845Y5668373D01*
X9449060Y5660000D01*
X9470940D01*
X9491155Y5668373D01*
X9506626Y5683845D01*
X9515000Y5704060D01*
Y5725940D01*
X9506626Y5746155D01*
X9491155Y5761627D01*
X9470940Y5770000D01*
D02*
G37*
G36*
X6866009Y5724800D02*
X6793700D01*
Y5652491D01*
X6813963Y5657920D01*
X6833437Y5669163D01*
X6849337Y5685063D01*
X6860580Y5704537D01*
X6866009Y5724800D01*
D02*
G37*
G36*
X7190940Y6052500D02*
X7169060D01*
X7148845Y6044127D01*
X7133374Y6028655D01*
X7125000Y6008440D01*
Y5986560D01*
X7133374Y5966345D01*
X7141766Y5957953D01*
X7147118Y5947500D01*
X7141766Y5937048D01*
X7133374Y5928655D01*
X7125000Y5908440D01*
Y5886560D01*
X7133374Y5866345D01*
X7141766Y5857952D01*
X7147118Y5847500D01*
X7141766Y5837048D01*
X7133374Y5828655D01*
X7125000Y5808440D01*
Y5786560D01*
X7133374Y5766345D01*
X7141766Y5757952D01*
X7147118Y5747500D01*
X7141766Y5737047D01*
X7133374Y5728655D01*
X7125000Y5708440D01*
Y5686560D01*
X7133374Y5666345D01*
X7141766Y5657952D01*
X7147118Y5647500D01*
X7141766Y5637047D01*
X7133374Y5628655D01*
X7130608Y5621978D01*
X7123725Y5621561D01*
X7114174Y5624113D01*
X7109548Y5641379D01*
X7099016Y5659621D01*
X7084121Y5674516D01*
X7065879Y5685048D01*
X7045532Y5690500D01*
X7024468D01*
X7004121Y5685048D01*
X6985879Y5674516D01*
X6970984Y5659621D01*
X6960452Y5641379D01*
X6955000Y5621032D01*
Y5599968D01*
X6960452Y5579621D01*
X6970984Y5561379D01*
X6985879Y5546484D01*
X7004121Y5535952D01*
X7024468Y5530500D01*
X7045532D01*
X7065879Y5535952D01*
X7084121Y5546484D01*
X7099016Y5561379D01*
X7109548Y5579621D01*
X7110218Y5582123D01*
X7126804Y5582204D01*
X7133374Y5566345D01*
X7148845Y5550873D01*
X7165838Y5543835D01*
X7165873Y5543655D01*
X7157500Y5523440D01*
Y5501560D01*
X7165873Y5481345D01*
X7181345Y5465873D01*
X7201560Y5457500D01*
X7223440D01*
X7243655Y5465873D01*
X7259126Y5481345D01*
X7267500Y5501560D01*
Y5523440D01*
X7259126Y5543655D01*
X7243655Y5559127D01*
X7226662Y5566165D01*
X7226627Y5566345D01*
X7235000Y5586560D01*
Y5608440D01*
X7226627Y5628655D01*
X7218234Y5637047D01*
X7212882Y5647500D01*
X7218234Y5657952D01*
X7226627Y5666345D01*
X7235000Y5686560D01*
Y5708440D01*
X7226627Y5728655D01*
X7218234Y5737047D01*
X7212882Y5747500D01*
X7218234Y5757952D01*
X7226627Y5766345D01*
X7235000Y5786560D01*
Y5808440D01*
X7226627Y5828655D01*
X7218234Y5837048D01*
X7212882Y5847500D01*
X7218234Y5857952D01*
X7226627Y5866345D01*
X7235000Y5886560D01*
Y5908440D01*
X7226627Y5928655D01*
X7218234Y5937048D01*
X7212882Y5947500D01*
X7218234Y5957953D01*
X7226627Y5966345D01*
X7235000Y5986560D01*
Y6008440D01*
X7226627Y6028655D01*
X7211155Y6044127D01*
X7190940Y6052500D01*
D02*
G37*
G36*
X8340940Y5577500D02*
X8319060D01*
X8298845Y5569127D01*
X8283374Y5553655D01*
X8275000Y5533440D01*
Y5511560D01*
X8283374Y5491345D01*
X8298845Y5475873D01*
X8319060Y5467500D01*
X8340940D01*
X8361155Y5475873D01*
X8376627Y5491345D01*
X8385000Y5511560D01*
Y5533440D01*
X8376627Y5553655D01*
X8361155Y5569127D01*
X8340940Y5577500D01*
D02*
G37*
G36*
X6791532Y5563500D02*
X6770468D01*
X6750121Y5558048D01*
X6731879Y5547516D01*
X6716984Y5532621D01*
X6706452Y5514379D01*
X6701000Y5494032D01*
Y5472968D01*
X6706452Y5452621D01*
X6716984Y5434379D01*
X6731879Y5419484D01*
X6750121Y5408952D01*
X6770468Y5403500D01*
X6791532D01*
X6811879Y5408952D01*
X6830121Y5419484D01*
X6845016Y5434379D01*
X6855548Y5452621D01*
X6861000Y5472968D01*
Y5494032D01*
X6855548Y5514379D01*
X6845016Y5532621D01*
X6830121Y5547516D01*
X6811879Y5558048D01*
X6791532Y5563500D01*
D02*
G37*
G36*
X7045532Y5436500D02*
X7024468D01*
X7004121Y5431048D01*
X6985879Y5420516D01*
X6970984Y5405621D01*
X6960452Y5387379D01*
X6955000Y5367032D01*
Y5345968D01*
X6960452Y5325621D01*
X6970984Y5307379D01*
X6985879Y5292484D01*
X7004121Y5281952D01*
X7024468Y5276500D01*
X7045532D01*
X7065879Y5281952D01*
X7084121Y5292484D01*
X7099016Y5307379D01*
X7109548Y5325621D01*
X7115000Y5345968D01*
Y5367032D01*
X7109548Y5387379D01*
X7099016Y5405621D01*
X7084121Y5420516D01*
X7065879Y5431048D01*
X7045532Y5436500D01*
D02*
G37*
G36*
X8298440Y5362500D02*
X8276560D01*
X8256345Y5354126D01*
X8240874Y5338655D01*
X8232500Y5318440D01*
Y5296560D01*
X8240874Y5276345D01*
X8256345Y5260873D01*
X8276560Y5252500D01*
X8298440D01*
X8318655Y5260873D01*
X8334127Y5276345D01*
X8342500Y5296560D01*
Y5318440D01*
X8334127Y5338655D01*
X8318655Y5354126D01*
X8298440Y5362500D01*
D02*
G37*
G36*
X9118440Y5352500D02*
X9096560D01*
X9076345Y5344126D01*
X9060873Y5328655D01*
X9052500Y5308440D01*
Y5286560D01*
X9060873Y5266345D01*
X9076345Y5250873D01*
X9096560Y5242500D01*
X9118440D01*
X9138655Y5250873D01*
X9154126Y5266345D01*
X9162500Y5286560D01*
Y5308440D01*
X9154126Y5328655D01*
X9138655Y5344126D01*
X9118440Y5352500D01*
D02*
G37*
G36*
X8968440Y5312500D02*
X8946560D01*
X8926345Y5304127D01*
X8910873Y5288655D01*
X8902500Y5268440D01*
Y5246560D01*
X8910873Y5226345D01*
X8926345Y5210873D01*
X8946560Y5202500D01*
X8968440D01*
X8988655Y5210873D01*
X9004127Y5226345D01*
X9012500Y5246560D01*
Y5268440D01*
X9004127Y5288655D01*
X8988655Y5304127D01*
X8968440Y5312500D01*
D02*
G37*
G36*
X7815940Y5307500D02*
X7794060D01*
X7773845Y5299127D01*
X7758373Y5283655D01*
X7750000Y5263440D01*
Y5241560D01*
X7758373Y5221345D01*
X7773845Y5205874D01*
X7794060Y5197500D01*
X7815940D01*
X7836155Y5205874D01*
X7851626Y5221345D01*
X7860000Y5241560D01*
Y5263440D01*
X7851626Y5283655D01*
X7836155Y5299127D01*
X7815940Y5307500D01*
D02*
G37*
G36*
X7200940Y5287500D02*
X7179060D01*
X7158845Y5279127D01*
X7143374Y5263655D01*
X7135000Y5243440D01*
Y5221560D01*
X7143374Y5201345D01*
X7158845Y5185874D01*
X7179060Y5177500D01*
X7200940D01*
X7221155Y5185874D01*
X7236627Y5201345D01*
X7245000Y5221560D01*
Y5243440D01*
X7236627Y5263655D01*
X7221155Y5279127D01*
X7200940Y5287500D01*
D02*
G37*
G36*
X6791532Y5309500D02*
X6770468D01*
X6750121Y5304048D01*
X6731879Y5293516D01*
X6716984Y5278621D01*
X6706452Y5260379D01*
X6701000Y5240032D01*
Y5218968D01*
X6706452Y5198621D01*
X6716984Y5180379D01*
X6731879Y5165484D01*
X6750121Y5154952D01*
X6770468Y5149500D01*
X6791532D01*
X6811879Y5154952D01*
X6830121Y5165484D01*
X6845016Y5180379D01*
X6855548Y5198621D01*
X6861000Y5218968D01*
Y5240032D01*
X6855548Y5260379D01*
X6845016Y5278621D01*
X6830121Y5293516D01*
X6811879Y5304048D01*
X6791532Y5309500D01*
D02*
G37*
G36*
X7993440Y5142500D02*
X7971560D01*
X7951345Y5134127D01*
X7935873Y5118655D01*
X7927500Y5098440D01*
Y5076560D01*
X7935873Y5056345D01*
X7951345Y5040874D01*
X7971560Y5032500D01*
X7993440D01*
X8013655Y5040874D01*
X8029126Y5056345D01*
X8037500Y5076560D01*
Y5098440D01*
X8029126Y5118655D01*
X8013655Y5134127D01*
X7993440Y5142500D01*
D02*
G37*
G36*
X7045532Y5182500D02*
X7024468D01*
X7004121Y5177048D01*
X6985879Y5166516D01*
X6970984Y5151621D01*
X6960452Y5133379D01*
X6955000Y5113032D01*
Y5091968D01*
X6960452Y5071621D01*
X6970984Y5053379D01*
X6985879Y5038484D01*
X7004121Y5027952D01*
X7024468Y5022500D01*
X7045532D01*
X7065879Y5027952D01*
X7084121Y5038484D01*
X7099016Y5053379D01*
X7109548Y5071621D01*
X7115000Y5091968D01*
Y5113032D01*
X7109548Y5133379D01*
X7099016Y5151621D01*
X7084121Y5166516D01*
X7065879Y5177048D01*
X7045532Y5182500D01*
D02*
G37*
G36*
X6650940Y5122500D02*
X6629060D01*
X6608845Y5114126D01*
X6593373Y5098655D01*
X6585000Y5078440D01*
Y5056560D01*
X6593373Y5036345D01*
X6608845Y5020873D01*
X6629060Y5012500D01*
X6650940D01*
X6671155Y5020873D01*
X6686626Y5036345D01*
X6695000Y5056560D01*
Y5078440D01*
X6686626Y5098655D01*
X6671155Y5114126D01*
X6650940Y5122500D01*
D02*
G37*
G36*
X7698440Y5117500D02*
X7676560D01*
X7656345Y5109126D01*
X7640873Y5093655D01*
X7632500Y5073440D01*
Y5051560D01*
X7640873Y5031345D01*
X7656345Y5015873D01*
X7676560Y5007500D01*
X7698440D01*
X7718655Y5015873D01*
X7734127Y5031345D01*
X7742500Y5051560D01*
Y5073440D01*
X7734127Y5093655D01*
X7718655Y5109126D01*
X7698440Y5117500D01*
D02*
G37*
G36*
X7433440Y5047500D02*
X7411560D01*
X7391345Y5039127D01*
X7375873Y5023655D01*
X7367500Y5003440D01*
Y4981560D01*
X7375873Y4961345D01*
X7391345Y4945874D01*
X7411560Y4937500D01*
X7433440D01*
X7453655Y4945874D01*
X7469127Y4961345D01*
X7477500Y4981560D01*
Y5003440D01*
X7469127Y5023655D01*
X7453655Y5039127D01*
X7433440Y5047500D01*
D02*
G37*
G36*
X8805940Y5085000D02*
X8784060D01*
X8763845Y5076627D01*
X8748373Y5061155D01*
X8741748Y5045159D01*
X8730940Y5035000D01*
X8709060D01*
X8688845Y5026626D01*
X8673374Y5011155D01*
X8665000Y4990940D01*
Y4969060D01*
X8673374Y4948845D01*
X8688845Y4933373D01*
X8709060Y4925000D01*
X8730940D01*
X8751155Y4933373D01*
X8766627Y4948845D01*
X8773252Y4964841D01*
X8784060Y4975000D01*
X8805940D01*
X8826155Y4983374D01*
X8841626Y4998845D01*
X8850000Y5019060D01*
Y5040940D01*
X8841626Y5061155D01*
X8826155Y5076627D01*
X8805940Y5085000D01*
D02*
G37*
G36*
X8215940Y5020000D02*
X8194060D01*
X8173845Y5011627D01*
X8158374Y4996155D01*
X8150000Y4975940D01*
Y4954060D01*
X8158374Y4933845D01*
X8173845Y4918373D01*
X8194060Y4910000D01*
X8215940D01*
X8236155Y4918373D01*
X8251627Y4933845D01*
X8260000Y4954060D01*
Y4975940D01*
X8251627Y4996155D01*
X8236155Y5011627D01*
X8215940Y5020000D01*
D02*
G37*
G36*
X9118440Y5015001D02*
X9096560D01*
X9076345Y5006628D01*
X9060873Y4991156D01*
X9052500Y4970941D01*
Y4949061D01*
X9060873Y4928846D01*
X9076345Y4913374D01*
X9096560Y4905001D01*
X9118440D01*
X9138655Y4913374D01*
X9154126Y4928846D01*
X9162500Y4949061D01*
Y4970941D01*
X9154126Y4991156D01*
X9138655Y5006628D01*
X9118440Y5015001D01*
D02*
G37*
G36*
X6875000Y5043190D02*
X6835000D01*
X6814116Y5040441D01*
X6794655Y5032380D01*
X6777944Y5019557D01*
X6765120Y5002845D01*
X6757059Y4983384D01*
X6754310Y4962500D01*
X6757059Y4941616D01*
X6765120Y4922155D01*
X6777944Y4905444D01*
X6794655Y4892620D01*
X6814116Y4884559D01*
X6835000Y4881810D01*
X6875000D01*
X6895884Y4884559D01*
X6915345Y4892620D01*
X6932056Y4905444D01*
X6944880Y4922155D01*
X6952941Y4941616D01*
X6955690Y4962500D01*
X6952941Y4983384D01*
X6944880Y5002845D01*
X6932056Y5019557D01*
X6915345Y5032380D01*
X6895884Y5040441D01*
X6875000Y5043190D01*
D02*
G37*
G36*
X7690940Y5755000D02*
X7669060D01*
X7648845Y5746627D01*
X7633373Y5731155D01*
X7625000Y5710940D01*
Y5689060D01*
X7633373Y5668845D01*
X7634118Y5668100D01*
Y5554005D01*
X6935057Y4854943D01*
X6925111Y4840058D01*
X6921618Y4822500D01*
Y4164500D01*
X6925111Y4146942D01*
X6935057Y4132057D01*
X7016221Y4050893D01*
X7012500Y4037007D01*
Y4011993D01*
X7018975Y3987831D01*
X7031481Y3966169D01*
X7049169Y3948481D01*
X7070832Y3935974D01*
X7094993Y3929500D01*
X7120007D01*
X7144169Y3935974D01*
X7165831Y3948481D01*
X7183519Y3966169D01*
X7196026Y3987831D01*
X7202500Y4011993D01*
Y4037007D01*
X7196026Y4061168D01*
X7183519Y4082831D01*
X7165831Y4100519D01*
X7144169Y4113026D01*
X7120007Y4119500D01*
X7094993D01*
X7081108Y4115779D01*
X7013381Y4183505D01*
Y4219519D01*
X7029381Y4223806D01*
X7031481Y4220169D01*
X7049169Y4202481D01*
X7070832Y4189974D01*
X7094993Y4183500D01*
X7120007D01*
X7144169Y4189974D01*
X7165831Y4202481D01*
X7183519Y4220169D01*
X7196026Y4241831D01*
X7202500Y4265993D01*
Y4291007D01*
X7196026Y4315168D01*
X7183519Y4336831D01*
X7165831Y4354519D01*
X7144169Y4367026D01*
X7120007Y4373500D01*
X7094993D01*
X7070832Y4367026D01*
X7049169Y4354519D01*
X7031481Y4336831D01*
X7029381Y4333194D01*
X7013381Y4337481D01*
Y4473519D01*
X7029381Y4477806D01*
X7031481Y4474169D01*
X7049169Y4456481D01*
X7070832Y4443974D01*
X7094993Y4437500D01*
X7120007D01*
X7144169Y4443974D01*
X7165831Y4456481D01*
X7183519Y4474169D01*
X7196026Y4495831D01*
X7202500Y4519993D01*
Y4545007D01*
X7196026Y4569168D01*
X7183519Y4590831D01*
X7177622Y4596728D01*
X7183790Y4612728D01*
X7204005Y4621101D01*
X7219477Y4636573D01*
X7227850Y4656788D01*
Y4678668D01*
X7219477Y4698883D01*
X7204005Y4714354D01*
X7183790Y4722728D01*
X7161910D01*
X7141695Y4714354D01*
X7126223Y4698883D01*
X7117850Y4678668D01*
Y4656788D01*
X7123609Y4642884D01*
X7122997Y4640267D01*
X7114801Y4628107D01*
X7113982Y4627500D01*
X7094993D01*
X7070832Y4621026D01*
X7049169Y4608519D01*
X7031481Y4590831D01*
X7029381Y4587194D01*
X7013381Y4591481D01*
Y4803495D01*
X7096500Y4886614D01*
X7112500Y4879986D01*
Y4876560D01*
X7120873Y4856345D01*
X7136345Y4840873D01*
X7156560Y4832500D01*
X7178440D01*
X7198655Y4840873D01*
X7214127Y4856345D01*
X7222500Y4876560D01*
Y4898440D01*
X7214127Y4918655D01*
X7198655Y4934127D01*
X7178440Y4942500D01*
X7175014D01*
X7168386Y4958500D01*
X7712443Y5502557D01*
X7722389Y5517442D01*
X7725881Y5535000D01*
Y5668100D01*
X7726626Y5668845D01*
X7735000Y5689060D01*
Y5710940D01*
X7726626Y5731155D01*
X7711155Y5746627D01*
X7690940Y5755000D01*
D02*
G37*
G36*
X7720665Y4888500D02*
X7694335D01*
X7668902Y4881685D01*
X7646099Y4868520D01*
X7627480Y4849901D01*
X7614315Y4827098D01*
X7607500Y4801665D01*
Y4775335D01*
X7614315Y4749902D01*
X7627480Y4727099D01*
X7646099Y4708480D01*
X7668902Y4695315D01*
X7694335Y4688500D01*
X7720665D01*
X7746098Y4695315D01*
X7768901Y4708480D01*
X7787520Y4727099D01*
X7800685Y4749902D01*
X7807500Y4775335D01*
Y4801665D01*
X7800685Y4827098D01*
X7787520Y4849901D01*
X7768901Y4868520D01*
X7746098Y4881685D01*
X7720665Y4888500D01*
D02*
G37*
G36*
X7507500D02*
X7307500D01*
Y4688500D01*
X7507500D01*
Y4888500D01*
D02*
G37*
G36*
X6650940Y4755000D02*
X6629060D01*
X6608845Y4746627D01*
X6593373Y4731155D01*
X6585000Y4710940D01*
Y4689060D01*
X6593373Y4668845D01*
X6608845Y4653373D01*
X6629060Y4645000D01*
X6650940D01*
X6671155Y4653373D01*
X6686626Y4668845D01*
X6695000Y4689060D01*
Y4710940D01*
X6686626Y4731155D01*
X6671155Y4746627D01*
X6650940Y4755000D01*
D02*
G37*
G36*
X8808440Y4860000D02*
X8786560D01*
X8766345Y4851627D01*
X8750874Y4836155D01*
X8742500Y4815940D01*
Y4798994D01*
X8731261Y4788816D01*
X8728440Y4787500D01*
X8706560D01*
X8686345Y4779127D01*
X8670873Y4763655D01*
X8662500Y4743440D01*
Y4721560D01*
X8670873Y4701345D01*
X8686345Y4685874D01*
X8706560Y4677500D01*
X8706745Y4677223D01*
X8700000Y4660940D01*
Y4639060D01*
X8708373Y4618845D01*
X8723845Y4603374D01*
X8744060Y4595000D01*
X8765940D01*
X8786155Y4603374D01*
X8801627Y4618845D01*
X8810000Y4639060D01*
Y4660940D01*
X8801627Y4681155D01*
X8786155Y4696627D01*
X8765940Y4705000D01*
X8765755Y4705277D01*
X8772500Y4721560D01*
Y4738506D01*
X8783739Y4748684D01*
X8786560Y4750000D01*
X8808440D01*
X8828655Y4758374D01*
X8844127Y4773845D01*
X8852500Y4794060D01*
Y4815940D01*
X8844127Y4836155D01*
X8828655Y4851627D01*
X8808440Y4860000D01*
D02*
G37*
G36*
X8213028Y4697500D02*
X8191148D01*
X8170933Y4689127D01*
X8155461Y4673655D01*
X8147088Y4653440D01*
Y4631560D01*
X8155461Y4611345D01*
X8170933Y4595873D01*
X8191148Y4587500D01*
X8213028D01*
X8233243Y4595873D01*
X8248715Y4611345D01*
X8257088Y4631560D01*
Y4653440D01*
X8248715Y4673655D01*
X8233243Y4689127D01*
X8213028Y4697500D01*
D02*
G37*
G36*
X8533440Y4855000D02*
X8511560D01*
X8491345Y4846627D01*
X8475874Y4831155D01*
X8467500Y4810940D01*
Y4789060D01*
X8470839Y4781000D01*
X8466560Y4765000D01*
X8446345Y4756627D01*
X8430873Y4741155D01*
X8422500Y4720940D01*
Y4699060D01*
X8408435Y4691206D01*
X8391345Y4684127D01*
X8375874Y4668655D01*
X8367500Y4648440D01*
Y4626560D01*
X8375874Y4606345D01*
X8391345Y4590873D01*
X8411560Y4582500D01*
X8433440D01*
X8453655Y4590873D01*
X8469127Y4606345D01*
X8477500Y4626560D01*
Y4648440D01*
X8491565Y4656294D01*
X8508655Y4663373D01*
X8524126Y4678845D01*
X8532500Y4699060D01*
Y4720940D01*
X8529161Y4729000D01*
X8533440Y4745000D01*
X8553655Y4753374D01*
X8569127Y4768845D01*
X8577500Y4789060D01*
Y4810940D01*
X8569127Y4831155D01*
X8553655Y4846627D01*
X8533440Y4855000D01*
D02*
G37*
G36*
X8678440Y4580000D02*
X8656560D01*
X8636345Y4571627D01*
X8620874Y4556155D01*
X8604987Y4559611D01*
X8585940Y4567500D01*
X8564060D01*
X8543845Y4559127D01*
X8528374Y4543655D01*
X8520000Y4523440D01*
Y4503543D01*
X8518440Y4502500D01*
X8496560D01*
X8476345Y4494127D01*
X8460873Y4478655D01*
X8452500Y4458440D01*
Y4436560D01*
X8460873Y4416345D01*
X8476345Y4400874D01*
X8496560Y4392500D01*
X8518440D01*
X8538655Y4400874D01*
X8554126Y4416345D01*
X8562500Y4436560D01*
Y4456457D01*
X8564060Y4457500D01*
X8585940D01*
X8606155Y4465873D01*
X8621627Y4481345D01*
X8637514Y4477889D01*
X8656560Y4470000D01*
X8678440D01*
X8698655Y4478374D01*
X8714127Y4493845D01*
X8722500Y4514060D01*
Y4535940D01*
X8714127Y4556155D01*
X8698655Y4571627D01*
X8678440Y4580000D01*
D02*
G37*
G36*
X7960940Y4740000D02*
X7939060D01*
X7918845Y4731627D01*
X7903374Y4716155D01*
X7895000Y4695940D01*
Y4674060D01*
X7903374Y4653845D01*
X7917219Y4640000D01*
X7903374Y4626155D01*
X7895000Y4605940D01*
Y4584060D01*
X7903374Y4563845D01*
X7918845Y4548373D01*
X7939060Y4540000D01*
X7960940D01*
X7981155Y4548373D01*
X7996627Y4563845D01*
X8005000Y4584060D01*
Y4605940D01*
X7996627Y4626155D01*
X7982782Y4640000D01*
X7996627Y4653845D01*
X8005000Y4674060D01*
Y4695940D01*
X7996627Y4716155D01*
X7981155Y4731627D01*
X7960940Y4740000D01*
D02*
G37*
G36*
X7720665Y4634500D02*
X7694335D01*
X7668902Y4627685D01*
X7646099Y4614520D01*
X7627480Y4595901D01*
X7614315Y4573098D01*
X7607500Y4547665D01*
Y4521335D01*
X7614315Y4495902D01*
X7627480Y4473099D01*
X7646099Y4454480D01*
X7668902Y4441315D01*
X7694335Y4434500D01*
X7720665D01*
X7746098Y4441315D01*
X7768901Y4454480D01*
X7787520Y4473099D01*
X7800685Y4495902D01*
X7807500Y4521335D01*
Y4547665D01*
X7800685Y4573098D01*
X7787520Y4595901D01*
X7768901Y4614520D01*
X7746098Y4627685D01*
X7720665Y4634500D01*
D02*
G37*
G36*
X7420665D02*
X7394335D01*
X7368902Y4627685D01*
X7346099Y4614520D01*
X7327480Y4595901D01*
X7314315Y4573098D01*
X7307500Y4547665D01*
Y4521335D01*
X7314315Y4495902D01*
X7327480Y4473099D01*
X7346099Y4454480D01*
X7368902Y4441315D01*
X7394335Y4434500D01*
X7420665D01*
X7446098Y4441315D01*
X7468901Y4454480D01*
X7487520Y4473099D01*
X7500685Y4495902D01*
X7507500Y4521335D01*
Y4547665D01*
X7500685Y4573098D01*
X7487520Y4595901D01*
X7468901Y4614520D01*
X7446098Y4627685D01*
X7420665Y4634500D01*
D02*
G37*
G36*
X6650940Y4507500D02*
X6629060D01*
X6608845Y4499127D01*
X6593373Y4483655D01*
X6585000Y4463440D01*
Y4441560D01*
X6593373Y4421345D01*
X6608845Y4405874D01*
X6629060Y4397500D01*
X6650940D01*
X6671155Y4405874D01*
X6686626Y4421345D01*
X6695000Y4441560D01*
Y4463440D01*
X6686626Y4483655D01*
X6671155Y4499127D01*
X6650940Y4507500D01*
D02*
G37*
G36*
X8283440Y4560000D02*
X8261560D01*
X8241345Y4551626D01*
X8225874Y4536155D01*
X8217911Y4516931D01*
X8210940Y4502500D01*
X8189060D01*
X8168845Y4494127D01*
X8153374Y4478655D01*
X8145000Y4458440D01*
Y4436560D01*
X8153374Y4416345D01*
X8168845Y4400874D01*
X8189060Y4392500D01*
X8210940D01*
X8231155Y4400874D01*
X8246627Y4416345D01*
X8254590Y4435569D01*
X8261560Y4450000D01*
X8283440D01*
X8303655Y4458373D01*
X8319127Y4473845D01*
X8327500Y4494060D01*
Y4515940D01*
X8319127Y4536155D01*
X8303655Y4551626D01*
X8283440Y4560000D01*
D02*
G37*
G36*
X8808440Y4547500D02*
X8786560D01*
X8766345Y4539127D01*
X8750874Y4523655D01*
X8742500Y4503440D01*
Y4481560D01*
X8750874Y4461345D01*
X8766345Y4445874D01*
X8786560Y4437500D01*
X8791424D01*
X8800314Y4424196D01*
X8800000Y4423440D01*
Y4401560D01*
X8808374Y4381345D01*
X8823845Y4365873D01*
X8844060Y4357500D01*
X8865940D01*
X8886155Y4365873D01*
X8894832Y4374551D01*
X8896012Y4374707D01*
X8912774Y4369865D01*
X8918374Y4356345D01*
X8933845Y4340873D01*
X8954060Y4332500D01*
X8975940D01*
X8996155Y4340873D01*
X9011627Y4356345D01*
X9020000Y4376560D01*
Y4398440D01*
X9011627Y4418655D01*
X8996155Y4434127D01*
X8975940Y4442500D01*
X8954060D01*
X8933845Y4434127D01*
X8925168Y4425449D01*
X8923988Y4425293D01*
X8907227Y4430135D01*
X8901627Y4443655D01*
X8886155Y4459126D01*
X8865940Y4467500D01*
X8861076D01*
X8852187Y4480804D01*
X8852500Y4481560D01*
Y4503440D01*
X8844127Y4523655D01*
X8828655Y4539127D01*
X8808440Y4547500D01*
D02*
G37*
G36*
X7873440Y4410000D02*
X7851560D01*
X7831345Y4401626D01*
X7815873Y4386155D01*
X7807500Y4365940D01*
Y4344060D01*
X7811228Y4335059D01*
X7805321Y4322674D01*
X7804027Y4322036D01*
X7793471Y4331593D01*
X7787520Y4341901D01*
X7768901Y4360520D01*
X7746098Y4373685D01*
X7720665Y4380500D01*
X7694335D01*
X7668902Y4373685D01*
X7646099Y4360520D01*
X7627480Y4341901D01*
X7614315Y4319098D01*
X7607500Y4293665D01*
Y4267335D01*
X7614315Y4241902D01*
X7627480Y4219099D01*
X7646099Y4200480D01*
X7668902Y4187315D01*
X7694335Y4180500D01*
X7720665D01*
X7746098Y4187315D01*
X7768901Y4200480D01*
X7787520Y4219099D01*
X7800685Y4241902D01*
X7807500Y4267335D01*
Y4293665D01*
X7804058Y4306509D01*
X7815704Y4323807D01*
X7815873Y4323845D01*
X7831345Y4308373D01*
X7851560Y4300000D01*
X7873440D01*
X7893655Y4308373D01*
X7909126Y4323845D01*
X7917500Y4344060D01*
Y4365940D01*
X7909126Y4386155D01*
X7893655Y4401626D01*
X7873440Y4410000D01*
D02*
G37*
G36*
X8855940Y4325000D02*
X8834060D01*
X8813845Y4316627D01*
X8798374Y4301155D01*
X8790000Y4280940D01*
Y4259060D01*
X8798374Y4238845D01*
X8813845Y4223374D01*
X8834060Y4215000D01*
X8855940D01*
X8876155Y4223374D01*
X8891627Y4238845D01*
X8900000Y4259060D01*
Y4280940D01*
X8891627Y4301155D01*
X8876155Y4316627D01*
X8855940Y4325000D01*
D02*
G37*
G36*
X7420665Y4380500D02*
X7394335D01*
X7368902Y4373685D01*
X7346099Y4360520D01*
X7327480Y4341901D01*
X7314315Y4319098D01*
X7307500Y4293665D01*
Y4267335D01*
X7314315Y4241902D01*
X7327480Y4219099D01*
X7346099Y4200480D01*
X7368902Y4187315D01*
X7394335Y4180500D01*
X7420665D01*
X7446098Y4187315D01*
X7468901Y4200480D01*
X7487520Y4219099D01*
X7500685Y4241902D01*
X7507500Y4267335D01*
Y4293665D01*
X7500685Y4319098D01*
X7487520Y4341901D01*
X7468901Y4360520D01*
X7446098Y4373685D01*
X7420665Y4380500D01*
D02*
G37*
G36*
X8578858Y4247704D02*
X8556978D01*
X8536763Y4239331D01*
X8521292Y4223859D01*
X8512918Y4203645D01*
Y4181765D01*
X8521292Y4161550D01*
X8536763Y4146078D01*
X8556978Y4137705D01*
X8578858D01*
X8599073Y4146078D01*
X8614545Y4161550D01*
X8622918Y4181765D01*
Y4203645D01*
X8614545Y4223859D01*
X8599073Y4239331D01*
X8578858Y4247704D01*
D02*
G37*
G36*
X6650940Y4200000D02*
X6629060D01*
X6608845Y4191627D01*
X6593373Y4176155D01*
X6585000Y4155940D01*
Y4134060D01*
X6593373Y4113845D01*
X6608845Y4098374D01*
X6629060Y4090000D01*
X6650940D01*
X6671155Y4098374D01*
X6686626Y4113845D01*
X6695000Y4134060D01*
Y4155940D01*
X6686626Y4176155D01*
X6671155Y4191627D01*
X6650940Y4200000D01*
D02*
G37*
G36*
X7720665Y4126500D02*
X7694335D01*
X7668902Y4119685D01*
X7646099Y4106520D01*
X7627480Y4087901D01*
X7614315Y4065098D01*
X7607500Y4039665D01*
Y4013335D01*
X7614315Y3987902D01*
X7627480Y3965099D01*
X7646099Y3946480D01*
X7668902Y3933315D01*
X7694335Y3926500D01*
X7720665D01*
X7746098Y3933315D01*
X7768901Y3946480D01*
X7787520Y3965099D01*
X7800685Y3987902D01*
X7807500Y4013335D01*
Y4039665D01*
X7800685Y4065098D01*
X7787520Y4087901D01*
X7768901Y4106520D01*
X7746098Y4119685D01*
X7720665Y4126500D01*
D02*
G37*
G36*
X7420665D02*
X7394335D01*
X7368902Y4119685D01*
X7346099Y4106520D01*
X7327480Y4087901D01*
X7314315Y4065098D01*
X7307500Y4039665D01*
Y4013335D01*
X7314315Y3987902D01*
X7327480Y3965099D01*
X7346099Y3946480D01*
X7368902Y3933315D01*
X7394335Y3926500D01*
X7420665D01*
X7446098Y3933315D01*
X7468901Y3946480D01*
X7487520Y3965099D01*
X7500685Y3987902D01*
X7507500Y4013335D01*
Y4039665D01*
X7500685Y4065098D01*
X7487520Y4087901D01*
X7468901Y4106520D01*
X7446098Y4119685D01*
X7420665Y4126500D01*
D02*
G37*
G36*
X7812900Y3877900D02*
X7720200D01*
Y3785200D01*
X7812900D01*
Y3877900D01*
D02*
G37*
G36*
X7694800D02*
X7602100D01*
Y3785200D01*
X7694800D01*
Y3877900D01*
D02*
G37*
G36*
X8602800Y3872900D02*
X8602282D01*
X8576747Y3866058D01*
X8553853Y3852840D01*
X8535160Y3834147D01*
X8521942Y3811253D01*
X8515100Y3785718D01*
Y3785200D01*
X8602800D01*
Y3872900D01*
D02*
G37*
G36*
X6845931Y4010000D02*
X6809069D01*
X6773462Y4000459D01*
X6741538Y3982028D01*
X6715472Y3955962D01*
X6697041Y3924038D01*
X6687500Y3888431D01*
Y3851569D01*
X6697041Y3815962D01*
X6715472Y3784038D01*
X6741538Y3757972D01*
X6773462Y3739541D01*
X6809069Y3730000D01*
X6845931D01*
X6881538Y3739541D01*
X6913462Y3757972D01*
X6939528Y3784038D01*
X6957959Y3815962D01*
X6967500Y3851569D01*
Y3888431D01*
X6957959Y3924038D01*
X6939528Y3955962D01*
X6913462Y3982028D01*
X6881538Y4000459D01*
X6845931Y4010000D01*
D02*
G37*
G36*
X7925940Y3800000D02*
X7904060D01*
X7883845Y3791626D01*
X7868373Y3776155D01*
X7860000Y3755940D01*
Y3734060D01*
X7868373Y3713845D01*
X7883845Y3698373D01*
X7904060Y3690000D01*
X7925940D01*
X7946155Y3698373D01*
X7961626Y3713845D01*
X7970000Y3734060D01*
Y3755940D01*
X7961626Y3776155D01*
X7946155Y3791626D01*
X7925940Y3800000D01*
D02*
G37*
G36*
X8374007Y3867500D02*
X8348993D01*
X8324831Y3861026D01*
X8303169Y3848519D01*
X8285481Y3830831D01*
X8272974Y3809168D01*
X8266500Y3785007D01*
Y3759993D01*
X8272974Y3735831D01*
X8285481Y3714169D01*
X8303169Y3696481D01*
X8324831Y3683974D01*
X8348993Y3677500D01*
X8374007D01*
X8398168Y3683974D01*
X8419831Y3696481D01*
X8437519Y3714169D01*
X8450026Y3735831D01*
X8456500Y3759993D01*
Y3785007D01*
X8450026Y3809168D01*
X8437519Y3830831D01*
X8419831Y3848519D01*
X8398168Y3861026D01*
X8374007Y3867500D01*
D02*
G37*
G36*
X8165940Y3977500D02*
X8144060D01*
X8123845Y3969126D01*
X8108373Y3953655D01*
X8100000Y3933440D01*
Y3911560D01*
X8108373Y3891345D01*
X8116219Y3883500D01*
X8109591Y3867500D01*
X8094993D01*
X8070831Y3861026D01*
X8049169Y3848519D01*
X8031481Y3830831D01*
X8018974Y3809168D01*
X8012500Y3785007D01*
Y3759993D01*
X8018974Y3735831D01*
X8031481Y3714169D01*
X8049169Y3696481D01*
X8070831Y3683974D01*
X8094993Y3677500D01*
X8120007D01*
X8144168Y3683974D01*
X8165831Y3696481D01*
X8183519Y3714169D01*
X8196026Y3735831D01*
X8202500Y3759993D01*
Y3785007D01*
X8196026Y3809168D01*
X8183519Y3830831D01*
X8165831Y3848519D01*
X8160667Y3851500D01*
X8164954Y3867500D01*
X8165940D01*
X8186155Y3875873D01*
X8201626Y3891345D01*
X8210000Y3911560D01*
Y3933440D01*
X8201626Y3953655D01*
X8186155Y3969126D01*
X8165940Y3977500D01*
D02*
G37*
G36*
X7420665Y3872500D02*
X7394335D01*
X7368902Y3865685D01*
X7346099Y3852520D01*
X7327480Y3833901D01*
X7314315Y3811098D01*
X7307500Y3785665D01*
Y3759335D01*
X7314315Y3733902D01*
X7327480Y3711099D01*
X7346099Y3692480D01*
X7368902Y3679315D01*
X7394335Y3672500D01*
X7420665D01*
X7446098Y3679315D01*
X7468901Y3692480D01*
X7487520Y3711099D01*
X7500685Y3733902D01*
X7507500Y3759335D01*
Y3785665D01*
X7500685Y3811098D01*
X7487520Y3833901D01*
X7468901Y3852520D01*
X7446098Y3865685D01*
X7420665Y3872500D01*
D02*
G37*
G36*
X8602800Y3759800D02*
X8515100D01*
Y3759282D01*
X8521942Y3733747D01*
X8535160Y3710853D01*
X8553853Y3692160D01*
X8576747Y3678942D01*
X8602282Y3672100D01*
X8602800D01*
Y3759800D01*
D02*
G37*
G36*
X7812900Y3759800D02*
X7720200D01*
Y3667100D01*
X7812900D01*
Y3759800D01*
D02*
G37*
G36*
X7694800D02*
X7602100D01*
Y3667100D01*
X7694800D01*
Y3759800D01*
D02*
G37*
G36*
X9440940Y4460000D02*
X9419060D01*
X9398845Y4451627D01*
X9383373Y4436155D01*
X9375000Y4415940D01*
Y4394060D01*
X9383373Y4373845D01*
X9398845Y4358374D01*
X9419060Y4350000D01*
X9440940D01*
X9461155Y4358374D01*
X9476626Y4373845D01*
X9485000Y4394060D01*
Y4415940D01*
X9476626Y4436155D01*
X9461155Y4451627D01*
X9440940Y4460000D01*
D02*
G37*
%LPD*%
D34*
X9253807Y6956151D02*
X9312500Y6897458D01*
Y6653500D02*
Y6897458D01*
D35*
X7680000Y5535000D02*
Y5700000D01*
X6967500Y4164500D02*
Y4822500D01*
X7680000Y5535000D01*
X6967500Y4164500D02*
X7107500Y4024500D01*
X8500000Y5832500D02*
Y5987500D01*
Y5832500D02*
X8660000Y5672500D01*
X8092500Y5987500D02*
X8500000D01*
X8750000Y5672500D02*
X9210000D01*
X8660000D02*
X8750000D01*
X9210000D02*
X9317500Y5565000D01*
X8500000Y5987500D02*
Y6185000D01*
X8675000Y6360000D01*
X9265000Y4120000D02*
Y5512500D01*
X9317500Y5565000D01*
X9570000D01*
X9265000Y4120000D02*
X9480000Y3905000D01*
X10053000D01*
X10185500Y3772500D01*
D38*
X10480000Y6207500D02*
D03*
Y6707500D02*
D03*
D39*
X10742500Y4037500D02*
D03*
X10742500Y4952500D02*
D03*
X7107500Y4278500D02*
D03*
X8869500Y3772500D02*
D03*
X10742500Y4237500D02*
D03*
Y4437500D02*
D03*
X10942500D02*
D03*
Y4237500D02*
D03*
Y4037500D02*
D03*
X10742500Y5152500D02*
D03*
Y5352500D02*
D03*
X10942500D02*
D03*
Y5152500D02*
D03*
Y4952500D02*
D03*
X7107500Y4532500D02*
D03*
Y4024500D02*
D03*
X8615500Y3772500D02*
D03*
X8361500D02*
D03*
X8107500D02*
D03*
D40*
X7205000Y6712500D02*
D03*
Y6577500D02*
D03*
X7800000Y6712500D02*
D03*
Y6577500D02*
D03*
X7460000D02*
D03*
X7545000Y6712500D02*
D03*
Y6577500D02*
D03*
X7460000Y6712500D02*
D03*
X7290000Y6577500D02*
D03*
X7375000D02*
D03*
X7630000D02*
D03*
X7715000D02*
D03*
Y6712500D02*
D03*
X7630000D02*
D03*
X7375000D02*
D03*
X7290000D02*
D03*
D41*
X7035000Y5610500D02*
D03*
X8331500Y6907500D02*
D03*
X9439500D02*
D03*
X7035000Y5102500D02*
D03*
X9312500Y6653500D02*
D03*
X8204500D02*
D03*
X6781000Y5737500D02*
D03*
Y5483500D02*
D03*
X7035000Y5356500D02*
D03*
X6781000Y5229500D02*
D03*
X9947500Y6907500D02*
D03*
X9820500Y6653500D02*
D03*
X9693500Y6907500D02*
D03*
X9566500Y6653500D02*
D03*
X8458500D02*
D03*
X8585500Y6907500D02*
D03*
X8712500Y6653500D02*
D03*
X8839500Y6907500D02*
D03*
D42*
X7707500Y4788500D02*
D03*
Y4280500D02*
D03*
Y4026500D02*
D03*
Y4534500D02*
D03*
X7407500Y4280500D02*
D03*
Y4534500D02*
D03*
Y4026500D02*
D03*
Y3772500D02*
D03*
D43*
X9423500D02*
D03*
X9931500D02*
D03*
X9677500D02*
D03*
D44*
X7070000Y6675500D02*
D03*
X7935000D02*
D03*
D45*
X7070000Y7013500D02*
D03*
X7935000D02*
D03*
D46*
X10185500Y3772500D02*
D03*
D47*
X7707500D02*
D03*
X7407500Y4788500D02*
D03*
D48*
X8436452Y5753679D02*
D03*
X8957500Y5257500D02*
D03*
X9090000Y5050000D02*
D03*
X9107500Y4960001D02*
D03*
X7190000Y5232500D02*
D03*
X8330000Y5522500D02*
D03*
X7612500Y7160000D02*
D03*
X7260000D02*
D03*
X6645000Y6555000D02*
D03*
Y6192500D02*
D03*
Y5760000D02*
D03*
X6640000Y5067500D02*
D03*
X7167500Y4887500D02*
D03*
X7422500Y4992500D02*
D03*
X7805000Y5252500D02*
D03*
X7922500Y5780000D02*
D03*
X7410000Y5935000D02*
D03*
X7212500Y5512500D02*
D03*
X7180000Y5697500D02*
D03*
Y5797500D02*
D03*
Y5897500D02*
D03*
Y5997500D02*
D03*
Y5597500D02*
D03*
X7215000Y6175000D02*
D03*
X7160000Y6312500D02*
D03*
X7550000Y6147500D02*
D03*
X7635000Y6235000D02*
D03*
X7620000Y6447500D02*
D03*
X8287500Y5307500D02*
D03*
X11099997Y7049998D02*
D03*
Y6749998D02*
D03*
Y6449998D02*
D03*
Y6149998D02*
D03*
Y4649999D02*
D03*
X11024996Y6899998D02*
D03*
Y6599998D02*
D03*
X10949997Y6449998D02*
D03*
Y6149998D02*
D03*
X11024996Y5999998D02*
D03*
X10799997Y7049998D02*
D03*
X10874997Y6899998D02*
D03*
X10799997Y6749998D02*
D03*
X10874997Y6599998D02*
D03*
X10799997Y6449998D02*
D03*
X10874997Y6299998D02*
D03*
X10799997Y6149998D02*
D03*
X10874997Y5999998D02*
D03*
X10649997Y7049998D02*
D03*
X10724997Y6899998D02*
D03*
Y6599998D02*
D03*
Y5699998D02*
D03*
X10499997Y7049998D02*
D03*
X10574997Y6899998D02*
D03*
Y5699998D02*
D03*
X10349997Y7049998D02*
D03*
X10199997D02*
D03*
X10274997Y6899998D02*
D03*
Y6599998D02*
D03*
X10199997Y6449998D02*
D03*
X10049997Y7049998D02*
D03*
Y6449998D02*
D03*
X8750000Y5672500D02*
D03*
X8660000D02*
D03*
X6892500Y6217500D02*
D03*
X8675000Y6360000D02*
D03*
X7937500Y5652500D02*
D03*
X8092500Y5987500D02*
D03*
X7680000Y5700000D02*
D03*
X7982500Y5087500D02*
D03*
X10175000Y5872500D02*
D03*
X9167500Y4462500D02*
D03*
X8567918Y4192705D02*
D03*
X9480000Y4327500D02*
D03*
X6640000Y4700000D02*
D03*
X8155000Y3922500D02*
D03*
X8205000Y4965000D02*
D03*
X8145000Y6410000D02*
D03*
X9797500Y4295000D02*
D03*
X9897500D02*
D03*
X9792500Y5032500D02*
D03*
Y4932500D02*
D03*
X9892500D02*
D03*
Y5032500D02*
D03*
X9840000Y6310000D02*
D03*
Y6427500D02*
D03*
X9897500Y4195000D02*
D03*
X9797500D02*
D03*
X10385000Y5305000D02*
D03*
X10175000Y5472500D02*
D03*
Y5757500D02*
D03*
Y5615000D02*
D03*
X10555000Y4450000D02*
D03*
X10552500Y4547500D02*
D03*
X10595000Y4030000D02*
D03*
X10512500Y4095000D02*
D03*
X10600000Y4947500D02*
D03*
X10585000Y5305000D02*
D03*
X7342500Y6890000D02*
D03*
X6640000Y3665000D02*
D03*
Y4145000D02*
D03*
Y4452500D02*
D03*
X8795000Y5030000D02*
D03*
X7862500Y4355000D02*
D03*
X7915000Y3745000D02*
D03*
X6917500Y3665000D02*
D03*
X9242500Y4017500D02*
D03*
X10675000Y3662500D02*
D03*
X11127500Y3685000D02*
D03*
X11132287Y4466241D02*
D03*
X11120000Y5057500D02*
D03*
X11121222Y5757982D02*
D03*
X9335000Y6195000D02*
D03*
X9116500Y6500000D02*
D03*
X8717332Y6451571D02*
D03*
X9185000Y6357500D02*
D03*
X9460000Y5715000D02*
D03*
X10222500Y4472500D02*
D03*
X9467500Y4565000D02*
D03*
X10287500Y5242500D02*
D03*
X9450000Y4660000D02*
D03*
X8797500Y4805000D02*
D03*
X8717500Y4732500D02*
D03*
X9107500Y5297500D02*
D03*
X8855000Y4412500D02*
D03*
X8845000Y4270000D02*
D03*
X8965000Y4387500D02*
D03*
X8797500Y4492500D02*
D03*
X8720000Y4980000D02*
D03*
X8667500Y4525000D02*
D03*
X8575000Y4512500D02*
D03*
X8507500Y4447500D02*
D03*
X8422500Y4637500D02*
D03*
X8477500Y4710000D02*
D03*
X8272500Y4505000D02*
D03*
X8200000Y4447500D02*
D03*
X8202088Y4642500D02*
D03*
X8755000Y4650000D02*
D03*
X8847500Y4035000D02*
D03*
X9157500Y5455000D02*
D03*
X8522500Y4800000D02*
D03*
X9582500Y5875000D02*
D03*
X9427500Y5475000D02*
D03*
X9442500Y5225000D02*
D03*
X9430000Y5317500D02*
D03*
X10005000Y5330000D02*
D03*
X9905000D02*
D03*
X10102983Y4810235D02*
D03*
X10005000Y4810000D02*
D03*
X10005000Y4580000D02*
D03*
X10105000D02*
D03*
X9447500Y5130000D02*
D03*
X9385000Y6550000D02*
D03*
X9253807Y6956151D02*
D03*
X9350000Y4185000D02*
D03*
X7172850Y4667728D02*
D03*
X7950000Y4595000D02*
D03*
Y4685000D02*
D03*
X10441859Y5131839D02*
D03*
X10463955Y4333228D02*
D03*
X10595000Y4260000D02*
D03*
X10597500Y5152500D02*
D03*
X9570000Y5565000D02*
D03*
X9555000Y5680000D02*
D03*
X9085000Y4097500D02*
D03*
X9057500Y3795000D02*
D03*
X9910000Y6162500D02*
D03*
X9810000D02*
D03*
X9910000Y6065000D02*
D03*
X9810000D02*
D03*
X10010000D02*
D03*
X10110000D02*
D03*
X10010000Y6162500D02*
D03*
X10110000D02*
D03*
X9805000Y4810000D02*
D03*
X9902983Y4810235D02*
D03*
X9705000Y4580000D02*
D03*
X9805000D02*
D03*
X9905000D02*
D03*
X9450000Y4800000D02*
D03*
X9430000Y4405000D02*
D03*
X9447500Y4897500D02*
D03*
X9442500Y5040000D02*
D03*
X10287500Y4150000D02*
D03*
X10250000Y4235000D02*
D03*
X10300000Y4920000D02*
D03*
X10217500Y4997500D02*
D03*
X9705000Y4810000D02*
D03*
X10105000Y5330000D02*
D03*
X9805000D02*
D03*
X9705000Y4060000D02*
D03*
X9805000D02*
D03*
X10005000D02*
D03*
X10105000D02*
D03*
X9905000D02*
D03*
X7687500Y5062500D02*
D03*
X8035000Y4045000D02*
D03*
%TF.MD5,1d7f8ecb4d171733e9871fe8f9447d1a*%
M02*
