%TF.GenerationSoftware,Altium Limited,Altium Designer,26.2.0 (7)*%
G04 Layer_Color=128*
%FSLAX45Y45*%
%MOMM*%
%TF.SameCoordinates,00FDB721-44CF-4368-98B2-66699BB62886*%
%TF.FilePolarity,Positive*%
%TF.FileFunction,Drillmap*%
%TF.Part,Single*%
G01*
G75*
%TA.AperFunction,NonConductor*%
%ADD58C,0.12700*%
D58*
X10380000Y6207500D02*
X10580000D01*
X10480000Y6107500D02*
Y6307500D01*
X10380000Y6707500D02*
X10580000D01*
X10480000Y6607500D02*
Y6807500D01*
X10692500Y4037500D02*
X10792500D01*
X10742500Y3987500D02*
Y4087500D01*
X10692500Y4952500D02*
X10792500D01*
X10742500Y4902500D02*
Y5002500D01*
X7052500Y4278500D02*
X7162500D01*
X7107500Y4223500D02*
Y4333500D01*
X8814500Y3772500D02*
X8924500D01*
X8869500Y3717500D02*
Y3827500D01*
X7185000Y6712500D02*
X7225000D01*
X7205000Y6692500D02*
Y6732500D01*
X7185000Y6577500D02*
X7225000D01*
X7205000Y6557500D02*
Y6597500D01*
X7780000Y6712500D02*
X7820000D01*
X7800000Y6692500D02*
Y6732500D01*
X6990000Y5610500D02*
X7080000D01*
X7035000Y5565500D02*
Y5655500D01*
X7780000Y6577500D02*
X7820000D01*
X7800000Y6557500D02*
Y6597500D01*
X8286500Y6907500D02*
X8376500D01*
X8331500Y6862500D02*
Y6952500D01*
X9394500Y6907500D02*
X9484500D01*
X9439500Y6862500D02*
Y6952500D01*
X7652500Y4788500D02*
X7762500D01*
X7707500Y4733500D02*
Y4843500D01*
X9372500Y3772500D02*
X9474500D01*
X9423500Y3721500D02*
Y3823500D01*
X7440000Y6577500D02*
X7480000D01*
X7460000Y6557500D02*
Y6597500D01*
X7525000Y6712500D02*
X7565000D01*
X7545000Y6692500D02*
Y6732500D01*
X7525000Y6577500D02*
X7565000D01*
X7545000Y6557500D02*
Y6597500D01*
X7440000Y6712500D02*
X7480000D01*
X7460000Y6692500D02*
Y6732500D01*
X7270000Y6577500D02*
X7310000D01*
X7290000Y6557500D02*
Y6597500D01*
X7355000Y6577500D02*
X7395000D01*
X7375000Y6557500D02*
Y6597500D01*
X7610001Y6577500D02*
X7650000D01*
X7630000Y6557500D02*
Y6597500D01*
X7695000Y6577500D02*
X7735000D01*
X7715000Y6557500D02*
Y6597500D01*
X7695000Y6712500D02*
X7735000D01*
X7715000Y6692500D02*
Y6732500D01*
X7610001Y6712500D02*
X7650000D01*
X7630000Y6692500D02*
Y6732500D01*
X7355000Y6712500D02*
X7395000D01*
X7375000Y6692500D02*
Y6732500D01*
X7270000Y6712500D02*
X7310000D01*
X7290000Y6692500D02*
Y6732500D01*
X6965000Y6675500D02*
X7175000D01*
X7070000Y6570500D02*
Y6780500D01*
X7830000Y6675500D02*
X8040000D01*
X7935000Y6570500D02*
Y6780500D01*
X7000000Y7013500D02*
X7140000D01*
X7070000Y6943500D02*
Y7083500D01*
X7865001Y7013500D02*
X8005000D01*
X7935000Y6943500D02*
Y7083500D01*
X10134500Y3772500D02*
X10236500D01*
X10185500Y3721500D02*
Y3823500D01*
X9880500Y3772500D02*
X9982500D01*
X9931500Y3721500D02*
Y3823500D01*
X9626500Y3772500D02*
X9728500D01*
X9677500Y3721500D02*
Y3823500D01*
X10692500Y4237500D02*
X10792500D01*
X10742500Y4187500D02*
Y4287500D01*
X10692500Y4437500D02*
X10792500D01*
X10742500Y4387500D02*
Y4487500D01*
X10892500Y4437500D02*
X10992500D01*
X10942500Y4387500D02*
Y4487500D01*
X10892500Y4237500D02*
X10992500D01*
X10942500Y4187500D02*
Y4287500D01*
X10892500Y4037500D02*
X10992500D01*
X10942500Y3987500D02*
Y4087500D01*
X10692500Y5152500D02*
X10792500D01*
X10742500Y5102500D02*
Y5202500D01*
X10692500Y5352500D02*
X10792500D01*
X10742500Y5302500D02*
Y5402500D01*
X10892500Y5352500D02*
X10992500D01*
X10942500Y5302500D02*
Y5402500D01*
X10892500Y5152500D02*
X10992500D01*
X10942500Y5102500D02*
Y5202500D01*
X10892500Y4952500D02*
X10992500D01*
X10942500Y4902500D02*
Y5002500D01*
X7052500Y4532500D02*
X7162500D01*
X7107500Y4477500D02*
Y4587500D01*
X7052500Y4024500D02*
X7162500D01*
X7107500Y3969500D02*
Y4079500D01*
X7652500Y4280500D02*
X7762500D01*
X7707500Y4225500D02*
Y4335500D01*
X7652500Y3772500D02*
X7762500D01*
X7707500Y3717500D02*
Y3827500D01*
X7652500Y4026500D02*
X7762500D01*
X7707500Y3971500D02*
Y4081500D01*
X7652500Y4534500D02*
X7762500D01*
X7707500Y4479500D02*
Y4589500D01*
X7352500Y4280500D02*
X7462500D01*
X7407500Y4225500D02*
Y4335500D01*
X7352500Y4788500D02*
X7462500D01*
X7407500Y4733500D02*
Y4843500D01*
X7352500Y4534500D02*
X7462500D01*
X7407500Y4479500D02*
Y4589500D01*
X7352500Y4026500D02*
X7462500D01*
X7407500Y3971500D02*
Y4081500D01*
X7352500Y3772500D02*
X7462500D01*
X7407500Y3717500D02*
Y3827500D01*
X6990000Y5102500D02*
X7080000D01*
X7035000Y5057500D02*
Y5147500D01*
X9267500Y6653500D02*
X9357500D01*
X9312500Y6608500D02*
Y6698500D01*
X8159500Y6653500D02*
X8249500D01*
X8204500Y6608500D02*
Y6698500D01*
X6736000Y5737500D02*
X6826000D01*
X6781000Y5692500D02*
Y5782500D01*
X8560500Y3772500D02*
X8670500D01*
X8615500Y3717500D02*
Y3827500D01*
X6707500Y3870000D02*
X6947500D01*
X6827500Y3750000D02*
Y3990000D01*
X6736000Y5483500D02*
X6826000D01*
X6781000Y5438500D02*
Y5528500D01*
X6990000Y5356500D02*
X7080000D01*
X7035000Y5311500D02*
Y5401500D01*
X6736000Y5229500D02*
X6826000D01*
X6781000Y5184500D02*
Y5274500D01*
X6795000Y4962500D02*
X6915000D01*
X6855000Y4902500D02*
Y5022500D01*
X10027500Y6727500D02*
X10147500D01*
X10087500Y6667500D02*
Y6787500D01*
X9902500Y6907500D02*
X9992500D01*
X9947500Y6862500D02*
Y6952500D01*
X9775500Y6653500D02*
X9865500D01*
X9820500Y6608500D02*
Y6698500D01*
X9648500Y6907500D02*
X9738500D01*
X9693500Y6862500D02*
Y6952500D01*
X9521500Y6653500D02*
X9611500D01*
X9566500Y6608500D02*
Y6698500D01*
X8413500Y6653500D02*
X8503500D01*
X8458500Y6608500D02*
Y6698500D01*
X8540500Y6907500D02*
X8630500D01*
X8585500Y6862500D02*
Y6952500D01*
X8667500Y6653500D02*
X8757500D01*
X8712500Y6608500D02*
Y6698500D01*
X8794500Y6907500D02*
X8884500D01*
X8839500Y6862500D02*
Y6952500D01*
X8919500Y6727500D02*
X9039500D01*
X8979500Y6667500D02*
Y6787500D01*
X8306500Y3772500D02*
X8416500D01*
X8361500Y3717500D02*
Y3827500D01*
X8052500Y3772500D02*
X8162500D01*
X8107500Y3717500D02*
Y3827500D01*
X8416452Y5753679D02*
X8456452D01*
X8436452Y5733679D02*
Y5773679D01*
X8937500Y5257500D02*
X8977500D01*
X8957500Y5237500D02*
Y5277500D01*
X9070000Y5050000D02*
X9110000D01*
X9090000Y5030000D02*
Y5070000D01*
X9087500Y4960001D02*
X9127500D01*
X9107500Y4940001D02*
Y4980001D01*
X7170000Y5232500D02*
X7210000D01*
X7190000Y5212500D02*
Y5252500D01*
X8310000Y5522500D02*
X8350000D01*
X8330000Y5502500D02*
Y5542500D01*
X7592500Y7160000D02*
X7632500D01*
X7612500Y7140000D02*
Y7180000D01*
X7240000Y7160000D02*
X7280000D01*
X7260000Y7140000D02*
Y7180000D01*
X6625000Y6555000D02*
X6665000D01*
X6645000Y6535000D02*
Y6575000D01*
X6625000Y6192500D02*
X6665000D01*
X6645000Y6172500D02*
Y6212500D01*
X6625000Y5760000D02*
X6665000D01*
X6645000Y5740000D02*
Y5780000D01*
X6620000Y5067500D02*
X6660000D01*
X6640000Y5047500D02*
Y5087500D01*
X7147500Y4887500D02*
X7187500D01*
X7167500Y4867500D02*
Y4907500D01*
X7402500Y4992500D02*
X7442500D01*
X7422500Y4972500D02*
Y5012500D01*
X7785000Y5252500D02*
X7825000D01*
X7805000Y5232500D02*
Y5272500D01*
X7902500Y5780000D02*
X7942500D01*
X7922500Y5760000D02*
Y5800000D01*
X7390000Y5935000D02*
X7430000D01*
X7410000Y5915000D02*
Y5955000D01*
X7192500Y5512500D02*
X7232500D01*
X7212500Y5492500D02*
Y5532500D01*
X7160000Y5697500D02*
X7200000D01*
X7180000Y5677500D02*
Y5717500D01*
X7160000Y5797500D02*
X7200000D01*
X7180000Y5777500D02*
Y5817500D01*
X7160000Y5897500D02*
X7200000D01*
X7180000Y5877500D02*
Y5917500D01*
X7160000Y5997500D02*
X7200000D01*
X7180000Y5977500D02*
Y6017500D01*
X7160000Y5597500D02*
X7200000D01*
X7180000Y5577500D02*
Y5617500D01*
X7195000Y6175000D02*
X7235000D01*
X7215000Y6155000D02*
Y6195000D01*
X7140000Y6312500D02*
X7180000D01*
X7160000Y6292500D02*
Y6332500D01*
X7530000Y6147500D02*
X7570000D01*
X7550000Y6127500D02*
Y6167500D01*
X7615000Y6235000D02*
X7655000D01*
X7635000Y6215000D02*
Y6255000D01*
X7600000Y6447500D02*
X7640000D01*
X7620000Y6427500D02*
Y6467500D01*
X8267500Y5307500D02*
X8307500D01*
X8287500Y5287500D02*
Y5327500D01*
X11079997Y7049998D02*
X11119997D01*
X11099997Y7029998D02*
Y7069998D01*
X11079997Y6749998D02*
X11119997D01*
X11099997Y6729998D02*
Y6769998D01*
X11079997Y6449998D02*
X11119997D01*
X11099997Y6429998D02*
Y6469998D01*
X11079997Y6149998D02*
X11119997D01*
X11099997Y6129998D02*
Y6169998D01*
X11079997Y4649999D02*
X11119997D01*
X11099997Y4629999D02*
Y4669999D01*
X11004997Y6899998D02*
X11044996D01*
X11024996Y6879998D02*
Y6919998D01*
X11004997Y6599998D02*
X11044996D01*
X11024996Y6579998D02*
Y6619998D01*
X10929997Y6449998D02*
X10969997D01*
X10949997Y6429998D02*
Y6469998D01*
X10929997Y6149998D02*
X10969997D01*
X10949997Y6129998D02*
Y6169998D01*
X11004997Y5999998D02*
X11044996D01*
X11024996Y5979998D02*
Y6019998D01*
X10779997Y7049998D02*
X10819997D01*
X10799997Y7029998D02*
Y7069998D01*
X10854997Y6899998D02*
X10894996D01*
X10874997Y6879998D02*
Y6919998D01*
X10779997Y6749998D02*
X10819997D01*
X10799997Y6729998D02*
Y6769998D01*
X10854997Y6599998D02*
X10894996D01*
X10874997Y6579998D02*
Y6619998D01*
X10779997Y6449998D02*
X10819997D01*
X10799997Y6429998D02*
Y6469998D01*
X10854997Y6299998D02*
X10894996D01*
X10874997Y6279998D02*
Y6319998D01*
X10779997Y6149998D02*
X10819997D01*
X10799997Y6129998D02*
Y6169998D01*
X10854997Y5999998D02*
X10894996D01*
X10874997Y5979998D02*
Y6019998D01*
X10629997Y7049998D02*
X10669997D01*
X10649997Y7029998D02*
Y7069998D01*
X10704997Y6899998D02*
X10744997D01*
X10724997Y6879998D02*
Y6919998D01*
X10704997Y6599998D02*
X10744997D01*
X10724997Y6579998D02*
Y6619998D01*
X10704997Y5699998D02*
X10744997D01*
X10724997Y5679998D02*
Y5719998D01*
X10479997Y7049998D02*
X10519997D01*
X10499997Y7029998D02*
Y7069998D01*
X10554997Y6899998D02*
X10594997D01*
X10574997Y6879998D02*
Y6919998D01*
X10554997Y5699998D02*
X10594997D01*
X10574997Y5679998D02*
Y5719998D01*
X10329997Y7049998D02*
X10369997D01*
X10349997Y7029998D02*
Y7069998D01*
X10179997Y7049998D02*
X10219997D01*
X10199997Y7029998D02*
Y7069998D01*
X10254997Y6899998D02*
X10294997D01*
X10274997Y6879998D02*
Y6919998D01*
X10254997Y6599998D02*
X10294997D01*
X10274997Y6579998D02*
Y6619998D01*
X10179997Y6449998D02*
X10219997D01*
X10199997Y6429998D02*
Y6469998D01*
X10029997Y7049998D02*
X10069997D01*
X10049997Y7029998D02*
Y7069998D01*
X10029997Y6449998D02*
X10069997D01*
X10049997Y6429998D02*
Y6469998D01*
X8730000Y5672500D02*
X8770000D01*
X8750000Y5652500D02*
Y5692500D01*
X8640000Y5672500D02*
X8680000D01*
X8660000Y5652500D02*
Y5692500D01*
X6872500Y6217500D02*
X6912500D01*
X6892500Y6197500D02*
Y6237500D01*
X8655000Y6360000D02*
X8695000D01*
X8675000Y6340000D02*
Y6380000D01*
X7917500Y5652500D02*
X7957500D01*
X7937500Y5632500D02*
Y5672500D01*
X8072500Y5987500D02*
X8112500D01*
X8092500Y5967500D02*
Y6007500D01*
X7660000Y5700000D02*
X7700000D01*
X7680000Y5680000D02*
Y5720000D01*
X7962500Y5087500D02*
X8002500D01*
X7982500Y5067500D02*
Y5107500D01*
X10155000Y5872500D02*
X10195000D01*
X10175000Y5852500D02*
Y5892500D01*
X9147500Y4462500D02*
X9187500D01*
X9167500Y4442500D02*
Y4482500D01*
X8547918Y4192705D02*
X8587918D01*
X8567918Y4172705D02*
Y4212705D01*
X9460000Y4327500D02*
X9500000D01*
X9480000Y4307500D02*
Y4347500D01*
X6620000Y4700000D02*
X6660000D01*
X6640000Y4680000D02*
Y4720000D01*
X8135000Y3922500D02*
X8175000D01*
X8155000Y3902500D02*
Y3942500D01*
X8185000Y4965000D02*
X8225000D01*
X8205000Y4945000D02*
Y4985000D01*
X8125000Y6410000D02*
X8165000D01*
X8145000Y6390000D02*
Y6430000D01*
X9777500Y4295000D02*
X9817500D01*
X9797500Y4275000D02*
Y4315000D01*
X9877500Y4295000D02*
X9917500D01*
X9897500Y4275000D02*
Y4315000D01*
X9772500Y5032500D02*
X9812500D01*
X9792500Y5012500D02*
Y5052500D01*
X9772500Y4932500D02*
X9812500D01*
X9792500Y4912500D02*
Y4952500D01*
X9872500Y4932500D02*
X9912500D01*
X9892500Y4912500D02*
Y4952500D01*
X9872500Y5032500D02*
X9912500D01*
X9892500Y5012500D02*
Y5052500D01*
X9820000Y6310000D02*
X9860000D01*
X9840000Y6290000D02*
Y6330000D01*
X9820000Y6427500D02*
X9860000D01*
X9840000Y6407500D02*
Y6447500D01*
X9877500Y4195000D02*
X9917500D01*
X9897500Y4175000D02*
Y4215000D01*
X9777500Y4195000D02*
X9817500D01*
X9797500Y4175000D02*
Y4215000D01*
X10365000Y5305000D02*
X10405000D01*
X10385000Y5285000D02*
Y5325000D01*
X10155000Y5472500D02*
X10195000D01*
X10175000Y5452500D02*
Y5492500D01*
X10155000Y5757500D02*
X10195000D01*
X10175000Y5737500D02*
Y5777500D01*
X10155000Y5615000D02*
X10195000D01*
X10175000Y5595000D02*
Y5635000D01*
X10535000Y4450000D02*
X10575000D01*
X10555000Y4430000D02*
Y4470000D01*
X10532500Y4547500D02*
X10572500D01*
X10552500Y4527500D02*
Y4567500D01*
X10575000Y4030000D02*
X10615000D01*
X10595000Y4010000D02*
Y4050000D01*
X10492500Y4095000D02*
X10532500D01*
X10512500Y4075000D02*
Y4115000D01*
X10580000Y4947500D02*
X10620000D01*
X10600000Y4927500D02*
Y4967500D01*
X10565000Y5305000D02*
X10605000D01*
X10585000Y5285000D02*
Y5325000D01*
X7322500Y6890000D02*
X7362500D01*
X7342500Y6870000D02*
Y6910000D01*
X6620000Y3665000D02*
X6660000D01*
X6640000Y3645000D02*
Y3685000D01*
X6620000Y4145000D02*
X6660000D01*
X6640000Y4125000D02*
Y4165000D01*
X6620000Y4452500D02*
X6660000D01*
X6640000Y4432500D02*
Y4472500D01*
X8775000Y5030000D02*
X8815000D01*
X8795000Y5010000D02*
Y5050000D01*
X7842500Y4355000D02*
X7882500D01*
X7862500Y4335000D02*
Y4375000D01*
X7895000Y3745000D02*
X7935000D01*
X7915000Y3725000D02*
Y3765000D01*
X6897500Y3665000D02*
X6937500D01*
X6917500Y3645000D02*
Y3685000D01*
X9222500Y4017500D02*
X9262500D01*
X9242500Y3997500D02*
Y4037500D01*
X10655000Y3662500D02*
X10695000D01*
X10675000Y3642500D02*
Y3682500D01*
X11107500Y3685000D02*
X11147500D01*
X11127500Y3665000D02*
Y3705000D01*
X11112287Y4466241D02*
X11152287D01*
X11132287Y4446241D02*
Y4486241D01*
X11100000Y5057500D02*
X11140000D01*
X11120000Y5037500D02*
Y5077500D01*
X11101222Y5757982D02*
X11141222D01*
X11121222Y5737982D02*
Y5777982D01*
X9315000Y6195000D02*
X9355000D01*
X9335000Y6175000D02*
Y6215000D01*
X9096500Y6500000D02*
X9136500D01*
X9116500Y6480000D02*
Y6520000D01*
X8697332Y6451571D02*
X8737332D01*
X8717332Y6431571D02*
Y6471571D01*
X9165000Y6357500D02*
X9205000D01*
X9185000Y6337500D02*
Y6377500D01*
X9440000Y5715000D02*
X9480000D01*
X9460000Y5695000D02*
Y5735000D01*
X10202500Y4472500D02*
X10242500D01*
X10222500Y4452500D02*
Y4492500D01*
X9447500Y4565000D02*
X9487500D01*
X9467500Y4545000D02*
Y4585000D01*
X10267500Y5242500D02*
X10307500D01*
X10287500Y5222500D02*
Y5262500D01*
X9430000Y4660000D02*
X9470000D01*
X9450000Y4640000D02*
Y4680000D01*
X8777500Y4805000D02*
X8817500D01*
X8797500Y4785000D02*
Y4825000D01*
X8697500Y4732500D02*
X8737500D01*
X8717500Y4712500D02*
Y4752500D01*
X9087500Y5297500D02*
X9127500D01*
X9107500Y5277500D02*
Y5317500D01*
X8835000Y4412500D02*
X8875000D01*
X8855000Y4392500D02*
Y4432500D01*
X8825000Y4270000D02*
X8865000D01*
X8845000Y4250000D02*
Y4290000D01*
X8945000Y4387500D02*
X8985000D01*
X8965000Y4367500D02*
Y4407500D01*
X8777500Y4492500D02*
X8817500D01*
X8797500Y4472500D02*
Y4512500D01*
X8700000Y4980000D02*
X8740000D01*
X8720000Y4960000D02*
Y5000000D01*
X8647500Y4525000D02*
X8687500D01*
X8667500Y4505000D02*
Y4545000D01*
X8555000Y4512500D02*
X8595000D01*
X8575000Y4492500D02*
Y4532500D01*
X8487500Y4447500D02*
X8527500D01*
X8507500Y4427500D02*
Y4467500D01*
X8402500Y4637500D02*
X8442500D01*
X8422500Y4617500D02*
Y4657500D01*
X8457500Y4710000D02*
X8497500D01*
X8477500Y4690000D02*
Y4730000D01*
X8252500Y4505000D02*
X8292500D01*
X8272500Y4485000D02*
Y4525000D01*
X8180000Y4447500D02*
X8220000D01*
X8200000Y4427500D02*
Y4467500D01*
X8182088Y4642500D02*
X8222088D01*
X8202088Y4622500D02*
Y4662500D01*
X8735000Y4650000D02*
X8775000D01*
X8755000Y4630000D02*
Y4670000D01*
X8827500Y4035000D02*
X8867500D01*
X8847500Y4015000D02*
Y4055000D01*
X9137500Y5455000D02*
X9177500D01*
X9157500Y5435000D02*
Y5475000D01*
X8502500Y4800000D02*
X8542500D01*
X8522500Y4780000D02*
Y4820000D01*
X9562500Y5875000D02*
X9602500D01*
X9582500Y5855000D02*
Y5895000D01*
X9407500Y5475000D02*
X9447500D01*
X9427500Y5455000D02*
Y5495000D01*
X9422500Y5225000D02*
X9462500D01*
X9442500Y5205000D02*
Y5245000D01*
X9410000Y5317500D02*
X9450000D01*
X9430000Y5297500D02*
Y5337500D01*
X9985000Y5330000D02*
X10025000D01*
X10005000Y5310000D02*
Y5350000D01*
X9885000Y5330000D02*
X9925000D01*
X9905000Y5310000D02*
Y5350000D01*
X10082983Y4810235D02*
X10122983D01*
X10102983Y4790235D02*
Y4830235D01*
X9985000Y4810000D02*
X10025000D01*
X10005000Y4790000D02*
Y4830000D01*
X9985000Y4580000D02*
X10025000D01*
X10005000Y4560000D02*
Y4600000D01*
X10085000Y4580000D02*
X10125000D01*
X10105000Y4560000D02*
Y4600000D01*
X9427500Y5130000D02*
X9467500D01*
X9447500Y5110000D02*
Y5150000D01*
X9365000Y6550000D02*
X9405000D01*
X9385000Y6530000D02*
Y6570000D01*
X9233807Y6956151D02*
X9273807D01*
X9253807Y6936151D02*
Y6976151D01*
X9330000Y4185000D02*
X9370000D01*
X9350000Y4165000D02*
Y4205000D01*
X7152850Y4667728D02*
X7192850D01*
X7172850Y4647728D02*
Y4687728D01*
X7930000Y4595000D02*
X7970000D01*
X7950000Y4575000D02*
Y4615000D01*
X7930000Y4685000D02*
X7970000D01*
X7950000Y4665000D02*
Y4705000D01*
X10421859Y5131839D02*
X10461859D01*
X10441859Y5111839D02*
Y5151839D01*
X10443955Y4333228D02*
X10483955D01*
X10463955Y4313228D02*
Y4353228D01*
X10575000Y4260000D02*
X10615000D01*
X10595000Y4240000D02*
Y4280000D01*
X10577500Y5152500D02*
X10617500D01*
X10597500Y5132500D02*
Y5172500D01*
X9550000Y5565000D02*
X9590000D01*
X9570000Y5545000D02*
Y5585000D01*
X9535000Y5680000D02*
X9575000D01*
X9555000Y5660000D02*
Y5700000D01*
X9065000Y4097500D02*
X9105000D01*
X9085000Y4077500D02*
Y4117500D01*
X9037500Y3795000D02*
X9077500D01*
X9057500Y3775000D02*
Y3815000D01*
X9890000Y6162500D02*
X9930000D01*
X9910000Y6142500D02*
Y6182500D01*
X9790000Y6162500D02*
X9830000D01*
X9810000Y6142500D02*
Y6182500D01*
X9890000Y6065000D02*
X9930000D01*
X9910000Y6045000D02*
Y6085000D01*
X9790000Y6065000D02*
X9830000D01*
X9810000Y6045000D02*
Y6085000D01*
X9990000Y6065000D02*
X10030000D01*
X10010000Y6045000D02*
Y6085000D01*
X10090000Y6065000D02*
X10130000D01*
X10110000Y6045000D02*
Y6085000D01*
X9990000Y6162500D02*
X10030000D01*
X10010000Y6142500D02*
Y6182500D01*
X10090000Y6162500D02*
X10130000D01*
X10110000Y6142500D02*
Y6182500D01*
X9785000Y4810000D02*
X9825000D01*
X9805000Y4790000D02*
Y4830000D01*
X9882983Y4810235D02*
X9922983D01*
X9902983Y4790235D02*
Y4830235D01*
X9685000Y4580000D02*
X9725000D01*
X9705000Y4560000D02*
Y4600000D01*
X9785000Y4580000D02*
X9825000D01*
X9805000Y4560000D02*
Y4600000D01*
X9885000Y4580000D02*
X9925000D01*
X9905000Y4560000D02*
Y4600000D01*
X9430000Y4800000D02*
X9470000D01*
X9450000Y4780000D02*
Y4820000D01*
X9410000Y4405000D02*
X9450000D01*
X9430000Y4385000D02*
Y4425000D01*
X9427500Y4897500D02*
X9467500D01*
X9447500Y4877500D02*
Y4917500D01*
X9422500Y5040000D02*
X9462500D01*
X9442500Y5020000D02*
Y5060000D01*
X10267500Y4150000D02*
X10307500D01*
X10287500Y4130000D02*
Y4170000D01*
X10230000Y4235000D02*
X10270000D01*
X10250000Y4215000D02*
Y4255000D01*
X10280000Y4920000D02*
X10320000D01*
X10300000Y4900000D02*
Y4940000D01*
X10197500Y4997500D02*
X10237500D01*
X10217500Y4977500D02*
Y5017500D01*
X9685000Y4810000D02*
X9725000D01*
X9705000Y4790000D02*
Y4830000D01*
X10085000Y5330000D02*
X10125000D01*
X10105000Y5310000D02*
Y5350000D01*
X9785000Y5330000D02*
X9825000D01*
X9805000Y5310000D02*
Y5350000D01*
X9685000Y4060000D02*
X9725000D01*
X9705000Y4040000D02*
Y4080000D01*
X9785000Y4060000D02*
X9825000D01*
X9805000Y4040000D02*
Y4080000D01*
X9985000Y4060000D02*
X10025000D01*
X10005000Y4040000D02*
Y4080000D01*
X10085000Y4060000D02*
X10125000D01*
X10105000Y4040000D02*
Y4080000D01*
X9885000Y4060000D02*
X9925000D01*
X9905000Y4040000D02*
Y4080000D01*
X7667500Y5062500D02*
X7707500D01*
X7687500Y5042500D02*
Y5082500D01*
X8015000Y4045000D02*
X8055000D01*
X8035000Y4025000D02*
Y4065000D01*
%TF.MD5,935d724a93f3594df556639534f2d79e*%
M02*
