%TF.GenerationSoftware,Altium Limited,Altium Designer,26.2.0 (7)*%
G04 Layer_Color=2752767*
%FSLAX45Y45*%
%MOMM*%
%TF.SameCoordinates,00FDB721-44CF-4368-98B2-66699BB62886*%
%TF.FilePolarity,Positive*%
%TF.FileFunction,Drawing*%
%TF.Part,Single*%
G01*
G75*
%TA.AperFunction,NonConductor*%
%ADD58C,0.12700*%
%ADD104C,0.16933*%
%ADD105C,0.10160*%
D58*
X10429200Y6156700D02*
X10454600Y6207500D01*
X10429200Y6258300D01*
X10480000Y6232900D01*
X10530800Y6258300D01*
X10505400Y6207500D01*
X10530800Y6156700D01*
X10480000Y6182100D01*
X10429200Y6156700D01*
Y6656700D02*
X10454600Y6707500D01*
X10429200Y6758300D01*
X10480000Y6732900D01*
X10530800Y6758300D01*
X10505400Y6707500D01*
X10530800Y6656700D01*
X10480000Y6682100D01*
X10429200Y6656700D01*
X10742500Y3986700D02*
X10691700Y4088300D01*
X10793300D01*
X10742500Y3986700D01*
X10742500Y4901700D02*
X10691700Y5003300D01*
X10793300D01*
X10742500Y4901700D01*
X7107500Y4227700D02*
X7132900Y4253100D01*
X7158300D01*
X7132900Y4278500D01*
X7158300Y4303900D01*
X7132900D01*
X7107500Y4329300D01*
X7082100Y4303900D01*
X7056700D01*
X7082100Y4278500D01*
X7056700Y4253100D01*
X7082100D01*
X7107500Y4227700D01*
X8869500Y3721700D02*
X8894900Y3747100D01*
X8920300D01*
X8894900Y3772500D01*
X8920300Y3797900D01*
X8894900D01*
X8869500Y3823300D01*
X8844100Y3797900D01*
X8818700D01*
X8844100Y3772500D01*
X8818700Y3747100D01*
X8844100D01*
X8869500Y3721700D01*
X7154200Y6661700D02*
X7179600D01*
X7205000Y6687100D01*
X7230400Y6661700D01*
X7255800D01*
Y6687100D01*
X7230400Y6712500D01*
X7255800Y6737900D01*
Y6763300D01*
X7230400D01*
X7205000Y6737900D01*
X7179600Y6763300D01*
X7154200D01*
Y6737900D01*
X7179600Y6712500D01*
X7154200Y6687100D01*
Y6661700D01*
Y6526700D02*
X7179600D01*
X7205000Y6552100D01*
X7230400Y6526700D01*
X7255800D01*
Y6552100D01*
X7230400Y6577500D01*
X7255800Y6602900D01*
Y6628300D01*
X7230400D01*
X7205000Y6602900D01*
X7179600Y6628300D01*
X7154200D01*
Y6602900D01*
X7179600Y6577500D01*
X7154200Y6552100D01*
Y6526700D01*
X7749200Y6661700D02*
X7774600D01*
X7800000Y6687100D01*
X7825400Y6661700D01*
X7850800D01*
Y6687100D01*
X7825400Y6712500D01*
X7850800Y6737900D01*
Y6763300D01*
X7825400D01*
X7800000Y6737900D01*
X7774600Y6763300D01*
X7749200D01*
Y6737900D01*
X7774600Y6712500D01*
X7749200Y6687100D01*
Y6661700D01*
X7009600Y5585100D02*
Y5559700D01*
X7060400D01*
Y5585100D01*
X7085800D01*
Y5635900D01*
X7060400D01*
Y5661300D01*
X7009600D01*
Y5635900D01*
X6984200D01*
Y5585100D01*
X7009600D01*
X7749200Y6526700D02*
X7774600D01*
X7800000Y6552100D01*
X7825400Y6526700D01*
X7850800D01*
Y6552100D01*
X7825400Y6577500D01*
X7850800Y6602900D01*
Y6628300D01*
X7825400D01*
X7800000Y6602900D01*
X7774600Y6628300D01*
X7749200D01*
Y6602900D01*
X7774600Y6577500D01*
X7749200Y6552100D01*
Y6526700D01*
X8306100Y6882100D02*
Y6856700D01*
X8356900D01*
Y6882100D01*
X8382300D01*
Y6932900D01*
X8356900D01*
Y6958300D01*
X8306100D01*
Y6932900D01*
X8280700D01*
Y6882100D01*
X8306100D01*
X9414100D02*
Y6856700D01*
X9464900D01*
Y6882100D01*
X9490300D01*
Y6932900D01*
X9464900D01*
Y6958300D01*
X9414100D01*
Y6932900D01*
X9388700D01*
Y6882100D01*
X9414100D01*
X7707500Y4737700D02*
X7732900Y4763100D01*
X7758300D01*
X7732900Y4788500D01*
X7758300Y4813900D01*
X7732900D01*
X7707500Y4839300D01*
X7682100Y4813900D01*
X7656700D01*
X7682100Y4788500D01*
X7656700Y4763100D01*
X7682100D01*
X7707500Y4737700D01*
X7409200Y6526700D02*
X7434600D01*
X7460000Y6552100D01*
X7485400Y6526700D01*
X7510800D01*
Y6552100D01*
X7485400Y6577500D01*
X7510800Y6602900D01*
Y6628300D01*
X7485400D01*
X7460000Y6602900D01*
X7434600Y6628300D01*
X7409200D01*
Y6602900D01*
X7434600Y6577500D01*
X7409200Y6552100D01*
Y6526700D01*
X7494200Y6661700D02*
X7519600D01*
X7545000Y6687100D01*
X7570400Y6661700D01*
X7595800D01*
Y6687100D01*
X7570400Y6712500D01*
X7595800Y6737900D01*
Y6763300D01*
X7570400D01*
X7545000Y6737900D01*
X7519600Y6763300D01*
X7494200D01*
Y6737900D01*
X7519600Y6712500D01*
X7494200Y6687100D01*
Y6661700D01*
Y6526700D02*
X7519600D01*
X7545000Y6552100D01*
X7570400Y6526700D01*
X7595800D01*
Y6552100D01*
X7570400Y6577500D01*
X7595800Y6602900D01*
Y6628300D01*
X7570400D01*
X7545000Y6602900D01*
X7519600Y6628300D01*
X7494200D01*
Y6602900D01*
X7519600Y6577500D01*
X7494200Y6552100D01*
Y6526700D01*
X7409200Y6661700D02*
X7434600D01*
X7460000Y6687100D01*
X7485400Y6661700D01*
X7510800D01*
Y6687100D01*
X7485400Y6712500D01*
X7510800Y6737900D01*
Y6763300D01*
X7485400D01*
X7460000Y6737900D01*
X7434600Y6763300D01*
X7409200D01*
Y6737900D01*
X7434600Y6712500D01*
X7409200Y6687100D01*
Y6661700D01*
X7239200Y6526700D02*
X7264600D01*
X7290000Y6552100D01*
X7315400Y6526700D01*
X7340800D01*
Y6552100D01*
X7315400Y6577500D01*
X7340800Y6602900D01*
Y6628300D01*
X7315400D01*
X7290000Y6602900D01*
X7264600Y6628300D01*
X7239200D01*
Y6602900D01*
X7264600Y6577500D01*
X7239200Y6552100D01*
Y6526700D01*
X7324200D02*
X7349600D01*
X7375000Y6552100D01*
X7400400Y6526700D01*
X7425800D01*
Y6552100D01*
X7400400Y6577500D01*
X7425800Y6602900D01*
Y6628300D01*
X7400400D01*
X7375000Y6602900D01*
X7349600Y6628300D01*
X7324200D01*
Y6602900D01*
X7349600Y6577500D01*
X7324200Y6552100D01*
Y6526700D01*
X7579200D02*
X7604600D01*
X7630000Y6552100D01*
X7655400Y6526700D01*
X7680800D01*
Y6552100D01*
X7655400Y6577500D01*
X7680800Y6602900D01*
Y6628300D01*
X7655400D01*
X7630000Y6602900D01*
X7604600Y6628300D01*
X7579200D01*
Y6602900D01*
X7604600Y6577500D01*
X7579200Y6552100D01*
Y6526700D01*
X7664200D02*
X7689600D01*
X7715000Y6552100D01*
X7740400Y6526700D01*
X7765800D01*
Y6552100D01*
X7740400Y6577500D01*
X7765800Y6602900D01*
Y6628300D01*
X7740400D01*
X7715000Y6602900D01*
X7689600Y6628300D01*
X7664200D01*
Y6602900D01*
X7689600Y6577500D01*
X7664200Y6552100D01*
Y6526700D01*
Y6661700D02*
X7689600D01*
X7715000Y6687100D01*
X7740400Y6661700D01*
X7765800D01*
Y6687100D01*
X7740400Y6712500D01*
X7765800Y6737900D01*
Y6763300D01*
X7740400D01*
X7715000Y6737900D01*
X7689600Y6763300D01*
X7664200D01*
Y6737900D01*
X7689600Y6712500D01*
X7664200Y6687100D01*
Y6661700D01*
X7579200D02*
X7604600D01*
X7630000Y6687100D01*
X7655400Y6661700D01*
X7680800D01*
Y6687100D01*
X7655400Y6712500D01*
X7680800Y6737900D01*
Y6763300D01*
X7655400D01*
X7630000Y6737900D01*
X7604600Y6763300D01*
X7579200D01*
Y6737900D01*
X7604600Y6712500D01*
X7579200Y6687100D01*
Y6661700D01*
X7324200D02*
X7349600D01*
X7375000Y6687100D01*
X7400400Y6661700D01*
X7425800D01*
Y6687100D01*
X7400400Y6712500D01*
X7425800Y6737900D01*
Y6763300D01*
X7400400D01*
X7375000Y6737900D01*
X7349600Y6763300D01*
X7324200D01*
Y6737900D01*
X7349600Y6712500D01*
X7324200Y6687100D01*
Y6661700D01*
X7239200D02*
X7264600D01*
X7290000Y6687100D01*
X7315400Y6661700D01*
X7340800D01*
Y6687100D01*
X7315400Y6712500D01*
X7340800Y6737900D01*
Y6763300D01*
X7315400D01*
X7290000Y6737900D01*
X7264600Y6763300D01*
X7239200D01*
Y6737900D01*
X7264600Y6712500D01*
X7239200Y6687100D01*
Y6661700D01*
X7019200Y6962700D02*
Y7064300D01*
X7120800D01*
Y6962700D01*
X7019200D01*
X7039520Y6983020D02*
Y7043980D01*
X7100480D01*
Y6983020D01*
X7039520D01*
X7884200Y6962700D02*
Y7064300D01*
X7985800D01*
Y6962700D01*
X7884200D01*
X7904520Y6983020D02*
Y7043980D01*
X7965480D01*
Y6983020D01*
X7904520D01*
X10742500Y4186700D02*
X10691700Y4288300D01*
X10793300D01*
X10742500Y4186700D01*
Y4386700D02*
X10691700Y4488300D01*
X10793300D01*
X10742500Y4386700D01*
X10942500D02*
X10891700Y4488300D01*
X10993300D01*
X10942500Y4386700D01*
Y4186700D02*
X10891700Y4288300D01*
X10993300D01*
X10942500Y4186700D01*
Y3986700D02*
X10891700Y4088300D01*
X10993300D01*
X10942500Y3986700D01*
X10742500Y5101700D02*
X10691700Y5203300D01*
X10793300D01*
X10742500Y5101700D01*
Y5301700D02*
X10691700Y5403300D01*
X10793300D01*
X10742500Y5301700D01*
X10942500D02*
X10891700Y5403300D01*
X10993300D01*
X10942500Y5301700D01*
Y5101700D02*
X10891700Y5203300D01*
X10993300D01*
X10942500Y5101700D01*
Y4901700D02*
X10891700Y5003300D01*
X10993300D01*
X10942500Y4901700D01*
X7107500Y4481700D02*
X7132900Y4507100D01*
X7158300D01*
X7132900Y4532500D01*
X7158300Y4557900D01*
X7132900D01*
X7107500Y4583300D01*
X7082100Y4557900D01*
X7056700D01*
X7082100Y4532500D01*
X7056700Y4507100D01*
X7082100D01*
X7107500Y4481700D01*
Y3973700D02*
X7132900Y3999100D01*
X7158300D01*
X7132900Y4024500D01*
X7158300Y4049900D01*
X7132900D01*
X7107500Y4075300D01*
X7082100Y4049900D01*
X7056700D01*
X7082100Y4024500D01*
X7056700Y3999100D01*
X7082100D01*
X7107500Y3973700D01*
X7707500Y4229700D02*
X7732900Y4255100D01*
X7758300D01*
X7732900Y4280500D01*
X7758300Y4305900D01*
X7732900D01*
X7707500Y4331300D01*
X7682100Y4305900D01*
X7656700D01*
X7682100Y4280500D01*
X7656700Y4255100D01*
X7682100D01*
X7707500Y4229700D01*
Y3721700D02*
X7732900Y3747100D01*
X7758300D01*
X7732900Y3772500D01*
X7758300Y3797900D01*
X7732900D01*
X7707500Y3823300D01*
X7682100Y3797900D01*
X7656700D01*
X7682100Y3772500D01*
X7656700Y3747100D01*
X7682100D01*
X7707500Y3721700D01*
Y3975700D02*
X7732900Y4001100D01*
X7758300D01*
X7732900Y4026500D01*
X7758300Y4051900D01*
X7732900D01*
X7707500Y4077300D01*
X7682100Y4051900D01*
X7656700D01*
X7682100Y4026500D01*
X7656700Y4001100D01*
X7682100D01*
X7707500Y3975700D01*
Y4483700D02*
X7732900Y4509100D01*
X7758300D01*
X7732900Y4534500D01*
X7758300Y4559900D01*
X7732900D01*
X7707500Y4585300D01*
X7682100Y4559900D01*
X7656700D01*
X7682100Y4534500D01*
X7656700Y4509100D01*
X7682100D01*
X7707500Y4483700D01*
X7407500Y4229700D02*
X7432900Y4255100D01*
X7458300D01*
X7432900Y4280500D01*
X7458300Y4305900D01*
X7432900D01*
X7407500Y4331300D01*
X7382100Y4305900D01*
X7356700D01*
X7382100Y4280500D01*
X7356700Y4255100D01*
X7382100D01*
X7407500Y4229700D01*
Y4737700D02*
X7432900Y4763100D01*
X7458300D01*
X7432900Y4788500D01*
X7458300Y4813900D01*
X7432900D01*
X7407500Y4839300D01*
X7382100Y4813900D01*
X7356700D01*
X7382100Y4788500D01*
X7356700Y4763100D01*
X7382100D01*
X7407500Y4737700D01*
Y4483700D02*
X7432900Y4509100D01*
X7458300D01*
X7432900Y4534500D01*
X7458300Y4559900D01*
X7432900D01*
X7407500Y4585300D01*
X7382100Y4559900D01*
X7356700D01*
X7382100Y4534500D01*
X7356700Y4509100D01*
X7382100D01*
X7407500Y4483700D01*
Y3975700D02*
X7432900Y4001100D01*
X7458300D01*
X7432900Y4026500D01*
X7458300Y4051900D01*
X7432900D01*
X7407500Y4077300D01*
X7382100Y4051900D01*
X7356700D01*
X7382100Y4026500D01*
X7356700Y4001100D01*
X7382100D01*
X7407500Y3975700D01*
Y3721700D02*
X7432900Y3747100D01*
X7458300D01*
X7432900Y3772500D01*
X7458300Y3797900D01*
X7432900D01*
X7407500Y3823300D01*
X7382100Y3797900D01*
X7356700D01*
X7382100Y3772500D01*
X7356700Y3747100D01*
X7382100D01*
X7407500Y3721700D01*
X7009600Y5077100D02*
Y5051700D01*
X7060400D01*
Y5077100D01*
X7085800D01*
Y5127900D01*
X7060400D01*
Y5153300D01*
X7009600D01*
Y5127900D01*
X6984200D01*
Y5077100D01*
X7009600D01*
X9287100Y6628100D02*
Y6602700D01*
X9337900D01*
Y6628100D01*
X9363300D01*
Y6678900D01*
X9337900D01*
Y6704300D01*
X9287100D01*
Y6678900D01*
X9261700D01*
Y6628100D01*
X9287100D01*
X8179100D02*
Y6602700D01*
X8229900D01*
Y6628100D01*
X8255300D01*
Y6678900D01*
X8229900D01*
Y6704300D01*
X8179100D01*
Y6678900D01*
X8153700D01*
Y6628100D01*
X8179100D01*
X6755600Y5712100D02*
Y5686700D01*
X6806400D01*
Y5712100D01*
X6831800D01*
Y5762900D01*
X6806400D01*
Y5788300D01*
X6755600D01*
Y5762900D01*
X6730200D01*
Y5712100D01*
X6755600D01*
X8615500Y3721700D02*
X8640900Y3747100D01*
X8666300D01*
X8640900Y3772500D01*
X8666300Y3797900D01*
X8640900D01*
X8615500Y3823300D01*
X8590100Y3797900D01*
X8564700D01*
X8590100Y3772500D01*
X8564700Y3747100D01*
X8590100D01*
X8615500Y3721700D01*
X6776700Y3819200D02*
Y3920800D01*
X6878300D01*
Y3819200D01*
X6776700D01*
X6755600Y5458100D02*
Y5432700D01*
X6806400D01*
Y5458100D01*
X6831800D01*
Y5508900D01*
X6806400D01*
Y5534300D01*
X6755600D01*
Y5508900D01*
X6730200D01*
Y5458100D01*
X6755600D01*
X7009600Y5331100D02*
Y5305700D01*
X7060400D01*
Y5331100D01*
X7085800D01*
Y5381900D01*
X7060400D01*
Y5407300D01*
X7009600D01*
Y5381900D01*
X6984200D01*
Y5331100D01*
X7009600D01*
X6755600Y5204100D02*
Y5178700D01*
X6806400D01*
Y5204100D01*
X6831800D01*
Y5254900D01*
X6806400D01*
Y5280300D01*
X6755600D01*
Y5254900D01*
X6730200D01*
Y5204100D01*
X6755600D01*
X6804200Y4962500D02*
X6855000Y5013300D01*
X6905800Y4962500D01*
X6855000Y4911700D01*
X6804200Y4962500D01*
X10036700Y6727500D02*
X10087500Y6778300D01*
X10138300Y6727500D01*
X10087500Y6676700D01*
X10036700Y6727500D01*
X9922100Y6882100D02*
Y6856700D01*
X9972900D01*
Y6882100D01*
X9998300D01*
Y6932900D01*
X9972900D01*
Y6958300D01*
X9922100D01*
Y6932900D01*
X9896700D01*
Y6882100D01*
X9922100D01*
X9795100Y6628100D02*
Y6602700D01*
X9845900D01*
Y6628100D01*
X9871300D01*
Y6678900D01*
X9845900D01*
Y6704300D01*
X9795100D01*
Y6678900D01*
X9769700D01*
Y6628100D01*
X9795100D01*
X9668100Y6882100D02*
Y6856700D01*
X9718900D01*
Y6882100D01*
X9744300D01*
Y6932900D01*
X9718900D01*
Y6958300D01*
X9668100D01*
Y6932900D01*
X9642700D01*
Y6882100D01*
X9668100D01*
X9541100Y6628100D02*
Y6602700D01*
X9591900D01*
Y6628100D01*
X9617300D01*
Y6678900D01*
X9591900D01*
Y6704300D01*
X9541100D01*
Y6678900D01*
X9515700D01*
Y6628100D01*
X9541100D01*
X8433100D02*
Y6602700D01*
X8483900D01*
Y6628100D01*
X8509300D01*
Y6678900D01*
X8483900D01*
Y6704300D01*
X8433100D01*
Y6678900D01*
X8407700D01*
Y6628100D01*
X8433100D01*
X8560100Y6882100D02*
Y6856700D01*
X8610900D01*
Y6882100D01*
X8636300D01*
Y6932900D01*
X8610900D01*
Y6958300D01*
X8560100D01*
Y6932900D01*
X8534700D01*
Y6882100D01*
X8560100D01*
X8687100Y6628100D02*
Y6602700D01*
X8737900D01*
Y6628100D01*
X8763300D01*
Y6678900D01*
X8737900D01*
Y6704300D01*
X8687100D01*
Y6678900D01*
X8661700D01*
Y6628100D01*
X8687100D01*
X8814100Y6882100D02*
Y6856700D01*
X8864900D01*
Y6882100D01*
X8890300D01*
Y6932900D01*
X8864900D01*
Y6958300D01*
X8814100D01*
Y6932900D01*
X8788700D01*
Y6882100D01*
X8814100D01*
X8928700Y6727500D02*
X8979500Y6778300D01*
X9030300Y6727500D01*
X8979500Y6676700D01*
X8928700Y6727500D01*
X8361500Y3721700D02*
X8386900Y3747100D01*
X8412300D01*
X8386900Y3772500D01*
X8412300Y3797900D01*
X8386900D01*
X8361500Y3823300D01*
X8336100Y3797900D01*
X8310700D01*
X8336100Y3772500D01*
X8310700Y3747100D01*
X8336100D01*
X8361500Y3721700D01*
X8107500D02*
X8132900Y3747100D01*
X8158300D01*
X8132900Y3772500D01*
X8158300Y3797900D01*
X8132900D01*
X8107500Y3823300D01*
X8082100Y3797900D01*
X8056700D01*
X8082100Y3772500D01*
X8056700Y3747100D01*
X8082100D01*
X8107500Y3721700D01*
X8385652Y5702879D02*
X8411052D01*
X8436452Y5728279D01*
X8461852Y5702879D01*
X8487252D01*
Y5728279D01*
X8461852Y5753679D01*
X8487252Y5779079D01*
Y5804479D01*
X8461852D01*
X8436452Y5779079D01*
X8411052Y5804479D01*
X8385652D01*
Y5779079D01*
X8411052Y5753679D01*
X8385652Y5728279D01*
Y5702879D01*
X8906700Y5206700D02*
X8932100D01*
X8957500Y5232100D01*
X8982900Y5206700D01*
X9008300D01*
Y5232100D01*
X8982900Y5257500D01*
X9008300Y5282900D01*
Y5308300D01*
X8982900D01*
X8957500Y5282900D01*
X8932100Y5308300D01*
X8906700D01*
Y5282900D01*
X8932100Y5257500D01*
X8906700Y5232100D01*
Y5206700D01*
X9039200Y4999200D02*
X9064600D01*
X9090000Y5024600D01*
X9115400Y4999200D01*
X9140800D01*
Y5024600D01*
X9115400Y5050000D01*
X9140800Y5075400D01*
Y5100800D01*
X9115400D01*
X9090000Y5075400D01*
X9064600Y5100800D01*
X9039200D01*
Y5075400D01*
X9064600Y5050000D01*
X9039200Y5024600D01*
Y4999200D01*
X9056700Y4909201D02*
X9082100D01*
X9107500Y4934601D01*
X9132900Y4909201D01*
X9158300D01*
Y4934601D01*
X9132900Y4960001D01*
X9158300Y4985401D01*
Y5010801D01*
X9132900D01*
X9107500Y4985401D01*
X9082100Y5010801D01*
X9056700D01*
Y4985401D01*
X9082100Y4960001D01*
X9056700Y4934601D01*
Y4909201D01*
X7139200Y5181700D02*
X7164600D01*
X7190000Y5207100D01*
X7215400Y5181700D01*
X7240800D01*
Y5207100D01*
X7215400Y5232500D01*
X7240800Y5257900D01*
Y5283300D01*
X7215400D01*
X7190000Y5257900D01*
X7164600Y5283300D01*
X7139200D01*
Y5257900D01*
X7164600Y5232500D01*
X7139200Y5207100D01*
Y5181700D01*
X8279200Y5471700D02*
X8304600D01*
X8330000Y5497100D01*
X8355400Y5471700D01*
X8380800D01*
Y5497100D01*
X8355400Y5522500D01*
X8380800Y5547900D01*
Y5573300D01*
X8355400D01*
X8330000Y5547900D01*
X8304600Y5573300D01*
X8279200D01*
Y5547900D01*
X8304600Y5522500D01*
X8279200Y5497100D01*
Y5471700D01*
X7561700Y7109200D02*
X7587100D01*
X7612500Y7134600D01*
X7637900Y7109200D01*
X7663300D01*
Y7134600D01*
X7637900Y7160000D01*
X7663300Y7185400D01*
Y7210800D01*
X7637900D01*
X7612500Y7185400D01*
X7587100Y7210800D01*
X7561700D01*
Y7185400D01*
X7587100Y7160000D01*
X7561700Y7134600D01*
Y7109200D01*
X7209200D02*
X7234600D01*
X7260000Y7134600D01*
X7285400Y7109200D01*
X7310800D01*
Y7134600D01*
X7285400Y7160000D01*
X7310800Y7185400D01*
Y7210800D01*
X7285400D01*
X7260000Y7185400D01*
X7234600Y7210800D01*
X7209200D01*
Y7185400D01*
X7234600Y7160000D01*
X7209200Y7134600D01*
Y7109200D01*
X6594200Y6504200D02*
X6619600D01*
X6645000Y6529600D01*
X6670400Y6504200D01*
X6695800D01*
Y6529600D01*
X6670400Y6555000D01*
X6695800Y6580400D01*
Y6605800D01*
X6670400D01*
X6645000Y6580400D01*
X6619600Y6605800D01*
X6594200D01*
Y6580400D01*
X6619600Y6555000D01*
X6594200Y6529600D01*
Y6504200D01*
Y6141700D02*
X6619600D01*
X6645000Y6167100D01*
X6670400Y6141700D01*
X6695800D01*
Y6167100D01*
X6670400Y6192500D01*
X6695800Y6217900D01*
Y6243300D01*
X6670400D01*
X6645000Y6217900D01*
X6619600Y6243300D01*
X6594200D01*
Y6217900D01*
X6619600Y6192500D01*
X6594200Y6167100D01*
Y6141700D01*
Y5709200D02*
X6619600D01*
X6645000Y5734600D01*
X6670400Y5709200D01*
X6695800D01*
Y5734600D01*
X6670400Y5760000D01*
X6695800Y5785400D01*
Y5810800D01*
X6670400D01*
X6645000Y5785400D01*
X6619600Y5810800D01*
X6594200D01*
Y5785400D01*
X6619600Y5760000D01*
X6594200Y5734600D01*
Y5709200D01*
X6589200Y5016700D02*
X6614600D01*
X6640000Y5042100D01*
X6665400Y5016700D01*
X6690800D01*
Y5042100D01*
X6665400Y5067500D01*
X6690800Y5092900D01*
Y5118300D01*
X6665400D01*
X6640000Y5092900D01*
X6614600Y5118300D01*
X6589200D01*
Y5092900D01*
X6614600Y5067500D01*
X6589200Y5042100D01*
Y5016700D01*
X7116700Y4836700D02*
X7142100D01*
X7167500Y4862100D01*
X7192900Y4836700D01*
X7218300D01*
Y4862100D01*
X7192900Y4887500D01*
X7218300Y4912900D01*
Y4938300D01*
X7192900D01*
X7167500Y4912900D01*
X7142100Y4938300D01*
X7116700D01*
Y4912900D01*
X7142100Y4887500D01*
X7116700Y4862100D01*
Y4836700D01*
X7371700Y4941700D02*
X7397100D01*
X7422500Y4967100D01*
X7447900Y4941700D01*
X7473300D01*
Y4967100D01*
X7447900Y4992500D01*
X7473300Y5017900D01*
Y5043300D01*
X7447900D01*
X7422500Y5017900D01*
X7397100Y5043300D01*
X7371700D01*
Y5017900D01*
X7397100Y4992500D01*
X7371700Y4967100D01*
Y4941700D01*
X7754200Y5201700D02*
X7779600D01*
X7805000Y5227100D01*
X7830400Y5201700D01*
X7855800D01*
Y5227100D01*
X7830400Y5252500D01*
X7855800Y5277900D01*
Y5303300D01*
X7830400D01*
X7805000Y5277900D01*
X7779600Y5303300D01*
X7754200D01*
Y5277900D01*
X7779600Y5252500D01*
X7754200Y5227100D01*
Y5201700D01*
X7871700Y5729200D02*
X7897100D01*
X7922500Y5754600D01*
X7947900Y5729200D01*
X7973300D01*
Y5754600D01*
X7947900Y5780000D01*
X7973300Y5805400D01*
Y5830800D01*
X7947900D01*
X7922500Y5805400D01*
X7897100Y5830800D01*
X7871700D01*
Y5805400D01*
X7897100Y5780000D01*
X7871700Y5754600D01*
Y5729200D01*
X7359200Y5884200D02*
X7384600D01*
X7410000Y5909600D01*
X7435400Y5884200D01*
X7460800D01*
Y5909600D01*
X7435400Y5935000D01*
X7460800Y5960400D01*
Y5985800D01*
X7435400D01*
X7410000Y5960400D01*
X7384600Y5985800D01*
X7359200D01*
Y5960400D01*
X7384600Y5935000D01*
X7359200Y5909600D01*
Y5884200D01*
X7161700Y5461700D02*
X7187100D01*
X7212500Y5487100D01*
X7237900Y5461700D01*
X7263300D01*
Y5487100D01*
X7237900Y5512500D01*
X7263300Y5537900D01*
Y5563300D01*
X7237900D01*
X7212500Y5537900D01*
X7187100Y5563300D01*
X7161700D01*
Y5537900D01*
X7187100Y5512500D01*
X7161700Y5487100D01*
Y5461700D01*
X7129200Y5646700D02*
X7154600D01*
X7180000Y5672100D01*
X7205400Y5646700D01*
X7230800D01*
Y5672100D01*
X7205400Y5697500D01*
X7230800Y5722900D01*
Y5748300D01*
X7205400D01*
X7180000Y5722900D01*
X7154600Y5748300D01*
X7129200D01*
Y5722900D01*
X7154600Y5697500D01*
X7129200Y5672100D01*
Y5646700D01*
Y5746700D02*
X7154600D01*
X7180000Y5772100D01*
X7205400Y5746700D01*
X7230800D01*
Y5772100D01*
X7205400Y5797500D01*
X7230800Y5822900D01*
Y5848300D01*
X7205400D01*
X7180000Y5822900D01*
X7154600Y5848300D01*
X7129200D01*
Y5822900D01*
X7154600Y5797500D01*
X7129200Y5772100D01*
Y5746700D01*
Y5846700D02*
X7154600D01*
X7180000Y5872100D01*
X7205400Y5846700D01*
X7230800D01*
Y5872100D01*
X7205400Y5897500D01*
X7230800Y5922900D01*
Y5948300D01*
X7205400D01*
X7180000Y5922900D01*
X7154600Y5948300D01*
X7129200D01*
Y5922900D01*
X7154600Y5897500D01*
X7129200Y5872100D01*
Y5846700D01*
Y5946700D02*
X7154600D01*
X7180000Y5972100D01*
X7205400Y5946700D01*
X7230800D01*
Y5972100D01*
X7205400Y5997500D01*
X7230800Y6022900D01*
Y6048300D01*
X7205400D01*
X7180000Y6022900D01*
X7154600Y6048300D01*
X7129200D01*
Y6022900D01*
X7154600Y5997500D01*
X7129200Y5972100D01*
Y5946700D01*
Y5546700D02*
X7154600D01*
X7180000Y5572100D01*
X7205400Y5546700D01*
X7230800D01*
Y5572100D01*
X7205400Y5597500D01*
X7230800Y5622900D01*
Y5648300D01*
X7205400D01*
X7180000Y5622900D01*
X7154600Y5648300D01*
X7129200D01*
Y5622900D01*
X7154600Y5597500D01*
X7129200Y5572100D01*
Y5546700D01*
X7164200Y6124200D02*
X7189600D01*
X7215000Y6149600D01*
X7240400Y6124200D01*
X7265800D01*
Y6149600D01*
X7240400Y6175000D01*
X7265800Y6200400D01*
Y6225800D01*
X7240400D01*
X7215000Y6200400D01*
X7189600Y6225800D01*
X7164200D01*
Y6200400D01*
X7189600Y6175000D01*
X7164200Y6149600D01*
Y6124200D01*
X7109200Y6261700D02*
X7134600D01*
X7160000Y6287100D01*
X7185400Y6261700D01*
X7210800D01*
Y6287100D01*
X7185400Y6312500D01*
X7210800Y6337900D01*
Y6363300D01*
X7185400D01*
X7160000Y6337900D01*
X7134600Y6363300D01*
X7109200D01*
Y6337900D01*
X7134600Y6312500D01*
X7109200Y6287100D01*
Y6261700D01*
X7499200Y6096700D02*
X7524600D01*
X7550000Y6122100D01*
X7575400Y6096700D01*
X7600800D01*
Y6122100D01*
X7575400Y6147500D01*
X7600800Y6172900D01*
Y6198300D01*
X7575400D01*
X7550000Y6172900D01*
X7524600Y6198300D01*
X7499200D01*
Y6172900D01*
X7524600Y6147500D01*
X7499200Y6122100D01*
Y6096700D01*
X7584200Y6184200D02*
X7609600D01*
X7635000Y6209600D01*
X7660400Y6184200D01*
X7685800D01*
Y6209600D01*
X7660400Y6235000D01*
X7685800Y6260400D01*
Y6285800D01*
X7660400D01*
X7635000Y6260400D01*
X7609600Y6285800D01*
X7584200D01*
Y6260400D01*
X7609600Y6235000D01*
X7584200Y6209600D01*
Y6184200D01*
X7569200Y6396700D02*
X7594600D01*
X7620000Y6422100D01*
X7645400Y6396700D01*
X7670800D01*
Y6422100D01*
X7645400Y6447500D01*
X7670800Y6472900D01*
Y6498300D01*
X7645400D01*
X7620000Y6472900D01*
X7594600Y6498300D01*
X7569200D01*
Y6472900D01*
X7594600Y6447500D01*
X7569200Y6422100D01*
Y6396700D01*
X8236700Y5256700D02*
X8262100D01*
X8287500Y5282100D01*
X8312900Y5256700D01*
X8338300D01*
Y5282100D01*
X8312900Y5307500D01*
X8338300Y5332900D01*
Y5358300D01*
X8312900D01*
X8287500Y5332900D01*
X8262100Y5358300D01*
X8236700D01*
Y5332900D01*
X8262100Y5307500D01*
X8236700Y5282100D01*
Y5256700D01*
X11049197Y6999198D02*
X11074597D01*
X11099997Y7024598D01*
X11125397Y6999198D01*
X11150797D01*
Y7024598D01*
X11125397Y7049998D01*
X11150797Y7075398D01*
Y7100798D01*
X11125397D01*
X11099997Y7075398D01*
X11074597Y7100798D01*
X11049197D01*
Y7075398D01*
X11074597Y7049998D01*
X11049197Y7024598D01*
Y6999198D01*
Y6699198D02*
X11074597D01*
X11099997Y6724598D01*
X11125397Y6699198D01*
X11150797D01*
Y6724598D01*
X11125397Y6749998D01*
X11150797Y6775398D01*
Y6800798D01*
X11125397D01*
X11099997Y6775398D01*
X11074597Y6800798D01*
X11049197D01*
Y6775398D01*
X11074597Y6749998D01*
X11049197Y6724598D01*
Y6699198D01*
Y6399198D02*
X11074597D01*
X11099997Y6424598D01*
X11125397Y6399198D01*
X11150797D01*
Y6424598D01*
X11125397Y6449998D01*
X11150797Y6475398D01*
Y6500798D01*
X11125397D01*
X11099997Y6475398D01*
X11074597Y6500798D01*
X11049197D01*
Y6475398D01*
X11074597Y6449998D01*
X11049197Y6424598D01*
Y6399198D01*
Y6099198D02*
X11074597D01*
X11099997Y6124598D01*
X11125397Y6099198D01*
X11150797D01*
Y6124598D01*
X11125397Y6149998D01*
X11150797Y6175398D01*
Y6200798D01*
X11125397D01*
X11099997Y6175398D01*
X11074597Y6200798D01*
X11049197D01*
Y6175398D01*
X11074597Y6149998D01*
X11049197Y6124598D01*
Y6099198D01*
Y4599199D02*
X11074597D01*
X11099997Y4624599D01*
X11125397Y4599199D01*
X11150797D01*
Y4624599D01*
X11125397Y4649999D01*
X11150797Y4675399D01*
Y4700799D01*
X11125397D01*
X11099997Y4675399D01*
X11074597Y4700799D01*
X11049197D01*
Y4675399D01*
X11074597Y4649999D01*
X11049197Y4624599D01*
Y4599199D01*
X10974196Y6849198D02*
X10999596D01*
X11024996Y6874598D01*
X11050396Y6849198D01*
X11075796D01*
Y6874598D01*
X11050396Y6899998D01*
X11075796Y6925398D01*
Y6950798D01*
X11050396D01*
X11024996Y6925398D01*
X10999596Y6950798D01*
X10974196D01*
Y6925398D01*
X10999596Y6899998D01*
X10974196Y6874598D01*
Y6849198D01*
Y6549198D02*
X10999596D01*
X11024996Y6574598D01*
X11050396Y6549198D01*
X11075796D01*
Y6574598D01*
X11050396Y6599998D01*
X11075796Y6625398D01*
Y6650798D01*
X11050396D01*
X11024996Y6625398D01*
X10999596Y6650798D01*
X10974196D01*
Y6625398D01*
X10999596Y6599998D01*
X10974196Y6574598D01*
Y6549198D01*
X10899197Y6399198D02*
X10924597D01*
X10949997Y6424598D01*
X10975397Y6399198D01*
X11000797D01*
Y6424598D01*
X10975397Y6449998D01*
X11000797Y6475398D01*
Y6500798D01*
X10975397D01*
X10949997Y6475398D01*
X10924597Y6500798D01*
X10899197D01*
Y6475398D01*
X10924597Y6449998D01*
X10899197Y6424598D01*
Y6399198D01*
Y6099198D02*
X10924597D01*
X10949997Y6124598D01*
X10975397Y6099198D01*
X11000797D01*
Y6124598D01*
X10975397Y6149998D01*
X11000797Y6175398D01*
Y6200798D01*
X10975397D01*
X10949997Y6175398D01*
X10924597Y6200798D01*
X10899197D01*
Y6175398D01*
X10924597Y6149998D01*
X10899197Y6124598D01*
Y6099198D01*
X10974196Y5949198D02*
X10999596D01*
X11024996Y5974598D01*
X11050396Y5949198D01*
X11075796D01*
Y5974598D01*
X11050396Y5999998D01*
X11075796Y6025398D01*
Y6050798D01*
X11050396D01*
X11024996Y6025398D01*
X10999596Y6050798D01*
X10974196D01*
Y6025398D01*
X10999596Y5999998D01*
X10974196Y5974598D01*
Y5949198D01*
X10749197Y6999198D02*
X10774597D01*
X10799997Y7024598D01*
X10825397Y6999198D01*
X10850797D01*
Y7024598D01*
X10825397Y7049998D01*
X10850797Y7075398D01*
Y7100798D01*
X10825397D01*
X10799997Y7075398D01*
X10774597Y7100798D01*
X10749197D01*
Y7075398D01*
X10774597Y7049998D01*
X10749197Y7024598D01*
Y6999198D01*
X10824197Y6849198D02*
X10849597D01*
X10874997Y6874598D01*
X10900397Y6849198D01*
X10925797D01*
Y6874598D01*
X10900397Y6899998D01*
X10925797Y6925398D01*
Y6950798D01*
X10900397D01*
X10874997Y6925398D01*
X10849597Y6950798D01*
X10824197D01*
Y6925398D01*
X10849597Y6899998D01*
X10824197Y6874598D01*
Y6849198D01*
X10749197Y6699198D02*
X10774597D01*
X10799997Y6724598D01*
X10825397Y6699198D01*
X10850797D01*
Y6724598D01*
X10825397Y6749998D01*
X10850797Y6775398D01*
Y6800798D01*
X10825397D01*
X10799997Y6775398D01*
X10774597Y6800798D01*
X10749197D01*
Y6775398D01*
X10774597Y6749998D01*
X10749197Y6724598D01*
Y6699198D01*
X10824197Y6549198D02*
X10849597D01*
X10874997Y6574598D01*
X10900397Y6549198D01*
X10925797D01*
Y6574598D01*
X10900397Y6599998D01*
X10925797Y6625398D01*
Y6650798D01*
X10900397D01*
X10874997Y6625398D01*
X10849597Y6650798D01*
X10824197D01*
Y6625398D01*
X10849597Y6599998D01*
X10824197Y6574598D01*
Y6549198D01*
X10749197Y6399198D02*
X10774597D01*
X10799997Y6424598D01*
X10825397Y6399198D01*
X10850797D01*
Y6424598D01*
X10825397Y6449998D01*
X10850797Y6475398D01*
Y6500798D01*
X10825397D01*
X10799997Y6475398D01*
X10774597Y6500798D01*
X10749197D01*
Y6475398D01*
X10774597Y6449998D01*
X10749197Y6424598D01*
Y6399198D01*
X10824197Y6249198D02*
X10849597D01*
X10874997Y6274598D01*
X10900397Y6249198D01*
X10925797D01*
Y6274598D01*
X10900397Y6299998D01*
X10925797Y6325398D01*
Y6350798D01*
X10900397D01*
X10874997Y6325398D01*
X10849597Y6350798D01*
X10824197D01*
Y6325398D01*
X10849597Y6299998D01*
X10824197Y6274598D01*
Y6249198D01*
X10749197Y6099198D02*
X10774597D01*
X10799997Y6124598D01*
X10825397Y6099198D01*
X10850797D01*
Y6124598D01*
X10825397Y6149998D01*
X10850797Y6175398D01*
Y6200798D01*
X10825397D01*
X10799997Y6175398D01*
X10774597Y6200798D01*
X10749197D01*
Y6175398D01*
X10774597Y6149998D01*
X10749197Y6124598D01*
Y6099198D01*
X10824197Y5949198D02*
X10849597D01*
X10874997Y5974598D01*
X10900397Y5949198D01*
X10925797D01*
Y5974598D01*
X10900397Y5999998D01*
X10925797Y6025398D01*
Y6050798D01*
X10900397D01*
X10874997Y6025398D01*
X10849597Y6050798D01*
X10824197D01*
Y6025398D01*
X10849597Y5999998D01*
X10824197Y5974598D01*
Y5949198D01*
X10599197Y6999198D02*
X10624597D01*
X10649997Y7024598D01*
X10675397Y6999198D01*
X10700797D01*
Y7024598D01*
X10675397Y7049998D01*
X10700797Y7075398D01*
Y7100798D01*
X10675397D01*
X10649997Y7075398D01*
X10624597Y7100798D01*
X10599197D01*
Y7075398D01*
X10624597Y7049998D01*
X10599197Y7024598D01*
Y6999198D01*
X10674197Y6849198D02*
X10699597D01*
X10724997Y6874598D01*
X10750397Y6849198D01*
X10775797D01*
Y6874598D01*
X10750397Y6899998D01*
X10775797Y6925398D01*
Y6950798D01*
X10750397D01*
X10724997Y6925398D01*
X10699597Y6950798D01*
X10674197D01*
Y6925398D01*
X10699597Y6899998D01*
X10674197Y6874598D01*
Y6849198D01*
Y6549198D02*
X10699597D01*
X10724997Y6574598D01*
X10750397Y6549198D01*
X10775797D01*
Y6574598D01*
X10750397Y6599998D01*
X10775797Y6625398D01*
Y6650798D01*
X10750397D01*
X10724997Y6625398D01*
X10699597Y6650798D01*
X10674197D01*
Y6625398D01*
X10699597Y6599998D01*
X10674197Y6574598D01*
Y6549198D01*
Y5649198D02*
X10699597D01*
X10724997Y5674598D01*
X10750397Y5649198D01*
X10775797D01*
Y5674598D01*
X10750397Y5699998D01*
X10775797Y5725398D01*
Y5750798D01*
X10750397D01*
X10724997Y5725398D01*
X10699597Y5750798D01*
X10674197D01*
Y5725398D01*
X10699597Y5699998D01*
X10674197Y5674598D01*
Y5649198D01*
X10449197Y6999198D02*
X10474597D01*
X10499997Y7024598D01*
X10525397Y6999198D01*
X10550797D01*
Y7024598D01*
X10525397Y7049998D01*
X10550797Y7075398D01*
Y7100798D01*
X10525397D01*
X10499997Y7075398D01*
X10474597Y7100798D01*
X10449197D01*
Y7075398D01*
X10474597Y7049998D01*
X10449197Y7024598D01*
Y6999198D01*
X10524197Y6849198D02*
X10549597D01*
X10574997Y6874598D01*
X10600397Y6849198D01*
X10625797D01*
Y6874598D01*
X10600397Y6899998D01*
X10625797Y6925398D01*
Y6950798D01*
X10600397D01*
X10574997Y6925398D01*
X10549597Y6950798D01*
X10524197D01*
Y6925398D01*
X10549597Y6899998D01*
X10524197Y6874598D01*
Y6849198D01*
Y5649198D02*
X10549597D01*
X10574997Y5674598D01*
X10600397Y5649198D01*
X10625797D01*
Y5674598D01*
X10600397Y5699998D01*
X10625797Y5725398D01*
Y5750798D01*
X10600397D01*
X10574997Y5725398D01*
X10549597Y5750798D01*
X10524197D01*
Y5725398D01*
X10549597Y5699998D01*
X10524197Y5674598D01*
Y5649198D01*
X10299197Y6999198D02*
X10324597D01*
X10349997Y7024598D01*
X10375397Y6999198D01*
X10400797D01*
Y7024598D01*
X10375397Y7049998D01*
X10400797Y7075398D01*
Y7100798D01*
X10375397D01*
X10349997Y7075398D01*
X10324597Y7100798D01*
X10299197D01*
Y7075398D01*
X10324597Y7049998D01*
X10299197Y7024598D01*
Y6999198D01*
X10149197D02*
X10174597D01*
X10199997Y7024598D01*
X10225397Y6999198D01*
X10250797D01*
Y7024598D01*
X10225397Y7049998D01*
X10250797Y7075398D01*
Y7100798D01*
X10225397D01*
X10199997Y7075398D01*
X10174597Y7100798D01*
X10149197D01*
Y7075398D01*
X10174597Y7049998D01*
X10149197Y7024598D01*
Y6999198D01*
X10224197Y6849198D02*
X10249597D01*
X10274997Y6874598D01*
X10300397Y6849198D01*
X10325797D01*
Y6874598D01*
X10300397Y6899998D01*
X10325797Y6925398D01*
Y6950798D01*
X10300397D01*
X10274997Y6925398D01*
X10249597Y6950798D01*
X10224197D01*
Y6925398D01*
X10249597Y6899998D01*
X10224197Y6874598D01*
Y6849198D01*
Y6549198D02*
X10249597D01*
X10274997Y6574598D01*
X10300397Y6549198D01*
X10325797D01*
Y6574598D01*
X10300397Y6599998D01*
X10325797Y6625398D01*
Y6650798D01*
X10300397D01*
X10274997Y6625398D01*
X10249597Y6650798D01*
X10224197D01*
Y6625398D01*
X10249597Y6599998D01*
X10224197Y6574598D01*
Y6549198D01*
X10149197Y6399198D02*
X10174597D01*
X10199997Y6424598D01*
X10225397Y6399198D01*
X10250797D01*
Y6424598D01*
X10225397Y6449998D01*
X10250797Y6475398D01*
Y6500798D01*
X10225397D01*
X10199997Y6475398D01*
X10174597Y6500798D01*
X10149197D01*
Y6475398D01*
X10174597Y6449998D01*
X10149197Y6424598D01*
Y6399198D01*
X9999197Y6999198D02*
X10024597D01*
X10049997Y7024598D01*
X10075397Y6999198D01*
X10100797D01*
Y7024598D01*
X10075397Y7049998D01*
X10100797Y7075398D01*
Y7100798D01*
X10075397D01*
X10049997Y7075398D01*
X10024597Y7100798D01*
X9999197D01*
Y7075398D01*
X10024597Y7049998D01*
X9999197Y7024598D01*
Y6999198D01*
Y6399198D02*
X10024597D01*
X10049997Y6424598D01*
X10075397Y6399198D01*
X10100797D01*
Y6424598D01*
X10075397Y6449998D01*
X10100797Y6475398D01*
Y6500798D01*
X10075397D01*
X10049997Y6475398D01*
X10024597Y6500798D01*
X9999197D01*
Y6475398D01*
X10024597Y6449998D01*
X9999197Y6424598D01*
Y6399198D01*
X8699200Y5621700D02*
X8724600D01*
X8750000Y5647100D01*
X8775400Y5621700D01*
X8800800D01*
Y5647100D01*
X8775400Y5672500D01*
X8800800Y5697900D01*
Y5723300D01*
X8775400D01*
X8750000Y5697900D01*
X8724600Y5723300D01*
X8699200D01*
Y5697900D01*
X8724600Y5672500D01*
X8699200Y5647100D01*
Y5621700D01*
X8609200D02*
X8634600D01*
X8660000Y5647100D01*
X8685400Y5621700D01*
X8710800D01*
Y5647100D01*
X8685400Y5672500D01*
X8710800Y5697900D01*
Y5723300D01*
X8685400D01*
X8660000Y5697900D01*
X8634600Y5723300D01*
X8609200D01*
Y5697900D01*
X8634600Y5672500D01*
X8609200Y5647100D01*
Y5621700D01*
X6841700Y6166700D02*
X6867100D01*
X6892500Y6192100D01*
X6917900Y6166700D01*
X6943300D01*
Y6192100D01*
X6917900Y6217500D01*
X6943300Y6242900D01*
Y6268300D01*
X6917900D01*
X6892500Y6242900D01*
X6867100Y6268300D01*
X6841700D01*
Y6242900D01*
X6867100Y6217500D01*
X6841700Y6192100D01*
Y6166700D01*
X8624200Y6309200D02*
X8649600D01*
X8675000Y6334600D01*
X8700400Y6309200D01*
X8725800D01*
Y6334600D01*
X8700400Y6360000D01*
X8725800Y6385400D01*
Y6410800D01*
X8700400D01*
X8675000Y6385400D01*
X8649600Y6410800D01*
X8624200D01*
Y6385400D01*
X8649600Y6360000D01*
X8624200Y6334600D01*
Y6309200D01*
X7886700Y5601700D02*
X7912100D01*
X7937500Y5627100D01*
X7962900Y5601700D01*
X7988300D01*
Y5627100D01*
X7962900Y5652500D01*
X7988300Y5677900D01*
Y5703300D01*
X7962900D01*
X7937500Y5677900D01*
X7912100Y5703300D01*
X7886700D01*
Y5677900D01*
X7912100Y5652500D01*
X7886700Y5627100D01*
Y5601700D01*
X8041700Y5936700D02*
X8067100D01*
X8092500Y5962100D01*
X8117900Y5936700D01*
X8143300D01*
Y5962100D01*
X8117900Y5987500D01*
X8143300Y6012900D01*
Y6038300D01*
X8117900D01*
X8092500Y6012900D01*
X8067100Y6038300D01*
X8041700D01*
Y6012900D01*
X8067100Y5987500D01*
X8041700Y5962100D01*
Y5936700D01*
X7629200Y5649200D02*
X7654600D01*
X7680000Y5674600D01*
X7705400Y5649200D01*
X7730800D01*
Y5674600D01*
X7705400Y5700000D01*
X7730800Y5725400D01*
Y5750800D01*
X7705400D01*
X7680000Y5725400D01*
X7654600Y5750800D01*
X7629200D01*
Y5725400D01*
X7654600Y5700000D01*
X7629200Y5674600D01*
Y5649200D01*
X7931700Y5036700D02*
X7957100D01*
X7982500Y5062100D01*
X8007900Y5036700D01*
X8033300D01*
Y5062100D01*
X8007900Y5087500D01*
X8033300Y5112900D01*
Y5138300D01*
X8007900D01*
X7982500Y5112900D01*
X7957100Y5138300D01*
X7931700D01*
Y5112900D01*
X7957100Y5087500D01*
X7931700Y5062100D01*
Y5036700D01*
X10124200Y5821700D02*
X10149600D01*
X10175000Y5847100D01*
X10200400Y5821700D01*
X10225800D01*
Y5847100D01*
X10200400Y5872500D01*
X10225800Y5897900D01*
Y5923300D01*
X10200400D01*
X10175000Y5897900D01*
X10149600Y5923300D01*
X10124200D01*
Y5897900D01*
X10149600Y5872500D01*
X10124200Y5847100D01*
Y5821700D01*
X9116700Y4411700D02*
X9142100D01*
X9167500Y4437100D01*
X9192900Y4411700D01*
X9218300D01*
Y4437100D01*
X9192900Y4462500D01*
X9218300Y4487900D01*
Y4513300D01*
X9192900D01*
X9167500Y4487900D01*
X9142100Y4513300D01*
X9116700D01*
Y4487900D01*
X9142100Y4462500D01*
X9116700Y4437100D01*
Y4411700D01*
X8517118Y4141905D02*
X8542518D01*
X8567918Y4167305D01*
X8593318Y4141905D01*
X8618718D01*
Y4167305D01*
X8593318Y4192705D01*
X8618718Y4218105D01*
Y4243505D01*
X8593318D01*
X8567918Y4218105D01*
X8542518Y4243505D01*
X8517118D01*
Y4218105D01*
X8542518Y4192705D01*
X8517118Y4167305D01*
Y4141905D01*
X9429200Y4276700D02*
X9454600D01*
X9480000Y4302100D01*
X9505400Y4276700D01*
X9530800D01*
Y4302100D01*
X9505400Y4327500D01*
X9530800Y4352900D01*
Y4378300D01*
X9505400D01*
X9480000Y4352900D01*
X9454600Y4378300D01*
X9429200D01*
Y4352900D01*
X9454600Y4327500D01*
X9429200Y4302100D01*
Y4276700D01*
X6589200Y4649200D02*
X6614600D01*
X6640000Y4674600D01*
X6665400Y4649200D01*
X6690800D01*
Y4674600D01*
X6665400Y4700000D01*
X6690800Y4725400D01*
Y4750800D01*
X6665400D01*
X6640000Y4725400D01*
X6614600Y4750800D01*
X6589200D01*
Y4725400D01*
X6614600Y4700000D01*
X6589200Y4674600D01*
Y4649200D01*
X8104200Y3871700D02*
X8129600D01*
X8155000Y3897100D01*
X8180400Y3871700D01*
X8205800D01*
Y3897100D01*
X8180400Y3922500D01*
X8205800Y3947900D01*
Y3973300D01*
X8180400D01*
X8155000Y3947900D01*
X8129600Y3973300D01*
X8104200D01*
Y3947900D01*
X8129600Y3922500D01*
X8104200Y3897100D01*
Y3871700D01*
X8154200Y4914200D02*
X8179600D01*
X8205000Y4939600D01*
X8230400Y4914200D01*
X8255800D01*
Y4939600D01*
X8230400Y4965000D01*
X8255800Y4990400D01*
Y5015800D01*
X8230400D01*
X8205000Y4990400D01*
X8179600Y5015800D01*
X8154200D01*
Y4990400D01*
X8179600Y4965000D01*
X8154200Y4939600D01*
Y4914200D01*
X8094200Y6359200D02*
X8119600D01*
X8145000Y6384600D01*
X8170400Y6359200D01*
X8195800D01*
Y6384600D01*
X8170400Y6410000D01*
X8195800Y6435400D01*
Y6460800D01*
X8170400D01*
X8145000Y6435400D01*
X8119600Y6460800D01*
X8094200D01*
Y6435400D01*
X8119600Y6410000D01*
X8094200Y6384600D01*
Y6359200D01*
X9746700Y4244200D02*
X9772100D01*
X9797500Y4269600D01*
X9822900Y4244200D01*
X9848300D01*
Y4269600D01*
X9822900Y4295000D01*
X9848300Y4320400D01*
Y4345800D01*
X9822900D01*
X9797500Y4320400D01*
X9772100Y4345800D01*
X9746700D01*
Y4320400D01*
X9772100Y4295000D01*
X9746700Y4269600D01*
Y4244200D01*
X9846700D02*
X9872100D01*
X9897500Y4269600D01*
X9922900Y4244200D01*
X9948300D01*
Y4269600D01*
X9922900Y4295000D01*
X9948300Y4320400D01*
Y4345800D01*
X9922900D01*
X9897500Y4320400D01*
X9872100Y4345800D01*
X9846700D01*
Y4320400D01*
X9872100Y4295000D01*
X9846700Y4269600D01*
Y4244200D01*
X9741700Y4981700D02*
X9767100D01*
X9792500Y5007100D01*
X9817900Y4981700D01*
X9843300D01*
Y5007100D01*
X9817900Y5032500D01*
X9843300Y5057900D01*
Y5083300D01*
X9817900D01*
X9792500Y5057900D01*
X9767100Y5083300D01*
X9741700D01*
Y5057900D01*
X9767100Y5032500D01*
X9741700Y5007100D01*
Y4981700D01*
Y4881700D02*
X9767100D01*
X9792500Y4907100D01*
X9817900Y4881700D01*
X9843300D01*
Y4907100D01*
X9817900Y4932500D01*
X9843300Y4957900D01*
Y4983300D01*
X9817900D01*
X9792500Y4957900D01*
X9767100Y4983300D01*
X9741700D01*
Y4957900D01*
X9767100Y4932500D01*
X9741700Y4907100D01*
Y4881700D01*
X9841700D02*
X9867100D01*
X9892500Y4907100D01*
X9917900Y4881700D01*
X9943300D01*
Y4907100D01*
X9917900Y4932500D01*
X9943300Y4957900D01*
Y4983300D01*
X9917900D01*
X9892500Y4957900D01*
X9867100Y4983300D01*
X9841700D01*
Y4957900D01*
X9867100Y4932500D01*
X9841700Y4907100D01*
Y4881700D01*
Y4981700D02*
X9867100D01*
X9892500Y5007100D01*
X9917900Y4981700D01*
X9943300D01*
Y5007100D01*
X9917900Y5032500D01*
X9943300Y5057900D01*
Y5083300D01*
X9917900D01*
X9892500Y5057900D01*
X9867100Y5083300D01*
X9841700D01*
Y5057900D01*
X9867100Y5032500D01*
X9841700Y5007100D01*
Y4981700D01*
X9789200Y6259200D02*
X9814600D01*
X9840000Y6284600D01*
X9865400Y6259200D01*
X9890800D01*
Y6284600D01*
X9865400Y6310000D01*
X9890800Y6335400D01*
Y6360800D01*
X9865400D01*
X9840000Y6335400D01*
X9814600Y6360800D01*
X9789200D01*
Y6335400D01*
X9814600Y6310000D01*
X9789200Y6284600D01*
Y6259200D01*
Y6376700D02*
X9814600D01*
X9840000Y6402100D01*
X9865400Y6376700D01*
X9890800D01*
Y6402100D01*
X9865400Y6427500D01*
X9890800Y6452900D01*
Y6478300D01*
X9865400D01*
X9840000Y6452900D01*
X9814600Y6478300D01*
X9789200D01*
Y6452900D01*
X9814600Y6427500D01*
X9789200Y6402100D01*
Y6376700D01*
X9846700Y4144200D02*
X9872100D01*
X9897500Y4169600D01*
X9922900Y4144200D01*
X9948300D01*
Y4169600D01*
X9922900Y4195000D01*
X9948300Y4220400D01*
Y4245800D01*
X9922900D01*
X9897500Y4220400D01*
X9872100Y4245800D01*
X9846700D01*
Y4220400D01*
X9872100Y4195000D01*
X9846700Y4169600D01*
Y4144200D01*
X9746700D02*
X9772100D01*
X9797500Y4169600D01*
X9822900Y4144200D01*
X9848300D01*
Y4169600D01*
X9822900Y4195000D01*
X9848300Y4220400D01*
Y4245800D01*
X9822900D01*
X9797500Y4220400D01*
X9772100Y4245800D01*
X9746700D01*
Y4220400D01*
X9772100Y4195000D01*
X9746700Y4169600D01*
Y4144200D01*
X10334200Y5254200D02*
X10359600D01*
X10385000Y5279600D01*
X10410400Y5254200D01*
X10435800D01*
Y5279600D01*
X10410400Y5305000D01*
X10435800Y5330400D01*
Y5355800D01*
X10410400D01*
X10385000Y5330400D01*
X10359600Y5355800D01*
X10334200D01*
Y5330400D01*
X10359600Y5305000D01*
X10334200Y5279600D01*
Y5254200D01*
X10124200Y5421700D02*
X10149600D01*
X10175000Y5447100D01*
X10200400Y5421700D01*
X10225800D01*
Y5447100D01*
X10200400Y5472500D01*
X10225800Y5497900D01*
Y5523300D01*
X10200400D01*
X10175000Y5497900D01*
X10149600Y5523300D01*
X10124200D01*
Y5497900D01*
X10149600Y5472500D01*
X10124200Y5447100D01*
Y5421700D01*
Y5706700D02*
X10149600D01*
X10175000Y5732100D01*
X10200400Y5706700D01*
X10225800D01*
Y5732100D01*
X10200400Y5757500D01*
X10225800Y5782900D01*
Y5808300D01*
X10200400D01*
X10175000Y5782900D01*
X10149600Y5808300D01*
X10124200D01*
Y5782900D01*
X10149600Y5757500D01*
X10124200Y5732100D01*
Y5706700D01*
Y5564200D02*
X10149600D01*
X10175000Y5589600D01*
X10200400Y5564200D01*
X10225800D01*
Y5589600D01*
X10200400Y5615000D01*
X10225800Y5640400D01*
Y5665800D01*
X10200400D01*
X10175000Y5640400D01*
X10149600Y5665800D01*
X10124200D01*
Y5640400D01*
X10149600Y5615000D01*
X10124200Y5589600D01*
Y5564200D01*
X10504200Y4399200D02*
X10529600D01*
X10555000Y4424600D01*
X10580400Y4399200D01*
X10605800D01*
Y4424600D01*
X10580400Y4450000D01*
X10605800Y4475400D01*
Y4500800D01*
X10580400D01*
X10555000Y4475400D01*
X10529600Y4500800D01*
X10504200D01*
Y4475400D01*
X10529600Y4450000D01*
X10504200Y4424600D01*
Y4399200D01*
X10501700Y4496700D02*
X10527100D01*
X10552500Y4522100D01*
X10577900Y4496700D01*
X10603300D01*
Y4522100D01*
X10577900Y4547500D01*
X10603300Y4572900D01*
Y4598300D01*
X10577900D01*
X10552500Y4572900D01*
X10527100Y4598300D01*
X10501700D01*
Y4572900D01*
X10527100Y4547500D01*
X10501700Y4522100D01*
Y4496700D01*
X10544200Y3979200D02*
X10569600D01*
X10595000Y4004600D01*
X10620400Y3979200D01*
X10645800D01*
Y4004600D01*
X10620400Y4030000D01*
X10645800Y4055400D01*
Y4080800D01*
X10620400D01*
X10595000Y4055400D01*
X10569600Y4080800D01*
X10544200D01*
Y4055400D01*
X10569600Y4030000D01*
X10544200Y4004600D01*
Y3979200D01*
X10461700Y4044200D02*
X10487100D01*
X10512500Y4069600D01*
X10537900Y4044200D01*
X10563300D01*
Y4069600D01*
X10537900Y4095000D01*
X10563300Y4120400D01*
Y4145800D01*
X10537900D01*
X10512500Y4120400D01*
X10487100Y4145800D01*
X10461700D01*
Y4120400D01*
X10487100Y4095000D01*
X10461700Y4069600D01*
Y4044200D01*
X10549200Y4896700D02*
X10574600D01*
X10600000Y4922100D01*
X10625400Y4896700D01*
X10650800D01*
Y4922100D01*
X10625400Y4947500D01*
X10650800Y4972900D01*
Y4998300D01*
X10625400D01*
X10600000Y4972900D01*
X10574600Y4998300D01*
X10549200D01*
Y4972900D01*
X10574600Y4947500D01*
X10549200Y4922100D01*
Y4896700D01*
X10534200Y5254200D02*
X10559600D01*
X10585000Y5279600D01*
X10610400Y5254200D01*
X10635800D01*
Y5279600D01*
X10610400Y5305000D01*
X10635800Y5330400D01*
Y5355800D01*
X10610400D01*
X10585000Y5330400D01*
X10559600Y5355800D01*
X10534200D01*
Y5330400D01*
X10559600Y5305000D01*
X10534200Y5279600D01*
Y5254200D01*
X7291700Y6839200D02*
X7317100D01*
X7342500Y6864600D01*
X7367900Y6839200D01*
X7393300D01*
Y6864600D01*
X7367900Y6890000D01*
X7393300Y6915400D01*
Y6940800D01*
X7367900D01*
X7342500Y6915400D01*
X7317100Y6940800D01*
X7291700D01*
Y6915400D01*
X7317100Y6890000D01*
X7291700Y6864600D01*
Y6839200D01*
X6589200Y3614200D02*
X6614600D01*
X6640000Y3639600D01*
X6665400Y3614200D01*
X6690800D01*
Y3639600D01*
X6665400Y3665000D01*
X6690800Y3690400D01*
Y3715800D01*
X6665400D01*
X6640000Y3690400D01*
X6614600Y3715800D01*
X6589200D01*
Y3690400D01*
X6614600Y3665000D01*
X6589200Y3639600D01*
Y3614200D01*
Y4094200D02*
X6614600D01*
X6640000Y4119600D01*
X6665400Y4094200D01*
X6690800D01*
Y4119600D01*
X6665400Y4145000D01*
X6690800Y4170400D01*
Y4195800D01*
X6665400D01*
X6640000Y4170400D01*
X6614600Y4195800D01*
X6589200D01*
Y4170400D01*
X6614600Y4145000D01*
X6589200Y4119600D01*
Y4094200D01*
Y4401700D02*
X6614600D01*
X6640000Y4427100D01*
X6665400Y4401700D01*
X6690800D01*
Y4427100D01*
X6665400Y4452500D01*
X6690800Y4477900D01*
Y4503300D01*
X6665400D01*
X6640000Y4477900D01*
X6614600Y4503300D01*
X6589200D01*
Y4477900D01*
X6614600Y4452500D01*
X6589200Y4427100D01*
Y4401700D01*
X8744200Y4979200D02*
X8769600D01*
X8795000Y5004600D01*
X8820400Y4979200D01*
X8845800D01*
Y5004600D01*
X8820400Y5030000D01*
X8845800Y5055400D01*
Y5080800D01*
X8820400D01*
X8795000Y5055400D01*
X8769600Y5080800D01*
X8744200D01*
Y5055400D01*
X8769600Y5030000D01*
X8744200Y5004600D01*
Y4979200D01*
X7811700Y4304200D02*
X7837100D01*
X7862500Y4329600D01*
X7887900Y4304200D01*
X7913300D01*
Y4329600D01*
X7887900Y4355000D01*
X7913300Y4380400D01*
Y4405800D01*
X7887900D01*
X7862500Y4380400D01*
X7837100Y4405800D01*
X7811700D01*
Y4380400D01*
X7837100Y4355000D01*
X7811700Y4329600D01*
Y4304200D01*
X7864200Y3694200D02*
X7889600D01*
X7915000Y3719600D01*
X7940400Y3694200D01*
X7965800D01*
Y3719600D01*
X7940400Y3745000D01*
X7965800Y3770400D01*
Y3795800D01*
X7940400D01*
X7915000Y3770400D01*
X7889600Y3795800D01*
X7864200D01*
Y3770400D01*
X7889600Y3745000D01*
X7864200Y3719600D01*
Y3694200D01*
X6866700Y3614200D02*
X6892100D01*
X6917500Y3639600D01*
X6942900Y3614200D01*
X6968300D01*
Y3639600D01*
X6942900Y3665000D01*
X6968300Y3690400D01*
Y3715800D01*
X6942900D01*
X6917500Y3690400D01*
X6892100Y3715800D01*
X6866700D01*
Y3690400D01*
X6892100Y3665000D01*
X6866700Y3639600D01*
Y3614200D01*
X9191700Y3966700D02*
X9217100D01*
X9242500Y3992100D01*
X9267900Y3966700D01*
X9293300D01*
Y3992100D01*
X9267900Y4017500D01*
X9293300Y4042900D01*
Y4068300D01*
X9267900D01*
X9242500Y4042900D01*
X9217100Y4068300D01*
X9191700D01*
Y4042900D01*
X9217100Y4017500D01*
X9191700Y3992100D01*
Y3966700D01*
X10624200Y3611700D02*
X10649600D01*
X10675000Y3637100D01*
X10700400Y3611700D01*
X10725800D01*
Y3637100D01*
X10700400Y3662500D01*
X10725800Y3687900D01*
Y3713300D01*
X10700400D01*
X10675000Y3687900D01*
X10649600Y3713300D01*
X10624200D01*
Y3687900D01*
X10649600Y3662500D01*
X10624200Y3637100D01*
Y3611700D01*
X11076700Y3634200D02*
X11102100D01*
X11127500Y3659600D01*
X11152900Y3634200D01*
X11178300D01*
Y3659600D01*
X11152900Y3685000D01*
X11178300Y3710400D01*
Y3735800D01*
X11152900D01*
X11127500Y3710400D01*
X11102100Y3735800D01*
X11076700D01*
Y3710400D01*
X11102100Y3685000D01*
X11076700Y3659600D01*
Y3634200D01*
X11081487Y4415441D02*
X11106887D01*
X11132287Y4440841D01*
X11157687Y4415441D01*
X11183087D01*
Y4440841D01*
X11157687Y4466241D01*
X11183087Y4491641D01*
Y4517041D01*
X11157687D01*
X11132287Y4491641D01*
X11106887Y4517041D01*
X11081487D01*
Y4491641D01*
X11106887Y4466241D01*
X11081487Y4440841D01*
Y4415441D01*
X11069200Y5006700D02*
X11094600D01*
X11120000Y5032100D01*
X11145400Y5006700D01*
X11170800D01*
Y5032100D01*
X11145400Y5057500D01*
X11170800Y5082900D01*
Y5108300D01*
X11145400D01*
X11120000Y5082900D01*
X11094600Y5108300D01*
X11069200D01*
Y5082900D01*
X11094600Y5057500D01*
X11069200Y5032100D01*
Y5006700D01*
X11070422Y5707182D02*
X11095822D01*
X11121222Y5732582D01*
X11146622Y5707182D01*
X11172022D01*
Y5732582D01*
X11146622Y5757982D01*
X11172022Y5783382D01*
Y5808782D01*
X11146622D01*
X11121222Y5783382D01*
X11095822Y5808782D01*
X11070422D01*
Y5783382D01*
X11095822Y5757982D01*
X11070422Y5732582D01*
Y5707182D01*
X9284200Y6144200D02*
X9309600D01*
X9335000Y6169600D01*
X9360400Y6144200D01*
X9385800D01*
Y6169600D01*
X9360400Y6195000D01*
X9385800Y6220400D01*
Y6245800D01*
X9360400D01*
X9335000Y6220400D01*
X9309600Y6245800D01*
X9284200D01*
Y6220400D01*
X9309600Y6195000D01*
X9284200Y6169600D01*
Y6144200D01*
X9065700Y6449200D02*
X9091100D01*
X9116500Y6474600D01*
X9141900Y6449200D01*
X9167300D01*
Y6474600D01*
X9141900Y6500000D01*
X9167300Y6525400D01*
Y6550800D01*
X9141900D01*
X9116500Y6525400D01*
X9091100Y6550800D01*
X9065700D01*
Y6525400D01*
X9091100Y6500000D01*
X9065700Y6474600D01*
Y6449200D01*
X8666532Y6400771D02*
X8691932D01*
X8717332Y6426171D01*
X8742732Y6400771D01*
X8768132D01*
Y6426171D01*
X8742732Y6451571D01*
X8768132Y6476971D01*
Y6502371D01*
X8742732D01*
X8717332Y6476971D01*
X8691932Y6502371D01*
X8666532D01*
Y6476971D01*
X8691932Y6451571D01*
X8666532Y6426171D01*
Y6400771D01*
X9134200Y6306700D02*
X9159600D01*
X9185000Y6332100D01*
X9210400Y6306700D01*
X9235800D01*
Y6332100D01*
X9210400Y6357500D01*
X9235800Y6382900D01*
Y6408300D01*
X9210400D01*
X9185000Y6382900D01*
X9159600Y6408300D01*
X9134200D01*
Y6382900D01*
X9159600Y6357500D01*
X9134200Y6332100D01*
Y6306700D01*
X9409200Y5664200D02*
X9434600D01*
X9460000Y5689600D01*
X9485400Y5664200D01*
X9510800D01*
Y5689600D01*
X9485400Y5715000D01*
X9510800Y5740400D01*
Y5765800D01*
X9485400D01*
X9460000Y5740400D01*
X9434600Y5765800D01*
X9409200D01*
Y5740400D01*
X9434600Y5715000D01*
X9409200Y5689600D01*
Y5664200D01*
X10171700Y4421700D02*
X10197100D01*
X10222500Y4447100D01*
X10247900Y4421700D01*
X10273300D01*
Y4447100D01*
X10247900Y4472500D01*
X10273300Y4497900D01*
Y4523300D01*
X10247900D01*
X10222500Y4497900D01*
X10197100Y4523300D01*
X10171700D01*
Y4497900D01*
X10197100Y4472500D01*
X10171700Y4447100D01*
Y4421700D01*
X9416700Y4514200D02*
X9442100D01*
X9467500Y4539600D01*
X9492900Y4514200D01*
X9518300D01*
Y4539600D01*
X9492900Y4565000D01*
X9518300Y4590400D01*
Y4615800D01*
X9492900D01*
X9467500Y4590400D01*
X9442100Y4615800D01*
X9416700D01*
Y4590400D01*
X9442100Y4565000D01*
X9416700Y4539600D01*
Y4514200D01*
X10236700Y5191700D02*
X10262100D01*
X10287500Y5217100D01*
X10312900Y5191700D01*
X10338300D01*
Y5217100D01*
X10312900Y5242500D01*
X10338300Y5267900D01*
Y5293300D01*
X10312900D01*
X10287500Y5267900D01*
X10262100Y5293300D01*
X10236700D01*
Y5267900D01*
X10262100Y5242500D01*
X10236700Y5217100D01*
Y5191700D01*
X9399200Y4609200D02*
X9424600D01*
X9450000Y4634600D01*
X9475400Y4609200D01*
X9500800D01*
Y4634600D01*
X9475400Y4660000D01*
X9500800Y4685400D01*
Y4710800D01*
X9475400D01*
X9450000Y4685400D01*
X9424600Y4710800D01*
X9399200D01*
Y4685400D01*
X9424600Y4660000D01*
X9399200Y4634600D01*
Y4609200D01*
X8746700Y4754200D02*
X8772100D01*
X8797500Y4779600D01*
X8822900Y4754200D01*
X8848300D01*
Y4779600D01*
X8822900Y4805000D01*
X8848300Y4830400D01*
Y4855800D01*
X8822900D01*
X8797500Y4830400D01*
X8772100Y4855800D01*
X8746700D01*
Y4830400D01*
X8772100Y4805000D01*
X8746700Y4779600D01*
Y4754200D01*
X8666700Y4681700D02*
X8692100D01*
X8717500Y4707100D01*
X8742900Y4681700D01*
X8768300D01*
Y4707100D01*
X8742900Y4732500D01*
X8768300Y4757900D01*
Y4783300D01*
X8742900D01*
X8717500Y4757900D01*
X8692100Y4783300D01*
X8666700D01*
Y4757900D01*
X8692100Y4732500D01*
X8666700Y4707100D01*
Y4681700D01*
X9056700Y5246700D02*
X9082100D01*
X9107500Y5272100D01*
X9132900Y5246700D01*
X9158300D01*
Y5272100D01*
X9132900Y5297500D01*
X9158300Y5322900D01*
Y5348300D01*
X9132900D01*
X9107500Y5322900D01*
X9082100Y5348300D01*
X9056700D01*
Y5322900D01*
X9082100Y5297500D01*
X9056700Y5272100D01*
Y5246700D01*
X8804200Y4361700D02*
X8829600D01*
X8855000Y4387100D01*
X8880400Y4361700D01*
X8905800D01*
Y4387100D01*
X8880400Y4412500D01*
X8905800Y4437900D01*
Y4463300D01*
X8880400D01*
X8855000Y4437900D01*
X8829600Y4463300D01*
X8804200D01*
Y4437900D01*
X8829600Y4412500D01*
X8804200Y4387100D01*
Y4361700D01*
X8794200Y4219200D02*
X8819600D01*
X8845000Y4244600D01*
X8870400Y4219200D01*
X8895800D01*
Y4244600D01*
X8870400Y4270000D01*
X8895800Y4295400D01*
Y4320800D01*
X8870400D01*
X8845000Y4295400D01*
X8819600Y4320800D01*
X8794200D01*
Y4295400D01*
X8819600Y4270000D01*
X8794200Y4244600D01*
Y4219200D01*
X8914200Y4336700D02*
X8939600D01*
X8965000Y4362100D01*
X8990400Y4336700D01*
X9015800D01*
Y4362100D01*
X8990400Y4387500D01*
X9015800Y4412900D01*
Y4438300D01*
X8990400D01*
X8965000Y4412900D01*
X8939600Y4438300D01*
X8914200D01*
Y4412900D01*
X8939600Y4387500D01*
X8914200Y4362100D01*
Y4336700D01*
X8746700Y4441700D02*
X8772100D01*
X8797500Y4467100D01*
X8822900Y4441700D01*
X8848300D01*
Y4467100D01*
X8822900Y4492500D01*
X8848300Y4517900D01*
Y4543300D01*
X8822900D01*
X8797500Y4517900D01*
X8772100Y4543300D01*
X8746700D01*
Y4517900D01*
X8772100Y4492500D01*
X8746700Y4467100D01*
Y4441700D01*
X8669200Y4929200D02*
X8694600D01*
X8720000Y4954600D01*
X8745400Y4929200D01*
X8770800D01*
Y4954600D01*
X8745400Y4980000D01*
X8770800Y5005400D01*
Y5030800D01*
X8745400D01*
X8720000Y5005400D01*
X8694600Y5030800D01*
X8669200D01*
Y5005400D01*
X8694600Y4980000D01*
X8669200Y4954600D01*
Y4929200D01*
X8616700Y4474200D02*
X8642100D01*
X8667500Y4499600D01*
X8692900Y4474200D01*
X8718300D01*
Y4499600D01*
X8692900Y4525000D01*
X8718300Y4550400D01*
Y4575800D01*
X8692900D01*
X8667500Y4550400D01*
X8642100Y4575800D01*
X8616700D01*
Y4550400D01*
X8642100Y4525000D01*
X8616700Y4499600D01*
Y4474200D01*
X8524200Y4461700D02*
X8549600D01*
X8575000Y4487100D01*
X8600400Y4461700D01*
X8625800D01*
Y4487100D01*
X8600400Y4512500D01*
X8625800Y4537900D01*
Y4563300D01*
X8600400D01*
X8575000Y4537900D01*
X8549600Y4563300D01*
X8524200D01*
Y4537900D01*
X8549600Y4512500D01*
X8524200Y4487100D01*
Y4461700D01*
X8456700Y4396700D02*
X8482100D01*
X8507500Y4422100D01*
X8532900Y4396700D01*
X8558300D01*
Y4422100D01*
X8532900Y4447500D01*
X8558300Y4472900D01*
Y4498300D01*
X8532900D01*
X8507500Y4472900D01*
X8482100Y4498300D01*
X8456700D01*
Y4472900D01*
X8482100Y4447500D01*
X8456700Y4422100D01*
Y4396700D01*
X8371700Y4586700D02*
X8397100D01*
X8422500Y4612100D01*
X8447900Y4586700D01*
X8473300D01*
Y4612100D01*
X8447900Y4637500D01*
X8473300Y4662900D01*
Y4688300D01*
X8447900D01*
X8422500Y4662900D01*
X8397100Y4688300D01*
X8371700D01*
Y4662900D01*
X8397100Y4637500D01*
X8371700Y4612100D01*
Y4586700D01*
X8426700Y4659200D02*
X8452100D01*
X8477500Y4684600D01*
X8502900Y4659200D01*
X8528300D01*
Y4684600D01*
X8502900Y4710000D01*
X8528300Y4735400D01*
Y4760800D01*
X8502900D01*
X8477500Y4735400D01*
X8452100Y4760800D01*
X8426700D01*
Y4735400D01*
X8452100Y4710000D01*
X8426700Y4684600D01*
Y4659200D01*
X8221700Y4454200D02*
X8247100D01*
X8272500Y4479600D01*
X8297900Y4454200D01*
X8323300D01*
Y4479600D01*
X8297900Y4505000D01*
X8323300Y4530400D01*
Y4555800D01*
X8297900D01*
X8272500Y4530400D01*
X8247100Y4555800D01*
X8221700D01*
Y4530400D01*
X8247100Y4505000D01*
X8221700Y4479600D01*
Y4454200D01*
X8149200Y4396700D02*
X8174600D01*
X8200000Y4422100D01*
X8225400Y4396700D01*
X8250800D01*
Y4422100D01*
X8225400Y4447500D01*
X8250800Y4472900D01*
Y4498300D01*
X8225400D01*
X8200000Y4472900D01*
X8174600Y4498300D01*
X8149200D01*
Y4472900D01*
X8174600Y4447500D01*
X8149200Y4422100D01*
Y4396700D01*
X8151288Y4591700D02*
X8176688D01*
X8202088Y4617100D01*
X8227488Y4591700D01*
X8252888D01*
Y4617100D01*
X8227488Y4642500D01*
X8252888Y4667900D01*
Y4693300D01*
X8227488D01*
X8202088Y4667900D01*
X8176688Y4693300D01*
X8151288D01*
Y4667900D01*
X8176688Y4642500D01*
X8151288Y4617100D01*
Y4591700D01*
X8704200Y4599200D02*
X8729600D01*
X8755000Y4624600D01*
X8780400Y4599200D01*
X8805800D01*
Y4624600D01*
X8780400Y4650000D01*
X8805800Y4675400D01*
Y4700800D01*
X8780400D01*
X8755000Y4675400D01*
X8729600Y4700800D01*
X8704200D01*
Y4675400D01*
X8729600Y4650000D01*
X8704200Y4624600D01*
Y4599200D01*
X8796700Y3984200D02*
X8822100D01*
X8847500Y4009600D01*
X8872900Y3984200D01*
X8898300D01*
Y4009600D01*
X8872900Y4035000D01*
X8898300Y4060400D01*
Y4085800D01*
X8872900D01*
X8847500Y4060400D01*
X8822100Y4085800D01*
X8796700D01*
Y4060400D01*
X8822100Y4035000D01*
X8796700Y4009600D01*
Y3984200D01*
X9106700Y5404200D02*
X9132100D01*
X9157500Y5429600D01*
X9182900Y5404200D01*
X9208300D01*
Y5429600D01*
X9182900Y5455000D01*
X9208300Y5480400D01*
Y5505800D01*
X9182900D01*
X9157500Y5480400D01*
X9132100Y5505800D01*
X9106700D01*
Y5480400D01*
X9132100Y5455000D01*
X9106700Y5429600D01*
Y5404200D01*
X8471700Y4749200D02*
X8497100D01*
X8522500Y4774600D01*
X8547900Y4749200D01*
X8573300D01*
Y4774600D01*
X8547900Y4800000D01*
X8573300Y4825400D01*
Y4850800D01*
X8547900D01*
X8522500Y4825400D01*
X8497100Y4850800D01*
X8471700D01*
Y4825400D01*
X8497100Y4800000D01*
X8471700Y4774600D01*
Y4749200D01*
X9531700Y5824200D02*
X9557100D01*
X9582500Y5849600D01*
X9607900Y5824200D01*
X9633300D01*
Y5849600D01*
X9607900Y5875000D01*
X9633300Y5900400D01*
Y5925800D01*
X9607900D01*
X9582500Y5900400D01*
X9557100Y5925800D01*
X9531700D01*
Y5900400D01*
X9557100Y5875000D01*
X9531700Y5849600D01*
Y5824200D01*
X9376700Y5424200D02*
X9402100D01*
X9427500Y5449600D01*
X9452900Y5424200D01*
X9478300D01*
Y5449600D01*
X9452900Y5475000D01*
X9478300Y5500400D01*
Y5525800D01*
X9452900D01*
X9427500Y5500400D01*
X9402100Y5525800D01*
X9376700D01*
Y5500400D01*
X9402100Y5475000D01*
X9376700Y5449600D01*
Y5424200D01*
X9391700Y5174200D02*
X9417100D01*
X9442500Y5199600D01*
X9467900Y5174200D01*
X9493300D01*
Y5199600D01*
X9467900Y5225000D01*
X9493300Y5250400D01*
Y5275800D01*
X9467900D01*
X9442500Y5250400D01*
X9417100Y5275800D01*
X9391700D01*
Y5250400D01*
X9417100Y5225000D01*
X9391700Y5199600D01*
Y5174200D01*
X9379200Y5266700D02*
X9404600D01*
X9430000Y5292100D01*
X9455400Y5266700D01*
X9480800D01*
Y5292100D01*
X9455400Y5317500D01*
X9480800Y5342900D01*
Y5368300D01*
X9455400D01*
X9430000Y5342900D01*
X9404600Y5368300D01*
X9379200D01*
Y5342900D01*
X9404600Y5317500D01*
X9379200Y5292100D01*
Y5266700D01*
X9954200Y5279200D02*
X9979600D01*
X10005000Y5304600D01*
X10030400Y5279200D01*
X10055800D01*
Y5304600D01*
X10030400Y5330000D01*
X10055800Y5355400D01*
Y5380800D01*
X10030400D01*
X10005000Y5355400D01*
X9979600Y5380800D01*
X9954200D01*
Y5355400D01*
X9979600Y5330000D01*
X9954200Y5304600D01*
Y5279200D01*
X9854200D02*
X9879600D01*
X9905000Y5304600D01*
X9930400Y5279200D01*
X9955800D01*
Y5304600D01*
X9930400Y5330000D01*
X9955800Y5355400D01*
Y5380800D01*
X9930400D01*
X9905000Y5355400D01*
X9879600Y5380800D01*
X9854200D01*
Y5355400D01*
X9879600Y5330000D01*
X9854200Y5304600D01*
Y5279200D01*
X10052183Y4759435D02*
X10077583D01*
X10102983Y4784835D01*
X10128383Y4759435D01*
X10153783D01*
Y4784835D01*
X10128383Y4810235D01*
X10153783Y4835635D01*
Y4861035D01*
X10128383D01*
X10102983Y4835635D01*
X10077583Y4861035D01*
X10052183D01*
Y4835635D01*
X10077583Y4810235D01*
X10052183Y4784835D01*
Y4759435D01*
X9954200Y4759200D02*
X9979600D01*
X10005000Y4784600D01*
X10030400Y4759200D01*
X10055800D01*
Y4784600D01*
X10030400Y4810000D01*
X10055800Y4835400D01*
Y4860800D01*
X10030400D01*
X10005000Y4835400D01*
X9979600Y4860800D01*
X9954200D01*
Y4835400D01*
X9979600Y4810000D01*
X9954200Y4784600D01*
Y4759200D01*
X9954200Y4529200D02*
X9979600D01*
X10005000Y4554600D01*
X10030400Y4529200D01*
X10055800D01*
Y4554600D01*
X10030400Y4580000D01*
X10055800Y4605400D01*
Y4630800D01*
X10030400D01*
X10005000Y4605400D01*
X9979600Y4630800D01*
X9954200D01*
Y4605400D01*
X9979600Y4580000D01*
X9954200Y4554600D01*
Y4529200D01*
X10054200D02*
X10079600D01*
X10105000Y4554600D01*
X10130400Y4529200D01*
X10155800D01*
Y4554600D01*
X10130400Y4580000D01*
X10155800Y4605400D01*
Y4630800D01*
X10130400D01*
X10105000Y4605400D01*
X10079600Y4630800D01*
X10054200D01*
Y4605400D01*
X10079600Y4580000D01*
X10054200Y4554600D01*
Y4529200D01*
X9396700Y5079200D02*
X9422100D01*
X9447500Y5104600D01*
X9472900Y5079200D01*
X9498300D01*
Y5104600D01*
X9472900Y5130000D01*
X9498300Y5155400D01*
Y5180800D01*
X9472900D01*
X9447500Y5155400D01*
X9422100Y5180800D01*
X9396700D01*
Y5155400D01*
X9422100Y5130000D01*
X9396700Y5104600D01*
Y5079200D01*
X9334200Y6499200D02*
X9359600D01*
X9385000Y6524600D01*
X9410400Y6499200D01*
X9435800D01*
Y6524600D01*
X9410400Y6550000D01*
X9435800Y6575400D01*
Y6600800D01*
X9410400D01*
X9385000Y6575400D01*
X9359600Y6600800D01*
X9334200D01*
Y6575400D01*
X9359600Y6550000D01*
X9334200Y6524600D01*
Y6499200D01*
X9203007Y6905351D02*
X9228407D01*
X9253807Y6930751D01*
X9279207Y6905351D01*
X9304607D01*
Y6930751D01*
X9279207Y6956151D01*
X9304607Y6981551D01*
Y7006951D01*
X9279207D01*
X9253807Y6981551D01*
X9228407Y7006951D01*
X9203007D01*
Y6981551D01*
X9228407Y6956151D01*
X9203007Y6930751D01*
Y6905351D01*
X9299200Y4134200D02*
X9324600D01*
X9350000Y4159600D01*
X9375400Y4134200D01*
X9400800D01*
Y4159600D01*
X9375400Y4185000D01*
X9400800Y4210400D01*
Y4235800D01*
X9375400D01*
X9350000Y4210400D01*
X9324600Y4235800D01*
X9299200D01*
Y4210400D01*
X9324600Y4185000D01*
X9299200Y4159600D01*
Y4134200D01*
X7122050Y4616928D02*
X7147450D01*
X7172850Y4642328D01*
X7198250Y4616928D01*
X7223650D01*
Y4642328D01*
X7198250Y4667728D01*
X7223650Y4693128D01*
Y4718528D01*
X7198250D01*
X7172850Y4693128D01*
X7147450Y4718528D01*
X7122050D01*
Y4693128D01*
X7147450Y4667728D01*
X7122050Y4642328D01*
Y4616928D01*
X7899200Y4544200D02*
X7924600D01*
X7950000Y4569600D01*
X7975400Y4544200D01*
X8000800D01*
Y4569600D01*
X7975400Y4595000D01*
X8000800Y4620400D01*
Y4645800D01*
X7975400D01*
X7950000Y4620400D01*
X7924600Y4645800D01*
X7899200D01*
Y4620400D01*
X7924600Y4595000D01*
X7899200Y4569600D01*
Y4544200D01*
Y4634200D02*
X7924600D01*
X7950000Y4659600D01*
X7975400Y4634200D01*
X8000800D01*
Y4659600D01*
X7975400Y4685000D01*
X8000800Y4710400D01*
Y4735800D01*
X7975400D01*
X7950000Y4710400D01*
X7924600Y4735800D01*
X7899200D01*
Y4710400D01*
X7924600Y4685000D01*
X7899200Y4659600D01*
Y4634200D01*
X10391059Y5081039D02*
X10416459D01*
X10441859Y5106439D01*
X10467259Y5081039D01*
X10492659D01*
Y5106439D01*
X10467259Y5131839D01*
X10492659Y5157239D01*
Y5182639D01*
X10467259D01*
X10441859Y5157239D01*
X10416459Y5182639D01*
X10391059D01*
Y5157239D01*
X10416459Y5131839D01*
X10391059Y5106439D01*
Y5081039D01*
X10413155Y4282428D02*
X10438555D01*
X10463955Y4307828D01*
X10489355Y4282428D01*
X10514755D01*
Y4307828D01*
X10489355Y4333228D01*
X10514755Y4358628D01*
Y4384028D01*
X10489355D01*
X10463955Y4358628D01*
X10438555Y4384028D01*
X10413155D01*
Y4358628D01*
X10438555Y4333228D01*
X10413155Y4307828D01*
Y4282428D01*
X10544200Y4209200D02*
X10569600D01*
X10595000Y4234600D01*
X10620400Y4209200D01*
X10645800D01*
Y4234600D01*
X10620400Y4260000D01*
X10645800Y4285400D01*
Y4310800D01*
X10620400D01*
X10595000Y4285400D01*
X10569600Y4310800D01*
X10544200D01*
Y4285400D01*
X10569600Y4260000D01*
X10544200Y4234600D01*
Y4209200D01*
X10546700Y5101700D02*
X10572100D01*
X10597500Y5127100D01*
X10622900Y5101700D01*
X10648300D01*
Y5127100D01*
X10622900Y5152500D01*
X10648300Y5177900D01*
Y5203300D01*
X10622900D01*
X10597500Y5177900D01*
X10572100Y5203300D01*
X10546700D01*
Y5177900D01*
X10572100Y5152500D01*
X10546700Y5127100D01*
Y5101700D01*
X9519200Y5514200D02*
X9544600D01*
X9570000Y5539600D01*
X9595400Y5514200D01*
X9620800D01*
Y5539600D01*
X9595400Y5565000D01*
X9620800Y5590400D01*
Y5615800D01*
X9595400D01*
X9570000Y5590400D01*
X9544600Y5615800D01*
X9519200D01*
Y5590400D01*
X9544600Y5565000D01*
X9519200Y5539600D01*
Y5514200D01*
X9504200Y5629200D02*
X9529600D01*
X9555000Y5654600D01*
X9580400Y5629200D01*
X9605800D01*
Y5654600D01*
X9580400Y5680000D01*
X9605800Y5705400D01*
Y5730800D01*
X9580400D01*
X9555000Y5705400D01*
X9529600Y5730800D01*
X9504200D01*
Y5705400D01*
X9529600Y5680000D01*
X9504200Y5654600D01*
Y5629200D01*
X9034200Y4046700D02*
X9059600D01*
X9085000Y4072100D01*
X9110400Y4046700D01*
X9135800D01*
Y4072100D01*
X9110400Y4097500D01*
X9135800Y4122900D01*
Y4148300D01*
X9110400D01*
X9085000Y4122900D01*
X9059600Y4148300D01*
X9034200D01*
Y4122900D01*
X9059600Y4097500D01*
X9034200Y4072100D01*
Y4046700D01*
X9006700Y3744200D02*
X9032100D01*
X9057500Y3769600D01*
X9082900Y3744200D01*
X9108300D01*
Y3769600D01*
X9082900Y3795000D01*
X9108300Y3820400D01*
Y3845800D01*
X9082900D01*
X9057500Y3820400D01*
X9032100Y3845800D01*
X9006700D01*
Y3820400D01*
X9032100Y3795000D01*
X9006700Y3769600D01*
Y3744200D01*
X9859200Y6111700D02*
X9884600D01*
X9910000Y6137100D01*
X9935400Y6111700D01*
X9960800D01*
Y6137100D01*
X9935400Y6162500D01*
X9960800Y6187900D01*
Y6213300D01*
X9935400D01*
X9910000Y6187900D01*
X9884600Y6213300D01*
X9859200D01*
Y6187900D01*
X9884600Y6162500D01*
X9859200Y6137100D01*
Y6111700D01*
X9759200D02*
X9784600D01*
X9810000Y6137100D01*
X9835400Y6111700D01*
X9860800D01*
Y6137100D01*
X9835400Y6162500D01*
X9860800Y6187900D01*
Y6213300D01*
X9835400D01*
X9810000Y6187900D01*
X9784600Y6213300D01*
X9759200D01*
Y6187900D01*
X9784600Y6162500D01*
X9759200Y6137100D01*
Y6111700D01*
X9859200Y6014200D02*
X9884600D01*
X9910000Y6039600D01*
X9935400Y6014200D01*
X9960800D01*
Y6039600D01*
X9935400Y6065000D01*
X9960800Y6090400D01*
Y6115800D01*
X9935400D01*
X9910000Y6090400D01*
X9884600Y6115800D01*
X9859200D01*
Y6090400D01*
X9884600Y6065000D01*
X9859200Y6039600D01*
Y6014200D01*
X9759200D02*
X9784600D01*
X9810000Y6039600D01*
X9835400Y6014200D01*
X9860800D01*
Y6039600D01*
X9835400Y6065000D01*
X9860800Y6090400D01*
Y6115800D01*
X9835400D01*
X9810000Y6090400D01*
X9784600Y6115800D01*
X9759200D01*
Y6090400D01*
X9784600Y6065000D01*
X9759200Y6039600D01*
Y6014200D01*
X9959200D02*
X9984600D01*
X10010000Y6039600D01*
X10035400Y6014200D01*
X10060800D01*
Y6039600D01*
X10035400Y6065000D01*
X10060800Y6090400D01*
Y6115800D01*
X10035400D01*
X10010000Y6090400D01*
X9984600Y6115800D01*
X9959200D01*
Y6090400D01*
X9984600Y6065000D01*
X9959200Y6039600D01*
Y6014200D01*
X10059200D02*
X10084600D01*
X10110000Y6039600D01*
X10135400Y6014200D01*
X10160800D01*
Y6039600D01*
X10135400Y6065000D01*
X10160800Y6090400D01*
Y6115800D01*
X10135400D01*
X10110000Y6090400D01*
X10084600Y6115800D01*
X10059200D01*
Y6090400D01*
X10084600Y6065000D01*
X10059200Y6039600D01*
Y6014200D01*
X9959200Y6111700D02*
X9984600D01*
X10010000Y6137100D01*
X10035400Y6111700D01*
X10060800D01*
Y6137100D01*
X10035400Y6162500D01*
X10060800Y6187900D01*
Y6213300D01*
X10035400D01*
X10010000Y6187900D01*
X9984600Y6213300D01*
X9959200D01*
Y6187900D01*
X9984600Y6162500D01*
X9959200Y6137100D01*
Y6111700D01*
X10059200D02*
X10084600D01*
X10110000Y6137100D01*
X10135400Y6111700D01*
X10160800D01*
Y6137100D01*
X10135400Y6162500D01*
X10160800Y6187900D01*
Y6213300D01*
X10135400D01*
X10110000Y6187900D01*
X10084600Y6213300D01*
X10059200D01*
Y6187900D01*
X10084600Y6162500D01*
X10059200Y6137100D01*
Y6111700D01*
X9754200Y4759200D02*
X9779600D01*
X9805000Y4784600D01*
X9830400Y4759200D01*
X9855800D01*
Y4784600D01*
X9830400Y4810000D01*
X9855800Y4835400D01*
Y4860800D01*
X9830400D01*
X9805000Y4835400D01*
X9779600Y4860800D01*
X9754200D01*
Y4835400D01*
X9779600Y4810000D01*
X9754200Y4784600D01*
Y4759200D01*
X9852183Y4759435D02*
X9877583D01*
X9902983Y4784835D01*
X9928383Y4759435D01*
X9953783D01*
Y4784835D01*
X9928383Y4810235D01*
X9953783Y4835635D01*
Y4861035D01*
X9928383D01*
X9902983Y4835635D01*
X9877583Y4861035D01*
X9852183D01*
Y4835635D01*
X9877583Y4810235D01*
X9852183Y4784835D01*
Y4759435D01*
X9654200Y4529200D02*
X9679600D01*
X9705000Y4554600D01*
X9730400Y4529200D01*
X9755800D01*
Y4554600D01*
X9730400Y4580000D01*
X9755800Y4605400D01*
Y4630800D01*
X9730400D01*
X9705000Y4605400D01*
X9679600Y4630800D01*
X9654200D01*
Y4605400D01*
X9679600Y4580000D01*
X9654200Y4554600D01*
Y4529200D01*
X9754200D02*
X9779600D01*
X9805000Y4554600D01*
X9830400Y4529200D01*
X9855800D01*
Y4554600D01*
X9830400Y4580000D01*
X9855800Y4605400D01*
Y4630800D01*
X9830400D01*
X9805000Y4605400D01*
X9779600Y4630800D01*
X9754200D01*
Y4605400D01*
X9779600Y4580000D01*
X9754200Y4554600D01*
Y4529200D01*
X9854200D02*
X9879600D01*
X9905000Y4554600D01*
X9930400Y4529200D01*
X9955800D01*
Y4554600D01*
X9930400Y4580000D01*
X9955800Y4605400D01*
Y4630800D01*
X9930400D01*
X9905000Y4605400D01*
X9879600Y4630800D01*
X9854200D01*
Y4605400D01*
X9879600Y4580000D01*
X9854200Y4554600D01*
Y4529200D01*
X9399200Y4749200D02*
X9424600D01*
X9450000Y4774600D01*
X9475400Y4749200D01*
X9500800D01*
Y4774600D01*
X9475400Y4800000D01*
X9500800Y4825400D01*
Y4850800D01*
X9475400D01*
X9450000Y4825400D01*
X9424600Y4850800D01*
X9399200D01*
Y4825400D01*
X9424600Y4800000D01*
X9399200Y4774600D01*
Y4749200D01*
X9379200Y4354200D02*
X9404600D01*
X9430000Y4379600D01*
X9455400Y4354200D01*
X9480800D01*
Y4379600D01*
X9455400Y4405000D01*
X9480800Y4430400D01*
Y4455800D01*
X9455400D01*
X9430000Y4430400D01*
X9404600Y4455800D01*
X9379200D01*
Y4430400D01*
X9404600Y4405000D01*
X9379200Y4379600D01*
Y4354200D01*
X9396700Y4846700D02*
X9422100D01*
X9447500Y4872100D01*
X9472900Y4846700D01*
X9498300D01*
Y4872100D01*
X9472900Y4897500D01*
X9498300Y4922900D01*
Y4948300D01*
X9472900D01*
X9447500Y4922900D01*
X9422100Y4948300D01*
X9396700D01*
Y4922900D01*
X9422100Y4897500D01*
X9396700Y4872100D01*
Y4846700D01*
X9391700Y4989200D02*
X9417100D01*
X9442500Y5014600D01*
X9467900Y4989200D01*
X9493300D01*
Y5014600D01*
X9467900Y5040000D01*
X9493300Y5065400D01*
Y5090800D01*
X9467900D01*
X9442500Y5065400D01*
X9417100Y5090800D01*
X9391700D01*
Y5065400D01*
X9417100Y5040000D01*
X9391700Y5014600D01*
Y4989200D01*
X10236700Y4099200D02*
X10262100D01*
X10287500Y4124600D01*
X10312900Y4099200D01*
X10338300D01*
Y4124600D01*
X10312900Y4150000D01*
X10338300Y4175400D01*
Y4200800D01*
X10312900D01*
X10287500Y4175400D01*
X10262100Y4200800D01*
X10236700D01*
Y4175400D01*
X10262100Y4150000D01*
X10236700Y4124600D01*
Y4099200D01*
X10199200Y4184200D02*
X10224600D01*
X10250000Y4209600D01*
X10275400Y4184200D01*
X10300800D01*
Y4209600D01*
X10275400Y4235000D01*
X10300800Y4260400D01*
Y4285800D01*
X10275400D01*
X10250000Y4260400D01*
X10224600Y4285800D01*
X10199200D01*
Y4260400D01*
X10224600Y4235000D01*
X10199200Y4209600D01*
Y4184200D01*
X10249200Y4869200D02*
X10274600D01*
X10300000Y4894600D01*
X10325400Y4869200D01*
X10350800D01*
Y4894600D01*
X10325400Y4920000D01*
X10350800Y4945400D01*
Y4970800D01*
X10325400D01*
X10300000Y4945400D01*
X10274600Y4970800D01*
X10249200D01*
Y4945400D01*
X10274600Y4920000D01*
X10249200Y4894600D01*
Y4869200D01*
X10166700Y4946700D02*
X10192100D01*
X10217500Y4972100D01*
X10242900Y4946700D01*
X10268300D01*
Y4972100D01*
X10242900Y4997500D01*
X10268300Y5022900D01*
Y5048300D01*
X10242900D01*
X10217500Y5022900D01*
X10192100Y5048300D01*
X10166700D01*
Y5022900D01*
X10192100Y4997500D01*
X10166700Y4972100D01*
Y4946700D01*
X9654200Y4759200D02*
X9679600D01*
X9705000Y4784600D01*
X9730400Y4759200D01*
X9755800D01*
Y4784600D01*
X9730400Y4810000D01*
X9755800Y4835400D01*
Y4860800D01*
X9730400D01*
X9705000Y4835400D01*
X9679600Y4860800D01*
X9654200D01*
Y4835400D01*
X9679600Y4810000D01*
X9654200Y4784600D01*
Y4759200D01*
X10054200Y5279200D02*
X10079600D01*
X10105000Y5304600D01*
X10130400Y5279200D01*
X10155800D01*
Y5304600D01*
X10130400Y5330000D01*
X10155800Y5355400D01*
Y5380800D01*
X10130400D01*
X10105000Y5355400D01*
X10079600Y5380800D01*
X10054200D01*
Y5355400D01*
X10079600Y5330000D01*
X10054200Y5304600D01*
Y5279200D01*
X9754200D02*
X9779600D01*
X9805000Y5304600D01*
X9830400Y5279200D01*
X9855800D01*
Y5304600D01*
X9830400Y5330000D01*
X9855800Y5355400D01*
Y5380800D01*
X9830400D01*
X9805000Y5355400D01*
X9779600Y5380800D01*
X9754200D01*
Y5355400D01*
X9779600Y5330000D01*
X9754200Y5304600D01*
Y5279200D01*
X9654200Y4009200D02*
X9679600D01*
X9705000Y4034600D01*
X9730400Y4009200D01*
X9755800D01*
Y4034600D01*
X9730400Y4060000D01*
X9755800Y4085400D01*
Y4110800D01*
X9730400D01*
X9705000Y4085400D01*
X9679600Y4110800D01*
X9654200D01*
Y4085400D01*
X9679600Y4060000D01*
X9654200Y4034600D01*
Y4009200D01*
X9754200D02*
X9779600D01*
X9805000Y4034600D01*
X9830400Y4009200D01*
X9855800D01*
Y4034600D01*
X9830400Y4060000D01*
X9855800Y4085400D01*
Y4110800D01*
X9830400D01*
X9805000Y4085400D01*
X9779600Y4110800D01*
X9754200D01*
Y4085400D01*
X9779600Y4060000D01*
X9754200Y4034600D01*
Y4009200D01*
X9954200D02*
X9979600D01*
X10005000Y4034600D01*
X10030400Y4009200D01*
X10055800D01*
Y4034600D01*
X10030400Y4060000D01*
X10055800Y4085400D01*
Y4110800D01*
X10030400D01*
X10005000Y4085400D01*
X9979600Y4110800D01*
X9954200D01*
Y4085400D01*
X9979600Y4060000D01*
X9954200Y4034600D01*
Y4009200D01*
X10054200D02*
X10079600D01*
X10105000Y4034600D01*
X10130400Y4009200D01*
X10155800D01*
Y4034600D01*
X10130400Y4060000D01*
X10155800Y4085400D01*
Y4110800D01*
X10130400D01*
X10105000Y4085400D01*
X10079600Y4110800D01*
X10054200D01*
Y4085400D01*
X10079600Y4060000D01*
X10054200Y4034600D01*
Y4009200D01*
X9854200D02*
X9879600D01*
X9905000Y4034600D01*
X9930400Y4009200D01*
X9955800D01*
Y4034600D01*
X9930400Y4060000D01*
X9955800Y4085400D01*
Y4110800D01*
X9930400D01*
X9905000Y4085400D01*
X9879600Y4110800D01*
X9854200D01*
Y4085400D01*
X9879600Y4060000D01*
X9854200Y4034600D01*
Y4009200D01*
X7636700Y5011700D02*
X7662100D01*
X7687500Y5037100D01*
X7712900Y5011700D01*
X7738300D01*
Y5037100D01*
X7712900Y5062500D01*
X7738300Y5087900D01*
Y5113300D01*
X7712900D01*
X7687500Y5087900D01*
X7662100Y5113300D01*
X7636700D01*
Y5087900D01*
X7662100Y5062500D01*
X7636700Y5037100D01*
Y5011700D01*
X7984200Y3994200D02*
X8009600D01*
X8035000Y4019600D01*
X8060400Y3994200D01*
X8085800D01*
Y4019600D01*
X8060400Y4045000D01*
X8085800Y4070400D01*
Y4095800D01*
X8060400D01*
X8035000Y4070400D01*
X8009600Y4095800D01*
X7984200D01*
Y4070400D01*
X8009600Y4045000D01*
X7984200Y4019600D01*
Y3994200D01*
D104*
X9474300Y3772500D02*
G03*
X9474300Y3772500I-50800J0D01*
G01*
X7120800Y6675500D02*
G03*
X7120800Y6675500I-50800J0D01*
G01*
X7985800D02*
G03*
X7985800Y6675500I-50800J0D01*
G01*
X10236300Y3772500D02*
G03*
X10236300Y3772500I-50800J0D01*
G01*
X9982300D02*
G03*
X9982300Y3772500I-50800J0D01*
G01*
X9728300D02*
G03*
X9728300Y3772500I-50800J0D01*
G01*
D105*
X7100480Y6675500D02*
G03*
X7100480Y6675500I-30480J0D01*
G01*
X7965480D02*
G03*
X7965480Y6675500I-30480J0D01*
G01*
%TF.MD5,6bbabae4ce54524914a5f9cb3508b436*%
M02*
