%TF.GenerationSoftware,Altium Limited,Altium Designer,26.2.0 (7)*%
G04 Layer_Color=65535*
%FSLAX45Y45*%
%MOMM*%
%TF.SameCoordinates,00FDB721-44CF-4368-98B2-66699BB62886*%
%TF.FilePolarity,Positive*%
%TF.FileFunction,Legend,Top*%
%TF.Part,Single*%
G01*
G75*
%TA.AperFunction,NonConductor*%
%ADD49C,0.25000*%
%ADD50C,0.25400*%
%ADD51C,0.33000*%
%ADD52C,0.30000*%
%ADD53C,0.12500*%
%ADD54C,0.15000*%
%ADD55C,0.20000*%
%ADD56C,0.10000*%
%ADD57C,0.18000*%
%ADD58C,0.12700*%
D49*
X8182500Y4282500D02*
G03*
X8182500Y4282500I-12500J0D01*
G01*
X8247500Y5395000D02*
G03*
X8247500Y5395000I-12500J0D01*
G01*
X8697500Y6001614D02*
G03*
X8697500Y6001614I-10000J0D01*
G01*
X6962500Y6397500D02*
G03*
X6962500Y6397500I-12500J0D01*
G01*
X8275000Y4191000D02*
G03*
X8275000Y4191000I-12500J0D01*
G01*
X8615800Y5668900D02*
G03*
X8615800Y5668900I-12500J0D01*
G01*
D50*
X9600616Y5335000D02*
G03*
X9600616Y5335000I-10308J0D01*
G01*
X9568250Y4589558D02*
G03*
X9568250Y4589558I-10308J0D01*
G01*
X10135000Y5947501D02*
G03*
X10135000Y5947501I-2500J0D01*
G01*
Y5662500D02*
G03*
X10135000Y5662500I-2500J0D01*
G01*
Y5520000D02*
G03*
X10135000Y5520000I-2500J0D01*
G01*
Y5805000D02*
G03*
X10135000Y5805000I-2500J0D01*
G01*
X8806180Y6432500D02*
G03*
X8806180Y6432500I-11180J0D01*
G01*
D51*
X10480000Y3885000D02*
G03*
X10480000Y3885000I-15000J0D01*
G01*
X10480000Y4800000D02*
G03*
X10480000Y4800000I-15000J0D01*
G01*
D52*
X8745000Y6245000D02*
G03*
X8745000Y6245000I-10000J0D01*
G01*
D53*
X9248750Y5802500D02*
G03*
X9248750Y5802500I-6250J0D01*
G01*
D54*
X10200000Y5505000D02*
X10265000D01*
X10217500Y5632500D02*
X10245000D01*
X10262500Y5650000D01*
X10208415Y5937500D02*
X10215000Y5930915D01*
X10175000Y5937500D02*
X10208415D01*
X10215000Y5930915D02*
X10236601Y5909314D01*
X8441900Y6004900D02*
X8530800D01*
X8441900Y6335100D02*
X8530800D01*
X10462500Y5622500D02*
X10510000D01*
X10425000Y5585000D02*
X10462500Y5622500D01*
X10345000Y5585000D02*
X10425000D01*
X10265000Y5505000D02*
X10345000Y5585000D01*
X10430000Y5837500D02*
X10495000D01*
X10385000Y5792500D02*
X10430000Y5837500D01*
X10250000Y5792500D02*
X10385000D01*
X10190000D02*
X10250000D01*
X10609987Y5659980D02*
X10570000D01*
Y5629990D01*
X10589993Y5639986D01*
X10599990D01*
X10609987Y5629990D01*
Y5609996D01*
X10599990Y5599999D01*
X10579996D01*
X10570000Y5609996D01*
X10629980Y5659980D02*
Y5619993D01*
X10649974Y5599999D01*
X10669967Y5619993D01*
Y5659980D01*
X10570000Y5812500D02*
X10589993D01*
X10579996D01*
Y5872480D01*
X10570000Y5862483D01*
X10659970Y5812500D02*
X10619983D01*
X10659970Y5852487D01*
Y5862483D01*
X10649974Y5872480D01*
X10629980D01*
X10619983Y5862483D01*
X10679964Y5872480D02*
Y5832493D01*
X10699958Y5812500D01*
X10719951Y5832493D01*
Y5872480D01*
X10277500Y5732483D02*
X10287496Y5742480D01*
X10307490D01*
X10317487Y5732483D01*
Y5722487D01*
X10307490Y5712490D01*
X10297493D01*
X10307490D01*
X10317487Y5702493D01*
Y5692496D01*
X10307490Y5682500D01*
X10287496D01*
X10277500Y5692496D01*
X10337480Y5742480D02*
Y5702493D01*
X10357474Y5682500D01*
X10377467Y5702493D01*
Y5742480D01*
X10397461Y5732483D02*
X10407457Y5742480D01*
X10427451D01*
X10437448Y5732483D01*
Y5722487D01*
X10427451Y5712490D01*
X10417454D01*
X10427451D01*
X10437448Y5702493D01*
Y5692496D01*
X10427451Y5682500D01*
X10407457D01*
X10397461Y5692496D01*
X10277500Y5902480D02*
Y5842500D01*
X10307490D01*
X10317487Y5852496D01*
Y5892483D01*
X10307490Y5902480D01*
X10277500D01*
X10855087Y6238626D02*
X10897500Y6196213D01*
X10918706Y6217419D01*
Y6231557D01*
X10911637Y6238626D01*
X10897500D01*
X10876293Y6217419D01*
X10897500Y6238626D01*
Y6252763D01*
X10890431Y6259832D01*
X10876293Y6259832D01*
X10855087Y6238626D01*
X10918706Y6273969D02*
X10932844Y6288107D01*
X10946981D01*
X10968187Y6266901D01*
X10946981Y6245694D01*
X10932844D01*
Y6259832D01*
X10954050Y6281038D01*
X10954050Y6323451D02*
X10961119Y6316382D01*
X10954050Y6309313D01*
X10968188Y6323451D01*
X10961119Y6316382D01*
X10982325Y6295176D01*
X10996463Y6295176D01*
X10996462Y6337588D02*
X11024737Y6365863D01*
X10996463D02*
X11024738Y6337588D01*
X10855087Y6676126D02*
X10897500Y6633713D01*
X10918706Y6654919D01*
Y6669057D01*
X10911637Y6676126D01*
X10897500D01*
X10876293Y6654919D01*
X10897500Y6676126D01*
Y6690263D01*
X10890431Y6697332D01*
X10876293Y6697332D01*
X10855087Y6676126D01*
X10918706Y6711469D02*
X10932844Y6725607D01*
X10946981D01*
X10968188Y6704401D01*
X10946981Y6683194D01*
X10932844D01*
Y6697332D01*
X10954050Y6718538D01*
X10954050Y6760951D02*
X10961119Y6753882D01*
X10954050Y6746813D01*
X10968188Y6760951D01*
X10961119Y6753882D01*
X10982325Y6732676D01*
X10996463Y6732676D01*
X10996463Y6775088D02*
X11024738Y6803363D01*
D55*
X8765000Y4475000D02*
Y5005000D01*
X8235000Y4475000D02*
Y5005000D01*
X8765000D01*
X8235000Y4475000D02*
X8765000D01*
X10338000Y3652000D02*
Y3893000D01*
X9271100D02*
X10338000D01*
X9271100Y3652000D02*
X10338000D01*
X9271100D02*
Y3893000D01*
X6737500Y6505000D02*
Y6625000D01*
X6927500Y6505000D02*
Y6625000D01*
X7573000Y4930500D02*
X7842000D01*
X7573000Y3630500D02*
X7842000D01*
X7273000D02*
X7542000D01*
X7273000Y4930500D02*
X7542000D01*
X9049000Y6500000D02*
X9184000D01*
X6628500Y5157500D02*
Y5627500D01*
X9422500Y6501000D02*
X9892500D01*
X8314500D02*
X8784500D01*
X9707500Y6220000D02*
Y6330000D01*
X9557500Y6220000D02*
Y6330000D01*
X8507500Y3962500D02*
Y4177500D01*
X8262500Y3962500D02*
Y4102500D01*
X8785000Y5485000D02*
X8905000D01*
X8785000Y5675000D02*
X8905000D01*
D56*
X7800000Y6465000D02*
X7960000D01*
X7800000Y6305000D02*
X7960000D01*
X7597500Y5197500D02*
Y5327500D01*
X7207500Y4399500D02*
X7232500Y4424500D01*
X6982500D02*
X7007500Y4399500D01*
X6982500Y4622500D02*
X7007500Y4647500D01*
X6982500Y4424500D02*
Y4622500D01*
X7007500Y4647500D02*
X7207500D01*
X7232500Y4622500D01*
Y4424500D02*
Y4622500D01*
X7007500Y3899500D02*
X7107500D01*
X6982500Y3924500D02*
X7007500Y3899500D01*
X6982500Y3924500D02*
Y4126500D01*
X7107500Y3899500D02*
X7207500D01*
X7232500Y3924500D01*
Y4126500D01*
Y4176500D02*
Y4374500D01*
X7207500Y4399500D02*
X7232500Y4374500D01*
X6982500Y4176500D02*
Y4374500D01*
X7007500Y4399500D01*
X6982500Y4126500D02*
X7007500Y4151500D01*
X6982500Y4176500D02*
X7007500Y4151500D01*
X7207500D02*
X7232500Y4126500D01*
X7207500Y4151500D02*
X7232500Y4176500D01*
D57*
X9248750Y4160000D02*
X9341250D01*
X9248750Y3955000D02*
X9341250D01*
D58*
X9137500Y5925000D02*
Y6005000D01*
X9497500Y5992500D02*
Y6037500D01*
X9312500Y6107500D02*
X9367500D01*
X9182500Y5992500D02*
Y6037500D01*
%TF.MD5,3a4072be5e2e3e4c4596a889bcc52962*%
M02*
