%TF.GenerationSoftware,Altium Limited,Altium Designer,26.2.0 (7)*%
G04 Layer_Color=32896*
%FSLAX45Y45*%
%MOMM*%
%TF.SameCoordinates,00FDB721-44CF-4368-98B2-66699BB62886*%
%TF.FilePolarity,Positive*%
%TF.FileFunction,Legend,Bot*%
%TF.Part,Single*%
G01*
G75*
%TA.AperFunction,NonConductor*%
%ADD49C,0.25000*%
%ADD54C,0.15000*%
%ADD55C,0.20000*%
G36*
X8193667Y5812282D02*
X8197738D01*
Y5811700D01*
X8200065D01*
Y5811119D01*
X8201809D01*
Y5810537D01*
X8203554D01*
Y5809956D01*
X8204717D01*
Y5809374D01*
X8205299D01*
Y5808792D01*
X8206462D01*
Y5808211D01*
X8207626D01*
Y5807629D01*
X8208207D01*
Y5807048D01*
X8208789D01*
Y5806466D01*
X8209952D01*
Y5805303D01*
X8210534D01*
Y5804721D01*
X8211115D01*
Y5804140D01*
X8211697D01*
Y5803558D01*
X8212278D01*
Y5802395D01*
X8212860D01*
Y5801813D01*
X8213442D01*
Y5800068D01*
X8214023D01*
Y5798905D01*
X8214605D01*
Y5796579D01*
X8215187D01*
Y5787854D01*
X8214605D01*
Y5784946D01*
X8214023D01*
Y5783202D01*
X8213442D01*
Y5782038D01*
X8212860D01*
Y5780293D01*
X8212278D01*
Y5779130D01*
X8211697D01*
Y5777967D01*
X8211115D01*
Y5776804D01*
X8210534D01*
Y5775641D01*
X8209952D01*
Y5775059D01*
X8209370D01*
Y5774477D01*
X8208789D01*
Y5773314D01*
X8208207D01*
Y5772733D01*
X8207626D01*
Y5771569D01*
X8207044D01*
Y5770988D01*
X8206462D01*
Y5770406D01*
X8205881D01*
Y5769825D01*
X8205299D01*
Y5769243D01*
X8204717D01*
Y5768661D01*
X8204136D01*
Y5768080D01*
X8203554D01*
Y5767498D01*
X8202973D01*
Y5766917D01*
X8202391D01*
Y5766335D01*
X8201809D01*
Y5765753D01*
X8201228D01*
Y5765172D01*
X8200646D01*
Y5764590D01*
X8200065D01*
Y5764009D01*
X8199483D01*
Y5763427D01*
X8198320D01*
Y5762845D01*
X8197738D01*
Y5762264D01*
X8197157D01*
Y5761682D01*
X8196575D01*
Y5761100D01*
X8195993D01*
Y5760519D01*
X8194830D01*
Y5759937D01*
X8194249D01*
Y5759356D01*
X8193667D01*
Y5758774D01*
X8193085D01*
Y5758192D01*
X8192504D01*
Y5757611D01*
X8191340D01*
Y5757029D01*
X8190759D01*
Y5756447D01*
X8190177D01*
Y5755866D01*
X8189014D01*
Y5755284D01*
X8188432D01*
Y5754703D01*
X8187851D01*
Y5754121D01*
X8186688D01*
Y5753539D01*
X8185524D01*
Y5752376D01*
X8184361D01*
Y5754121D01*
X8184943D01*
Y5757029D01*
X8185524D01*
Y5758774D01*
X8186106D01*
Y5759937D01*
X8186688D01*
Y5761682D01*
X8187269D01*
Y5762845D01*
X8187851D01*
Y5764009D01*
X8188432D01*
Y5765172D01*
X8189014D01*
Y5766335D01*
X8189596D01*
Y5767498D01*
X8190177D01*
Y5768080D01*
X8190759D01*
Y5769243D01*
X8191340D01*
Y5769825D01*
X8191922D01*
Y5770988D01*
X8192504D01*
Y5771569D01*
X8193085D01*
Y5772151D01*
X8193667D01*
Y5773314D01*
X8194249D01*
Y5773896D01*
X8194830D01*
Y5774477D01*
X8195412D01*
Y5775641D01*
X8195993D01*
Y5776222D01*
X8196575D01*
Y5776804D01*
X8197157D01*
Y5777385D01*
X8197738D01*
Y5777967D01*
X8198320D01*
Y5779130D01*
X8198901D01*
Y5779712D01*
X8199483D01*
Y5780293D01*
X8200065D01*
Y5780875D01*
X8200646D01*
Y5782038D01*
X8201228D01*
Y5782620D01*
X8201809D01*
Y5783202D01*
X8202391D01*
Y5784365D01*
X8202973D01*
Y5784946D01*
X8203554D01*
Y5786691D01*
X8204136D01*
Y5787854D01*
X8204717D01*
Y5794252D01*
X8204136D01*
Y5795415D01*
X8203554D01*
Y5796579D01*
X8202973D01*
Y5797160D01*
X8202391D01*
Y5797742D01*
X8201809D01*
Y5798323D01*
X8201228D01*
Y5798905D01*
X8200646D01*
Y5799487D01*
X8199483D01*
Y5800068D01*
X8198320D01*
Y5800650D01*
X8196575D01*
Y5801231D01*
X8193667D01*
Y5801813D01*
X8186688D01*
Y5801231D01*
X8182035D01*
Y5800650D01*
X8179708D01*
Y5800068D01*
X8176800D01*
Y5799487D01*
X8173892D01*
Y5798905D01*
X8171566D01*
Y5798323D01*
X8169239D01*
Y5797742D01*
X8168076D01*
Y5797160D01*
X8165750D01*
Y5796579D01*
X8163423D01*
Y5795997D01*
X8162260D01*
Y5795415D01*
X8160515D01*
Y5794834D01*
X8158770D01*
Y5794252D01*
X8157607D01*
Y5793671D01*
X8156444D01*
Y5793089D01*
X8155281D01*
Y5792507D01*
X8153536D01*
Y5791926D01*
X8152373D01*
Y5791344D01*
X8151210D01*
Y5790762D01*
X8150046D01*
Y5790181D01*
X8149465D01*
Y5789599D01*
X8148301D01*
Y5789018D01*
X8147138D01*
Y5788436D01*
X8146556D01*
Y5787854D01*
X8145975D01*
Y5787273D01*
X8144812D01*
Y5786691D01*
X8144230D01*
Y5786110D01*
X8143648D01*
Y5785528D01*
X8143067D01*
Y5784946D01*
X8141904D01*
Y5783783D01*
X8141322D01*
Y5783202D01*
X8140740D01*
Y5782620D01*
X8140159D01*
Y5782038D01*
X8139577D01*
Y5781457D01*
X8138996D01*
Y5780293D01*
X8138414D01*
Y5779130D01*
X8137832D01*
Y5777385D01*
X8137251D01*
Y5775059D01*
X8136669D01*
Y5771569D01*
X8137251D01*
Y5769243D01*
X8137832D01*
Y5767498D01*
X8138414D01*
Y5766335D01*
X8138996D01*
Y5765172D01*
X8139577D01*
Y5764009D01*
X8140159D01*
Y5762845D01*
X8140740D01*
Y5762264D01*
X8141322D01*
Y5761682D01*
X8141904D01*
Y5760519D01*
X8142485D01*
Y5759937D01*
X8143067D01*
Y5759356D01*
X8143648D01*
Y5758774D01*
X8144230D01*
Y5758192D01*
X8144812D01*
Y5757611D01*
X8145393D01*
Y5757029D01*
X8145975D01*
Y5756447D01*
X8146556D01*
Y5755866D01*
X8147720D01*
Y5755284D01*
X8148301D01*
Y5754703D01*
X8148883D01*
Y5754121D01*
X8150046D01*
Y5753539D01*
X8150628D01*
Y5752958D01*
X8151791D01*
Y5752376D01*
X8152954D01*
Y5751795D01*
X8154118D01*
Y5751213D01*
X8154699D01*
Y5750631D01*
X8155862D01*
Y5750050D01*
X8157026D01*
Y5749468D01*
X8158189D01*
Y5748887D01*
X8159352D01*
Y5748305D01*
X8160515D01*
Y5747723D01*
X8162260D01*
Y5747142D01*
X8163423D01*
Y5746560D01*
X8164586D01*
Y5745979D01*
X8165750D01*
Y5745397D01*
X8166913D01*
Y5744815D01*
X8168658D01*
Y5744234D01*
X8170403D01*
Y5743652D01*
X8171566D01*
Y5743071D01*
X8173311D01*
Y5742489D01*
X8174474D01*
Y5741907D01*
X8176219D01*
Y5741326D01*
X8177382D01*
Y5740744D01*
X8175637D01*
Y5740163D01*
X8173311D01*
Y5739581D01*
X8170403D01*
Y5738999D01*
X8161678D01*
Y5739581D01*
X8158770D01*
Y5740163D01*
X8156444D01*
Y5740744D01*
X8154118D01*
Y5741326D01*
X8152954D01*
Y5741907D01*
X8151210D01*
Y5742489D01*
X8150046D01*
Y5743071D01*
X8148883D01*
Y5743652D01*
X8147720D01*
Y5744234D01*
X8146556D01*
Y5744815D01*
X8145975D01*
Y5745397D01*
X8144812D01*
Y5745979D01*
X8143648D01*
Y5746560D01*
X8143067D01*
Y5747142D01*
X8142485D01*
Y5747723D01*
X8141322D01*
Y5748305D01*
X8140740D01*
Y5748887D01*
X8140159D01*
Y5749468D01*
X8138996D01*
Y5750050D01*
X8138414D01*
Y5750631D01*
X8137832D01*
Y5751213D01*
X8137251D01*
Y5751795D01*
X8136669D01*
Y5752376D01*
X8136088D01*
Y5752958D01*
X8135506D01*
Y5753539D01*
X8134924D01*
Y5754121D01*
X8134343D01*
Y5754703D01*
X8133761D01*
Y5755866D01*
X8133180D01*
Y5756447D01*
X8132598D01*
Y5757029D01*
X8132016D01*
Y5758192D01*
X8130853D01*
Y5759356D01*
X8130272D01*
Y5760519D01*
X8129690D01*
Y5761682D01*
X8129108D01*
Y5762264D01*
X8128527D01*
Y5763427D01*
X8127945D01*
Y5764590D01*
X8127363D01*
Y5766335D01*
X8126782D01*
Y5767498D01*
X8126200D01*
Y5769243D01*
X8125618D01*
Y5770988D01*
X8125037D01*
Y5775641D01*
X8124455D01*
Y5776804D01*
X8125037D01*
Y5782620D01*
X8125618D01*
Y5784946D01*
X8126200D01*
Y5786110D01*
X8126782D01*
Y5787273D01*
X8127363D01*
Y5788436D01*
X8127945D01*
Y5789599D01*
X8128527D01*
Y5790181D01*
X8129108D01*
Y5790762D01*
X8129690D01*
Y5791926D01*
X8130272D01*
Y5792507D01*
X8130853D01*
Y5793089D01*
X8131435D01*
Y5793671D01*
X8132016D01*
Y5794252D01*
X8132598D01*
Y5794834D01*
X8133180D01*
Y5795415D01*
X8134343D01*
Y5795997D01*
X8134924D01*
Y5796579D01*
X8135506D01*
Y5797160D01*
X8136088D01*
Y5797742D01*
X8137251D01*
Y5798323D01*
X8137832D01*
Y5798905D01*
X8138996D01*
Y5799487D01*
X8140159D01*
Y5800068D01*
X8141322D01*
Y5800650D01*
X8141904D01*
Y5801231D01*
X8143648D01*
Y5801813D01*
X8144812D01*
Y5802395D01*
X8145975D01*
Y5802976D01*
X8147138D01*
Y5803558D01*
X8148883D01*
Y5804140D01*
X8150046D01*
Y5804721D01*
X8151791D01*
Y5805303D01*
X8152954D01*
Y5805884D01*
X8154699D01*
Y5806466D01*
X8156444D01*
Y5807048D01*
X8158770D01*
Y5807629D01*
X8159934D01*
Y5808211D01*
X8162260D01*
Y5808792D01*
X8164586D01*
Y5809374D01*
X8166913D01*
Y5809956D01*
X8169239D01*
Y5810537D01*
X8172729D01*
Y5811119D01*
X8175056D01*
Y5811700D01*
X8178545D01*
Y5812282D01*
X8184361D01*
Y5812864D01*
X8193667D01*
Y5812282D01*
D02*
G37*
G36*
X8103517Y5799487D02*
X8105844D01*
Y5798905D01*
X8107589D01*
Y5798323D01*
X8108170D01*
Y5797742D01*
X8109334D01*
Y5797160D01*
X8109915D01*
Y5796579D01*
X8111078D01*
Y5795997D01*
X8111660D01*
Y5795415D01*
X8112242D01*
Y5794252D01*
X8113405D01*
Y5793089D01*
X8113986D01*
Y5791926D01*
X8114568D01*
Y5790762D01*
X8115150D01*
Y5790181D01*
X8115731D01*
Y5788436D01*
X8116313D01*
Y5786691D01*
X8116894D01*
Y5784946D01*
X8117476D01*
Y5782620D01*
X8118058D01*
Y5779130D01*
X8118639D01*
Y5775641D01*
X8119221D01*
Y5770988D01*
X8119802D01*
Y5764590D01*
X8120384D01*
Y5761682D01*
X8120966D01*
Y5758192D01*
X8121547D01*
Y5756447D01*
X8122129D01*
Y5754703D01*
X8122710D01*
Y5753539D01*
X8123292D01*
Y5752376D01*
X8123874D01*
Y5751213D01*
X8124455D01*
Y5750050D01*
X8125037D01*
Y5748887D01*
X8125618D01*
Y5748305D01*
X8126200D01*
Y5747723D01*
X8126782D01*
Y5746560D01*
X8127363D01*
Y5745979D01*
X8127945D01*
Y5745397D01*
X8128527D01*
Y5744815D01*
X8129108D01*
Y5744234D01*
X8129690D01*
Y5743652D01*
X8130272D01*
Y5743071D01*
X8131435D01*
Y5742489D01*
X8132016D01*
Y5741907D01*
X8132598D01*
Y5741326D01*
X8133761D01*
Y5740744D01*
X8134343D01*
Y5740163D01*
X8135506D01*
Y5739581D01*
X8136669D01*
Y5738999D01*
X8137251D01*
Y5738418D01*
X8138414D01*
Y5737836D01*
X8140159D01*
Y5737254D01*
X8140740D01*
Y5736673D01*
X8141904D01*
Y5736091D01*
X8143067D01*
Y5735509D01*
X8144812D01*
Y5734928D01*
X8145975D01*
Y5734346D01*
X8147138D01*
Y5733765D01*
X8148301D01*
Y5733183D01*
X8150046D01*
Y5732601D01*
X8151210D01*
Y5732020D01*
X8152373D01*
Y5731438D01*
X8153536D01*
Y5730857D01*
X8154699D01*
Y5730275D01*
X8154118D01*
Y5729693D01*
X8152954D01*
Y5729112D01*
X8151791D01*
Y5728530D01*
X8149465D01*
Y5727949D01*
X8147720D01*
Y5727367D01*
X8140159D01*
Y5727949D01*
X8137251D01*
Y5728530D01*
X8134924D01*
Y5729112D01*
X8133180D01*
Y5729693D01*
X8132016D01*
Y5730275D01*
X8130853D01*
Y5730857D01*
X8129690D01*
Y5731438D01*
X8129108D01*
Y5732020D01*
X8127945D01*
Y5732601D01*
X8127363D01*
Y5733183D01*
X8126200D01*
Y5733765D01*
X8125618D01*
Y5734346D01*
X8125037D01*
Y5734928D01*
X8123874D01*
Y5735509D01*
X8123292D01*
Y5736091D01*
X8122710D01*
Y5736673D01*
X8122129D01*
Y5737254D01*
X8121547D01*
Y5737836D01*
X8120966D01*
Y5738418D01*
X8120384D01*
Y5738999D01*
X8119802D01*
Y5739581D01*
X8119221D01*
Y5740744D01*
X8118639D01*
Y5741326D01*
X8118058D01*
Y5741907D01*
X8117476D01*
Y5743071D01*
X8116894D01*
Y5743652D01*
X8116313D01*
Y5744815D01*
X8115731D01*
Y5745979D01*
X8115150D01*
Y5747142D01*
X8114568D01*
Y5747723D01*
X8113986D01*
Y5749468D01*
X8113405D01*
Y5751213D01*
X8112823D01*
Y5752376D01*
X8112242D01*
Y5755284D01*
X8111660D01*
Y5759356D01*
X8111078D01*
Y5766917D01*
X8110497D01*
Y5772151D01*
X8109915D01*
Y5775641D01*
X8109334D01*
Y5777967D01*
X8108752D01*
Y5780293D01*
X8108170D01*
Y5781457D01*
X8107589D01*
Y5783202D01*
X8107007D01*
Y5784365D01*
X8106425D01*
Y5784946D01*
X8105844D01*
Y5786110D01*
X8105262D01*
Y5786691D01*
X8104681D01*
Y5787273D01*
X8104099D01*
Y5787854D01*
X8102936D01*
Y5788436D01*
X8102354D01*
Y5789018D01*
X8100028D01*
Y5789599D01*
X8098283D01*
Y5789018D01*
X8095375D01*
Y5788436D01*
X8093630D01*
Y5787854D01*
X8092467D01*
Y5787273D01*
X8091885D01*
Y5786691D01*
X8090722D01*
Y5786110D01*
X8090140D01*
Y5785528D01*
X8089559D01*
Y5784946D01*
X8088977D01*
Y5784365D01*
X8088396D01*
Y5783783D01*
X8087814D01*
Y5783202D01*
X8087232D01*
Y5782620D01*
X8086651D01*
Y5782038D01*
X8086069D01*
Y5781457D01*
X8085488D01*
Y5780293D01*
X8084906D01*
Y5779712D01*
X8084324D01*
Y5779130D01*
X8083743D01*
Y5777967D01*
X8083161D01*
Y5777385D01*
X8082579D01*
Y5776804D01*
X8081998D01*
Y5775641D01*
X8081416D01*
Y5774477D01*
X8080834D01*
Y5773896D01*
X8080253D01*
Y5773314D01*
X8079671D01*
Y5772151D01*
X8079090D01*
Y5770988D01*
X8078508D01*
Y5770406D01*
X8077926D01*
Y5769243D01*
X8077345D01*
Y5768080D01*
X8076763D01*
Y5767498D01*
X8076182D01*
Y5766335D01*
X8075600D01*
Y5765172D01*
X8075018D01*
Y5764009D01*
X8074437D01*
Y5762845D01*
X8073855D01*
Y5761682D01*
X8073274D01*
Y5760519D01*
X8072692D01*
Y5758774D01*
X8072110D01*
Y5757611D01*
X8071529D01*
Y5755866D01*
X8070947D01*
Y5754703D01*
X8070366D01*
Y5752376D01*
X8069784D01*
Y5750631D01*
X8069202D01*
Y5748887D01*
X8068621D01*
Y5746560D01*
X8068039D01*
Y5744234D01*
X8067458D01*
Y5740163D01*
X8066876D01*
Y5729112D01*
X8067458D01*
Y5726204D01*
X8068039D01*
Y5724459D01*
X8068621D01*
Y5722133D01*
X8069202D01*
Y5720969D01*
X8069784D01*
Y5719806D01*
X8070366D01*
Y5718061D01*
X8070947D01*
Y5717480D01*
X8071529D01*
Y5716316D01*
X8072110D01*
Y5715153D01*
X8072692D01*
Y5714572D01*
X8073274D01*
Y5713990D01*
X8073855D01*
Y5713408D01*
X8074437D01*
Y5712827D01*
X8075018D01*
Y5712245D01*
X8075600D01*
Y5711663D01*
X8076182D01*
Y5711082D01*
X8076763D01*
Y5710500D01*
X8077345D01*
Y5709919D01*
X8077926D01*
Y5709337D01*
X8078508D01*
Y5708755D01*
X8079671D01*
Y5708174D01*
X8080253D01*
Y5707592D01*
X8081416D01*
Y5707011D01*
X8082579D01*
Y5706429D01*
X8083161D01*
Y5705847D01*
X8084906D01*
Y5705266D01*
X8086651D01*
Y5704684D01*
X8088977D01*
Y5704103D01*
X8097701D01*
Y5704684D01*
X8100609D01*
Y5705266D01*
X8102936D01*
Y5705847D01*
X8105844D01*
Y5706429D01*
X8107589D01*
Y5707011D01*
X8109915D01*
Y5707592D01*
X8111660D01*
Y5708174D01*
X8113405D01*
Y5708755D01*
X8115150D01*
Y5709337D01*
X8116894D01*
Y5709919D01*
X8118639D01*
Y5710500D01*
X8120966D01*
Y5711082D01*
X8123292D01*
Y5711663D01*
X8125618D01*
Y5712245D01*
X8129108D01*
Y5712827D01*
X8134924D01*
Y5712245D01*
X8134343D01*
Y5711663D01*
X8133761D01*
Y5711082D01*
X8133180D01*
Y5710500D01*
X8132598D01*
Y5709919D01*
X8132016D01*
Y5709337D01*
X8131435D01*
Y5708755D01*
X8130853D01*
Y5708174D01*
X8129690D01*
Y5707592D01*
X8129108D01*
Y5707011D01*
X8127945D01*
Y5706429D01*
X8127363D01*
Y5705847D01*
X8126782D01*
Y5705266D01*
X8126200D01*
Y5704684D01*
X8125037D01*
Y5704103D01*
X8123874D01*
Y5703521D01*
X8123292D01*
Y5702939D01*
X8122129D01*
Y5702358D01*
X8121547D01*
Y5701776D01*
X8119802D01*
Y5701195D01*
X8118639D01*
Y5700613D01*
X8117476D01*
Y5700031D01*
X8116313D01*
Y5699450D01*
X8114568D01*
Y5698868D01*
X8113405D01*
Y5698287D01*
X8112242D01*
Y5697705D01*
X8110497D01*
Y5697123D01*
X8108170D01*
Y5696542D01*
X8105844D01*
Y5695960D01*
X8102936D01*
Y5695378D01*
X8100609D01*
Y5694797D01*
X8097120D01*
Y5694215D01*
X8087232D01*
Y5694797D01*
X8083161D01*
Y5695378D01*
X8080834D01*
Y5695960D01*
X8078508D01*
Y5696542D01*
X8076763D01*
Y5697123D01*
X8075600D01*
Y5697705D01*
X8074437D01*
Y5698287D01*
X8073274D01*
Y5698868D01*
X8072110D01*
Y5699450D01*
X8071529D01*
Y5700031D01*
X8070366D01*
Y5700613D01*
X8069784D01*
Y5701195D01*
X8069202D01*
Y5701776D01*
X8068621D01*
Y5702358D01*
X8068039D01*
Y5702939D01*
X8067458D01*
Y5703521D01*
X8066876D01*
Y5704103D01*
X8066294D01*
Y5704684D01*
X8065713D01*
Y5705266D01*
X8065131D01*
Y5705847D01*
X8064550D01*
Y5707011D01*
X8063968D01*
Y5707592D01*
X8063386D01*
Y5708755D01*
X8062805D01*
Y5709919D01*
X8062223D01*
Y5710500D01*
X8061641D01*
Y5711663D01*
X8061060D01*
Y5713408D01*
X8060478D01*
Y5715153D01*
X8059897D01*
Y5716898D01*
X8059315D01*
Y5718643D01*
X8058733D01*
Y5722133D01*
X8058152D01*
Y5726785D01*
X8057570D01*
Y5736091D01*
X8058152D01*
Y5741907D01*
X8058733D01*
Y5745397D01*
X8059315D01*
Y5748305D01*
X8059897D01*
Y5750631D01*
X8060478D01*
Y5752958D01*
X8061060D01*
Y5755284D01*
X8061641D01*
Y5757029D01*
X8062223D01*
Y5758774D01*
X8062805D01*
Y5760519D01*
X8063386D01*
Y5761682D01*
X8063968D01*
Y5763427D01*
X8064550D01*
Y5764590D01*
X8065131D01*
Y5766335D01*
X8065713D01*
Y5767498D01*
X8066294D01*
Y5768661D01*
X8066876D01*
Y5769825D01*
X8067458D01*
Y5770988D01*
X8068039D01*
Y5772151D01*
X8068621D01*
Y5773314D01*
X8069202D01*
Y5773896D01*
X8069784D01*
Y5775059D01*
X8070366D01*
Y5776222D01*
X8070947D01*
Y5776804D01*
X8071529D01*
Y5777967D01*
X8072110D01*
Y5778549D01*
X8072692D01*
Y5779130D01*
X8073274D01*
Y5780293D01*
X8073855D01*
Y5781457D01*
X8075018D01*
Y5782620D01*
X8075600D01*
Y5783202D01*
X8076182D01*
Y5784365D01*
X8076763D01*
Y5784946D01*
X8077345D01*
Y5786110D01*
X8078508D01*
Y5787273D01*
X8079090D01*
Y5787854D01*
X8079671D01*
Y5788436D01*
X8080253D01*
Y5789018D01*
X8080834D01*
Y5789599D01*
X8081416D01*
Y5790762D01*
X8081998D01*
Y5791344D01*
X8082579D01*
Y5791926D01*
X8083161D01*
Y5792507D01*
X8084324D01*
Y5793089D01*
X8084906D01*
Y5793671D01*
X8085488D01*
Y5794252D01*
X8086069D01*
Y5794834D01*
X8086651D01*
Y5795415D01*
X8087814D01*
Y5795997D01*
X8088396D01*
Y5796579D01*
X8088977D01*
Y5797160D01*
X8090140D01*
Y5797742D01*
X8091304D01*
Y5798323D01*
X8092467D01*
Y5798905D01*
X8093630D01*
Y5799487D01*
X8095956D01*
Y5800068D01*
X8103517D01*
Y5799487D01*
D02*
G37*
G36*
X7781887Y5775641D02*
X7785958D01*
Y5775059D01*
X7788866D01*
Y5774477D01*
X7791775D01*
Y5773896D01*
X7794683D01*
Y5773314D01*
X7797009D01*
Y5772733D01*
X7798754D01*
Y5772151D01*
X7800499D01*
Y5771569D01*
X7802243D01*
Y5770988D01*
X7803988D01*
Y5770406D01*
X7805733D01*
Y5769825D01*
X7806896D01*
Y5769243D01*
X7808641D01*
Y5768661D01*
X7809804D01*
Y5768080D01*
X7810968D01*
Y5767498D01*
X7812131D01*
Y5766917D01*
X7813294D01*
Y5766335D01*
X7814457D01*
Y5765753D01*
X7815620D01*
Y5765172D01*
X7816202D01*
Y5764590D01*
X7817365D01*
Y5764009D01*
X7818528D01*
Y5763427D01*
X7819110D01*
Y5762845D01*
X7820273D01*
Y5762264D01*
X7820855D01*
Y5761682D01*
X7822018D01*
Y5761100D01*
X7822600D01*
Y5760519D01*
X7823763D01*
Y5759937D01*
X7824345D01*
Y5759356D01*
X7824926D01*
Y5758774D01*
X7825508D01*
Y5758192D01*
X7826090D01*
Y5757611D01*
X7827253D01*
Y5757029D01*
X7827834D01*
Y5756447D01*
X7828416D01*
Y5755866D01*
X7828998D01*
Y5755284D01*
X7829579D01*
Y5754703D01*
X7830161D01*
Y5754121D01*
X7830742D01*
Y5753539D01*
X7831324D01*
Y5752958D01*
X7831906D01*
Y5752376D01*
X7832487D01*
Y5751795D01*
X7833069D01*
Y5751213D01*
X7833650D01*
Y5750631D01*
X7834232D01*
Y5750050D01*
X7834814D01*
Y5748887D01*
X7835395D01*
Y5748305D01*
X7835977D01*
Y5747723D01*
X7836558D01*
Y5746560D01*
X7837722D01*
Y5745397D01*
X7838303D01*
Y5744815D01*
X7838885D01*
Y5743652D01*
X7839466D01*
Y5743071D01*
X7840048D01*
Y5741907D01*
X7840630D01*
Y5741326D01*
X7841211D01*
Y5740163D01*
X7841793D01*
Y5739581D01*
X7842374D01*
Y5738418D01*
X7842956D01*
Y5737254D01*
X7843538D01*
Y5736091D01*
X7844119D01*
Y5734928D01*
X7844701D01*
Y5733765D01*
X7845283D01*
Y5731438D01*
X7845864D01*
Y5729112D01*
X7846446D01*
Y5721551D01*
X7845864D01*
Y5719806D01*
X7845283D01*
Y5718643D01*
X7844701D01*
Y5717480D01*
X7844119D01*
Y5716898D01*
X7843538D01*
Y5715735D01*
X7842956D01*
Y5715153D01*
X7842374D01*
Y5714572D01*
X7841793D01*
Y5713990D01*
X7841211D01*
Y5713408D01*
X7839466D01*
Y5718061D01*
X7838885D01*
Y5720969D01*
X7838303D01*
Y5722714D01*
X7837722D01*
Y5725041D01*
X7837140D01*
Y5726785D01*
X7836558D01*
Y5727949D01*
X7835977D01*
Y5729693D01*
X7835395D01*
Y5730857D01*
X7834814D01*
Y5732601D01*
X7834232D01*
Y5733765D01*
X7833650D01*
Y5734346D01*
X7833069D01*
Y5735509D01*
X7832487D01*
Y5736673D01*
X7831906D01*
Y5737254D01*
X7831324D01*
Y5738418D01*
X7830742D01*
Y5738999D01*
X7830161D01*
Y5740163D01*
X7829579D01*
Y5740744D01*
X7828998D01*
Y5741326D01*
X7828416D01*
Y5742489D01*
X7827834D01*
Y5743071D01*
X7827253D01*
Y5743652D01*
X7826671D01*
Y5744234D01*
X7826090D01*
Y5744815D01*
X7825508D01*
Y5745397D01*
X7824926D01*
Y5745979D01*
X7824345D01*
Y5746560D01*
X7823763D01*
Y5747142D01*
X7823181D01*
Y5747723D01*
X7822600D01*
Y5748305D01*
X7822018D01*
Y5748887D01*
X7821436D01*
Y5749468D01*
X7820855D01*
Y5750050D01*
X7819692D01*
Y5750631D01*
X7819110D01*
Y5751213D01*
X7818528D01*
Y5751795D01*
X7817947D01*
Y5752376D01*
X7816784D01*
Y5752958D01*
X7816202D01*
Y5753539D01*
X7815620D01*
Y5754121D01*
X7814457D01*
Y5754703D01*
X7813294D01*
Y5755284D01*
X7812131D01*
Y5755866D01*
X7811549D01*
Y5756447D01*
X7810386D01*
Y5757029D01*
X7809223D01*
Y5757611D01*
X7808060D01*
Y5758192D01*
X7806896D01*
Y5758774D01*
X7805733D01*
Y5759356D01*
X7804570D01*
Y5759937D01*
X7803407D01*
Y5760519D01*
X7801662D01*
Y5761100D01*
X7800499D01*
Y5761682D01*
X7798754D01*
Y5762264D01*
X7797009D01*
Y5762845D01*
X7794683D01*
Y5763427D01*
X7792938D01*
Y5764009D01*
X7790611D01*
Y5764590D01*
X7787703D01*
Y5765172D01*
X7784214D01*
Y5765753D01*
X7779561D01*
Y5766335D01*
X7760949D01*
Y5765753D01*
X7756296D01*
Y5765172D01*
X7753388D01*
Y5764590D01*
X7750480D01*
Y5764009D01*
X7748154D01*
Y5763427D01*
X7745827D01*
Y5762845D01*
X7744664D01*
Y5762264D01*
X7742338D01*
Y5761682D01*
X7740593D01*
Y5761100D01*
X7739430D01*
Y5760519D01*
X7737685D01*
Y5759937D01*
X7736521D01*
Y5759356D01*
X7735358D01*
Y5758774D01*
X7734195D01*
Y5758192D01*
X7732450D01*
Y5757611D01*
X7731869D01*
Y5757029D01*
X7730705D01*
Y5756447D01*
X7729542D01*
Y5755866D01*
X7728961D01*
Y5755284D01*
X7727797D01*
Y5754703D01*
X7726634D01*
Y5754121D01*
X7726053D01*
Y5753539D01*
X7724889D01*
Y5752958D01*
X7724308D01*
Y5752376D01*
X7723726D01*
Y5751795D01*
X7722563D01*
Y5751213D01*
X7721981D01*
Y5750631D01*
X7721400D01*
Y5750050D01*
X7720818D01*
Y5749468D01*
X7720237D01*
Y5748887D01*
X7719655D01*
Y5748305D01*
X7719073D01*
Y5747723D01*
X7718492D01*
Y5747142D01*
X7717910D01*
Y5746560D01*
X7717328D01*
Y5745979D01*
X7716747D01*
Y5745397D01*
X7716165D01*
Y5744815D01*
X7715584D01*
Y5744234D01*
X7715002D01*
Y5743071D01*
X7714420D01*
Y5742489D01*
X7713839D01*
Y5741907D01*
X7713257D01*
Y5740744D01*
X7712675D01*
Y5740163D01*
X7712094D01*
Y5739581D01*
X7711512D01*
Y5738418D01*
X7710931D01*
Y5737254D01*
X7710349D01*
Y5736673D01*
X7709767D01*
Y5735509D01*
X7709186D01*
Y5733765D01*
X7708604D01*
Y5733183D01*
X7708023D01*
Y5732020D01*
X7707441D01*
Y5730275D01*
X7706859D01*
Y5729112D01*
X7706278D01*
Y5727367D01*
X7705696D01*
Y5726204D01*
X7705115D01*
Y5724459D01*
X7704533D01*
Y5722714D01*
X7703951D01*
Y5720388D01*
X7703370D01*
Y5718061D01*
X7702788D01*
Y5715153D01*
X7702207D01*
Y5712827D01*
X7701625D01*
Y5708755D01*
X7701043D01*
Y5702939D01*
X7700462D01*
Y5687236D01*
X7701043D01*
Y5679675D01*
X7701625D01*
Y5675604D01*
X7702207D01*
Y5672114D01*
X7702788D01*
Y5669206D01*
X7703370D01*
Y5666298D01*
X7703951D01*
Y5663971D01*
X7704533D01*
Y5661645D01*
X7705115D01*
Y5659319D01*
X7705696D01*
Y5657574D01*
X7706278D01*
Y5656411D01*
X7706859D01*
Y5654666D01*
X7707441D01*
Y5652921D01*
X7708023D01*
Y5651176D01*
X7708604D01*
Y5650013D01*
X7709186D01*
Y5648268D01*
X7709767D01*
Y5646523D01*
X7710349D01*
Y5645360D01*
X7710931D01*
Y5644197D01*
X7711512D01*
Y5643034D01*
X7712094D01*
Y5641870D01*
X7712675D01*
Y5640707D01*
X7713257D01*
Y5639544D01*
X7713839D01*
Y5638962D01*
X7714420D01*
Y5637799D01*
X7715002D01*
Y5636636D01*
X7715584D01*
Y5635473D01*
X7716165D01*
Y5634310D01*
X7716747D01*
Y5633728D01*
X7717328D01*
Y5632565D01*
X7717910D01*
Y5631401D01*
X7718492D01*
Y5630820D01*
X7719073D01*
Y5630238D01*
X7719655D01*
Y5629075D01*
X7720237D01*
Y5628493D01*
X7720818D01*
Y5627912D01*
X7721400D01*
Y5626748D01*
X7721981D01*
Y5626167D01*
X7722563D01*
Y5625585D01*
X7723145D01*
Y5624422D01*
X7723726D01*
Y5623840D01*
X7724308D01*
Y5623259D01*
X7724889D01*
Y5622677D01*
X7725471D01*
Y5622096D01*
X7726053D01*
Y5620932D01*
X7726634D01*
Y5620351D01*
X7727216D01*
Y5619769D01*
X7727797D01*
Y5619188D01*
X7728379D01*
Y5618606D01*
X7728961D01*
Y5618024D01*
X7729542D01*
Y5617443D01*
X7730705D01*
Y5616280D01*
X7731287D01*
Y5615698D01*
X7732450D01*
Y5615116D01*
X7733032D01*
Y5614535D01*
X7733613D01*
Y5613953D01*
X7734195D01*
Y5613372D01*
X7735358D01*
Y5612790D01*
X7735940D01*
Y5612208D01*
X7736521D01*
Y5611627D01*
X7737685D01*
Y5611045D01*
X7738848D01*
Y5610464D01*
X7740011D01*
Y5609882D01*
X7741175D01*
Y5609300D01*
X7741756D01*
Y5608719D01*
X7742919D01*
Y5608137D01*
X7744664D01*
Y5607555D01*
X7746409D01*
Y5606974D01*
X7748154D01*
Y5606392D01*
X7751062D01*
Y5605810D01*
X7760368D01*
Y5606392D01*
X7762694D01*
Y5606974D01*
X7765021D01*
Y5607555D01*
X7766184D01*
Y5608137D01*
X7767929D01*
Y5608719D01*
X7769092D01*
Y5609300D01*
X7770255D01*
Y5609882D01*
X7771418D01*
Y5610464D01*
X7772000D01*
Y5611045D01*
X7773163D01*
Y5611627D01*
X7773745D01*
Y5612208D01*
X7774908D01*
Y5612790D01*
X7776071D01*
Y5613372D01*
X7776653D01*
Y5613953D01*
X7777234D01*
Y5614535D01*
X7778397D01*
Y5615116D01*
X7778979D01*
Y5615698D01*
X7780142D01*
Y5616280D01*
X7780724D01*
Y5616861D01*
X7781305D01*
Y5617443D01*
X7781887D01*
Y5618024D01*
X7782469D01*
Y5618606D01*
X7783632D01*
Y5619188D01*
X7784214D01*
Y5619769D01*
X7784795D01*
Y5620351D01*
X7785377D01*
Y5620932D01*
X7785958D01*
Y5621514D01*
X7786540D01*
Y5622096D01*
X7787122D01*
Y5622677D01*
X7787703D01*
Y5623259D01*
X7788285D01*
Y5623840D01*
X7788866D01*
Y5624422D01*
X7789448D01*
Y5625004D01*
X7790030D01*
Y5625585D01*
X7790611D01*
Y5626167D01*
X7791193D01*
Y5626748D01*
X7791775D01*
Y5627330D01*
X7792356D01*
Y5627912D01*
X7792938D01*
Y5628493D01*
X7793519D01*
Y5629075D01*
X7794101D01*
Y5629657D01*
X7794683D01*
Y5630820D01*
X7795264D01*
Y5631401D01*
X7795846D01*
Y5631983D01*
X7796427D01*
Y5632565D01*
X7797009D01*
Y5633146D01*
X7797591D01*
Y5634310D01*
X7798172D01*
Y5634891D01*
X7798754D01*
Y5635473D01*
X7799335D01*
Y5636054D01*
X7799917D01*
Y5636636D01*
X7800499D01*
Y5637799D01*
X7801080D01*
Y5638381D01*
X7801662D01*
Y5639544D01*
X7802243D01*
Y5640126D01*
X7802825D01*
Y5640707D01*
X7803407D01*
Y5641870D01*
X7803988D01*
Y5642452D01*
X7804570D01*
Y5643034D01*
X7805152D01*
Y5644197D01*
X7805733D01*
Y5644778D01*
X7806315D01*
Y5645360D01*
X7806896D01*
Y5646523D01*
X7807478D01*
Y5647105D01*
X7808060D01*
Y5648268D01*
X7808641D01*
Y5648850D01*
X7809223D01*
Y5650013D01*
X7809804D01*
Y5650594D01*
X7810386D01*
Y5651176D01*
X7810968D01*
Y5652339D01*
X7811549D01*
Y5652921D01*
X7812131D01*
Y5654084D01*
X7812712D01*
Y5654666D01*
X7813294D01*
Y5655829D01*
X7813876D01*
Y5656411D01*
X7814457D01*
Y5657574D01*
X7815039D01*
Y5658155D01*
X7815620D01*
Y5659319D01*
X7816202D01*
Y5659900D01*
X7816784D01*
Y5661063D01*
X7817365D01*
Y5661645D01*
X7817947D01*
Y5662808D01*
X7818528D01*
Y5663390D01*
X7819110D01*
Y5664553D01*
X7819692D01*
Y5665135D01*
X7820273D01*
Y5665716D01*
X7820855D01*
Y5666879D01*
X7821436D01*
Y5667461D01*
X7822018D01*
Y5668624D01*
X7822600D01*
Y5669788D01*
X7823181D01*
Y5670369D01*
X7823763D01*
Y5671532D01*
X7824345D01*
Y5672114D01*
X7824926D01*
Y5673277D01*
X7825508D01*
Y5674441D01*
X7826090D01*
Y5675022D01*
X7826671D01*
Y5676185D01*
X7827253D01*
Y5676767D01*
X7827834D01*
Y5677930D01*
X7828416D01*
Y5678512D01*
X7828998D01*
Y5679093D01*
X7829579D01*
Y5680257D01*
X7830161D01*
Y5680838D01*
X7830742D01*
Y5681420D01*
X7831324D01*
Y5682583D01*
X7831906D01*
Y5683165D01*
X7832487D01*
Y5683746D01*
X7833069D01*
Y5684328D01*
X7833650D01*
Y5684909D01*
X7834232D01*
Y5685491D01*
X7834814D01*
Y5686073D01*
X7835395D01*
Y5686654D01*
X7835977D01*
Y5687236D01*
X7836558D01*
Y5687817D01*
X7837140D01*
Y5688399D01*
X7837722D01*
Y5688981D01*
X7838885D01*
Y5689562D01*
X7839466D01*
Y5690144D01*
X7840048D01*
Y5690725D01*
X7841211D01*
Y5691307D01*
X7841793D01*
Y5691889D01*
X7842956D01*
Y5692470D01*
X7844119D01*
Y5691307D01*
X7843538D01*
Y5687236D01*
X7842956D01*
Y5685491D01*
X7842374D01*
Y5683165D01*
X7841793D01*
Y5681420D01*
X7841211D01*
Y5679675D01*
X7840630D01*
Y5677930D01*
X7840048D01*
Y5676767D01*
X7839466D01*
Y5675604D01*
X7838885D01*
Y5674441D01*
X7838303D01*
Y5673277D01*
X7837722D01*
Y5671532D01*
X7837140D01*
Y5670369D01*
X7836558D01*
Y5669206D01*
X7835977D01*
Y5668043D01*
X7835395D01*
Y5667461D01*
X7834814D01*
Y5666298D01*
X7834232D01*
Y5665135D01*
X7833650D01*
Y5663971D01*
X7833069D01*
Y5662808D01*
X7832487D01*
Y5662227D01*
X7831906D01*
Y5661063D01*
X7831324D01*
Y5660482D01*
X7830742D01*
Y5659319D01*
X7830161D01*
Y5658737D01*
X7829579D01*
Y5657574D01*
X7828998D01*
Y5656411D01*
X7828416D01*
Y5655829D01*
X7827834D01*
Y5654666D01*
X7827253D01*
Y5654084D01*
X7826671D01*
Y5652921D01*
X7826090D01*
Y5652339D01*
X7825508D01*
Y5651176D01*
X7824926D01*
Y5650594D01*
X7824345D01*
Y5650013D01*
X7823763D01*
Y5648850D01*
X7823181D01*
Y5648268D01*
X7822600D01*
Y5647105D01*
X7822018D01*
Y5646523D01*
X7821436D01*
Y5645360D01*
X7820855D01*
Y5644778D01*
X7820273D01*
Y5643615D01*
X7819692D01*
Y5643034D01*
X7819110D01*
Y5641870D01*
X7818528D01*
Y5641289D01*
X7817947D01*
Y5640126D01*
X7817365D01*
Y5639544D01*
X7816784D01*
Y5638381D01*
X7816202D01*
Y5637799D01*
X7815620D01*
Y5637218D01*
X7815039D01*
Y5636054D01*
X7814457D01*
Y5635473D01*
X7813876D01*
Y5634310D01*
X7813294D01*
Y5633728D01*
X7812712D01*
Y5633146D01*
X7812131D01*
Y5632565D01*
X7811549D01*
Y5631401D01*
X7810968D01*
Y5630820D01*
X7810386D01*
Y5630238D01*
X7809804D01*
Y5629075D01*
X7809223D01*
Y5628493D01*
X7808641D01*
Y5627912D01*
X7808060D01*
Y5626748D01*
X7807478D01*
Y5626167D01*
X7806896D01*
Y5625585D01*
X7806315D01*
Y5625004D01*
X7805733D01*
Y5624422D01*
X7805152D01*
Y5623259D01*
X7804570D01*
Y5622677D01*
X7803988D01*
Y5622096D01*
X7803407D01*
Y5621514D01*
X7802825D01*
Y5620932D01*
X7802243D01*
Y5620351D01*
X7801662D01*
Y5619769D01*
X7801080D01*
Y5619188D01*
X7800499D01*
Y5618024D01*
X7799917D01*
Y5617443D01*
X7798754D01*
Y5616280D01*
X7798172D01*
Y5615698D01*
X7797591D01*
Y5615116D01*
X7797009D01*
Y5614535D01*
X7795846D01*
Y5613953D01*
X7795264D01*
Y5613372D01*
X7794683D01*
Y5612790D01*
X7794101D01*
Y5612208D01*
X7793519D01*
Y5611627D01*
X7792938D01*
Y5611045D01*
X7792356D01*
Y5610464D01*
X7791775D01*
Y5609882D01*
X7791193D01*
Y5609300D01*
X7790030D01*
Y5608137D01*
X7788866D01*
Y5607555D01*
X7788285D01*
Y5606974D01*
X7787703D01*
Y5606392D01*
X7786540D01*
Y5605810D01*
X7785958D01*
Y5605229D01*
X7785377D01*
Y5604647D01*
X7784214D01*
Y5604066D01*
X7783632D01*
Y5603484D01*
X7782469D01*
Y5602902D01*
X7781887D01*
Y5602321D01*
X7780724D01*
Y5601739D01*
X7779561D01*
Y5601158D01*
X7778397D01*
Y5600576D01*
X7777234D01*
Y5599994D01*
X7776071D01*
Y5599413D01*
X7775489D01*
Y5598831D01*
X7773745D01*
Y5598250D01*
X7772581D01*
Y5597668D01*
X7770255D01*
Y5597086D01*
X7768510D01*
Y5596505D01*
X7766184D01*
Y5595923D01*
X7763276D01*
Y5595342D01*
X7750480D01*
Y5595923D01*
X7746991D01*
Y5596505D01*
X7744664D01*
Y5597086D01*
X7742919D01*
Y5597668D01*
X7741756D01*
Y5598250D01*
X7740011D01*
Y5598831D01*
X7738266D01*
Y5599413D01*
X7737103D01*
Y5599994D01*
X7735940D01*
Y5600576D01*
X7734777D01*
Y5601158D01*
X7734195D01*
Y5601739D01*
X7733032D01*
Y5602321D01*
X7731869D01*
Y5602902D01*
X7731287D01*
Y5603484D01*
X7730124D01*
Y5604066D01*
X7729542D01*
Y5604647D01*
X7728379D01*
Y5605229D01*
X7727797D01*
Y5605810D01*
X7727216D01*
Y5606392D01*
X7726053D01*
Y5607555D01*
X7724889D01*
Y5608137D01*
X7724308D01*
Y5608719D01*
X7723726D01*
Y5609300D01*
X7723145D01*
Y5609882D01*
X7722563D01*
Y5610464D01*
X7721981D01*
Y5611045D01*
X7721400D01*
Y5611627D01*
X7720818D01*
Y5612208D01*
X7720237D01*
Y5612790D01*
X7719655D01*
Y5613372D01*
X7719073D01*
Y5613953D01*
X7718492D01*
Y5614535D01*
X7717910D01*
Y5615116D01*
X7717328D01*
Y5615698D01*
X7716747D01*
Y5616861D01*
X7716165D01*
Y5617443D01*
X7715584D01*
Y5618024D01*
X7715002D01*
Y5618606D01*
X7714420D01*
Y5619769D01*
X7713839D01*
Y5620351D01*
X7713257D01*
Y5620932D01*
X7712675D01*
Y5622096D01*
X7712094D01*
Y5623259D01*
X7711512D01*
Y5623840D01*
X7710931D01*
Y5625004D01*
X7710349D01*
Y5625585D01*
X7709767D01*
Y5626748D01*
X7709186D01*
Y5627912D01*
X7708604D01*
Y5628493D01*
X7708023D01*
Y5629657D01*
X7707441D01*
Y5630820D01*
X7706859D01*
Y5631401D01*
X7706278D01*
Y5632565D01*
X7705696D01*
Y5633728D01*
X7705115D01*
Y5634891D01*
X7704533D01*
Y5636054D01*
X7703951D01*
Y5637218D01*
X7703370D01*
Y5638381D01*
X7702788D01*
Y5639544D01*
X7702207D01*
Y5640707D01*
X7701625D01*
Y5642452D01*
X7701043D01*
Y5643615D01*
X7700462D01*
Y5645360D01*
X7699880D01*
Y5646523D01*
X7699299D01*
Y5648268D01*
X7698717D01*
Y5649431D01*
X7698135D01*
Y5651176D01*
X7697554D01*
Y5652921D01*
X7696972D01*
Y5654666D01*
X7696390D01*
Y5656411D01*
X7695809D01*
Y5658155D01*
X7695227D01*
Y5659900D01*
X7694646D01*
Y5661645D01*
X7694064D01*
Y5663971D01*
X7693482D01*
Y5666298D01*
X7692901D01*
Y5668624D01*
X7692319D01*
Y5671532D01*
X7691737D01*
Y5673859D01*
X7691156D01*
Y5677930D01*
X7690574D01*
Y5680838D01*
X7689993D01*
Y5685491D01*
X7689411D01*
Y5691889D01*
X7688829D01*
Y5706429D01*
X7689411D01*
Y5712827D01*
X7689993D01*
Y5716898D01*
X7690574D01*
Y5719806D01*
X7691156D01*
Y5722714D01*
X7691737D01*
Y5725041D01*
X7692319D01*
Y5726785D01*
X7692901D01*
Y5729112D01*
X7693482D01*
Y5730857D01*
X7694064D01*
Y5732020D01*
X7694646D01*
Y5733765D01*
X7695227D01*
Y5734928D01*
X7695809D01*
Y5736673D01*
X7696390D01*
Y5737836D01*
X7696972D01*
Y5738999D01*
X7697554D01*
Y5740163D01*
X7698135D01*
Y5741326D01*
X7698717D01*
Y5742489D01*
X7699299D01*
Y5743071D01*
X7699880D01*
Y5744234D01*
X7700462D01*
Y5745397D01*
X7701043D01*
Y5745979D01*
X7701625D01*
Y5747142D01*
X7702207D01*
Y5747723D01*
X7702788D01*
Y5748887D01*
X7703370D01*
Y5749468D01*
X7703951D01*
Y5750050D01*
X7704533D01*
Y5750631D01*
X7705115D01*
Y5751213D01*
X7705696D01*
Y5752376D01*
X7706278D01*
Y5752958D01*
X7706859D01*
Y5753539D01*
X7707441D01*
Y5754121D01*
X7708023D01*
Y5754703D01*
X7708604D01*
Y5755284D01*
X7709186D01*
Y5755866D01*
X7709767D01*
Y5756447D01*
X7710349D01*
Y5757029D01*
X7710931D01*
Y5757611D01*
X7711512D01*
Y5758192D01*
X7712094D01*
Y5758774D01*
X7713257D01*
Y5759356D01*
X7713839D01*
Y5759937D01*
X7714420D01*
Y5760519D01*
X7715002D01*
Y5761100D01*
X7716165D01*
Y5761682D01*
X7716747D01*
Y5762264D01*
X7717910D01*
Y5762845D01*
X7718492D01*
Y5763427D01*
X7719655D01*
Y5764009D01*
X7720237D01*
Y5764590D01*
X7721400D01*
Y5765172D01*
X7722563D01*
Y5765753D01*
X7723145D01*
Y5766335D01*
X7724889D01*
Y5766917D01*
X7726053D01*
Y5767498D01*
X7727216D01*
Y5768080D01*
X7728379D01*
Y5768661D01*
X7729542D01*
Y5769243D01*
X7731287D01*
Y5769825D01*
X7733032D01*
Y5770406D01*
X7734195D01*
Y5770988D01*
X7736521D01*
Y5771569D01*
X7738266D01*
Y5772151D01*
X7740011D01*
Y5772733D01*
X7742338D01*
Y5773314D01*
X7744664D01*
Y5773896D01*
X7747572D01*
Y5774477D01*
X7750480D01*
Y5775059D01*
X7753970D01*
Y5775641D01*
X7758623D01*
Y5776222D01*
X7781887D01*
Y5775641D01*
D02*
G37*
G36*
X8026163Y5756447D02*
X8029071D01*
Y5755866D01*
X8030816D01*
Y5755284D01*
X8031979D01*
Y5754703D01*
X8033143D01*
Y5754121D01*
X8034306D01*
Y5753539D01*
X8034887D01*
Y5752958D01*
X8036051D01*
Y5752376D01*
X8036632D01*
Y5751795D01*
X8037214D01*
Y5751213D01*
X8037795D01*
Y5750631D01*
X8038377D01*
Y5750050D01*
X8038959D01*
Y5749468D01*
X8039540D01*
Y5748887D01*
X8040122D01*
Y5748305D01*
X8040704D01*
Y5747723D01*
X8041285D01*
Y5746560D01*
X8042448D01*
Y5745397D01*
X8043030D01*
Y5744234D01*
X8043612D01*
Y5743071D01*
X8044193D01*
Y5741907D01*
X8044775D01*
Y5741326D01*
X8045357D01*
Y5740163D01*
X8045938D01*
Y5738418D01*
X8046520D01*
Y5737254D01*
X8047101D01*
Y5735509D01*
X8047683D01*
Y5733765D01*
X8048265D01*
Y5732601D01*
X8048846D01*
Y5730857D01*
X8049428D01*
Y5729112D01*
X8050009D01*
Y5727367D01*
X8050591D01*
Y5725622D01*
X8051173D01*
Y5722714D01*
X8051754D01*
Y5720388D01*
X8052336D01*
Y5717480D01*
X8052917D01*
Y5715153D01*
X8053499D01*
Y5710500D01*
X8054081D01*
Y5705847D01*
X8054662D01*
Y5691307D01*
X8054081D01*
Y5686073D01*
X8053499D01*
Y5683746D01*
X8052917D01*
Y5682001D01*
X8052336D01*
Y5682583D01*
X8051754D01*
Y5683165D01*
X8051173D01*
Y5683746D01*
X8050591D01*
Y5684909D01*
X8050009D01*
Y5685491D01*
X8049428D01*
Y5686654D01*
X8048846D01*
Y5687817D01*
X8048265D01*
Y5688981D01*
X8047683D01*
Y5690144D01*
X8047101D01*
Y5691889D01*
X8046520D01*
Y5693634D01*
X8045938D01*
Y5695960D01*
X8045357D01*
Y5698287D01*
X8044775D01*
Y5701195D01*
X8044193D01*
Y5705847D01*
X8043612D01*
Y5708755D01*
X8043030D01*
Y5713408D01*
X8042448D01*
Y5717480D01*
X8041867D01*
Y5720969D01*
X8041285D01*
Y5724459D01*
X8040704D01*
Y5726204D01*
X8040122D01*
Y5729112D01*
X8039540D01*
Y5730275D01*
X8038959D01*
Y5732020D01*
X8038377D01*
Y5733183D01*
X8037795D01*
Y5734346D01*
X8037214D01*
Y5735509D01*
X8036632D01*
Y5736673D01*
X8036051D01*
Y5737254D01*
X8035469D01*
Y5738418D01*
X8034887D01*
Y5738999D01*
X8034306D01*
Y5739581D01*
X8033724D01*
Y5740163D01*
X8033143D01*
Y5740744D01*
X8032561D01*
Y5741326D01*
X8031398D01*
Y5741907D01*
X8030816D01*
Y5742489D01*
X8030235D01*
Y5743071D01*
X8028490D01*
Y5743652D01*
X8027908D01*
Y5744234D01*
X8026163D01*
Y5744815D01*
X8019184D01*
Y5744234D01*
X8018021D01*
Y5743652D01*
X8016276D01*
Y5743071D01*
X8015694D01*
Y5742489D01*
X8014531D01*
Y5741907D01*
X8013368D01*
Y5741326D01*
X8012786D01*
Y5740744D01*
X8011623D01*
Y5740163D01*
X8011041D01*
Y5739581D01*
X8009878D01*
Y5738999D01*
X8009297D01*
Y5738418D01*
X8008133D01*
Y5737836D01*
X8007552D01*
Y5737254D01*
X8006970D01*
Y5736673D01*
X8005807D01*
Y5736091D01*
X8005225D01*
Y5735509D01*
X8004062D01*
Y5734928D01*
X8003481D01*
Y5734346D01*
X8002899D01*
Y5733765D01*
X8001736D01*
Y5733183D01*
X8000573D01*
Y5732601D01*
X7999991D01*
Y5732020D01*
X7999409D01*
Y5731438D01*
X7998246D01*
Y5730857D01*
X7997664D01*
Y5730275D01*
X7996501D01*
Y5729693D01*
X7995919D01*
Y5729112D01*
X7994756D01*
Y5728530D01*
X7994175D01*
Y5727949D01*
X7993593D01*
Y5727367D01*
X7992430D01*
Y5726785D01*
X7991848D01*
Y5726204D01*
X7991267D01*
Y5725622D01*
X7990103D01*
Y5725041D01*
X7989522D01*
Y5724459D01*
X7988359D01*
Y5723877D01*
X7987777D01*
Y5723296D01*
X7987195D01*
Y5722714D01*
X7986614D01*
Y5722133D01*
X7985451D01*
Y5721551D01*
X7984869D01*
Y5720969D01*
X7983706D01*
Y5720388D01*
X7983124D01*
Y5719806D01*
X7981961D01*
Y5719225D01*
X7981379D01*
Y5718643D01*
X7980798D01*
Y5718061D01*
X7979635D01*
Y5717480D01*
X7979053D01*
Y5716898D01*
X7978471D01*
Y5716316D01*
X7977890D01*
Y5715735D01*
X7977308D01*
Y5715153D01*
X7976145D01*
Y5714572D01*
X7975563D01*
Y5713990D01*
X7974400D01*
Y5713408D01*
X7973818D01*
Y5712827D01*
X7973237D01*
Y5712245D01*
X7972073D01*
Y5711663D01*
X7971492D01*
Y5711082D01*
X7970910D01*
Y5710500D01*
X7969747D01*
Y5709919D01*
X7969165D01*
Y5709337D01*
X7968002D01*
Y5708755D01*
X7967421D01*
Y5708174D01*
X7966257D01*
Y5707592D01*
X7965676D01*
Y5707011D01*
X7964513D01*
Y5706429D01*
X7963931D01*
Y5705847D01*
X7962768D01*
Y5705266D01*
X7961605D01*
Y5704684D01*
X7961023D01*
Y5704103D01*
X7959860D01*
Y5703521D01*
X7958697D01*
Y5702939D01*
X7957533D01*
Y5702358D01*
X7956370D01*
Y5701776D01*
X7955207D01*
Y5701195D01*
X7954044D01*
Y5700613D01*
X7952880D01*
Y5700031D01*
X7951717D01*
Y5699450D01*
X7950554D01*
Y5698868D01*
X7949391D01*
Y5698287D01*
X7947646D01*
Y5697705D01*
X7945901D01*
Y5697123D01*
X7944738D01*
Y5696542D01*
X7942411D01*
Y5695960D01*
X7940667D01*
Y5695378D01*
X7938922D01*
Y5694797D01*
X7936595D01*
Y5694215D01*
X7933687D01*
Y5693634D01*
X7930779D01*
Y5693052D01*
X7926126D01*
Y5692470D01*
X7907515D01*
Y5693052D01*
X7904025D01*
Y5693634D01*
X7900536D01*
Y5694215D01*
X7898209D01*
Y5694797D01*
X7895301D01*
Y5695378D01*
X7893556D01*
Y5695960D01*
X7891230D01*
Y5696542D01*
X7888903D01*
Y5697123D01*
X7889485D01*
Y5697705D01*
X7890648D01*
Y5698287D01*
X7892393D01*
Y5698868D01*
X7893556D01*
Y5699450D01*
X7895301D01*
Y5700031D01*
X7897046D01*
Y5700613D01*
X7899372D01*
Y5701195D01*
X7902280D01*
Y5701776D01*
X7905770D01*
Y5702358D01*
X7912168D01*
Y5702939D01*
X7921474D01*
Y5703521D01*
X7927871D01*
Y5704103D01*
X7932524D01*
Y5704684D01*
X7935432D01*
Y5705266D01*
X7937759D01*
Y5705847D01*
X7940085D01*
Y5706429D01*
X7941248D01*
Y5707011D01*
X7942993D01*
Y5707592D01*
X7944156D01*
Y5708174D01*
X7945901D01*
Y5708755D01*
X7947064D01*
Y5709337D01*
X7948227D01*
Y5709919D01*
X7949391D01*
Y5710500D01*
X7950554D01*
Y5711082D01*
X7951135D01*
Y5711663D01*
X7952299D01*
Y5712245D01*
X7952880D01*
Y5712827D01*
X7954044D01*
Y5713408D01*
X7955207D01*
Y5713990D01*
X7955789D01*
Y5714572D01*
X7956952D01*
Y5715153D01*
X7957533D01*
Y5715735D01*
X7958697D01*
Y5716316D01*
X7959278D01*
Y5716898D01*
X7960441D01*
Y5717480D01*
X7961023D01*
Y5718061D01*
X7961605D01*
Y5718643D01*
X7962768D01*
Y5719225D01*
X7963349D01*
Y5719806D01*
X7964513D01*
Y5720388D01*
X7965094D01*
Y5720969D01*
X7965676D01*
Y5721551D01*
X7966257D01*
Y5722133D01*
X7966839D01*
Y5722714D01*
X7968002D01*
Y5723296D01*
X7968584D01*
Y5723877D01*
X7969165D01*
Y5724459D01*
X7970329D01*
Y5725041D01*
X7970910D01*
Y5725622D01*
X7971492D01*
Y5726204D01*
X7972073D01*
Y5726785D01*
X7972655D01*
Y5727367D01*
X7973237D01*
Y5727949D01*
X7974400D01*
Y5728530D01*
X7974982D01*
Y5729112D01*
X7975563D01*
Y5729693D01*
X7976145D01*
Y5730275D01*
X7976726D01*
Y5730857D01*
X7977890D01*
Y5731438D01*
X7978471D01*
Y5732020D01*
X7979053D01*
Y5732601D01*
X7979635D01*
Y5733183D01*
X7980216D01*
Y5733765D01*
X7981379D01*
Y5734346D01*
X7981961D01*
Y5734928D01*
X7982543D01*
Y5735509D01*
X7983124D01*
Y5736091D01*
X7984287D01*
Y5737254D01*
X7985451D01*
Y5737836D01*
X7986032D01*
Y5738418D01*
X7986614D01*
Y5738999D01*
X7987777D01*
Y5739581D01*
X7988359D01*
Y5740163D01*
X7988940D01*
Y5740744D01*
X7989522D01*
Y5741326D01*
X7990685D01*
Y5741907D01*
X7991267D01*
Y5742489D01*
X7992430D01*
Y5743071D01*
X7993011D01*
Y5743652D01*
X7993593D01*
Y5744234D01*
X7994756D01*
Y5744815D01*
X7995338D01*
Y5745397D01*
X7995919D01*
Y5745979D01*
X7997083D01*
Y5746560D01*
X7998246D01*
Y5747142D01*
X7998828D01*
Y5747723D01*
X7999991D01*
Y5748305D01*
X8000573D01*
Y5748887D01*
X8001736D01*
Y5749468D01*
X8002317D01*
Y5750050D01*
X8003481D01*
Y5750631D01*
X8004644D01*
Y5751213D01*
X8005807D01*
Y5751795D01*
X8006970D01*
Y5752376D01*
X8008133D01*
Y5752958D01*
X8009878D01*
Y5753539D01*
X8011041D01*
Y5754121D01*
X8012786D01*
Y5754703D01*
X8013949D01*
Y5755284D01*
X8016276D01*
Y5755866D01*
X8017439D01*
Y5756447D01*
X8020929D01*
Y5757029D01*
X8026163D01*
Y5756447D01*
D02*
G37*
G36*
X8052336Y5667461D02*
X8051754D01*
Y5666879D01*
X8050591D01*
Y5666298D01*
X8050009D01*
Y5665716D01*
X8049428D01*
Y5665135D01*
X8048265D01*
Y5664553D01*
X8047683D01*
Y5663971D01*
X8046520D01*
Y5663390D01*
X8045938D01*
Y5662808D01*
X8044775D01*
Y5662227D01*
X8044193D01*
Y5661645D01*
X8043030D01*
Y5661063D01*
X8042448D01*
Y5660482D01*
X8041285D01*
Y5659900D01*
X8040122D01*
Y5659319D01*
X8038959D01*
Y5658737D01*
X8037795D01*
Y5658155D01*
X8037214D01*
Y5657574D01*
X8036051D01*
Y5656992D01*
X8035469D01*
Y5656411D01*
X8034306D01*
Y5655829D01*
X8033143D01*
Y5655247D01*
X8032561D01*
Y5654666D01*
X8031398D01*
Y5654084D01*
X8030235D01*
Y5653503D01*
X8029653D01*
Y5652921D01*
X8028490D01*
Y5652339D01*
X8027908D01*
Y5651758D01*
X8026745D01*
Y5651176D01*
X8026163D01*
Y5650594D01*
X8025582D01*
Y5650013D01*
X8024419D01*
Y5649431D01*
X8023837D01*
Y5648850D01*
X8023255D01*
Y5648268D01*
X8022092D01*
Y5647686D01*
X8021510D01*
Y5647105D01*
X8020929D01*
Y5646523D01*
X8020347D01*
Y5645942D01*
X8019766D01*
Y5645360D01*
X8019184D01*
Y5644778D01*
X8018021D01*
Y5644197D01*
X8017439D01*
Y5643615D01*
X8016857D01*
Y5643034D01*
X8016276D01*
Y5642452D01*
X8015694D01*
Y5641870D01*
X8015113D01*
Y5641289D01*
X8014531D01*
Y5640707D01*
X8013949D01*
Y5640126D01*
X8013368D01*
Y5639544D01*
X8012786D01*
Y5638962D01*
X8012205D01*
Y5638381D01*
X8011623D01*
Y5637799D01*
X8011041D01*
Y5637218D01*
X8010460D01*
Y5636636D01*
X8009878D01*
Y5636054D01*
X8009297D01*
Y5635473D01*
X8008715D01*
Y5634891D01*
X8008133D01*
Y5634310D01*
X8007552D01*
Y5633728D01*
X8006970D01*
Y5633146D01*
X8006389D01*
Y5632565D01*
X8005807D01*
Y5631983D01*
X8005225D01*
Y5631401D01*
X8004644D01*
Y5630820D01*
X8004062D01*
Y5629657D01*
X8003481D01*
Y5629075D01*
X8002899D01*
Y5628493D01*
X8002317D01*
Y5627912D01*
X8001736D01*
Y5627330D01*
X8001154D01*
Y5626748D01*
X8000573D01*
Y5625585D01*
X7999991D01*
Y5625004D01*
X7999409D01*
Y5624422D01*
X7998828D01*
Y5623840D01*
X7998246D01*
Y5623259D01*
X7997664D01*
Y5622096D01*
X7996501D01*
Y5620932D01*
X7995919D01*
Y5620351D01*
X7995338D01*
Y5619769D01*
X7994756D01*
Y5619188D01*
X7994175D01*
Y5618024D01*
X7993011D01*
Y5618606D01*
X7992430D01*
Y5619769D01*
X7991848D01*
Y5620351D01*
X7991267D01*
Y5621514D01*
X7990685D01*
Y5622096D01*
X7990103D01*
Y5625004D01*
X7989522D01*
Y5627330D01*
X7990103D01*
Y5629075D01*
X7990685D01*
Y5630820D01*
X7991267D01*
Y5631983D01*
X7991848D01*
Y5632565D01*
X7992430D01*
Y5633728D01*
X7993011D01*
Y5634310D01*
X7993593D01*
Y5634891D01*
X7994175D01*
Y5636054D01*
X7994756D01*
Y5636636D01*
X7995338D01*
Y5637218D01*
X7995919D01*
Y5637799D01*
X7996501D01*
Y5638381D01*
X7997083D01*
Y5638962D01*
X7997664D01*
Y5639544D01*
X7998246D01*
Y5640126D01*
X7998828D01*
Y5640707D01*
X7999409D01*
Y5641289D01*
X7999991D01*
Y5641870D01*
X8000573D01*
Y5642452D01*
X8001154D01*
Y5643034D01*
X8001736D01*
Y5643615D01*
X8002317D01*
Y5644197D01*
X8002899D01*
Y5644778D01*
X8003481D01*
Y5645360D01*
X8004062D01*
Y5645942D01*
X8004644D01*
Y5646523D01*
X8005225D01*
Y5647105D01*
X8005807D01*
Y5647686D01*
X8006970D01*
Y5648268D01*
X8007552D01*
Y5648850D01*
X8008133D01*
Y5649431D01*
X8008715D01*
Y5650013D01*
X8009297D01*
Y5650594D01*
X8009878D01*
Y5651176D01*
X8011041D01*
Y5651758D01*
X8011623D01*
Y5652339D01*
X8012205D01*
Y5652921D01*
X8012786D01*
Y5653503D01*
X8013949D01*
Y5654084D01*
X8014531D01*
Y5654666D01*
X8015694D01*
Y5655247D01*
X8016276D01*
Y5655829D01*
X8016857D01*
Y5656411D01*
X8018021D01*
Y5656992D01*
X8018602D01*
Y5657574D01*
X8019766D01*
Y5658155D01*
X8020347D01*
Y5658737D01*
X8021510D01*
Y5659319D01*
X8022674D01*
Y5659900D01*
X8023837D01*
Y5660482D01*
X8024419D01*
Y5661063D01*
X8025582D01*
Y5661645D01*
X8026745D01*
Y5662227D01*
X8028490D01*
Y5662808D01*
X8029653D01*
Y5663390D01*
X8030235D01*
Y5663971D01*
X8031979D01*
Y5664553D01*
X8033724D01*
Y5665135D01*
X8035469D01*
Y5665716D01*
X8037795D01*
Y5666298D01*
X8040122D01*
Y5666879D01*
X8042448D01*
Y5667461D01*
X8047101D01*
Y5668043D01*
X8052336D01*
Y5667461D01*
D02*
G37*
G36*
X8402465Y5711663D02*
X8405373D01*
Y5711082D01*
X8407699D01*
Y5710500D01*
X8409444D01*
Y5709919D01*
X8410608D01*
Y5709337D01*
X8411771D01*
Y5708755D01*
X8412934D01*
Y5708174D01*
X8414679D01*
Y5707592D01*
X8415260D01*
Y5707011D01*
X8415842D01*
Y5706429D01*
X8417005D01*
Y5705847D01*
X8417587D01*
Y5705266D01*
X8418168D01*
Y5704684D01*
X8418750D01*
Y5704103D01*
X8419332D01*
Y5703521D01*
X8419913D01*
Y5702939D01*
X8420495D01*
Y5702358D01*
X8421076D01*
Y5701776D01*
X8421658D01*
Y5701195D01*
X8422240D01*
Y5700613D01*
X8422821D01*
Y5699450D01*
X8423403D01*
Y5698868D01*
X8423984D01*
Y5697705D01*
X8424566D01*
Y5697123D01*
X8425148D01*
Y5696542D01*
X8425729D01*
Y5695378D01*
X8426311D01*
Y5694215D01*
X8426892D01*
Y5693052D01*
X8427474D01*
Y5691889D01*
X8428056D01*
Y5690725D01*
X8428637D01*
Y5688981D01*
X8429219D01*
Y5687236D01*
X8429801D01*
Y5685491D01*
X8430382D01*
Y5683746D01*
X8430964D01*
Y5681420D01*
X8431545D01*
Y5678512D01*
X8432127D01*
Y5675604D01*
X8432709D01*
Y5669788D01*
X8433290D01*
Y5656992D01*
X8432709D01*
Y5650013D01*
X8432127D01*
Y5646523D01*
X8431545D01*
Y5643034D01*
X8430964D01*
Y5640707D01*
X8430382D01*
Y5637799D01*
X8429801D01*
Y5634891D01*
X8429219D01*
Y5632565D01*
X8428637D01*
Y5630820D01*
X8428056D01*
Y5628493D01*
X8427474D01*
Y5626748D01*
X8426892D01*
Y5625004D01*
X8426311D01*
Y5623840D01*
X8425729D01*
Y5622096D01*
X8425148D01*
Y5620351D01*
X8424566D01*
Y5618606D01*
X8423984D01*
Y5617443D01*
X8423403D01*
Y5615698D01*
X8422821D01*
Y5614535D01*
X8422240D01*
Y5612790D01*
X8421658D01*
Y5611627D01*
X8421076D01*
Y5611045D01*
X8420495D01*
Y5609882D01*
X8419913D01*
Y5608137D01*
X8419332D01*
Y5606974D01*
X8418750D01*
Y5606392D01*
X8418168D01*
Y5605229D01*
X8417587D01*
Y5604647D01*
X8417005D01*
Y5603484D01*
X8416424D01*
Y5602321D01*
X8415842D01*
Y5601739D01*
X8415260D01*
Y5600576D01*
X8414679D01*
Y5599413D01*
X8414097D01*
Y5598831D01*
X8413516D01*
Y5598250D01*
X8412934D01*
Y5597086D01*
X8412352D01*
Y5596505D01*
X8411771D01*
Y5595923D01*
X8411189D01*
Y5595342D01*
X8410608D01*
Y5594760D01*
X8410026D01*
Y5594178D01*
X8409444D01*
Y5593597D01*
X8408863D01*
Y5593015D01*
X8408281D01*
Y5592434D01*
X8407699D01*
Y5591852D01*
X8407118D01*
Y5591270D01*
X8406536D01*
Y5590689D01*
X8405954D01*
Y5590107D01*
X8405373D01*
Y5589526D01*
X8404210D01*
Y5588362D01*
X8403046D01*
Y5587781D01*
X8402465D01*
Y5587199D01*
X8401302D01*
Y5586617D01*
X8400720D01*
Y5586036D01*
X8399557D01*
Y5585454D01*
X8398394D01*
Y5584872D01*
X8397230D01*
Y5584291D01*
X8396067D01*
Y5583709D01*
X8394322D01*
Y5583128D01*
X8391414D01*
Y5582546D01*
X8385598D01*
Y5583128D01*
X8383272D01*
Y5583709D01*
X8382108D01*
Y5584291D01*
X8380364D01*
Y5584872D01*
X8379200D01*
Y5585454D01*
X8378619D01*
Y5586036D01*
X8377456D01*
Y5586617D01*
X8376874D01*
Y5587199D01*
X8376292D01*
Y5587781D01*
X8375711D01*
Y5588362D01*
X8375129D01*
Y5588944D01*
X8374548D01*
Y5589526D01*
X8375129D01*
Y5590107D01*
X8381527D01*
Y5590689D01*
X8383853D01*
Y5591270D01*
X8386761D01*
Y5591852D01*
X8387925D01*
Y5592434D01*
X8389670D01*
Y5593015D01*
X8390833D01*
Y5593597D01*
X8391996D01*
Y5594178D01*
X8393159D01*
Y5594760D01*
X8394322D01*
Y5595342D01*
X8395486D01*
Y5595923D01*
X8396067D01*
Y5596505D01*
X8397230D01*
Y5597086D01*
X8397812D01*
Y5597668D01*
X8398975D01*
Y5598831D01*
X8400138D01*
Y5599413D01*
X8400720D01*
Y5599994D01*
X8401302D01*
Y5600576D01*
X8401883D01*
Y5601158D01*
X8402465D01*
Y5601739D01*
X8403046D01*
Y5602321D01*
X8403628D01*
Y5602902D01*
X8404210D01*
Y5603484D01*
X8404791D01*
Y5604066D01*
X8405373D01*
Y5604647D01*
X8405954D01*
Y5605229D01*
X8406536D01*
Y5606392D01*
X8407118D01*
Y5606974D01*
X8407699D01*
Y5608137D01*
X8408281D01*
Y5608719D01*
X8408863D01*
Y5609882D01*
X8409444D01*
Y5610464D01*
X8410026D01*
Y5611627D01*
X8410608D01*
Y5612790D01*
X8411189D01*
Y5613953D01*
X8411771D01*
Y5614535D01*
X8412352D01*
Y5615698D01*
X8412934D01*
Y5617443D01*
X8413516D01*
Y5618606D01*
X8414097D01*
Y5619769D01*
X8414679D01*
Y5621514D01*
X8415260D01*
Y5622677D01*
X8415842D01*
Y5624422D01*
X8416424D01*
Y5626167D01*
X8417005D01*
Y5627912D01*
X8417587D01*
Y5629657D01*
X8418168D01*
Y5632565D01*
X8418750D01*
Y5634891D01*
X8419332D01*
Y5637799D01*
X8419913D01*
Y5640707D01*
X8420495D01*
Y5644197D01*
X8421076D01*
Y5650013D01*
X8421658D01*
Y5654666D01*
X8422240D01*
Y5668624D01*
X8421658D01*
Y5673277D01*
X8421076D01*
Y5676185D01*
X8420495D01*
Y5677930D01*
X8419913D01*
Y5680257D01*
X8419332D01*
Y5682001D01*
X8418750D01*
Y5683746D01*
X8418168D01*
Y5684909D01*
X8417587D01*
Y5686073D01*
X8417005D01*
Y5687236D01*
X8416424D01*
Y5688399D01*
X8415842D01*
Y5689562D01*
X8415260D01*
Y5690144D01*
X8414679D01*
Y5691307D01*
X8414097D01*
Y5691889D01*
X8413516D01*
Y5692470D01*
X8412934D01*
Y5693052D01*
X8412352D01*
Y5694215D01*
X8411771D01*
Y5694797D01*
X8411189D01*
Y5695378D01*
X8410608D01*
Y5695960D01*
X8410026D01*
Y5696542D01*
X8408863D01*
Y5697123D01*
X8408281D01*
Y5697705D01*
X8407118D01*
Y5698287D01*
X8406536D01*
Y5698868D01*
X8405373D01*
Y5699450D01*
X8403628D01*
Y5700031D01*
X8401302D01*
Y5700613D01*
X8393159D01*
Y5700031D01*
X8391414D01*
Y5699450D01*
X8389670D01*
Y5698868D01*
X8389088D01*
Y5698287D01*
X8387925D01*
Y5697705D01*
X8386761D01*
Y5696542D01*
X8385598D01*
Y5695378D01*
X8385017D01*
Y5694797D01*
X8384435D01*
Y5694215D01*
X8383853D01*
Y5693052D01*
X8383272D01*
Y5692470D01*
X8382690D01*
Y5690725D01*
X8382108D01*
Y5688981D01*
X8381527D01*
Y5687236D01*
X8380945D01*
Y5684909D01*
X8380364D01*
Y5669788D01*
X8380945D01*
Y5663971D01*
X8381527D01*
Y5659319D01*
X8382108D01*
Y5654666D01*
X8382690D01*
Y5646523D01*
X8383272D01*
Y5634310D01*
X8382690D01*
Y5629075D01*
X8382108D01*
Y5625585D01*
X8381527D01*
Y5623840D01*
X8380945D01*
Y5622096D01*
X8380364D01*
Y5620351D01*
X8379782D01*
Y5619188D01*
X8379200D01*
Y5617443D01*
X8378619D01*
Y5616861D01*
X8378037D01*
Y5616280D01*
X8377456D01*
Y5615116D01*
X8376874D01*
Y5614535D01*
X8376292D01*
Y5613953D01*
X8375711D01*
Y5613372D01*
X8375129D01*
Y5612790D01*
X8374548D01*
Y5612208D01*
X8373966D01*
Y5611627D01*
X8373384D01*
Y5611045D01*
X8372803D01*
Y5610464D01*
X8371640D01*
Y5609882D01*
X8371058D01*
Y5609300D01*
X8369895D01*
Y5608719D01*
X8368150D01*
Y5608137D01*
X8366405D01*
Y5607555D01*
X8365242D01*
Y5608719D01*
X8365824D01*
Y5609300D01*
X8366405D01*
Y5610464D01*
X8366987D01*
Y5611627D01*
X8367568D01*
Y5612790D01*
X8368150D01*
Y5613953D01*
X8368732D01*
Y5615116D01*
X8369313D01*
Y5616280D01*
X8369895D01*
Y5617443D01*
X8370476D01*
Y5618606D01*
X8371058D01*
Y5620351D01*
X8371640D01*
Y5622096D01*
X8372221D01*
Y5623840D01*
X8372803D01*
Y5626748D01*
X8373384D01*
Y5631401D01*
X8373966D01*
Y5640707D01*
X8373384D01*
Y5647105D01*
X8372803D01*
Y5651758D01*
X8372221D01*
Y5654666D01*
X8371640D01*
Y5659319D01*
X8371058D01*
Y5662808D01*
X8370476D01*
Y5666879D01*
X8369895D01*
Y5672696D01*
X8369313D01*
Y5684328D01*
X8369895D01*
Y5688399D01*
X8370476D01*
Y5690725D01*
X8371058D01*
Y5693052D01*
X8371640D01*
Y5694215D01*
X8372221D01*
Y5695378D01*
X8372803D01*
Y5696542D01*
X8373384D01*
Y5697705D01*
X8373966D01*
Y5698868D01*
X8374548D01*
Y5700031D01*
X8375129D01*
Y5700613D01*
X8375711D01*
Y5701195D01*
X8376292D01*
Y5702358D01*
X8377456D01*
Y5703521D01*
X8378037D01*
Y5704103D01*
X8378619D01*
Y5704684D01*
X8379200D01*
Y5705266D01*
X8379782D01*
Y5705847D01*
X8380945D01*
Y5706429D01*
X8381527D01*
Y5707011D01*
X8382108D01*
Y5707592D01*
X8383272D01*
Y5708174D01*
X8384435D01*
Y5708755D01*
X8385017D01*
Y5709337D01*
X8386761D01*
Y5709919D01*
X8387925D01*
Y5710500D01*
X8389670D01*
Y5711082D01*
X8391414D01*
Y5711663D01*
X8394322D01*
Y5712245D01*
X8402465D01*
Y5711663D01*
D02*
G37*
G36*
X8326856Y5665135D02*
X8331509D01*
Y5664553D01*
X8335580D01*
Y5663971D01*
X8337906D01*
Y5663390D01*
X8340233D01*
Y5662808D01*
X8341396D01*
Y5662227D01*
X8343141D01*
Y5661645D01*
X8344886D01*
Y5661063D01*
X8346049D01*
Y5660482D01*
X8347212D01*
Y5659900D01*
X8348375D01*
Y5659319D01*
X8349538D01*
Y5658737D01*
X8350702D01*
Y5658155D01*
X8351865D01*
Y5657574D01*
X8352446D01*
Y5656992D01*
X8353610D01*
Y5656411D01*
X8354191D01*
Y5655829D01*
X8355354D01*
Y5655247D01*
X8355936D01*
Y5654666D01*
X8357099D01*
Y5654084D01*
X8357681D01*
Y5653503D01*
X8358262D01*
Y5652921D01*
X8358844D01*
Y5652339D01*
X8359426D01*
Y5651758D01*
X8360007D01*
Y5651176D01*
X8360589D01*
Y5650594D01*
X8361170D01*
Y5650013D01*
X8361752D01*
Y5648850D01*
X8362334D01*
Y5648268D01*
X8362915D01*
Y5647686D01*
X8363497D01*
Y5646523D01*
X8364079D01*
Y5645942D01*
X8364660D01*
Y5644778D01*
X8365242D01*
Y5643615D01*
X8365824D01*
Y5642452D01*
X8366405D01*
Y5641289D01*
X8366987D01*
Y5639544D01*
X8367568D01*
Y5637799D01*
X8368150D01*
Y5635473D01*
X8368732D01*
Y5623259D01*
X8368150D01*
Y5620351D01*
X8367568D01*
Y5618024D01*
X8366987D01*
Y5616280D01*
X8366405D01*
Y5614535D01*
X8365824D01*
Y5612790D01*
X8365242D01*
Y5611627D01*
X8364660D01*
Y5610464D01*
X8364079D01*
Y5609300D01*
X8363497D01*
Y5608137D01*
X8362915D01*
Y5607555D01*
X8362334D01*
Y5606392D01*
X8361752D01*
Y5605229D01*
X8361170D01*
Y5604647D01*
X8360589D01*
Y5603484D01*
X8360007D01*
Y5602902D01*
X8359426D01*
Y5602321D01*
X8358844D01*
Y5601158D01*
X8358262D01*
Y5600576D01*
X8357681D01*
Y5599994D01*
X8357099D01*
Y5598831D01*
X8356518D01*
Y5598250D01*
X8355936D01*
Y5597668D01*
X8355354D01*
Y5597086D01*
X8354773D01*
Y5596505D01*
X8354191D01*
Y5595923D01*
X8353610D01*
Y5595342D01*
X8353028D01*
Y5594760D01*
X8352446D01*
Y5594178D01*
X8351283D01*
Y5593597D01*
X8350702D01*
Y5593015D01*
X8350120D01*
Y5592434D01*
X8349538D01*
Y5591852D01*
X8348375D01*
Y5591270D01*
X8347794D01*
Y5590689D01*
X8346630D01*
Y5590107D01*
X8345467D01*
Y5589526D01*
X8344304D01*
Y5588944D01*
X8343141D01*
Y5588362D01*
X8341396D01*
Y5587781D01*
X8340233D01*
Y5587199D01*
X8338488D01*
Y5586617D01*
X8335580D01*
Y5586036D01*
X8333835D01*
Y5585454D01*
X8330927D01*
Y5584872D01*
X8328600D01*
Y5584291D01*
X8325692D01*
Y5583709D01*
X8322784D01*
Y5583128D01*
X8319876D01*
Y5582546D01*
X8318131D01*
Y5581964D01*
X8315805D01*
Y5581383D01*
X8314642D01*
Y5580801D01*
X8312897D01*
Y5580220D01*
X8311152D01*
Y5579638D01*
X8309989D01*
Y5579056D01*
X8308244D01*
Y5578475D01*
X8307081D01*
Y5577893D01*
X8305336D01*
Y5577312D01*
X8304173D01*
Y5576730D01*
X8303010D01*
Y5576148D01*
X8301846D01*
Y5575567D01*
X8300102D01*
Y5574985D01*
X8298938D01*
Y5574404D01*
X8297775D01*
Y5573822D01*
X8296612D01*
Y5573240D01*
X8295449D01*
Y5572659D01*
X8293704D01*
Y5572077D01*
X8292541D01*
Y5571496D01*
X8291959D01*
Y5570914D01*
X8290214D01*
Y5570332D01*
X8289051D01*
Y5569751D01*
X8287888D01*
Y5569169D01*
X8287306D01*
Y5568588D01*
X8285561D01*
Y5568006D01*
X8284398D01*
Y5567424D01*
X8283235D01*
Y5566843D01*
X8282653D01*
Y5566261D01*
X8280909D01*
Y5565679D01*
X8279745D01*
Y5565098D01*
X8279164D01*
Y5564516D01*
X8278000D01*
Y5563935D01*
X8276837D01*
Y5563353D01*
X8275092D01*
Y5562771D01*
X8273929D01*
Y5562190D01*
X8273347D01*
Y5561608D01*
X8271603D01*
Y5561026D01*
X8270439D01*
Y5560445D01*
X8269276D01*
Y5559863D01*
X8268695D01*
Y5559282D01*
X8267531D01*
Y5558700D01*
X8266368D01*
Y5558118D01*
X8265205D01*
Y5557537D01*
X8264042D01*
Y5556955D01*
X8262879D01*
Y5556374D01*
X8261134D01*
Y5555792D01*
X8260552D01*
Y5555210D01*
X8259389D01*
Y5554629D01*
X8258226D01*
Y5554047D01*
X8257062D01*
Y5553466D01*
X8256481D01*
Y5552884D01*
X8254736D01*
Y5552302D01*
X8253573D01*
Y5551721D01*
X8251828D01*
Y5551139D01*
X8251246D01*
Y5550558D01*
X8249501D01*
Y5549976D01*
X8248338D01*
Y5549394D01*
X8246593D01*
Y5548813D01*
X8244849D01*
Y5548231D01*
X8242522D01*
Y5547650D01*
X8239614D01*
Y5547068D01*
X8232053D01*
Y5547650D01*
X8229145D01*
Y5548231D01*
X8227400D01*
Y5548813D01*
X8226237D01*
Y5549394D01*
X8225074D01*
Y5549976D01*
X8223911D01*
Y5550558D01*
X8223329D01*
Y5551139D01*
X8222747D01*
Y5551721D01*
X8222166D01*
Y5552302D01*
X8221003D01*
Y5552884D01*
X8220421D01*
Y5553466D01*
X8219839D01*
Y5554047D01*
X8219258D01*
Y5554629D01*
X8218676D01*
Y5555210D01*
X8218095D01*
Y5556374D01*
X8223911D01*
Y5556955D01*
X8229727D01*
Y5557537D01*
X8233216D01*
Y5558118D01*
X8236124D01*
Y5558700D01*
X8238451D01*
Y5559282D01*
X8240777D01*
Y5559863D01*
X8242522D01*
Y5560445D01*
X8244849D01*
Y5561026D01*
X8246593D01*
Y5561608D01*
X8248338D01*
Y5562190D01*
X8249501D01*
Y5562771D01*
X8251246D01*
Y5563353D01*
X8252991D01*
Y5563935D01*
X8254154D01*
Y5564516D01*
X8255317D01*
Y5565098D01*
X8256481D01*
Y5565679D01*
X8258226D01*
Y5566261D01*
X8259389D01*
Y5566843D01*
X8260552D01*
Y5567424D01*
X8261715D01*
Y5568006D01*
X8262879D01*
Y5568588D01*
X8264042D01*
Y5569169D01*
X8265205D01*
Y5569751D01*
X8265787D01*
Y5570332D01*
X8267531D01*
Y5570914D01*
X8268695D01*
Y5571496D01*
X8269858D01*
Y5572077D01*
X8270439D01*
Y5572659D01*
X8272184D01*
Y5573240D01*
X8273347D01*
Y5573822D01*
X8273929D01*
Y5574404D01*
X8275092D01*
Y5574985D01*
X8276255D01*
Y5575567D01*
X8277419D01*
Y5576148D01*
X8278582D01*
Y5576730D01*
X8279745D01*
Y5577312D01*
X8280909D01*
Y5577893D01*
X8282072D01*
Y5578475D01*
X8283235D01*
Y5579056D01*
X8284398D01*
Y5579638D01*
X8285561D01*
Y5580220D01*
X8286725D01*
Y5580801D01*
X8287888D01*
Y5581383D01*
X8289051D01*
Y5581964D01*
X8290214D01*
Y5582546D01*
X8291377D01*
Y5583128D01*
X8292541D01*
Y5583709D01*
X8293704D01*
Y5584291D01*
X8294867D01*
Y5584872D01*
X8296030D01*
Y5585454D01*
X8296612D01*
Y5586036D01*
X8298357D01*
Y5586617D01*
X8299520D01*
Y5587199D01*
X8300683D01*
Y5587781D01*
X8301846D01*
Y5588362D01*
X8303010D01*
Y5588944D01*
X8304755D01*
Y5589526D01*
X8305918D01*
Y5590107D01*
X8307663D01*
Y5590689D01*
X8309407D01*
Y5591270D01*
X8310571D01*
Y5591852D01*
X8312315D01*
Y5592434D01*
X8314642D01*
Y5593015D01*
X8316968D01*
Y5593597D01*
X8319295D01*
Y5594178D01*
X8323366D01*
Y5594760D01*
X8326274D01*
Y5595342D01*
X8329764D01*
Y5595923D01*
X8332672D01*
Y5596505D01*
X8333835D01*
Y5597086D01*
X8336161D01*
Y5597668D01*
X8337325D01*
Y5598250D01*
X8338488D01*
Y5598831D01*
X8339651D01*
Y5599413D01*
X8340814D01*
Y5599994D01*
X8341396D01*
Y5600576D01*
X8342559D01*
Y5601158D01*
X8343141D01*
Y5601739D01*
X8343722D01*
Y5602321D01*
X8344886D01*
Y5602902D01*
X8345467D01*
Y5603484D01*
X8346049D01*
Y5604066D01*
X8346630D01*
Y5604647D01*
X8347212D01*
Y5605229D01*
X8347794D01*
Y5605810D01*
X8348375D01*
Y5606392D01*
X8348957D01*
Y5606974D01*
X8349538D01*
Y5607555D01*
X8350120D01*
Y5608137D01*
X8350702D01*
Y5608719D01*
X8351283D01*
Y5609882D01*
X8351865D01*
Y5610464D01*
X8352446D01*
Y5611627D01*
X8353028D01*
Y5612790D01*
X8353610D01*
Y5613372D01*
X8354191D01*
Y5614535D01*
X8354773D01*
Y5616280D01*
X8355354D01*
Y5617443D01*
X8355936D01*
Y5619769D01*
X8356518D01*
Y5625004D01*
X8357099D01*
Y5626748D01*
X8356518D01*
Y5631401D01*
X8355936D01*
Y5633728D01*
X8355354D01*
Y5634891D01*
X8354773D01*
Y5636054D01*
X8354191D01*
Y5637799D01*
X8353610D01*
Y5638962D01*
X8353028D01*
Y5639544D01*
X8352446D01*
Y5640707D01*
X8351865D01*
Y5641870D01*
X8351283D01*
Y5642452D01*
X8350702D01*
Y5643034D01*
X8350120D01*
Y5643615D01*
X8349538D01*
Y5644197D01*
X8348957D01*
Y5644778D01*
X8348375D01*
Y5645360D01*
X8347794D01*
Y5645942D01*
X8347212D01*
Y5646523D01*
X8346630D01*
Y5647105D01*
X8346049D01*
Y5647686D01*
X8344886D01*
Y5648268D01*
X8344304D01*
Y5648850D01*
X8343141D01*
Y5649431D01*
X8341977D01*
Y5650013D01*
X8341396D01*
Y5650594D01*
X8340233D01*
Y5651176D01*
X8338488D01*
Y5651758D01*
X8337325D01*
Y5652339D01*
X8335580D01*
Y5652921D01*
X8333835D01*
Y5653503D01*
X8332090D01*
Y5654084D01*
X8329182D01*
Y5654666D01*
X8326274D01*
Y5655247D01*
X8321621D01*
Y5655829D01*
X8312315D01*
Y5656411D01*
X8311734D01*
Y5655829D01*
X8300683D01*
Y5655247D01*
X8296030D01*
Y5654666D01*
X8291959D01*
Y5654084D01*
X8289051D01*
Y5653503D01*
X8285561D01*
Y5652921D01*
X8283235D01*
Y5652339D01*
X8280327D01*
Y5651758D01*
X8278000D01*
Y5651176D01*
X8275674D01*
Y5650594D01*
X8273929D01*
Y5650013D01*
X8271603D01*
Y5649431D01*
X8269276D01*
Y5648850D01*
X8267531D01*
Y5648268D01*
X8265787D01*
Y5647686D01*
X8264042D01*
Y5647105D01*
X8262297D01*
Y5646523D01*
X8260552D01*
Y5645942D01*
X8258807D01*
Y5645360D01*
X8257062D01*
Y5644778D01*
X8255317D01*
Y5644197D01*
X8253573D01*
Y5643615D01*
X8252409D01*
Y5643034D01*
X8250665D01*
Y5642452D01*
X8248920D01*
Y5641870D01*
X8247757D01*
Y5641289D01*
X8246012D01*
Y5640707D01*
X8244267D01*
Y5640126D01*
X8242522D01*
Y5639544D01*
X8241359D01*
Y5638962D01*
X8240196D01*
Y5638381D01*
X8238451D01*
Y5637799D01*
X8237288D01*
Y5637218D01*
X8236124D01*
Y5636636D01*
X8234380D01*
Y5636054D01*
X8233216D01*
Y5635473D01*
X8231471D01*
Y5634891D01*
X8230308D01*
Y5634310D01*
X8229145D01*
Y5633728D01*
X8227982D01*
Y5633146D01*
X8226819D01*
Y5632565D01*
X8225655D01*
Y5631983D01*
X8224492D01*
Y5631401D01*
X8223911D01*
Y5630820D01*
X8222747D01*
Y5630238D01*
X8221584D01*
Y5629657D01*
X8220421D01*
Y5629075D01*
X8219839D01*
Y5628493D01*
X8218676D01*
Y5627912D01*
X8218095D01*
Y5627330D01*
X8216931D01*
Y5626748D01*
X8216350D01*
Y5626167D01*
X8215768D01*
Y5625585D01*
X8215187D01*
Y5625004D01*
X8214605D01*
Y5624422D01*
X8213442D01*
Y5623840D01*
X8212860D01*
Y5623259D01*
X8212278D01*
Y5622677D01*
X8211697D01*
Y5622096D01*
X8211115D01*
Y5621514D01*
X8210534D01*
Y5620932D01*
X8209952D01*
Y5619769D01*
X8209370D01*
Y5619188D01*
X8208789D01*
Y5618606D01*
X8208207D01*
Y5617443D01*
X8207626D01*
Y5616861D01*
X8207044D01*
Y5616280D01*
X8206462D01*
Y5615116D01*
X8205881D01*
Y5613953D01*
X8205299D01*
Y5612790D01*
X8204717D01*
Y5611627D01*
X8204136D01*
Y5610464D01*
X8203554D01*
Y5609300D01*
X8202973D01*
Y5607555D01*
X8202391D01*
Y5605810D01*
X8201809D01*
Y5604066D01*
X8201228D01*
Y5601739D01*
X8200646D01*
Y5598831D01*
X8200065D01*
Y5594178D01*
X8199483D01*
Y5582546D01*
X8200065D01*
Y5577893D01*
X8200646D01*
Y5573822D01*
X8201228D01*
Y5570914D01*
X8201809D01*
Y5569169D01*
X8202391D01*
Y5566843D01*
X8202973D01*
Y5565098D01*
X8203554D01*
Y5563353D01*
X8204136D01*
Y5561608D01*
X8204717D01*
Y5559863D01*
X8205299D01*
Y5558118D01*
X8205881D01*
Y5556955D01*
X8206462D01*
Y5555210D01*
X8207044D01*
Y5554047D01*
X8207626D01*
Y5552884D01*
X8208207D01*
Y5551721D01*
X8208789D01*
Y5550558D01*
X8209370D01*
Y5549394D01*
X8209952D01*
Y5548231D01*
X8210534D01*
Y5547068D01*
X8211115D01*
Y5545905D01*
X8211697D01*
Y5544742D01*
X8212278D01*
Y5544160D01*
X8210534D01*
Y5544742D01*
X8209370D01*
Y5545323D01*
X8208207D01*
Y5545905D01*
X8207044D01*
Y5546486D01*
X8206462D01*
Y5547068D01*
X8205299D01*
Y5547650D01*
X8204717D01*
Y5548231D01*
X8204136D01*
Y5548813D01*
X8202973D01*
Y5549394D01*
X8202391D01*
Y5549976D01*
X8201809D01*
Y5550558D01*
X8201228D01*
Y5551139D01*
X8200646D01*
Y5552302D01*
X8199483D01*
Y5553466D01*
X8198901D01*
Y5554047D01*
X8198320D01*
Y5554629D01*
X8197738D01*
Y5555792D01*
X8197157D01*
Y5556374D01*
X8196575D01*
Y5556955D01*
X8195993D01*
Y5558700D01*
X8195412D01*
Y5559282D01*
X8194830D01*
Y5560445D01*
X8194249D01*
Y5561608D01*
X8193667D01*
Y5563353D01*
X8193085D01*
Y5564516D01*
X8192504D01*
Y5566261D01*
X8191922D01*
Y5567424D01*
X8191340D01*
Y5569751D01*
X8190759D01*
Y5572077D01*
X8190177D01*
Y5574985D01*
X8189596D01*
Y5578475D01*
X8189014D01*
Y5584872D01*
X8188432D01*
Y5589526D01*
X8189014D01*
Y5598831D01*
X8189596D01*
Y5602321D01*
X8190177D01*
Y5605229D01*
X8190759D01*
Y5608137D01*
X8191340D01*
Y5609882D01*
X8191922D01*
Y5611627D01*
X8192504D01*
Y5612790D01*
X8193085D01*
Y5615116D01*
X8193667D01*
Y5616280D01*
X8194249D01*
Y5617443D01*
X8194830D01*
Y5619188D01*
X8195412D01*
Y5619769D01*
X8195993D01*
Y5621514D01*
X8196575D01*
Y5622096D01*
X8197157D01*
Y5623259D01*
X8197738D01*
Y5624422D01*
X8198320D01*
Y5625004D01*
X8198901D01*
Y5625585D01*
X8199483D01*
Y5626748D01*
X8200065D01*
Y5627330D01*
X8200646D01*
Y5628493D01*
X8201228D01*
Y5629075D01*
X8201809D01*
Y5629657D01*
X8202391D01*
Y5630238D01*
X8202973D01*
Y5630820D01*
X8203554D01*
Y5631401D01*
X8204136D01*
Y5631983D01*
X8204717D01*
Y5632565D01*
X8205299D01*
Y5633728D01*
X8206462D01*
Y5634310D01*
X8207044D01*
Y5634891D01*
X8207626D01*
Y5635473D01*
X8208207D01*
Y5636054D01*
X8208789D01*
Y5636636D01*
X8209370D01*
Y5637218D01*
X8209952D01*
Y5637799D01*
X8211115D01*
Y5638381D01*
X8211697D01*
Y5638962D01*
X8212278D01*
Y5639544D01*
X8213442D01*
Y5640126D01*
X8214023D01*
Y5640707D01*
X8214605D01*
Y5641289D01*
X8215768D01*
Y5641870D01*
X8216350D01*
Y5642452D01*
X8217513D01*
Y5643034D01*
X8218095D01*
Y5643615D01*
X8219258D01*
Y5644197D01*
X8220421D01*
Y5644778D01*
X8221003D01*
Y5645360D01*
X8222747D01*
Y5645942D01*
X8223911D01*
Y5646523D01*
X8224492D01*
Y5647105D01*
X8225655D01*
Y5647686D01*
X8226819D01*
Y5648268D01*
X8228563D01*
Y5648850D01*
X8229727D01*
Y5649431D01*
X8230308D01*
Y5650013D01*
X8232053D01*
Y5650594D01*
X8233216D01*
Y5651176D01*
X8234961D01*
Y5651758D01*
X8236124D01*
Y5652339D01*
X8237869D01*
Y5652921D01*
X8239614D01*
Y5653503D01*
X8241359D01*
Y5654084D01*
X8242522D01*
Y5654666D01*
X8244267D01*
Y5655247D01*
X8246593D01*
Y5655829D01*
X8248338D01*
Y5656411D01*
X8250083D01*
Y5656992D01*
X8252409D01*
Y5657574D01*
X8254736D01*
Y5658155D01*
X8256481D01*
Y5658737D01*
X8259389D01*
Y5659319D01*
X8262297D01*
Y5659900D01*
X8264623D01*
Y5660482D01*
X8268113D01*
Y5661063D01*
X8271021D01*
Y5661645D01*
X8275092D01*
Y5662227D01*
X8278000D01*
Y5662808D01*
X8282653D01*
Y5663390D01*
X8287306D01*
Y5663971D01*
X8292541D01*
Y5664553D01*
X8299520D01*
Y5665135D01*
X8309407D01*
Y5665716D01*
X8326856D01*
Y5665135D01*
D02*
G37*
G36*
X7880179Y5698287D02*
X7879598D01*
Y5696542D01*
X7879016D01*
Y5695378D01*
X7878434D01*
Y5694215D01*
X7877853D01*
Y5693052D01*
X7877271D01*
Y5691307D01*
X7876690D01*
Y5690144D01*
X7876108D01*
Y5688399D01*
X7875526D01*
Y5687236D01*
X7874945D01*
Y5686073D01*
X7874363D01*
Y5684909D01*
X7873782D01*
Y5683746D01*
X7873200D01*
Y5682583D01*
X7872618D01*
Y5681420D01*
X7872037D01*
Y5680257D01*
X7871455D01*
Y5679093D01*
X7870874D01*
Y5677930D01*
X7870292D01*
Y5676767D01*
X7869710D01*
Y5675604D01*
X7869129D01*
Y5675022D01*
X7868547D01*
Y5673859D01*
X7867965D01*
Y5672696D01*
X7867384D01*
Y5671532D01*
X7866802D01*
Y5670951D01*
X7866220D01*
Y5669788D01*
X7865639D01*
Y5668624D01*
X7865057D01*
Y5668043D01*
X7864476D01*
Y5666879D01*
X7863894D01*
Y5665716D01*
X7863312D01*
Y5665135D01*
X7862731D01*
Y5663971D01*
X7862149D01*
Y5663390D01*
X7861568D01*
Y5662808D01*
X7860986D01*
Y5661645D01*
X7860404D01*
Y5660482D01*
X7859823D01*
Y5659319D01*
X7859241D01*
Y5658737D01*
X7858660D01*
Y5658155D01*
X7858078D01*
Y5656992D01*
X7857496D01*
Y5656411D01*
X7856915D01*
Y5655829D01*
X7856333D01*
Y5654666D01*
X7855752D01*
Y5654084D01*
X7855170D01*
Y5652921D01*
X7854588D01*
Y5652339D01*
X7854007D01*
Y5651176D01*
X7853425D01*
Y5650594D01*
X7852844D01*
Y5650013D01*
X7852262D01*
Y5648850D01*
X7851680D01*
Y5648268D01*
X7851099D01*
Y5647686D01*
X7850517D01*
Y5646523D01*
X7849936D01*
Y5645942D01*
X7849354D01*
Y5645360D01*
X7848772D01*
Y5644197D01*
X7848191D01*
Y5643615D01*
X7847609D01*
Y5643034D01*
X7847027D01*
Y5641870D01*
X7846446D01*
Y5641289D01*
X7845864D01*
Y5640707D01*
X7845283D01*
Y5639544D01*
X7844701D01*
Y5638962D01*
X7844119D01*
Y5638381D01*
X7843538D01*
Y5637218D01*
X7842956D01*
Y5636636D01*
X7842374D01*
Y5636054D01*
X7841793D01*
Y5635473D01*
X7841211D01*
Y5634891D01*
X7840630D01*
Y5633728D01*
X7840048D01*
Y5633146D01*
X7839466D01*
Y5632565D01*
X7838885D01*
Y5631401D01*
X7837722D01*
Y5630238D01*
X7837140D01*
Y5629657D01*
X7836558D01*
Y5629075D01*
X7835977D01*
Y5627912D01*
X7835395D01*
Y5627330D01*
X7834814D01*
Y5626748D01*
X7834232D01*
Y5626167D01*
X7833650D01*
Y5625585D01*
X7833069D01*
Y5624422D01*
X7832487D01*
Y5623840D01*
X7831906D01*
Y5623259D01*
X7831324D01*
Y5622677D01*
X7830742D01*
Y5622096D01*
X7830161D01*
Y5620932D01*
X7829579D01*
Y5620351D01*
X7828998D01*
Y5619769D01*
X7828416D01*
Y5619188D01*
X7827834D01*
Y5618606D01*
X7827253D01*
Y5617443D01*
X7826671D01*
Y5616861D01*
X7826090D01*
Y5616280D01*
X7825508D01*
Y5615698D01*
X7824926D01*
Y5615116D01*
X7824345D01*
Y5614535D01*
X7823763D01*
Y5613372D01*
X7823181D01*
Y5612790D01*
X7822600D01*
Y5612208D01*
X7822018D01*
Y5611627D01*
X7821436D01*
Y5610464D01*
X7820855D01*
Y5609882D01*
X7820273D01*
Y5609300D01*
X7819692D01*
Y5608719D01*
X7819110D01*
Y5608137D01*
X7818528D01*
Y5607555D01*
X7817947D01*
Y5606392D01*
X7817365D01*
Y5605810D01*
X7816784D01*
Y5605229D01*
X7816202D01*
Y5604647D01*
X7815620D01*
Y5603484D01*
X7814457D01*
Y5602321D01*
X7813876D01*
Y5601739D01*
X7813294D01*
Y5601158D01*
X7812712D01*
Y5599994D01*
X7811549D01*
Y5598831D01*
X7810968D01*
Y5598250D01*
X7810386D01*
Y5597668D01*
X7809804D01*
Y5596505D01*
X7809223D01*
Y5595923D01*
X7808641D01*
Y5595342D01*
X7808060D01*
Y5594760D01*
X7807478D01*
Y5594178D01*
X7806896D01*
Y5593597D01*
X7806315D01*
Y5592434D01*
X7805152D01*
Y5591270D01*
X7804570D01*
Y5590689D01*
X7803988D01*
Y5589526D01*
X7802825D01*
Y5588362D01*
X7802243D01*
Y5587781D01*
X7801662D01*
Y5587199D01*
X7801080D01*
Y5586617D01*
X7800499D01*
Y5586036D01*
X7799917D01*
Y5584872D01*
X7799335D01*
Y5584291D01*
X7798754D01*
Y5583128D01*
X7798172D01*
Y5582546D01*
X7797591D01*
Y5581964D01*
X7797009D01*
Y5581383D01*
X7796427D01*
Y5580220D01*
X7795846D01*
Y5579638D01*
X7795264D01*
Y5579056D01*
X7794683D01*
Y5578475D01*
X7794101D01*
Y5577312D01*
X7793519D01*
Y5576730D01*
X7792938D01*
Y5575567D01*
X7792356D01*
Y5574985D01*
X7791775D01*
Y5574404D01*
X7791193D01*
Y5573240D01*
X7790611D01*
Y5572077D01*
X7790030D01*
Y5571496D01*
X7789448D01*
Y5570914D01*
X7788866D01*
Y5569751D01*
X7788285D01*
Y5568588D01*
X7787703D01*
Y5568006D01*
X7787122D01*
Y5566261D01*
X7786540D01*
Y5565679D01*
X7785958D01*
Y5564516D01*
X7785377D01*
Y5563353D01*
X7784795D01*
Y5562771D01*
X7784214D01*
Y5561608D01*
X7783632D01*
Y5559863D01*
X7783050D01*
Y5558700D01*
X7782469D01*
Y5557537D01*
X7781887D01*
Y5555792D01*
X7781305D01*
Y5554629D01*
X7780724D01*
Y5552302D01*
X7780142D01*
Y5551139D01*
X7779561D01*
Y5549394D01*
X7778979D01*
Y5547068D01*
X7778397D01*
Y5544742D01*
X7777816D01*
Y5541252D01*
X7777234D01*
Y5536599D01*
X7776653D01*
Y5527875D01*
X7777234D01*
Y5523222D01*
X7777816D01*
Y5520895D01*
X7778397D01*
Y5518569D01*
X7778979D01*
Y5516824D01*
X7779561D01*
Y5515079D01*
X7780142D01*
Y5513335D01*
X7780724D01*
Y5512171D01*
X7781305D01*
Y5510427D01*
X7781887D01*
Y5509263D01*
X7782469D01*
Y5508682D01*
X7783050D01*
Y5507519D01*
X7783632D01*
Y5506355D01*
X7784214D01*
Y5505774D01*
X7784795D01*
Y5504611D01*
X7785377D01*
Y5503447D01*
X7785958D01*
Y5502866D01*
X7786540D01*
Y5501702D01*
X7787122D01*
Y5501121D01*
X7787703D01*
Y5499958D01*
X7788285D01*
Y5499376D01*
X7788866D01*
Y5498794D01*
X7789448D01*
Y5497631D01*
X7790030D01*
Y5497049D01*
X7790611D01*
Y5496468D01*
X7791193D01*
Y5495886D01*
X7791775D01*
Y5495305D01*
X7792356D01*
Y5494141D01*
X7793519D01*
Y5492978D01*
X7794683D01*
Y5491815D01*
X7795846D01*
Y5490652D01*
X7796427D01*
Y5490070D01*
X7797009D01*
Y5489489D01*
X7798172D01*
Y5488325D01*
X7799335D01*
Y5487744D01*
X7799917D01*
Y5487162D01*
X7800499D01*
Y5486581D01*
X7801080D01*
Y5485999D01*
X7801662D01*
Y5485417D01*
X7802825D01*
Y5484836D01*
X7803407D01*
Y5484254D01*
X7803988D01*
Y5483673D01*
X7804570D01*
Y5483091D01*
X7805152D01*
Y5482509D01*
X7806315D01*
Y5481928D01*
X7806896D01*
Y5481346D01*
X7807478D01*
Y5480765D01*
X7808641D01*
Y5480183D01*
X7809223D01*
Y5479601D01*
X7810386D01*
Y5479020D01*
X7810968D01*
Y5478438D01*
X7812131D01*
Y5477856D01*
X7812712D01*
Y5477275D01*
X7813294D01*
Y5476693D01*
X7814457D01*
Y5476111D01*
X7815039D01*
Y5475530D01*
X7816202D01*
Y5474948D01*
X7817365D01*
Y5474367D01*
X7817947D01*
Y5473785D01*
X7819110D01*
Y5473203D01*
X7820273D01*
Y5472622D01*
X7820855D01*
Y5472040D01*
X7822018D01*
Y5471459D01*
X7822600D01*
Y5470877D01*
X7823763D01*
Y5470295D01*
X7824926D01*
Y5469714D01*
X7826090D01*
Y5469132D01*
X7826671D01*
Y5468551D01*
X7828416D01*
Y5467969D01*
X7828998D01*
Y5467387D01*
X7830161D01*
Y5466806D01*
X7831324D01*
Y5466224D01*
X7831906D01*
Y5465643D01*
X7833069D01*
Y5465061D01*
X7834232D01*
Y5464479D01*
X7835395D01*
Y5463898D01*
X7836558D01*
Y5463316D01*
X7837722D01*
Y5462735D01*
X7839466D01*
Y5462153D01*
X7840630D01*
Y5461571D01*
X7841793D01*
Y5460990D01*
X7842956D01*
Y5460408D01*
X7844119D01*
Y5459827D01*
X7845283D01*
Y5459245D01*
X7847027D01*
Y5458663D01*
X7848191D01*
Y5458082D01*
X7849354D01*
Y5457500D01*
X7850517D01*
Y5456918D01*
X7852262D01*
Y5456337D01*
X7853425D01*
Y5455755D01*
X7855170D01*
Y5455173D01*
X7856333D01*
Y5454592D01*
X7858078D01*
Y5454010D01*
X7859241D01*
Y5453429D01*
X7860986D01*
Y5452847D01*
X7862731D01*
Y5452265D01*
X7863894D01*
Y5451684D01*
X7865639D01*
Y5451102D01*
X7867384D01*
Y5450521D01*
X7869129D01*
Y5449939D01*
X7870292D01*
Y5449357D01*
X7872618D01*
Y5448776D01*
X7874945D01*
Y5448194D01*
X7876108D01*
Y5447613D01*
X7877853D01*
Y5447031D01*
X7879598D01*
Y5446449D01*
X7881924D01*
Y5445868D01*
X7884250D01*
Y5445286D01*
X7885995D01*
Y5444705D01*
X7887740D01*
Y5444123D01*
X7890067D01*
Y5443541D01*
X7892393D01*
Y5442960D01*
X7894720D01*
Y5442378D01*
X7897046D01*
Y5441797D01*
X7899954D01*
Y5441215D01*
X7902862D01*
Y5440633D01*
X7905188D01*
Y5440052D01*
X7907515D01*
Y5439470D01*
X7911004D01*
Y5438889D01*
X7914494D01*
Y5438307D01*
X7917402D01*
Y5437725D01*
X7921474D01*
Y5437144D01*
X7925545D01*
Y5436562D01*
X7929616D01*
Y5435980D01*
X7934269D01*
Y5435399D01*
X7940085D01*
Y5434817D01*
X7948809D01*
Y5434236D01*
X7960441D01*
Y5434817D01*
X7968002D01*
Y5435399D01*
X7974982D01*
Y5435980D01*
X7980798D01*
Y5436562D01*
X8000573D01*
Y5435980D01*
X8005225D01*
Y5435399D01*
X8007552D01*
Y5434817D01*
X8009297D01*
Y5433654D01*
X8008133D01*
Y5433072D01*
X8007552D01*
Y5432491D01*
X8006389D01*
Y5431909D01*
X8005225D01*
Y5431327D01*
X8004062D01*
Y5430746D01*
X8002899D01*
Y5430164D01*
X8001736D01*
Y5429583D01*
X8000573D01*
Y5429001D01*
X7998828D01*
Y5428419D01*
X7997083D01*
Y5427838D01*
X7995919D01*
Y5427256D01*
X7993593D01*
Y5426675D01*
X7991267D01*
Y5426093D01*
X7988940D01*
Y5425511D01*
X7986032D01*
Y5424930D01*
X7981961D01*
Y5424348D01*
X7977308D01*
Y5423767D01*
X7969747D01*
Y5423185D01*
X7954044D01*
Y5423767D01*
X7945901D01*
Y5424348D01*
X7940667D01*
Y5424930D01*
X7937759D01*
Y5425511D01*
X7933687D01*
Y5426093D01*
X7930779D01*
Y5426675D01*
X7928453D01*
Y5427256D01*
X7926126D01*
Y5427838D01*
X7924382D01*
Y5425511D01*
X7923800D01*
Y5423767D01*
X7923218D01*
Y5421440D01*
X7922637D01*
Y5419695D01*
X7922055D01*
Y5417951D01*
X7921474D01*
Y5416206D01*
X7920892D01*
Y5415043D01*
X7920310D01*
Y5413879D01*
X7919729D01*
Y5412716D01*
X7919147D01*
Y5410971D01*
X7918566D01*
Y5409808D01*
X7917984D01*
Y5408645D01*
X7917402D01*
Y5406900D01*
X7916821D01*
Y5405737D01*
X7916239D01*
Y5404573D01*
X7915658D01*
Y5403410D01*
X7915076D01*
Y5402247D01*
X7914494D01*
Y5400502D01*
X7913913D01*
Y5398757D01*
X7913331D01*
Y5397594D01*
X7912749D01*
Y5395849D01*
X7912168D01*
Y5394105D01*
X7911586D01*
Y5391778D01*
X7911004D01*
Y5390033D01*
X7910423D01*
Y5388288D01*
X7909841D01*
Y5385962D01*
X7909260D01*
Y5384217D01*
X7908678D01*
Y5382472D01*
X7908096D01*
Y5380146D01*
X7907515D01*
Y5378401D01*
X7906933D01*
Y5376656D01*
X7906352D01*
Y5374911D01*
X7905770D01*
Y5373167D01*
X7905188D01*
Y5371422D01*
X7904607D01*
Y5370258D01*
X7904025D01*
Y5369095D01*
X7903444D01*
Y5367932D01*
X7902862D01*
Y5367350D01*
X7902280D01*
Y5367932D01*
X7901699D01*
Y5369095D01*
X7901117D01*
Y5370258D01*
X7900536D01*
Y5371422D01*
X7899954D01*
Y5373167D01*
X7899372D01*
Y5375493D01*
X7898791D01*
Y5379564D01*
X7898209D01*
Y5385380D01*
X7898791D01*
Y5389452D01*
X7899372D01*
Y5392941D01*
X7899954D01*
Y5395268D01*
X7900536D01*
Y5397013D01*
X7901117D01*
Y5399339D01*
X7901699D01*
Y5401084D01*
X7902280D01*
Y5402247D01*
X7902862D01*
Y5404573D01*
X7903444D01*
Y5405737D01*
X7904025D01*
Y5406900D01*
X7904607D01*
Y5408645D01*
X7905188D01*
Y5410389D01*
X7905770D01*
Y5411553D01*
X7906352D01*
Y5412716D01*
X7906933D01*
Y5414461D01*
X7907515D01*
Y5416206D01*
X7908096D01*
Y5417369D01*
X7908678D01*
Y5418532D01*
X7909260D01*
Y5420277D01*
X7909841D01*
Y5422022D01*
X7910423D01*
Y5423185D01*
X7911004D01*
Y5424930D01*
X7911586D01*
Y5426675D01*
X7912168D01*
Y5427838D01*
X7912749D01*
Y5429583D01*
X7913331D01*
Y5431327D01*
X7913913D01*
Y5431909D01*
X7913331D01*
Y5432491D01*
X7909260D01*
Y5433072D01*
X7904025D01*
Y5433654D01*
X7899954D01*
Y5434236D01*
X7895883D01*
Y5434817D01*
X7892393D01*
Y5435399D01*
X7889485D01*
Y5435980D01*
X7886577D01*
Y5436562D01*
X7884250D01*
Y5437144D01*
X7881342D01*
Y5437725D01*
X7878434D01*
Y5438307D01*
X7876690D01*
Y5438889D01*
X7873782D01*
Y5439470D01*
X7872037D01*
Y5440052D01*
X7869710D01*
Y5440633D01*
X7867384D01*
Y5441215D01*
X7865639D01*
Y5441797D01*
X7863312D01*
Y5442378D01*
X7860986D01*
Y5442960D01*
X7859823D01*
Y5443541D01*
X7858078D01*
Y5444123D01*
X7856333D01*
Y5444705D01*
X7854588D01*
Y5445286D01*
X7852844D01*
Y5445868D01*
X7851099D01*
Y5446449D01*
X7849354D01*
Y5447031D01*
X7848191D01*
Y5447613D01*
X7846446D01*
Y5448194D01*
X7844701D01*
Y5448776D01*
X7843538D01*
Y5449357D01*
X7841793D01*
Y5449939D01*
X7840630D01*
Y5450521D01*
X7839466D01*
Y5451102D01*
X7837722D01*
Y5451684D01*
X7836558D01*
Y5452265D01*
X7835395D01*
Y5452847D01*
X7834232D01*
Y5453429D01*
X7833069D01*
Y5454010D01*
X7831906D01*
Y5454592D01*
X7830161D01*
Y5455173D01*
X7829579D01*
Y5455755D01*
X7828416D01*
Y5456337D01*
X7827253D01*
Y5456918D01*
X7826090D01*
Y5457500D01*
X7824926D01*
Y5458082D01*
X7823763D01*
Y5458663D01*
X7823181D01*
Y5459245D01*
X7822018D01*
Y5459827D01*
X7820855D01*
Y5460408D01*
X7820273D01*
Y5460990D01*
X7819110D01*
Y5461571D01*
X7817947D01*
Y5462153D01*
X7817365D01*
Y5462735D01*
X7816202D01*
Y5463316D01*
X7815620D01*
Y5463898D01*
X7814457D01*
Y5464479D01*
X7813294D01*
Y5465061D01*
X7812712D01*
Y5465643D01*
X7811549D01*
Y5466224D01*
X7810968D01*
Y5466806D01*
X7809804D01*
Y5467387D01*
X7809223D01*
Y5467969D01*
X7808641D01*
Y5468551D01*
X7807478D01*
Y5469132D01*
X7806315D01*
Y5469714D01*
X7805733D01*
Y5470295D01*
X7804570D01*
Y5470877D01*
X7803988D01*
Y5471459D01*
X7802825D01*
Y5472040D01*
X7802243D01*
Y5472622D01*
X7801080D01*
Y5473203D01*
X7800499D01*
Y5473785D01*
X7799335D01*
Y5474367D01*
X7798754D01*
Y5474948D01*
X7797591D01*
Y5475530D01*
X7797009D01*
Y5476111D01*
X7795846D01*
Y5476693D01*
X7794683D01*
Y5477275D01*
X7794101D01*
Y5477856D01*
X7792356D01*
Y5478438D01*
X7791775D01*
Y5479020D01*
X7791193D01*
Y5479601D01*
X7790030D01*
Y5480183D01*
X7789448D01*
Y5478438D01*
X7790030D01*
Y5477856D01*
X7790611D01*
Y5476693D01*
X7791193D01*
Y5475530D01*
X7791775D01*
Y5473785D01*
X7792356D01*
Y5473203D01*
X7792938D01*
Y5471459D01*
X7793519D01*
Y5470295D01*
X7794101D01*
Y5469132D01*
X7794683D01*
Y5467969D01*
X7795264D01*
Y5466806D01*
X7795846D01*
Y5465061D01*
X7796427D01*
Y5463898D01*
X7797009D01*
Y5462735D01*
X7797591D01*
Y5461571D01*
X7798172D01*
Y5460408D01*
X7798754D01*
Y5458663D01*
X7799335D01*
Y5457500D01*
X7799917D01*
Y5455755D01*
X7800499D01*
Y5454592D01*
X7801080D01*
Y5452847D01*
X7801662D01*
Y5451684D01*
X7802243D01*
Y5449939D01*
X7802825D01*
Y5448194D01*
X7803407D01*
Y5446449D01*
X7803988D01*
Y5445286D01*
X7804570D01*
Y5443541D01*
X7805152D01*
Y5441797D01*
X7805733D01*
Y5439470D01*
X7806315D01*
Y5437725D01*
X7806896D01*
Y5435980D01*
X7807478D01*
Y5433654D01*
X7808060D01*
Y5431327D01*
X7808641D01*
Y5429583D01*
X7809223D01*
Y5427256D01*
X7809804D01*
Y5424930D01*
X7810386D01*
Y5422022D01*
X7810968D01*
Y5420277D01*
X7811549D01*
Y5417369D01*
X7812131D01*
Y5415043D01*
X7812712D01*
Y5412134D01*
X7813294D01*
Y5409226D01*
X7813876D01*
Y5406318D01*
X7814457D01*
Y5402829D01*
X7815039D01*
Y5399339D01*
Y5398757D01*
X7815620D01*
Y5394105D01*
X7816202D01*
Y5390033D01*
X7816784D01*
Y5387125D01*
X7817365D01*
Y5384217D01*
X7817947D01*
Y5381891D01*
X7818528D01*
Y5379564D01*
X7819110D01*
Y5377238D01*
X7819692D01*
Y5375493D01*
X7820273D01*
Y5374330D01*
X7820855D01*
Y5373748D01*
X7821436D01*
Y5372585D01*
X7822018D01*
Y5371422D01*
X7822600D01*
Y5370840D01*
X7823181D01*
Y5369677D01*
X7823763D01*
Y5369095D01*
X7824345D01*
Y5368514D01*
X7824926D01*
Y5367932D01*
X7825508D01*
Y5367350D01*
X7826671D01*
Y5366769D01*
X7827834D01*
Y5366187D01*
X7834814D01*
Y5366769D01*
X7836558D01*
Y5367350D01*
X7837722D01*
Y5367932D01*
X7839466D01*
Y5368514D01*
X7840630D01*
Y5369095D01*
X7842374D01*
Y5369677D01*
X7842956D01*
Y5370258D01*
X7844119D01*
Y5370840D01*
X7845283D01*
Y5371422D01*
X7847027D01*
Y5372003D01*
X7848191D01*
Y5372585D01*
X7849354D01*
Y5373167D01*
X7851099D01*
Y5373748D01*
X7853425D01*
Y5374330D01*
X7855170D01*
Y5374911D01*
X7858660D01*
Y5375493D01*
X7863312D01*
Y5376075D01*
X7872037D01*
Y5375493D01*
X7876108D01*
Y5374911D01*
X7878434D01*
Y5374330D01*
X7880761D01*
Y5373748D01*
X7882506D01*
Y5373167D01*
X7883669D01*
Y5372585D01*
X7884832D01*
Y5372003D01*
X7885995D01*
Y5371422D01*
X7886577D01*
Y5370840D01*
X7887740D01*
Y5370258D01*
X7888322D01*
Y5369677D01*
X7888903D01*
Y5369095D01*
X7890067D01*
Y5368514D01*
X7890648D01*
Y5367932D01*
X7891230D01*
Y5367350D01*
X7891811D01*
Y5366187D01*
X7892393D01*
Y5365606D01*
X7892975D01*
Y5365024D01*
X7893556D01*
Y5363279D01*
X7894138D01*
Y5362116D01*
X7894720D01*
Y5360953D01*
X7895301D01*
Y5359208D01*
X7895883D01*
Y5356300D01*
X7895301D01*
Y5356882D01*
X7893556D01*
Y5357463D01*
X7892975D01*
Y5358045D01*
X7891811D01*
Y5358626D01*
X7891230D01*
Y5359208D01*
X7890067D01*
Y5359790D01*
X7888903D01*
Y5360371D01*
X7888322D01*
Y5360953D01*
X7887158D01*
Y5361534D01*
X7885995D01*
Y5362116D01*
X7884832D01*
Y5362698D01*
X7884250D01*
Y5363279D01*
X7882506D01*
Y5363861D01*
X7881342D01*
Y5364442D01*
X7879598D01*
Y5365024D01*
X7877271D01*
Y5365606D01*
X7874945D01*
Y5366187D01*
X7867384D01*
Y5365606D01*
X7864476D01*
Y5365024D01*
X7862731D01*
Y5364442D01*
X7860986D01*
Y5363861D01*
X7859241D01*
Y5363279D01*
X7858078D01*
Y5362698D01*
X7856333D01*
Y5362116D01*
X7855170D01*
Y5361534D01*
X7854007D01*
Y5360953D01*
X7852844D01*
Y5360371D01*
X7851680D01*
Y5359790D01*
X7850517D01*
Y5359208D01*
X7848772D01*
Y5358626D01*
X7847609D01*
Y5358045D01*
X7847027D01*
Y5357463D01*
X7845283D01*
Y5356882D01*
X7843538D01*
Y5356300D01*
X7842374D01*
Y5355718D01*
X7840630D01*
Y5355137D01*
X7838885D01*
Y5354555D01*
X7836558D01*
Y5353974D01*
X7833069D01*
Y5353392D01*
X7828416D01*
Y5353974D01*
X7826090D01*
Y5354555D01*
X7823763D01*
Y5355137D01*
X7822600D01*
Y5355718D01*
X7821436D01*
Y5356300D01*
X7820855D01*
Y5356882D01*
X7819692D01*
Y5357463D01*
X7819110D01*
Y5358045D01*
X7817947D01*
Y5358626D01*
X7817365D01*
Y5359208D01*
X7816784D01*
Y5359790D01*
X7816202D01*
Y5360371D01*
X7815620D01*
Y5361534D01*
X7814457D01*
Y5362698D01*
X7813876D01*
Y5363861D01*
X7813294D01*
Y5364442D01*
X7812712D01*
Y5365606D01*
X7812131D01*
Y5366187D01*
X7811549D01*
Y5367932D01*
X7810968D01*
Y5369095D01*
X7810386D01*
Y5370840D01*
X7809804D01*
Y5372003D01*
X7809223D01*
Y5374330D01*
X7808641D01*
Y5376075D01*
X7808060D01*
Y5378401D01*
X7807478D01*
Y5380146D01*
X7806896D01*
Y5383054D01*
X7806315D01*
Y5385962D01*
X7805733D01*
Y5389452D01*
X7805152D01*
Y5392360D01*
X7804570D01*
Y5395268D01*
X7803988D01*
Y5398757D01*
X7803407D01*
Y5401084D01*
X7802825D01*
Y5403410D01*
X7802243D01*
Y5406318D01*
X7801662D01*
Y5409808D01*
X7801080D01*
Y5412134D01*
X7800499D01*
Y5415043D01*
X7799917D01*
Y5417369D01*
X7799335D01*
Y5420277D01*
X7798754D01*
Y5422022D01*
X7798172D01*
Y5424930D01*
X7797591D01*
Y5427838D01*
X7797009D01*
Y5429583D01*
X7796427D01*
Y5431327D01*
X7795846D01*
Y5434236D01*
X7795264D01*
Y5435980D01*
X7794683D01*
Y5438307D01*
X7794101D01*
Y5440052D01*
X7793519D01*
Y5441797D01*
X7792938D01*
Y5443541D01*
X7792356D01*
Y5445286D01*
X7791775D01*
Y5447031D01*
X7791193D01*
Y5448776D01*
X7790611D01*
Y5449939D01*
X7790030D01*
Y5452265D01*
X7789448D01*
Y5453429D01*
X7788866D01*
Y5454592D01*
X7788285D01*
Y5456337D01*
X7787703D01*
Y5457500D01*
X7787122D01*
Y5459245D01*
X7786540D01*
Y5460408D01*
X7785958D01*
Y5461571D01*
X7785377D01*
Y5462735D01*
X7784795D01*
Y5463898D01*
X7784214D01*
Y5465061D01*
X7783632D01*
Y5465643D01*
X7783050D01*
Y5466806D01*
X7782469D01*
Y5467969D01*
X7781887D01*
Y5468551D01*
X7781305D01*
Y5469714D01*
X7780724D01*
Y5470877D01*
X7780142D01*
Y5471459D01*
X7779561D01*
Y5472622D01*
X7778979D01*
Y5473203D01*
X7778397D01*
Y5474367D01*
X7777816D01*
Y5474948D01*
X7777234D01*
Y5476111D01*
X7776653D01*
Y5477275D01*
X7776071D01*
Y5477856D01*
X7775489D01*
Y5479020D01*
X7774908D01*
Y5479601D01*
X7774326D01*
Y5480765D01*
X7773745D01*
Y5481928D01*
X7773163D01*
Y5482509D01*
X7772581D01*
Y5483673D01*
X7772000D01*
Y5484254D01*
X7771418D01*
Y5485417D01*
X7770837D01*
Y5486581D01*
X7770255D01*
Y5487162D01*
X7769673D01*
Y5488907D01*
X7769092D01*
Y5490070D01*
X7768510D01*
Y5490652D01*
X7767929D01*
Y5492397D01*
X7767347D01*
Y5492978D01*
X7769092D01*
Y5492397D01*
X7770837D01*
Y5491815D01*
X7772581D01*
Y5491233D01*
X7774326D01*
Y5490652D01*
X7776071D01*
Y5490070D01*
X7777816D01*
Y5489489D01*
X7779561D01*
Y5490652D01*
X7778979D01*
Y5491233D01*
X7778397D01*
Y5491815D01*
X7777816D01*
Y5492978D01*
X7777234D01*
Y5493560D01*
X7776653D01*
Y5494723D01*
X7776071D01*
Y5495305D01*
X7775489D01*
Y5496468D01*
X7774908D01*
Y5497049D01*
X7774326D01*
Y5498213D01*
X7773745D01*
Y5499376D01*
X7773163D01*
Y5499958D01*
X7772581D01*
Y5501121D01*
X7772000D01*
Y5502284D01*
X7771418D01*
Y5503447D01*
X7770837D01*
Y5504611D01*
X7770255D01*
Y5505774D01*
X7769673D01*
Y5507519D01*
X7769092D01*
Y5508682D01*
X7768510D01*
Y5510427D01*
X7767929D01*
Y5512753D01*
X7767347D01*
Y5515079D01*
X7766765D01*
Y5516824D01*
X7766184D01*
Y5519151D01*
X7765602D01*
Y5522059D01*
X7765021D01*
Y5526712D01*
X7764439D01*
Y5540670D01*
X7765021D01*
Y5545323D01*
X7765602D01*
Y5548813D01*
X7766184D01*
Y5551139D01*
X7766765D01*
Y5552884D01*
X7767347D01*
Y5555210D01*
X7767929D01*
Y5556955D01*
X7768510D01*
Y5558700D01*
X7769092D01*
Y5560445D01*
X7769673D01*
Y5561608D01*
X7770255D01*
Y5563353D01*
X7770837D01*
Y5564516D01*
X7771418D01*
Y5566261D01*
X7772000D01*
Y5566843D01*
X7772581D01*
Y5568588D01*
X7773163D01*
Y5569751D01*
X7773745D01*
Y5570914D01*
X7774326D01*
Y5571496D01*
X7774908D01*
Y5572659D01*
X7775489D01*
Y5573822D01*
X7776071D01*
Y5574985D01*
X7776653D01*
Y5575567D01*
X7777234D01*
Y5576730D01*
X7777816D01*
Y5577893D01*
X7778397D01*
Y5578475D01*
X7778979D01*
Y5579638D01*
X7779561D01*
Y5580220D01*
X7780142D01*
Y5581383D01*
X7780724D01*
Y5582546D01*
X7781305D01*
Y5583128D01*
X7781887D01*
Y5584291D01*
X7782469D01*
Y5584872D01*
X7783050D01*
Y5586036D01*
X7783632D01*
Y5586617D01*
X7784214D01*
Y5587199D01*
X7784795D01*
Y5588362D01*
X7785377D01*
Y5588944D01*
X7785958D01*
Y5589526D01*
X7786540D01*
Y5590689D01*
X7787122D01*
Y5591270D01*
X7787703D01*
Y5591852D01*
X7788285D01*
Y5593015D01*
X7788866D01*
Y5593597D01*
X7789448D01*
Y5594178D01*
X7790030D01*
Y5595342D01*
X7790611D01*
Y5595923D01*
X7791193D01*
Y5596505D01*
X7791775D01*
Y5597086D01*
X7792356D01*
Y5598250D01*
X7792938D01*
Y5598831D01*
X7793519D01*
Y5599413D01*
X7794101D01*
Y5599994D01*
X7794683D01*
Y5600576D01*
X7795264D01*
Y5601158D01*
X7795846D01*
Y5602321D01*
X7796427D01*
Y5602902D01*
X7797009D01*
Y5603484D01*
X7797591D01*
Y5604066D01*
X7798172D01*
Y5604647D01*
X7798754D01*
Y5605810D01*
X7799335D01*
Y5606392D01*
X7799917D01*
Y5606974D01*
X7800499D01*
Y5607555D01*
X7801080D01*
Y5608137D01*
X7801662D01*
Y5608719D01*
X7802243D01*
Y5609300D01*
X7802825D01*
Y5609882D01*
X7803407D01*
Y5610464D01*
X7803988D01*
Y5611627D01*
X7805152D01*
Y5612790D01*
X7805733D01*
Y5613372D01*
X7806315D01*
Y5613953D01*
X7806896D01*
Y5614535D01*
X7807478D01*
Y5615116D01*
X7808060D01*
Y5615698D01*
X7808641D01*
Y5616280D01*
X7809223D01*
Y5617443D01*
X7809804D01*
Y5618024D01*
X7810386D01*
Y5618606D01*
X7810968D01*
Y5619188D01*
X7811549D01*
Y5619769D01*
X7812131D01*
Y5620351D01*
X7812712D01*
Y5620932D01*
X7813294D01*
Y5621514D01*
X7813876D01*
Y5622096D01*
X7814457D01*
Y5622677D01*
X7815039D01*
Y5623259D01*
X7815620D01*
Y5623840D01*
X7816202D01*
Y5624422D01*
X7816784D01*
Y5625585D01*
X7817365D01*
Y5626167D01*
X7817947D01*
Y5626748D01*
X7818528D01*
Y5627330D01*
X7819110D01*
Y5627912D01*
X7819692D01*
Y5628493D01*
X7820273D01*
Y5629075D01*
X7820855D01*
Y5629657D01*
X7821436D01*
Y5630238D01*
X7822018D01*
Y5630820D01*
X7822600D01*
Y5631401D01*
X7823181D01*
Y5631983D01*
X7823763D01*
Y5633146D01*
X7824345D01*
Y5633728D01*
X7824926D01*
Y5634310D01*
X7825508D01*
Y5634891D01*
X7826090D01*
Y5635473D01*
X7826671D01*
Y5636054D01*
X7827253D01*
Y5636636D01*
X7827834D01*
Y5637218D01*
X7828416D01*
Y5638381D01*
X7828998D01*
Y5638962D01*
X7829579D01*
Y5639544D01*
X7830161D01*
Y5640126D01*
X7830742D01*
Y5640707D01*
X7831324D01*
Y5641289D01*
X7831906D01*
Y5642452D01*
X7832487D01*
Y5643034D01*
X7833069D01*
Y5643615D01*
X7833650D01*
Y5644197D01*
X7834232D01*
Y5645360D01*
X7834814D01*
Y5645942D01*
X7835395D01*
Y5646523D01*
X7835977D01*
Y5647105D01*
X7836558D01*
Y5648268D01*
X7837140D01*
Y5648850D01*
X7837722D01*
Y5650013D01*
X7838885D01*
Y5651176D01*
X7839466D01*
Y5651758D01*
X7840048D01*
Y5652921D01*
X7840630D01*
Y5653503D01*
X7841211D01*
Y5654084D01*
X7841793D01*
Y5655247D01*
X7842374D01*
Y5656411D01*
X7842956D01*
Y5656992D01*
X7843538D01*
Y5657574D01*
X7844119D01*
Y5658737D01*
X7844701D01*
Y5659319D01*
X7845283D01*
Y5660482D01*
X7845864D01*
Y5661063D01*
X7846446D01*
Y5661645D01*
X7847027D01*
Y5662808D01*
X7847609D01*
Y5663971D01*
X7848191D01*
Y5664553D01*
X7848772D01*
Y5665716D01*
X7849354D01*
Y5666298D01*
X7849936D01*
Y5667461D01*
X7850517D01*
Y5668043D01*
X7851099D01*
Y5668624D01*
X7851680D01*
Y5669788D01*
X7852262D01*
Y5670369D01*
X7852844D01*
Y5671532D01*
X7853425D01*
Y5672114D01*
X7854007D01*
Y5673277D01*
X7854588D01*
Y5673859D01*
X7855170D01*
Y5675022D01*
X7855752D01*
Y5675604D01*
X7856333D01*
Y5676767D01*
X7857496D01*
Y5677930D01*
X7858078D01*
Y5679093D01*
X7858660D01*
Y5679675D01*
X7859241D01*
Y5680257D01*
X7859823D01*
Y5680838D01*
X7860404D01*
Y5681420D01*
X7860986D01*
Y5682583D01*
X7861568D01*
Y5683165D01*
X7862149D01*
Y5683746D01*
X7862731D01*
Y5684909D01*
X7863312D01*
Y5685491D01*
X7863894D01*
Y5686073D01*
X7864476D01*
Y5687236D01*
X7865639D01*
Y5688399D01*
X7866220D01*
Y5688981D01*
X7866802D01*
Y5689562D01*
X7867384D01*
Y5690144D01*
X7867965D01*
Y5690725D01*
X7868547D01*
Y5691307D01*
X7869129D01*
Y5691889D01*
X7869710D01*
Y5692470D01*
X7870292D01*
Y5693052D01*
X7870874D01*
Y5693634D01*
X7871455D01*
Y5694215D01*
X7872037D01*
Y5694797D01*
X7872618D01*
Y5695378D01*
X7873782D01*
Y5696542D01*
X7874945D01*
Y5697123D01*
X7875526D01*
Y5697705D01*
X7876108D01*
Y5698287D01*
X7877271D01*
Y5698868D01*
X7877853D01*
Y5699450D01*
X7879016D01*
Y5700031D01*
X7879598D01*
Y5700613D01*
X7880179D01*
Y5698287D01*
D02*
G37*
G36*
X9347267Y5646783D02*
X9279606D01*
Y5645312D01*
X9278135D01*
Y5457037D01*
X9200177D01*
Y5646783D01*
X9132516D01*
Y5714445D01*
X9347267D01*
Y5646783D01*
D02*
G37*
G36*
X9082505Y5711503D02*
X9083976D01*
Y5708561D01*
X9085447D01*
Y5704148D01*
X9086918D01*
Y5699735D01*
X9088389D01*
Y5698264D01*
Y5695323D01*
X9089860D01*
Y5692381D01*
X9091331D01*
Y5687968D01*
X9092801D01*
Y5683556D01*
X9094272D01*
Y5679143D01*
X9095743D01*
Y5676201D01*
X9097214D01*
Y5671789D01*
X9098685D01*
Y5667376D01*
X9100156D01*
Y5664434D01*
X9101627D01*
Y5660021D01*
X9103098D01*
Y5655608D01*
X9104569D01*
Y5651196D01*
X9106040D01*
Y5648254D01*
X9107511D01*
Y5643841D01*
X9108982D01*
Y5639429D01*
X9110452D01*
Y5635016D01*
X9111923D01*
Y5632074D01*
X9113394D01*
Y5627661D01*
X9114865D01*
Y5623249D01*
X9116336D01*
Y5620307D01*
X9117807D01*
Y5615894D01*
X9119278D01*
Y5611482D01*
X9120749D01*
Y5607069D01*
X9122219D01*
Y5604127D01*
X9123690D01*
Y5599714D01*
X9125161D01*
Y5595301D01*
X9126632D01*
Y5590889D01*
X9128103D01*
Y5587947D01*
X9129574D01*
Y5583534D01*
X9131045D01*
Y5579122D01*
X9132516D01*
Y5576180D01*
X9133987D01*
Y5571767D01*
X9135458D01*
Y5567355D01*
X9136929D01*
Y5562942D01*
X9138399D01*
Y5560000D01*
X9139870D01*
Y5555587D01*
X9141341D01*
Y5551175D01*
X9142812D01*
Y5546762D01*
X9144283D01*
Y5543820D01*
X9145754D01*
Y5539408D01*
X9147225D01*
Y5534995D01*
X9148696D01*
Y5532053D01*
X9150167D01*
Y5527640D01*
X9151638D01*
Y5523227D01*
X9153108D01*
Y5520286D01*
X9154579D01*
Y5515873D01*
X9156050D01*
Y5511460D01*
X9157521D01*
Y5507048D01*
X9158992D01*
Y5504106D01*
X9160463D01*
Y5499693D01*
X9161934D01*
Y5495280D01*
X9163405D01*
Y5490868D01*
X9164875D01*
Y5487926D01*
X9166346D01*
Y5483513D01*
X9167817D01*
Y5479101D01*
X9169288D01*
Y5476159D01*
X9170759D01*
Y5471746D01*
X9172230D01*
Y5467333D01*
X9173701D01*
Y5462921D01*
X9175172D01*
Y5459979D01*
X9176643D01*
Y5457037D01*
X9088389D01*
Y5458508D01*
X9086918D01*
Y5464392D01*
X9085447D01*
Y5468804D01*
X9083976D01*
Y5473217D01*
X9082505D01*
Y5477630D01*
X9081034D01*
Y5483513D01*
X9079564D01*
Y5486455D01*
X8986897D01*
Y5483513D01*
X8985426D01*
Y5477630D01*
X8983955D01*
Y5473217D01*
X8982484D01*
Y5468804D01*
X8981013D01*
Y5464392D01*
X8979542D01*
Y5458508D01*
X8978071D01*
Y5457037D01*
X8889817D01*
Y5459979D01*
X8891288D01*
Y5462921D01*
X8892759D01*
Y5467333D01*
X8894230D01*
Y5471746D01*
X8895701D01*
Y5476159D01*
X8897172D01*
Y5479101D01*
X8898643D01*
Y5483513D01*
X8900114D01*
Y5487926D01*
X8901585D01*
Y5490868D01*
X8903056D01*
Y5495280D01*
X8904527D01*
Y5499693D01*
X8905997D01*
Y5504106D01*
X8907468D01*
Y5507048D01*
X8908939D01*
Y5511460D01*
X8910410D01*
Y5515873D01*
X8911881D01*
Y5520286D01*
X8913352D01*
Y5523227D01*
X8914823D01*
Y5527640D01*
X8916294D01*
Y5532053D01*
X8917764D01*
Y5534995D01*
X8919235D01*
Y5539408D01*
X8920706D01*
Y5543820D01*
X8922177D01*
Y5548233D01*
X8923648D01*
Y5551175D01*
X8925119D01*
Y5555587D01*
X8926590D01*
Y5560000D01*
X8928061D01*
Y5562942D01*
X8929532D01*
Y5567355D01*
X8931003D01*
Y5571767D01*
X8932473D01*
Y5576180D01*
X8933944D01*
Y5579122D01*
X8935415D01*
Y5583534D01*
X8936886D01*
Y5587947D01*
X8938357D01*
Y5590889D01*
X8939828D01*
Y5595301D01*
X8941299D01*
Y5599714D01*
X8942770D01*
Y5604127D01*
X8944241D01*
Y5607069D01*
X8945712D01*
Y5611482D01*
X8947183D01*
Y5615894D01*
X8948653D01*
Y5620307D01*
X8950124D01*
Y5623249D01*
X8951595D01*
Y5627661D01*
X8953066D01*
Y5632074D01*
X8954537D01*
Y5635016D01*
X8956008D01*
Y5639429D01*
X8957479D01*
Y5643841D01*
X8958950D01*
Y5648254D01*
X8960420D01*
Y5651196D01*
X8961891D01*
Y5655608D01*
X8963362D01*
Y5660021D01*
X8964833D01*
Y5664434D01*
X8966304D01*
Y5667376D01*
X8967775D01*
Y5671789D01*
X8969246D01*
Y5676201D01*
X8970717D01*
Y5679143D01*
X8972188D01*
Y5683556D01*
X8973659D01*
Y5687968D01*
X8975130D01*
Y5692381D01*
X8976601D01*
Y5695323D01*
X8978071D01*
Y5699735D01*
X8979542D01*
Y5704148D01*
X8981013D01*
Y5708561D01*
X8982484D01*
Y5711503D01*
X8983955D01*
Y5714445D01*
X9082505D01*
Y5711503D01*
D02*
G37*
G36*
X8875108Y5457037D02*
X8700071D01*
Y5524698D01*
X8797151D01*
Y5714445D01*
X8875108D01*
Y5457037D01*
D02*
G37*
G36*
X8183198Y5620351D02*
X8182616D01*
Y5617443D01*
X8182035D01*
Y5613953D01*
X8181453D01*
Y5610464D01*
X8180872D01*
Y5606392D01*
X8180290D01*
Y5602321D01*
X8179708D01*
Y5595342D01*
X8179127D01*
Y5580220D01*
X8179708D01*
Y5574404D01*
X8180290D01*
Y5570914D01*
X8180872D01*
Y5568006D01*
X8181453D01*
Y5565679D01*
X8182035D01*
Y5563353D01*
X8182616D01*
Y5561608D01*
X8183198D01*
Y5559863D01*
X8183780D01*
Y5558118D01*
X8184361D01*
Y5556955D01*
X8184943D01*
Y5555210D01*
X8185524D01*
Y5553466D01*
X8186106D01*
Y5552302D01*
X8186688D01*
Y5550558D01*
X8187269D01*
Y5549394D01*
X8187851D01*
Y5547650D01*
X8188432D01*
Y5546486D01*
X8189014D01*
Y5545323D01*
X8189596D01*
Y5543578D01*
X8190177D01*
Y5542415D01*
X8190759D01*
Y5541252D01*
X8191340D01*
Y5539507D01*
X8191922D01*
Y5538344D01*
X8192504D01*
Y5536599D01*
X8193085D01*
Y5534854D01*
X8193667D01*
Y5533691D01*
X8194249D01*
Y5531946D01*
X8194830D01*
Y5530201D01*
X8195412D01*
Y5528456D01*
X8195993D01*
Y5526130D01*
X8196575D01*
Y5524385D01*
X8197157D01*
Y5521477D01*
X8197738D01*
Y5518569D01*
X8198320D01*
Y5505774D01*
X8197738D01*
Y5502866D01*
X8197157D01*
Y5501121D01*
X8196575D01*
Y5498794D01*
X8195993D01*
Y5497049D01*
X8195412D01*
Y5495886D01*
X8194830D01*
Y5494723D01*
X8194249D01*
Y5493560D01*
X8193667D01*
Y5492397D01*
X8193085D01*
Y5491233D01*
X8192504D01*
Y5490070D01*
X8191922D01*
Y5489489D01*
X8191340D01*
Y5488325D01*
X8190759D01*
Y5487744D01*
X8190177D01*
Y5487162D01*
X8189596D01*
Y5485999D01*
X8189014D01*
Y5485417D01*
X8188432D01*
Y5484836D01*
X8187851D01*
Y5483673D01*
X8186688D01*
Y5482509D01*
X8186106D01*
Y5481928D01*
X8185524D01*
Y5481346D01*
X8184943D01*
Y5480765D01*
X8184361D01*
Y5480183D01*
X8183780D01*
Y5479601D01*
X8183198D01*
Y5479020D01*
X8182616D01*
Y5478438D01*
X8182035D01*
Y5477856D01*
X8181453D01*
Y5477275D01*
X8180872D01*
Y5476693D01*
X8180290D01*
Y5476111D01*
X8179127D01*
Y5475530D01*
X8178545D01*
Y5474948D01*
X8177964D01*
Y5474367D01*
X8177382D01*
Y5473785D01*
X8176219D01*
Y5473203D01*
X8175637D01*
Y5472622D01*
X8175056D01*
Y5472040D01*
X8173892D01*
Y5471459D01*
X8173311D01*
Y5470877D01*
X8172729D01*
Y5470295D01*
X8171566D01*
Y5469714D01*
X8170984D01*
Y5469132D01*
X8169821D01*
Y5468551D01*
X8168658D01*
Y5467969D01*
X8168076D01*
Y5467387D01*
X8166913D01*
Y5466806D01*
X8165750D01*
Y5466224D01*
X8164586D01*
Y5465643D01*
X8164005D01*
Y5465061D01*
X8162260D01*
Y5464479D01*
X8161678D01*
Y5463898D01*
X8159934D01*
Y5463316D01*
X8158770D01*
Y5462735D01*
X8157607D01*
Y5462153D01*
X8156444D01*
Y5461571D01*
X8154699D01*
Y5460990D01*
X8153536D01*
Y5460408D01*
X8151791D01*
Y5459827D01*
X8150628D01*
Y5459245D01*
X8148883D01*
Y5458663D01*
X8146556D01*
Y5458082D01*
X8144812D01*
Y5457500D01*
X8143067D01*
Y5456918D01*
X8140159D01*
Y5456337D01*
X8137832D01*
Y5455755D01*
X8135506D01*
Y5455173D01*
X8131435D01*
Y5454592D01*
X8126200D01*
Y5454010D01*
X8115150D01*
Y5454592D01*
X8110497D01*
Y5455173D01*
X8107589D01*
Y5455755D01*
X8105262D01*
Y5456337D01*
X8102936D01*
Y5456918D01*
X8101191D01*
Y5457500D01*
X8099446D01*
Y5458082D01*
X8098283D01*
Y5458663D01*
X8097120D01*
Y5459245D01*
X8095956D01*
Y5459827D01*
X8094793D01*
Y5460990D01*
X8096538D01*
Y5461571D01*
X8098283D01*
Y5462153D01*
X8102936D01*
Y5462735D01*
X8113986D01*
Y5463316D01*
X8120384D01*
Y5463898D01*
X8123874D01*
Y5464479D01*
X8126200D01*
Y5465061D01*
X8129108D01*
Y5465643D01*
X8132016D01*
Y5466224D01*
X8133761D01*
Y5466806D01*
X8136088D01*
Y5467387D01*
X8138414D01*
Y5467969D01*
X8140159D01*
Y5468551D01*
X8141904D01*
Y5469132D01*
X8143648D01*
Y5469714D01*
X8144812D01*
Y5470295D01*
X8147138D01*
Y5470877D01*
X8148301D01*
Y5471459D01*
X8150046D01*
Y5472040D01*
X8151791D01*
Y5472622D01*
X8152954D01*
Y5473203D01*
X8154118D01*
Y5473785D01*
X8155281D01*
Y5474367D01*
X8157026D01*
Y5474948D01*
X8158189D01*
Y5475530D01*
X8158770D01*
Y5476111D01*
X8160515D01*
Y5476693D01*
X8161678D01*
Y5477275D01*
X8162260D01*
Y5477856D01*
X8163423D01*
Y5478438D01*
X8164586D01*
Y5479020D01*
X8165168D01*
Y5479601D01*
X8166331D01*
Y5480183D01*
X8166913D01*
Y5480765D01*
X8168076D01*
Y5481346D01*
X8169239D01*
Y5481928D01*
X8169821D01*
Y5482509D01*
X8170403D01*
Y5483091D01*
X8171566D01*
Y5483673D01*
X8172147D01*
Y5484254D01*
X8172729D01*
Y5484836D01*
X8173892D01*
Y5485417D01*
X8174474D01*
Y5485999D01*
X8175056D01*
Y5486581D01*
X8175637D01*
Y5487162D01*
X8176219D01*
Y5487744D01*
X8176800D01*
Y5488325D01*
X8177382D01*
Y5488907D01*
X8177964D01*
Y5489489D01*
X8178545D01*
Y5490070D01*
X8179127D01*
Y5490652D01*
X8179708D01*
Y5491233D01*
X8180290D01*
Y5492397D01*
X8180872D01*
Y5492978D01*
X8181453D01*
Y5493560D01*
X8182035D01*
Y5494723D01*
X8182616D01*
Y5495305D01*
X8183198D01*
Y5496468D01*
X8183780D01*
Y5497631D01*
X8184361D01*
Y5498213D01*
X8184943D01*
Y5499958D01*
X8185524D01*
Y5501121D01*
X8186106D01*
Y5502866D01*
X8186688D01*
Y5504611D01*
X8187269D01*
Y5509263D01*
X8187851D01*
Y5511008D01*
X8187269D01*
Y5516243D01*
X8186688D01*
Y5519151D01*
X8186106D01*
Y5521477D01*
X8185524D01*
Y5522640D01*
X8184943D01*
Y5524385D01*
X8184361D01*
Y5526130D01*
X8183780D01*
Y5527293D01*
X8183198D01*
Y5529038D01*
X8182616D01*
Y5530201D01*
X8182035D01*
Y5531364D01*
X8181453D01*
Y5532528D01*
X8180872D01*
Y5533691D01*
X8180290D01*
Y5534854D01*
X8179708D01*
Y5536017D01*
X8179127D01*
Y5537180D01*
X8178545D01*
Y5538344D01*
X8177964D01*
Y5539507D01*
X8177382D01*
Y5540670D01*
X8176800D01*
Y5541833D01*
X8176219D01*
Y5542997D01*
X8175637D01*
Y5544160D01*
X8175056D01*
Y5545323D01*
X8174474D01*
Y5546486D01*
X8173892D01*
Y5547650D01*
X8173311D01*
Y5549394D01*
X8172729D01*
Y5550558D01*
X8172147D01*
Y5552302D01*
X8171566D01*
Y5554047D01*
X8170984D01*
Y5555792D01*
X8170403D01*
Y5558700D01*
X8169821D01*
Y5560445D01*
X8169239D01*
Y5563353D01*
X8168658D01*
Y5566261D01*
X8168076D01*
Y5570914D01*
X8167494D01*
Y5586617D01*
X8168076D01*
Y5591270D01*
X8168658D01*
Y5594178D01*
X8169239D01*
Y5597668D01*
X8169821D01*
Y5600576D01*
X8170403D01*
Y5603484D01*
X8170984D01*
Y5605229D01*
X8171566D01*
Y5606974D01*
X8172147D01*
Y5609300D01*
X8172729D01*
Y5611627D01*
X8173311D01*
Y5612790D01*
X8173892D01*
Y5615116D01*
X8174474D01*
Y5617443D01*
X8173892D01*
Y5616861D01*
X8173311D01*
Y5616280D01*
X8172729D01*
Y5615698D01*
X8172147D01*
Y5615116D01*
X8171566D01*
Y5614535D01*
X8170984D01*
Y5613953D01*
X8170403D01*
Y5613372D01*
X8169821D01*
Y5612790D01*
X8169239D01*
Y5612208D01*
X8168658D01*
Y5611627D01*
X8168076D01*
Y5611045D01*
X8167494D01*
Y5610464D01*
X8166331D01*
Y5609882D01*
X8165750D01*
Y5609300D01*
X8165168D01*
Y5608719D01*
X8164586D01*
Y5608137D01*
X8164005D01*
Y5607555D01*
X8163423D01*
Y5606974D01*
X8162842D01*
Y5606392D01*
X8162260D01*
Y5605810D01*
X8161097D01*
Y5605229D01*
X8160515D01*
Y5604647D01*
X8159934D01*
Y5604066D01*
X8159352D01*
Y5603484D01*
X8158770D01*
Y5602902D01*
X8158189D01*
Y5602321D01*
X8157607D01*
Y5601739D01*
X8156444D01*
Y5601158D01*
X8155862D01*
Y5600576D01*
X8155281D01*
Y5599994D01*
X8154118D01*
Y5598831D01*
X8152954D01*
Y5598250D01*
X8152373D01*
Y5597668D01*
X8151791D01*
Y5597086D01*
X8151210D01*
Y5596505D01*
X8150046D01*
Y5595923D01*
X8149465D01*
Y5595342D01*
X8148883D01*
Y5594760D01*
X8148301D01*
Y5594178D01*
X8147138D01*
Y5593597D01*
X8146556D01*
Y5593015D01*
X8145975D01*
Y5592434D01*
X8145393D01*
Y5591852D01*
X8144812D01*
Y5591270D01*
X8144230D01*
Y5590689D01*
X8143067D01*
Y5590107D01*
X8142485D01*
Y5589526D01*
X8141904D01*
Y5588944D01*
X8141322D01*
Y5588362D01*
X8140740D01*
Y5587781D01*
X8139577D01*
Y5587199D01*
X8138996D01*
Y5586617D01*
X8138414D01*
Y5586036D01*
X8137832D01*
Y5585454D01*
X8137251D01*
Y5584872D01*
X8136088D01*
Y5584291D01*
X8135506D01*
Y5583709D01*
X8134924D01*
Y5583128D01*
X8134343D01*
Y5582546D01*
X8133761D01*
Y5581964D01*
X8133180D01*
Y5581383D01*
X8132016D01*
Y5580220D01*
X8130853D01*
Y5579638D01*
X8130272D01*
Y5579056D01*
X8129690D01*
Y5578475D01*
X8129108D01*
Y5577893D01*
X8128527D01*
Y5577312D01*
X8127945D01*
Y5576730D01*
X8127363D01*
Y5576148D01*
X8126782D01*
Y5575567D01*
X8126200D01*
Y5574985D01*
X8125037D01*
Y5574404D01*
X8124455D01*
Y5573822D01*
X8123874D01*
Y5573240D01*
X8123292D01*
Y5572659D01*
X8122710D01*
Y5572077D01*
X8122129D01*
Y5571496D01*
X8121547D01*
Y5570914D01*
X8120966D01*
Y5570332D01*
X8120384D01*
Y5569751D01*
X8119802D01*
Y5569169D01*
X8119221D01*
Y5568588D01*
X8118639D01*
Y5568006D01*
X8118058D01*
Y5567424D01*
X8117476D01*
Y5566843D01*
X8116894D01*
Y5566261D01*
X8116313D01*
Y5565679D01*
X8115731D01*
Y5565098D01*
X8115150D01*
Y5564516D01*
X8114568D01*
Y5563935D01*
X8113986D01*
Y5563353D01*
X8113405D01*
Y5562771D01*
X8112823D01*
Y5562190D01*
X8112242D01*
Y5561026D01*
X8111078D01*
Y5559863D01*
X8110497D01*
Y5559282D01*
X8109915D01*
Y5558700D01*
X8109334D01*
Y5558118D01*
X8108752D01*
Y5557537D01*
X8108170D01*
Y5556955D01*
X8107589D01*
Y5555792D01*
X8107007D01*
Y5555210D01*
X8106425D01*
Y5554629D01*
X8105844D01*
Y5554047D01*
X8105262D01*
Y5553466D01*
X8104681D01*
Y5552302D01*
X8104099D01*
Y5551721D01*
X8103517D01*
Y5551139D01*
X8102936D01*
Y5549976D01*
X8102354D01*
Y5549394D01*
X8101772D01*
Y5548231D01*
X8101191D01*
Y5547650D01*
X8100609D01*
Y5546486D01*
X8100028D01*
Y5545905D01*
X8099446D01*
Y5544742D01*
X8098864D01*
Y5544160D01*
X8098283D01*
Y5542997D01*
X8097701D01*
Y5542415D01*
X8097120D01*
Y5541252D01*
X8096538D01*
Y5540088D01*
X8095956D01*
Y5539507D01*
X8095375D01*
Y5538344D01*
X8094793D01*
Y5537180D01*
X8094212D01*
Y5536017D01*
X8093630D01*
Y5534854D01*
X8093048D01*
Y5533691D01*
X8092467D01*
Y5531946D01*
X8091885D01*
Y5530783D01*
X8091304D01*
Y5529620D01*
X8090722D01*
Y5527875D01*
X8090140D01*
Y5526130D01*
X8089559D01*
Y5524385D01*
X8088977D01*
Y5522640D01*
X8088396D01*
Y5519732D01*
X8087814D01*
Y5517406D01*
X8087232D01*
Y5513335D01*
X8086651D01*
Y5472622D01*
X8086069D01*
Y5468551D01*
X8085488D01*
Y5465643D01*
X8084324D01*
Y5466224D01*
X8083743D01*
Y5466806D01*
X8083161D01*
Y5467387D01*
X8082579D01*
Y5467969D01*
X8081998D01*
Y5468551D01*
X8081416D01*
Y5469132D01*
X8080834D01*
Y5470295D01*
X8080253D01*
Y5470877D01*
X8079671D01*
Y5472040D01*
X8079090D01*
Y5472622D01*
X8078508D01*
Y5473203D01*
X8077926D01*
Y5474367D01*
X8077345D01*
Y5475530D01*
X8076763D01*
Y5476693D01*
X8076182D01*
Y5477856D01*
X8075600D01*
Y5479020D01*
X8075018D01*
Y5480183D01*
X8074437D01*
Y5482509D01*
X8073855D01*
Y5483673D01*
X8073274D01*
Y5485999D01*
X8072692D01*
Y5488907D01*
X8072110D01*
Y5494141D01*
X8071529D01*
Y5502284D01*
X8072110D01*
Y5507519D01*
X8072692D01*
Y5511590D01*
X8073274D01*
Y5513916D01*
X8073855D01*
Y5516243D01*
X8074437D01*
Y5516824D01*
Y5517406D01*
Y5518569D01*
X8075018D01*
Y5520895D01*
X8075600D01*
Y5522640D01*
X8076182D01*
Y5524385D01*
X8076763D01*
Y5525548D01*
X8077345D01*
Y5527293D01*
X8077926D01*
Y5529038D01*
X8078508D01*
Y5530201D01*
X8079090D01*
Y5531364D01*
X8079671D01*
Y5533109D01*
X8080253D01*
Y5534272D01*
X8080834D01*
Y5535436D01*
X8081416D01*
Y5536599D01*
X8081998D01*
Y5538344D01*
X8082579D01*
Y5539507D01*
X8083161D01*
Y5540088D01*
X8083743D01*
Y5541252D01*
X8084324D01*
Y5542997D01*
X8084906D01*
Y5543578D01*
X8085488D01*
Y5544742D01*
X8086069D01*
Y5545905D01*
X8086651D01*
Y5546486D01*
X8087232D01*
Y5547650D01*
X8087814D01*
Y5548813D01*
X8088396D01*
Y5549394D01*
X8088977D01*
Y5550558D01*
X8089559D01*
Y5551139D01*
X8090140D01*
Y5552302D01*
X8090722D01*
Y5553466D01*
X8091304D01*
Y5554047D01*
X8091885D01*
Y5555210D01*
X8092467D01*
Y5555792D01*
X8093048D01*
Y5556955D01*
X8093630D01*
Y5557537D01*
X8094212D01*
Y5558118D01*
X8094793D01*
Y5559282D01*
X8095375D01*
Y5559863D01*
X8095956D01*
Y5560445D01*
X8096538D01*
Y5561608D01*
X8097120D01*
Y5562190D01*
X8097701D01*
Y5562771D01*
X8098283D01*
Y5563935D01*
X8098864D01*
Y5564516D01*
X8099446D01*
Y5565098D01*
X8100028D01*
Y5566261D01*
X8101191D01*
Y5567424D01*
X8101772D01*
Y5568006D01*
X8102354D01*
Y5568588D01*
X8102936D01*
Y5569751D01*
X8104099D01*
Y5570914D01*
X8104681D01*
Y5571496D01*
X8105262D01*
Y5572077D01*
X8105844D01*
Y5572659D01*
X8106425D01*
Y5573240D01*
X8107007D01*
Y5573822D01*
X8107589D01*
Y5574404D01*
X8108170D01*
Y5574985D01*
X8108752D01*
Y5575567D01*
X8109334D01*
Y5576148D01*
X8109915D01*
Y5576730D01*
X8110497D01*
Y5577312D01*
X8111078D01*
Y5577893D01*
X8112242D01*
Y5578475D01*
X8112823D01*
Y5579056D01*
X8113405D01*
Y5579638D01*
X8113986D01*
Y5580220D01*
X8114568D01*
Y5580801D01*
X8115150D01*
Y5581383D01*
X8116313D01*
Y5581964D01*
X8116894D01*
Y5582546D01*
X8117476D01*
Y5583128D01*
X8118058D01*
Y5583709D01*
X8119221D01*
Y5584872D01*
X8120384D01*
Y5585454D01*
X8120966D01*
Y5586036D01*
X8121547D01*
Y5586617D01*
X8122129D01*
Y5587199D01*
X8122710D01*
Y5587781D01*
X8123874D01*
Y5588362D01*
X8124455D01*
Y5588944D01*
X8125037D01*
Y5589526D01*
X8126200D01*
Y5590107D01*
X8126782D01*
Y5590689D01*
X8127363D01*
Y5591270D01*
X8128527D01*
Y5591852D01*
X8129108D01*
Y5592434D01*
X8129690D01*
Y5593015D01*
X8130272D01*
Y5593597D01*
X8130853D01*
Y5594178D01*
X8132016D01*
Y5594760D01*
X8132598D01*
Y5595342D01*
X8133180D01*
Y5595923D01*
X8134343D01*
Y5596505D01*
X8134924D01*
Y5597086D01*
X8135506D01*
Y5597668D01*
X8136669D01*
Y5598250D01*
X8137251D01*
Y5598831D01*
X8137832D01*
Y5599413D01*
X8138996D01*
Y5599994D01*
X8139577D01*
Y5600576D01*
X8140159D01*
Y5601158D01*
X8141322D01*
Y5601739D01*
X8141904D01*
Y5602321D01*
X8142485D01*
Y5602902D01*
X8143067D01*
Y5603484D01*
X8144230D01*
Y5604066D01*
X8144812D01*
Y5604647D01*
X8145975D01*
Y5605229D01*
X8146556D01*
Y5605810D01*
X8147138D01*
Y5606392D01*
X8147720D01*
Y5606974D01*
X8148883D01*
Y5607555D01*
X8149465D01*
Y5608137D01*
X8150628D01*
Y5608719D01*
X8151210D01*
Y5609300D01*
X8151791D01*
Y5609882D01*
X8152954D01*
Y5610464D01*
X8154118D01*
Y5611045D01*
X8154699D01*
Y5611627D01*
X8155862D01*
Y5612208D01*
X8157026D01*
Y5612790D01*
X8157607D01*
Y5613372D01*
X8158770D01*
Y5613953D01*
X8159934D01*
Y5614535D01*
X8161678D01*
Y5615116D01*
X8162842D01*
Y5615698D01*
X8164586D01*
Y5616280D01*
X8165750D01*
Y5616861D01*
X8168076D01*
Y5617443D01*
X8171566D01*
Y5618024D01*
X8177382D01*
Y5618606D01*
X8177964D01*
Y5619769D01*
X8178545D01*
Y5620351D01*
X8179127D01*
Y5621514D01*
X8179708D01*
Y5622096D01*
X8180872D01*
Y5622677D01*
X8181453D01*
Y5623259D01*
X8182035D01*
Y5623840D01*
X8183198D01*
Y5620351D01*
D02*
G37*
G36*
X7915658Y5673277D02*
X7916239D01*
Y5672696D01*
X7916821D01*
Y5672114D01*
X7917402D01*
Y5671532D01*
X7917984D01*
Y5670951D01*
X7918566D01*
Y5670369D01*
X7919147D01*
Y5669788D01*
X7919729D01*
Y5669206D01*
X7920310D01*
Y5668624D01*
X7921474D01*
Y5667461D01*
X7922637D01*
Y5666879D01*
X7923218D01*
Y5666298D01*
X7923800D01*
Y5665716D01*
X7924382D01*
Y5665135D01*
X7924963D01*
Y5664553D01*
X7925545D01*
Y5663971D01*
X7926708D01*
Y5662808D01*
X7927871D01*
Y5662227D01*
X7928453D01*
Y5661645D01*
X7929034D01*
Y5661063D01*
X7929616D01*
Y5660482D01*
X7930779D01*
Y5659319D01*
X7931942D01*
Y5658737D01*
X7932524D01*
Y5658155D01*
X7933106D01*
Y5657574D01*
X7933687D01*
Y5656992D01*
X7934851D01*
Y5656411D01*
X7935432D01*
Y5655829D01*
X7936014D01*
Y5655247D01*
X7936595D01*
Y5654666D01*
X7937759D01*
Y5654084D01*
X7938340D01*
Y5653503D01*
X7938922D01*
Y5652921D01*
X7940085D01*
Y5651758D01*
X7941248D01*
Y5651176D01*
X7941830D01*
Y5650594D01*
X7942411D01*
Y5650013D01*
X7943575D01*
Y5649431D01*
X7944156D01*
Y5648850D01*
X7944738D01*
Y5648268D01*
X7945319D01*
Y5647686D01*
X7946483D01*
Y5647105D01*
X7947064D01*
Y5646523D01*
X7947646D01*
Y5645942D01*
X7948227D01*
Y5645360D01*
X7949391D01*
Y5644778D01*
X7949972D01*
Y5644197D01*
X7951135D01*
Y5643615D01*
X7951717D01*
Y5643034D01*
X7952299D01*
Y5642452D01*
X7952880D01*
Y5641870D01*
X7954044D01*
Y5641289D01*
X7954625D01*
Y5640707D01*
X7955789D01*
Y5640126D01*
X7956370D01*
Y5639544D01*
X7956952D01*
Y5638962D01*
X7957533D01*
Y5638381D01*
X7958697D01*
Y5637799D01*
X7959278D01*
Y5637218D01*
X7959860D01*
Y5636636D01*
X7961023D01*
Y5636054D01*
X7961605D01*
Y5635473D01*
X7962186D01*
Y5634891D01*
X7963349D01*
Y5634310D01*
X7963931D01*
Y5633728D01*
X7964513D01*
Y5633146D01*
X7965676D01*
Y5632565D01*
X7966257D01*
Y5631983D01*
X7966839D01*
Y5631401D01*
X7968002D01*
Y5630820D01*
X7968584D01*
Y5630238D01*
X7969165D01*
Y5629657D01*
X7969747D01*
Y5629075D01*
X7970910D01*
Y5628493D01*
X7971492D01*
Y5627912D01*
X7972073D01*
Y5627330D01*
X7973237D01*
Y5626748D01*
X7973818D01*
Y5626167D01*
X7974400D01*
Y5625585D01*
X7975563D01*
Y5625004D01*
X7976145D01*
Y5624422D01*
X7977308D01*
Y5623840D01*
X7977890D01*
Y5623259D01*
X7978471D01*
Y5622677D01*
X7979053D01*
Y5622096D01*
X7980216D01*
Y5621514D01*
X7980798D01*
Y5620932D01*
X7981379D01*
Y5620351D01*
X7981961D01*
Y5619769D01*
X7983124D01*
Y5619188D01*
X7983706D01*
Y5618606D01*
X7984287D01*
Y5618024D01*
X7984869D01*
Y5617443D01*
X7986032D01*
Y5616861D01*
X7986614D01*
Y5616280D01*
X7987195D01*
Y5615698D01*
X7988359D01*
Y5615116D01*
X7988940D01*
Y5614535D01*
X7989522D01*
Y5613953D01*
X7990103D01*
Y5613372D01*
X7991267D01*
Y5612790D01*
X7991848D01*
Y5612208D01*
X7992430D01*
Y5611627D01*
X7993011D01*
Y5611045D01*
X7993593D01*
Y5610464D01*
X7994756D01*
Y5609882D01*
X7995338D01*
Y5609300D01*
X7995919D01*
Y5608719D01*
X7996501D01*
Y5608137D01*
X7997664D01*
Y5607555D01*
X7998246D01*
Y5606974D01*
X7998828D01*
Y5606392D01*
X7999409D01*
Y5605810D01*
X7999991D01*
Y5605229D01*
X8000573D01*
Y5604647D01*
X8001736D01*
Y5604066D01*
X8002317D01*
Y5603484D01*
X8002899D01*
Y5602902D01*
X8003481D01*
Y5602321D01*
X8004062D01*
Y5601739D01*
X8005225D01*
Y5601158D01*
X8005807D01*
Y5600576D01*
X8006389D01*
Y5599994D01*
X8006970D01*
Y5599413D01*
X8007552D01*
Y5598831D01*
X8008133D01*
Y5598250D01*
X8008715D01*
Y5597668D01*
X8009297D01*
Y5597086D01*
X8009878D01*
Y5596505D01*
X8010460D01*
Y5595923D01*
X8011041D01*
Y5595342D01*
X8012205D01*
Y5594178D01*
X8013368D01*
Y5593015D01*
X8014531D01*
Y5592434D01*
X8015113D01*
Y5591852D01*
X8015694D01*
Y5591270D01*
X8016276D01*
Y5590689D01*
X8016857D01*
Y5590107D01*
X8017439D01*
Y5589526D01*
X8018021D01*
Y5588944D01*
X8018602D01*
Y5588362D01*
X8019184D01*
Y5587781D01*
X8019766D01*
Y5587199D01*
X8020347D01*
Y5586617D01*
X8020929D01*
Y5586036D01*
X8021510D01*
Y5584872D01*
X8022674D01*
Y5583709D01*
X8023837D01*
Y5582546D01*
X8024419D01*
Y5581964D01*
X8025000D01*
Y5581383D01*
X8025582D01*
Y5580220D01*
X8026745D01*
Y5579056D01*
X8027327D01*
Y5578475D01*
X8027908D01*
Y5577893D01*
X8028490D01*
Y5577312D01*
X8029071D01*
Y5576730D01*
X8029653D01*
Y5575567D01*
X8030235D01*
Y5574985D01*
X8030816D01*
Y5574404D01*
X8031398D01*
Y5573822D01*
X8031979D01*
Y5572659D01*
X8032561D01*
Y5572077D01*
X8033143D01*
Y5571496D01*
X8033724D01*
Y5570914D01*
X8034306D01*
Y5569751D01*
X8034887D01*
Y5569169D01*
X8035469D01*
Y5568588D01*
X8036051D01*
Y5567424D01*
X8036632D01*
Y5566843D01*
X8037214D01*
Y5566261D01*
X8037795D01*
Y5565098D01*
X8038377D01*
Y5564516D01*
X8038959D01*
Y5563353D01*
X8039540D01*
Y5562771D01*
X8040122D01*
Y5561608D01*
X8040704D01*
Y5560445D01*
X8041285D01*
Y5559863D01*
X8041867D01*
Y5558700D01*
X8042448D01*
Y5558118D01*
X8043030D01*
Y5556955D01*
X8043612D01*
Y5555792D01*
X8044193D01*
Y5554629D01*
X8044775D01*
Y5553466D01*
X8045357D01*
Y5552302D01*
X8045938D01*
Y5551139D01*
X8046520D01*
Y5549976D01*
X8047101D01*
Y5548231D01*
X8047683D01*
Y5547068D01*
X8048265D01*
Y5545323D01*
X8048846D01*
Y5544160D01*
X8049428D01*
Y5542997D01*
X8050009D01*
Y5540670D01*
X8050591D01*
Y5538344D01*
X8051173D01*
Y5536599D01*
X8051754D01*
Y5534272D01*
X8052336D01*
Y5531946D01*
X8052917D01*
Y5529038D01*
X8053499D01*
Y5524385D01*
X8054081D01*
Y5518569D01*
X8054662D01*
Y5510427D01*
X8054081D01*
Y5503447D01*
X8053499D01*
Y5499376D01*
X8052917D01*
Y5496468D01*
X8052336D01*
Y5494141D01*
X8051754D01*
Y5491815D01*
X8051173D01*
Y5489489D01*
X8050591D01*
Y5487744D01*
X8050009D01*
Y5485999D01*
X8049428D01*
Y5484836D01*
X8048846D01*
Y5483091D01*
X8048265D01*
Y5481346D01*
X8047683D01*
Y5480183D01*
X8047101D01*
Y5479020D01*
X8046520D01*
Y5477856D01*
X8045938D01*
Y5476693D01*
X8045357D01*
Y5475530D01*
X8044775D01*
Y5474367D01*
X8044193D01*
Y5473203D01*
X8043612D01*
Y5472622D01*
X8043030D01*
Y5471459D01*
X8042448D01*
Y5470295D01*
X8041867D01*
Y5469714D01*
X8041285D01*
Y5468551D01*
X8040704D01*
Y5467969D01*
X8040122D01*
Y5466806D01*
X8039540D01*
Y5466224D01*
X8038959D01*
Y5465643D01*
X8038377D01*
Y5465061D01*
X8037795D01*
Y5463898D01*
X8037214D01*
Y5463316D01*
X8036632D01*
Y5462735D01*
X8036051D01*
Y5461571D01*
X8035469D01*
Y5460990D01*
X8034887D01*
Y5460408D01*
X8034306D01*
Y5459827D01*
X8033724D01*
Y5459245D01*
X8033143D01*
Y5458082D01*
X8031979D01*
Y5457500D01*
X8031398D01*
Y5456918D01*
X8030816D01*
Y5455755D01*
X8029653D01*
Y5454592D01*
X8028490D01*
Y5454010D01*
X8027908D01*
Y5453429D01*
X8027327D01*
Y5452847D01*
X8026745D01*
Y5452265D01*
X8026163D01*
Y5451684D01*
X8025000D01*
Y5451102D01*
X8024419D01*
Y5450521D01*
X8023837D01*
Y5449939D01*
X8023255D01*
Y5449357D01*
X8022674D01*
Y5448776D01*
X8021510D01*
Y5448194D01*
X8020929D01*
Y5447613D01*
X8020347D01*
Y5448776D01*
X8020929D01*
Y5449939D01*
X8021510D01*
Y5451684D01*
X8022092D01*
Y5452847D01*
X8022674D01*
Y5454010D01*
X8023255D01*
Y5455173D01*
X8023837D01*
Y5456337D01*
X8024419D01*
Y5457500D01*
X8025000D01*
Y5458663D01*
X8025582D01*
Y5459827D01*
X8026163D01*
Y5460408D01*
X8026745D01*
Y5461571D01*
X8027327D01*
Y5462735D01*
X8027908D01*
Y5463898D01*
X8028490D01*
Y5465061D01*
X8029071D01*
Y5465643D01*
X8029653D01*
Y5466806D01*
X8030235D01*
Y5467387D01*
X8030816D01*
Y5468551D01*
X8031398D01*
Y5469714D01*
X8031979D01*
Y5470877D01*
X8032561D01*
Y5472040D01*
X8033143D01*
Y5473203D01*
X8033724D01*
Y5473785D01*
X8034306D01*
Y5474948D01*
X8034887D01*
Y5476111D01*
X8035469D01*
Y5477275D01*
X8036051D01*
Y5478438D01*
X8036632D01*
Y5479601D01*
X8037214D01*
Y5480183D01*
X8037795D01*
Y5481928D01*
X8038377D01*
Y5482509D01*
X8038959D01*
Y5484254D01*
X8039540D01*
Y5485417D01*
X8040122D01*
Y5487162D01*
X8040704D01*
Y5488325D01*
X8041285D01*
Y5490070D01*
X8041867D01*
Y5491815D01*
X8042448D01*
Y5493560D01*
X8043030D01*
Y5496468D01*
X8043612D01*
Y5498794D01*
X8044193D01*
Y5501121D01*
X8044775D01*
Y5509263D01*
X8045357D01*
Y5513335D01*
X8044775D01*
Y5520314D01*
X8044193D01*
Y5524385D01*
X8043612D01*
Y5526712D01*
X8043030D01*
Y5529038D01*
X8042448D01*
Y5531364D01*
X8041867D01*
Y5533691D01*
X8041285D01*
Y5534854D01*
X8040704D01*
Y5536599D01*
X8040122D01*
Y5538344D01*
X8039540D01*
Y5539507D01*
X8038959D01*
Y5541252D01*
X8038377D01*
Y5542415D01*
X8037795D01*
Y5543578D01*
X8037214D01*
Y5544742D01*
X8036632D01*
Y5545905D01*
X8036051D01*
Y5547650D01*
X8035469D01*
Y5548231D01*
X8034887D01*
Y5549394D01*
X8034306D01*
Y5550558D01*
X8033724D01*
Y5551139D01*
X8033143D01*
Y5552302D01*
X8032561D01*
Y5553466D01*
X8031979D01*
Y5554629D01*
X8031398D01*
Y5555210D01*
X8030816D01*
Y5556374D01*
X8030235D01*
Y5556955D01*
X8029653D01*
Y5558118D01*
X8029071D01*
Y5559282D01*
X8028490D01*
Y5559863D01*
X8027908D01*
Y5560445D01*
X8027327D01*
Y5561608D01*
X8026745D01*
Y5562190D01*
X8026163D01*
Y5563353D01*
X8025582D01*
Y5563935D01*
X8025000D01*
Y5564516D01*
X8024419D01*
Y5565098D01*
X8023837D01*
Y5566261D01*
X8023255D01*
Y5566843D01*
X8022674D01*
Y5567424D01*
X8022092D01*
Y5568588D01*
X8021510D01*
Y5569169D01*
X8020929D01*
Y5569751D01*
X8020347D01*
Y5570332D01*
X8019766D01*
Y5570914D01*
X8019184D01*
Y5572077D01*
X8018021D01*
Y5573240D01*
X8017439D01*
Y5573822D01*
X8016857D01*
Y5574404D01*
X8016276D01*
Y5574985D01*
X8015694D01*
Y5575567D01*
X8015113D01*
Y5576148D01*
X8014531D01*
Y5576730D01*
X8013949D01*
Y5577312D01*
X8013368D01*
Y5577893D01*
X8012786D01*
Y5578475D01*
X8012205D01*
Y5579056D01*
X8011623D01*
Y5579638D01*
X8011041D01*
Y5580220D01*
X8010460D01*
Y5580801D01*
X8009878D01*
Y5581383D01*
X8009297D01*
Y5581964D01*
X8008715D01*
Y5582546D01*
X8008133D01*
Y5583128D01*
X8007552D01*
Y5583709D01*
X8006389D01*
Y5584872D01*
X8005225D01*
Y5585454D01*
X8004644D01*
Y5586036D01*
X8004062D01*
Y5586617D01*
X8003481D01*
Y5587199D01*
X8002899D01*
Y5587781D01*
X8001736D01*
Y5588944D01*
X8000573D01*
Y5589526D01*
X7999991D01*
Y5590107D01*
X7999409D01*
Y5590689D01*
X7998828D01*
Y5591270D01*
X7998246D01*
Y5591852D01*
X7997083D01*
Y5592434D01*
X7996501D01*
Y5593015D01*
X7995919D01*
Y5593597D01*
X7995338D01*
Y5594178D01*
X7994175D01*
Y5594760D01*
X7993593D01*
Y5595342D01*
X7993011D01*
Y5595923D01*
X7992430D01*
Y5596505D01*
X7991267D01*
Y5597086D01*
X7990685D01*
Y5597668D01*
X7990103D01*
Y5598250D01*
X7989522D01*
Y5598831D01*
X7988359D01*
Y5599413D01*
X7987777D01*
Y5599994D01*
X7987195D01*
Y5600576D01*
X7986614D01*
Y5601158D01*
X7985451D01*
Y5601739D01*
X7984869D01*
Y5602321D01*
X7984287D01*
Y5602902D01*
X7983124D01*
Y5603484D01*
X7981961D01*
Y5604647D01*
X7980798D01*
Y5605229D01*
X7980216D01*
Y5605810D01*
X7979053D01*
Y5606392D01*
X7978471D01*
Y5606974D01*
X7977890D01*
Y5607555D01*
X7976726D01*
Y5608137D01*
X7975563D01*
Y5609300D01*
X7974400D01*
Y5609882D01*
X7973818D01*
Y5610464D01*
X7972655D01*
Y5611045D01*
X7972073D01*
Y5611627D01*
X7971492D01*
Y5612208D01*
X7970329D01*
Y5612790D01*
X7969165D01*
Y5613953D01*
X7968002D01*
Y5614535D01*
X7967421D01*
Y5615116D01*
X7966257D01*
Y5615698D01*
X7965676D01*
Y5616280D01*
X7965094D01*
Y5616861D01*
X7963931D01*
Y5617443D01*
X7963349D01*
Y5618024D01*
X7962186D01*
Y5618606D01*
X7961605D01*
Y5619188D01*
X7961023D01*
Y5619769D01*
X7959860D01*
Y5620351D01*
X7959278D01*
Y5620932D01*
X7958697D01*
Y5621514D01*
X7957533D01*
Y5622096D01*
X7956952D01*
Y5622677D01*
X7956370D01*
Y5623259D01*
X7955207D01*
Y5623840D01*
X7954625D01*
Y5624422D01*
X7954044D01*
Y5625004D01*
X7952880D01*
Y5625585D01*
X7952299D01*
Y5626167D01*
X7951717D01*
Y5626748D01*
X7950554D01*
Y5627330D01*
X7949972D01*
Y5627912D01*
X7949391D01*
Y5628493D01*
X7948227D01*
Y5629075D01*
X7947646D01*
Y5629657D01*
X7947064D01*
Y5630238D01*
X7945901D01*
Y5630820D01*
X7945319D01*
Y5631401D01*
X7944738D01*
Y5631983D01*
X7944156D01*
Y5632565D01*
X7942993D01*
Y5633146D01*
X7942411D01*
Y5633728D01*
X7941830D01*
Y5634310D01*
X7941248D01*
Y5634891D01*
X7940085D01*
Y5636054D01*
X7938922D01*
Y5636636D01*
X7938340D01*
Y5637218D01*
X7937759D01*
Y5637799D01*
X7937177D01*
Y5638381D01*
X7936014D01*
Y5638962D01*
X7935432D01*
Y5639544D01*
X7934851D01*
Y5640126D01*
X7934269D01*
Y5640707D01*
X7933687D01*
Y5641289D01*
X7933106D01*
Y5641870D01*
X7931942D01*
Y5643034D01*
X7930779D01*
Y5643615D01*
X7930198D01*
Y5644197D01*
X7929616D01*
Y5644778D01*
X7929034D01*
Y5645360D01*
X7928453D01*
Y5645942D01*
X7927871D01*
Y5646523D01*
X7927290D01*
Y5647105D01*
X7926708D01*
Y5647686D01*
X7926126D01*
Y5648268D01*
X7925545D01*
Y5648850D01*
X7924963D01*
Y5649431D01*
X7924382D01*
Y5650013D01*
X7923800D01*
Y5650594D01*
X7923218D01*
Y5651176D01*
X7922637D01*
Y5651758D01*
X7922055D01*
Y5652339D01*
X7921474D01*
Y5653503D01*
X7920892D01*
Y5654084D01*
X7920310D01*
Y5654666D01*
X7919729D01*
Y5655829D01*
X7919147D01*
Y5656411D01*
X7918566D01*
Y5656992D01*
X7917984D01*
Y5658155D01*
X7917402D01*
Y5658737D01*
X7916821D01*
Y5659900D01*
X7916239D01*
Y5661063D01*
X7915658D01*
Y5662808D01*
X7915076D01*
Y5663971D01*
X7914494D01*
Y5666298D01*
X7913913D01*
Y5673277D01*
X7914494D01*
Y5673859D01*
X7915658D01*
Y5673277D01*
D02*
G37*
G36*
X8635352Y5181979D02*
X8557394D01*
Y5280529D01*
X8464728D01*
Y5249640D01*
Y5248169D01*
Y5181979D01*
X8386770D01*
Y5440857D01*
X8464728D01*
Y5349661D01*
X8466198D01*
Y5348190D01*
X8555923D01*
Y5349661D01*
X8557394D01*
Y5440857D01*
X8635352D01*
Y5181979D01*
D02*
G37*
G36*
X7870292Y5356882D02*
X7873200D01*
Y5356300D01*
X7874945D01*
Y5355718D01*
X7876108D01*
Y5355137D01*
X7877271D01*
Y5354555D01*
X7878434D01*
Y5353974D01*
X7879598D01*
Y5353392D01*
X7880179D01*
Y5352810D01*
X7880761D01*
Y5352229D01*
X7881924D01*
Y5351647D01*
X7882506D01*
Y5351065D01*
X7883669D01*
Y5350484D01*
X7884250D01*
Y5349321D01*
X7885414D01*
Y5348739D01*
X7885995D01*
Y5347576D01*
X7886577D01*
Y5346994D01*
X7887158D01*
Y5346412D01*
X7887740D01*
Y5345249D01*
X7888322D01*
Y5344668D01*
X7888903D01*
Y5343504D01*
X7889485D01*
Y5342341D01*
X7890067D01*
Y5341178D01*
X7890648D01*
Y5340015D01*
X7891230D01*
Y5338270D01*
X7891811D01*
Y5337107D01*
X7892393D01*
Y5335362D01*
X7892975D01*
Y5333617D01*
X7893556D01*
Y5330709D01*
X7894138D01*
Y5327801D01*
X7894720D01*
Y5323148D01*
X7895301D01*
Y5308608D01*
X7894720D01*
Y5304537D01*
X7894138D01*
Y5301628D01*
X7893556D01*
Y5298720D01*
X7892975D01*
Y5296394D01*
X7892393D01*
Y5294649D01*
X7891811D01*
Y5291741D01*
X7890648D01*
Y5293486D01*
X7890067D01*
Y5295231D01*
X7889485D01*
Y5297557D01*
X7888903D01*
Y5299884D01*
X7888322D01*
Y5303373D01*
X7887740D01*
Y5308026D01*
X7887158D01*
Y5312679D01*
X7886577D01*
Y5317914D01*
X7885995D01*
Y5321985D01*
X7885414D01*
Y5324893D01*
X7884832D01*
Y5327801D01*
X7884250D01*
Y5329546D01*
X7883669D01*
Y5331291D01*
X7883087D01*
Y5333036D01*
X7882506D01*
Y5334199D01*
X7881924D01*
Y5335362D01*
X7881342D01*
Y5336525D01*
X7880761D01*
Y5337107D01*
X7880179D01*
Y5338270D01*
X7879598D01*
Y5338852D01*
X7879016D01*
Y5339433D01*
X7878434D01*
Y5340015D01*
X7877853D01*
Y5340596D01*
X7877271D01*
Y5341178D01*
X7876690D01*
Y5341760D01*
X7876108D01*
Y5342341D01*
X7875526D01*
Y5342923D01*
X7874945D01*
Y5343504D01*
X7873782D01*
Y5344086D01*
X7872618D01*
Y5344668D01*
X7872037D01*
Y5345249D01*
X7870292D01*
Y5345831D01*
X7869129D01*
Y5346412D01*
X7866802D01*
Y5346994D01*
X7860404D01*
Y5346412D01*
X7858078D01*
Y5345831D01*
X7856333D01*
Y5345249D01*
X7855170D01*
Y5344668D01*
X7854007D01*
Y5344086D01*
X7852844D01*
Y5343504D01*
X7851680D01*
Y5342923D01*
X7850517D01*
Y5342341D01*
X7849936D01*
Y5341760D01*
X7849354D01*
Y5341178D01*
X7848191D01*
Y5340596D01*
X7847609D01*
Y5340015D01*
X7847027D01*
Y5339433D01*
X7846446D01*
Y5338852D01*
X7845864D01*
Y5338270D01*
X7844701D01*
Y5337107D01*
X7843538D01*
Y5335944D01*
X7842374D01*
Y5334780D01*
X7841211D01*
Y5333617D01*
X7840630D01*
Y5333036D01*
X7840048D01*
Y5332454D01*
X7839466D01*
Y5331872D01*
X7838885D01*
Y5331291D01*
X7838303D01*
Y5330709D01*
X7837722D01*
Y5329546D01*
X7837140D01*
Y5328964D01*
X7836558D01*
Y5327801D01*
X7835977D01*
Y5327219D01*
X7835395D01*
Y5326638D01*
X7834814D01*
Y5325474D01*
X7834232D01*
Y5324893D01*
X7833650D01*
Y5324311D01*
X7833069D01*
Y5323148D01*
X7832487D01*
Y5321985D01*
X7831906D01*
Y5321403D01*
X7831324D01*
Y5320240D01*
X7830742D01*
Y5319658D01*
X7830161D01*
Y5318495D01*
X7829579D01*
Y5317332D01*
X7828998D01*
Y5316169D01*
X7828416D01*
Y5315006D01*
X7827834D01*
Y5313842D01*
X7827253D01*
Y5313261D01*
X7826671D01*
Y5312098D01*
X7826090D01*
Y5310353D01*
X7825508D01*
Y5309190D01*
X7824926D01*
Y5308026D01*
X7824345D01*
Y5306863D01*
X7823763D01*
Y5305700D01*
X7823181D01*
Y5303373D01*
X7822600D01*
Y5301047D01*
X7822018D01*
Y5294068D01*
X7822600D01*
Y5291741D01*
X7823181D01*
Y5291160D01*
X7823763D01*
Y5289996D01*
X7824926D01*
Y5289415D01*
X7825508D01*
Y5288833D01*
X7826090D01*
Y5288252D01*
X7827253D01*
Y5287670D01*
X7834232D01*
Y5288252D01*
X7835977D01*
Y5288833D01*
X7837722D01*
Y5289415D01*
X7839466D01*
Y5289996D01*
X7840630D01*
Y5290578D01*
X7842374D01*
Y5291160D01*
X7843538D01*
Y5291741D01*
X7844701D01*
Y5292323D01*
X7845864D01*
Y5292904D01*
X7847609D01*
Y5293486D01*
X7849354D01*
Y5294068D01*
X7851680D01*
Y5294649D01*
X7863894D01*
Y5294068D01*
X7866220D01*
Y5293486D01*
X7867965D01*
Y5292904D01*
X7869129D01*
Y5292323D01*
X7870292D01*
Y5291741D01*
X7871455D01*
Y5291160D01*
X7872037D01*
Y5290578D01*
X7873200D01*
Y5289996D01*
X7873782D01*
Y5289415D01*
X7874945D01*
Y5288833D01*
X7875526D01*
Y5288252D01*
X7876108D01*
Y5287670D01*
X7876690D01*
Y5287088D01*
X7877271D01*
Y5286507D01*
X7877853D01*
Y5285925D01*
X7878434D01*
Y5284762D01*
X7879016D01*
Y5284180D01*
X7879598D01*
Y5283017D01*
X7880179D01*
Y5282435D01*
X7880761D01*
Y5281272D01*
X7881342D01*
Y5280109D01*
X7881924D01*
Y5278946D01*
X7882506D01*
Y5277782D01*
X7883087D01*
Y5275456D01*
X7883669D01*
Y5273130D01*
X7884250D01*
Y5269640D01*
X7884832D01*
Y5267314D01*
X7884250D01*
Y5267895D01*
X7883669D01*
Y5268477D01*
X7883087D01*
Y5269058D01*
X7882506D01*
Y5269640D01*
X7881924D01*
Y5270222D01*
X7881342D01*
Y5270803D01*
X7880761D01*
Y5271385D01*
X7880179D01*
Y5271966D01*
X7879598D01*
Y5272548D01*
X7879016D01*
Y5273130D01*
X7878434D01*
Y5273711D01*
X7877853D01*
Y5274293D01*
X7877271D01*
Y5274874D01*
X7876690D01*
Y5275456D01*
X7876108D01*
Y5276038D01*
X7875526D01*
Y5276619D01*
X7874945D01*
Y5277201D01*
X7874363D01*
Y5277782D01*
X7873782D01*
Y5278364D01*
X7873200D01*
Y5278946D01*
X7872618D01*
Y5279527D01*
X7872037D01*
Y5280109D01*
X7871455D01*
Y5280690D01*
X7870874D01*
Y5281272D01*
X7870292D01*
Y5281854D01*
X7869129D01*
Y5282435D01*
X7867965D01*
Y5283017D01*
X7867384D01*
Y5283599D01*
X7866220D01*
Y5284180D01*
X7865057D01*
Y5284762D01*
X7863312D01*
Y5285344D01*
X7860986D01*
Y5285925D01*
X7856333D01*
Y5285344D01*
X7853425D01*
Y5284762D01*
X7851680D01*
Y5284180D01*
X7849354D01*
Y5283599D01*
X7848191D01*
Y5283017D01*
X7847027D01*
Y5282435D01*
X7844701D01*
Y5281854D01*
X7843538D01*
Y5281272D01*
X7842374D01*
Y5280690D01*
X7840630D01*
Y5280109D01*
X7838885D01*
Y5279527D01*
X7837140D01*
Y5278946D01*
X7834814D01*
Y5278364D01*
X7833069D01*
Y5277782D01*
X7828416D01*
Y5277201D01*
X7827834D01*
Y5277782D01*
X7823763D01*
Y5278364D01*
X7822018D01*
Y5278946D01*
X7820855D01*
Y5279527D01*
X7820273D01*
Y5280109D01*
X7819110D01*
Y5280690D01*
X7818528D01*
Y5281272D01*
X7817947D01*
Y5281854D01*
X7817365D01*
Y5282435D01*
X7816784D01*
Y5283599D01*
X7816202D01*
Y5284180D01*
X7815620D01*
Y5285344D01*
X7815039D01*
Y5285925D01*
X7814457D01*
Y5287670D01*
X7813876D01*
Y5290578D01*
X7813294D01*
Y5299302D01*
X7813876D01*
Y5302792D01*
X7814457D01*
Y5305118D01*
X7815039D01*
Y5307445D01*
X7815620D01*
Y5308608D01*
X7816202D01*
Y5310934D01*
X7816784D01*
Y5312679D01*
X7817365D01*
Y5314424D01*
X7817947D01*
Y5315587D01*
X7818528D01*
Y5317332D01*
X7819110D01*
Y5318495D01*
X7819692D01*
Y5319658D01*
X7820273D01*
Y5321403D01*
X7820855D01*
Y5322566D01*
X7821436D01*
Y5323730D01*
X7822018D01*
Y5324893D01*
X7822600D01*
Y5326056D01*
X7823181D01*
Y5326638D01*
X7823763D01*
Y5327801D01*
X7824345D01*
Y5328964D01*
X7824926D01*
Y5329546D01*
X7825508D01*
Y5330709D01*
X7826090D01*
Y5331872D01*
X7826671D01*
Y5332454D01*
X7827253D01*
Y5333617D01*
X7827834D01*
Y5334199D01*
X7828416D01*
Y5334780D01*
X7828998D01*
Y5335944D01*
X7829579D01*
Y5336525D01*
X7830161D01*
Y5337107D01*
X7830742D01*
Y5338270D01*
X7831324D01*
Y5338852D01*
X7831906D01*
Y5339433D01*
X7832487D01*
Y5340015D01*
X7833069D01*
Y5340596D01*
X7833650D01*
Y5341178D01*
X7834232D01*
Y5341760D01*
X7834814D01*
Y5342923D01*
X7835977D01*
Y5343504D01*
X7836558D01*
Y5344086D01*
X7837140D01*
Y5344668D01*
X7837722D01*
Y5345249D01*
X7838303D01*
Y5345831D01*
X7838885D01*
Y5346412D01*
X7839466D01*
Y5346994D01*
X7840048D01*
Y5347576D01*
X7841211D01*
Y5348157D01*
X7841793D01*
Y5348739D01*
X7842374D01*
Y5349321D01*
X7843538D01*
Y5349902D01*
X7844119D01*
Y5350484D01*
X7844701D01*
Y5351065D01*
X7845864D01*
Y5351647D01*
X7846446D01*
Y5352229D01*
X7847609D01*
Y5352810D01*
X7848772D01*
Y5353392D01*
X7849936D01*
Y5353974D01*
X7851099D01*
Y5354555D01*
X7852262D01*
Y5355137D01*
X7854007D01*
Y5355718D01*
X7855170D01*
Y5356300D01*
X7857496D01*
Y5356882D01*
X7860404D01*
Y5357463D01*
X7870292D01*
Y5356882D01*
D02*
G37*
G36*
X8079090Y5430746D02*
X8079671D01*
Y5430164D01*
X8080253D01*
Y5429583D01*
X8080834D01*
Y5429001D01*
X8081998D01*
Y5428419D01*
X8082579D01*
Y5427838D01*
X8083161D01*
Y5427256D01*
X8083743D01*
Y5426675D01*
X8084906D01*
Y5426093D01*
X8085488D01*
Y5425511D01*
X8086069D01*
Y5424930D01*
X8086651D01*
Y5424348D01*
X8087232D01*
Y5423767D01*
X8087814D01*
Y5423185D01*
X8088977D01*
Y5422022D01*
X8090140D01*
Y5420859D01*
X8090722D01*
Y5420277D01*
X8091304D01*
Y5419695D01*
X8091885D01*
Y5419114D01*
X8092467D01*
Y5418532D01*
X8093048D01*
Y5417951D01*
X8093630D01*
Y5416787D01*
X8094212D01*
Y5416206D01*
X8094793D01*
Y5415043D01*
X8095375D01*
Y5413879D01*
X8095956D01*
Y5413298D01*
X8096538D01*
Y5412134D01*
X8097120D01*
Y5410389D01*
X8097701D01*
Y5409226D01*
X8098283D01*
Y5407481D01*
X8098864D01*
Y5405155D01*
X8099446D01*
Y5403410D01*
X8100028D01*
Y5398757D01*
X8100609D01*
Y5384799D01*
X8100028D01*
Y5380146D01*
X8099446D01*
Y5377238D01*
X8098864D01*
Y5374330D01*
X8098283D01*
Y5372003D01*
X8097701D01*
Y5370258D01*
X8097120D01*
Y5367932D01*
X8096538D01*
Y5366187D01*
X8095956D01*
Y5364442D01*
X8095375D01*
Y5362698D01*
X8094793D01*
Y5360953D01*
X8094212D01*
Y5359208D01*
X8093630D01*
Y5357463D01*
X8093048D01*
Y5356300D01*
X8092467D01*
Y5355137D01*
X8091885D01*
Y5353392D01*
X8091304D01*
Y5352229D01*
X8090722D01*
Y5350484D01*
X8090140D01*
Y5349321D01*
X8089559D01*
Y5347576D01*
X8088977D01*
Y5346994D01*
X8088396D01*
Y5345831D01*
X8087814D01*
Y5344668D01*
X8087232D01*
Y5342923D01*
X8086651D01*
Y5341760D01*
X8086069D01*
Y5340596D01*
X8085488D01*
Y5339433D01*
X8084906D01*
Y5338270D01*
X8084324D01*
Y5337107D01*
X8083743D01*
Y5336525D01*
X8083161D01*
Y5335362D01*
X8082579D01*
Y5334199D01*
X8081998D01*
Y5333036D01*
X8081416D01*
Y5331872D01*
X8080834D01*
Y5330709D01*
X8080253D01*
Y5330128D01*
X8079671D01*
Y5328964D01*
X8079090D01*
Y5327801D01*
X8078508D01*
Y5327219D01*
X8077926D01*
Y5326056D01*
X8077345D01*
Y5325474D01*
X8076763D01*
Y5324311D01*
X8076182D01*
Y5323148D01*
X8075600D01*
Y5322566D01*
X8075018D01*
Y5321403D01*
X8074437D01*
Y5320822D01*
X8073855D01*
Y5320240D01*
X8073274D01*
Y5319077D01*
X8072692D01*
Y5318495D01*
X8072110D01*
Y5317914D01*
X8071529D01*
Y5316750D01*
X8070947D01*
Y5316169D01*
X8070366D01*
Y5315587D01*
X8069784D01*
Y5315006D01*
X8069202D01*
Y5314424D01*
X8068621D01*
Y5313842D01*
X8068039D01*
Y5313261D01*
X8067458D01*
Y5312679D01*
X8066876D01*
Y5312098D01*
X8065713D01*
Y5311516D01*
X8065131D01*
Y5310934D01*
X8064550D01*
Y5310353D01*
X8063968D01*
Y5309771D01*
X8062805D01*
Y5309190D01*
X8062223D01*
Y5308608D01*
X8061060D01*
Y5308026D01*
X8060478D01*
Y5307445D01*
X8059315D01*
Y5306863D01*
X8058152D01*
Y5306281D01*
X8057570D01*
Y5305700D01*
X8056407D01*
Y5305118D01*
X8054662D01*
Y5304537D01*
X8053499D01*
Y5303955D01*
X8052336D01*
Y5303373D01*
X8051173D01*
Y5302792D01*
X8050009D01*
Y5302210D01*
X8048265D01*
Y5301628D01*
X8047101D01*
Y5301047D01*
X8045357D01*
Y5300465D01*
X8043612D01*
Y5299884D01*
X8041867D01*
Y5299302D01*
X8040122D01*
Y5298720D01*
X8037795D01*
Y5298139D01*
X8036051D01*
Y5297557D01*
X8034306D01*
Y5296976D01*
X8032561D01*
Y5296394D01*
X8030235D01*
Y5295812D01*
X8027908D01*
Y5295231D01*
X8025582D01*
Y5294649D01*
X8023255D01*
Y5294068D01*
X8020929D01*
Y5293486D01*
X8018021D01*
Y5292904D01*
X8016276D01*
Y5292323D01*
X8013949D01*
Y5291741D01*
X8011623D01*
Y5291160D01*
X8009297D01*
Y5290578D01*
X8006970D01*
Y5289996D01*
X8005225D01*
Y5289415D01*
X8002317D01*
Y5288833D01*
X8000573D01*
Y5288252D01*
X7998828D01*
Y5287670D01*
X7997083D01*
Y5287088D01*
X7994756D01*
Y5286507D01*
X7993593D01*
Y5285925D01*
X7991848D01*
Y5285344D01*
X7991267D01*
Y5287088D01*
X7991848D01*
Y5287670D01*
X7992430D01*
Y5288833D01*
X7993011D01*
Y5289996D01*
X7993593D01*
Y5290578D01*
X7994175D01*
Y5291160D01*
X7994756D01*
Y5291741D01*
X7995338D01*
Y5292323D01*
X7995919D01*
Y5293486D01*
X7996501D01*
Y5294068D01*
X7997083D01*
Y5294649D01*
X7997664D01*
Y5295231D01*
X7998828D01*
Y5295812D01*
X7999409D01*
Y5296394D01*
X7999991D01*
Y5296976D01*
X8000573D01*
Y5297557D01*
X8001736D01*
Y5298139D01*
X8002899D01*
Y5298720D01*
X8003481D01*
Y5299302D01*
X8004644D01*
Y5299884D01*
X8005807D01*
Y5300465D01*
X8006970D01*
Y5301047D01*
X8008715D01*
Y5301628D01*
X8009878D01*
Y5302210D01*
X8011623D01*
Y5302792D01*
X8012786D01*
Y5303373D01*
X8014531D01*
Y5303955D01*
X8016857D01*
Y5304537D01*
X8019184D01*
Y5305118D01*
X8020929D01*
Y5305700D01*
X8023837D01*
Y5306281D01*
X8026163D01*
Y5306863D01*
X8028490D01*
Y5307445D01*
X8030816D01*
Y5308026D01*
X8033143D01*
Y5308608D01*
X8035469D01*
Y5309190D01*
X8037795D01*
Y5309771D01*
X8039540D01*
Y5310353D01*
X8041867D01*
Y5310934D01*
X8043612D01*
Y5311516D01*
X8044775D01*
Y5312098D01*
X8046520D01*
Y5312679D01*
X8048265D01*
Y5313261D01*
X8049428D01*
Y5313842D01*
X8050591D01*
Y5314424D01*
X8051754D01*
Y5315006D01*
X8052917D01*
Y5315587D01*
X8053499D01*
Y5316169D01*
X8054662D01*
Y5316750D01*
X8055244D01*
Y5317332D01*
X8056407D01*
Y5317914D01*
X8056989D01*
Y5318495D01*
X8057570D01*
Y5319077D01*
X8058152D01*
Y5319658D01*
X8059315D01*
Y5320240D01*
X8059897D01*
Y5320822D01*
X8060478D01*
Y5321403D01*
X8061060D01*
Y5321985D01*
X8061641D01*
Y5322566D01*
X8062223D01*
Y5323148D01*
X8062805D01*
Y5323730D01*
X8063386D01*
Y5324311D01*
X8063968D01*
Y5325474D01*
X8064550D01*
Y5326056D01*
X8065131D01*
Y5326638D01*
X8065713D01*
Y5327801D01*
X8066876D01*
Y5328964D01*
X8067458D01*
Y5329546D01*
X8068039D01*
Y5330709D01*
X8068621D01*
Y5331291D01*
X8069202D01*
Y5332454D01*
X8069784D01*
Y5333036D01*
X8070366D01*
Y5334199D01*
X8070947D01*
Y5334780D01*
X8071529D01*
Y5335944D01*
X8072110D01*
Y5337107D01*
X8072692D01*
Y5338270D01*
X8073274D01*
Y5338852D01*
X8073855D01*
Y5340015D01*
X8074437D01*
Y5341178D01*
X8075018D01*
Y5342341D01*
X8075600D01*
Y5342923D01*
X8076182D01*
Y5344668D01*
X8076763D01*
Y5345831D01*
X8077345D01*
Y5346994D01*
X8077926D01*
Y5348157D01*
X8078508D01*
Y5349321D01*
X8079090D01*
Y5351065D01*
X8079671D01*
Y5352229D01*
X8080253D01*
Y5353974D01*
X8080834D01*
Y5355137D01*
X8081416D01*
Y5356882D01*
X8081998D01*
Y5358626D01*
X8082579D01*
Y5360371D01*
X8083161D01*
Y5361534D01*
X8083743D01*
Y5363279D01*
X8084324D01*
Y5366187D01*
X8084906D01*
Y5367932D01*
X8085488D01*
Y5369677D01*
X8086069D01*
Y5372585D01*
X8086651D01*
Y5374911D01*
X8087232D01*
Y5377820D01*
X8087814D01*
Y5381891D01*
X8088396D01*
Y5387125D01*
X8088977D01*
Y5398757D01*
X8088396D01*
Y5402247D01*
X8087814D01*
Y5404573D01*
X8087232D01*
Y5406318D01*
X8086651D01*
Y5408063D01*
X8086069D01*
Y5409226D01*
X8085488D01*
Y5410971D01*
X8084906D01*
Y5412134D01*
X8084324D01*
Y5413298D01*
X8083743D01*
Y5414461D01*
X8083161D01*
Y5416206D01*
X8082579D01*
Y5417369D01*
X8081998D01*
Y5418532D01*
X8081416D01*
Y5420277D01*
X8080834D01*
Y5421440D01*
X8080253D01*
Y5423185D01*
X8079671D01*
Y5424930D01*
X8079090D01*
Y5426675D01*
X8078508D01*
Y5431327D01*
X8079090D01*
Y5430746D01*
D02*
G37*
G36*
X8065131Y5435399D02*
X8064550D01*
Y5434817D01*
X8063968D01*
Y5434236D01*
X8063386D01*
Y5433654D01*
X8062805D01*
Y5433072D01*
X8061641D01*
Y5432491D01*
X8061060D01*
Y5431909D01*
X8059897D01*
Y5431327D01*
X8059315D01*
Y5430746D01*
X8058152D01*
Y5430164D01*
X8057570D01*
Y5429583D01*
X8056407D01*
Y5429001D01*
X8055244D01*
Y5428419D01*
X8054662D01*
Y5427838D01*
X8053499D01*
Y5427256D01*
X8052917D01*
Y5426675D01*
X8051754D01*
Y5426093D01*
X8050591D01*
Y5425511D01*
X8049428D01*
Y5424930D01*
X8048265D01*
Y5424348D01*
X8047101D01*
Y5423767D01*
X8045938D01*
Y5423185D01*
X8044775D01*
Y5422603D01*
X8043612D01*
Y5422022D01*
X8042448D01*
Y5421440D01*
X8041285D01*
Y5420859D01*
X8040122D01*
Y5420277D01*
X8038959D01*
Y5419695D01*
X8037795D01*
Y5419114D01*
X8036632D01*
Y5418532D01*
X8035469D01*
Y5417951D01*
X8034306D01*
Y5417369D01*
X8033143D01*
Y5416787D01*
X8031979D01*
Y5416206D01*
X8030816D01*
Y5415624D01*
X8029653D01*
Y5415043D01*
X8028490D01*
Y5414461D01*
X8027327D01*
Y5413879D01*
X8026163D01*
Y5413298D01*
X8025000D01*
Y5412716D01*
X8023837D01*
Y5412134D01*
X8022674D01*
Y5411553D01*
X8022092D01*
Y5410971D01*
X8020929D01*
Y5410389D01*
X8019766D01*
Y5409808D01*
X8019184D01*
Y5409226D01*
X8018021D01*
Y5408645D01*
X8016857D01*
Y5408063D01*
X8015694D01*
Y5407481D01*
X8015113D01*
Y5406900D01*
X8014531D01*
Y5406318D01*
X8013368D01*
Y5405737D01*
X8012786D01*
Y5405155D01*
X8011623D01*
Y5404573D01*
X8011041D01*
Y5403992D01*
X8010460D01*
Y5403410D01*
X8009878D01*
Y5402829D01*
X8008715D01*
Y5402247D01*
X8008133D01*
Y5401665D01*
X8007552D01*
Y5401084D01*
X8006389D01*
Y5400502D01*
X8005807D01*
Y5399921D01*
X8005225D01*
Y5399339D01*
X8004644D01*
Y5398757D01*
X8003481D01*
Y5397594D01*
X8002317D01*
Y5397013D01*
X8001736D01*
Y5396431D01*
X8001154D01*
Y5395849D01*
X8000573D01*
Y5395268D01*
X7999991D01*
Y5394686D01*
X7999409D01*
Y5394105D01*
X7998246D01*
Y5392941D01*
X7997083D01*
Y5391778D01*
X7995919D01*
Y5390615D01*
X7994756D01*
Y5389452D01*
X7993593D01*
Y5388288D01*
X7993011D01*
Y5387707D01*
X7992430D01*
Y5387125D01*
X7991848D01*
Y5386544D01*
X7991267D01*
Y5385962D01*
X7990685D01*
Y5385380D01*
X7990103D01*
Y5384799D01*
X7989522D01*
Y5384217D01*
X7988940D01*
Y5383636D01*
X7988359D01*
Y5382472D01*
X7987777D01*
Y5381891D01*
X7987195D01*
Y5381309D01*
X7986614D01*
Y5380146D01*
X7986032D01*
Y5379564D01*
X7985451D01*
Y5378983D01*
X7984869D01*
Y5378401D01*
X7984287D01*
Y5377820D01*
X7983706D01*
Y5376656D01*
X7983124D01*
Y5376075D01*
X7982543D01*
Y5375493D01*
X7981961D01*
Y5374330D01*
X7981379D01*
Y5373167D01*
X7980798D01*
Y5372585D01*
X7980216D01*
Y5372003D01*
X7979635D01*
Y5370840D01*
X7979053D01*
Y5369677D01*
X7978471D01*
Y5369095D01*
X7977890D01*
Y5367932D01*
X7977308D01*
Y5366769D01*
X7976726D01*
Y5366187D01*
X7976145D01*
Y5365024D01*
X7975563D01*
Y5363861D01*
X7974982D01*
Y5362698D01*
X7974400D01*
Y5361534D01*
X7973818D01*
Y5360371D01*
X7973237D01*
Y5359208D01*
X7972655D01*
Y5358045D01*
X7972073D01*
Y5356882D01*
X7971492D01*
Y5355137D01*
X7970910D01*
Y5353974D01*
X7970329D01*
Y5352229D01*
X7969747D01*
Y5351065D01*
X7969165D01*
Y5349321D01*
X7968584D01*
Y5347576D01*
X7968002D01*
Y5345831D01*
X7967421D01*
Y5344668D01*
X7966839D01*
Y5342923D01*
X7966257D01*
Y5340596D01*
X7965676D01*
Y5338852D01*
X7965094D01*
Y5336525D01*
X7964513D01*
Y5334780D01*
X7963931D01*
Y5332454D01*
X7963349D01*
Y5330128D01*
X7962768D01*
Y5327801D01*
X7962186D01*
Y5325474D01*
X7961605D01*
Y5322566D01*
X7961023D01*
Y5319658D01*
X7960441D01*
Y5316750D01*
X7959860D01*
Y5313261D01*
X7959278D01*
Y5310353D01*
X7958697D01*
Y5306281D01*
X7958115D01*
Y5301047D01*
X7957533D01*
Y5296394D01*
X7956952D01*
Y5280690D01*
X7957533D01*
Y5276038D01*
X7958115D01*
Y5273130D01*
X7958697D01*
Y5270803D01*
X7959278D01*
Y5268477D01*
X7960441D01*
Y5269058D01*
X7961023D01*
Y5269640D01*
X7961605D01*
Y5270222D01*
X7962186D01*
Y5270803D01*
X7962768D01*
Y5271385D01*
X7963931D01*
Y5271966D01*
X7964513D01*
Y5272548D01*
X7965094D01*
Y5273130D01*
X7966257D01*
Y5273711D01*
X7966839D01*
Y5274293D01*
X7968002D01*
Y5274874D01*
X7968584D01*
Y5275456D01*
X7969747D01*
Y5276038D01*
X7970910D01*
Y5276619D01*
X7971492D01*
Y5277201D01*
X7972655D01*
Y5277782D01*
X7974982D01*
Y5278364D01*
X7977308D01*
Y5278946D01*
X7979635D01*
Y5279527D01*
X7985451D01*
Y5277782D01*
X7984287D01*
Y5277201D01*
X7983706D01*
Y5276619D01*
X7983124D01*
Y5275456D01*
X7981961D01*
Y5274293D01*
X7980798D01*
Y5273130D01*
X7979635D01*
Y5271966D01*
X7978471D01*
Y5271385D01*
X7977890D01*
Y5270803D01*
X7977308D01*
Y5270222D01*
X7976726D01*
Y5269640D01*
X7976145D01*
Y5269058D01*
X7975563D01*
Y5268477D01*
X7974400D01*
Y5267895D01*
X7973818D01*
Y5267314D01*
X7973237D01*
Y5266732D01*
X7972655D01*
Y5266150D01*
X7971492D01*
Y5265569D01*
X7970910D01*
Y5264987D01*
X7969747D01*
Y5264406D01*
X7969165D01*
Y5263824D01*
X7968002D01*
Y5263242D01*
X7966257D01*
Y5262661D01*
X7965094D01*
Y5262079D01*
X7963349D01*
Y5261497D01*
X7957533D01*
Y5262079D01*
X7955789D01*
Y5262661D01*
X7955207D01*
Y5263242D01*
X7954044D01*
Y5263824D01*
X7953462D01*
Y5264406D01*
X7952880D01*
Y5264987D01*
X7952299D01*
Y5266150D01*
X7951717D01*
Y5266732D01*
X7951135D01*
Y5267895D01*
X7950554D01*
Y5269058D01*
X7949972D01*
Y5270803D01*
X7949391D01*
Y5273130D01*
X7948809D01*
Y5310934D01*
X7949391D01*
Y5317332D01*
X7949972D01*
Y5320822D01*
Y5321403D01*
X7950554D01*
Y5324311D01*
X7951135D01*
Y5327219D01*
X7951717D01*
Y5330128D01*
X7952299D01*
Y5332454D01*
X7952880D01*
Y5334780D01*
X7953462D01*
Y5337107D01*
X7954044D01*
Y5338852D01*
X7954625D01*
Y5341178D01*
X7955207D01*
Y5342923D01*
X7955789D01*
Y5344668D01*
X7956370D01*
Y5345831D01*
X7956952D01*
Y5347576D01*
X7957533D01*
Y5349321D01*
X7958115D01*
Y5351065D01*
X7958697D01*
Y5352229D01*
X7959278D01*
Y5353974D01*
X7959860D01*
Y5355137D01*
X7960441D01*
Y5356882D01*
X7961023D01*
Y5358045D01*
X7961605D01*
Y5359790D01*
X7962186D01*
Y5360371D01*
X7962768D01*
Y5362116D01*
X7963349D01*
Y5363279D01*
X7963931D01*
Y5364442D01*
X7964513D01*
Y5365606D01*
X7965094D01*
Y5366769D01*
X7965676D01*
Y5367932D01*
X7966257D01*
Y5369095D01*
X7966839D01*
Y5369677D01*
X7967421D01*
Y5370840D01*
X7968002D01*
Y5372585D01*
X7968584D01*
Y5373167D01*
X7969165D01*
Y5374330D01*
X7969747D01*
Y5375493D01*
X7970329D01*
Y5376075D01*
X7970910D01*
Y5377238D01*
X7971492D01*
Y5378401D01*
X7972073D01*
Y5378983D01*
X7972655D01*
Y5380146D01*
X7973237D01*
Y5380728D01*
X7973818D01*
Y5381891D01*
X7974400D01*
Y5382472D01*
X7974982D01*
Y5383636D01*
X7975563D01*
Y5384217D01*
X7976145D01*
Y5384799D01*
X7976726D01*
Y5385962D01*
X7977308D01*
Y5386544D01*
X7977890D01*
Y5387707D01*
X7978471D01*
Y5388288D01*
X7979053D01*
Y5389452D01*
X7980216D01*
Y5390615D01*
X7980798D01*
Y5391196D01*
X7981379D01*
Y5391778D01*
X7981961D01*
Y5392941D01*
X7982543D01*
Y5393523D01*
X7983124D01*
Y5394105D01*
X7983706D01*
Y5394686D01*
X7984287D01*
Y5395268D01*
X7984869D01*
Y5396431D01*
X7985451D01*
Y5397013D01*
X7986032D01*
Y5397594D01*
X7986614D01*
Y5398176D01*
X7987195D01*
Y5398757D01*
X7987777D01*
Y5399339D01*
X7988359D01*
Y5399921D01*
X7988940D01*
Y5400502D01*
X7989522D01*
Y5401084D01*
X7990103D01*
Y5401665D01*
X7990685D01*
Y5402247D01*
X7991267D01*
Y5402829D01*
X7991848D01*
Y5403410D01*
X7992430D01*
Y5403992D01*
X7993011D01*
Y5404573D01*
X7993593D01*
Y5405155D01*
X7994175D01*
Y5405737D01*
X7994756D01*
Y5406318D01*
X7995338D01*
Y5406900D01*
X7995919D01*
Y5407481D01*
X7996501D01*
Y5408063D01*
X7997664D01*
Y5408645D01*
X7998246D01*
Y5409226D01*
X7998828D01*
Y5409808D01*
X7999409D01*
Y5410389D01*
X7999991D01*
Y5410971D01*
X8000573D01*
Y5411553D01*
X8001736D01*
Y5412134D01*
X8002317D01*
Y5412716D01*
X8002899D01*
Y5413298D01*
X8004062D01*
Y5413879D01*
X8004644D01*
Y5414461D01*
X8005225D01*
Y5415043D01*
X8006389D01*
Y5415624D01*
X8006970D01*
Y5416206D01*
X8008133D01*
Y5416787D01*
X8008715D01*
Y5417369D01*
X8009878D01*
Y5417951D01*
X8010460D01*
Y5418532D01*
X8011623D01*
Y5419114D01*
X8012205D01*
Y5419695D01*
X8013368D01*
Y5420277D01*
X8014531D01*
Y5420859D01*
X8015694D01*
Y5421440D01*
X8016276D01*
Y5422022D01*
X8017439D01*
Y5422603D01*
X8018602D01*
Y5423185D01*
X8019184D01*
Y5423767D01*
X8020929D01*
Y5424348D01*
X8022092D01*
Y5424930D01*
X8022674D01*
Y5425511D01*
X8023837D01*
Y5426093D01*
X8025582D01*
Y5426675D01*
X8027327D01*
Y5427256D01*
X8028490D01*
Y5427838D01*
X8029653D01*
Y5428419D01*
X8031398D01*
Y5429001D01*
X8033143D01*
Y5429583D01*
X8034306D01*
Y5430164D01*
X8036051D01*
Y5430746D01*
X8037795D01*
Y5431327D01*
X8040122D01*
Y5431909D01*
X8042448D01*
Y5432491D01*
X8044193D01*
Y5433072D01*
X8047101D01*
Y5433654D01*
X8050009D01*
Y5434236D01*
X8053499D01*
Y5434817D01*
X8057570D01*
Y5435399D01*
X8063968D01*
Y5435980D01*
X8065131D01*
Y5435399D01*
D02*
G37*
G36*
X8786854Y5442328D02*
X8797151D01*
Y5440857D01*
X8804505D01*
Y5439386D01*
X8810389D01*
Y5437915D01*
X8814802D01*
Y5436445D01*
X8819214D01*
Y5434974D01*
X8823627D01*
Y5433503D01*
X8826569D01*
Y5432032D01*
X8829510D01*
Y5430561D01*
X8833923D01*
Y5429090D01*
X8836865D01*
Y5427619D01*
X8838336D01*
Y5426148D01*
X8841278D01*
Y5424677D01*
X8844220D01*
Y5423206D01*
X8847161D01*
Y5421735D01*
X8848632D01*
Y5420264D01*
X8851574D01*
Y5418794D01*
X8853045D01*
Y5417323D01*
X8855987D01*
Y5415852D01*
X8857458D01*
Y5414381D01*
X8858928D01*
Y5412910D01*
X8860399D01*
Y5411439D01*
X8863341D01*
Y5409968D01*
X8864812D01*
Y5408497D01*
X8866283D01*
Y5407027D01*
X8867754D01*
Y5405556D01*
X8869225D01*
Y5404085D01*
X8870696D01*
Y5402614D01*
X8872167D01*
Y5401143D01*
X8873638D01*
Y5399672D01*
X8875108D01*
Y5398201D01*
X8876579D01*
Y5395259D01*
X8878050D01*
Y5393788D01*
X8879521D01*
Y5392317D01*
X8880992D01*
Y5390846D01*
X8882463D01*
Y5387905D01*
X8883934D01*
Y5386434D01*
X8885405D01*
Y5383492D01*
X8886876D01*
Y5382021D01*
X8888346D01*
Y5379079D01*
X8889817D01*
Y5376138D01*
X8891288D01*
Y5373196D01*
X8892759D01*
Y5370254D01*
X8894230D01*
Y5367312D01*
X8895701D01*
Y5364370D01*
X8897172D01*
Y5359958D01*
X8898643D01*
Y5357016D01*
X8900114D01*
Y5351132D01*
X8901585D01*
Y5346720D01*
X8903056D01*
Y5339365D01*
X8904527D01*
Y5330540D01*
X8905997D01*
Y5290825D01*
X8904527D01*
Y5282000D01*
X8903056D01*
Y5276116D01*
X8901585D01*
Y5270233D01*
X8900114D01*
Y5265820D01*
X8898643D01*
Y5261407D01*
X8897172D01*
Y5256995D01*
X8895701D01*
Y5254053D01*
X8894230D01*
Y5251111D01*
X8892759D01*
Y5248169D01*
X8891288D01*
Y5245228D01*
X8889817D01*
Y5242286D01*
X8888346D01*
Y5240815D01*
X8886876D01*
Y5237873D01*
X8885405D01*
Y5236402D01*
X8883934D01*
Y5233460D01*
X8882463D01*
Y5231990D01*
X8880992D01*
Y5229048D01*
X8879521D01*
Y5227577D01*
X8878050D01*
Y5226106D01*
X8876579D01*
Y5224635D01*
X8875108D01*
Y5223164D01*
X8873638D01*
Y5220222D01*
X8872167D01*
Y5218751D01*
X8870696D01*
Y5217280D01*
X8869225D01*
Y5215809D01*
X8867754D01*
Y5214339D01*
X8866283D01*
Y5212868D01*
X8863341D01*
Y5211397D01*
X8861870D01*
Y5209926D01*
X8860399D01*
Y5208455D01*
X8858928D01*
Y5206984D01*
X8857458D01*
Y5205513D01*
X8854516D01*
Y5204042D01*
X8853045D01*
Y5202572D01*
X8850103D01*
Y5201101D01*
X8848632D01*
Y5199630D01*
X8845690D01*
Y5198159D01*
X8844220D01*
Y5196688D01*
X8841278D01*
Y5195217D01*
X8838336D01*
Y5193746D01*
X8835394D01*
Y5192275D01*
X8832452D01*
Y5190804D01*
X8829510D01*
Y5189333D01*
X8826569D01*
Y5187862D01*
X8822156D01*
Y5186391D01*
X8817743D01*
Y5184921D01*
X8813331D01*
Y5183450D01*
X8808918D01*
Y5181979D01*
X8803034D01*
Y5180508D01*
X8795680D01*
Y5179037D01*
X8785383D01*
Y5177566D01*
X8745669D01*
Y5179037D01*
X8736844D01*
Y5180508D01*
X8729489D01*
Y5181979D01*
X8725077D01*
Y5183450D01*
X8719193D01*
Y5184921D01*
X8716251D01*
Y5186391D01*
X8711839D01*
Y5187862D01*
X8708897D01*
Y5189333D01*
X8705955D01*
Y5190804D01*
X8703013D01*
Y5192275D01*
X8700071D01*
Y5193746D01*
X8698601D01*
Y5195217D01*
X8695659D01*
Y5196688D01*
X8692717D01*
Y5198159D01*
X8691246D01*
Y5199630D01*
X8689775D01*
Y5201101D01*
X8686833D01*
Y5202572D01*
X8685362D01*
Y5204042D01*
X8683891D01*
Y5205513D01*
X8682421D01*
Y5206984D01*
X8679479D01*
Y5208455D01*
X8678008D01*
Y5209926D01*
X8676537D01*
Y5211397D01*
X8675066D01*
Y5212868D01*
X8673595D01*
Y5214339D01*
X8672124D01*
Y5215809D01*
X8670653D01*
Y5218751D01*
X8669183D01*
Y5220222D01*
X8667712D01*
Y5221693D01*
X8666241D01*
Y5223164D01*
X8664770D01*
Y5226106D01*
X8663299D01*
Y5227577D01*
X8661828D01*
Y5229048D01*
X8660357D01*
Y5231990D01*
X8658886D01*
Y5233460D01*
X8657415D01*
Y5236402D01*
X8655944D01*
Y5239344D01*
X8654473D01*
Y5242286D01*
X8653003D01*
Y5243757D01*
X8651532D01*
Y5246698D01*
X8650061D01*
Y5251111D01*
X8648590D01*
Y5252582D01*
X8650061D01*
Y5254053D01*
X8653003D01*
Y5255524D01*
X8655944D01*
Y5256995D01*
X8658886D01*
Y5258466D01*
X8661828D01*
Y5259937D01*
X8664770D01*
Y5261407D01*
X8669183D01*
Y5262878D01*
X8672124D01*
Y5264349D01*
X8675066D01*
Y5265820D01*
X8678008D01*
Y5267291D01*
X8680950D01*
Y5268762D01*
X8683891D01*
Y5270233D01*
X8686833D01*
Y5271704D01*
X8691246D01*
Y5273175D01*
X8694188D01*
Y5274646D01*
X8697130D01*
Y5276116D01*
X8700071D01*
Y5277587D01*
X8703013D01*
Y5279058D01*
X8705955D01*
Y5280529D01*
X8710368D01*
Y5282000D01*
X8713309D01*
Y5283471D01*
X8716251D01*
Y5280529D01*
X8717722D01*
Y5277587D01*
X8719193D01*
Y5274646D01*
X8720664D01*
Y5271704D01*
X8722135D01*
Y5270233D01*
X8723606D01*
Y5267291D01*
X8725077D01*
Y5265820D01*
X8726547D01*
Y5264349D01*
X8728018D01*
Y5262878D01*
X8729489D01*
Y5261407D01*
X8730960D01*
Y5259937D01*
X8732431D01*
Y5258466D01*
X8733902D01*
Y5256995D01*
X8735373D01*
Y5255524D01*
X8738315D01*
Y5254053D01*
X8739786D01*
Y5252582D01*
X8742727D01*
Y5251111D01*
X8745669D01*
Y5249640D01*
X8750082D01*
Y5248169D01*
X8754495D01*
Y5246698D01*
X8778029D01*
Y5248169D01*
X8783913D01*
Y5249640D01*
X8788325D01*
Y5251111D01*
X8791267D01*
Y5252582D01*
X8794209D01*
Y5254053D01*
X8797151D01*
Y5255524D01*
X8800093D01*
Y5256995D01*
X8801564D01*
Y5258466D01*
X8803034D01*
Y5259937D01*
X8805976D01*
Y5261407D01*
X8807447D01*
Y5262878D01*
X8808918D01*
Y5264349D01*
X8810389D01*
Y5265820D01*
X8811860D01*
Y5267291D01*
X8813331D01*
Y5270233D01*
X8814802D01*
Y5271704D01*
X8816272D01*
Y5273175D01*
X8817743D01*
Y5276116D01*
X8819214D01*
Y5279058D01*
X8820685D01*
Y5282000D01*
X8822156D01*
Y5286413D01*
X8823627D01*
Y5290825D01*
X8825098D01*
Y5295238D01*
X8826569D01*
Y5305534D01*
X8828040D01*
Y5315831D01*
X8826569D01*
Y5326127D01*
X8825098D01*
Y5332011D01*
X8823627D01*
Y5336423D01*
X8822156D01*
Y5339365D01*
X8820685D01*
Y5342307D01*
X8819214D01*
Y5345249D01*
X8817743D01*
Y5348190D01*
X8816272D01*
Y5349661D01*
X8814802D01*
Y5351132D01*
X8813331D01*
Y5354074D01*
X8811860D01*
Y5355545D01*
X8810389D01*
Y5357016D01*
X8808918D01*
Y5358487D01*
X8807447D01*
Y5359958D01*
X8805976D01*
Y5361429D01*
X8804505D01*
Y5362900D01*
X8801564D01*
Y5364370D01*
X8800093D01*
Y5365841D01*
X8797151D01*
Y5367312D01*
X8795680D01*
Y5368783D01*
X8792738D01*
Y5370254D01*
X8788325D01*
Y5371725D01*
X8783913D01*
Y5373196D01*
X8779500D01*
Y5374667D01*
X8767733D01*
Y5376138D01*
X8763320D01*
Y5374667D01*
X8754495D01*
Y5373196D01*
X8750082D01*
Y5371725D01*
X8745669D01*
Y5370254D01*
X8742727D01*
Y5368783D01*
X8739786D01*
Y5367312D01*
X8738315D01*
Y5365841D01*
X8735373D01*
Y5364370D01*
X8733902D01*
Y5362900D01*
X8732431D01*
Y5361429D01*
X8730960D01*
Y5359958D01*
X8729489D01*
Y5358487D01*
X8728018D01*
Y5357016D01*
X8726547D01*
Y5355545D01*
X8725077D01*
Y5354074D01*
X8723606D01*
Y5352603D01*
X8722135D01*
Y5349661D01*
X8720664D01*
Y5348190D01*
X8719193D01*
Y5345249D01*
X8717722D01*
Y5340836D01*
X8716251D01*
Y5337894D01*
X8713309D01*
Y5339365D01*
X8710368D01*
Y5340836D01*
X8707426D01*
Y5342307D01*
X8704484D01*
Y5343778D01*
X8701542D01*
Y5345249D01*
X8698601D01*
Y5346720D01*
X8694188D01*
Y5348190D01*
X8691246D01*
Y5349661D01*
X8688304D01*
Y5351132D01*
X8685362D01*
Y5352603D01*
X8682421D01*
Y5354074D01*
X8679479D01*
Y5355545D01*
X8676537D01*
Y5357016D01*
X8672124D01*
Y5358487D01*
X8669183D01*
Y5359958D01*
X8666241D01*
Y5361429D01*
X8663299D01*
Y5362900D01*
X8660357D01*
Y5364370D01*
X8657415D01*
Y5365841D01*
X8654473D01*
Y5367312D01*
X8650061D01*
Y5368783D01*
X8648590D01*
Y5371725D01*
X8650061D01*
Y5374667D01*
X8651532D01*
Y5377608D01*
X8653003D01*
Y5380550D01*
X8654473D01*
Y5383492D01*
X8655944D01*
Y5384963D01*
X8657415D01*
Y5387905D01*
X8658886D01*
Y5390846D01*
X8660357D01*
Y5392317D01*
X8661828D01*
Y5395259D01*
X8663299D01*
Y5396730D01*
X8664770D01*
Y5398201D01*
X8666241D01*
Y5401143D01*
X8667712D01*
Y5402614D01*
X8669183D01*
Y5404085D01*
X8670653D01*
Y5405556D01*
X8672124D01*
Y5407027D01*
X8673595D01*
Y5408497D01*
X8675066D01*
Y5409968D01*
X8676537D01*
Y5411439D01*
X8678008D01*
Y5412910D01*
X8679479D01*
Y5414381D01*
X8680950D01*
Y5415852D01*
X8682421D01*
Y5417323D01*
X8683891D01*
Y5418794D01*
X8686833D01*
Y5420264D01*
X8688304D01*
Y5421735D01*
X8689775D01*
Y5423206D01*
X8692717D01*
Y5424677D01*
X8694188D01*
Y5426148D01*
X8697130D01*
Y5427619D01*
X8700071D01*
Y5429090D01*
X8701542D01*
Y5430561D01*
X8704484D01*
Y5432032D01*
X8707426D01*
Y5433503D01*
X8711839D01*
Y5434974D01*
X8714780D01*
Y5436445D01*
X8719193D01*
Y5437915D01*
X8723606D01*
Y5439386D01*
X8728018D01*
Y5440857D01*
X8735373D01*
Y5442328D01*
X8744198D01*
Y5443799D01*
X8786854D01*
Y5442328D01*
D02*
G37*
G36*
X7856333Y5276038D02*
X7859241D01*
Y5275456D01*
X7860986D01*
Y5274874D01*
X7862149D01*
Y5274293D01*
X7863894D01*
Y5273711D01*
X7865057D01*
Y5273130D01*
X7866220D01*
Y5272548D01*
X7866802D01*
Y5271966D01*
X7867965D01*
Y5271385D01*
X7868547D01*
Y5270803D01*
X7869710D01*
Y5270222D01*
X7870292D01*
Y5269640D01*
X7870874D01*
Y5269058D01*
X7871455D01*
Y5268477D01*
X7872618D01*
Y5267895D01*
X7873200D01*
Y5267314D01*
X7873782D01*
Y5266732D01*
X7874363D01*
Y5266150D01*
X7874945D01*
Y5265569D01*
X7875526D01*
Y5264987D01*
X7876108D01*
Y5264406D01*
X7876690D01*
Y5263824D01*
X7877271D01*
Y5262661D01*
X7877853D01*
Y5262079D01*
X7878434D01*
Y5260916D01*
X7879016D01*
Y5260334D01*
X7879598D01*
Y5259171D01*
X7880179D01*
Y5258008D01*
X7880761D01*
Y5257426D01*
X7881342D01*
Y5255681D01*
X7881924D01*
Y5254518D01*
X7882506D01*
Y5253355D01*
X7883087D01*
Y5251610D01*
X7883669D01*
Y5249865D01*
X7884250D01*
Y5247539D01*
X7884832D01*
Y5245212D01*
X7885414D01*
Y5242886D01*
X7884832D01*
Y5243468D01*
X7884250D01*
Y5244049D01*
X7883669D01*
Y5244631D01*
X7883087D01*
Y5245212D01*
X7881924D01*
Y5246376D01*
X7880761D01*
Y5247539D01*
X7879598D01*
Y5248702D01*
X7879016D01*
Y5249284D01*
X7878434D01*
Y5249865D01*
X7877853D01*
Y5250447D01*
X7877271D01*
Y5251028D01*
X7876690D01*
Y5251610D01*
X7876108D01*
Y5252192D01*
X7875526D01*
Y5252773D01*
X7874945D01*
Y5253355D01*
X7874363D01*
Y5253937D01*
X7873782D01*
Y5254518D01*
X7873200D01*
Y5255100D01*
X7872618D01*
Y5255681D01*
X7872037D01*
Y5256263D01*
X7871455D01*
Y5256845D01*
X7870874D01*
Y5257426D01*
X7870292D01*
Y5258008D01*
X7869710D01*
Y5258589D01*
X7869129D01*
Y5259171D01*
X7868547D01*
Y5259753D01*
X7867965D01*
Y5260334D01*
X7866802D01*
Y5260916D01*
X7866220D01*
Y5261497D01*
X7865639D01*
Y5262079D01*
X7864476D01*
Y5262661D01*
X7863312D01*
Y5263242D01*
X7862731D01*
Y5263824D01*
X7860986D01*
Y5264406D01*
X7859241D01*
Y5264987D01*
X7857496D01*
Y5265569D01*
X7852844D01*
Y5264987D01*
X7850517D01*
Y5264406D01*
X7849354D01*
Y5263824D01*
X7848191D01*
Y5263242D01*
X7847027D01*
Y5262661D01*
X7846446D01*
Y5262079D01*
X7845864D01*
Y5261497D01*
X7845283D01*
Y5260916D01*
X7844701D01*
Y5260334D01*
X7844119D01*
Y5259753D01*
X7843538D01*
Y5259171D01*
X7842956D01*
Y5258008D01*
X7842374D01*
Y5256845D01*
X7841793D01*
Y5255681D01*
X7841211D01*
Y5254518D01*
X7840630D01*
Y5252773D01*
X7840048D01*
Y5249865D01*
X7839466D01*
Y5246957D01*
X7838885D01*
Y5230091D01*
X7839466D01*
Y5225438D01*
X7840048D01*
Y5221948D01*
X7840630D01*
Y5218458D01*
X7841211D01*
Y5215550D01*
X7841793D01*
Y5213224D01*
X7842374D01*
Y5210897D01*
X7842956D01*
Y5207989D01*
X7843538D01*
Y5206245D01*
X7844119D01*
Y5205081D01*
X7844701D01*
Y5203337D01*
X7845283D01*
Y5202173D01*
X7845864D01*
Y5201010D01*
X7846446D01*
Y5199847D01*
X7847027D01*
Y5198684D01*
X7848191D01*
Y5197520D01*
X7848772D01*
Y5196939D01*
X7849354D01*
Y5196357D01*
X7850517D01*
Y5195775D01*
X7851099D01*
Y5195194D01*
X7851680D01*
Y5194612D01*
X7857496D01*
Y5195194D01*
X7858660D01*
Y5195775D01*
X7859241D01*
Y5196357D01*
X7859823D01*
Y5196939D01*
X7860404D01*
Y5197520D01*
X7860986D01*
Y5198684D01*
X7862149D01*
Y5200429D01*
X7862731D01*
Y5201010D01*
X7863312D01*
Y5202173D01*
X7863894D01*
Y5203337D01*
X7864476D01*
Y5205081D01*
X7865057D01*
Y5206245D01*
X7865639D01*
Y5207989D01*
X7866220D01*
Y5209153D01*
X7866802D01*
Y5210316D01*
X7867384D01*
Y5210897D01*
Y5212061D01*
X7867965D01*
Y5213805D01*
X7868547D01*
Y5214969D01*
X7869129D01*
Y5216132D01*
X7869710D01*
Y5217295D01*
X7870292D01*
Y5218458D01*
X7870874D01*
Y5219622D01*
X7871455D01*
Y5220785D01*
X7872037D01*
Y5221948D01*
X7872618D01*
Y5222530D01*
X7873200D01*
Y5223111D01*
X7873782D01*
Y5223693D01*
X7874363D01*
Y5224856D01*
X7874945D01*
Y5225438D01*
X7875526D01*
Y5226019D01*
X7876108D01*
Y5226601D01*
X7876690D01*
Y5227183D01*
X7877271D01*
Y5227764D01*
X7877853D01*
Y5228346D01*
X7879016D01*
Y5226601D01*
X7878434D01*
Y5223111D01*
X7877853D01*
Y5220203D01*
X7877271D01*
Y5217295D01*
X7876690D01*
Y5214969D01*
X7876108D01*
Y5212642D01*
X7875526D01*
Y5209734D01*
X7874945D01*
Y5206826D01*
X7874363D01*
Y5205081D01*
X7873782D01*
Y5203337D01*
X7873200D01*
Y5201592D01*
X7872618D01*
Y5200429D01*
X7872037D01*
Y5199265D01*
X7871455D01*
Y5198102D01*
X7870874D01*
Y5196939D01*
X7870292D01*
Y5195775D01*
X7869710D01*
Y5195194D01*
X7869129D01*
Y5194031D01*
X7868547D01*
Y5193449D01*
X7867965D01*
Y5192867D01*
X7867384D01*
Y5191704D01*
X7866802D01*
Y5191123D01*
X7866220D01*
Y5190541D01*
X7865639D01*
Y5189959D01*
X7865057D01*
Y5189378D01*
X7864476D01*
Y5188796D01*
X7863894D01*
Y5188215D01*
X7863312D01*
Y5187633D01*
X7862731D01*
Y5187051D01*
X7862149D01*
Y5186470D01*
X7860986D01*
Y5185888D01*
X7859823D01*
Y5185307D01*
X7859241D01*
Y5184725D01*
X7858078D01*
Y5184143D01*
X7856333D01*
Y5183562D01*
X7852844D01*
Y5182980D01*
X7851680D01*
Y5183562D01*
X7849354D01*
Y5184143D01*
X7847609D01*
Y5184725D01*
X7846446D01*
Y5185307D01*
X7845864D01*
Y5185888D01*
X7844701D01*
Y5186470D01*
X7844119D01*
Y5187051D01*
X7843538D01*
Y5187633D01*
X7842956D01*
Y5188215D01*
X7842374D01*
Y5189378D01*
X7841211D01*
Y5190541D01*
X7840630D01*
Y5191123D01*
X7840048D01*
Y5192286D01*
X7839466D01*
Y5193449D01*
X7838885D01*
Y5194031D01*
X7838303D01*
Y5195194D01*
X7837722D01*
Y5196939D01*
X7837140D01*
Y5198102D01*
X7836558D01*
Y5199265D01*
X7835977D01*
Y5201010D01*
X7835395D01*
Y5202173D01*
X7834814D01*
Y5204500D01*
X7834232D01*
Y5205663D01*
X7833650D01*
Y5207989D01*
X7833069D01*
Y5210316D01*
X7832487D01*
Y5212642D01*
X7831906D01*
Y5214969D01*
X7831324D01*
Y5217877D01*
X7830742D01*
Y5221948D01*
X7830161D01*
Y5226019D01*
X7829579D01*
Y5231254D01*
X7828998D01*
Y5238815D01*
X7828416D01*
Y5249865D01*
X7828998D01*
Y5255681D01*
X7829579D01*
Y5259171D01*
X7830161D01*
Y5260334D01*
X7830742D01*
Y5262079D01*
X7831324D01*
Y5263824D01*
X7831906D01*
Y5264987D01*
X7832487D01*
Y5265569D01*
X7833069D01*
Y5266732D01*
X7833650D01*
Y5267314D01*
X7834232D01*
Y5268477D01*
X7834814D01*
Y5269058D01*
X7835395D01*
Y5269640D01*
X7835977D01*
Y5270222D01*
X7836558D01*
Y5270803D01*
X7837140D01*
Y5271385D01*
X7837722D01*
Y5271966D01*
X7838885D01*
Y5272548D01*
X7839466D01*
Y5273130D01*
X7840630D01*
Y5273711D01*
X7841211D01*
Y5274293D01*
X7842374D01*
Y5274874D01*
X7844119D01*
Y5275456D01*
X7845864D01*
Y5276038D01*
X7848772D01*
Y5276619D01*
X7856333D01*
Y5276038D01*
D02*
G37*
G36*
X9347267Y5371725D02*
X9278135D01*
Y5181979D01*
X9200177D01*
Y5371725D01*
X9132516D01*
Y5387905D01*
Y5389376D01*
Y5440857D01*
X9347267D01*
Y5371725D01*
D02*
G37*
G36*
X9114865Y5345249D02*
Y5343778D01*
Y5181979D01*
X8919235D01*
Y5249640D01*
X9035436D01*
Y5251111D01*
X9036907D01*
Y5277587D01*
X8922177D01*
Y5346720D01*
X9036907D01*
Y5371725D01*
X8919235D01*
Y5440857D01*
X9114865D01*
Y5345249D01*
D02*
G37*
G36*
X8067458Y5279527D02*
X8068039D01*
Y5276038D01*
X8068621D01*
Y5264987D01*
X8068039D01*
Y5261497D01*
X8067458D01*
Y5259171D01*
X8066876D01*
Y5256845D01*
X8066294D01*
Y5254518D01*
X8065713D01*
Y5253355D01*
X8065131D01*
Y5251610D01*
X8064550D01*
Y5250447D01*
X8063968D01*
Y5249284D01*
X8063386D01*
Y5247539D01*
X8062805D01*
Y5246376D01*
X8062223D01*
Y5245212D01*
X8061641D01*
Y5244049D01*
X8061060D01*
Y5242886D01*
X8060478D01*
Y5241723D01*
X8059897D01*
Y5240559D01*
X8059315D01*
Y5239978D01*
X8058733D01*
Y5238815D01*
X8058152D01*
Y5237651D01*
X8057570D01*
Y5236488D01*
X8056989D01*
Y5235907D01*
X8056407D01*
Y5234162D01*
X8055825D01*
Y5233580D01*
X8055244D01*
Y5232417D01*
X8054662D01*
Y5231254D01*
X8054081D01*
Y5230091D01*
X8053499D01*
Y5228927D01*
X8052917D01*
Y5228346D01*
X8052336D01*
Y5227183D01*
X8051754D01*
Y5226019D01*
X8051173D01*
Y5224856D01*
X8050591D01*
Y5223693D01*
X8050009D01*
Y5223111D01*
X8049428D01*
Y5221366D01*
X8048846D01*
Y5220203D01*
X8048265D01*
Y5219040D01*
X8047683D01*
Y5217877D01*
X8047101D01*
Y5216713D01*
X8046520D01*
Y5215550D01*
X8045938D01*
Y5213805D01*
X8045357D01*
Y5212642D01*
X8044775D01*
Y5210897D01*
X8044193D01*
Y5209734D01*
X8043612D01*
Y5207989D01*
X8043030D01*
Y5206826D01*
X8042448D01*
Y5205081D01*
X8041867D01*
Y5203337D01*
X8041285D01*
Y5201010D01*
X8040704D01*
Y5198684D01*
X8040122D01*
Y5196939D01*
X8039540D01*
Y5195194D01*
X8038959D01*
Y5192286D01*
X8038377D01*
Y5189378D01*
X8037795D01*
Y5185307D01*
X8037214D01*
Y5180072D01*
X8036632D01*
Y5169021D01*
X8037214D01*
Y5163787D01*
X8037795D01*
Y5160297D01*
X8038377D01*
Y5156808D01*
X8038959D01*
Y5152155D01*
X8039540D01*
Y5147502D01*
X8040122D01*
Y5138196D01*
X8039540D01*
Y5135288D01*
X8038959D01*
Y5133543D01*
X8038377D01*
Y5131798D01*
X8037795D01*
Y5130635D01*
X8037214D01*
Y5129472D01*
X8036632D01*
Y5128890D01*
X8036051D01*
Y5127727D01*
X8035469D01*
Y5127145D01*
X8034887D01*
Y5126564D01*
X8034306D01*
Y5125982D01*
X8033143D01*
Y5125401D01*
X8031979D01*
Y5124819D01*
X8031398D01*
Y5130635D01*
X8030816D01*
Y5138196D01*
X8030235D01*
Y5145175D01*
X8029653D01*
Y5152155D01*
X8029071D01*
Y5160879D01*
X8028490D01*
Y5189959D01*
X8029071D01*
Y5196357D01*
X8029653D01*
Y5200429D01*
X8030235D01*
Y5203918D01*
X8030816D01*
Y5207408D01*
X8031398D01*
Y5210316D01*
X8031979D01*
Y5212642D01*
X8032561D01*
Y5214387D01*
X8033143D01*
Y5216713D01*
X8033724D01*
Y5218458D01*
X8034306D01*
Y5220203D01*
X8034887D01*
Y5221366D01*
X8035469D01*
Y5222530D01*
X8036051D01*
Y5224275D01*
X8036632D01*
Y5225438D01*
X8037214D01*
Y5226601D01*
X8037795D01*
Y5227764D01*
X8038377D01*
Y5228927D01*
X8038959D01*
Y5229509D01*
X8039540D01*
Y5230091D01*
Y5230672D01*
X8040122D01*
Y5231835D01*
X8040704D01*
Y5232999D01*
X8041285D01*
Y5233580D01*
X8041867D01*
Y5234743D01*
X8042448D01*
Y5235907D01*
X8043030D01*
Y5236488D01*
X8043612D01*
Y5237651D01*
X8044193D01*
Y5238233D01*
X8044775D01*
Y5239396D01*
X8045357D01*
Y5239978D01*
X8045938D01*
Y5240559D01*
X8046520D01*
Y5241723D01*
X8047101D01*
Y5242886D01*
X8047683D01*
Y5243468D01*
X8048265D01*
Y5244049D01*
X8048846D01*
Y5245212D01*
X8049428D01*
Y5246376D01*
X8050009D01*
Y5246957D01*
X8050591D01*
Y5248120D01*
X8051173D01*
Y5248702D01*
X8051754D01*
Y5249865D01*
X8052336D01*
Y5250447D01*
X8052917D01*
Y5251610D01*
X8053499D01*
Y5252192D01*
X8054081D01*
Y5253355D01*
X8054662D01*
Y5254518D01*
X8055244D01*
Y5255100D01*
X8055825D01*
Y5256263D01*
X8056407D01*
Y5257426D01*
X8056989D01*
Y5258008D01*
X8057570D01*
Y5259171D01*
X8058152D01*
Y5260334D01*
X8058733D01*
Y5261497D01*
X8059315D01*
Y5262661D01*
X8059897D01*
Y5263824D01*
X8060478D01*
Y5265569D01*
X8061060D01*
Y5267314D01*
X8061641D01*
Y5268477D01*
X8062223D01*
Y5270222D01*
X8062805D01*
Y5271966D01*
X8063386D01*
Y5273711D01*
X8063968D01*
Y5275456D01*
X8064550D01*
Y5276619D01*
X8065131D01*
Y5278364D01*
X8065713D01*
Y5279527D01*
X8066294D01*
Y5280690D01*
X8066876D01*
Y5281272D01*
X8067458D01*
Y5279527D01*
D02*
G37*
G36*
X8047101Y5287088D02*
X8050009D01*
Y5286507D01*
X8051754D01*
Y5285925D01*
X8052917D01*
Y5285344D01*
X8053499D01*
Y5284762D01*
X8054081D01*
Y5284180D01*
X8055244D01*
Y5283599D01*
X8055825D01*
Y5283017D01*
X8056407D01*
Y5282435D01*
X8056989D01*
Y5281272D01*
X8050591D01*
Y5280690D01*
X8045357D01*
Y5280109D01*
X8041867D01*
Y5279527D01*
X8038959D01*
Y5278946D01*
X8036051D01*
Y5278364D01*
X8034306D01*
Y5277782D01*
X8031979D01*
Y5277201D01*
X8029653D01*
Y5276619D01*
X8028490D01*
Y5276038D01*
X8026163D01*
Y5275456D01*
X8025000D01*
Y5274874D01*
X8023255D01*
Y5274293D01*
X8021510D01*
Y5273711D01*
X8020347D01*
Y5273130D01*
X8019184D01*
Y5272548D01*
X8017439D01*
Y5271966D01*
X8016276D01*
Y5271385D01*
X8015113D01*
Y5270803D01*
X8013949D01*
Y5270222D01*
X8012786D01*
Y5269640D01*
X8011623D01*
Y5269058D01*
X8010460D01*
Y5268477D01*
X8009297D01*
Y5267895D01*
X8008133D01*
Y5267314D01*
X8007552D01*
Y5266732D01*
X8006389D01*
Y5266150D01*
X8005225D01*
Y5265569D01*
X8004062D01*
Y5264987D01*
X8003481D01*
Y5264406D01*
X8002317D01*
Y5263824D01*
X8001736D01*
Y5263242D01*
X8000573D01*
Y5262661D01*
X7999991D01*
Y5262079D01*
X7998828D01*
Y5261497D01*
X7998246D01*
Y5260916D01*
X7997083D01*
Y5260334D01*
X7996501D01*
Y5259753D01*
X7995919D01*
Y5259171D01*
X7994756D01*
Y5258589D01*
X7994175D01*
Y5258008D01*
X7993593D01*
Y5257426D01*
X7993011D01*
Y5256845D01*
X7991848D01*
Y5256263D01*
X7991267D01*
Y5255681D01*
X7990685D01*
Y5255100D01*
X7990103D01*
Y5254518D01*
X7988940D01*
Y5253355D01*
X7987777D01*
Y5252192D01*
X7986614D01*
Y5251028D01*
X7985451D01*
Y5249865D01*
X7984287D01*
Y5249284D01*
X7983706D01*
Y5248702D01*
X7983124D01*
Y5248120D01*
X7982543D01*
Y5247539D01*
X7981961D01*
Y5246376D01*
X7980798D01*
Y5245212D01*
X7980216D01*
Y5244631D01*
X7979635D01*
Y5244049D01*
X7979053D01*
Y5243468D01*
X7978471D01*
Y5242886D01*
X7977890D01*
Y5242304D01*
X7977308D01*
Y5241141D01*
X7976726D01*
Y5240559D01*
X7976145D01*
Y5239978D01*
X7975563D01*
Y5238815D01*
X7974982D01*
Y5238233D01*
X7974400D01*
Y5237651D01*
X7973818D01*
Y5237070D01*
X7973237D01*
Y5235907D01*
X7972655D01*
Y5234743D01*
X7972073D01*
Y5234162D01*
X7971492D01*
Y5232999D01*
X7970910D01*
Y5232417D01*
X7970329D01*
Y5231254D01*
X7969747D01*
Y5230091D01*
X7969165D01*
Y5229509D01*
X7968584D01*
Y5228346D01*
X7968002D01*
Y5227183D01*
X7967421D01*
Y5226019D01*
X7966839D01*
Y5224856D01*
X7966257D01*
Y5223693D01*
X7965676D01*
Y5222530D01*
X7965094D01*
Y5220785D01*
X7964513D01*
Y5219622D01*
X7963931D01*
Y5218458D01*
X7963349D01*
Y5216713D01*
X7962768D01*
Y5214387D01*
X7962186D01*
Y5212642D01*
X7961605D01*
Y5210897D01*
X7961023D01*
Y5207989D01*
X7960441D01*
Y5205663D01*
X7959860D01*
Y5201592D01*
X7959278D01*
Y5196939D01*
X7958697D01*
Y5180072D01*
X7959278D01*
Y5174838D01*
X7959860D01*
Y5170766D01*
X7960441D01*
Y5167858D01*
X7961023D01*
Y5164369D01*
X7961605D01*
Y5162042D01*
X7962186D01*
Y5159716D01*
X7962768D01*
Y5157971D01*
X7963349D01*
Y5155645D01*
X7963931D01*
Y5153900D01*
X7964513D01*
Y5152155D01*
X7965094D01*
Y5149828D01*
X7965676D01*
Y5147502D01*
X7966257D01*
Y5145757D01*
X7966839D01*
Y5144594D01*
X7967421D01*
Y5142849D01*
X7968002D01*
Y5141104D01*
X7968584D01*
Y5139359D01*
X7969165D01*
Y5137615D01*
X7969747D01*
Y5135870D01*
X7970329D01*
Y5134707D01*
X7970910D01*
Y5132962D01*
X7971492D01*
Y5131217D01*
X7972073D01*
Y5130054D01*
X7972655D01*
Y5128890D01*
X7973237D01*
Y5127727D01*
X7973818D01*
Y5126564D01*
X7974400D01*
Y5125401D01*
X7974982D01*
Y5124237D01*
X7975563D01*
Y5122493D01*
X7976145D01*
Y5121329D01*
X7976726D01*
Y5120748D01*
X7977308D01*
Y5119585D01*
X7977890D01*
Y5118421D01*
X7978471D01*
Y5117840D01*
X7979053D01*
Y5116677D01*
X7979635D01*
Y5115513D01*
X7980216D01*
Y5114932D01*
X7980798D01*
Y5113769D01*
X7981379D01*
Y5113187D01*
X7981961D01*
Y5112024D01*
X7982543D01*
Y5111442D01*
X7983124D01*
Y5110860D01*
X7983706D01*
Y5110279D01*
X7984287D01*
Y5109116D01*
X7984869D01*
Y5108534D01*
X7985451D01*
Y5107952D01*
X7986032D01*
Y5107371D01*
X7986614D01*
Y5106789D01*
X7987195D01*
Y5106208D01*
X7987777D01*
Y5105626D01*
X7988359D01*
Y5105044D01*
X7988940D01*
Y5104463D01*
X7990103D01*
Y5103881D01*
X7990685D01*
Y5103300D01*
X7991267D01*
Y5102718D01*
X7991848D01*
Y5102136D01*
X7993011D01*
Y5101555D01*
X7993593D01*
Y5100973D01*
X7994756D01*
Y5100392D01*
X7995338D01*
Y5099810D01*
X7996501D01*
Y5099228D01*
X7997664D01*
Y5098647D01*
X7999409D01*
Y5098065D01*
X8000573D01*
Y5097484D01*
X8002317D01*
Y5096902D01*
X8005225D01*
Y5096320D01*
X8011623D01*
Y5096902D01*
X8012786D01*
Y5097484D01*
X8014531D01*
Y5098065D01*
X8015694D01*
Y5098647D01*
X8016857D01*
Y5099228D01*
X8017439D01*
Y5099810D01*
X8018602D01*
Y5100392D01*
X8019184D01*
Y5100973D01*
X8020347D01*
Y5101555D01*
X8020929D01*
Y5102136D01*
X8021510D01*
Y5102718D01*
X8022092D01*
Y5103300D01*
X8023255D01*
Y5103881D01*
X8023837D01*
Y5104463D01*
X8024419D01*
Y5105044D01*
X8025000D01*
Y5105626D01*
X8026163D01*
Y5106208D01*
X8026745D01*
Y5106789D01*
X8027327D01*
Y5107371D01*
X8027908D01*
Y5107952D01*
X8028490D01*
Y5108534D01*
X8029653D01*
Y5109116D01*
X8030235D01*
Y5109697D01*
X8030816D01*
Y5110279D01*
X8031979D01*
Y5110860D01*
X8032561D01*
Y5111442D01*
X8033143D01*
Y5112024D01*
X8034306D01*
Y5112605D01*
X8035469D01*
Y5113187D01*
X8037214D01*
Y5113769D01*
X8038377D01*
Y5114350D01*
X8039540D01*
Y5113187D01*
X8038959D01*
Y5112024D01*
X8038377D01*
Y5111442D01*
X8037795D01*
Y5110279D01*
X8037214D01*
Y5109116D01*
X8036632D01*
Y5108534D01*
X8036051D01*
Y5107371D01*
X8035469D01*
Y5106208D01*
X8034887D01*
Y5105626D01*
X8034306D01*
Y5104463D01*
X8033724D01*
Y5103881D01*
X8033143D01*
Y5102718D01*
X8032561D01*
Y5102136D01*
X8031979D01*
Y5100973D01*
X8031398D01*
Y5100392D01*
X8030816D01*
Y5099810D01*
X8030235D01*
Y5098647D01*
X8029653D01*
Y5098065D01*
X8029071D01*
Y5097484D01*
X8028490D01*
Y5096320D01*
X8027327D01*
Y5095157D01*
X8026745D01*
Y5094576D01*
X8026163D01*
Y5093994D01*
X8025000D01*
Y5092831D01*
X8023837D01*
Y5092249D01*
X8023255D01*
Y5091667D01*
X8022674D01*
Y5091086D01*
X8022092D01*
Y5090504D01*
X8020929D01*
Y5089923D01*
X8020347D01*
Y5089341D01*
X8019184D01*
Y5088759D01*
X8018021D01*
Y5088178D01*
X8016857D01*
Y5087596D01*
X8015694D01*
Y5087014D01*
X8013949D01*
Y5086433D01*
X8011623D01*
Y5085851D01*
X8007552D01*
Y5085270D01*
X8005225D01*
Y5085851D01*
X8000573D01*
Y5086433D01*
X7998828D01*
Y5087014D01*
X7997083D01*
Y5087596D01*
X7995919D01*
Y5088178D01*
X7994756D01*
Y5088759D01*
X7993593D01*
Y5089341D01*
X7992430D01*
Y5089923D01*
X7991267D01*
Y5090504D01*
X7990685D01*
Y5091086D01*
X7990103D01*
Y5091667D01*
X7988940D01*
Y5092249D01*
X7988359D01*
Y5092831D01*
X7987777D01*
Y5093412D01*
X7986614D01*
Y5093994D01*
X7986032D01*
Y5094576D01*
X7985451D01*
Y5095157D01*
X7984869D01*
Y5095739D01*
X7984287D01*
Y5096320D01*
X7983124D01*
Y5097484D01*
X7981961D01*
Y5098647D01*
X7981379D01*
Y5099228D01*
X7980798D01*
Y5099810D01*
X7980216D01*
Y5100392D01*
X7979635D01*
Y5100973D01*
X7979053D01*
Y5101555D01*
X7978471D01*
Y5102718D01*
X7977308D01*
Y5103881D01*
X7976726D01*
Y5104463D01*
X7976145D01*
Y5105626D01*
X7975563D01*
Y5106208D01*
X7974982D01*
Y5106789D01*
X7974400D01*
Y5107952D01*
X7973818D01*
Y5108534D01*
X7973237D01*
Y5109116D01*
X7972655D01*
Y5110279D01*
X7972073D01*
Y5111442D01*
X7971492D01*
Y5112024D01*
X7970910D01*
Y5113187D01*
X7970329D01*
Y5113769D01*
X7969747D01*
Y5114932D01*
X7969165D01*
Y5116095D01*
X7968584D01*
Y5117258D01*
X7968002D01*
Y5118421D01*
X7967421D01*
Y5119585D01*
X7966839D01*
Y5120748D01*
X7966257D01*
Y5121911D01*
X7965676D01*
Y5123074D01*
X7965094D01*
Y5124237D01*
X7964513D01*
Y5125982D01*
X7963931D01*
Y5127145D01*
X7963349D01*
Y5128890D01*
X7962768D01*
Y5129472D01*
Y5130054D01*
X7962186D01*
Y5131798D01*
X7961605D01*
Y5132962D01*
X7961023D01*
Y5134707D01*
X7960441D01*
Y5136451D01*
X7959860D01*
Y5138196D01*
X7959278D01*
Y5139941D01*
X7958697D01*
Y5141686D01*
X7958115D01*
Y5143431D01*
X7957533D01*
Y5145175D01*
X7956952D01*
Y5147502D01*
X7956370D01*
Y5149247D01*
X7955789D01*
Y5151573D01*
X7955207D01*
Y5153900D01*
X7954625D01*
Y5155645D01*
X7954044D01*
Y5158553D01*
X7953462D01*
Y5161461D01*
X7952880D01*
Y5164369D01*
X7952299D01*
Y5167858D01*
X7951717D01*
Y5171348D01*
X7951135D01*
Y5176582D01*
X7950554D01*
Y5184725D01*
X7949972D01*
Y5195775D01*
X7950554D01*
Y5203337D01*
X7951135D01*
Y5207989D01*
X7951717D01*
Y5210897D01*
X7952299D01*
Y5213805D01*
X7952880D01*
Y5215550D01*
X7953462D01*
Y5218458D01*
X7954044D01*
Y5220785D01*
X7954625D01*
Y5221948D01*
X7955207D01*
Y5224275D01*
X7955789D01*
Y5225438D01*
X7956370D01*
Y5227183D01*
X7956952D01*
Y5228927D01*
X7957533D01*
Y5230091D01*
X7958115D01*
Y5231254D01*
X7958697D01*
Y5232999D01*
X7959278D01*
Y5234162D01*
X7959860D01*
Y5234743D01*
X7960441D01*
Y5236488D01*
X7961023D01*
Y5237651D01*
X7961605D01*
Y5238233D01*
X7962186D01*
Y5239396D01*
X7962768D01*
Y5240559D01*
X7963349D01*
Y5241723D01*
X7963931D01*
Y5242304D01*
X7964513D01*
Y5243468D01*
X7965094D01*
Y5244049D01*
X7965676D01*
Y5245212D01*
X7966257D01*
Y5245794D01*
X7966839D01*
Y5246957D01*
X7967421D01*
Y5247539D01*
X7968002D01*
Y5248702D01*
X7968584D01*
Y5249284D01*
X7969165D01*
Y5249865D01*
X7969747D01*
Y5250447D01*
X7970329D01*
Y5251610D01*
X7970910D01*
Y5252192D01*
X7971492D01*
Y5252773D01*
X7972073D01*
Y5253355D01*
X7972655D01*
Y5254518D01*
X7973237D01*
Y5255100D01*
X7973818D01*
Y5255681D01*
X7974400D01*
Y5256263D01*
X7974982D01*
Y5256845D01*
X7975563D01*
Y5257426D01*
X7976145D01*
Y5258008D01*
X7976726D01*
Y5258589D01*
X7977308D01*
Y5259171D01*
X7977890D01*
Y5259753D01*
X7978471D01*
Y5260334D01*
X7979053D01*
Y5260916D01*
X7979635D01*
Y5261497D01*
X7980216D01*
Y5262079D01*
X7980798D01*
Y5262661D01*
X7981961D01*
Y5263824D01*
X7983124D01*
Y5264406D01*
X7983706D01*
Y5264987D01*
X7984287D01*
Y5265569D01*
X7984869D01*
Y5266150D01*
X7986032D01*
Y5266732D01*
X7986614D01*
Y5267314D01*
X7987195D01*
Y5267895D01*
X7987777D01*
Y5268477D01*
X7988940D01*
Y5269058D01*
X7989522D01*
Y5269640D01*
X7990685D01*
Y5270222D01*
X7991267D01*
Y5270803D01*
X7992430D01*
Y5271385D01*
X7993011D01*
Y5271966D01*
X7994175D01*
Y5272548D01*
X7994756D01*
Y5273130D01*
X7995919D01*
Y5273711D01*
X7996501D01*
Y5274293D01*
X7997664D01*
Y5274874D01*
X7998246D01*
Y5275456D01*
X7999409D01*
Y5276038D01*
X8000573D01*
Y5276619D01*
X8001736D01*
Y5277201D01*
X8002317D01*
Y5277782D01*
X8004062D01*
Y5278364D01*
X8005225D01*
Y5278946D01*
X8005807D01*
Y5279527D01*
X8006970D01*
Y5280109D01*
X8008715D01*
Y5280690D01*
X8009878D01*
Y5281272D01*
X8011041D01*
Y5281854D01*
X8012205D01*
Y5282435D01*
X8013949D01*
Y5283017D01*
X8015694D01*
Y5283599D01*
X8017439D01*
Y5284180D01*
X8019184D01*
Y5284762D01*
X8021510D01*
Y5285344D01*
X8023837D01*
Y5285925D01*
X8026163D01*
Y5286507D01*
X8029653D01*
Y5287088D01*
X8034306D01*
Y5287670D01*
X8047101D01*
Y5287088D01*
D02*
G37*
G36*
X8040704Y5090504D02*
X8040122D01*
Y5088178D01*
X8039540D01*
Y5086433D01*
X8038959D01*
Y5085270D01*
X8038377D01*
Y5083525D01*
X8037795D01*
Y5082362D01*
X8037214D01*
Y5081780D01*
X8036632D01*
Y5080617D01*
X8036051D01*
Y5080035D01*
X8035469D01*
Y5078872D01*
X8034887D01*
Y5078290D01*
X8034306D01*
Y5077709D01*
X8033724D01*
Y5077127D01*
X8033143D01*
Y5076546D01*
X8031979D01*
Y5075964D01*
X8031398D01*
Y5075382D01*
X8030816D01*
Y5074801D01*
X8029653D01*
Y5074219D01*
X8028490D01*
Y5073638D01*
X8027327D01*
Y5073056D01*
X8026163D01*
Y5072474D01*
X8024419D01*
Y5071893D01*
X8022674D01*
Y5071311D01*
X8020347D01*
Y5070730D01*
X8015694D01*
Y5070148D01*
X8003481D01*
Y5070730D01*
X7995919D01*
Y5071311D01*
X7991267D01*
Y5071893D01*
X7984869D01*
Y5072474D01*
X7968002D01*
Y5071893D01*
X7965094D01*
Y5071311D01*
X7963349D01*
Y5070730D01*
X7962186D01*
Y5070148D01*
X7960441D01*
Y5069566D01*
X7959278D01*
Y5068985D01*
X7958697D01*
Y5068403D01*
X7956952D01*
Y5067821D01*
X7956370D01*
Y5067240D01*
X7955207D01*
Y5066658D01*
X7954625D01*
Y5066076D01*
X7954044D01*
Y5065495D01*
X7952880D01*
Y5064913D01*
X7952299D01*
Y5064332D01*
X7951717D01*
Y5063750D01*
X7951135D01*
Y5063168D01*
X7950554D01*
Y5062587D01*
X7949972D01*
Y5062005D01*
X7949391D01*
Y5060842D01*
X7948809D01*
Y5060260D01*
X7948227D01*
Y5059097D01*
X7947646D01*
Y5058516D01*
X7947064D01*
Y5057352D01*
X7946483D01*
Y5056189D01*
X7945901D01*
Y5054444D01*
X7945319D01*
Y5052118D01*
X7944738D01*
Y5047465D01*
X7945319D01*
Y5044557D01*
X7945901D01*
Y5042812D01*
X7946483D01*
Y5041649D01*
X7947064D01*
Y5040486D01*
X7947646D01*
Y5039322D01*
X7948227D01*
Y5038741D01*
X7948809D01*
Y5037578D01*
X7949391D01*
Y5036414D01*
X7949972D01*
Y5035833D01*
X7950554D01*
Y5034670D01*
X7951135D01*
Y5033506D01*
X7951717D01*
Y5032343D01*
X7952299D01*
Y5031180D01*
X7952880D01*
Y5029435D01*
X7952299D01*
Y5030017D01*
X7949972D01*
Y5030598D01*
X7948227D01*
Y5031180D01*
X7947064D01*
Y5031762D01*
X7945901D01*
Y5032343D01*
X7944738D01*
Y5032925D01*
X7944156D01*
Y5033506D01*
X7942993D01*
Y5034088D01*
X7942411D01*
Y5034670D01*
X7941830D01*
Y5035251D01*
X7941248D01*
Y5035833D01*
X7940667D01*
Y5036414D01*
X7940085D01*
Y5037578D01*
X7939503D01*
Y5038159D01*
X7938922D01*
Y5039322D01*
X7938340D01*
Y5040486D01*
X7937759D01*
Y5042230D01*
X7937177D01*
Y5043975D01*
X7936595D01*
Y5046883D01*
X7936014D01*
Y5052700D01*
X7936595D01*
Y5056189D01*
X7937177D01*
Y5059097D01*
X7937759D01*
Y5060260D01*
X7938340D01*
Y5062005D01*
X7938922D01*
Y5063750D01*
X7939503D01*
Y5064332D01*
X7940085D01*
Y5065495D01*
X7940667D01*
Y5066658D01*
X7941248D01*
Y5067240D01*
X7941830D01*
Y5068403D01*
X7942411D01*
Y5068985D01*
X7942993D01*
Y5069566D01*
X7943575D01*
Y5070730D01*
X7944156D01*
Y5071311D01*
X7944738D01*
Y5071893D01*
X7945319D01*
Y5072474D01*
X7945901D01*
Y5073056D01*
X7946483D01*
Y5073638D01*
X7947064D01*
Y5074219D01*
X7947646D01*
Y5074801D01*
X7948227D01*
Y5075382D01*
X7949391D01*
Y5075964D01*
X7949972D01*
Y5076546D01*
X7951135D01*
Y5077127D01*
X7951717D01*
Y5077709D01*
X7952880D01*
Y5078290D01*
X7954044D01*
Y5078872D01*
X7955207D01*
Y5079454D01*
X7956370D01*
Y5080035D01*
X7958115D01*
Y5080617D01*
X7959860D01*
Y5081198D01*
X7961605D01*
Y5081780D01*
X7964513D01*
Y5082362D01*
X7968002D01*
Y5082943D01*
X7984287D01*
Y5082362D01*
X7991848D01*
Y5081780D01*
X7998828D01*
Y5081198D01*
X8013368D01*
Y5081780D01*
X8016276D01*
Y5082362D01*
X8018602D01*
Y5082943D01*
X8020347D01*
Y5083525D01*
X8022092D01*
Y5084106D01*
X8023255D01*
Y5084688D01*
X8024419D01*
Y5085270D01*
X8025582D01*
Y5085851D01*
X8026745D01*
Y5086433D01*
X8027908D01*
Y5087014D01*
X8029653D01*
Y5087596D01*
X8030235D01*
Y5088178D01*
X8031979D01*
Y5088759D01*
X8033143D01*
Y5089341D01*
X8034306D01*
Y5089923D01*
X8035469D01*
Y5090504D01*
X8036632D01*
Y5091086D01*
X8037795D01*
Y5091667D01*
X8040704D01*
Y5090504D01*
D02*
G37*
G36*
X8044775Y5095739D02*
X8046520D01*
Y5095157D01*
X8048265D01*
Y5094576D01*
X8050009D01*
Y5093994D01*
X8051754D01*
Y5093412D01*
X8052917D01*
Y5092831D01*
X8054081D01*
Y5092249D01*
X8055244D01*
Y5091667D01*
X8056407D01*
Y5091086D01*
X8056989D01*
Y5090504D01*
X8058152D01*
Y5089923D01*
X8058733D01*
Y5089341D01*
X8059897D01*
Y5088759D01*
X8060478D01*
Y5088178D01*
X8061060D01*
Y5087596D01*
X8061641D01*
Y5087014D01*
X8062805D01*
Y5085851D01*
X8063386D01*
Y5085270D01*
X8063968D01*
Y5084688D01*
X8064550D01*
Y5084106D01*
X8065131D01*
Y5083525D01*
X8065713D01*
Y5082362D01*
X8066294D01*
Y5081198D01*
X8066876D01*
Y5080617D01*
X8067458D01*
Y5079454D01*
X8068039D01*
Y5077709D01*
X8068621D01*
Y5076546D01*
X8069202D01*
Y5075382D01*
X8069784D01*
Y5073056D01*
X8070366D01*
Y5070730D01*
X8070947D01*
Y5067240D01*
X8071529D01*
Y5059097D01*
X8070947D01*
Y5054444D01*
X8070366D01*
Y5052118D01*
X8069784D01*
Y5049792D01*
X8069202D01*
Y5048628D01*
X8068621D01*
Y5046883D01*
X8068039D01*
Y5045138D01*
X8067458D01*
Y5044557D01*
X8066876D01*
Y5043394D01*
X8066294D01*
Y5042230D01*
X8065713D01*
Y5041067D01*
X8065131D01*
Y5040486D01*
X8064550D01*
Y5039322D01*
X8063968D01*
Y5038741D01*
X8063386D01*
Y5038159D01*
X8062805D01*
Y5036996D01*
X8062223D01*
Y5036414D01*
X8061641D01*
Y5035833D01*
X8061060D01*
Y5035251D01*
X8060478D01*
Y5034670D01*
X8059897D01*
Y5034088D01*
X8059315D01*
Y5033506D01*
X8058733D01*
Y5032925D01*
X8058152D01*
Y5032343D01*
X8057570D01*
Y5031762D01*
X8056407D01*
Y5031180D01*
X8055825D01*
Y5030598D01*
X8054662D01*
Y5030017D01*
X8054081D01*
Y5029435D01*
X8052917D01*
Y5028854D01*
X8051754D01*
Y5028272D01*
X8050009D01*
Y5027690D01*
X8048846D01*
Y5027109D01*
X8047101D01*
Y5026527D01*
X8044775D01*
Y5025945D01*
X8041285D01*
Y5025364D01*
X8033143D01*
Y5025945D01*
X8028490D01*
Y5026527D01*
X8025000D01*
Y5027109D01*
X8022674D01*
Y5027690D01*
X8020347D01*
Y5028272D01*
X8018021D01*
Y5028854D01*
X8015694D01*
Y5029435D01*
X8013368D01*
Y5030017D01*
X8011623D01*
Y5030598D01*
X8008715D01*
Y5031180D01*
X8006970D01*
Y5031762D01*
X8004062D01*
Y5032343D01*
X8000573D01*
Y5032925D01*
X7997083D01*
Y5033506D01*
X7981961D01*
Y5032925D01*
X7977890D01*
Y5032343D01*
X7974982D01*
Y5031762D01*
X7972655D01*
Y5031180D01*
X7970329D01*
Y5030598D01*
X7968002D01*
Y5030017D01*
X7966257D01*
Y5029435D01*
X7965094D01*
Y5028854D01*
X7963349D01*
Y5028272D01*
X7961605D01*
Y5027690D01*
X7960441D01*
Y5028854D01*
X7961023D01*
Y5030017D01*
X7961605D01*
Y5031180D01*
X7962186D01*
Y5032343D01*
X7962768D01*
Y5033506D01*
X7963349D01*
Y5034088D01*
X7963931D01*
Y5034670D01*
X7964513D01*
Y5035833D01*
X7965094D01*
Y5036414D01*
X7965676D01*
Y5036996D01*
X7966257D01*
Y5037578D01*
X7966839D01*
Y5038159D01*
X7967421D01*
Y5038741D01*
X7968002D01*
Y5039322D01*
X7968584D01*
Y5039904D01*
X7969165D01*
Y5040486D01*
X7970329D01*
Y5041067D01*
X7970910D01*
Y5041649D01*
X7972655D01*
Y5042230D01*
X7973818D01*
Y5042812D01*
X7974982D01*
Y5043394D01*
X7977308D01*
Y5043975D01*
X7981961D01*
Y5044557D01*
X7986614D01*
Y5043975D01*
X7991267D01*
Y5043394D01*
X7994756D01*
Y5042812D01*
X7997664D01*
Y5042230D01*
X8000573D01*
Y5041649D01*
X8002317D01*
Y5041067D01*
X8005225D01*
Y5040486D01*
X8007552D01*
Y5039904D01*
X8009878D01*
Y5039322D01*
X8011623D01*
Y5038741D01*
X8014531D01*
Y5038159D01*
X8016276D01*
Y5037578D01*
X8019184D01*
Y5036996D01*
X8022092D01*
Y5036414D01*
X8026163D01*
Y5035833D01*
X8036051D01*
Y5036414D01*
X8038959D01*
Y5036996D01*
X8040704D01*
Y5037578D01*
X8042448D01*
Y5038159D01*
X8043612D01*
Y5038741D01*
X8044775D01*
Y5039322D01*
X8045938D01*
Y5039904D01*
X8046520D01*
Y5040486D01*
X8047683D01*
Y5041067D01*
X8048265D01*
Y5041649D01*
X8048846D01*
Y5042230D01*
X8049428D01*
Y5042812D01*
X8050009D01*
Y5043394D01*
X8050591D01*
Y5043975D01*
X8051173D01*
Y5044557D01*
X8051754D01*
Y5045138D01*
X8052336D01*
Y5046302D01*
X8052917D01*
Y5046883D01*
X8053499D01*
Y5048047D01*
X8054081D01*
Y5048628D01*
X8054662D01*
Y5049792D01*
X8055244D01*
Y5051536D01*
X8055825D01*
Y5052700D01*
X8056407D01*
Y5054444D01*
X8056989D01*
Y5057352D01*
X8057570D01*
Y5062005D01*
X8058152D01*
Y5064332D01*
X8057570D01*
Y5070148D01*
X8056989D01*
Y5073056D01*
X8056407D01*
Y5074801D01*
X8055825D01*
Y5076546D01*
X8055244D01*
Y5077709D01*
X8054662D01*
Y5079454D01*
X8054081D01*
Y5080617D01*
X8053499D01*
Y5081198D01*
X8052917D01*
Y5082362D01*
X8052336D01*
Y5083525D01*
X8051754D01*
Y5084688D01*
X8051173D01*
Y5085270D01*
X8050591D01*
Y5086433D01*
X8050009D01*
Y5087014D01*
X8049428D01*
Y5088178D01*
X8048846D01*
Y5088759D01*
X8048265D01*
Y5089923D01*
X8047683D01*
Y5090504D01*
X8047101D01*
Y5091667D01*
X8046520D01*
Y5092249D01*
X8045938D01*
Y5092831D01*
X8045357D01*
Y5093994D01*
X8044775D01*
Y5094576D01*
X8044193D01*
Y5095739D01*
X8043612D01*
Y5096320D01*
X8044775D01*
Y5095739D01*
D02*
G37*
%LPC*%
G36*
X9033966Y5636487D02*
X9032495D01*
Y5632074D01*
X9031024D01*
Y5627661D01*
X9029553D01*
Y5623249D01*
X9028082D01*
Y5618836D01*
X9026611D01*
Y5612952D01*
X9025140D01*
Y5608540D01*
X9023669D01*
Y5604127D01*
X9022198D01*
Y5599714D01*
X9020727D01*
Y5593831D01*
X9019257D01*
Y5589418D01*
X9017786D01*
Y5585005D01*
X9016315D01*
Y5579122D01*
X9014844D01*
Y5574709D01*
X9013373D01*
Y5570296D01*
X9011902D01*
Y5565884D01*
X9010431D01*
Y5560000D01*
X9008960D01*
Y5554116D01*
X9057500D01*
Y5560000D01*
X9056029D01*
Y5565884D01*
X9054558D01*
Y5570296D01*
X9053087D01*
Y5574709D01*
X9051616D01*
Y5579122D01*
X9050145D01*
Y5585005D01*
X9048675D01*
Y5589418D01*
X9047204D01*
Y5593831D01*
X9045733D01*
Y5599714D01*
X9044262D01*
Y5604127D01*
X9042791D01*
Y5608540D01*
X9041320D01*
Y5612952D01*
X9039849D01*
Y5618836D01*
X9038378D01*
Y5623249D01*
X9036907D01*
Y5627661D01*
X9035436D01*
Y5632074D01*
X9033966D01*
Y5636487D01*
D02*
G37*
%LPD*%
D49*
X7117500Y6453000D02*
G03*
X7117500Y6453000I-12500J0D01*
G01*
D54*
X6850000Y4407500D02*
X6880000Y4377500D01*
X6940000D01*
X6822500Y4207500D02*
X6907500Y4122500D01*
X6950000D01*
X6835000Y4710000D02*
X6917500Y4627500D01*
X6962500D01*
X7485000Y4982500D02*
X7506250Y4961250D01*
X7485000Y4982500D02*
X7530000D01*
X7507500Y4960000D02*
Y4995000D01*
Y4960000D02*
X7530000Y4982500D01*
X7507500Y4995000D02*
Y4997500D01*
Y4995000D02*
Y5642500D01*
X7917500Y4787500D02*
X7932500Y4802500D01*
X7912500Y4787500D02*
X7917500D01*
X7844902D02*
X7912500D01*
X7867500Y4255000D02*
X7955000D01*
X7990000Y4290000D01*
X7887500Y4032500D02*
X7920000Y4065000D01*
X7852500Y4032500D02*
X7887500D01*
X7845000Y3795000D02*
X7872500D01*
X7922500Y3845000D01*
X8142500Y4037500D02*
Y4072500D01*
X8095000Y3990000D02*
X8142500Y4037500D01*
X8095000Y3902500D02*
Y3990000D01*
X10175000Y3925000D02*
Y3952500D01*
X10196250Y3973750D01*
X9417500Y3917500D02*
Y3955000D01*
X9400000Y3972500D02*
X9417500Y3955000D01*
X9607500Y3970000D02*
X9635000Y3942500D01*
X9880000Y3942500D02*
X9900000Y3922500D01*
X9635000Y3942500D02*
X9880000D01*
X9635000D02*
X9655000Y3922500D01*
X6822513Y4314980D02*
X6862500D01*
Y4284990D01*
X6842507Y4294987D01*
X6832510D01*
X6822513Y4284990D01*
Y4264996D01*
X6832510Y4255000D01*
X6852504D01*
X6862500Y4264996D01*
X6802520Y4314980D02*
Y4274993D01*
X6782526Y4255000D01*
X6762533Y4274993D01*
Y4314980D01*
X6795013Y4492483D02*
X6805010Y4502480D01*
X6825004D01*
X6835000Y4492483D01*
Y4452496D01*
X6825004Y4442500D01*
X6805010D01*
X6795013Y4452496D01*
Y4472490D01*
X6815007D01*
X6870013Y4804983D02*
X6880010Y4814980D01*
X6900004D01*
X6910000Y4804983D01*
Y4794987D01*
X6900004Y4784990D01*
X6880010D01*
X6870013Y4774993D01*
Y4764996D01*
X6880010Y4755000D01*
X6900004D01*
X6910000Y4764996D01*
X6810033Y4814980D02*
X6850020D01*
Y4755000D01*
X6810033D01*
X6850020Y4784990D02*
X6830026D01*
X6790039Y4755000D02*
Y4814980D01*
X6760049D01*
X6750052Y4804983D01*
Y4784990D01*
X6760049Y4774993D01*
X6790039D01*
X6770046D02*
X6750052Y4755000D01*
X6730059Y4814980D02*
Y4774993D01*
X6710065Y4755000D01*
X6690072Y4774993D01*
Y4814980D01*
X6640088D02*
X6660081D01*
X6670078Y4804983D01*
Y4764996D01*
X6660081Y4755000D01*
X6640088D01*
X6630091Y4764996D01*
Y4804983D01*
X6640088Y4814980D01*
X7460000Y5632500D02*
Y5672487D01*
X7440007Y5692480D01*
X7420013Y5672487D01*
Y5632500D01*
Y5662490D01*
X7460000D01*
X7400020Y5632500D02*
X7380026D01*
X7390023D01*
Y5692480D01*
X7400020Y5682483D01*
X7310049Y5692480D02*
X7350036D01*
Y5662490D01*
X7330042Y5672487D01*
X7320046D01*
X7310049Y5662490D01*
Y5642496D01*
X7320046Y5632500D01*
X7340039D01*
X7350036Y5642496D01*
X7460000Y5487500D02*
Y5547480D01*
X7430010D01*
X7420013Y5537483D01*
Y5517490D01*
X7430010Y5507493D01*
X7460000D01*
X7400020Y5547480D02*
Y5487500D01*
X7370029D01*
X7360033Y5497496D01*
Y5507493D01*
X7370029Y5517490D01*
X7400020D01*
X7370029D01*
X7360033Y5527487D01*
Y5537483D01*
X7370029Y5547480D01*
X7400020D01*
X7340039Y5537483D02*
X7330042Y5547480D01*
X7310049D01*
X7300052Y5537483D01*
Y5527487D01*
X7310049Y5517490D01*
X7320046D01*
X7310049D01*
X7300052Y5507493D01*
Y5497496D01*
X7310049Y5487500D01*
X7330042D01*
X7340039Y5497496D01*
X7460000Y5022500D02*
Y5082480D01*
X7430010D01*
X7420013Y5072483D01*
Y5052490D01*
X7430010Y5042493D01*
X7460000D01*
X7400020Y5082480D02*
Y5022500D01*
X7370029D01*
X7360033Y5032496D01*
Y5042493D01*
X7370029Y5052490D01*
X7400020D01*
X7370029D01*
X7360033Y5062487D01*
Y5072483D01*
X7370029Y5082480D01*
X7400020D01*
X7340039Y5072483D02*
X7330042Y5082480D01*
X7310049D01*
X7300052Y5072483D01*
Y5062487D01*
X7310049Y5052490D01*
X7300052Y5042493D01*
Y5032496D01*
X7310049Y5022500D01*
X7330042D01*
X7340039Y5032496D01*
Y5042493D01*
X7330042Y5052490D01*
X7340039Y5062487D01*
Y5072483D01*
X7330042Y5052490D02*
X7310049D01*
X7460000Y5132500D02*
Y5192480D01*
X7430010D01*
X7420013Y5182483D01*
Y5162490D01*
X7430010Y5152493D01*
X7460000D01*
X7400020Y5192480D02*
Y5132500D01*
X7370029D01*
X7360033Y5142496D01*
Y5152493D01*
X7370029Y5162490D01*
X7400020D01*
X7370029D01*
X7360033Y5172487D01*
Y5182483D01*
X7370029Y5192480D01*
X7400020D01*
X7300052D02*
X7340039D01*
Y5162490D01*
X7320046Y5172487D01*
X7310049D01*
X7300052Y5162490D01*
Y5142496D01*
X7310049Y5132500D01*
X7330042D01*
X7340039Y5142496D01*
X7460800Y5310800D02*
Y5370780D01*
X7430810D01*
X7420813Y5360783D01*
Y5340790D01*
X7430810Y5330793D01*
X7460800D01*
X7400819Y5370780D02*
Y5310800D01*
X7370829D01*
X7360832Y5320796D01*
Y5330793D01*
X7370829Y5340790D01*
X7400819D01*
X7370829D01*
X7360832Y5350787D01*
Y5360783D01*
X7370829Y5370780D01*
X7400819D01*
X7310848Y5310800D02*
Y5370780D01*
X7340839Y5340790D01*
X7300852D01*
X7957513Y4882483D02*
X7967510Y4892480D01*
X7987504D01*
X7997500Y4882483D01*
Y4842496D01*
X7987504Y4832500D01*
X7967510D01*
X7957513Y4842496D01*
Y4862490D01*
X7977507D01*
X8107513Y4522483D02*
X8117510Y4532480D01*
X8137504D01*
X8147500Y4522483D01*
Y4512487D01*
X8137504Y4502490D01*
X8117510D01*
X8107513Y4492493D01*
Y4482496D01*
X8117510Y4472500D01*
X8137504D01*
X8147500Y4482496D01*
X8087520Y4532480D02*
Y4472500D01*
X8067526Y4492493D01*
X8047533Y4472500D01*
Y4532480D01*
X7987552Y4522483D02*
X7997549Y4532480D01*
X8017543D01*
X8027539Y4522483D01*
Y4482496D01*
X8017543Y4472500D01*
X7997549D01*
X7987552Y4482496D01*
X7967559Y4532480D02*
Y4472500D01*
X7927572D01*
X7907578Y4532480D02*
Y4472500D01*
Y4492493D01*
X7867591Y4532480D01*
X7897581Y4502490D01*
X7867591Y4472500D01*
X8170013Y4379984D02*
X8180010Y4389981D01*
X8200004D01*
X8210000Y4379984D01*
Y4369987D01*
X8200004Y4359990D01*
X8180010D01*
X8170013Y4349994D01*
Y4339997D01*
X8180010Y4330000D01*
X8200004D01*
X8210000Y4339997D01*
X8150020Y4389981D02*
Y4330000D01*
X8130026Y4349994D01*
X8110033Y4330000D01*
Y4389981D01*
X8090039D02*
Y4330000D01*
X8060049D01*
X8050052Y4339997D01*
Y4379984D01*
X8060049Y4389981D01*
X8090039D01*
X8030059D02*
X8010065D01*
X8020062D01*
Y4330000D01*
X8030059D01*
X8010065D01*
X7950085Y4389981D02*
X7970078D01*
X7980075Y4379984D01*
Y4339997D01*
X7970078Y4330000D01*
X7950085D01*
X7940088Y4339997D01*
Y4379984D01*
X7950085Y4389981D01*
X8030940Y4174980D02*
Y4115000D01*
X8000950D01*
X7990953Y4124996D01*
Y4134993D01*
X8000950Y4144990D01*
X8030940D01*
X8000950D01*
X7990953Y4154987D01*
Y4164983D01*
X8000950Y4174980D01*
X8030940D01*
X7940969D02*
X7960963D01*
X7970960Y4164983D01*
Y4124996D01*
X7960963Y4115000D01*
X7940969D01*
X7930973Y4124996D01*
Y4164983D01*
X7940969Y4174980D01*
X7880989D02*
X7900982D01*
X7910979Y4164983D01*
Y4124996D01*
X7900982Y4115000D01*
X7880989D01*
X7870992Y4124996D01*
Y4164983D01*
X7880989Y4174980D01*
X7850999D02*
X7811012D01*
X7831005D01*
Y4115000D01*
X7985000Y3947483D02*
X7975004Y3957480D01*
X7955010D01*
X7945013Y3947483D01*
Y3937487D01*
X7955010Y3927490D01*
X7965007D01*
X7955010D01*
X7945013Y3917493D01*
Y3907496D01*
X7955010Y3897500D01*
X7975004D01*
X7985000Y3907496D01*
X7925020Y3957480D02*
Y3917493D01*
X7905026Y3897500D01*
X7885033Y3917493D01*
Y3957480D01*
X7865039Y3947483D02*
X7855042Y3957480D01*
X7835049D01*
X7825052Y3947483D01*
Y3937487D01*
X7835049Y3927490D01*
X7845046D01*
X7835049D01*
X7825052Y3917493D01*
Y3907496D01*
X7835049Y3897500D01*
X7855042D01*
X7865039Y3907496D01*
X8877069Y3979832D02*
X8891206Y3979832D01*
X8905344Y3965694D01*
Y3951557D01*
X8877069Y3923282D01*
X8862931D01*
X8848794Y3937419D01*
Y3951557D01*
X8862931Y3965694D01*
X8877069Y3951557D01*
X8192069Y4157332D02*
X8206207Y4157332D01*
X8220344Y4143194D01*
Y4129057D01*
X8213275Y4121988D01*
X8199138D01*
X8185000Y4136125D01*
X8170863D01*
X8163794Y4129057D01*
Y4114919D01*
X8177931Y4100781D01*
X8192069D01*
X8185000Y4178538D02*
X8142587Y4136125D01*
X8121381Y4157332D01*
Y4171469D01*
X8149656Y4199744D01*
X8163794Y4199744D01*
X8185000Y4178538D01*
X8100175D02*
X8128450Y4206813D01*
Y4235088D01*
X8100175Y4235088D01*
X8071900Y4206813D01*
X8093106Y4228019D01*
X8121381Y4199744D01*
X8367069Y3979832D02*
X8381207Y3979832D01*
X8395344Y3965694D01*
Y3951557D01*
X8388275Y3944488D01*
X8374138D01*
X8360000Y3958626D01*
X8345863D01*
X8338794Y3951557D01*
Y3937419D01*
X8352931Y3923282D01*
X8367069D01*
X8324656Y4022244D02*
X8338794Y4022245D01*
X8352931Y4008107D01*
Y3993969D01*
X8324656Y3965694D01*
X8310519D01*
X8296381Y3979832D01*
Y3993969D01*
X8317587Y4043451D02*
X8275175Y4001038D01*
X8246900Y4029313D01*
X8652844Y3951557D02*
Y3965694D01*
X8638706Y3979832D01*
X8624569Y3979832D01*
X8617500Y3972763D01*
Y3958626D01*
X8624569Y3951557D01*
X8617500Y3958626D01*
X8603363D01*
X8596293Y3951557D01*
Y3937419D01*
X8610431Y3923282D01*
X8624569D01*
X8617500Y4001038D02*
X8589225Y3972763D01*
X8560950D01*
X8560950Y4001038D01*
X8589225Y4029313D01*
X8568018Y4036382D02*
Y4050520D01*
X8553881Y4064657D01*
X8539743Y4064657D01*
X8532675Y4057588D01*
Y4043451D01*
X8539743Y4036382D01*
X8532675Y4043451D01*
X8518537D01*
X8511468Y4036382D01*
Y4022245D01*
X8525606Y4008107D01*
X8539743D01*
X10281638Y4031900D02*
X10309913Y4003625D01*
X10288706Y3982419D01*
X10281637Y4003625D01*
X10274569Y4010694D01*
X10260431D01*
X10246293Y3996557D01*
Y3982419D01*
X10260431Y3968282D01*
X10274569D01*
X10267500Y4046038D02*
X10239225Y4017763D01*
X10210950D01*
X10210950Y4046038D01*
X10239225Y4074313D01*
X9362069Y4054832D02*
X9376207Y4054832D01*
X9390344Y4040694D01*
Y4026557D01*
X9362069Y3998282D01*
X9347931D01*
X9333794Y4012419D01*
Y4026557D01*
X9347931Y4040694D01*
X9362069Y4026557D01*
X9570000Y3991213D02*
X9612413Y4033625D01*
X9591206Y4054832D01*
X9577069Y4054832D01*
X9562931Y4040694D01*
Y4026557D01*
X9584138Y4005350D01*
X9570000Y4019488D02*
X9541725Y4019488D01*
Y4104313D02*
X9570000Y4076038D01*
X9548793Y4054832D01*
X9534656Y4068969D01*
X9548793Y4054832D01*
X9527587Y4033625D01*
D55*
X7045000Y6506500D02*
X7960000D01*
Y6833000D02*
Y6891000D01*
Y6506500D02*
Y6518000D01*
X7045000Y6833000D02*
Y6891000D01*
Y6506500D02*
Y6518000D01*
X7630000Y6231645D02*
X7596677Y6165000D01*
X7563355Y6231645D01*
X7530032Y6165000D02*
X7496710D01*
X7513371D01*
Y6264968D01*
X7530032Y6248306D01*
X8347500Y6039161D02*
Y6139129D01*
X8297516D01*
X8280855Y6122468D01*
Y6089145D01*
X8297516Y6072484D01*
X8347500D01*
X8314177D02*
X8280855Y6039161D01*
X8247532Y6139129D02*
X8180887Y6039161D01*
Y6139129D02*
X8247532Y6039161D01*
X8147564Y6022500D02*
X8080919D01*
X8047597Y6039161D02*
Y6139129D01*
X7997613D01*
X7980952Y6122468D01*
Y6089145D01*
X7997613Y6072484D01*
X8047597D01*
X7880984Y6122468D02*
X7897645Y6139129D01*
X7930967D01*
X7947629Y6122468D01*
Y6055823D01*
X7930967Y6039161D01*
X7897645D01*
X7880984Y6055823D01*
X7847661Y6139129D02*
Y6039161D01*
X7797677D01*
X7781016Y6055823D01*
Y6072484D01*
X7797677Y6089145D01*
X7847661D01*
X7797677D01*
X7781016Y6105806D01*
Y6122468D01*
X7797677Y6139129D01*
X7847661D01*
X8350000Y6237500D02*
Y6337468D01*
X8300016D01*
X8283355Y6320806D01*
Y6287484D01*
X8300016Y6270822D01*
X8350000D01*
X8316678D02*
X8283355Y6237500D01*
X8183387Y6320806D02*
X8200048Y6337468D01*
X8233371D01*
X8250032Y6320806D01*
Y6254161D01*
X8233371Y6237500D01*
X8200048D01*
X8183387Y6254161D01*
X8150064Y6287484D02*
X8083419D01*
X8050097Y6337468D02*
X7983452Y6237500D01*
Y6337468D02*
X8050097Y6237500D01*
X7950129Y6337468D02*
Y6237500D01*
X7900145D01*
X7883484Y6254161D01*
Y6320806D01*
X7900145Y6337468D01*
X7950129D01*
X9450855Y6022500D02*
X9517500D01*
X9450855Y6089145D01*
Y6105806D01*
X9467516Y6122468D01*
X9500839D01*
X9517500Y6105806D01*
X9417532D02*
X9400871Y6122468D01*
X9367548D01*
X9350887Y6105806D01*
Y6039161D01*
X9367548Y6022500D01*
X9400871D01*
X9417532Y6039161D01*
Y6105806D01*
X9250919Y6022500D02*
X9317564D01*
X9250919Y6089145D01*
Y6105806D01*
X9267580Y6122468D01*
X9300903D01*
X9317564Y6105806D01*
X9150951Y6122468D02*
X9184274Y6105806D01*
X9217596Y6072484D01*
Y6039161D01*
X9200935Y6022500D01*
X9167613D01*
X9150951Y6039161D01*
Y6055823D01*
X9167613Y6072484D01*
X9217596D01*
X9117629D02*
X9050984D01*
X9017661Y6105806D02*
X9001000Y6122468D01*
X8967677D01*
X8951016Y6105806D01*
Y6039161D01*
X8967677Y6022500D01*
X9001000D01*
X9017661Y6039161D01*
Y6105806D01*
X8917693D02*
X8901032Y6122468D01*
X8867709D01*
X8851048Y6105806D01*
Y6089145D01*
X8867709Y6072484D01*
X8884371D01*
X8867709D01*
X8851048Y6055823D01*
Y6039161D01*
X8867709Y6022500D01*
X8901032D01*
X8917693Y6039161D01*
X8817725Y6072484D02*
X8751080D01*
X8717758Y6105806D02*
X8701096Y6122468D01*
X8667774D01*
X8651112Y6105806D01*
Y6039161D01*
X8667774Y6022500D01*
X8701096D01*
X8717758Y6039161D01*
Y6105806D01*
X8617790D02*
X8601128Y6122468D01*
X8567806D01*
X8551145Y6105806D01*
Y6089145D01*
X8567806Y6072484D01*
X8551145Y6055823D01*
Y6039161D01*
X8567806Y6022500D01*
X8601128D01*
X8617790Y6039161D01*
Y6055823D01*
X8601128Y6072484D01*
X8617790Y6089145D01*
Y6105806D01*
X8601128Y6072484D02*
X8567806D01*
X9517500Y6237500D02*
Y6337468D01*
X9467516D01*
X9450855Y6320806D01*
Y6287484D01*
X9467516Y6270822D01*
X9517500D01*
X9484177D02*
X9450855Y6237500D01*
X9400871D02*
X9367548D01*
X9350887Y6254161D01*
Y6287484D01*
X9367548Y6304145D01*
X9400871D01*
X9417532Y6287484D01*
Y6254161D01*
X9400871Y6237500D01*
X9317564Y6337468D02*
Y6237500D01*
X9267580D01*
X9250919Y6254161D01*
Y6270822D01*
Y6287484D01*
X9267580Y6304145D01*
X9317564D01*
X9217596Y6237500D02*
X9184274D01*
X9200935D01*
Y6304145D01*
X9217596D01*
X9134290Y6237500D02*
Y6304145D01*
X9084306D01*
X9067645Y6287484D01*
Y6237500D01*
X8934354D02*
Y6337468D01*
X8901032Y6304145D01*
X8867709Y6337468D01*
Y6237500D01*
X8817725Y6304145D02*
X8784403D01*
X8767742Y6287484D01*
Y6237500D01*
X8817725D01*
X8834387Y6254161D01*
X8817725Y6270822D01*
X8767742D01*
X8667774Y6337468D02*
Y6237500D01*
X8717758D01*
X8734419Y6254161D01*
Y6287484D01*
X8717758Y6304145D01*
X8667774D01*
X8617790D02*
X8584467D01*
X8567806Y6287484D01*
Y6237500D01*
X8617790D01*
X8634451Y6254161D01*
X8617790Y6270822D01*
X8567806D01*
X8534483Y6304145D02*
Y6237500D01*
Y6270822D01*
X8517822Y6287484D01*
X8501161Y6304145D01*
X8484499D01*
%TF.MD5,6628f28f4a587bbaf3cd0c465d0ed362*%
M02*
