%TF.GenerationSoftware,Altium Limited,Altium Designer,26.2.0 (7)*%
G04 Layer_Color=8421504*
%FSLAX45Y45*%
%MOMM*%
%TF.SameCoordinates,00FDB721-44CF-4368-98B2-66699BB62886*%
%TF.FilePolarity,Positive*%
%TF.FileFunction,Paste,Top*%
%TF.Part,Single*%
G01*
G75*
%TA.AperFunction,SMDPad,CuDef*%
%ADD10R,1.40000X0.30000*%
%ADD11R,0.30000X1.40000*%
%ADD12R,0.60000X1.00000*%
%ADD13R,1.00000X0.60000*%
%ADD14R,1.00000X0.40000*%
%ADD15R,2.70000X4.00000*%
%ADD16R,1.70000X0.65000*%
%ADD17R,1.00000X0.70000*%
G04:AMPARAMS|DCode=18|XSize=0.63mm|YSize=0.61mm|CornerRadius=0.14945mm|HoleSize=0mm|Usage=FLASHONLY|Rotation=270.000|XOffset=0mm|YOffset=0mm|HoleType=Round|Shape=RoundedRectangle|*
%AMROUNDEDRECTD18*
21,1,0.63000,0.31110,0,0,270.0*
21,1,0.33110,0.61000,0,0,270.0*
1,1,0.29890,-0.15555,-0.16555*
1,1,0.29890,-0.15555,0.16555*
1,1,0.29890,0.15555,0.16555*
1,1,0.29890,0.15555,-0.16555*
%
%ADD18ROUNDEDRECTD18*%
%ADD20R,1.20000X1.40000*%
%ADD21R,0.65000X0.75000*%
%ADD22R,0.90000X1.60000*%
G04:AMPARAMS|DCode=23|XSize=0.6mm|YSize=1mm|CornerRadius=0mm|HoleSize=0mm|Usage=FLASHONLY|Rotation=225.000|XOffset=0mm|YOffset=0mm|HoleType=Round|Shape=Rectangle|*
%AMROTATEDRECTD23*
4,1,4,-0.14142,0.56569,0.56569,-0.14142,0.14142,-0.56569,-0.56569,0.14142,-0.14142,0.56569,0.0*
%
%ADD23ROTATEDRECTD23*%

%ADD24R,0.60000X1.20000*%
%ADD25R,1.80000X1.15000*%
%ADD26R,1.20000X1.52000*%
G04:AMPARAMS|DCode=27|XSize=0.6mm|YSize=1mm|CornerRadius=0mm|HoleSize=0mm|Usage=FLASHONLY|Rotation=135.000|XOffset=0mm|YOffset=0mm|HoleType=Round|Shape=Rectangle|*
%AMROTATEDRECTD27*
4,1,4,0.56569,0.14142,-0.14142,-0.56569,-0.56569,-0.14142,0.14142,0.56569,0.56569,0.14142,0.0*
%
%ADD27ROTATEDRECTD27*%

%ADD28R,0.80000X0.80000*%
%ADD29R,0.55000X0.60000*%
%ADD30R,1.20000X1.20000*%
%ADD31R,1.22000X1.15000*%
%ADD32R,4.40000X1.50000*%
%ADD33R,1.15000X1.22000*%
G36*
X8367500Y4027500D02*
Y3967500D01*
X8302500D01*
Y4042500D01*
X8352500D01*
X8367500Y4027500D01*
D02*
G37*
D10*
X8925000Y4465000D02*
D03*
X8075000Y4715000D02*
D03*
Y4615000D02*
D03*
Y5015000D02*
D03*
Y4915001D02*
D03*
Y4965000D02*
D03*
Y4865000D02*
D03*
Y4565001D02*
D03*
Y4665001D02*
D03*
Y4765000D02*
D03*
Y4815001D02*
D03*
Y4465000D02*
D03*
X8925000Y4815001D02*
D03*
Y5015000D02*
D03*
Y4765000D02*
D03*
Y4715000D02*
D03*
Y4665001D02*
D03*
Y4615000D02*
D03*
Y4565001D02*
D03*
Y4865000D02*
D03*
Y4915001D02*
D03*
Y4515000D02*
D03*
Y4965000D02*
D03*
X8075000Y4515000D02*
D03*
D11*
X8475000Y4315000D02*
D03*
X8525000D02*
D03*
X8625000D02*
D03*
X8225000D02*
D03*
X8275000D02*
D03*
X8375000D02*
D03*
X8425000D02*
D03*
X8225000Y5165000D02*
D03*
X8325000D02*
D03*
X8375000D02*
D03*
X8425000D02*
D03*
X8475000D02*
D03*
X8525000D02*
D03*
X8575000D02*
D03*
X8625000D02*
D03*
X8675000D02*
D03*
X8725000D02*
D03*
X8775000D02*
D03*
X8775000Y4315000D02*
D03*
X8725000D02*
D03*
X8675000D02*
D03*
X8325000D02*
D03*
X8275000Y5165000D02*
D03*
X8575000Y4315000D02*
D03*
D12*
X9220000Y4585000D02*
D03*
Y4727500D02*
D03*
X9360000D02*
D03*
Y4585000D02*
D03*
X7372500Y5225000D02*
D03*
X7755000Y5987500D02*
D03*
X7642500D02*
D03*
X7965000Y4355000D02*
D03*
X8682500Y4102500D02*
D03*
X7130000Y6440000D02*
D03*
X7797500Y6842500D02*
D03*
X6787500Y6997500D02*
D03*
X8447500Y5932500D02*
D03*
X8502500Y6410000D02*
D03*
X8900000Y5110000D02*
D03*
X9360000Y5580000D02*
D03*
Y5720000D02*
D03*
X6980000Y5975000D02*
D03*
X8345000Y7087500D02*
D03*
X9400000Y7090000D02*
D03*
X8682500Y3967500D02*
D03*
X10557500Y3677500D02*
D03*
X6927500Y6997500D02*
D03*
X7657500Y6842500D02*
D03*
X7270000Y6440000D02*
D03*
X7502500Y5987500D02*
D03*
X7512500Y5225000D02*
D03*
X7895000Y5987500D02*
D03*
X7172500Y4765000D02*
D03*
X7032500D02*
D03*
X9797500Y5472500D02*
D03*
X9657500D02*
D03*
X9657500Y5615000D02*
D03*
X9797500D02*
D03*
X9657500Y5760000D02*
D03*
X9797500D02*
D03*
X9797500Y5900001D02*
D03*
X9657500D02*
D03*
X9220000Y5012500D02*
D03*
Y4870000D02*
D03*
Y5440000D02*
D03*
X9517500Y7087500D02*
D03*
X9040000Y5110000D02*
D03*
X9260000Y7090000D02*
D03*
X8205000Y7087500D02*
D03*
X8822500Y3967500D02*
D03*
X8927500D02*
D03*
X6840000Y5975000D02*
D03*
X8822500Y4102500D02*
D03*
X8362500Y6410000D02*
D03*
X8587500Y5932500D02*
D03*
X8105000Y4355000D02*
D03*
X9657500Y7087500D02*
D03*
X10417500Y3677500D02*
D03*
X9220000Y5580000D02*
D03*
Y5720000D02*
D03*
X9360000Y4870000D02*
D03*
X9220838Y5154409D02*
D03*
X9220000Y5297500D02*
D03*
X9067500Y3967500D02*
D03*
X9360000Y5297500D02*
D03*
X9360838Y5154409D02*
D03*
X9360000Y5012500D02*
D03*
Y5440000D02*
D03*
D13*
X9092500Y4605000D02*
D03*
Y4762500D02*
D03*
Y4465000D02*
D03*
Y4902500D02*
D03*
X8107500Y5285000D02*
D03*
X7062500Y3692500D02*
D03*
X10495000Y5327500D02*
D03*
X6902500Y4310000D02*
D03*
X7917500Y4020000D02*
D03*
X9227500Y4362500D02*
D03*
X8107500Y5145000D02*
D03*
X7205000Y3832500D02*
D03*
Y3692500D02*
D03*
X7062500Y3832500D02*
D03*
X9227500Y4222500D02*
D03*
X7917500Y3880000D02*
D03*
X7327500Y5490000D02*
D03*
Y5350000D02*
D03*
X9077500Y7010000D02*
D03*
X8947500Y4082500D02*
D03*
X9077500Y6870000D02*
D03*
X6902500Y4170000D02*
D03*
X9170000Y3652500D02*
D03*
Y3792500D02*
D03*
X10495000Y5187500D02*
D03*
X9090000Y4362500D02*
D03*
Y4222500D02*
D03*
X8947500Y4222500D02*
D03*
D14*
X10120000Y4875000D02*
D03*
Y5200000D02*
D03*
Y5135000D02*
D03*
Y5070000D02*
D03*
Y5005000D02*
D03*
X9570000Y5265000D02*
D03*
Y4875000D02*
D03*
Y4940000D02*
D03*
Y5200000D02*
D03*
X10120000Y5265000D02*
D03*
Y4940000D02*
D03*
X9570000Y5005000D02*
D03*
Y5135000D02*
D03*
Y5070000D02*
D03*
X10120000Y4320000D02*
D03*
Y4385000D02*
D03*
Y4515000D02*
D03*
X9570000Y4450000D02*
D03*
Y4190000D02*
D03*
Y4125000D02*
D03*
Y4515000D02*
D03*
X10120000Y4255000D02*
D03*
Y4190000D02*
D03*
Y4450000D02*
D03*
Y4125000D02*
D03*
X9570000Y4385000D02*
D03*
Y4320000D02*
D03*
Y4255000D02*
D03*
D15*
X9845000Y5070000D02*
D03*
Y4320000D02*
D03*
D16*
X8092500Y5449500D02*
D03*
X7502500Y5830500D02*
D03*
Y5703500D02*
D03*
Y5576500D02*
D03*
Y5449500D02*
D03*
X8092500Y5576500D02*
D03*
Y5703500D02*
D03*
Y5830500D02*
D03*
D17*
X8600000Y6170000D02*
D03*
Y6075000D02*
D03*
Y6265000D02*
D03*
X8360000D02*
D03*
Y6075000D02*
D03*
D18*
X8200000Y4022499D02*
D03*
X8560000Y4127500D02*
D03*
Y4022500D02*
D03*
X8200000Y4127500D02*
D03*
D20*
X7897500Y4175000D02*
D03*
X8067500D02*
D03*
D21*
X8435000Y4135000D02*
D03*
Y4005000D02*
D03*
X8335000Y4135000D02*
D03*
D22*
X7735000Y6385000D02*
D03*
X8024999D02*
D03*
D23*
X10466998Y4506998D02*
D03*
X7529498Y6301998D02*
D03*
X7430503Y6203003D02*
D03*
X7389498Y6346997D02*
D03*
X7290503Y6248002D02*
D03*
X10368003Y4408002D02*
D03*
D24*
X9340000Y5895000D02*
D03*
X9245000Y6135000D02*
D03*
Y5895000D02*
D03*
X9435000Y6135000D02*
D03*
Y5895000D02*
D03*
D25*
X9632500Y6420000D02*
D03*
Y6130000D02*
D03*
D26*
X9342500Y6357500D02*
D03*
X8910500D02*
D03*
D27*
X10458995Y4171005D02*
D03*
X10466998Y4938003D02*
D03*
X10368003Y5036998D02*
D03*
X10360000Y4270000D02*
D03*
D28*
X10050000Y5757500D02*
D03*
Y5472500D02*
D03*
Y5615000D02*
D03*
Y5900001D02*
D03*
X9900000D02*
D03*
Y5615000D02*
D03*
Y5472500D02*
D03*
Y5757500D02*
D03*
D29*
X9167500Y3997500D02*
D03*
X9422500D02*
D03*
X9167500Y4116500D02*
D03*
X9422500D02*
D03*
D30*
X7677500Y5257500D02*
D03*
X7937500D02*
D03*
D31*
X6832500Y6720000D02*
D03*
Y6410000D02*
D03*
D32*
X8927500Y6117500D02*
D03*
Y5812500D02*
D03*
D33*
X9000000Y5580000D02*
D03*
X8690000D02*
D03*
%TF.MD5,49cf8c1cdc36632e1fe48650380211dd*%
M02*
