%TF.GenerationSoftware,Altium Limited,Altium Designer,26.2.0 (7)*%
G04 Layer_Color=16711935*
%FSLAX45Y45*%
%MOMM*%
%TF.SameCoordinates,89D92440-2D2D-4804-A2D7-E5BC57F2A4C4*%
%TF.FilePolarity,Negative*%
%TF.FileFunction,Soldermask,Bot*%
%TF.Part,Single*%
G01*
G75*
%TA.AperFunction,ComponentPad*%
%ADD40C,0.65000*%
G04:AMPARAMS|DCode=44|XSize=0.9mm|YSize=2.4mm|CornerRadius=0.45mm|HoleSize=0mm|Usage=FLASHONLY|Rotation=0.000|XOffset=0mm|YOffset=0mm|HoleType=Round|Shape=RoundedRectangle|*
%AMROUNDEDRECTD44*
21,1,0.90000,1.50000,0,0,0.0*
21,1,0.00000,2.40000,0,0,0.0*
1,1,0.90000,0.00000,-0.75000*
1,1,0.90000,0.00000,-0.75000*
1,1,0.90000,0.00000,0.75000*
1,1,0.90000,0.00000,0.75000*
%
%ADD44ROUNDEDRECTD44*%
G04:AMPARAMS|DCode=45|XSize=0.9mm|YSize=1.7mm|CornerRadius=0.45mm|HoleSize=0mm|Usage=FLASHONLY|Rotation=0.000|XOffset=0mm|YOffset=0mm|HoleType=Round|Shape=RoundedRectangle|*
%AMROUNDEDRECTD45*
21,1,0.90000,0.80000,0,0,0.0*
21,1,0.00000,1.70000,0,0,0.0*
1,1,0.90000,0.00000,-0.40000*
1,1,0.90000,0.00000,-0.40000*
1,1,0.90000,0.00000,0.40000*
1,1,0.90000,0.00000,0.40000*
%
%ADD45ROUNDEDRECTD45*%
%ADD78C,3.20320*%
%ADD79C,1.70320*%
%ADD80C,1.40320*%
%ADD81C,1.80320*%
%ADD82C,1.75320*%
%ADD83R,1.75320X1.75320*%
%ADD84R,1.80320X1.80320*%
%TA.AperFunction,WasherPad*%
%ADD85C,0.20320*%
%TA.AperFunction,ComponentPad*%
%ADD86C,0.20320*%
%TA.AperFunction,ViaPad*%
%ADD87C,0.40000*%
D40*
X7205000Y6712500D02*
D03*
Y6577500D02*
D03*
X7800000Y6712500D02*
D03*
Y6577500D02*
D03*
X7460000D02*
D03*
X7545000Y6712500D02*
D03*
Y6577500D02*
D03*
X7460000Y6712500D02*
D03*
X7290000Y6577500D02*
D03*
X7375000D02*
D03*
X7630000D02*
D03*
X7715000D02*
D03*
Y6712500D02*
D03*
X7630000D02*
D03*
X7375000D02*
D03*
X7290000D02*
D03*
D44*
X7070000Y6675500D02*
D03*
X7935000D02*
D03*
D45*
X7070000Y7013500D02*
D03*
X7935000D02*
D03*
D78*
X10480000Y6207500D02*
D03*
Y6707500D02*
D03*
D79*
X10742500Y4037500D02*
D03*
X10742500Y4952500D02*
D03*
X7107500Y4278500D02*
D03*
X8869500Y3772500D02*
D03*
X10742500Y4237500D02*
D03*
Y4437500D02*
D03*
X10942500D02*
D03*
Y4237500D02*
D03*
Y4037500D02*
D03*
X10742500Y5152500D02*
D03*
Y5352500D02*
D03*
X10942500D02*
D03*
Y5152500D02*
D03*
Y4952500D02*
D03*
X7107500Y4532500D02*
D03*
Y4024500D02*
D03*
X8615500Y3772500D02*
D03*
X8361500D02*
D03*
X8107500D02*
D03*
D80*
X7035000Y5610500D02*
D03*
X8331500Y6907500D02*
D03*
X9439500D02*
D03*
X7035000Y5102500D02*
D03*
X9312500Y6653500D02*
D03*
X8204500D02*
D03*
X6781000Y5737500D02*
D03*
Y5483500D02*
D03*
X7035000Y5356500D02*
D03*
X6781000Y5229500D02*
D03*
X9947500Y6907500D02*
D03*
X9820500Y6653500D02*
D03*
X9693500Y6907500D02*
D03*
X9566500Y6653500D02*
D03*
X8458500D02*
D03*
X8585500Y6907500D02*
D03*
X8712500Y6653500D02*
D03*
X8839500Y6907500D02*
D03*
D81*
X7707500Y4788500D02*
D03*
Y4280500D02*
D03*
Y4026500D02*
D03*
Y4534500D02*
D03*
X7407500Y4280500D02*
D03*
Y4534500D02*
D03*
Y4026500D02*
D03*
Y3772500D02*
D03*
D82*
X9423500D02*
D03*
X9931500D02*
D03*
X9677500D02*
D03*
D83*
X10185500D02*
D03*
D84*
X7707500D02*
D03*
X7407500Y4788500D02*
D03*
D85*
X6827500Y3870000D02*
D03*
D86*
X6855000Y4962500D02*
D03*
X10087500Y6727500D02*
D03*
X8979500D02*
D03*
D87*
X8436452Y5753679D02*
D03*
X8957500Y5257500D02*
D03*
X9090000Y5050000D02*
D03*
X9107500Y4960001D02*
D03*
X7190000Y5232500D02*
D03*
X8330000Y5522500D02*
D03*
X7612500Y7160000D02*
D03*
X7260000D02*
D03*
X6645000Y6555000D02*
D03*
Y6192500D02*
D03*
Y5760000D02*
D03*
X6640000Y5067500D02*
D03*
X7167500Y4887500D02*
D03*
X7422500Y4992500D02*
D03*
X7805000Y5252500D02*
D03*
X7922500Y5780000D02*
D03*
X7410000Y5935000D02*
D03*
X7212500Y5512500D02*
D03*
X7180000Y5697500D02*
D03*
Y5797500D02*
D03*
Y5897500D02*
D03*
Y5997500D02*
D03*
Y5597500D02*
D03*
X7215000Y6175000D02*
D03*
X7160000Y6312500D02*
D03*
X7550000Y6147500D02*
D03*
X7635000Y6235000D02*
D03*
X7620000Y6447500D02*
D03*
X8287500Y5307500D02*
D03*
X11099997Y7049998D02*
D03*
Y6749998D02*
D03*
Y6449998D02*
D03*
Y6149998D02*
D03*
Y4649999D02*
D03*
X11024996Y6899998D02*
D03*
Y6599998D02*
D03*
X10949997Y6449998D02*
D03*
Y6149998D02*
D03*
X11024996Y5999998D02*
D03*
X10799997Y7049998D02*
D03*
X10874997Y6899998D02*
D03*
X10799997Y6749998D02*
D03*
X10874997Y6599998D02*
D03*
X10799997Y6449998D02*
D03*
X10874997Y6299998D02*
D03*
X10799997Y6149998D02*
D03*
X10874997Y5999998D02*
D03*
X10649997Y7049998D02*
D03*
X10724997Y6899998D02*
D03*
Y6599998D02*
D03*
Y5699998D02*
D03*
X10499997Y7049998D02*
D03*
X10574997Y6899998D02*
D03*
Y5699998D02*
D03*
X10349997Y7049998D02*
D03*
X10199997D02*
D03*
X10274997Y6899998D02*
D03*
Y6599998D02*
D03*
X10199997Y6449998D02*
D03*
X10049997Y7049998D02*
D03*
Y6449998D02*
D03*
X8750000Y5672500D02*
D03*
X8660000D02*
D03*
X6892500Y6217500D02*
D03*
X8675000Y6360000D02*
D03*
X7937500Y5652500D02*
D03*
X8092500Y5987500D02*
D03*
X7680000Y5700000D02*
D03*
X7982500Y5087500D02*
D03*
X10175000Y5872500D02*
D03*
X9167500Y4462500D02*
D03*
X8567918Y4192705D02*
D03*
X9480000Y4327500D02*
D03*
X6640000Y4700000D02*
D03*
X8155000Y3922500D02*
D03*
X8205000Y4965000D02*
D03*
X8145000Y6410000D02*
D03*
X9797500Y4295000D02*
D03*
X9897500D02*
D03*
X9792500Y5032500D02*
D03*
Y4932500D02*
D03*
X9892500D02*
D03*
Y5032500D02*
D03*
X9840000Y6310000D02*
D03*
Y6427500D02*
D03*
X9897500Y4195000D02*
D03*
X9797500D02*
D03*
X10385000Y5305000D02*
D03*
X10175000Y5472500D02*
D03*
Y5757500D02*
D03*
Y5615000D02*
D03*
X10555000Y4450000D02*
D03*
X10552500Y4547500D02*
D03*
X10595000Y4030000D02*
D03*
X10512500Y4095000D02*
D03*
X10600000Y4947500D02*
D03*
X10585000Y5305000D02*
D03*
X7342500Y6890000D02*
D03*
X6640000Y3665000D02*
D03*
Y4145000D02*
D03*
Y4452500D02*
D03*
X8795000Y5030000D02*
D03*
X7862500Y4355000D02*
D03*
X7915000Y3745000D02*
D03*
X6917500Y3665000D02*
D03*
X9242500Y4017500D02*
D03*
X10675000Y3662500D02*
D03*
X11127500Y3685000D02*
D03*
X11132287Y4466241D02*
D03*
X11120000Y5057500D02*
D03*
X11121222Y5757982D02*
D03*
X9335000Y6195000D02*
D03*
X9116500Y6500000D02*
D03*
X8717332Y6451571D02*
D03*
X9185000Y6357500D02*
D03*
X9460000Y5715000D02*
D03*
X10222500Y4472500D02*
D03*
X9467500Y4565000D02*
D03*
X10287500Y5242500D02*
D03*
X9450000Y4660000D02*
D03*
X8797500Y4805000D02*
D03*
X8717500Y4732500D02*
D03*
X9107500Y5297500D02*
D03*
X8855000Y4412500D02*
D03*
X8845000Y4270000D02*
D03*
X8965000Y4387500D02*
D03*
X8797500Y4492500D02*
D03*
X8720000Y4980000D02*
D03*
X8667500Y4525000D02*
D03*
X8575000Y4512500D02*
D03*
X8507500Y4447500D02*
D03*
X8422500Y4637500D02*
D03*
X8477500Y4710000D02*
D03*
X8272500Y4505000D02*
D03*
X8200000Y4447500D02*
D03*
X8202088Y4642500D02*
D03*
X8755000Y4650000D02*
D03*
X8847500Y4035000D02*
D03*
X9157500Y5455000D02*
D03*
X8522500Y4800000D02*
D03*
X9582500Y5875000D02*
D03*
X9427500Y5475000D02*
D03*
X9442500Y5225000D02*
D03*
X9430000Y5317500D02*
D03*
X10005000Y5330000D02*
D03*
X9905000D02*
D03*
X10102983Y4810235D02*
D03*
X10005000Y4810000D02*
D03*
X10005000Y4580000D02*
D03*
X10105000D02*
D03*
X9447500Y5130000D02*
D03*
X9385000Y6550000D02*
D03*
X9253807Y6956151D02*
D03*
X9350000Y4185000D02*
D03*
X7172850Y4667728D02*
D03*
X7950000Y4595000D02*
D03*
Y4685000D02*
D03*
X10441859Y5131839D02*
D03*
X10463955Y4333228D02*
D03*
X10595000Y4260000D02*
D03*
X10597500Y5152500D02*
D03*
X9570000Y5565000D02*
D03*
X9555000Y5680000D02*
D03*
X9085000Y4097500D02*
D03*
X9057500Y3795000D02*
D03*
X9910000Y6162500D02*
D03*
X9810000D02*
D03*
X9910000Y6065000D02*
D03*
X9810000D02*
D03*
X10010000D02*
D03*
X10110000D02*
D03*
X10010000Y6162500D02*
D03*
X10110000D02*
D03*
X9805000Y4810000D02*
D03*
X9902983Y4810235D02*
D03*
X9705000Y4580000D02*
D03*
X9805000D02*
D03*
X9905000D02*
D03*
X9450000Y4800000D02*
D03*
X9430000Y4405000D02*
D03*
X9447500Y4897500D02*
D03*
X9442500Y5040000D02*
D03*
X10287500Y4150000D02*
D03*
X10250000Y4235000D02*
D03*
X10300000Y4920000D02*
D03*
X10217500Y4997500D02*
D03*
X9705000Y4810000D02*
D03*
X10105000Y5330000D02*
D03*
X9805000D02*
D03*
X9705000Y4060000D02*
D03*
X9805000D02*
D03*
X10005000D02*
D03*
X10105000D02*
D03*
X9905000D02*
D03*
X7687500Y5062500D02*
D03*
X8035000Y4045000D02*
D03*
%TF.MD5,35f4b297fb8f42c38106bf00852250a1*%
M02*
