%TF.GenerationSoftware,Altium Limited,Altium Designer,26.2.0 (7)*%
G04 Layer_Color=8388736*
%FSLAX45Y45*%
%MOMM*%
%TF.SameCoordinates,89D92440-2D2D-4804-A2D7-E5BC57F2A4C4*%
%TF.FilePolarity,Negative*%
%TF.FileFunction,Soldermask,Top*%
%TF.Part,Single*%
G01*
G75*
%TA.AperFunction,SMDPad,CuDef*%
%ADD21R,0.65000X0.75000*%
%ADD24R,0.60000X1.20000*%
%ADD31R,1.22000X1.15000*%
%ADD33R,1.15000X1.22000*%
%TA.AperFunction,ComponentPad*%
%ADD40C,0.65000*%
G04:AMPARAMS|DCode=44|XSize=0.9mm|YSize=2.4mm|CornerRadius=0.45mm|HoleSize=0mm|Usage=FLASHONLY|Rotation=0.000|XOffset=0mm|YOffset=0mm|HoleType=Round|Shape=RoundedRectangle|*
%AMROUNDEDRECTD44*
21,1,0.90000,1.50000,0,0,0.0*
21,1,0.00000,2.40000,0,0,0.0*
1,1,0.90000,0.00000,-0.75000*
1,1,0.90000,0.00000,-0.75000*
1,1,0.90000,0.00000,0.75000*
1,1,0.90000,0.00000,0.75000*
%
%ADD44ROUNDEDRECTD44*%
G04:AMPARAMS|DCode=45|XSize=0.9mm|YSize=1.7mm|CornerRadius=0.45mm|HoleSize=0mm|Usage=FLASHONLY|Rotation=0.000|XOffset=0mm|YOffset=0mm|HoleType=Round|Shape=RoundedRectangle|*
%AMROUNDEDRECTD45*
21,1,0.90000,0.80000,0,0,0.0*
21,1,0.00000,1.70000,0,0,0.0*
1,1,0.90000,0.00000,-0.40000*
1,1,0.90000,0.00000,-0.40000*
1,1,0.90000,0.00000,0.40000*
1,1,0.90000,0.00000,0.40000*
%
%ADD45ROUNDEDRECTD45*%
%TA.AperFunction,SMDPad,CuDef*%
%ADD59R,1.60320X0.50320*%
%ADD60R,0.50320X1.60320*%
%ADD61R,0.80320X1.20320*%
%ADD62R,1.20320X0.80320*%
%ADD63R,1.20320X0.60320*%
%ADD64R,2.90320X4.20320*%
%ADD65R,1.90320X0.85320*%
%ADD66R,1.20320X0.90320*%
G04:AMPARAMS|DCode=67|XSize=0.8332mm|YSize=0.8132mm|CornerRadius=0.25105mm|HoleSize=0mm|Usage=FLASHONLY|Rotation=270.000|XOffset=0mm|YOffset=0mm|HoleType=Round|Shape=RoundedRectangle|*
%AMROUNDEDRECTD67*
21,1,0.83320,0.31110,0,0,270.0*
21,1,0.33110,0.81320,0,0,270.0*
1,1,0.50210,-0.15555,-0.16555*
1,1,0.50210,-0.15555,0.16555*
1,1,0.50210,0.15555,0.16555*
1,1,0.50210,0.15555,-0.16555*
%
%ADD67ROUNDEDRECTD67*%
%ADD68R,1.40320X1.60320*%
%ADD69R,1.10320X1.80320*%
G04:AMPARAMS|DCode=70|XSize=0.8032mm|YSize=1.2032mm|CornerRadius=0mm|HoleSize=0mm|Usage=FLASHONLY|Rotation=225.000|XOffset=0mm|YOffset=0mm|HoleType=Round|Shape=Rectangle|*
%AMROTATEDRECTD70*
4,1,4,-0.14142,0.70937,0.70937,-0.14142,0.14142,-0.70937,-0.70937,0.14142,-0.14142,0.70937,0.0*
%
%ADD70ROTATEDRECTD70*%

%ADD71R,2.00320X1.35320*%
%ADD72R,1.40320X1.72320*%
G04:AMPARAMS|DCode=73|XSize=0.8032mm|YSize=1.2032mm|CornerRadius=0mm|HoleSize=0mm|Usage=FLASHONLY|Rotation=135.000|XOffset=0mm|YOffset=0mm|HoleType=Round|Shape=Rectangle|*
%AMROTATEDRECTD73*
4,1,4,0.70937,0.14142,-0.14142,-0.70937,-0.70937,-0.14142,0.14142,0.70937,0.70937,0.14142,0.0*
%
%ADD73ROTATEDRECTD73*%

%ADD74R,1.00320X1.00320*%
%ADD75R,0.75320X0.80320*%
%ADD76R,1.40320X1.40320*%
%ADD77R,4.60320X1.70320*%
%TA.AperFunction,ComponentPad*%
%ADD78C,3.20320*%
%ADD79C,1.70320*%
%ADD80C,1.40320*%
%ADD81C,1.80320*%
%ADD82C,1.75320*%
%ADD83R,1.75320X1.75320*%
%ADD84R,1.80320X1.80320*%
%TA.AperFunction,WasherPad*%
%ADD85C,0.20320*%
%TA.AperFunction,ComponentPad*%
%ADD86C,0.20320*%
%TA.AperFunction,ViaPad*%
%ADD87C,0.40000*%
G36*
X8367500Y4027500D02*
Y3967500D01*
X8302500D01*
Y4042500D01*
X8352500D01*
X8367500Y4027500D01*
D02*
G37*
D21*
X8435000Y4135000D02*
D03*
Y4005000D02*
D03*
X8335000Y4135000D02*
D03*
D24*
X9340000Y5895000D02*
D03*
X9245000Y6135000D02*
D03*
Y5895000D02*
D03*
X9435000Y6135000D02*
D03*
Y5895000D02*
D03*
D31*
X6832500Y6720000D02*
D03*
Y6410000D02*
D03*
D33*
X9000000Y5580000D02*
D03*
X8690000D02*
D03*
D40*
X7205000Y6712500D02*
D03*
Y6577500D02*
D03*
X7800000Y6712500D02*
D03*
Y6577500D02*
D03*
X7460000D02*
D03*
X7545000Y6712500D02*
D03*
Y6577500D02*
D03*
X7460000Y6712500D02*
D03*
X7290000Y6577500D02*
D03*
X7375000D02*
D03*
X7630000D02*
D03*
X7715000D02*
D03*
Y6712500D02*
D03*
X7630000D02*
D03*
X7375000D02*
D03*
X7290000D02*
D03*
D44*
X7070000Y6675500D02*
D03*
X7935000D02*
D03*
D45*
X7070000Y7013500D02*
D03*
X7935000D02*
D03*
D59*
X8925000Y4465000D02*
D03*
X8075000Y4715000D02*
D03*
Y4615000D02*
D03*
Y5015000D02*
D03*
Y4915001D02*
D03*
Y4965000D02*
D03*
Y4865000D02*
D03*
Y4565001D02*
D03*
Y4665001D02*
D03*
Y4765000D02*
D03*
Y4815001D02*
D03*
Y4465000D02*
D03*
X8925000Y4815001D02*
D03*
Y5015000D02*
D03*
Y4765000D02*
D03*
Y4715000D02*
D03*
Y4665001D02*
D03*
Y4615000D02*
D03*
Y4565001D02*
D03*
Y4865000D02*
D03*
Y4915001D02*
D03*
Y4515000D02*
D03*
Y4965000D02*
D03*
X8075000Y4515000D02*
D03*
D60*
X8475000Y4315000D02*
D03*
X8525000D02*
D03*
X8625000D02*
D03*
X8225000D02*
D03*
X8275000D02*
D03*
X8375000D02*
D03*
X8425000D02*
D03*
X8225000Y5165000D02*
D03*
X8325000D02*
D03*
X8375000D02*
D03*
X8425000D02*
D03*
X8475000D02*
D03*
X8525000D02*
D03*
X8575000D02*
D03*
X8625000D02*
D03*
X8675000D02*
D03*
X8725000D02*
D03*
X8775000D02*
D03*
X8775000Y4315000D02*
D03*
X8725000D02*
D03*
X8675000D02*
D03*
X8325000D02*
D03*
X8275000Y5165000D02*
D03*
X8575000Y4315000D02*
D03*
D61*
X9220000Y4585000D02*
D03*
Y4727500D02*
D03*
X9360000D02*
D03*
Y4585000D02*
D03*
X7372500Y5225000D02*
D03*
X7755000Y5987500D02*
D03*
X7642500D02*
D03*
X7965000Y4355000D02*
D03*
X8682500Y4102500D02*
D03*
X7130000Y6440000D02*
D03*
X7797500Y6842500D02*
D03*
X6787500Y6997500D02*
D03*
X8447500Y5932500D02*
D03*
X8502500Y6410000D02*
D03*
X8900000Y5110000D02*
D03*
X9360000Y5580000D02*
D03*
Y5720000D02*
D03*
X6980000Y5975000D02*
D03*
X8345000Y7087500D02*
D03*
X9400000Y7090000D02*
D03*
X8682500Y3967500D02*
D03*
X10557500Y3677500D02*
D03*
X6927500Y6997500D02*
D03*
X7657500Y6842500D02*
D03*
X7270000Y6440000D02*
D03*
X7502500Y5987500D02*
D03*
X7512500Y5225000D02*
D03*
X7895000Y5987500D02*
D03*
X7172500Y4765000D02*
D03*
X7032500D02*
D03*
X9797500Y5472500D02*
D03*
X9657500D02*
D03*
X9657500Y5615000D02*
D03*
X9797500D02*
D03*
X9657500Y5760000D02*
D03*
X9797500D02*
D03*
X9797500Y5900001D02*
D03*
X9657500D02*
D03*
X9220000Y5012500D02*
D03*
Y4870000D02*
D03*
Y5440000D02*
D03*
X9517500Y7087500D02*
D03*
X9040000Y5110000D02*
D03*
X9260000Y7090000D02*
D03*
X8205000Y7087500D02*
D03*
X8822500Y3967500D02*
D03*
X8927500D02*
D03*
X6840000Y5975000D02*
D03*
X8822500Y4102500D02*
D03*
X8362500Y6410000D02*
D03*
X8587500Y5932500D02*
D03*
X8105000Y4355000D02*
D03*
X9657500Y7087500D02*
D03*
X10417500Y3677500D02*
D03*
X9220000Y5580000D02*
D03*
Y5720000D02*
D03*
X9360000Y4870000D02*
D03*
X9220838Y5154409D02*
D03*
X9220000Y5297500D02*
D03*
X9067500Y3967500D02*
D03*
X9360000Y5297500D02*
D03*
X9360838Y5154409D02*
D03*
X9360000Y5012500D02*
D03*
Y5440000D02*
D03*
D62*
X9092500Y4605000D02*
D03*
Y4762500D02*
D03*
Y4465000D02*
D03*
Y4902500D02*
D03*
X8107500Y5285000D02*
D03*
X7062500Y3692500D02*
D03*
X10495000Y5327500D02*
D03*
X6902500Y4310000D02*
D03*
X7917500Y4020000D02*
D03*
X9227500Y4362500D02*
D03*
X8107500Y5145000D02*
D03*
X7205000Y3832500D02*
D03*
Y3692500D02*
D03*
X7062500Y3832500D02*
D03*
X9227500Y4222500D02*
D03*
X7917500Y3880000D02*
D03*
X7327500Y5490000D02*
D03*
Y5350000D02*
D03*
X9077500Y7010000D02*
D03*
X8947500Y4082500D02*
D03*
X9077500Y6870000D02*
D03*
X6902500Y4170000D02*
D03*
X9170000Y3652500D02*
D03*
Y3792500D02*
D03*
X10495000Y5187500D02*
D03*
X9090000Y4362500D02*
D03*
Y4222500D02*
D03*
X8947500Y4222500D02*
D03*
D63*
X10120000Y4875000D02*
D03*
Y5200000D02*
D03*
Y5135000D02*
D03*
Y5070000D02*
D03*
Y5005000D02*
D03*
X9570000Y5265000D02*
D03*
Y4875000D02*
D03*
Y4940000D02*
D03*
Y5200000D02*
D03*
X10120000Y5265000D02*
D03*
Y4940000D02*
D03*
X9570000Y5005000D02*
D03*
Y5135000D02*
D03*
Y5070000D02*
D03*
X10120000Y4320000D02*
D03*
Y4385000D02*
D03*
Y4515000D02*
D03*
X9570000Y4450000D02*
D03*
Y4190000D02*
D03*
Y4125000D02*
D03*
Y4515000D02*
D03*
X10120000Y4255000D02*
D03*
Y4190000D02*
D03*
Y4450000D02*
D03*
Y4125000D02*
D03*
X9570000Y4385000D02*
D03*
Y4320000D02*
D03*
Y4255000D02*
D03*
D64*
X9845000Y5070000D02*
D03*
Y4320000D02*
D03*
D65*
X8092500Y5449500D02*
D03*
X7502500Y5830500D02*
D03*
Y5703500D02*
D03*
Y5576500D02*
D03*
Y5449500D02*
D03*
X8092500Y5576500D02*
D03*
Y5703500D02*
D03*
Y5830500D02*
D03*
D66*
X8600000Y6170000D02*
D03*
Y6075000D02*
D03*
Y6265000D02*
D03*
X8360000D02*
D03*
Y6075000D02*
D03*
D67*
X8200000Y4022499D02*
D03*
X8560000Y4127500D02*
D03*
Y4022500D02*
D03*
X8200000Y4127500D02*
D03*
D68*
X7897500Y4175000D02*
D03*
X8067500D02*
D03*
D69*
X7735000Y6385000D02*
D03*
X8024999D02*
D03*
D70*
X10466998Y4506998D02*
D03*
X7529498Y6301998D02*
D03*
X7430503Y6203003D02*
D03*
X7389498Y6346997D02*
D03*
X7290503Y6248002D02*
D03*
X10368003Y4408002D02*
D03*
D71*
X9632500Y6420000D02*
D03*
Y6130000D02*
D03*
D72*
X9342500Y6357500D02*
D03*
X8910500D02*
D03*
D73*
X10458995Y4171005D02*
D03*
X10466998Y4938003D02*
D03*
X10368003Y5036998D02*
D03*
X10360000Y4270000D02*
D03*
D74*
X10050000Y5757500D02*
D03*
Y5472500D02*
D03*
Y5615000D02*
D03*
Y5900001D02*
D03*
X9900000D02*
D03*
Y5615000D02*
D03*
Y5472500D02*
D03*
Y5757500D02*
D03*
D75*
X9167500Y3997500D02*
D03*
X9422500D02*
D03*
X9167500Y4116500D02*
D03*
X9422500D02*
D03*
D76*
X7677500Y5257500D02*
D03*
X7937500D02*
D03*
D77*
X8927500Y6117500D02*
D03*
Y5812500D02*
D03*
D78*
X10480000Y6207500D02*
D03*
Y6707500D02*
D03*
D79*
X10742500Y4037500D02*
D03*
X10742500Y4952500D02*
D03*
X7107500Y4278500D02*
D03*
X8869500Y3772500D02*
D03*
X10742500Y4237500D02*
D03*
Y4437500D02*
D03*
X10942500D02*
D03*
Y4237500D02*
D03*
Y4037500D02*
D03*
X10742500Y5152500D02*
D03*
Y5352500D02*
D03*
X10942500D02*
D03*
Y5152500D02*
D03*
Y4952500D02*
D03*
X7107500Y4532500D02*
D03*
Y4024500D02*
D03*
X8615500Y3772500D02*
D03*
X8361500D02*
D03*
X8107500D02*
D03*
D80*
X7035000Y5610500D02*
D03*
X8331500Y6907500D02*
D03*
X9439500D02*
D03*
X7035000Y5102500D02*
D03*
X9312500Y6653500D02*
D03*
X8204500D02*
D03*
X6781000Y5737500D02*
D03*
Y5483500D02*
D03*
X7035000Y5356500D02*
D03*
X6781000Y5229500D02*
D03*
X9947500Y6907500D02*
D03*
X9820500Y6653500D02*
D03*
X9693500Y6907500D02*
D03*
X9566500Y6653500D02*
D03*
X8458500D02*
D03*
X8585500Y6907500D02*
D03*
X8712500Y6653500D02*
D03*
X8839500Y6907500D02*
D03*
D81*
X7707500Y4788500D02*
D03*
Y4280500D02*
D03*
Y4026500D02*
D03*
Y4534500D02*
D03*
X7407500Y4280500D02*
D03*
Y4534500D02*
D03*
Y4026500D02*
D03*
Y3772500D02*
D03*
D82*
X9423500D02*
D03*
X9931500D02*
D03*
X9677500D02*
D03*
D83*
X10185500D02*
D03*
D84*
X7707500D02*
D03*
X7407500Y4788500D02*
D03*
D85*
X6827500Y3870000D02*
D03*
D86*
X6855000Y4962500D02*
D03*
X10087500Y6727500D02*
D03*
X8979500D02*
D03*
D87*
X8436452Y5753679D02*
D03*
X8957500Y5257500D02*
D03*
X9090000Y5050000D02*
D03*
X9107500Y4960001D02*
D03*
X7190000Y5232500D02*
D03*
X8330000Y5522500D02*
D03*
X7612500Y7160000D02*
D03*
X7260000D02*
D03*
X6645000Y6555000D02*
D03*
Y6192500D02*
D03*
Y5760000D02*
D03*
X6640000Y5067500D02*
D03*
X7167500Y4887500D02*
D03*
X7422500Y4992500D02*
D03*
X7805000Y5252500D02*
D03*
X7922500Y5780000D02*
D03*
X7410000Y5935000D02*
D03*
X7212500Y5512500D02*
D03*
X7180000Y5697500D02*
D03*
Y5797500D02*
D03*
Y5897500D02*
D03*
Y5997500D02*
D03*
Y5597500D02*
D03*
X7215000Y6175000D02*
D03*
X7160000Y6312500D02*
D03*
X7550000Y6147500D02*
D03*
X7635000Y6235000D02*
D03*
X7620000Y6447500D02*
D03*
X8287500Y5307500D02*
D03*
X11099997Y7049998D02*
D03*
Y6749998D02*
D03*
Y6449998D02*
D03*
Y6149998D02*
D03*
Y4649999D02*
D03*
X11024996Y6899998D02*
D03*
Y6599998D02*
D03*
X10949997Y6449998D02*
D03*
Y6149998D02*
D03*
X11024996Y5999998D02*
D03*
X10799997Y7049998D02*
D03*
X10874997Y6899998D02*
D03*
X10799997Y6749998D02*
D03*
X10874997Y6599998D02*
D03*
X10799997Y6449998D02*
D03*
X10874997Y6299998D02*
D03*
X10799997Y6149998D02*
D03*
X10874997Y5999998D02*
D03*
X10649997Y7049998D02*
D03*
X10724997Y6899998D02*
D03*
Y6599998D02*
D03*
Y5699998D02*
D03*
X10499997Y7049998D02*
D03*
X10574997Y6899998D02*
D03*
Y5699998D02*
D03*
X10349997Y7049998D02*
D03*
X10199997D02*
D03*
X10274997Y6899998D02*
D03*
Y6599998D02*
D03*
X10199997Y6449998D02*
D03*
X10049997Y7049998D02*
D03*
Y6449998D02*
D03*
X8750000Y5672500D02*
D03*
X8660000D02*
D03*
X6892500Y6217500D02*
D03*
X8675000Y6360000D02*
D03*
X7937500Y5652500D02*
D03*
X8092500Y5987500D02*
D03*
X7680000Y5700000D02*
D03*
X7982500Y5087500D02*
D03*
X10175000Y5872500D02*
D03*
X9167500Y4462500D02*
D03*
X8567918Y4192705D02*
D03*
X9480000Y4327500D02*
D03*
X6640000Y4700000D02*
D03*
X8155000Y3922500D02*
D03*
X8205000Y4965000D02*
D03*
X8145000Y6410000D02*
D03*
X9797500Y4295000D02*
D03*
X9897500D02*
D03*
X9792500Y5032500D02*
D03*
Y4932500D02*
D03*
X9892500D02*
D03*
Y5032500D02*
D03*
X9840000Y6310000D02*
D03*
Y6427500D02*
D03*
X9897500Y4195000D02*
D03*
X9797500D02*
D03*
X10385000Y5305000D02*
D03*
X10175000Y5472500D02*
D03*
Y5757500D02*
D03*
Y5615000D02*
D03*
X10555000Y4450000D02*
D03*
X10552500Y4547500D02*
D03*
X10595000Y4030000D02*
D03*
X10512500Y4095000D02*
D03*
X10600000Y4947500D02*
D03*
X10585000Y5305000D02*
D03*
X7342500Y6890000D02*
D03*
X6640000Y3665000D02*
D03*
Y4145000D02*
D03*
Y4452500D02*
D03*
X8795000Y5030000D02*
D03*
X7862500Y4355000D02*
D03*
X7915000Y3745000D02*
D03*
X6917500Y3665000D02*
D03*
X9242500Y4017500D02*
D03*
X10675000Y3662500D02*
D03*
X11127500Y3685000D02*
D03*
X11132287Y4466241D02*
D03*
X11120000Y5057500D02*
D03*
X11121222Y5757982D02*
D03*
X9335000Y6195000D02*
D03*
X9116500Y6500000D02*
D03*
X8717332Y6451571D02*
D03*
X9185000Y6357500D02*
D03*
X9460000Y5715000D02*
D03*
X10222500Y4472500D02*
D03*
X9467500Y4565000D02*
D03*
X10287500Y5242500D02*
D03*
X9450000Y4660000D02*
D03*
X8797500Y4805000D02*
D03*
X8717500Y4732500D02*
D03*
X9107500Y5297500D02*
D03*
X8855000Y4412500D02*
D03*
X8845000Y4270000D02*
D03*
X8965000Y4387500D02*
D03*
X8797500Y4492500D02*
D03*
X8720000Y4980000D02*
D03*
X8667500Y4525000D02*
D03*
X8575000Y4512500D02*
D03*
X8507500Y4447500D02*
D03*
X8422500Y4637500D02*
D03*
X8477500Y4710000D02*
D03*
X8272500Y4505000D02*
D03*
X8200000Y4447500D02*
D03*
X8202088Y4642500D02*
D03*
X8755000Y4650000D02*
D03*
X8847500Y4035000D02*
D03*
X9157500Y5455000D02*
D03*
X8522500Y4800000D02*
D03*
X9582500Y5875000D02*
D03*
X9427500Y5475000D02*
D03*
X9442500Y5225000D02*
D03*
X9430000Y5317500D02*
D03*
X10005000Y5330000D02*
D03*
X9905000D02*
D03*
X10102983Y4810235D02*
D03*
X10005000Y4810000D02*
D03*
X10005000Y4580000D02*
D03*
X10105000D02*
D03*
X9447500Y5130000D02*
D03*
X9385000Y6550000D02*
D03*
X9253807Y6956151D02*
D03*
X9350000Y4185000D02*
D03*
X7172850Y4667728D02*
D03*
X7950000Y4595000D02*
D03*
Y4685000D02*
D03*
X10441859Y5131839D02*
D03*
X10463955Y4333228D02*
D03*
X10595000Y4260000D02*
D03*
X10597500Y5152500D02*
D03*
X9570000Y5565000D02*
D03*
X9555000Y5680000D02*
D03*
X9085000Y4097500D02*
D03*
X9057500Y3795000D02*
D03*
X9910000Y6162500D02*
D03*
X9810000D02*
D03*
X9910000Y6065000D02*
D03*
X9810000D02*
D03*
X10010000D02*
D03*
X10110000D02*
D03*
X10010000Y6162500D02*
D03*
X10110000D02*
D03*
X9805000Y4810000D02*
D03*
X9902983Y4810235D02*
D03*
X9705000Y4580000D02*
D03*
X9805000D02*
D03*
X9905000D02*
D03*
X9450000Y4800000D02*
D03*
X9430000Y4405000D02*
D03*
X9447500Y4897500D02*
D03*
X9442500Y5040000D02*
D03*
X10287500Y4150000D02*
D03*
X10250000Y4235000D02*
D03*
X10300000Y4920000D02*
D03*
X10217500Y4997500D02*
D03*
X9705000Y4810000D02*
D03*
X10105000Y5330000D02*
D03*
X9805000D02*
D03*
X9705000Y4060000D02*
D03*
X9805000D02*
D03*
X10005000D02*
D03*
X10105000D02*
D03*
X9905000D02*
D03*
X7687500Y5062500D02*
D03*
X8035000Y4045000D02*
D03*
%TF.MD5,42d74311ef5f5878ba8a4e5c9988710f*%
M02*
