ISO-10303-21;
HEADER;
/* Generated by software containing ST-Developer
 * from STEP Tools, Inc. (www.steptools.com) 
 */

FILE_DESCRIPTION(
/* description */ (''),
/* implementation_level */ '2;1');

FILE_NAME(
/* name */ 'Flysky Screen Adapter.step',
/* time_stamp */ '2026-05-07T11:49:13+03:00',
/* author */ (''),
/* organization */ (''),
/* preprocessor_version */ 'ST-DEVELOPER v20.1',
/* originating_system */ 'Autodesk Translation Framework v15.8.0.0',
/* authorisation */ '');

FILE_SCHEMA (('AUTOMOTIVE_DESIGN { 1 0 10303 214 3 1 1 }'));
ENDSEC;

DATA;
#10=MECHANICAL_DESIGN_GEOMETRIC_PRESENTATION_REPRESENTATION('',(#13),#2194);
#11=SHAPE_REPRESENTATION_RELATIONSHIP('SRR','None',#2201,#12);
#12=ADVANCED_BREP_SHAPE_REPRESENTATION('',(#14),#2193);
#13=STYLED_ITEM('',(#2210),#14);
#14=MANIFOLD_SOLID_BREP('Body1',#1348);
#15=CYLINDRICAL_SURFACE('',#1397,2.);
#16=CYLINDRICAL_SURFACE('',#1398,2.);
#17=CYLINDRICAL_SURFACE('',#1409,2.);
#18=CYLINDRICAL_SURFACE('',#1411,2.);
#19=CYLINDRICAL_SURFACE('',#1413,1.99999999999999);
#20=CYLINDRICAL_SURFACE('',#1419,2.);
#21=CYLINDRICAL_SURFACE('',#1424,3.5);
#22=CYLINDRICAL_SURFACE('',#1427,2.);
#23=CYLINDRICAL_SURFACE('',#1431,3.5);
#24=CYLINDRICAL_SURFACE('',#1433,3.5);
#25=CYLINDRICAL_SURFACE('',#1435,3.5);
#26=CYLINDRICAL_SURFACE('',#1440,2.);
#27=CYLINDRICAL_SURFACE('',#1442,2.);
#28=CYLINDRICAL_SURFACE('',#1444,2.);
#29=CYLINDRICAL_SURFACE('',#1446,2.5);
#30=CYLINDRICAL_SURFACE('',#1448,2.);
#31=ELLIPSE('',#1370,4.94974746830583,3.5);
#32=ELLIPSE('',#1374,4.94974746830583,3.5);
#33=ELLIPSE('',#1396,2.82842712474619,2.);
#34=FACE_BOUND('',#156,.T.);
#35=FACE_BOUND('',#157,.T.);
#36=FACE_BOUND('',#158,.T.);
#37=FACE_BOUND('',#166,.T.);
#38=FACE_BOUND('',#167,.T.);
#39=FACE_BOUND('',#168,.T.);
#40=FACE_BOUND('',#171,.T.);
#41=FACE_BOUND('',#172,.T.);
#42=FACE_BOUND('',#173,.T.);
#43=FACE_BOUND('',#174,.T.);
#44=FACE_BOUND('',#175,.T.);
#45=FACE_BOUND('',#178,.T.);
#46=FACE_BOUND('',#179,.T.);
#47=FACE_BOUND('',#180,.T.);
#48=FACE_BOUND('',#209,.T.);
#49=FACE_BOUND('',#216,.T.);
#50=FACE_BOUND('',#229,.T.);
#51=FACE_BOUND('',#230,.T.);
#52=FACE_BOUND('',#231,.T.);
#53=FACE_BOUND('',#236,.T.);
#54=FACE_BOUND('',#237,.T.);
#55=FACE_BOUND('',#238,.T.);
#56=FACE_BOUND('',#239,.T.);
#57=FACE_BOUND('',#240,.T.);
#58=CIRCLE('',#1364,3.5);
#59=CIRCLE('',#1365,3.5);
#60=CIRCLE('',#1366,2.);
#61=CIRCLE('',#1367,2.);
#62=CIRCLE('',#1368,2.);
#63=CIRCLE('',#1378,2.);
#64=CIRCLE('',#1379,2.);
#65=CIRCLE('',#1382,2.);
#66=CIRCLE('',#1383,2.5);
#67=CIRCLE('',#1384,2.);
#68=CIRCLE('',#1385,2.);
#69=CIRCLE('',#1386,2.);
#70=CIRCLE('',#1389,1.99999999999999);
#71=CIRCLE('',#1390,2.);
#72=CIRCLE('',#1391,2.);
#73=CIRCLE('',#1410,2.);
#74=CIRCLE('',#1412,2.);
#75=CIRCLE('',#1414,1.99999999999999);
#76=CIRCLE('',#1420,2.);
#77=CIRCLE('',#1421,2.);
#78=CIRCLE('',#1425,3.5);
#79=CIRCLE('',#1428,2.);
#80=CIRCLE('',#1429,2.);
#81=CIRCLE('',#1432,3.5);
#82=CIRCLE('',#1434,3.5);
#83=CIRCLE('',#1436,3.5);
#84=CIRCLE('',#1441,2.);
#85=CIRCLE('',#1443,2.);
#86=CIRCLE('',#1445,2.);
#87=CIRCLE('',#1447,2.5);
#88=CIRCLE('',#1449,2.);
#89=FACE_OUTER_BOUND('',#154,.T.);
#90=FACE_OUTER_BOUND('',#155,.T.);
#91=FACE_OUTER_BOUND('',#159,.T.);
#92=FACE_OUTER_BOUND('',#160,.T.);
#93=FACE_OUTER_BOUND('',#161,.T.);
#94=FACE_OUTER_BOUND('',#162,.T.);
#95=FACE_OUTER_BOUND('',#163,.T.);
#96=FACE_OUTER_BOUND('',#164,.T.);
#97=FACE_OUTER_BOUND('',#165,.T.);
#98=FACE_OUTER_BOUND('',#169,.T.);
#99=FACE_OUTER_BOUND('',#170,.T.);
#100=FACE_OUTER_BOUND('',#176,.T.);
#101=FACE_OUTER_BOUND('',#177,.T.);
#102=FACE_OUTER_BOUND('',#181,.T.);
#103=FACE_OUTER_BOUND('',#182,.T.);
#104=FACE_OUTER_BOUND('',#183,.T.);
#105=FACE_OUTER_BOUND('',#184,.T.);
#106=FACE_OUTER_BOUND('',#185,.T.);
#107=FACE_OUTER_BOUND('',#186,.T.);
#108=FACE_OUTER_BOUND('',#187,.T.);
#109=FACE_OUTER_BOUND('',#188,.T.);
#110=FACE_OUTER_BOUND('',#189,.T.);
#111=FACE_OUTER_BOUND('',#190,.T.);
#112=FACE_OUTER_BOUND('',#191,.T.);
#113=FACE_OUTER_BOUND('',#192,.T.);
#114=FACE_OUTER_BOUND('',#193,.T.);
#115=FACE_OUTER_BOUND('',#194,.T.);
#116=FACE_OUTER_BOUND('',#195,.T.);
#117=FACE_OUTER_BOUND('',#196,.T.);
#118=FACE_OUTER_BOUND('',#197,.T.);
#119=FACE_OUTER_BOUND('',#198,.T.);
#120=FACE_OUTER_BOUND('',#199,.T.);
#121=FACE_OUTER_BOUND('',#200,.T.);
#122=FACE_OUTER_BOUND('',#201,.T.);
#123=FACE_OUTER_BOUND('',#202,.T.);
#124=FACE_OUTER_BOUND('',#203,.T.);
#125=FACE_OUTER_BOUND('',#204,.T.);
#126=FACE_OUTER_BOUND('',#205,.T.);
#127=FACE_OUTER_BOUND('',#206,.T.);
#128=FACE_OUTER_BOUND('',#207,.T.);
#129=FACE_OUTER_BOUND('',#208,.T.);
#130=FACE_OUTER_BOUND('',#210,.T.);
#131=FACE_OUTER_BOUND('',#211,.T.);
#132=FACE_OUTER_BOUND('',#212,.T.);
#133=FACE_OUTER_BOUND('',#213,.T.);
#134=FACE_OUTER_BOUND('',#214,.T.);
#135=FACE_OUTER_BOUND('',#215,.T.);
#136=FACE_OUTER_BOUND('',#217,.T.);
#137=FACE_OUTER_BOUND('',#218,.T.);
#138=FACE_OUTER_BOUND('',#219,.T.);
#139=FACE_OUTER_BOUND('',#220,.T.);
#140=FACE_OUTER_BOUND('',#221,.T.);
#141=FACE_OUTER_BOUND('',#222,.T.);
#142=FACE_OUTER_BOUND('',#223,.T.);
#143=FACE_OUTER_BOUND('',#224,.T.);
#144=FACE_OUTER_BOUND('',#225,.T.);
#145=FACE_OUTER_BOUND('',#226,.T.);
#146=FACE_OUTER_BOUND('',#227,.T.);
#147=FACE_OUTER_BOUND('',#228,.T.);
#148=FACE_OUTER_BOUND('',#232,.T.);
#149=FACE_OUTER_BOUND('',#233,.T.);
#150=FACE_OUTER_BOUND('',#234,.T.);
#151=FACE_OUTER_BOUND('',#235,.T.);
#152=FACE_OUTER_BOUND('',#241,.T.);
#153=FACE_OUTER_BOUND('',#242,.T.);
#154=EDGE_LOOP('',(#860,#861,#862,#863));
#155=EDGE_LOOP('',(#864,#865,#866,#867,#868,#869,#870,#871,#872,#873,#874,
#875,#876,#877));
#156=EDGE_LOOP('',(#878,#879,#880,#881,#882,#883,#884));
#157=EDGE_LOOP('',(#885,#886,#887,#888,#889,#890));
#158=EDGE_LOOP('',(#891));
#159=EDGE_LOOP('',(#892,#893,#894,#895,#896,#897));
#160=EDGE_LOOP('',(#898,#899,#900,#901));
#161=EDGE_LOOP('',(#902,#903,#904,#905,#906));
#162=EDGE_LOOP('',(#907,#908,#909,#910,#911,#912));
#163=EDGE_LOOP('',(#913,#914,#915,#916,#917));
#164=EDGE_LOOP('',(#918,#919,#920,#921));
#165=EDGE_LOOP('',(#922,#923,#924,#925,#926,#927,#928,#929,#930,#931));
#166=EDGE_LOOP('',(#932,#933,#934,#935,#936,#937));
#167=EDGE_LOOP('',(#938));
#168=EDGE_LOOP('',(#939));
#169=EDGE_LOOP('',(#940,#941,#942,#943));
#170=EDGE_LOOP('',(#944,#945,#946,#947,#948,#949,#950,#951,#952,#953,#954,
#955,#956,#957,#958,#959,#960,#961,#962,#963,#964,#965));
#171=EDGE_LOOP('',(#966));
#172=EDGE_LOOP('',(#967));
#173=EDGE_LOOP('',(#968));
#174=EDGE_LOOP('',(#969));
#175=EDGE_LOOP('',(#970));
#176=EDGE_LOOP('',(#971,#972,#973,#974));
#177=EDGE_LOOP('',(#975,#976,#977,#978));
#178=EDGE_LOOP('',(#979));
#179=EDGE_LOOP('',(#980));
#180=EDGE_LOOP('',(#981));
#181=EDGE_LOOP('',(#982,#983,#984,#985));
#182=EDGE_LOOP('',(#986,#987,#988,#989));
#183=EDGE_LOOP('',(#990,#991,#992,#993));
#184=EDGE_LOOP('',(#994,#995,#996,#997,#998,#999));
#185=EDGE_LOOP('',(#1000,#1001,#1002,#1003,#1004,#1005));
#186=EDGE_LOOP('',(#1006,#1007,#1008,#1009));
#187=EDGE_LOOP('',(#1010,#1011,#1012,#1013));
#188=EDGE_LOOP('',(#1014,#1015,#1016,#1017));
#189=EDGE_LOOP('',(#1018,#1019,#1020,#1021));
#190=EDGE_LOOP('',(#1022,#1023,#1024,#1025));
#191=EDGE_LOOP('',(#1026,#1027,#1028,#1029));
#192=EDGE_LOOP('',(#1030,#1031,#1032,#1033,#1034));
#193=EDGE_LOOP('',(#1035,#1036,#1037,#1038));
#194=EDGE_LOOP('',(#1039,#1040,#1041,#1042,#1043));
#195=EDGE_LOOP('',(#1044,#1045,#1046,#1047));
#196=EDGE_LOOP('',(#1048,#1049,#1050,#1051));
#197=EDGE_LOOP('',(#1052,#1053,#1054,#1055));
#198=EDGE_LOOP('',(#1056,#1057,#1058,#1059));
#199=EDGE_LOOP('',(#1060,#1061,#1062,#1063));
#200=EDGE_LOOP('',(#1064,#1065,#1066,#1067,#1068,#1069));
#201=EDGE_LOOP('',(#1070,#1071,#1072,#1073,#1074,#1075));
#202=EDGE_LOOP('',(#1076,#1077,#1078,#1079));
#203=EDGE_LOOP('',(#1080,#1081,#1082,#1083));
#204=EDGE_LOOP('',(#1084,#1085,#1086,#1087));
#205=EDGE_LOOP('',(#1088,#1089,#1090,#1091));
#206=EDGE_LOOP('',(#1092,#1093,#1094,#1095));
#207=EDGE_LOOP('',(#1096,#1097,#1098,#1099));
#208=EDGE_LOOP('',(#1100,#1101,#1102,#1103));
#209=EDGE_LOOP('',(#1104));
#210=EDGE_LOOP('',(#1105,#1106,#1107,#1108));
#211=EDGE_LOOP('',(#1109,#1110,#1111,#1112));
#212=EDGE_LOOP('',(#1113,#1114,#1115,#1116));
#213=EDGE_LOOP('',(#1117,#1118,#1119,#1120));
#214=EDGE_LOOP('',(#1121,#1122,#1123,#1124));
#215=EDGE_LOOP('',(#1125,#1126,#1127,#1128,#1129,#1130,#1131,#1132));
#216=EDGE_LOOP('',(#1133));
#217=EDGE_LOOP('',(#1134));
#218=EDGE_LOOP('',(#1135,#1136,#1137,#1138));
#219=EDGE_LOOP('',(#1139,#1140,#1141,#1142));
#220=EDGE_LOOP('',(#1143,#1144,#1145,#1146));
#221=EDGE_LOOP('',(#1147,#1148,#1149,#1150));
#222=EDGE_LOOP('',(#1151,#1152,#1153,#1154));
#223=EDGE_LOOP('',(#1155,#1156,#1157,#1158));
#224=EDGE_LOOP('',(#1159,#1160,#1161,#1162));
#225=EDGE_LOOP('',(#1163,#1164,#1165,#1166));
#226=EDGE_LOOP('',(#1167));
#227=EDGE_LOOP('',(#1168,#1169,#1170,#1171));
#228=EDGE_LOOP('',(#1172,#1173,#1174,#1175));
#229=EDGE_LOOP('',(#1176));
#230=EDGE_LOOP('',(#1177));
#231=EDGE_LOOP('',(#1178));
#232=EDGE_LOOP('',(#1179,#1180,#1181,#1182,#1183,#1184,#1185,#1186,#1187,
#1188,#1189,#1190,#1191));
#233=EDGE_LOOP('',(#1192,#1193,#1194,#1195));
#234=EDGE_LOOP('',(#1196,#1197,#1198,#1199,#1200,#1201,#1202,#1203,#1204,
#1205,#1206,#1207,#1208));
#235=EDGE_LOOP('',(#1209,#1210,#1211,#1212,#1213,#1214,#1215,#1216,#1217,
#1218,#1219,#1220));
#236=EDGE_LOOP('',(#1221));
#237=EDGE_LOOP('',(#1222));
#238=EDGE_LOOP('',(#1223));
#239=EDGE_LOOP('',(#1224));
#240=EDGE_LOOP('',(#1225));
#241=EDGE_LOOP('',(#1226,#1227,#1228,#1229));
#242=EDGE_LOOP('',(#1230,#1231,#1232,#1233));
#243=LINE('',#1818,#396);
#244=LINE('',#1820,#397);
#245=LINE('',#1822,#398);
#246=LINE('',#1823,#399);
#247=LINE('',#1826,#400);
#248=LINE('',#1828,#401);
#249=LINE('',#1830,#402);
#250=LINE('',#1832,#403);
#251=LINE('',#1834,#404);
#252=LINE('',#1836,#405);
#253=LINE('',#1838,#406);
#254=LINE('',#1842,#407);
#255=LINE('',#1844,#408);
#256=LINE('',#1846,#409);
#257=LINE('',#1848,#410);
#258=LINE('',#1849,#411);
#259=LINE('',#1852,#412);
#260=LINE('',#1854,#413);
#261=LINE('',#1858,#414);
#262=LINE('',#1860,#415);
#263=LINE('',#1866,#416);
#264=LINE('',#1868,#417);
#265=LINE('',#1870,#418);
#266=LINE('',#1872,#419);
#267=LINE('',#1874,#420);
#268=LINE('',#1875,#421);
#269=LINE('',#1883,#422);
#270=LINE('',#1884,#423);
#271=LINE('',#1886,#424);
#272=LINE('',#1887,#425);
#273=LINE('',#1890,#426);
#274=LINE('',#1892,#427);
#275=LINE('',#1893,#428);
#276=LINE('',#1896,#429);
#277=LINE('',#1897,#430);
#278=LINE('',#1900,#431);
#279=LINE('',#1902,#432);
#280=LINE('',#1904,#433);
#281=LINE('',#1907,#434);
#282=LINE('',#1910,#435);
#283=LINE('',#1912,#436);
#284=LINE('',#1913,#437);
#285=LINE('',#1917,#438);
#286=LINE('',#1919,#439);
#287=LINE('',#1921,#440);
#288=LINE('',#1922,#441);
#289=LINE('',#1925,#442);
#290=LINE('',#1927,#443);
#291=LINE('',#1929,#444);
#292=LINE('',#1931,#445);
#293=LINE('',#1933,#446);
#294=LINE('',#1935,#447);
#295=LINE('',#1937,#448);
#296=LINE('',#1939,#449);
#297=LINE('',#1940,#450);
#298=LINE('',#1943,#451);
#299=LINE('',#1945,#452);
#300=LINE('',#1947,#453);
#301=LINE('',#1949,#454);
#302=LINE('',#1951,#455);
#303=LINE('',#1952,#456);
#304=LINE('',#1959,#457);
#305=LINE('',#1961,#458);
#306=LINE('',#1962,#459);
#307=LINE('',#1965,#460);
#308=LINE('',#1967,#461);
#309=LINE('',#1969,#462);
#310=LINE('',#1971,#463);
#311=LINE('',#1973,#464);
#312=LINE('',#1975,#465);
#313=LINE('',#1977,#466);
#314=LINE('',#1979,#467);
#315=LINE('',#1980,#468);
#316=LINE('',#1982,#469);
#317=LINE('',#1984,#470);
#318=LINE('',#1985,#471);
#319=LINE('',#1986,#472);
#320=LINE('',#1988,#473);
#321=LINE('',#1990,#474);
#322=LINE('',#1991,#475);
#323=LINE('',#1992,#476);
#324=LINE('',#2005,#477);
#325=LINE('',#2007,#478);
#326=LINE('',#2008,#479);
#327=LINE('',#2011,#480);
#328=LINE('',#2013,#481);
#329=LINE('',#2014,#482);
#330=LINE('',#2022,#483);
#331=LINE('',#2023,#484);
#332=LINE('',#2025,#485);
#333=LINE('',#2027,#486);
#334=LINE('',#2031,#487);
#335=LINE('',#2033,#488);
#336=LINE('',#2034,#489);
#337=LINE('',#2036,#490);
#338=LINE('',#2038,#491);
#339=LINE('',#2040,#492);
#340=LINE('',#2041,#493);
#341=LINE('',#2043,#494);
#342=LINE('',#2045,#495);
#343=LINE('',#2046,#496);
#344=LINE('',#2051,#497);
#345=LINE('',#2053,#498);
#346=LINE('',#2055,#499);
#347=LINE('',#2056,#500);
#348=LINE('',#2059,#501);
#349=LINE('',#2060,#502);
#350=LINE('',#2062,#503);
#351=LINE('',#2063,#504);
#352=LINE('',#2066,#505);
#353=LINE('',#2067,#506);
#354=LINE('',#2070,#507);
#355=LINE('',#2071,#508);
#356=LINE('',#2072,#509);
#357=LINE('',#2076,#510);
#358=LINE('',#2077,#511);
#359=LINE('',#2081,#512);
#360=LINE('',#2085,#513);
#361=LINE('',#2089,#514);
#362=LINE('',#2093,#515);
#363=LINE('',#2099,#516);
#364=LINE('',#2103,#517);
#365=LINE('',#2104,#518);
#366=LINE('',#2107,#519);
#367=LINE('',#2108,#520);
#368=LINE('',#2116,#521);
#369=LINE('',#2120,#522);
#370=LINE('',#2121,#523);
#371=LINE('',#2131,#524);
#372=LINE('',#2132,#525);
#373=LINE('',#2135,#526);
#374=LINE('',#2139,#527);
#375=LINE('',#2143,#528);
#376=LINE('',#2147,#529);
#377=LINE('',#2151,#530);
#378=LINE('',#2156,#531);
#379=LINE('',#2157,#532);
#380=LINE('',#2158,#533);
#381=LINE('',#2161,#534);
#382=LINE('',#2162,#535);
#383=LINE('',#2166,#536);
#384=LINE('',#2168,#537);
#385=LINE('',#2169,#538);
#386=LINE('',#2172,#539);
#387=LINE('',#2174,#540);
#388=LINE('',#2175,#541);
#389=LINE('',#2178,#542);
#390=LINE('',#2179,#543);
#391=LINE('',#2181,#544);
#392=LINE('',#2183,#545);
#393=LINE('',#2186,#546);
#394=LINE('',#2187,#547);
#395=LINE('',#2189,#548);
#396=VECTOR('',#1465,10.);
#397=VECTOR('',#1466,10.);
#398=VECTOR('',#1467,10.);
#399=VECTOR('',#1468,10.);
#400=VECTOR('',#1471,10.);
#401=VECTOR('',#1472,10.);
#402=VECTOR('',#1473,10.);
#403=VECTOR('',#1474,10.);
#404=VECTOR('',#1475,10.);
#405=VECTOR('',#1476,10.);
#406=VECTOR('',#1477,10.);
#407=VECTOR('',#1480,10.);
#408=VECTOR('',#1481,10.);
#409=VECTOR('',#1482,10.);
#410=VECTOR('',#1483,10.);
#411=VECTOR('',#1484,10.);
#412=VECTOR('',#1485,10.);
#413=VECTOR('',#1486,10.);
#414=VECTOR('',#1489,10.);
#415=VECTOR('',#1490,10.);
#416=VECTOR('',#1495,10.);
#417=VECTOR('',#1496,10.);
#418=VECTOR('',#1497,10.);
#419=VECTOR('',#1498,10.);
#420=VECTOR('',#1499,10.);
#421=VECTOR('',#1500,10.);
#422=VECTOR('',#1507,10.);
#423=VECTOR('',#1508,10.);
#424=VECTOR('',#1509,10.);
#425=VECTOR('',#1510,10.);
#426=VECTOR('',#1513,10.);
#427=VECTOR('',#1514,10.);
#428=VECTOR('',#1515,10.);
#429=VECTOR('',#1518,10.);
#430=VECTOR('',#1519,10.);
#431=VECTOR('',#1522,10.);
#432=VECTOR('',#1523,10.);
#433=VECTOR('',#1524,10.);
#434=VECTOR('',#1527,10.);
#435=VECTOR('',#1530,10.);
#436=VECTOR('',#1531,10.);
#437=VECTOR('',#1532,10.);
#438=VECTOR('',#1535,10.);
#439=VECTOR('',#1536,10.);
#440=VECTOR('',#1537,10.);
#441=VECTOR('',#1538,10.);
#442=VECTOR('',#1541,10.);
#443=VECTOR('',#1542,10.);
#444=VECTOR('',#1543,10.);
#445=VECTOR('',#1544,10.);
#446=VECTOR('',#1545,10.);
#447=VECTOR('',#1546,10.);
#448=VECTOR('',#1547,10.);
#449=VECTOR('',#1548,10.);
#450=VECTOR('',#1549,10.);
#451=VECTOR('',#1550,10.);
#452=VECTOR('',#1551,10.);
#453=VECTOR('',#1552,10.);
#454=VECTOR('',#1553,10.);
#455=VECTOR('',#1554,10.);
#456=VECTOR('',#1555,10.);
#457=VECTOR('',#1562,10.);
#458=VECTOR('',#1563,10.);
#459=VECTOR('',#1564,10.);
#460=VECTOR('',#1567,10.);
#461=VECTOR('',#1568,10.);
#462=VECTOR('',#1569,10.);
#463=VECTOR('',#1570,10.);
#464=VECTOR('',#1571,10.);
#465=VECTOR('',#1572,10.);
#466=VECTOR('',#1573,10.);
#467=VECTOR('',#1574,10.);
#468=VECTOR('',#1575,10.);
#469=VECTOR('',#1576,10.);
#470=VECTOR('',#1577,10.);
#471=VECTOR('',#1578,10.);
#472=VECTOR('',#1579,10.);
#473=VECTOR('',#1580,10.);
#474=VECTOR('',#1581,10.);
#475=VECTOR('',#1582,10.);
#476=VECTOR('',#1583,10.);
#477=VECTOR('',#1596,10.);
#478=VECTOR('',#1597,10.);
#479=VECTOR('',#1598,10.);
#480=VECTOR('',#1601,10.);
#481=VECTOR('',#1602,10.);
#482=VECTOR('',#1603,10.);
#483=VECTOR('',#1612,10.);
#484=VECTOR('',#1613,10.);
#485=VECTOR('',#1616,10.);
#486=VECTOR('',#1619,10.);
#487=VECTOR('',#1624,10.);
#488=VECTOR('',#1625,10.);
#489=VECTOR('',#1626,10.);
#490=VECTOR('',#1629,2.);
#491=VECTOR('',#1632,2.);
#492=VECTOR('',#1635,10.);
#493=VECTOR('',#1636,10.);
#494=VECTOR('',#1639,10.);
#495=VECTOR('',#1642,10.);
#496=VECTOR('',#1643,10.);
#497=VECTOR('',#1648,10.);
#498=VECTOR('',#1649,10.);
#499=VECTOR('',#1650,10.);
#500=VECTOR('',#1651,10.);
#501=VECTOR('',#1654,10.);
#502=VECTOR('',#1655,10.);
#503=VECTOR('',#1656,10.);
#504=VECTOR('',#1657,10.);
#505=VECTOR('',#1660,10.);
#506=VECTOR('',#1661,10.);
#507=VECTOR('',#1664,10.);
#508=VECTOR('',#1665,10.);
#509=VECTOR('',#1666,10.);
#510=VECTOR('',#1671,10.);
#511=VECTOR('',#1672,10.);
#512=VECTOR('',#1677,2.);
#513=VECTOR('',#1682,2.);
#514=VECTOR('',#1687,1.99999999999999);
#515=VECTOR('',#1694,10.);
#516=VECTOR('',#1701,2.);
#517=VECTOR('',#1706,10.);
#518=VECTOR('',#1707,10.);
#519=VECTOR('',#1710,10.);
#520=VECTOR('',#1711,10.);
#521=VECTOR('',#1722,2.);
#522=VECTOR('',#1727,10.);
#523=VECTOR('',#1728,10.);
#524=VECTOR('',#1747,10.);
#525=VECTOR('',#1748,10.);
#526=VECTOR('',#1751,2.);
#527=VECTOR('',#1756,2.);
#528=VECTOR('',#1761,2.);
#529=VECTOR('',#1766,2.5);
#530=VECTOR('',#1771,2.);
#531=VECTOR('',#1776,10.);
#532=VECTOR('',#1777,10.);
#533=VECTOR('',#1778,10.);
#534=VECTOR('',#1781,10.);
#535=VECTOR('',#1782,10.);
#536=VECTOR('',#1787,10.);
#537=VECTOR('',#1788,10.);
#538=VECTOR('',#1789,10.);
#539=VECTOR('',#1792,10.);
#540=VECTOR('',#1793,10.);
#541=VECTOR('',#1794,10.);
#542=VECTOR('',#1797,10.);
#543=VECTOR('',#1798,10.);
#544=VECTOR('',#1801,10.);
#545=VECTOR('',#1804,10.);
#546=VECTOR('',#1807,10.);
#547=VECTOR('',#1808,10.);
#548=VECTOR('',#1811,10.);
#549=VERTEX_POINT('',#1816);
#550=VERTEX_POINT('',#1817);
#551=VERTEX_POINT('',#1819);
#552=VERTEX_POINT('',#1821);
#553=VERTEX_POINT('',#1825);
#554=VERTEX_POINT('',#1827);
#555=VERTEX_POINT('',#1829);
#556=VERTEX_POINT('',#1831);
#557=VERTEX_POINT('',#1833);
#558=VERTEX_POINT('',#1835);
#559=VERTEX_POINT('',#1837);
#560=VERTEX_POINT('',#1839);
#561=VERTEX_POINT('',#1841);
#562=VERTEX_POINT('',#1843);
#563=VERTEX_POINT('',#1845);
#564=VERTEX_POINT('',#1847);
#565=VERTEX_POINT('',#1850);
#566=VERTEX_POINT('',#1851);
#567=VERTEX_POINT('',#1853);
#568=VERTEX_POINT('',#1855);
#569=VERTEX_POINT('',#1857);
#570=VERTEX_POINT('',#1859);
#571=VERTEX_POINT('',#1861);
#572=VERTEX_POINT('',#1864);
#573=VERTEX_POINT('',#1865);
#574=VERTEX_POINT('',#1867);
#575=VERTEX_POINT('',#1869);
#576=VERTEX_POINT('',#1871);
#577=VERTEX_POINT('',#1873);
#578=VERTEX_POINT('',#1876);
#579=VERTEX_POINT('',#1879);
#580=VERTEX_POINT('',#1880);
#581=VERTEX_POINT('',#1882);
#582=VERTEX_POINT('',#1885);
#583=VERTEX_POINT('',#1889);
#584=VERTEX_POINT('',#1891);
#585=VERTEX_POINT('',#1895);
#586=VERTEX_POINT('',#1899);
#587=VERTEX_POINT('',#1901);
#588=VERTEX_POINT('',#1903);
#589=VERTEX_POINT('',#1905);
#590=VERTEX_POINT('',#1909);
#591=VERTEX_POINT('',#1911);
#592=VERTEX_POINT('',#1915);
#593=VERTEX_POINT('',#1916);
#594=VERTEX_POINT('',#1918);
#595=VERTEX_POINT('',#1920);
#596=VERTEX_POINT('',#1924);
#597=VERTEX_POINT('',#1926);
#598=VERTEX_POINT('',#1928);
#599=VERTEX_POINT('',#1930);
#600=VERTEX_POINT('',#1932);
#601=VERTEX_POINT('',#1934);
#602=VERTEX_POINT('',#1936);
#603=VERTEX_POINT('',#1938);
#604=VERTEX_POINT('',#1941);
#605=VERTEX_POINT('',#1942);
#606=VERTEX_POINT('',#1944);
#607=VERTEX_POINT('',#1946);
#608=VERTEX_POINT('',#1948);
#609=VERTEX_POINT('',#1950);
#610=VERTEX_POINT('',#1953);
#611=VERTEX_POINT('',#1955);
#612=VERTEX_POINT('',#1958);
#613=VERTEX_POINT('',#1960);
#614=VERTEX_POINT('',#1964);
#615=VERTEX_POINT('',#1966);
#616=VERTEX_POINT('',#1968);
#617=VERTEX_POINT('',#1970);
#618=VERTEX_POINT('',#1972);
#619=VERTEX_POINT('',#1974);
#620=VERTEX_POINT('',#1976);
#621=VERTEX_POINT('',#1978);
#622=VERTEX_POINT('',#1981);
#623=VERTEX_POINT('',#1983);
#624=VERTEX_POINT('',#1987);
#625=VERTEX_POINT('',#1989);
#626=VERTEX_POINT('',#1993);
#627=VERTEX_POINT('',#1995);
#628=VERTEX_POINT('',#1997);
#629=VERTEX_POINT('',#1999);
#630=VERTEX_POINT('',#2001);
#631=VERTEX_POINT('',#2004);
#632=VERTEX_POINT('',#2006);
#633=VERTEX_POINT('',#2010);
#634=VERTEX_POINT('',#2012);
#635=VERTEX_POINT('',#2015);
#636=VERTEX_POINT('',#2017);
#637=VERTEX_POINT('',#2019);
#638=VERTEX_POINT('',#2030);
#639=VERTEX_POINT('',#2032);
#640=VERTEX_POINT('',#2049);
#641=VERTEX_POINT('',#2050);
#642=VERTEX_POINT('',#2052);
#643=VERTEX_POINT('',#2054);
#644=VERTEX_POINT('',#2058);
#645=VERTEX_POINT('',#2061);
#646=VERTEX_POINT('',#2065);
#647=VERTEX_POINT('',#2069);
#648=VERTEX_POINT('',#2075);
#649=VERTEX_POINT('',#2079);
#650=VERTEX_POINT('',#2083);
#651=VERTEX_POINT('',#2087);
#652=VERTEX_POINT('',#2096);
#653=VERTEX_POINT('',#2098);
#654=VERTEX_POINT('',#2102);
#655=VERTEX_POINT('',#2106);
#656=VERTEX_POINT('',#2113);
#657=VERTEX_POINT('',#2115);
#658=VERTEX_POINT('',#2119);
#659=VERTEX_POINT('',#2134);
#660=VERTEX_POINT('',#2138);
#661=VERTEX_POINT('',#2142);
#662=VERTEX_POINT('',#2146);
#663=VERTEX_POINT('',#2150);
#664=VERTEX_POINT('',#2154);
#665=VERTEX_POINT('',#2155);
#666=VERTEX_POINT('',#2160);
#667=VERTEX_POINT('',#2165);
#668=VERTEX_POINT('',#2167);
#669=VERTEX_POINT('',#2171);
#670=VERTEX_POINT('',#2173);
#671=VERTEX_POINT('',#2177);
#672=VERTEX_POINT('',#2185);
#673=EDGE_CURVE('',#549,#550,#243,.T.);
#674=EDGE_CURVE('',#550,#551,#244,.T.);
#675=EDGE_CURVE('',#551,#552,#245,.T.);
#676=EDGE_CURVE('',#552,#549,#246,.T.);
#677=EDGE_CURVE('',#550,#553,#247,.T.);
#678=EDGE_CURVE('',#554,#553,#248,.T.);
#679=EDGE_CURVE('',#554,#555,#249,.T.);
#680=EDGE_CURVE('',#556,#555,#250,.T.);
#681=EDGE_CURVE('',#556,#557,#251,.T.);
#682=EDGE_CURVE('',#558,#557,#252,.T.);
#683=EDGE_CURVE('',#558,#559,#253,.T.);
#684=EDGE_CURVE('',#559,#560,#58,.T.);
#685=EDGE_CURVE('',#560,#561,#254,.T.);
#686=EDGE_CURVE('',#562,#561,#255,.T.);
#687=EDGE_CURVE('',#562,#563,#256,.T.);
#688=EDGE_CURVE('',#564,#563,#257,.T.);
#689=EDGE_CURVE('',#551,#564,#258,.T.);
#690=EDGE_CURVE('',#565,#566,#259,.T.);
#691=EDGE_CURVE('',#565,#567,#260,.T.);
#692=EDGE_CURVE('',#567,#568,#59,.T.);
#693=EDGE_CURVE('',#568,#569,#261,.T.);
#694=EDGE_CURVE('',#570,#569,#262,.T.);
#695=EDGE_CURVE('',#570,#571,#60,.T.);
#696=EDGE_CURVE('',#571,#566,#61,.T.);
#697=EDGE_CURVE('',#572,#573,#263,.T.);
#698=EDGE_CURVE('',#574,#573,#264,.T.);
#699=EDGE_CURVE('',#574,#575,#265,.T.);
#700=EDGE_CURVE('',#576,#575,#266,.T.);
#701=EDGE_CURVE('',#576,#577,#267,.T.);
#702=EDGE_CURVE('',#577,#572,#268,.T.);
#703=EDGE_CURVE('',#578,#578,#62,.T.);
#704=EDGE_CURVE('',#579,#580,#31,.T.);
#705=EDGE_CURVE('',#579,#581,#269,.T.);
#706=EDGE_CURVE('',#581,#562,#270,.T.);
#707=EDGE_CURVE('',#582,#561,#271,.T.);
#708=EDGE_CURVE('',#580,#582,#272,.T.);
#709=EDGE_CURVE('',#582,#583,#273,.T.);
#710=EDGE_CURVE('',#584,#583,#274,.T.);
#711=EDGE_CURVE('',#580,#584,#275,.T.);
#712=EDGE_CURVE('',#560,#585,#276,.T.);
#713=EDGE_CURVE('',#583,#585,#277,.T.);
#714=EDGE_CURVE('',#558,#586,#278,.T.);
#715=EDGE_CURVE('',#557,#587,#279,.T.);
#716=EDGE_CURVE('',#587,#588,#280,.T.);
#717=EDGE_CURVE('',#589,#588,#32,.T.);
#718=EDGE_CURVE('',#586,#589,#281,.T.);
#719=EDGE_CURVE('',#586,#590,#282,.T.);
#720=EDGE_CURVE('',#591,#590,#283,.T.);
#721=EDGE_CURVE('',#559,#591,#284,.T.);
#722=EDGE_CURVE('',#592,#593,#285,.T.);
#723=EDGE_CURVE('',#593,#594,#286,.T.);
#724=EDGE_CURVE('',#594,#595,#287,.T.);
#725=EDGE_CURVE('',#595,#592,#288,.T.);
#726=EDGE_CURVE('',#593,#596,#289,.T.);
#727=EDGE_CURVE('',#597,#596,#290,.T.);
#728=EDGE_CURVE('',#597,#598,#291,.T.);
#729=EDGE_CURVE('',#599,#598,#292,.T.);
#730=EDGE_CURVE('',#599,#600,#293,.T.);
#731=EDGE_CURVE('',#601,#600,#294,.T.);
#732=EDGE_CURVE('',#601,#602,#295,.T.);
#733=EDGE_CURVE('',#603,#602,#296,.T.);
#734=EDGE_CURVE('',#594,#603,#297,.T.);
#735=EDGE_CURVE('',#604,#605,#298,.T.);
#736=EDGE_CURVE('',#605,#606,#299,.T.);
#737=EDGE_CURVE('',#606,#607,#300,.T.);
#738=EDGE_CURVE('',#608,#607,#301,.T.);
#739=EDGE_CURVE('',#608,#609,#302,.T.);
#740=EDGE_CURVE('',#604,#609,#303,.T.);
#741=EDGE_CURVE('',#610,#610,#63,.T.);
#742=EDGE_CURVE('',#611,#611,#64,.T.);
#743=EDGE_CURVE('',#600,#612,#304,.T.);
#744=EDGE_CURVE('',#612,#613,#305,.T.);
#745=EDGE_CURVE('',#613,#601,#306,.T.);
#746=EDGE_CURVE('',#552,#614,#307,.T.);
#747=EDGE_CURVE('',#615,#614,#308,.T.);
#748=EDGE_CURVE('',#616,#615,#309,.T.);
#749=EDGE_CURVE('',#617,#616,#310,.T.);
#750=EDGE_CURVE('',#617,#618,#311,.T.);
#751=EDGE_CURVE('',#619,#618,#312,.T.);
#752=EDGE_CURVE('',#620,#619,#313,.T.);
#753=EDGE_CURVE('',#621,#620,#314,.T.);
#754=EDGE_CURVE('',#581,#621,#315,.T.);
#755=EDGE_CURVE('',#579,#622,#316,.T.);
#756=EDGE_CURVE('',#622,#623,#317,.T.);
#757=EDGE_CURVE('',#623,#588,#318,.T.);
#758=EDGE_CURVE('',#587,#592,#319,.T.);
#759=EDGE_CURVE('',#624,#595,#320,.T.);
#760=EDGE_CURVE('',#625,#624,#321,.T.);
#761=EDGE_CURVE('',#625,#613,#322,.T.);
#762=EDGE_CURVE('',#549,#612,#323,.T.);
#763=EDGE_CURVE('',#626,#626,#65,.T.);
#764=EDGE_CURVE('',#627,#627,#66,.T.);
#765=EDGE_CURVE('',#628,#628,#67,.T.);
#766=EDGE_CURVE('',#629,#629,#68,.T.);
#767=EDGE_CURVE('',#630,#630,#69,.T.);
#768=EDGE_CURVE('',#624,#631,#324,.T.);
#769=EDGE_CURVE('',#631,#632,#325,.T.);
#770=EDGE_CURVE('',#632,#625,#326,.T.);
#771=EDGE_CURVE('',#631,#633,#327,.T.);
#772=EDGE_CURVE('',#633,#634,#328,.T.);
#773=EDGE_CURVE('',#634,#632,#329,.T.);
#774=EDGE_CURVE('',#635,#635,#70,.T.);
#775=EDGE_CURVE('',#636,#636,#71,.T.);
#776=EDGE_CURVE('',#637,#637,#72,.T.);
#777=EDGE_CURVE('',#598,#554,#330,.T.);
#778=EDGE_CURVE('',#553,#599,#331,.T.);
#779=EDGE_CURVE('',#555,#597,#332,.T.);
#780=EDGE_CURVE('',#596,#556,#333,.T.);
#781=EDGE_CURVE('',#570,#566,#33,.F.);
#782=EDGE_CURVE('',#569,#638,#334,.T.);
#783=EDGE_CURVE('',#639,#638,#335,.T.);
#784=EDGE_CURVE('',#639,#565,#336,.T.);
#785=EDGE_CURVE('',#611,#571,#337,.T.);
#786=EDGE_CURVE('',#610,#578,#338,.T.);
#787=EDGE_CURVE('',#573,#604,#339,.T.);
#788=EDGE_CURVE('',#609,#574,#340,.T.);
#789=EDGE_CURVE('',#572,#605,#341,.T.);
#790=EDGE_CURVE('',#575,#608,#342,.T.);
#791=EDGE_CURVE('',#607,#576,#343,.T.);
#792=EDGE_CURVE('',#640,#641,#344,.T.);
#793=EDGE_CURVE('',#642,#640,#345,.T.);
#794=EDGE_CURVE('',#643,#642,#346,.T.);
#795=EDGE_CURVE('',#641,#643,#347,.T.);
#796=EDGE_CURVE('',#644,#642,#348,.T.);
#797=EDGE_CURVE('',#619,#644,#349,.T.);
#798=EDGE_CURVE('',#645,#619,#350,.T.);
#799=EDGE_CURVE('',#643,#645,#351,.T.);
#800=EDGE_CURVE('',#646,#644,#352,.T.);
#801=EDGE_CURVE('',#620,#646,#353,.T.);
#802=EDGE_CURVE('',#620,#647,#354,.T.);
#803=EDGE_CURVE('',#640,#646,#355,.T.);
#804=EDGE_CURVE('',#647,#641,#356,.T.);
#805=EDGE_CURVE('',#647,#648,#357,.T.);
#806=EDGE_CURVE('',#648,#621,#358,.T.);
#807=EDGE_CURVE('',#649,#649,#73,.T.);
#808=EDGE_CURVE('',#649,#637,#359,.T.);
#809=EDGE_CURVE('',#650,#650,#74,.T.);
#810=EDGE_CURVE('',#650,#636,#360,.T.);
#811=EDGE_CURVE('',#651,#651,#75,.T.);
#812=EDGE_CURVE('',#651,#635,#361,.T.);
#813=EDGE_CURVE('',#577,#606,#362,.T.);
#814=EDGE_CURVE('',#652,#652,#76,.T.);
#815=EDGE_CURVE('',#652,#653,#363,.T.);
#816=EDGE_CURVE('',#653,#653,#77,.T.);
#817=EDGE_CURVE('',#568,#654,#364,.T.);
#818=EDGE_CURVE('',#638,#654,#365,.T.);
#819=EDGE_CURVE('',#655,#639,#366,.T.);
#820=EDGE_CURVE('',#567,#655,#367,.T.);
#821=EDGE_CURVE('',#654,#655,#78,.T.);
#822=EDGE_CURVE('',#656,#656,#79,.T.);
#823=EDGE_CURVE('',#656,#657,#368,.T.);
#824=EDGE_CURVE('',#657,#657,#80,.T.);
#825=EDGE_CURVE('',#589,#658,#369,.T.);
#826=EDGE_CURVE('',#590,#658,#370,.T.);
#827=EDGE_CURVE('',#585,#591,#81,.T.);
#828=EDGE_CURVE('',#622,#584,#82,.T.);
#829=EDGE_CURVE('',#658,#623,#83,.T.);
#830=EDGE_CURVE('',#602,#564,#371,.T.);
#831=EDGE_CURVE('',#563,#603,#372,.T.);
#832=EDGE_CURVE('',#630,#659,#373,.T.);
#833=EDGE_CURVE('',#659,#659,#84,.T.);
#834=EDGE_CURVE('',#629,#660,#374,.T.);
#835=EDGE_CURVE('',#660,#660,#85,.T.);
#836=EDGE_CURVE('',#628,#661,#375,.T.);
#837=EDGE_CURVE('',#661,#661,#86,.T.);
#838=EDGE_CURVE('',#627,#662,#376,.T.);
#839=EDGE_CURVE('',#662,#662,#87,.T.);
#840=EDGE_CURVE('',#626,#663,#377,.T.);
#841=EDGE_CURVE('',#663,#663,#88,.T.);
#842=EDGE_CURVE('',#664,#665,#378,.T.);
#843=EDGE_CURVE('',#617,#665,#379,.T.);
#844=EDGE_CURVE('',#664,#616,#380,.T.);
#845=EDGE_CURVE('',#666,#615,#381,.T.);
#846=EDGE_CURVE('',#664,#666,#382,.T.);
#847=EDGE_CURVE('',#633,#667,#383,.T.);
#848=EDGE_CURVE('',#668,#667,#384,.T.);
#849=EDGE_CURVE('',#634,#668,#385,.T.);
#850=EDGE_CURVE('',#667,#669,#386,.T.);
#851=EDGE_CURVE('',#669,#670,#387,.T.);
#852=EDGE_CURVE('',#670,#668,#388,.T.);
#853=EDGE_CURVE('',#671,#670,#389,.T.);
#854=EDGE_CURVE('',#614,#671,#390,.T.);
#855=EDGE_CURVE('',#671,#666,#391,.T.);
#856=EDGE_CURVE('',#669,#648,#392,.T.);
#857=EDGE_CURVE('',#672,#645,#393,.T.);
#858=EDGE_CURVE('',#665,#672,#394,.T.);
#859=EDGE_CURVE('',#618,#672,#395,.T.);
#860=ORIENTED_EDGE('',*,*,#673,.T.);
#861=ORIENTED_EDGE('',*,*,#674,.T.);
#862=ORIENTED_EDGE('',*,*,#675,.T.);
#863=ORIENTED_EDGE('',*,*,#676,.T.);
#864=ORIENTED_EDGE('',*,*,#674,.F.);
#865=ORIENTED_EDGE('',*,*,#677,.T.);
#866=ORIENTED_EDGE('',*,*,#678,.F.);
#867=ORIENTED_EDGE('',*,*,#679,.T.);
#868=ORIENTED_EDGE('',*,*,#680,.F.);
#869=ORIENTED_EDGE('',*,*,#681,.T.);
#870=ORIENTED_EDGE('',*,*,#682,.F.);
#871=ORIENTED_EDGE('',*,*,#683,.T.);
#872=ORIENTED_EDGE('',*,*,#684,.T.);
#873=ORIENTED_EDGE('',*,*,#685,.T.);
#874=ORIENTED_EDGE('',*,*,#686,.F.);
#875=ORIENTED_EDGE('',*,*,#687,.T.);
#876=ORIENTED_EDGE('',*,*,#688,.F.);
#877=ORIENTED_EDGE('',*,*,#689,.F.);
#878=ORIENTED_EDGE('',*,*,#690,.F.);
#879=ORIENTED_EDGE('',*,*,#691,.T.);
#880=ORIENTED_EDGE('',*,*,#692,.T.);
#881=ORIENTED_EDGE('',*,*,#693,.T.);
#882=ORIENTED_EDGE('',*,*,#694,.F.);
#883=ORIENTED_EDGE('',*,*,#695,.T.);
#884=ORIENTED_EDGE('',*,*,#696,.T.);
#885=ORIENTED_EDGE('',*,*,#697,.T.);
#886=ORIENTED_EDGE('',*,*,#698,.F.);
#887=ORIENTED_EDGE('',*,*,#699,.T.);
#888=ORIENTED_EDGE('',*,*,#700,.F.);
#889=ORIENTED_EDGE('',*,*,#701,.T.);
#890=ORIENTED_EDGE('',*,*,#702,.T.);
#891=ORIENTED_EDGE('',*,*,#703,.T.);
#892=ORIENTED_EDGE('',*,*,#704,.F.);
#893=ORIENTED_EDGE('',*,*,#705,.T.);
#894=ORIENTED_EDGE('',*,*,#706,.T.);
#895=ORIENTED_EDGE('',*,*,#686,.T.);
#896=ORIENTED_EDGE('',*,*,#707,.F.);
#897=ORIENTED_EDGE('',*,*,#708,.F.);
#898=ORIENTED_EDGE('',*,*,#708,.T.);
#899=ORIENTED_EDGE('',*,*,#709,.T.);
#900=ORIENTED_EDGE('',*,*,#710,.F.);
#901=ORIENTED_EDGE('',*,*,#711,.F.);
#902=ORIENTED_EDGE('',*,*,#707,.T.);
#903=ORIENTED_EDGE('',*,*,#685,.F.);
#904=ORIENTED_EDGE('',*,*,#712,.T.);
#905=ORIENTED_EDGE('',*,*,#713,.F.);
#906=ORIENTED_EDGE('',*,*,#709,.F.);
#907=ORIENTED_EDGE('',*,*,#714,.F.);
#908=ORIENTED_EDGE('',*,*,#682,.T.);
#909=ORIENTED_EDGE('',*,*,#715,.T.);
#910=ORIENTED_EDGE('',*,*,#716,.T.);
#911=ORIENTED_EDGE('',*,*,#717,.F.);
#912=ORIENTED_EDGE('',*,*,#718,.F.);
#913=ORIENTED_EDGE('',*,*,#714,.T.);
#914=ORIENTED_EDGE('',*,*,#719,.T.);
#915=ORIENTED_EDGE('',*,*,#720,.F.);
#916=ORIENTED_EDGE('',*,*,#721,.F.);
#917=ORIENTED_EDGE('',*,*,#683,.F.);
#918=ORIENTED_EDGE('',*,*,#722,.T.);
#919=ORIENTED_EDGE('',*,*,#723,.T.);
#920=ORIENTED_EDGE('',*,*,#724,.T.);
#921=ORIENTED_EDGE('',*,*,#725,.T.);
#922=ORIENTED_EDGE('',*,*,#723,.F.);
#923=ORIENTED_EDGE('',*,*,#726,.T.);
#924=ORIENTED_EDGE('',*,*,#727,.F.);
#925=ORIENTED_EDGE('',*,*,#728,.T.);
#926=ORIENTED_EDGE('',*,*,#729,.F.);
#927=ORIENTED_EDGE('',*,*,#730,.T.);
#928=ORIENTED_EDGE('',*,*,#731,.F.);
#929=ORIENTED_EDGE('',*,*,#732,.T.);
#930=ORIENTED_EDGE('',*,*,#733,.F.);
#931=ORIENTED_EDGE('',*,*,#734,.F.);
#932=ORIENTED_EDGE('',*,*,#735,.T.);
#933=ORIENTED_EDGE('',*,*,#736,.T.);
#934=ORIENTED_EDGE('',*,*,#737,.T.);
#935=ORIENTED_EDGE('',*,*,#738,.F.);
#936=ORIENTED_EDGE('',*,*,#739,.T.);
#937=ORIENTED_EDGE('',*,*,#740,.F.);
#938=ORIENTED_EDGE('',*,*,#741,.T.);
#939=ORIENTED_EDGE('',*,*,#742,.T.);
#940=ORIENTED_EDGE('',*,*,#743,.T.);
#941=ORIENTED_EDGE('',*,*,#744,.T.);
#942=ORIENTED_EDGE('',*,*,#745,.T.);
#943=ORIENTED_EDGE('',*,*,#731,.T.);
#944=ORIENTED_EDGE('',*,*,#676,.F.);
#945=ORIENTED_EDGE('',*,*,#746,.T.);
#946=ORIENTED_EDGE('',*,*,#747,.F.);
#947=ORIENTED_EDGE('',*,*,#748,.F.);
#948=ORIENTED_EDGE('',*,*,#749,.F.);
#949=ORIENTED_EDGE('',*,*,#750,.T.);
#950=ORIENTED_EDGE('',*,*,#751,.F.);
#951=ORIENTED_EDGE('',*,*,#752,.F.);
#952=ORIENTED_EDGE('',*,*,#753,.F.);
#953=ORIENTED_EDGE('',*,*,#754,.F.);
#954=ORIENTED_EDGE('',*,*,#705,.F.);
#955=ORIENTED_EDGE('',*,*,#755,.T.);
#956=ORIENTED_EDGE('',*,*,#756,.T.);
#957=ORIENTED_EDGE('',*,*,#757,.T.);
#958=ORIENTED_EDGE('',*,*,#716,.F.);
#959=ORIENTED_EDGE('',*,*,#758,.T.);
#960=ORIENTED_EDGE('',*,*,#725,.F.);
#961=ORIENTED_EDGE('',*,*,#759,.F.);
#962=ORIENTED_EDGE('',*,*,#760,.F.);
#963=ORIENTED_EDGE('',*,*,#761,.T.);
#964=ORIENTED_EDGE('',*,*,#744,.F.);
#965=ORIENTED_EDGE('',*,*,#762,.F.);
#966=ORIENTED_EDGE('',*,*,#763,.T.);
#967=ORIENTED_EDGE('',*,*,#764,.T.);
#968=ORIENTED_EDGE('',*,*,#765,.T.);
#969=ORIENTED_EDGE('',*,*,#766,.T.);
#970=ORIENTED_EDGE('',*,*,#767,.T.);
#971=ORIENTED_EDGE('',*,*,#768,.T.);
#972=ORIENTED_EDGE('',*,*,#769,.T.);
#973=ORIENTED_EDGE('',*,*,#770,.T.);
#974=ORIENTED_EDGE('',*,*,#760,.T.);
#975=ORIENTED_EDGE('',*,*,#769,.F.);
#976=ORIENTED_EDGE('',*,*,#771,.T.);
#977=ORIENTED_EDGE('',*,*,#772,.T.);
#978=ORIENTED_EDGE('',*,*,#773,.T.);
#979=ORIENTED_EDGE('',*,*,#774,.T.);
#980=ORIENTED_EDGE('',*,*,#775,.T.);
#981=ORIENTED_EDGE('',*,*,#776,.T.);
#982=ORIENTED_EDGE('',*,*,#729,.T.);
#983=ORIENTED_EDGE('',*,*,#777,.T.);
#984=ORIENTED_EDGE('',*,*,#678,.T.);
#985=ORIENTED_EDGE('',*,*,#778,.T.);
#986=ORIENTED_EDGE('',*,*,#777,.F.);
#987=ORIENTED_EDGE('',*,*,#728,.F.);
#988=ORIENTED_EDGE('',*,*,#779,.F.);
#989=ORIENTED_EDGE('',*,*,#679,.F.);
#990=ORIENTED_EDGE('',*,*,#680,.T.);
#991=ORIENTED_EDGE('',*,*,#779,.T.);
#992=ORIENTED_EDGE('',*,*,#727,.T.);
#993=ORIENTED_EDGE('',*,*,#780,.T.);
#994=ORIENTED_EDGE('',*,*,#781,.F.);
#995=ORIENTED_EDGE('',*,*,#694,.T.);
#996=ORIENTED_EDGE('',*,*,#782,.T.);
#997=ORIENTED_EDGE('',*,*,#783,.F.);
#998=ORIENTED_EDGE('',*,*,#784,.T.);
#999=ORIENTED_EDGE('',*,*,#690,.T.);
#1000=ORIENTED_EDGE('',*,*,#742,.F.);
#1001=ORIENTED_EDGE('',*,*,#785,.T.);
#1002=ORIENTED_EDGE('',*,*,#695,.F.);
#1003=ORIENTED_EDGE('',*,*,#781,.T.);
#1004=ORIENTED_EDGE('',*,*,#696,.F.);
#1005=ORIENTED_EDGE('',*,*,#785,.F.);
#1006=ORIENTED_EDGE('',*,*,#741,.F.);
#1007=ORIENTED_EDGE('',*,*,#786,.T.);
#1008=ORIENTED_EDGE('',*,*,#703,.F.);
#1009=ORIENTED_EDGE('',*,*,#786,.F.);
#1010=ORIENTED_EDGE('',*,*,#698,.T.);
#1011=ORIENTED_EDGE('',*,*,#787,.T.);
#1012=ORIENTED_EDGE('',*,*,#740,.T.);
#1013=ORIENTED_EDGE('',*,*,#788,.T.);
#1014=ORIENTED_EDGE('',*,*,#787,.F.);
#1015=ORIENTED_EDGE('',*,*,#697,.F.);
#1016=ORIENTED_EDGE('',*,*,#789,.T.);
#1017=ORIENTED_EDGE('',*,*,#735,.F.);
#1018=ORIENTED_EDGE('',*,*,#700,.T.);
#1019=ORIENTED_EDGE('',*,*,#790,.T.);
#1020=ORIENTED_EDGE('',*,*,#738,.T.);
#1021=ORIENTED_EDGE('',*,*,#791,.T.);
#1022=ORIENTED_EDGE('',*,*,#788,.F.);
#1023=ORIENTED_EDGE('',*,*,#739,.F.);
#1024=ORIENTED_EDGE('',*,*,#790,.F.);
#1025=ORIENTED_EDGE('',*,*,#699,.F.);
#1026=ORIENTED_EDGE('',*,*,#792,.F.);
#1027=ORIENTED_EDGE('',*,*,#793,.F.);
#1028=ORIENTED_EDGE('',*,*,#794,.F.);
#1029=ORIENTED_EDGE('',*,*,#795,.F.);
#1030=ORIENTED_EDGE('',*,*,#794,.T.);
#1031=ORIENTED_EDGE('',*,*,#796,.F.);
#1032=ORIENTED_EDGE('',*,*,#797,.F.);
#1033=ORIENTED_EDGE('',*,*,#798,.F.);
#1034=ORIENTED_EDGE('',*,*,#799,.F.);
#1035=ORIENTED_EDGE('',*,*,#752,.T.);
#1036=ORIENTED_EDGE('',*,*,#797,.T.);
#1037=ORIENTED_EDGE('',*,*,#800,.F.);
#1038=ORIENTED_EDGE('',*,*,#801,.F.);
#1039=ORIENTED_EDGE('',*,*,#802,.F.);
#1040=ORIENTED_EDGE('',*,*,#801,.T.);
#1041=ORIENTED_EDGE('',*,*,#803,.F.);
#1042=ORIENTED_EDGE('',*,*,#792,.T.);
#1043=ORIENTED_EDGE('',*,*,#804,.F.);
#1044=ORIENTED_EDGE('',*,*,#803,.T.);
#1045=ORIENTED_EDGE('',*,*,#800,.T.);
#1046=ORIENTED_EDGE('',*,*,#796,.T.);
#1047=ORIENTED_EDGE('',*,*,#793,.T.);
#1048=ORIENTED_EDGE('',*,*,#802,.T.);
#1049=ORIENTED_EDGE('',*,*,#805,.T.);
#1050=ORIENTED_EDGE('',*,*,#806,.T.);
#1051=ORIENTED_EDGE('',*,*,#753,.T.);
#1052=ORIENTED_EDGE('',*,*,#807,.F.);
#1053=ORIENTED_EDGE('',*,*,#808,.T.);
#1054=ORIENTED_EDGE('',*,*,#776,.F.);
#1055=ORIENTED_EDGE('',*,*,#808,.F.);
#1056=ORIENTED_EDGE('',*,*,#809,.F.);
#1057=ORIENTED_EDGE('',*,*,#810,.T.);
#1058=ORIENTED_EDGE('',*,*,#775,.F.);
#1059=ORIENTED_EDGE('',*,*,#810,.F.);
#1060=ORIENTED_EDGE('',*,*,#811,.F.);
#1061=ORIENTED_EDGE('',*,*,#812,.T.);
#1062=ORIENTED_EDGE('',*,*,#774,.F.);
#1063=ORIENTED_EDGE('',*,*,#812,.F.);
#1064=ORIENTED_EDGE('',*,*,#778,.F.);
#1065=ORIENTED_EDGE('',*,*,#677,.F.);
#1066=ORIENTED_EDGE('',*,*,#673,.F.);
#1067=ORIENTED_EDGE('',*,*,#762,.T.);
#1068=ORIENTED_EDGE('',*,*,#743,.F.);
#1069=ORIENTED_EDGE('',*,*,#730,.F.);
#1070=ORIENTED_EDGE('',*,*,#780,.F.);
#1071=ORIENTED_EDGE('',*,*,#726,.F.);
#1072=ORIENTED_EDGE('',*,*,#722,.F.);
#1073=ORIENTED_EDGE('',*,*,#758,.F.);
#1074=ORIENTED_EDGE('',*,*,#715,.F.);
#1075=ORIENTED_EDGE('',*,*,#681,.F.);
#1076=ORIENTED_EDGE('',*,*,#702,.F.);
#1077=ORIENTED_EDGE('',*,*,#813,.T.);
#1078=ORIENTED_EDGE('',*,*,#736,.F.);
#1079=ORIENTED_EDGE('',*,*,#789,.F.);
#1080=ORIENTED_EDGE('',*,*,#791,.F.);
#1081=ORIENTED_EDGE('',*,*,#737,.F.);
#1082=ORIENTED_EDGE('',*,*,#813,.F.);
#1083=ORIENTED_EDGE('',*,*,#701,.F.);
#1084=ORIENTED_EDGE('',*,*,#814,.F.);
#1085=ORIENTED_EDGE('',*,*,#815,.T.);
#1086=ORIENTED_EDGE('',*,*,#816,.F.);
#1087=ORIENTED_EDGE('',*,*,#815,.F.);
#1088=ORIENTED_EDGE('',*,*,#693,.F.);
#1089=ORIENTED_EDGE('',*,*,#817,.T.);
#1090=ORIENTED_EDGE('',*,*,#818,.F.);
#1091=ORIENTED_EDGE('',*,*,#782,.F.);
#1092=ORIENTED_EDGE('',*,*,#691,.F.);
#1093=ORIENTED_EDGE('',*,*,#784,.F.);
#1094=ORIENTED_EDGE('',*,*,#819,.F.);
#1095=ORIENTED_EDGE('',*,*,#820,.F.);
#1096=ORIENTED_EDGE('',*,*,#692,.F.);
#1097=ORIENTED_EDGE('',*,*,#820,.T.);
#1098=ORIENTED_EDGE('',*,*,#821,.F.);
#1099=ORIENTED_EDGE('',*,*,#817,.F.);
#1100=ORIENTED_EDGE('',*,*,#821,.T.);
#1101=ORIENTED_EDGE('',*,*,#819,.T.);
#1102=ORIENTED_EDGE('',*,*,#783,.T.);
#1103=ORIENTED_EDGE('',*,*,#818,.T.);
#1104=ORIENTED_EDGE('',*,*,#814,.T.);
#1105=ORIENTED_EDGE('',*,*,#822,.F.);
#1106=ORIENTED_EDGE('',*,*,#823,.T.);
#1107=ORIENTED_EDGE('',*,*,#824,.F.);
#1108=ORIENTED_EDGE('',*,*,#823,.F.);
#1109=ORIENTED_EDGE('',*,*,#718,.T.);
#1110=ORIENTED_EDGE('',*,*,#825,.T.);
#1111=ORIENTED_EDGE('',*,*,#826,.F.);
#1112=ORIENTED_EDGE('',*,*,#719,.F.);
#1113=ORIENTED_EDGE('',*,*,#684,.F.);
#1114=ORIENTED_EDGE('',*,*,#721,.T.);
#1115=ORIENTED_EDGE('',*,*,#827,.F.);
#1116=ORIENTED_EDGE('',*,*,#712,.F.);
#1117=ORIENTED_EDGE('',*,*,#704,.T.);
#1118=ORIENTED_EDGE('',*,*,#711,.T.);
#1119=ORIENTED_EDGE('',*,*,#828,.F.);
#1120=ORIENTED_EDGE('',*,*,#755,.F.);
#1121=ORIENTED_EDGE('',*,*,#717,.T.);
#1122=ORIENTED_EDGE('',*,*,#757,.F.);
#1123=ORIENTED_EDGE('',*,*,#829,.F.);
#1124=ORIENTED_EDGE('',*,*,#825,.F.);
#1125=ORIENTED_EDGE('',*,*,#829,.T.);
#1126=ORIENTED_EDGE('',*,*,#756,.F.);
#1127=ORIENTED_EDGE('',*,*,#828,.T.);
#1128=ORIENTED_EDGE('',*,*,#710,.T.);
#1129=ORIENTED_EDGE('',*,*,#713,.T.);
#1130=ORIENTED_EDGE('',*,*,#827,.T.);
#1131=ORIENTED_EDGE('',*,*,#720,.T.);
#1132=ORIENTED_EDGE('',*,*,#826,.T.);
#1133=ORIENTED_EDGE('',*,*,#822,.T.);
#1134=ORIENTED_EDGE('',*,*,#824,.T.);
#1135=ORIENTED_EDGE('',*,*,#733,.T.);
#1136=ORIENTED_EDGE('',*,*,#830,.T.);
#1137=ORIENTED_EDGE('',*,*,#688,.T.);
#1138=ORIENTED_EDGE('',*,*,#831,.T.);
#1139=ORIENTED_EDGE('',*,*,#767,.F.);
#1140=ORIENTED_EDGE('',*,*,#832,.T.);
#1141=ORIENTED_EDGE('',*,*,#833,.F.);
#1142=ORIENTED_EDGE('',*,*,#832,.F.);
#1143=ORIENTED_EDGE('',*,*,#766,.F.);
#1144=ORIENTED_EDGE('',*,*,#834,.T.);
#1145=ORIENTED_EDGE('',*,*,#835,.F.);
#1146=ORIENTED_EDGE('',*,*,#834,.F.);
#1147=ORIENTED_EDGE('',*,*,#765,.F.);
#1148=ORIENTED_EDGE('',*,*,#836,.T.);
#1149=ORIENTED_EDGE('',*,*,#837,.F.);
#1150=ORIENTED_EDGE('',*,*,#836,.F.);
#1151=ORIENTED_EDGE('',*,*,#764,.F.);
#1152=ORIENTED_EDGE('',*,*,#838,.T.);
#1153=ORIENTED_EDGE('',*,*,#839,.F.);
#1154=ORIENTED_EDGE('',*,*,#838,.F.);
#1155=ORIENTED_EDGE('',*,*,#763,.F.);
#1156=ORIENTED_EDGE('',*,*,#840,.T.);
#1157=ORIENTED_EDGE('',*,*,#841,.F.);
#1158=ORIENTED_EDGE('',*,*,#840,.F.);
#1159=ORIENTED_EDGE('',*,*,#842,.T.);
#1160=ORIENTED_EDGE('',*,*,#843,.F.);
#1161=ORIENTED_EDGE('',*,*,#749,.T.);
#1162=ORIENTED_EDGE('',*,*,#844,.F.);
#1163=ORIENTED_EDGE('',*,*,#844,.T.);
#1164=ORIENTED_EDGE('',*,*,#748,.T.);
#1165=ORIENTED_EDGE('',*,*,#845,.F.);
#1166=ORIENTED_EDGE('',*,*,#846,.F.);
#1167=ORIENTED_EDGE('',*,*,#816,.T.);
#1168=ORIENTED_EDGE('',*,*,#772,.F.);
#1169=ORIENTED_EDGE('',*,*,#847,.T.);
#1170=ORIENTED_EDGE('',*,*,#848,.F.);
#1171=ORIENTED_EDGE('',*,*,#849,.F.);
#1172=ORIENTED_EDGE('',*,*,#850,.T.);
#1173=ORIENTED_EDGE('',*,*,#851,.T.);
#1174=ORIENTED_EDGE('',*,*,#852,.T.);
#1175=ORIENTED_EDGE('',*,*,#848,.T.);
#1176=ORIENTED_EDGE('',*,*,#807,.T.);
#1177=ORIENTED_EDGE('',*,*,#809,.T.);
#1178=ORIENTED_EDGE('',*,*,#811,.T.);
#1179=ORIENTED_EDGE('',*,*,#853,.F.);
#1180=ORIENTED_EDGE('',*,*,#854,.F.);
#1181=ORIENTED_EDGE('',*,*,#746,.F.);
#1182=ORIENTED_EDGE('',*,*,#675,.F.);
#1183=ORIENTED_EDGE('',*,*,#689,.T.);
#1184=ORIENTED_EDGE('',*,*,#830,.F.);
#1185=ORIENTED_EDGE('',*,*,#732,.F.);
#1186=ORIENTED_EDGE('',*,*,#745,.F.);
#1187=ORIENTED_EDGE('',*,*,#761,.F.);
#1188=ORIENTED_EDGE('',*,*,#770,.F.);
#1189=ORIENTED_EDGE('',*,*,#773,.F.);
#1190=ORIENTED_EDGE('',*,*,#849,.T.);
#1191=ORIENTED_EDGE('',*,*,#852,.F.);
#1192=ORIENTED_EDGE('',*,*,#855,.T.);
#1193=ORIENTED_EDGE('',*,*,#845,.T.);
#1194=ORIENTED_EDGE('',*,*,#747,.T.);
#1195=ORIENTED_EDGE('',*,*,#854,.T.);
#1196=ORIENTED_EDGE('',*,*,#759,.T.);
#1197=ORIENTED_EDGE('',*,*,#724,.F.);
#1198=ORIENTED_EDGE('',*,*,#734,.T.);
#1199=ORIENTED_EDGE('',*,*,#831,.F.);
#1200=ORIENTED_EDGE('',*,*,#687,.F.);
#1201=ORIENTED_EDGE('',*,*,#706,.F.);
#1202=ORIENTED_EDGE('',*,*,#754,.T.);
#1203=ORIENTED_EDGE('',*,*,#806,.F.);
#1204=ORIENTED_EDGE('',*,*,#856,.F.);
#1205=ORIENTED_EDGE('',*,*,#850,.F.);
#1206=ORIENTED_EDGE('',*,*,#847,.F.);
#1207=ORIENTED_EDGE('',*,*,#771,.F.);
#1208=ORIENTED_EDGE('',*,*,#768,.F.);
#1209=ORIENTED_EDGE('',*,*,#856,.T.);
#1210=ORIENTED_EDGE('',*,*,#805,.F.);
#1211=ORIENTED_EDGE('',*,*,#804,.T.);
#1212=ORIENTED_EDGE('',*,*,#795,.T.);
#1213=ORIENTED_EDGE('',*,*,#799,.T.);
#1214=ORIENTED_EDGE('',*,*,#857,.F.);
#1215=ORIENTED_EDGE('',*,*,#858,.F.);
#1216=ORIENTED_EDGE('',*,*,#842,.F.);
#1217=ORIENTED_EDGE('',*,*,#846,.T.);
#1218=ORIENTED_EDGE('',*,*,#855,.F.);
#1219=ORIENTED_EDGE('',*,*,#853,.T.);
#1220=ORIENTED_EDGE('',*,*,#851,.F.);
#1221=ORIENTED_EDGE('',*,*,#841,.T.);
#1222=ORIENTED_EDGE('',*,*,#839,.T.);
#1223=ORIENTED_EDGE('',*,*,#837,.T.);
#1224=ORIENTED_EDGE('',*,*,#835,.T.);
#1225=ORIENTED_EDGE('',*,*,#833,.T.);
#1226=ORIENTED_EDGE('',*,*,#843,.T.);
#1227=ORIENTED_EDGE('',*,*,#858,.T.);
#1228=ORIENTED_EDGE('',*,*,#859,.F.);
#1229=ORIENTED_EDGE('',*,*,#750,.F.);
#1230=ORIENTED_EDGE('',*,*,#798,.T.);
#1231=ORIENTED_EDGE('',*,*,#751,.T.);
#1232=ORIENTED_EDGE('',*,*,#859,.T.);
#1233=ORIENTED_EDGE('',*,*,#857,.T.);
#1234=PLANE('',#1362);
#1235=PLANE('',#1363);
#1236=PLANE('',#1369);
#1237=PLANE('',#1371);
#1238=PLANE('',#1372);
#1239=PLANE('',#1373);
#1240=PLANE('',#1375);
#1241=PLANE('',#1376);
#1242=PLANE('',#1377);
#1243=PLANE('',#1380);
#1244=PLANE('',#1381);
#1245=PLANE('',#1387);
#1246=PLANE('',#1388);
#1247=PLANE('',#1392);
#1248=PLANE('',#1393);
#1249=PLANE('',#1394);
#1250=PLANE('',#1395);
#1251=PLANE('',#1399);
#1252=PLANE('',#1400);
#1253=PLANE('',#1401);
#1254=PLANE('',#1402);
#1255=PLANE('',#1403);
#1256=PLANE('',#1404);
#1257=PLANE('',#1405);
#1258=PLANE('',#1406);
#1259=PLANE('',#1407);
#1260=PLANE('',#1408);
#1261=PLANE('',#1415);
#1262=PLANE('',#1416);
#1263=PLANE('',#1417);
#1264=PLANE('',#1418);
#1265=PLANE('',#1422);
#1266=PLANE('',#1423);
#1267=PLANE('',#1426);
#1268=PLANE('',#1430);
#1269=PLANE('',#1437);
#1270=PLANE('',#1438);
#1271=PLANE('',#1439);
#1272=PLANE('',#1450);
#1273=PLANE('',#1451);
#1274=PLANE('',#1452);
#1275=PLANE('',#1453);
#1276=PLANE('',#1454);
#1277=PLANE('',#1455);
#1278=PLANE('',#1456);
#1279=PLANE('',#1457);
#1280=PLANE('',#1458);
#1281=PLANE('',#1459);
#1282=PLANE('',#1460);
#1283=ADVANCED_FACE('',(#89),#1234,.T.);
#1284=ADVANCED_FACE('',(#90,#34,#35,#36),#1235,.T.);
#1285=ADVANCED_FACE('',(#91),#1236,.T.);
#1286=ADVANCED_FACE('',(#92),#1237,.T.);
#1287=ADVANCED_FACE('',(#93),#1238,.T.);
#1288=ADVANCED_FACE('',(#94),#1239,.T.);
#1289=ADVANCED_FACE('',(#95),#1240,.T.);
#1290=ADVANCED_FACE('',(#96),#1241,.T.);
#1291=ADVANCED_FACE('',(#97,#37,#38,#39),#1242,.F.);
#1292=ADVANCED_FACE('',(#98),#1243,.T.);
#1293=ADVANCED_FACE('',(#99,#40,#41,#42,#43,#44),#1244,.T.);
#1294=ADVANCED_FACE('',(#100),#1245,.T.);
#1295=ADVANCED_FACE('',(#101,#45,#46,#47),#1246,.T.);
#1296=ADVANCED_FACE('',(#102),#1247,.T.);
#1297=ADVANCED_FACE('',(#103),#1248,.F.);
#1298=ADVANCED_FACE('',(#104),#1249,.T.);
#1299=ADVANCED_FACE('',(#105),#1250,.T.);
#1300=ADVANCED_FACE('',(#106),#15,.F.);
#1301=ADVANCED_FACE('',(#107),#16,.F.);
#1302=ADVANCED_FACE('',(#108),#1251,.T.);
#1303=ADVANCED_FACE('',(#109),#1252,.F.);
#1304=ADVANCED_FACE('',(#110),#1253,.T.);
#1305=ADVANCED_FACE('',(#111),#1254,.F.);
#1306=ADVANCED_FACE('',(#112),#1255,.T.);
#1307=ADVANCED_FACE('',(#113),#1256,.T.);
#1308=ADVANCED_FACE('',(#114),#1257,.T.);
#1309=ADVANCED_FACE('',(#115),#1258,.T.);
#1310=ADVANCED_FACE('',(#116),#1259,.T.);
#1311=ADVANCED_FACE('',(#117),#1260,.T.);
#1312=ADVANCED_FACE('',(#118),#17,.F.);
#1313=ADVANCED_FACE('',(#119),#18,.F.);
#1314=ADVANCED_FACE('',(#120),#19,.F.);
#1315=ADVANCED_FACE('',(#121),#1261,.F.);
#1316=ADVANCED_FACE('',(#122),#1262,.F.);
#1317=ADVANCED_FACE('',(#123),#1263,.F.);
#1318=ADVANCED_FACE('',(#124),#1264,.F.);
#1319=ADVANCED_FACE('',(#125),#20,.F.);
#1320=ADVANCED_FACE('',(#126),#1265,.T.);
#1321=ADVANCED_FACE('',(#127),#1266,.T.);
#1322=ADVANCED_FACE('',(#128),#21,.T.);
#1323=ADVANCED_FACE('',(#129,#48),#1267,.T.);
#1324=ADVANCED_FACE('',(#130),#22,.F.);
#1325=ADVANCED_FACE('',(#131),#1268,.T.);
#1326=ADVANCED_FACE('',(#132),#23,.T.);
#1327=ADVANCED_FACE('',(#133),#24,.T.);
#1328=ADVANCED_FACE('',(#134),#25,.T.);
#1329=ADVANCED_FACE('',(#135,#49),#1269,.T.);
#1330=ADVANCED_FACE('',(#136),#1270,.T.);
#1331=ADVANCED_FACE('',(#137),#1271,.T.);
#1332=ADVANCED_FACE('',(#138),#26,.F.);
#1333=ADVANCED_FACE('',(#139),#27,.F.);
#1334=ADVANCED_FACE('',(#140),#28,.F.);
#1335=ADVANCED_FACE('',(#141),#29,.F.);
#1336=ADVANCED_FACE('',(#142),#30,.F.);
#1337=ADVANCED_FACE('',(#143),#1272,.T.);
#1338=ADVANCED_FACE('',(#144),#1273,.T.);
#1339=ADVANCED_FACE('',(#145),#1274,.T.);
#1340=ADVANCED_FACE('',(#146),#1275,.T.);
#1341=ADVANCED_FACE('',(#147,#50,#51,#52),#1276,.T.);
#1342=ADVANCED_FACE('',(#148),#1277,.T.);
#1343=ADVANCED_FACE('',(#149),#1278,.T.);
#1344=ADVANCED_FACE('',(#150),#1279,.T.);
#1345=ADVANCED_FACE('',(#151,#53,#54,#55,#56,#57),#1280,.T.);
#1346=ADVANCED_FACE('',(#152),#1281,.T.);
#1347=ADVANCED_FACE('',(#153),#1282,.T.);
#1348=CLOSED_SHELL('',(#1283,#1284,#1285,#1286,#1287,#1288,#1289,#1290,
#1291,#1292,#1293,#1294,#1295,#1296,#1297,#1298,#1299,#1300,#1301,#1302,
#1303,#1304,#1305,#1306,#1307,#1308,#1309,#1310,#1311,#1312,#1313,#1314,
#1315,#1316,#1317,#1318,#1319,#1320,#1321,#1322,#1323,#1324,#1325,#1326,
#1327,#1328,#1329,#1330,#1331,#1332,#1333,#1334,#1335,#1336,#1337,#1338,
#1339,#1340,#1341,#1342,#1343,#1344,#1345,#1346,#1347));
#1349=DERIVED_UNIT_ELEMENT(#1351,1.);
#1350=DERIVED_UNIT_ELEMENT(#2196,-3.);
#1351=(
MASS_UNIT()
NAMED_UNIT(*)
SI_UNIT(.KILO.,.GRAM.)
);
#1352=DERIVED_UNIT((#1349,#1350));
#1353=MEASURE_REPRESENTATION_ITEM('density measure',
POSITIVE_RATIO_MEASURE(7850.),#1352);
#1354=PROPERTY_DEFINITION_REPRESENTATION(#1359,#1356);
#1355=PROPERTY_DEFINITION_REPRESENTATION(#1360,#1357);
#1356=REPRESENTATION('material name',(#1358),#2193);
#1357=REPRESENTATION('density',(#1353),#2193);
#1358=DESCRIPTIVE_REPRESENTATION_ITEM('Steel','Steel');
#1359=PROPERTY_DEFINITION('material property','material name',#2203);
#1360=PROPERTY_DEFINITION('material property','density of part',#2203);
#1361=AXIS2_PLACEMENT_3D('',#1814,#1461,#1462);
#1362=AXIS2_PLACEMENT_3D('',#1815,#1463,#1464);
#1363=AXIS2_PLACEMENT_3D('',#1824,#1469,#1470);
#1364=AXIS2_PLACEMENT_3D('',#1840,#1478,#1479);
#1365=AXIS2_PLACEMENT_3D('',#1856,#1487,#1488);
#1366=AXIS2_PLACEMENT_3D('',#1862,#1491,#1492);
#1367=AXIS2_PLACEMENT_3D('',#1863,#1493,#1494);
#1368=AXIS2_PLACEMENT_3D('',#1877,#1501,#1502);
#1369=AXIS2_PLACEMENT_3D('',#1878,#1503,#1504);
#1370=AXIS2_PLACEMENT_3D('',#1881,#1505,#1506);
#1371=AXIS2_PLACEMENT_3D('',#1888,#1511,#1512);
#1372=AXIS2_PLACEMENT_3D('',#1894,#1516,#1517);
#1373=AXIS2_PLACEMENT_3D('',#1898,#1520,#1521);
#1374=AXIS2_PLACEMENT_3D('',#1906,#1525,#1526);
#1375=AXIS2_PLACEMENT_3D('',#1908,#1528,#1529);
#1376=AXIS2_PLACEMENT_3D('',#1914,#1533,#1534);
#1377=AXIS2_PLACEMENT_3D('',#1923,#1539,#1540);
#1378=AXIS2_PLACEMENT_3D('',#1954,#1556,#1557);
#1379=AXIS2_PLACEMENT_3D('',#1956,#1558,#1559);
#1380=AXIS2_PLACEMENT_3D('',#1957,#1560,#1561);
#1381=AXIS2_PLACEMENT_3D('',#1963,#1565,#1566);
#1382=AXIS2_PLACEMENT_3D('',#1994,#1584,#1585);
#1383=AXIS2_PLACEMENT_3D('',#1996,#1586,#1587);
#1384=AXIS2_PLACEMENT_3D('',#1998,#1588,#1589);
#1385=AXIS2_PLACEMENT_3D('',#2000,#1590,#1591);
#1386=AXIS2_PLACEMENT_3D('',#2002,#1592,#1593);
#1387=AXIS2_PLACEMENT_3D('',#2003,#1594,#1595);
#1388=AXIS2_PLACEMENT_3D('',#2009,#1599,#1600);
#1389=AXIS2_PLACEMENT_3D('',#2016,#1604,#1605);
#1390=AXIS2_PLACEMENT_3D('',#2018,#1606,#1607);
#1391=AXIS2_PLACEMENT_3D('',#2020,#1608,#1609);
#1392=AXIS2_PLACEMENT_3D('',#2021,#1610,#1611);
#1393=AXIS2_PLACEMENT_3D('',#2024,#1614,#1615);
#1394=AXIS2_PLACEMENT_3D('',#2026,#1617,#1618);
#1395=AXIS2_PLACEMENT_3D('',#2028,#1620,#1621);
#1396=AXIS2_PLACEMENT_3D('',#2029,#1622,#1623);
#1397=AXIS2_PLACEMENT_3D('',#2035,#1627,#1628);
#1398=AXIS2_PLACEMENT_3D('',#2037,#1630,#1631);
#1399=AXIS2_PLACEMENT_3D('',#2039,#1633,#1634);
#1400=AXIS2_PLACEMENT_3D('',#2042,#1637,#1638);
#1401=AXIS2_PLACEMENT_3D('',#2044,#1640,#1641);
#1402=AXIS2_PLACEMENT_3D('',#2047,#1644,#1645);
#1403=AXIS2_PLACEMENT_3D('',#2048,#1646,#1647);
#1404=AXIS2_PLACEMENT_3D('',#2057,#1652,#1653);
#1405=AXIS2_PLACEMENT_3D('',#2064,#1658,#1659);
#1406=AXIS2_PLACEMENT_3D('',#2068,#1662,#1663);
#1407=AXIS2_PLACEMENT_3D('',#2073,#1667,#1668);
#1408=AXIS2_PLACEMENT_3D('',#2074,#1669,#1670);
#1409=AXIS2_PLACEMENT_3D('',#2078,#1673,#1674);
#1410=AXIS2_PLACEMENT_3D('',#2080,#1675,#1676);
#1411=AXIS2_PLACEMENT_3D('',#2082,#1678,#1679);
#1412=AXIS2_PLACEMENT_3D('',#2084,#1680,#1681);
#1413=AXIS2_PLACEMENT_3D('',#2086,#1683,#1684);
#1414=AXIS2_PLACEMENT_3D('',#2088,#1685,#1686);
#1415=AXIS2_PLACEMENT_3D('',#2090,#1688,#1689);
#1416=AXIS2_PLACEMENT_3D('',#2091,#1690,#1691);
#1417=AXIS2_PLACEMENT_3D('',#2092,#1692,#1693);
#1418=AXIS2_PLACEMENT_3D('',#2094,#1695,#1696);
#1419=AXIS2_PLACEMENT_3D('',#2095,#1697,#1698);
#1420=AXIS2_PLACEMENT_3D('',#2097,#1699,#1700);
#1421=AXIS2_PLACEMENT_3D('',#2100,#1702,#1703);
#1422=AXIS2_PLACEMENT_3D('',#2101,#1704,#1705);
#1423=AXIS2_PLACEMENT_3D('',#2105,#1708,#1709);
#1424=AXIS2_PLACEMENT_3D('',#2109,#1712,#1713);
#1425=AXIS2_PLACEMENT_3D('',#2110,#1714,#1715);
#1426=AXIS2_PLACEMENT_3D('',#2111,#1716,#1717);
#1427=AXIS2_PLACEMENT_3D('',#2112,#1718,#1719);
#1428=AXIS2_PLACEMENT_3D('',#2114,#1720,#1721);
#1429=AXIS2_PLACEMENT_3D('',#2117,#1723,#1724);
#1430=AXIS2_PLACEMENT_3D('',#2118,#1725,#1726);
#1431=AXIS2_PLACEMENT_3D('',#2122,#1729,#1730);
#1432=AXIS2_PLACEMENT_3D('',#2123,#1731,#1732);
#1433=AXIS2_PLACEMENT_3D('',#2124,#1733,#1734);
#1434=AXIS2_PLACEMENT_3D('',#2125,#1735,#1736);
#1435=AXIS2_PLACEMENT_3D('',#2126,#1737,#1738);
#1436=AXIS2_PLACEMENT_3D('',#2127,#1739,#1740);
#1437=AXIS2_PLACEMENT_3D('',#2128,#1741,#1742);
#1438=AXIS2_PLACEMENT_3D('',#2129,#1743,#1744);
#1439=AXIS2_PLACEMENT_3D('',#2130,#1745,#1746);
#1440=AXIS2_PLACEMENT_3D('',#2133,#1749,#1750);
#1441=AXIS2_PLACEMENT_3D('',#2136,#1752,#1753);
#1442=AXIS2_PLACEMENT_3D('',#2137,#1754,#1755);
#1443=AXIS2_PLACEMENT_3D('',#2140,#1757,#1758);
#1444=AXIS2_PLACEMENT_3D('',#2141,#1759,#1760);
#1445=AXIS2_PLACEMENT_3D('',#2144,#1762,#1763);
#1446=AXIS2_PLACEMENT_3D('',#2145,#1764,#1765);
#1447=AXIS2_PLACEMENT_3D('',#2148,#1767,#1768);
#1448=AXIS2_PLACEMENT_3D('',#2149,#1769,#1770);
#1449=AXIS2_PLACEMENT_3D('',#2152,#1772,#1773);
#1450=AXIS2_PLACEMENT_3D('',#2153,#1774,#1775);
#1451=AXIS2_PLACEMENT_3D('',#2159,#1779,#1780);
#1452=AXIS2_PLACEMENT_3D('',#2163,#1783,#1784);
#1453=AXIS2_PLACEMENT_3D('',#2164,#1785,#1786);
#1454=AXIS2_PLACEMENT_3D('',#2170,#1790,#1791);
#1455=AXIS2_PLACEMENT_3D('',#2176,#1795,#1796);
#1456=AXIS2_PLACEMENT_3D('',#2180,#1799,#1800);
#1457=AXIS2_PLACEMENT_3D('',#2182,#1802,#1803);
#1458=AXIS2_PLACEMENT_3D('',#2184,#1805,#1806);
#1459=AXIS2_PLACEMENT_3D('',#2188,#1809,#1810);
#1460=AXIS2_PLACEMENT_3D('',#2190,#1812,#1813);
#1461=DIRECTION('axis',(0.,0.,1.));
#1462=DIRECTION('refdir',(1.,0.,0.));
#1463=DIRECTION('center_axis',(0.,0.707106781186547,0.707106781186548));
#1464=DIRECTION('ref_axis',(1.,0.,0.));
#1465=DIRECTION('',(1.12149461334555E-16,0.707106781186548,-0.707106781186547));
#1466=DIRECTION('',(-1.,0.,0.));
#1467=DIRECTION('',(-1.74315279842105E-33,-0.707106781186548,0.707106781186547));
#1468=DIRECTION('',(1.,0.,0.));
#1469=DIRECTION('center_axis',(0.,0.,1.));
#1470=DIRECTION('ref_axis',(1.,0.,0.));
#1471=DIRECTION('',(1.58603289232165E-16,1.,0.));
#1472=DIRECTION('',(-0.707106781186548,-0.707106781186548,0.));
#1473=DIRECTION('',(1.,0.,0.));
#1474=DIRECTION('',(-0.707106781186547,0.707106781186548,0.));
#1475=DIRECTION('',(0.,-1.,0.));
#1476=DIRECTION('',(-1.,0.,0.));
#1477=DIRECTION('',(0.,1.,0.));
#1478=DIRECTION('center_axis',(0.,0.,-1.));
#1479=DIRECTION('ref_axis',(-1.,0.,0.));
#1480=DIRECTION('',(0.,-1.,0.));
#1481=DIRECTION('',(-1.,0.,0.));
#1482=DIRECTION('',(0.,1.,0.));
#1483=DIRECTION('',(1.,0.,0.));
#1484=DIRECTION('',(0.,1.,0.));
#1485=DIRECTION('',(1.,0.,0.));
#1486=DIRECTION('',(1.58603289232165E-16,1.,0.));
#1487=DIRECTION('center_axis',(0.,0.,-1.));
#1488=DIRECTION('ref_axis',(-1.,0.,0.));
#1489=DIRECTION('',(0.,-1.,0.));
#1490=DIRECTION('',(1.,0.,0.));
#1491=DIRECTION('center_axis',(0.,0.,-1.));
#1492=DIRECTION('ref_axis',(1.,0.,0.));
#1493=DIRECTION('center_axis',(0.,0.,-1.));
#1494=DIRECTION('ref_axis',(1.,0.,0.));
#1495=DIRECTION('',(0.,1.,0.));
#1496=DIRECTION('',(-0.707106781186547,-0.707106781186547,0.));
#1497=DIRECTION('',(1.,0.,0.));
#1498=DIRECTION('',(-0.707106781186548,0.707106781186548,0.));
#1499=DIRECTION('',(1.77635683940025E-15,-1.,0.));
#1500=DIRECTION('',(-1.,4.93432455388957E-16,0.));
#1501=DIRECTION('center_axis',(0.,0.,-1.));
#1502=DIRECTION('ref_axis',(1.,0.,0.));
#1503=DIRECTION('center_axis',(0.,0.707106781186547,0.707106781186548));
#1504=DIRECTION('ref_axis',(1.,0.,0.));
#1505=DIRECTION('center_axis',(0.,0.707106781186547,0.707106781186548));
#1506=DIRECTION('ref_axis',(0.,-0.707106781186548,0.707106781186547));
#1507=DIRECTION('',(1.,0.,0.));
#1508=DIRECTION('',(0.,0.707106781186548,-0.707106781186547));
#1509=DIRECTION('',(0.,0.707106781186548,-0.707106781186547));
#1510=DIRECTION('',(1.,0.,0.));
#1511=DIRECTION('center_axis',(0.,-1.,0.));
#1512=DIRECTION('ref_axis',(1.,0.,0.));
#1513=DIRECTION('',(0.,0.,1.));
#1514=DIRECTION('',(1.,0.,0.));
#1515=DIRECTION('',(0.,0.,1.));
#1516=DIRECTION('center_axis',(1.,0.,0.));
#1517=DIRECTION('ref_axis',(0.,1.,0.));
#1518=DIRECTION('',(0.,0.,1.));
#1519=DIRECTION('',(0.,1.,0.));
#1520=DIRECTION('center_axis',(0.,0.707106781186547,0.707106781186548));
#1521=DIRECTION('ref_axis',(1.,0.,0.));
#1522=DIRECTION('',(0.,-0.707106781186548,0.707106781186547));
#1523=DIRECTION('',(0.,-0.707106781186548,0.707106781186547));
#1524=DIRECTION('',(1.,0.,0.));
#1525=DIRECTION('center_axis',(0.,0.707106781186547,0.707106781186548));
#1526=DIRECTION('ref_axis',(0.,-0.707106781186548,0.707106781186547));
#1527=DIRECTION('',(1.,0.,0.));
#1528=DIRECTION('center_axis',(-1.,0.,0.));
#1529=DIRECTION('ref_axis',(0.,-1.,0.));
#1530=DIRECTION('',(0.,0.,1.));
#1531=DIRECTION('',(0.,-1.,0.));
#1532=DIRECTION('',(0.,0.,1.));
#1533=DIRECTION('center_axis',(0.,0.707106781186548,-0.707106781186548));
#1534=DIRECTION('ref_axis',(-1.,0.,0.));
#1535=DIRECTION('',(0.,0.707106781186548,0.707106781186548));
#1536=DIRECTION('',(1.,0.,0.));
#1537=DIRECTION('',(0.,-0.707106781186548,-0.707106781186548));
#1538=DIRECTION('',(-1.,0.,0.));
#1539=DIRECTION('center_axis',(0.,0.,1.));
#1540=DIRECTION('ref_axis',(1.,0.,0.));
#1541=DIRECTION('',(0.,1.,0.));
#1542=DIRECTION('',(0.707106781186547,-0.707106781186548,0.));
#1543=DIRECTION('',(-1.,0.,0.));
#1544=DIRECTION('',(0.707106781186548,0.707106781186548,0.));
#1545=DIRECTION('',(-1.58603289232165E-16,-1.,0.));
#1546=DIRECTION('',(1.,0.,0.));
#1547=DIRECTION('',(0.,1.,0.));
#1548=DIRECTION('',(-1.,0.,0.));
#1549=DIRECTION('',(0.,1.,0.));
#1550=DIRECTION('',(0.,-1.,0.));
#1551=DIRECTION('',(1.,-4.93432455388957E-16,0.));
#1552=DIRECTION('',(-1.77635683940025E-15,1.,0.));
#1553=DIRECTION('',(0.707106781186548,-0.707106781186548,0.));
#1554=DIRECTION('',(-1.,0.,0.));
#1555=DIRECTION('',(0.707106781186547,0.707106781186547,0.));
#1556=DIRECTION('center_axis',(0.,0.,1.));
#1557=DIRECTION('ref_axis',(1.,0.,0.));
#1558=DIRECTION('center_axis',(0.,0.,1.));
#1559=DIRECTION('ref_axis',(1.,0.,0.));
#1560=DIRECTION('center_axis',(0.,0.707106781186548,-0.707106781186548));
#1561=DIRECTION('ref_axis',(-1.,0.,0.));
#1562=DIRECTION('',(-1.12149461334555E-16,-0.707106781186548,-0.707106781186548));
#1563=DIRECTION('',(-1.,0.,0.));
#1564=DIRECTION('',(1.74315279842105E-33,0.707106781186548,0.707106781186548));
#1565=DIRECTION('center_axis',(0.,1.,0.));
#1566=DIRECTION('ref_axis',(-1.,0.,0.));
#1567=DIRECTION('',(0.,0.,1.));
#1568=DIRECTION('',(-1.,0.,0.));
#1569=DIRECTION('',(0.,0.,1.));
#1570=DIRECTION('',(-1.,0.,0.));
#1571=DIRECTION('',(0.,0.,1.));
#1572=DIRECTION('',(-1.,0.,0.));
#1573=DIRECTION('',(-1.,0.,0.));
#1574=DIRECTION('',(-1.,0.,0.));
#1575=DIRECTION('',(0.,0.,1.));
#1576=DIRECTION('',(0.,0.,1.));
#1577=DIRECTION('',(-1.,0.,0.));
#1578=DIRECTION('',(0.,0.,-1.));
#1579=DIRECTION('',(0.,0.,-1.));
#1580=DIRECTION('',(0.,0.,1.));
#1581=DIRECTION('',(1.,0.,0.));
#1582=DIRECTION('',(0.,0.,1.));
#1583=DIRECTION('',(0.,0.,-1.));
#1584=DIRECTION('center_axis',(0.,-1.,0.));
#1585=DIRECTION('ref_axis',(-1.,0.,0.));
#1586=DIRECTION('center_axis',(0.,-1.,0.));
#1587=DIRECTION('ref_axis',(-1.,0.,0.));
#1588=DIRECTION('center_axis',(0.,-1.,0.));
#1589=DIRECTION('ref_axis',(-1.,0.,0.));
#1590=DIRECTION('center_axis',(0.,-1.,0.));
#1591=DIRECTION('ref_axis',(-1.,0.,0.));
#1592=DIRECTION('center_axis',(0.,-1.,0.));
#1593=DIRECTION('ref_axis',(-1.,0.,0.));
#1594=DIRECTION('center_axis',(0.,0.707106781186547,0.707106781186548));
#1595=DIRECTION('ref_axis',(1.,0.,0.));
#1596=DIRECTION('',(0.,0.707106781186548,-0.707106781186547));
#1597=DIRECTION('',(-1.,0.,0.));
#1598=DIRECTION('',(-1.74315279842105E-33,-0.707106781186548,0.707106781186547));
#1599=DIRECTION('center_axis',(0.,0.,1.));
#1600=DIRECTION('ref_axis',(1.,0.,0.));
#1601=DIRECTION('',(0.,1.,0.));
#1602=DIRECTION('',(-1.,0.,0.));
#1603=DIRECTION('',(-2.46519032881566E-33,-1.,0.));
#1604=DIRECTION('center_axis',(0.,0.,-1.));
#1605=DIRECTION('ref_axis',(1.,0.,0.));
#1606=DIRECTION('center_axis',(0.,0.,-1.));
#1607=DIRECTION('ref_axis',(1.,0.,0.));
#1608=DIRECTION('center_axis',(0.,0.,-1.));
#1609=DIRECTION('ref_axis',(1.,0.,0.));
#1610=DIRECTION('center_axis',(0.707106781186548,-0.707106781186548,0.));
#1611=DIRECTION('ref_axis',(0.,0.,-1.));
#1612=DIRECTION('',(0.,0.,1.));
#1613=DIRECTION('',(0.,0.,-1.));
#1614=DIRECTION('center_axis',(0.,1.,0.));
#1615=DIRECTION('ref_axis',(0.,0.,1.));
#1616=DIRECTION('',(0.,0.,-1.));
#1617=DIRECTION('center_axis',(-0.707106781186548,-0.707106781186547,0.));
#1618=DIRECTION('ref_axis',(0.,0.,1.));
#1619=DIRECTION('',(0.,0.,1.));
#1620=DIRECTION('center_axis',(0.,-0.707106781186547,0.707106781186548));
#1621=DIRECTION('ref_axis',(1.,0.,0.));
#1622=DIRECTION('center_axis',(0.,0.707106781186547,-0.707106781186548));
#1623=DIRECTION('ref_axis',(0.,0.707106781186548,0.707106781186547));
#1624=DIRECTION('',(0.,0.707106781186548,0.707106781186547));
#1625=DIRECTION('',(1.,0.,0.));
#1626=DIRECTION('',(-1.12149461334555E-16,-0.707106781186548,-0.707106781186547));
#1627=DIRECTION('center_axis',(0.,0.,1.));
#1628=DIRECTION('ref_axis',(1.,0.,0.));
#1629=DIRECTION('',(0.,0.,1.));
#1630=DIRECTION('center_axis',(0.,0.,1.));
#1631=DIRECTION('ref_axis',(1.,0.,0.));
#1632=DIRECTION('',(0.,0.,1.));
#1633=DIRECTION('center_axis',(0.707106781186548,-0.707106781186548,0.));
#1634=DIRECTION('ref_axis',(0.,0.,-1.));
#1635=DIRECTION('',(0.,0.,-1.));
#1636=DIRECTION('',(0.,0.,1.));
#1637=DIRECTION('center_axis',(-1.,0.,0.));
#1638=DIRECTION('ref_axis',(0.,1.,0.));
#1639=DIRECTION('',(0.,0.,-1.));
#1640=DIRECTION('center_axis',(-0.707106781186548,-0.707106781186548,0.));
#1641=DIRECTION('ref_axis',(0.,0.,1.));
#1642=DIRECTION('',(0.,0.,-1.));
#1643=DIRECTION('',(0.,0.,1.));
#1644=DIRECTION('center_axis',(0.,1.,0.));
#1645=DIRECTION('ref_axis',(1.,0.,0.));
#1646=DIRECTION('center_axis',(0.,0.,1.));
#1647=DIRECTION('ref_axis',(1.,0.,0.));
#1648=DIRECTION('',(0.,-1.,0.));
#1649=DIRECTION('',(1.,0.,0.));
#1650=DIRECTION('',(0.,1.,0.));
#1651=DIRECTION('',(-1.,0.,0.));
#1652=DIRECTION('center_axis',(-1.,0.,0.));
#1653=DIRECTION('ref_axis',(0.,0.,1.));
#1654=DIRECTION('',(0.,0.,1.));
#1655=DIRECTION('',(0.,1.,0.));
#1656=DIRECTION('',(0.,1.,0.));
#1657=DIRECTION('',(0.,0.,-1.));
#1658=DIRECTION('center_axis',(0.,0.,-1.));
#1659=DIRECTION('ref_axis',(-1.,0.,0.));
#1660=DIRECTION('',(-1.,0.,0.));
#1661=DIRECTION('',(0.,1.,0.));
#1662=DIRECTION('center_axis',(1.,0.,0.));
#1663=DIRECTION('ref_axis',(0.,0.,-1.));
#1664=DIRECTION('',(0.,-1.,0.));
#1665=DIRECTION('',(0.,0.,-1.));
#1666=DIRECTION('',(0.,0.,1.));
#1667=DIRECTION('center_axis',(0.,1.,0.));
#1668=DIRECTION('ref_axis',(0.,0.,1.));
#1669=DIRECTION('center_axis',(0.,0.,1.));
#1670=DIRECTION('ref_axis',(1.,0.,0.));
#1671=DIRECTION('',(1.,0.,0.));
#1672=DIRECTION('',(0.,1.,0.));
#1673=DIRECTION('center_axis',(0.,0.,1.));
#1674=DIRECTION('ref_axis',(1.,0.,0.));
#1675=DIRECTION('center_axis',(0.,0.,1.));
#1676=DIRECTION('ref_axis',(1.,0.,0.));
#1677=DIRECTION('',(0.,0.,1.));
#1678=DIRECTION('center_axis',(0.,0.,1.));
#1679=DIRECTION('ref_axis',(1.,0.,0.));
#1680=DIRECTION('center_axis',(0.,0.,1.));
#1681=DIRECTION('ref_axis',(1.,0.,0.));
#1682=DIRECTION('',(0.,0.,1.));
#1683=DIRECTION('center_axis',(0.,0.,1.));
#1684=DIRECTION('ref_axis',(1.,0.,0.));
#1685=DIRECTION('center_axis',(0.,0.,1.));
#1686=DIRECTION('ref_axis',(1.,0.,0.));
#1687=DIRECTION('',(0.,0.,1.));
#1688=DIRECTION('center_axis',(-1.,1.58603289232165E-16,0.));
#1689=DIRECTION('ref_axis',(1.58603289232165E-16,1.,0.));
#1690=DIRECTION('center_axis',(1.,0.,0.));
#1691=DIRECTION('ref_axis',(0.,-1.,0.));
#1692=DIRECTION('center_axis',(-4.93432455388957E-16,-1.,0.));
#1693=DIRECTION('ref_axis',(-1.,4.93432455388957E-16,0.));
#1694=DIRECTION('',(0.,0.,-1.));
#1695=DIRECTION('center_axis',(1.,1.77635683940025E-15,0.));
#1696=DIRECTION('ref_axis',(1.77635683940025E-15,-1.,0.));
#1697=DIRECTION('center_axis',(0.,0.,1.));
#1698=DIRECTION('ref_axis',(-1.,0.,0.));
#1699=DIRECTION('center_axis',(0.,0.,-1.));
#1700=DIRECTION('ref_axis',(-1.,0.,0.));
#1701=DIRECTION('',(0.,0.,-1.));
#1702=DIRECTION('center_axis',(0.,0.,1.));
#1703=DIRECTION('ref_axis',(-1.,0.,0.));
#1704=DIRECTION('center_axis',(1.,0.,0.));
#1705=DIRECTION('ref_axis',(0.,1.,0.));
#1706=DIRECTION('',(0.,0.,1.));
#1707=DIRECTION('',(0.,1.,0.));
#1708=DIRECTION('center_axis',(-1.,1.58603289232165E-16,0.));
#1709=DIRECTION('ref_axis',(-1.58603289232165E-16,-1.,0.));
#1710=DIRECTION('',(-1.58603289232165E-16,-1.,0.));
#1711=DIRECTION('',(0.,0.,1.));
#1712=DIRECTION('center_axis',(0.,0.,1.));
#1713=DIRECTION('ref_axis',(-1.,0.,0.));
#1714=DIRECTION('center_axis',(0.,0.,1.));
#1715=DIRECTION('ref_axis',(-1.,0.,0.));
#1716=DIRECTION('center_axis',(0.,0.,1.));
#1717=DIRECTION('ref_axis',(-1.,0.,0.));
#1718=DIRECTION('center_axis',(0.,0.,1.));
#1719=DIRECTION('ref_axis',(-1.,0.,0.));
#1720=DIRECTION('center_axis',(0.,0.,-1.));
#1721=DIRECTION('ref_axis',(-1.,0.,0.));
#1722=DIRECTION('',(0.,0.,-1.));
#1723=DIRECTION('center_axis',(0.,0.,1.));
#1724=DIRECTION('ref_axis',(-1.,0.,0.));
#1725=DIRECTION('center_axis',(0.,-1.,0.));
#1726=DIRECTION('ref_axis',(1.,0.,0.));
#1727=DIRECTION('',(0.,0.,1.));
#1728=DIRECTION('',(1.,0.,0.));
#1729=DIRECTION('center_axis',(0.,0.,1.));
#1730=DIRECTION('ref_axis',(-1.,0.,0.));
#1731=DIRECTION('center_axis',(0.,0.,1.));
#1732=DIRECTION('ref_axis',(-1.,0.,0.));
#1733=DIRECTION('center_axis',(0.,0.,1.));
#1734=DIRECTION('ref_axis',(-1.,0.,0.));
#1735=DIRECTION('center_axis',(0.,0.,1.));
#1736=DIRECTION('ref_axis',(-1.,0.,0.));
#1737=DIRECTION('center_axis',(0.,0.,1.));
#1738=DIRECTION('ref_axis',(-1.,0.,0.));
#1739=DIRECTION('center_axis',(0.,0.,1.));
#1740=DIRECTION('ref_axis',(-1.,0.,0.));
#1741=DIRECTION('center_axis',(0.,0.,1.));
#1742=DIRECTION('ref_axis',(-1.,0.,0.));
#1743=DIRECTION('center_axis',(0.,0.,1.));
#1744=DIRECTION('ref_axis',(1.,0.,0.));
#1745=DIRECTION('center_axis',(0.,1.,0.));
#1746=DIRECTION('ref_axis',(0.,0.,1.));
#1747=DIRECTION('',(0.,0.,1.));
#1748=DIRECTION('',(0.,0.,-1.));
#1749=DIRECTION('center_axis',(0.,-1.,0.));
#1750=DIRECTION('ref_axis',(-1.,0.,0.));
#1751=DIRECTION('',(0.,-1.,0.));
#1752=DIRECTION('center_axis',(0.,1.,0.));
#1753=DIRECTION('ref_axis',(-1.,0.,0.));
#1754=DIRECTION('center_axis',(0.,-1.,0.));
#1755=DIRECTION('ref_axis',(-1.,0.,0.));
#1756=DIRECTION('',(0.,-1.,0.));
#1757=DIRECTION('center_axis',(0.,1.,0.));
#1758=DIRECTION('ref_axis',(-1.,0.,0.));
#1759=DIRECTION('center_axis',(0.,-1.,0.));
#1760=DIRECTION('ref_axis',(-1.,0.,0.));
#1761=DIRECTION('',(0.,-1.,0.));
#1762=DIRECTION('center_axis',(0.,1.,0.));
#1763=DIRECTION('ref_axis',(-1.,0.,0.));
#1764=DIRECTION('center_axis',(0.,-1.,0.));
#1765=DIRECTION('ref_axis',(-1.,0.,0.));
#1766=DIRECTION('',(0.,-1.,0.));
#1767=DIRECTION('center_axis',(0.,1.,0.));
#1768=DIRECTION('ref_axis',(-1.,0.,0.));
#1769=DIRECTION('center_axis',(0.,-1.,0.));
#1770=DIRECTION('ref_axis',(-1.,0.,0.));
#1771=DIRECTION('',(0.,-1.,0.));
#1772=DIRECTION('center_axis',(0.,1.,0.));
#1773=DIRECTION('ref_axis',(-1.,0.,0.));
#1774=DIRECTION('center_axis',(0.,0.,1.));
#1775=DIRECTION('ref_axis',(1.,0.,0.));
#1776=DIRECTION('',(1.,4.98475985606108E-32,0.));
#1777=DIRECTION('',(0.,-1.,0.));
#1778=DIRECTION('',(0.,1.,0.));
#1779=DIRECTION('center_axis',(1.,0.,0.));
#1780=DIRECTION('ref_axis',(0.,1.,0.));
#1781=DIRECTION('',(0.,1.,0.));
#1782=DIRECTION('',(0.,0.,1.));
#1783=DIRECTION('center_axis',(0.,0.,1.));
#1784=DIRECTION('ref_axis',(1.,0.,0.));
#1785=DIRECTION('center_axis',(0.,1.,0.));
#1786=DIRECTION('ref_axis',(1.,0.,0.));
#1787=DIRECTION('',(0.,0.,-1.));
#1788=DIRECTION('',(1.,0.,0.));
#1789=DIRECTION('',(0.,0.,-1.));
#1790=DIRECTION('center_axis',(0.,0.,-1.));
#1791=DIRECTION('ref_axis',(-1.,0.,0.));
#1792=DIRECTION('',(0.,-1.,0.));
#1793=DIRECTION('',(-1.,0.,0.));
#1794=DIRECTION('',(2.46519032881566E-33,1.,0.));
#1795=DIRECTION('center_axis',(-1.,2.46519032881566E-33,0.));
#1796=DIRECTION('ref_axis',(-2.46519032881566E-33,-1.,0.));
#1797=DIRECTION('',(0.,0.,-1.));
#1798=DIRECTION('',(-2.46519032881566E-33,-1.,0.));
#1799=DIRECTION('center_axis',(0.,0.,1.));
#1800=DIRECTION('ref_axis',(1.,0.,0.));
#1801=DIRECTION('',(1.,0.,0.));
#1802=DIRECTION('center_axis',(1.,0.,0.));
#1803=DIRECTION('ref_axis',(0.,1.,0.));
#1804=DIRECTION('',(0.,0.,1.));
#1805=DIRECTION('center_axis',(0.,-1.,0.));
#1806=DIRECTION('ref_axis',(1.,0.,0.));
#1807=DIRECTION('',(1.,0.,0.));
#1808=DIRECTION('',(0.,0.,1.));
#1809=DIRECTION('center_axis',(-1.,0.,0.));
#1810=DIRECTION('ref_axis',(0.,-1.,0.));
#1811=DIRECTION('',(0.,-1.,0.));
#1812=DIRECTION('center_axis',(0.,0.,1.));
#1813=DIRECTION('ref_axis',(1.,0.,0.));
#1814=CARTESIAN_POINT('',(0.,0.,0.));
#1815=CARTESIAN_POINT('Origin',(64.4999990388751,6.,18.));
#1816=CARTESIAN_POINT('',(14.,5.,19.));
#1817=CARTESIAN_POINT('',(14.,7.,17.));
#1818=CARTESIAN_POINT('',(14.,6.,18.));
#1819=CARTESIAN_POINT('',(0.,7.,17.));
#1820=CARTESIAN_POINT('',(64.4999990388751,7.,17.));
#1821=CARTESIAN_POINT('',(6.16297582203915E-33,5.,19.));
#1822=CARTESIAN_POINT('',(-4.44089209850063E-15,10.25,13.75));
#1823=CARTESIAN_POINT('',(64.4999990388751,5.,19.));
#1824=CARTESIAN_POINT('Origin',(43.,16.25,17.));
#1825=CARTESIAN_POINT('',(14.,19.,17.));
#1826=CARTESIAN_POINT('',(14.,10.625,17.));
#1827=CARTESIAN_POINT('',(22.,27.,17.));
#1828=CARTESIAN_POINT('',(22.5625,27.5625,17.));
#1829=CARTESIAN_POINT('',(34.,27.,17.));
#1830=CARTESIAN_POINT('',(28.5,27.,17.));
#1831=CARTESIAN_POINT('',(42.,19.,17.));
#1832=CARTESIAN_POINT('',(40.9375,20.0625,17.));
#1833=CARTESIAN_POINT('',(42.,7.,17.));
#1834=CARTESIAN_POINT('',(42.,17.625,17.));
#1835=CARTESIAN_POINT('',(47.5,7.,17.));
#1836=CARTESIAN_POINT('',(64.4999990388751,7.,17.));
#1837=CARTESIAN_POINT('',(47.5,8.007637592251,17.));
#1838=CARTESIAN_POINT('',(47.5,12.1288187961255,17.));
#1839=CARTESIAN_POINT('',(54.4999916667307,8.007637592251,17.));
#1840=CARTESIAN_POINT('Origin',(51.,8.,17.));
#1841=CARTESIAN_POINT('',(54.4999916667307,7.,17.));
#1842=CARTESIAN_POINT('',(54.4999916667307,10.6288187961255,17.));
#1843=CARTESIAN_POINT('',(85.9999980777502,7.,17.));
#1844=CARTESIAN_POINT('',(64.4999990388751,7.,17.));
#1845=CARTESIAN_POINT('',(85.9999980777502,57.5,17.));
#1846=CARTESIAN_POINT('',(85.9999980777502,2.5,17.));
#1847=CARTESIAN_POINT('',(0.,57.5,17.));
#1848=CARTESIAN_POINT('',(85.9999980777502,57.5,17.));
#1849=CARTESIAN_POINT('',(0.,27.5,17.));
#1850=CARTESIAN_POINT('',(1.5,36.5,17.));
#1851=CARTESIAN_POINT('',(2.26794919243112,36.5,17.));
#1852=CARTESIAN_POINT('',(22.25,36.5,17.));
#1853=CARTESIAN_POINT('',(1.5,46.,17.));
#1854=CARTESIAN_POINT('',(1.49999999999999,31.125,17.));
#1855=CARTESIAN_POINT('',(8.5,46.,17.));
#1856=CARTESIAN_POINT('Origin',(5.,46.,17.));
#1857=CARTESIAN_POINT('',(8.5,36.5,17.));
#1858=CARTESIAN_POINT('',(8.5,29.375,17.));
#1859=CARTESIAN_POINT('',(5.73205080756888,36.5,17.));
#1860=CARTESIAN_POINT('',(22.25,36.5,17.));
#1861=CARTESIAN_POINT('',(2.,35.5,17.));
#1862=CARTESIAN_POINT('Origin',(4.,35.5,17.));
#1863=CARTESIAN_POINT('Origin',(4.,35.5,17.));
#1864=CARTESIAN_POINT('',(71.5,27.9999999999998,17.));
#1865=CARTESIAN_POINT('',(71.5,44.9999999999998,17.));
#1866=CARTESIAN_POINT('',(71.5,22.1249999999999,17.));
#1867=CARTESIAN_POINT('',(74.5,47.9999999999998,17.));
#1868=CARTESIAN_POINT('',(57.9375,31.4374999999999,17.));
#1869=CARTESIAN_POINT('',(77.5,47.9999999999998,17.));
#1870=CARTESIAN_POINT('',(57.25,47.9999999999998,17.));
#1871=CARTESIAN_POINT('',(80.5,44.9999999999998,17.));
#1872=CARTESIAN_POINT('',(77.5625,47.9374999999999,17.));
#1873=CARTESIAN_POINT('',(80.5,27.9999999999998,17.));
#1874=CARTESIAN_POINT('',(80.5,32.125,17.));
#1875=CARTESIAN_POINT('',(61.75,27.9999999999998,17.));
#1876=CARTESIAN_POINT('',(42.,35.5,17.));
#1877=CARTESIAN_POINT('Origin',(44.,35.5,17.));
#1878=CARTESIAN_POINT('Origin',(64.4999990388751,6.,18.));
#1879=CARTESIAN_POINT('',(52.802775637732,5.,19.));
#1880=CARTESIAN_POINT('',(52.8154248044716,5.007637592251,18.992362407749));
#1881=CARTESIAN_POINT('Origin',(51.,8.,16.));
#1882=CARTESIAN_POINT('',(85.9999980777502,5.,19.));
#1883=CARTESIAN_POINT('',(64.4999990388751,5.,19.));
#1884=CARTESIAN_POINT('',(86.,9.,15.));
#1885=CARTESIAN_POINT('',(54.4999916667307,5.007637592251,18.992362407749));
#1886=CARTESIAN_POINT('',(54.4999916667307,6.00190939806275,17.9980906019373));
#1887=CARTESIAN_POINT('',(58.6577119216733,5.007637592251,18.992362407749));
#1888=CARTESIAN_POINT('Origin',(52.8154248044716,5.007637592251,17.));
#1889=CARTESIAN_POINT('',(54.4999916667307,5.007637592251,23.));
#1890=CARTESIAN_POINT('',(54.4999916667307,5.007637592251,17.));
#1891=CARTESIAN_POINT('',(52.8154248044716,5.007637592251,23.));
#1892=CARTESIAN_POINT('',(54.4999916667307,5.007637592251,23.));
#1893=CARTESIAN_POINT('',(52.8154248044716,5.007637592251,17.));
#1894=CARTESIAN_POINT('Origin',(54.4999916667307,5.007637592251,17.));
#1895=CARTESIAN_POINT('',(54.4999916667307,8.007637592251,23.));
#1896=CARTESIAN_POINT('',(54.4999916667307,8.007637592251,17.));
#1897=CARTESIAN_POINT('',(54.4999916667307,8.007637592251,23.));
#1898=CARTESIAN_POINT('Origin',(64.4999990388751,6.,18.));
#1899=CARTESIAN_POINT('',(47.5,5.007637592251,18.992362407749));
#1900=CARTESIAN_POINT('',(47.5,6.75190939806275,17.2480906019373));
#1901=CARTESIAN_POINT('',(42.,5.,19.));
#1902=CARTESIAN_POINT('',(42.,9.50000000000001,14.5));
#1903=CARTESIAN_POINT('',(49.197224362268,5.,19.));
#1904=CARTESIAN_POINT('',(64.4999990388751,5.,19.));
#1905=CARTESIAN_POINT('',(49.1845751955285,5.007637592251,18.992362407749));
#1906=CARTESIAN_POINT('Origin',(51.,8.,16.));
#1907=CARTESIAN_POINT('',(55.9999995194376,5.007637592251,18.992362407749));
#1908=CARTESIAN_POINT('Origin',(47.5,8.007637592251,17.));
#1909=CARTESIAN_POINT('',(47.5,5.007637592251,23.));
#1910=CARTESIAN_POINT('',(47.5,5.007637592251,17.));
#1911=CARTESIAN_POINT('',(47.5,8.007637592251,23.));
#1912=CARTESIAN_POINT('',(47.5,5.007637592251,23.));
#1913=CARTESIAN_POINT('',(47.5,8.007637592251,17.));
#1914=CARTESIAN_POINT('Origin',(64.4999990388751,6.,13.));
#1915=CARTESIAN_POINT('',(42.,5.,12.));
#1916=CARTESIAN_POINT('',(42.,7.,14.));
#1917=CARTESIAN_POINT('',(42.,10.25,17.25));
#1918=CARTESIAN_POINT('',(85.9999980777502,7.,14.));
#1919=CARTESIAN_POINT('',(64.4999990388751,7.,14.));
#1920=CARTESIAN_POINT('',(85.9999980777502,5.,12.));
#1921=CARTESIAN_POINT('',(86.,1.25,8.25));
#1922=CARTESIAN_POINT('',(64.4999990388751,5.,12.));
#1923=CARTESIAN_POINT('Origin',(43.,16.25,14.));
#1924=CARTESIAN_POINT('',(42.,19.,14.));
#1925=CARTESIAN_POINT('',(42.,17.625,14.));
#1926=CARTESIAN_POINT('',(34.,27.,14.));
#1927=CARTESIAN_POINT('',(40.9375,20.0625,14.));
#1928=CARTESIAN_POINT('',(22.,27.,14.));
#1929=CARTESIAN_POINT('',(28.5,27.,14.));
#1930=CARTESIAN_POINT('',(14.,19.,14.));
#1931=CARTESIAN_POINT('',(22.5625,27.5625,14.));
#1932=CARTESIAN_POINT('',(14.,7.,14.));
#1933=CARTESIAN_POINT('',(14.,10.625,14.));
#1934=CARTESIAN_POINT('',(6.16297582203915E-32,7.,14.));
#1935=CARTESIAN_POINT('',(64.4999990388751,7.,14.));
#1936=CARTESIAN_POINT('',(0.,57.5,14.));
#1937=CARTESIAN_POINT('',(6.16297582203915E-32,27.5,14.));
#1938=CARTESIAN_POINT('',(85.9999980777502,57.5,14.));
#1939=CARTESIAN_POINT('',(85.9999980777502,57.5,14.));
#1940=CARTESIAN_POINT('',(85.9999980777502,2.5,14.));
#1941=CARTESIAN_POINT('',(71.5,44.9999999999998,14.));
#1942=CARTESIAN_POINT('',(71.5,27.9999999999998,14.));
#1943=CARTESIAN_POINT('',(71.5,22.1249999999999,14.));
#1944=CARTESIAN_POINT('',(80.5,27.9999999999998,14.));
#1945=CARTESIAN_POINT('',(61.75,27.9999999999998,14.));
#1946=CARTESIAN_POINT('',(80.5,44.9999999999998,14.));
#1947=CARTESIAN_POINT('',(80.5,32.125,14.));
#1948=CARTESIAN_POINT('',(77.5,47.9999999999998,14.));
#1949=CARTESIAN_POINT('',(77.5625,47.9374999999999,14.));
#1950=CARTESIAN_POINT('',(74.5,47.9999999999998,14.));
#1951=CARTESIAN_POINT('',(57.25,47.9999999999998,14.));
#1952=CARTESIAN_POINT('',(57.9375,31.4374999999999,14.));
#1953=CARTESIAN_POINT('',(42.,35.5,14.));
#1954=CARTESIAN_POINT('Origin',(44.,35.5,14.));
#1955=CARTESIAN_POINT('',(2.,35.5,14.));
#1956=CARTESIAN_POINT('Origin',(4.,35.5,14.));
#1957=CARTESIAN_POINT('Origin',(64.4999990388751,6.,13.));
#1958=CARTESIAN_POINT('',(14.,5.,12.));
#1959=CARTESIAN_POINT('',(14.,6.75,13.75));
#1960=CARTESIAN_POINT('',(6.16297582203915E-33,5.,12.));
#1961=CARTESIAN_POINT('',(64.4999990388751,5.,12.));
#1962=CARTESIAN_POINT('',(0.,2.5,9.5));
#1963=CARTESIAN_POINT('Origin',(85.9999980777502,5.,0.));
#1964=CARTESIAN_POINT('',(6.16297582203915E-33,5.,50.));
#1965=CARTESIAN_POINT('',(6.16297582203915E-33,5.,0.));
#1966=CARTESIAN_POINT('',(34.5,5.,50.));
#1967=CARTESIAN_POINT('',(86.,5.,50.));
#1968=CARTESIAN_POINT('',(34.5,5.,31.));
#1969=CARTESIAN_POINT('',(34.5,5.,0.));
#1970=CARTESIAN_POINT('',(51.5,5.,31.));
#1971=CARTESIAN_POINT('',(51.5,5.,31.));
#1972=CARTESIAN_POINT('',(51.5,5.,50.));
#1973=CARTESIAN_POINT('',(51.5,5.,0.));
#1974=CARTESIAN_POINT('',(52.7499990388751,5.,50.));
#1975=CARTESIAN_POINT('',(86.,5.,50.));
#1976=CARTESIAN_POINT('',(84.7499990388751,5.,50.));
#1977=CARTESIAN_POINT('',(86.,5.,50.));
#1978=CARTESIAN_POINT('',(85.9999980777502,5.,50.));
#1979=CARTESIAN_POINT('',(86.,5.,50.));
#1980=CARTESIAN_POINT('',(85.9999980777502,5.,0.));
#1981=CARTESIAN_POINT('',(52.802775637732,5.,23.));
#1982=CARTESIAN_POINT('',(52.802775637732,5.,17.));
#1983=CARTESIAN_POINT('',(49.197224362268,5.,23.));
#1984=CARTESIAN_POINT('',(68.4999923722405,5.,23.));
#1985=CARTESIAN_POINT('',(49.197224362268,5.,17.));
#1986=CARTESIAN_POINT('',(42.,5.,17.));
#1987=CARTESIAN_POINT('',(85.9999980777502,5.,2.));
#1988=CARTESIAN_POINT('',(85.9999980777502,5.,0.));
#1989=CARTESIAN_POINT('',(6.16297582203915E-33,5.,2.));
#1990=CARTESIAN_POINT('',(64.4999990388751,5.,2.));
#1991=CARTESIAN_POINT('',(6.16297582203915E-33,5.,0.));
#1992=CARTESIAN_POINT('',(14.,5.,17.));
#1993=CARTESIAN_POINT('',(58.5,5.,38.));
#1994=CARTESIAN_POINT('Origin',(56.5,5.,38.));
#1995=CARTESIAN_POINT('',(71.2499990388751,5.,45.));
#1996=CARTESIAN_POINT('Origin',(68.7499990388751,5.,45.));
#1997=CARTESIAN_POINT('',(31.5,5.,38.));
#1998=CARTESIAN_POINT('Origin',(29.5,5.,38.));
#1999=CARTESIAN_POINT('',(31.5,5.,46.));
#2000=CARTESIAN_POINT('Origin',(29.5,5.,46.));
#2001=CARTESIAN_POINT('',(58.5,5.,46.));
#2002=CARTESIAN_POINT('Origin',(56.5,5.,46.));
#2003=CARTESIAN_POINT('Origin',(64.4999990388751,6.,1.));
#2004=CARTESIAN_POINT('',(85.9999980777502,7.,0.));
#2005=CARTESIAN_POINT('',(86.,4.75,2.25));
#2006=CARTESIAN_POINT('',(1.10933564796705E-32,7.,0.));
#2007=CARTESIAN_POINT('',(64.4999990388751,7.,0.));
#2008=CARTESIAN_POINT('',(0.,6.,1.));
#2009=CARTESIAN_POINT('Origin',(43.,13.75,0.));
#2010=CARTESIAN_POINT('',(85.9999980777502,27.5,0.));
#2011=CARTESIAN_POINT('',(85.9999980777502,2.5,0.));
#2012=CARTESIAN_POINT('',(6.16297582203915E-32,27.5,0.));
#2013=CARTESIAN_POINT('',(85.9999980777502,27.5,0.));
#2014=CARTESIAN_POINT('',(6.16297582203915E-32,27.5,0.));
#2015=CARTESIAN_POINT('',(79.9999980777502,23.5,0.));
#2016=CARTESIAN_POINT('Origin',(81.9999980777502,23.5,0.));
#2017=CARTESIAN_POINT('',(2.,23.5,0.));
#2018=CARTESIAN_POINT('Origin',(4.,23.5,0.));
#2019=CARTESIAN_POINT('',(42.,23.5,0.));
#2020=CARTESIAN_POINT('Origin',(44.,23.5,0.));
#2021=CARTESIAN_POINT('Origin',(18.,23.,17.));
#2022=CARTESIAN_POINT('',(22.,27.,17.));
#2023=CARTESIAN_POINT('',(14.,19.,17.));
#2024=CARTESIAN_POINT('Origin',(14.,27.,17.));
#2025=CARTESIAN_POINT('',(34.,27.,17.));
#2026=CARTESIAN_POINT('Origin',(38.,23.,17.));
#2027=CARTESIAN_POINT('',(42.,19.,17.));
#2028=CARTESIAN_POINT('Origin',(22.25,39.5,20.));
#2029=CARTESIAN_POINT('Origin',(4.,35.5,16.));
#2030=CARTESIAN_POINT('',(8.5,42.5,23.));
#2031=CARTESIAN_POINT('',(8.5,39.5,20.));
#2032=CARTESIAN_POINT('',(1.5,42.5,23.));
#2033=CARTESIAN_POINT('',(8.5,42.5,23.));
#2034=CARTESIAN_POINT('',(1.5,40.375,20.875));
#2035=CARTESIAN_POINT('Origin',(4.,35.5,-3.));
#2036=CARTESIAN_POINT('',(2.,35.5,-3.));
#2037=CARTESIAN_POINT('Origin',(44.,35.5,-3.));
#2038=CARTESIAN_POINT('',(42.,35.5,-3.));
#2039=CARTESIAN_POINT('Origin',(73.,46.4999999999998,17.));
#2040=CARTESIAN_POINT('',(71.5,44.9999999999998,17.));
#2041=CARTESIAN_POINT('',(74.5,47.9999999999998,17.));
#2042=CARTESIAN_POINT('Origin',(71.5,27.9999999999998,17.));
#2043=CARTESIAN_POINT('',(71.5,27.9999999999998,17.));
#2044=CARTESIAN_POINT('Origin',(79.,46.4999999999998,17.));
#2045=CARTESIAN_POINT('',(77.5,47.9999999999998,17.));
#2046=CARTESIAN_POINT('',(80.5,44.9999999999998,17.));
#2047=CARTESIAN_POINT('Origin',(71.5,47.9999999999998,17.));
#2048=CARTESIAN_POINT('Origin',(52.7499990388751,5.,64.));
#2049=CARTESIAN_POINT('',(84.7499990388751,6.5,64.));
#2050=CARTESIAN_POINT('',(84.7499990388751,0.,64.));
#2051=CARTESIAN_POINT('',(84.7499990388751,5.,64.));
#2052=CARTESIAN_POINT('',(52.7499990388751,6.5,64.));
#2053=CARTESIAN_POINT('',(52.7499990388751,6.5,64.));
#2054=CARTESIAN_POINT('',(52.7499990388751,0.,64.));
#2055=CARTESIAN_POINT('',(52.7499990388751,5.,64.));
#2056=CARTESIAN_POINT('',(52.7499990388751,0.,64.));
#2057=CARTESIAN_POINT('Origin',(52.7499990388751,5.,50.));
#2058=CARTESIAN_POINT('',(52.7499990388751,6.5,50.));
#2059=CARTESIAN_POINT('',(52.7499990388751,6.5,50.));
#2060=CARTESIAN_POINT('',(52.7499990388751,5.,50.));
#2061=CARTESIAN_POINT('',(52.7499990388751,0.,50.));
#2062=CARTESIAN_POINT('',(52.7499990388751,3.75,50.));
#2063=CARTESIAN_POINT('',(52.7499990388751,0.,50.));
#2064=CARTESIAN_POINT('Origin',(84.7499990388751,5.,50.));
#2065=CARTESIAN_POINT('',(84.7499990388751,6.5,50.));
#2066=CARTESIAN_POINT('',(84.7499990388751,6.5,50.));
#2067=CARTESIAN_POINT('',(84.7499990388751,5.,50.));
#2068=CARTESIAN_POINT('Origin',(84.7499990388751,5.,64.));
#2069=CARTESIAN_POINT('',(84.7499990388751,0.,50.));
#2070=CARTESIAN_POINT('',(84.7499990388751,3.75,50.));
#2071=CARTESIAN_POINT('',(84.7499990388751,6.5,64.));
#2072=CARTESIAN_POINT('',(84.7499990388751,0.,64.));
#2073=CARTESIAN_POINT('Origin',(68.7499990388751,6.5,57.));
#2074=CARTESIAN_POINT('Origin',(68.75,2.5,50.));
#2075=CARTESIAN_POINT('',(86.,0.,50.));
#2076=CARTESIAN_POINT('',(0.,0.,50.));
#2077=CARTESIAN_POINT('',(86.,2.5,50.));
#2078=CARTESIAN_POINT('Origin',(44.,23.5,-3.));
#2079=CARTESIAN_POINT('',(42.,23.5,-3.));
#2080=CARTESIAN_POINT('Origin',(44.,23.5,-3.));
#2081=CARTESIAN_POINT('',(42.,23.5,-3.));
#2082=CARTESIAN_POINT('Origin',(4.,23.5,-3.));
#2083=CARTESIAN_POINT('',(2.,23.5,-3.));
#2084=CARTESIAN_POINT('Origin',(4.,23.5,-3.));
#2085=CARTESIAN_POINT('',(2.,23.5,-3.));
#2086=CARTESIAN_POINT('Origin',(81.9999980777502,23.5,-3.));
#2087=CARTESIAN_POINT('',(79.9999980777502,23.5,-3.));
#2088=CARTESIAN_POINT('Origin',(81.9999980777502,23.5,-3.));
#2089=CARTESIAN_POINT('',(79.9999980777502,23.5,-3.));
#2090=CARTESIAN_POINT('Origin',(14.,5.,17.));
#2091=CARTESIAN_POINT('Origin',(42.,19.,17.));
#2092=CARTESIAN_POINT('Origin',(80.5,27.9999999999998,17.));
#2093=CARTESIAN_POINT('',(80.5,27.9999999999998,17.));
#2094=CARTESIAN_POINT('Origin',(80.5,47.9999999999998,17.));
#2095=CARTESIAN_POINT('Origin',(5.,46.,17.));
#2096=CARTESIAN_POINT('',(7.,46.,23.));
#2097=CARTESIAN_POINT('Origin',(5.,46.,23.));
#2098=CARTESIAN_POINT('',(7.,46.,17.));
#2099=CARTESIAN_POINT('',(7.,46.,17.));
#2100=CARTESIAN_POINT('Origin',(5.,46.,17.));
#2101=CARTESIAN_POINT('Origin',(8.5,42.5,17.));
#2102=CARTESIAN_POINT('',(8.5,46.,23.));
#2103=CARTESIAN_POINT('',(8.5,46.,17.));
#2104=CARTESIAN_POINT('',(8.5,46.,23.));
#2105=CARTESIAN_POINT('Origin',(1.5,46.,17.));
#2106=CARTESIAN_POINT('',(1.5,46.,23.));
#2107=CARTESIAN_POINT('',(1.5,42.5,23.));
#2108=CARTESIAN_POINT('',(1.5,46.,17.));
#2109=CARTESIAN_POINT('Origin',(5.,46.,17.));
#2110=CARTESIAN_POINT('Origin',(5.,46.,23.));
#2111=CARTESIAN_POINT('Origin',(5.,46.,23.));
#2112=CARTESIAN_POINT('Origin',(51.,8.,17.));
#2113=CARTESIAN_POINT('',(53.,8.,23.));
#2114=CARTESIAN_POINT('Origin',(51.,8.,23.));
#2115=CARTESIAN_POINT('',(53.,8.,17.));
#2116=CARTESIAN_POINT('',(53.,8.,17.));
#2117=CARTESIAN_POINT('Origin',(51.,8.,17.));
#2118=CARTESIAN_POINT('Origin',(47.5,5.007637592251,17.));
#2119=CARTESIAN_POINT('',(49.1845751955285,5.007637592251,23.));
#2120=CARTESIAN_POINT('',(49.1845751955285,5.007637592251,17.));
#2121=CARTESIAN_POINT('',(54.4999916667307,5.007637592251,23.));
#2122=CARTESIAN_POINT('Origin',(51.,8.,17.));
#2123=CARTESIAN_POINT('Origin',(51.,8.,23.));
#2124=CARTESIAN_POINT('Origin',(51.,8.,17.));
#2125=CARTESIAN_POINT('Origin',(51.,8.,23.));
#2126=CARTESIAN_POINT('Origin',(51.,8.,17.));
#2127=CARTESIAN_POINT('Origin',(51.,8.,23.));
#2128=CARTESIAN_POINT('Origin',(50.9999866667307,8.25,23.));
#2129=CARTESIAN_POINT('Origin',(43.,16.25,17.));
#2130=CARTESIAN_POINT('Origin',(85.9999980777502,57.5,14.));
#2131=CARTESIAN_POINT('',(6.16297582203915E-32,57.5,14.));
#2132=CARTESIAN_POINT('',(85.9999980777502,57.5,14.));
#2133=CARTESIAN_POINT('Origin',(56.5,5.,46.));
#2134=CARTESIAN_POINT('',(58.5,0.,46.));
#2135=CARTESIAN_POINT('',(58.5,5.,46.));
#2136=CARTESIAN_POINT('Origin',(56.5,0.,46.));
#2137=CARTESIAN_POINT('Origin',(29.5,5.,46.));
#2138=CARTESIAN_POINT('',(31.5,0.,46.));
#2139=CARTESIAN_POINT('',(31.5,5.,46.));
#2140=CARTESIAN_POINT('Origin',(29.5,0.,46.));
#2141=CARTESIAN_POINT('Origin',(29.5,5.,38.));
#2142=CARTESIAN_POINT('',(31.5,0.,38.));
#2143=CARTESIAN_POINT('',(31.5,5.,38.));
#2144=CARTESIAN_POINT('Origin',(29.5,0.,38.));
#2145=CARTESIAN_POINT('Origin',(68.7499990388751,5.,45.));
#2146=CARTESIAN_POINT('',(71.2499990388751,0.,45.));
#2147=CARTESIAN_POINT('',(71.2499990388751,5.,45.));
#2148=CARTESIAN_POINT('Origin',(68.7499990388751,0.,45.));
#2149=CARTESIAN_POINT('Origin',(56.5,5.,38.));
#2150=CARTESIAN_POINT('',(58.5,0.,38.));
#2151=CARTESIAN_POINT('',(58.5,5.,38.));
#2152=CARTESIAN_POINT('Origin',(56.5,0.,38.));
#2153=CARTESIAN_POINT('Origin',(43.,2.5,31.));
#2154=CARTESIAN_POINT('',(34.5,1.96444854327498E-31,31.));
#2155=CARTESIAN_POINT('',(51.5,4.23704587765192E-31,31.));
#2156=CARTESIAN_POINT('',(43.,0.,31.));
#2157=CARTESIAN_POINT('',(51.5,3.75,31.));
#2158=CARTESIAN_POINT('',(34.5,1.25,31.));
#2159=CARTESIAN_POINT('Origin',(34.5,1.96444854327498E-31,0.));
#2160=CARTESIAN_POINT('',(34.5,1.96444854327498E-31,50.));
#2161=CARTESIAN_POINT('',(34.5,1.96444854327498E-31,50.));
#2162=CARTESIAN_POINT('',(34.5,1.96444854327498E-31,0.));
#2163=CARTESIAN_POINT('Origin',(43.,16.25,17.));
#2164=CARTESIAN_POINT('Origin',(0.,27.5,0.));
#2165=CARTESIAN_POINT('',(85.9999980777502,27.5,-3.));
#2166=CARTESIAN_POINT('',(85.9999980777502,27.5,0.));
#2167=CARTESIAN_POINT('',(0.,27.5,-3.));
#2168=CARTESIAN_POINT('',(85.9999980777502,27.5,-3.));
#2169=CARTESIAN_POINT('',(6.16297582203915E-32,27.5,0.));
#2170=CARTESIAN_POINT('Origin',(43.,13.75,-3.));
#2171=CARTESIAN_POINT('',(86.,0.,-3.));
#2172=CARTESIAN_POINT('',(85.9999980777502,2.5,-3.));
#2173=CARTESIAN_POINT('',(0.,0.,-3.));
#2174=CARTESIAN_POINT('',(0.,0.,-3.));
#2175=CARTESIAN_POINT('',(6.16297582203915E-32,27.5,-3.));
#2176=CARTESIAN_POINT('Origin',(6.16297582203915E-33,5.,0.));
#2177=CARTESIAN_POINT('',(0.,0.,50.));
#2178=CARTESIAN_POINT('',(0.,0.,0.));
#2179=CARTESIAN_POINT('',(6.16297582203915E-32,27.5,50.));
#2180=CARTESIAN_POINT('Origin',(17.25,2.5,50.));
#2181=CARTESIAN_POINT('',(0.,0.,50.));
#2182=CARTESIAN_POINT('Origin',(86.,0.,0.));
#2183=CARTESIAN_POINT('',(86.,0.,0.));
#2184=CARTESIAN_POINT('Origin',(51.5,0.,0.));
#2185=CARTESIAN_POINT('',(51.5,0.,50.));
#2186=CARTESIAN_POINT('',(0.,0.,50.));
#2187=CARTESIAN_POINT('',(51.5,4.23704587765192E-31,0.));
#2188=CARTESIAN_POINT('Origin',(51.5,5.,0.));
#2189=CARTESIAN_POINT('',(51.5,4.23704587765192E-31,50.));
#2190=CARTESIAN_POINT('Origin',(68.75,2.5,50.));
#2191=UNCERTAINTY_MEASURE_WITH_UNIT(LENGTH_MEASURE(0.01),#2195,
'DISTANCE_ACCURACY_VALUE',
'Maximum model space distance between geometric entities at asserted c
onnectivities');
#2192=UNCERTAINTY_MEASURE_WITH_UNIT(LENGTH_MEASURE(0.01),#2195,
'DISTANCE_ACCURACY_VALUE',
'Maximum model space distance between geometric entities at asserted c
onnectivities');
#2193=(
GEOMETRIC_REPRESENTATION_CONTEXT(3)
GLOBAL_UNCERTAINTY_ASSIGNED_CONTEXT((#2191))
GLOBAL_UNIT_ASSIGNED_CONTEXT((#2195,#2197,#2198))
REPRESENTATION_CONTEXT('','3D')
);
#2194=(
GEOMETRIC_REPRESENTATION_CONTEXT(3)
GLOBAL_UNCERTAINTY_ASSIGNED_CONTEXT((#2192))
GLOBAL_UNIT_ASSIGNED_CONTEXT((#2195,#2197,#2198))
REPRESENTATION_CONTEXT('','3D')
);
#2195=(
LENGTH_UNIT()
NAMED_UNIT(*)
SI_UNIT(.MILLI.,.METRE.)
);
#2196=(
LENGTH_UNIT()
NAMED_UNIT(*)
SI_UNIT($,.METRE.)
);
#2197=(
NAMED_UNIT(*)
PLANE_ANGLE_UNIT()
SI_UNIT($,.RADIAN.)
);
#2198=(
NAMED_UNIT(*)
SI_UNIT($,.STERADIAN.)
SOLID_ANGLE_UNIT()
);
#2199=SHAPE_DEFINITION_REPRESENTATION(#2200,#2201);
#2200=PRODUCT_DEFINITION_SHAPE('',$,#2203);
#2201=SHAPE_REPRESENTATION('',(#1361),#2193);
#2202=PRODUCT_DEFINITION_CONTEXT('part definition',#2207,'design');
#2203=PRODUCT_DEFINITION('2026-05-06-10-55-02-240',
'Flysky Screen Adapter',#2204,#2202);
#2204=PRODUCT_DEFINITION_FORMATION('',$,#2209);
#2205=PRODUCT_RELATED_PRODUCT_CATEGORY('Flysky Screen Adapter',
'Flysky Screen Adapter',(#2209));
#2206=APPLICATION_PROTOCOL_DEFINITION('international standard',
'automotive_design',2009,#2207);
#2207=APPLICATION_CONTEXT(
'Core Data for Automotive Mechanical Design Process');
#2208=PRODUCT_CONTEXT('part definition',#2207,'mechanical');
#2209=PRODUCT('2026-05-06-10-55-02-240','Flysky Screen Adapter',$,(#2208));
#2210=PRESENTATION_STYLE_ASSIGNMENT((#2211));
#2211=SURFACE_STYLE_USAGE(.BOTH.,#2212);
#2212=SURFACE_SIDE_STYLE('',(#2213));
#2213=SURFACE_STYLE_FILL_AREA(#2214);
#2214=FILL_AREA_STYLE('Steel - Satin',(#2215));
#2215=FILL_AREA_STYLE_COLOUR('Steel - Satin',#2216);
#2216=COLOUR_RGB('Steel - Satin',0.627450980392157,0.627450980392157,0.627450980392157);
ENDSEC;
END-ISO-10303-21;
