ISO-10303-21;
HEADER;
/* Generated by software containing ST-Developer
 * from STEP Tools, Inc. (www.steptools.com) 
 */

FILE_DESCRIPTION(
/* description */ (''),
/* implementation_level */ '2;1');

FILE_NAME(
/* name */ 'Proto 433MHz Controller.step',
/* time_stamp */ '2026-05-07T11:50:13+03:00',
/* author */ (''),
/* organization */ (''),
/* preprocessor_version */ 'ST-DEVELOPER v20.1',
/* originating_system */ 'Autodesk Translation Framework v15.8.0.0',
/* authorisation */ '');

FILE_SCHEMA (('AUTOMOTIVE_DESIGN { 1 0 10303 214 3 1 1 }'));
ENDSEC;

DATA;
#10=MECHANICAL_DESIGN_GEOMETRIC_PRESENTATION_REPRESENTATION('',(#25,#26),
#1294);
#11=SHAPE_REPRESENTATION_RELATIONSHIP('SRR','None',#1300,#12);
#12=ADVANCED_BREP_SHAPE_REPRESENTATION('',(#27,#28),#1293);
#13=CYLINDRICAL_SURFACE('',#858,4.);
#14=CYLINDRICAL_SURFACE('',#863,10.);
#15=CYLINDRICAL_SURFACE('',#864,2.00000000000001);
#16=CYLINDRICAL_SURFACE('',#865,4.);
#17=CIRCLE('',#849,4.);
#18=CIRCLE('',#850,10.);
#19=CIRCLE('',#851,2.00000000000001);
#20=CIRCLE('',#852,4.);
#21=CIRCLE('',#854,4.);
#22=CIRCLE('',#855,2.00000000000001);
#23=CIRCLE('',#856,10.);
#24=CIRCLE('',#857,4.);
#25=STYLED_ITEM('',(#1309),#27);
#26=STYLED_ITEM('',(#1309),#28);
#27=MANIFOLD_SOLID_BREP('Body7',#813);
#28=MANIFOLD_SOLID_BREP('Body8',#814);
#29=FACE_BOUND('',#106,.T.);
#30=FACE_BOUND('',#117,.T.);
#31=FACE_BOUND('',#118,.T.);
#32=FACE_BOUND('',#119,.T.);
#33=FACE_BOUND('',#120,.T.);
#34=FACE_BOUND('',#121,.T.);
#35=FACE_BOUND('',#122,.T.);
#36=FACE_BOUND('',#124,.T.);
#37=FACE_BOUND('',#125,.T.);
#38=FACE_BOUND('',#126,.T.);
#39=FACE_BOUND('',#127,.T.);
#40=FACE_BOUND('',#128,.T.);
#41=FACE_OUTER_BOUND('',#83,.T.);
#42=FACE_OUTER_BOUND('',#84,.T.);
#43=FACE_OUTER_BOUND('',#85,.T.);
#44=FACE_OUTER_BOUND('',#86,.T.);
#45=FACE_OUTER_BOUND('',#87,.T.);
#46=FACE_OUTER_BOUND('',#88,.T.);
#47=FACE_OUTER_BOUND('',#89,.T.);
#48=FACE_OUTER_BOUND('',#90,.T.);
#49=FACE_OUTER_BOUND('',#91,.T.);
#50=FACE_OUTER_BOUND('',#92,.T.);
#51=FACE_OUTER_BOUND('',#93,.T.);
#52=FACE_OUTER_BOUND('',#94,.T.);
#53=FACE_OUTER_BOUND('',#95,.T.);
#54=FACE_OUTER_BOUND('',#96,.T.);
#55=FACE_OUTER_BOUND('',#97,.T.);
#56=FACE_OUTER_BOUND('',#98,.T.);
#57=FACE_OUTER_BOUND('',#99,.T.);
#58=FACE_OUTER_BOUND('',#100,.T.);
#59=FACE_OUTER_BOUND('',#101,.T.);
#60=FACE_OUTER_BOUND('',#102,.T.);
#61=FACE_OUTER_BOUND('',#103,.T.);
#62=FACE_OUTER_BOUND('',#104,.T.);
#63=FACE_OUTER_BOUND('',#105,.T.);
#64=FACE_OUTER_BOUND('',#107,.T.);
#65=FACE_OUTER_BOUND('',#108,.T.);
#66=FACE_OUTER_BOUND('',#109,.T.);
#67=FACE_OUTER_BOUND('',#110,.T.);
#68=FACE_OUTER_BOUND('',#111,.T.);
#69=FACE_OUTER_BOUND('',#112,.T.);
#70=FACE_OUTER_BOUND('',#113,.T.);
#71=FACE_OUTER_BOUND('',#114,.T.);
#72=FACE_OUTER_BOUND('',#115,.T.);
#73=FACE_OUTER_BOUND('',#116,.T.);
#74=FACE_OUTER_BOUND('',#123,.T.);
#75=FACE_OUTER_BOUND('',#129,.T.);
#76=FACE_OUTER_BOUND('',#130,.T.);
#77=FACE_OUTER_BOUND('',#131,.T.);
#78=FACE_OUTER_BOUND('',#132,.T.);
#79=FACE_OUTER_BOUND('',#133,.T.);
#80=FACE_OUTER_BOUND('',#134,.T.);
#81=FACE_OUTER_BOUND('',#135,.T.);
#82=FACE_OUTER_BOUND('',#136,.T.);
#83=EDGE_LOOP('',(#517,#518,#519,#520));
#84=EDGE_LOOP('',(#521,#522,#523,#524));
#85=EDGE_LOOP('',(#525,#526,#527,#528));
#86=EDGE_LOOP('',(#529,#530,#531,#532));
#87=EDGE_LOOP('',(#533,#534,#535,#536,#537,#538,#539,#540));
#88=EDGE_LOOP('',(#541,#542,#543,#544));
#89=EDGE_LOOP('',(#545,#546,#547,#548,#549,#550,#551,#552));
#90=EDGE_LOOP('',(#553,#554,#555,#556,#557,#558,#559,#560));
#91=EDGE_LOOP('',(#561,#562,#563,#564));
#92=EDGE_LOOP('',(#565,#566,#567,#568,#569,#570,#571,#572));
#93=EDGE_LOOP('',(#573,#574,#575,#576));
#94=EDGE_LOOP('',(#577,#578,#579,#580));
#95=EDGE_LOOP('',(#581,#582,#583,#584));
#96=EDGE_LOOP('',(#585,#586,#587,#588,#589,#590,#591,#592));
#97=EDGE_LOOP('',(#593,#594,#595,#596));
#98=EDGE_LOOP('',(#597,#598,#599,#600));
#99=EDGE_LOOP('',(#601,#602,#603,#604));
#100=EDGE_LOOP('',(#605,#606,#607,#608));
#101=EDGE_LOOP('',(#609,#610,#611,#612));
#102=EDGE_LOOP('',(#613,#614,#615,#616));
#103=EDGE_LOOP('',(#617,#618,#619,#620,#621,#622,#623,#624));
#104=EDGE_LOOP('',(#625,#626,#627,#628));
#105=EDGE_LOOP('',(#629,#630,#631,#632));
#106=EDGE_LOOP('',(#633,#634,#635,#636));
#107=EDGE_LOOP('',(#637,#638,#639,#640));
#108=EDGE_LOOP('',(#641,#642,#643,#644));
#109=EDGE_LOOP('',(#645,#646,#647,#648));
#110=EDGE_LOOP('',(#649,#650,#651,#652));
#111=EDGE_LOOP('',(#653,#654,#655,#656));
#112=EDGE_LOOP('',(#657,#658,#659,#660));
#113=EDGE_LOOP('',(#661,#662,#663,#664));
#114=EDGE_LOOP('',(#665,#666,#667,#668));
#115=EDGE_LOOP('',(#669,#670,#671,#672));
#116=EDGE_LOOP('',(#673,#674,#675,#676));
#117=EDGE_LOOP('',(#677,#678,#679,#680));
#118=EDGE_LOOP('',(#681));
#119=EDGE_LOOP('',(#682,#683,#684,#685));
#120=EDGE_LOOP('',(#686));
#121=EDGE_LOOP('',(#687));
#122=EDGE_LOOP('',(#688));
#123=EDGE_LOOP('',(#689,#690,#691,#692));
#124=EDGE_LOOP('',(#693));
#125=EDGE_LOOP('',(#694));
#126=EDGE_LOOP('',(#695));
#127=EDGE_LOOP('',(#696,#697,#698,#699));
#128=EDGE_LOOP('',(#700));
#129=EDGE_LOOP('',(#701,#702,#703,#704));
#130=EDGE_LOOP('',(#705,#706,#707,#708));
#131=EDGE_LOOP('',(#709,#710,#711,#712));
#132=EDGE_LOOP('',(#713,#714,#715,#716));
#133=EDGE_LOOP('',(#717,#718,#719,#720));
#134=EDGE_LOOP('',(#721,#722,#723,#724));
#135=EDGE_LOOP('',(#725,#726,#727,#728));
#136=EDGE_LOOP('',(#729,#730,#731,#732));
#137=LINE('',#1072,#237);
#138=LINE('',#1074,#238);
#139=LINE('',#1076,#239);
#140=LINE('',#1077,#240);
#141=LINE('',#1080,#241);
#142=LINE('',#1082,#242);
#143=LINE('',#1083,#243);
#144=LINE('',#1087,#244);
#145=LINE('',#1089,#245);
#146=LINE('',#1091,#246);
#147=LINE('',#1092,#247);
#148=LINE('',#1095,#248);
#149=LINE('',#1097,#249);
#150=LINE('',#1098,#250);
#151=LINE('',#1102,#251);
#152=LINE('',#1103,#252);
#153=LINE('',#1105,#253);
#154=LINE('',#1107,#254);
#155=LINE('',#1109,#255);
#156=LINE('',#1110,#256);
#157=LINE('',#1114,#257);
#158=LINE('',#1116,#258);
#159=LINE('',#1118,#259);
#160=LINE('',#1119,#260);
#161=LINE('',#1122,#261);
#162=LINE('',#1124,#262);
#163=LINE('',#1126,#263);
#164=LINE('',#1128,#264);
#165=LINE('',#1129,#265);
#166=LINE('',#1130,#266);
#167=LINE('',#1132,#267);
#168=LINE('',#1134,#268);
#169=LINE('',#1136,#269);
#170=LINE('',#1138,#270);
#171=LINE('',#1140,#271);
#172=LINE('',#1141,#272);
#173=LINE('',#1144,#273);
#174=LINE('',#1146,#274);
#175=LINE('',#1147,#275);
#176=LINE('',#1150,#276);
#177=LINE('',#1152,#277);
#178=LINE('',#1154,#278);
#179=LINE('',#1156,#279);
#180=LINE('',#1157,#280);
#181=LINE('',#1158,#281);
#182=LINE('',#1160,#282);
#183=LINE('',#1161,#283);
#184=LINE('',#1165,#284);
#185=LINE('',#1167,#285);
#186=LINE('',#1168,#286);
#187=LINE('',#1171,#287);
#188=LINE('',#1173,#288);
#189=LINE('',#1174,#289);
#190=LINE('',#1176,#290);
#191=LINE('',#1178,#291);
#192=LINE('',#1181,#292);
#193=LINE('',#1183,#293);
#194=LINE('',#1187,#294);
#195=LINE('',#1188,#295);
#196=LINE('',#1190,#296);
#197=LINE('',#1195,#297);
#198=LINE('',#1197,#298);
#199=LINE('',#1199,#299);
#200=LINE('',#1200,#300);
#201=LINE('',#1203,#301);
#202=LINE('',#1205,#302);
#203=LINE('',#1206,#303);
#204=LINE('',#1210,#304);
#205=LINE('',#1212,#305);
#206=LINE('',#1214,#306);
#207=LINE('',#1215,#307);
#208=LINE('',#1218,#308);
#209=LINE('',#1220,#309);
#210=LINE('',#1221,#310);
#211=LINE('',#1223,#311);
#212=LINE('',#1224,#312);
#213=LINE('',#1228,#313);
#214=LINE('',#1230,#314);
#215=LINE('',#1232,#315);
#216=LINE('',#1233,#316);
#217=LINE('',#1235,#317);
#218=LINE('',#1236,#318);
#219=LINE('',#1238,#319);
#220=LINE('',#1239,#320);
#221=LINE('',#1246,#321);
#222=LINE('',#1248,#322);
#223=LINE('',#1250,#323);
#224=LINE('',#1251,#324);
#225=LINE('',#1267,#325);
#226=LINE('',#1269,#326);
#227=LINE('',#1271,#327);
#228=LINE('',#1272,#328);
#229=LINE('',#1276,#329);
#230=LINE('',#1278,#330);
#231=LINE('',#1279,#331);
#232=LINE('',#1281,#332);
#233=LINE('',#1283,#333);
#234=LINE('',#1286,#334);
#235=LINE('',#1288,#335);
#236=LINE('',#1290,#336);
#237=VECTOR('',#870,10.);
#238=VECTOR('',#871,10.);
#239=VECTOR('',#872,10.);
#240=VECTOR('',#873,10.);
#241=VECTOR('',#876,10.);
#242=VECTOR('',#877,10.);
#243=VECTOR('',#878,10.);
#244=VECTOR('',#881,10.);
#245=VECTOR('',#882,10.);
#246=VECTOR('',#883,10.);
#247=VECTOR('',#884,10.);
#248=VECTOR('',#887,10.);
#249=VECTOR('',#888,10.);
#250=VECTOR('',#889,10.);
#251=VECTOR('',#892,10.);
#252=VECTOR('',#893,10.);
#253=VECTOR('',#894,10.);
#254=VECTOR('',#895,10.);
#255=VECTOR('',#896,10.);
#256=VECTOR('',#897,10.);
#257=VECTOR('',#900,10.);
#258=VECTOR('',#901,10.);
#259=VECTOR('',#902,10.);
#260=VECTOR('',#903,10.);
#261=VECTOR('',#906,10.);
#262=VECTOR('',#907,10.);
#263=VECTOR('',#908,10.);
#264=VECTOR('',#909,10.);
#265=VECTOR('',#910,10.);
#266=VECTOR('',#911,10.);
#267=VECTOR('',#914,10.);
#268=VECTOR('',#915,10.);
#269=VECTOR('',#916,10.);
#270=VECTOR('',#917,10.);
#271=VECTOR('',#918,10.);
#272=VECTOR('',#919,10.);
#273=VECTOR('',#922,10.);
#274=VECTOR('',#923,10.);
#275=VECTOR('',#924,10.);
#276=VECTOR('',#927,10.);
#277=VECTOR('',#928,10.);
#278=VECTOR('',#929,10.);
#279=VECTOR('',#930,10.);
#280=VECTOR('',#931,10.);
#281=VECTOR('',#932,10.);
#282=VECTOR('',#935,10.);
#283=VECTOR('',#936,10.);
#284=VECTOR('',#941,10.);
#285=VECTOR('',#942,10.);
#286=VECTOR('',#943,10.);
#287=VECTOR('',#946,10.);
#288=VECTOR('',#947,10.);
#289=VECTOR('',#948,10.);
#290=VECTOR('',#951,10.);
#291=VECTOR('',#954,10.);
#292=VECTOR('',#959,10.);
#293=VECTOR('',#962,10.);
#294=VECTOR('',#967,10.);
#295=VECTOR('',#968,10.);
#296=VECTOR('',#971,10.);
#297=VECTOR('',#976,10.);
#298=VECTOR('',#977,10.);
#299=VECTOR('',#978,10.);
#300=VECTOR('',#979,10.);
#301=VECTOR('',#982,10.);
#302=VECTOR('',#983,10.);
#303=VECTOR('',#984,10.);
#304=VECTOR('',#987,10.);
#305=VECTOR('',#988,10.);
#306=VECTOR('',#989,10.);
#307=VECTOR('',#990,10.);
#308=VECTOR('',#993,10.);
#309=VECTOR('',#994,10.);
#310=VECTOR('',#995,10.);
#311=VECTOR('',#998,10.);
#312=VECTOR('',#999,10.);
#313=VECTOR('',#1002,10.);
#314=VECTOR('',#1003,10.);
#315=VECTOR('',#1004,10.);
#316=VECTOR('',#1005,10.);
#317=VECTOR('',#1008,10.);
#318=VECTOR('',#1009,10.);
#319=VECTOR('',#1012,10.);
#320=VECTOR('',#1013,10.);
#321=VECTOR('',#1020,10.);
#322=VECTOR('',#1021,10.);
#323=VECTOR('',#1022,10.);
#324=VECTOR('',#1023,10.);
#325=VECTOR('',#1038,10.);
#326=VECTOR('',#1039,10.);
#327=VECTOR('',#1040,10.);
#328=VECTOR('',#1041,10.);
#329=VECTOR('',#1046,4.);
#330=VECTOR('',#1049,10.);
#331=VECTOR('',#1050,10.);
#332=VECTOR('',#1053,10.);
#333=VECTOR('',#1056,10.);
#334=VECTOR('',#1061,10.);
#335=VECTOR('',#1064,2.00000000000001);
#336=VECTOR('',#1067,4.);
#337=VERTEX_POINT('',#1070);
#338=VERTEX_POINT('',#1071);
#339=VERTEX_POINT('',#1073);
#340=VERTEX_POINT('',#1075);
#341=VERTEX_POINT('',#1079);
#342=VERTEX_POINT('',#1081);
#343=VERTEX_POINT('',#1085);
#344=VERTEX_POINT('',#1086);
#345=VERTEX_POINT('',#1088);
#346=VERTEX_POINT('',#1090);
#347=VERTEX_POINT('',#1094);
#348=VERTEX_POINT('',#1096);
#349=VERTEX_POINT('',#1100);
#350=VERTEX_POINT('',#1101);
#351=VERTEX_POINT('',#1104);
#352=VERTEX_POINT('',#1106);
#353=VERTEX_POINT('',#1108);
#354=VERTEX_POINT('',#1112);
#355=VERTEX_POINT('',#1113);
#356=VERTEX_POINT('',#1115);
#357=VERTEX_POINT('',#1117);
#358=VERTEX_POINT('',#1121);
#359=VERTEX_POINT('',#1123);
#360=VERTEX_POINT('',#1125);
#361=VERTEX_POINT('',#1127);
#362=VERTEX_POINT('',#1133);
#363=VERTEX_POINT('',#1135);
#364=VERTEX_POINT('',#1137);
#365=VERTEX_POINT('',#1139);
#366=VERTEX_POINT('',#1143);
#367=VERTEX_POINT('',#1145);
#368=VERTEX_POINT('',#1149);
#369=VERTEX_POINT('',#1151);
#370=VERTEX_POINT('',#1153);
#371=VERTEX_POINT('',#1155);
#372=VERTEX_POINT('',#1164);
#373=VERTEX_POINT('',#1166);
#374=VERTEX_POINT('',#1170);
#375=VERTEX_POINT('',#1172);
#376=VERTEX_POINT('',#1186);
#377=VERTEX_POINT('',#1193);
#378=VERTEX_POINT('',#1194);
#379=VERTEX_POINT('',#1196);
#380=VERTEX_POINT('',#1198);
#381=VERTEX_POINT('',#1202);
#382=VERTEX_POINT('',#1204);
#383=VERTEX_POINT('',#1208);
#384=VERTEX_POINT('',#1209);
#385=VERTEX_POINT('',#1211);
#386=VERTEX_POINT('',#1213);
#387=VERTEX_POINT('',#1217);
#388=VERTEX_POINT('',#1219);
#389=VERTEX_POINT('',#1226);
#390=VERTEX_POINT('',#1227);
#391=VERTEX_POINT('',#1229);
#392=VERTEX_POINT('',#1231);
#393=VERTEX_POINT('',#1242);
#394=VERTEX_POINT('',#1244);
#395=VERTEX_POINT('',#1245);
#396=VERTEX_POINT('',#1247);
#397=VERTEX_POINT('',#1249);
#398=VERTEX_POINT('',#1252);
#399=VERTEX_POINT('',#1254);
#400=VERTEX_POINT('',#1256);
#401=VERTEX_POINT('',#1259);
#402=VERTEX_POINT('',#1261);
#403=VERTEX_POINT('',#1263);
#404=VERTEX_POINT('',#1265);
#405=VERTEX_POINT('',#1266);
#406=VERTEX_POINT('',#1268);
#407=VERTEX_POINT('',#1270);
#408=VERTEX_POINT('',#1273);
#409=EDGE_CURVE('',#337,#338,#137,.T.);
#410=EDGE_CURVE('',#339,#337,#138,.T.);
#411=EDGE_CURVE('',#339,#340,#139,.T.);
#412=EDGE_CURVE('',#340,#338,#140,.T.);
#413=EDGE_CURVE('',#338,#341,#141,.T.);
#414=EDGE_CURVE('',#340,#342,#142,.T.);
#415=EDGE_CURVE('',#342,#341,#143,.T.);
#416=EDGE_CURVE('',#343,#344,#144,.T.);
#417=EDGE_CURVE('',#344,#345,#145,.T.);
#418=EDGE_CURVE('',#346,#345,#146,.T.);
#419=EDGE_CURVE('',#343,#346,#147,.T.);
#420=EDGE_CURVE('',#344,#347,#148,.T.);
#421=EDGE_CURVE('',#347,#348,#149,.T.);
#422=EDGE_CURVE('',#345,#348,#150,.T.);
#423=EDGE_CURVE('',#349,#350,#151,.T.);
#424=EDGE_CURVE('',#342,#350,#152,.T.);
#425=EDGE_CURVE('',#351,#339,#153,.T.);
#426=EDGE_CURVE('',#352,#351,#154,.T.);
#427=EDGE_CURVE('',#352,#353,#155,.T.);
#428=EDGE_CURVE('',#353,#349,#156,.T.);
#429=EDGE_CURVE('',#354,#355,#157,.T.);
#430=EDGE_CURVE('',#354,#356,#158,.T.);
#431=EDGE_CURVE('',#357,#356,#159,.T.);
#432=EDGE_CURVE('',#355,#357,#160,.T.);
#433=EDGE_CURVE('',#349,#358,#161,.T.);
#434=EDGE_CURVE('',#358,#359,#162,.T.);
#435=EDGE_CURVE('',#360,#359,#163,.T.);
#436=EDGE_CURVE('',#360,#361,#164,.T.);
#437=EDGE_CURVE('',#361,#354,#165,.T.);
#438=EDGE_CURVE('',#350,#355,#166,.T.);
#439=EDGE_CURVE('',#357,#352,#167,.T.);
#440=EDGE_CURVE('',#356,#362,#168,.T.);
#441=EDGE_CURVE('',#363,#362,#169,.T.);
#442=EDGE_CURVE('',#364,#363,#170,.T.);
#443=EDGE_CURVE('',#364,#365,#171,.T.);
#444=EDGE_CURVE('',#353,#365,#172,.T.);
#445=EDGE_CURVE('',#366,#343,#173,.T.);
#446=EDGE_CURVE('',#367,#346,#174,.T.);
#447=EDGE_CURVE('',#366,#367,#175,.T.);
#448=EDGE_CURVE('',#347,#368,#176,.T.);
#449=EDGE_CURVE('',#368,#369,#177,.T.);
#450=EDGE_CURVE('',#369,#370,#178,.T.);
#451=EDGE_CURVE('',#370,#371,#179,.T.);
#452=EDGE_CURVE('',#371,#366,#180,.T.);
#453=EDGE_CURVE('',#348,#367,#181,.T.);
#454=EDGE_CURVE('',#365,#358,#182,.T.);
#455=EDGE_CURVE('',#359,#364,#183,.T.);
#456=EDGE_CURVE('',#369,#372,#184,.T.);
#457=EDGE_CURVE('',#372,#373,#185,.T.);
#458=EDGE_CURVE('',#373,#370,#186,.T.);
#459=EDGE_CURVE('',#374,#371,#187,.T.);
#460=EDGE_CURVE('',#375,#374,#188,.T.);
#461=EDGE_CURVE('',#368,#375,#189,.T.);
#462=EDGE_CURVE('',#372,#375,#190,.T.);
#463=EDGE_CURVE('',#373,#374,#191,.T.);
#464=EDGE_CURVE('',#362,#361,#192,.T.);
#465=EDGE_CURVE('',#363,#360,#193,.T.);
#466=EDGE_CURVE('',#341,#376,#194,.T.);
#467=EDGE_CURVE('',#351,#376,#195,.T.);
#468=EDGE_CURVE('',#376,#337,#196,.T.);
#469=EDGE_CURVE('',#377,#378,#197,.T.);
#470=EDGE_CURVE('',#378,#379,#198,.T.);
#471=EDGE_CURVE('',#380,#379,#199,.T.);
#472=EDGE_CURVE('',#377,#380,#200,.T.);
#473=EDGE_CURVE('',#378,#381,#201,.T.);
#474=EDGE_CURVE('',#381,#382,#202,.T.);
#475=EDGE_CURVE('',#379,#382,#203,.T.);
#476=EDGE_CURVE('',#383,#384,#204,.T.);
#477=EDGE_CURVE('',#383,#385,#205,.T.);
#478=EDGE_CURVE('',#385,#386,#206,.T.);
#479=EDGE_CURVE('',#384,#386,#207,.T.);
#480=EDGE_CURVE('',#381,#387,#208,.T.);
#481=EDGE_CURVE('',#387,#388,#209,.T.);
#482=EDGE_CURVE('',#382,#388,#210,.T.);
#483=EDGE_CURVE('',#387,#377,#211,.T.);
#484=EDGE_CURVE('',#388,#380,#212,.T.);
#485=EDGE_CURVE('',#389,#390,#213,.T.);
#486=EDGE_CURVE('',#389,#391,#214,.T.);
#487=EDGE_CURVE('',#391,#392,#215,.T.);
#488=EDGE_CURVE('',#390,#392,#216,.T.);
#489=EDGE_CURVE('',#386,#391,#217,.T.);
#490=EDGE_CURVE('',#384,#389,#218,.T.);
#491=EDGE_CURVE('',#390,#383,#219,.T.);
#492=EDGE_CURVE('',#392,#385,#220,.T.);
#493=EDGE_CURVE('',#393,#393,#17,.T.);
#494=EDGE_CURVE('',#394,#395,#221,.T.);
#495=EDGE_CURVE('',#395,#396,#222,.T.);
#496=EDGE_CURVE('',#396,#397,#223,.T.);
#497=EDGE_CURVE('',#397,#394,#224,.T.);
#498=EDGE_CURVE('',#398,#398,#18,.T.);
#499=EDGE_CURVE('',#399,#399,#19,.T.);
#500=EDGE_CURVE('',#400,#400,#20,.T.);
#501=EDGE_CURVE('',#401,#401,#21,.T.);
#502=EDGE_CURVE('',#402,#402,#22,.T.);
#503=EDGE_CURVE('',#403,#403,#23,.T.);
#504=EDGE_CURVE('',#404,#405,#225,.T.);
#505=EDGE_CURVE('',#405,#406,#226,.T.);
#506=EDGE_CURVE('',#406,#407,#227,.T.);
#507=EDGE_CURVE('',#407,#404,#228,.T.);
#508=EDGE_CURVE('',#408,#408,#24,.T.);
#509=EDGE_CURVE('',#393,#408,#229,.T.);
#510=EDGE_CURVE('',#394,#405,#230,.T.);
#511=EDGE_CURVE('',#406,#397,#231,.T.);
#512=EDGE_CURVE('',#407,#396,#232,.T.);
#513=EDGE_CURVE('',#404,#395,#233,.T.);
#514=EDGE_CURVE('',#398,#403,#234,.T.);
#515=EDGE_CURVE('',#399,#402,#235,.T.);
#516=EDGE_CURVE('',#400,#401,#236,.T.);
#517=ORIENTED_EDGE('',*,*,#409,.F.);
#518=ORIENTED_EDGE('',*,*,#410,.F.);
#519=ORIENTED_EDGE('',*,*,#411,.T.);
#520=ORIENTED_EDGE('',*,*,#412,.T.);
#521=ORIENTED_EDGE('',*,*,#413,.F.);
#522=ORIENTED_EDGE('',*,*,#412,.F.);
#523=ORIENTED_EDGE('',*,*,#414,.T.);
#524=ORIENTED_EDGE('',*,*,#415,.T.);
#525=ORIENTED_EDGE('',*,*,#416,.T.);
#526=ORIENTED_EDGE('',*,*,#417,.T.);
#527=ORIENTED_EDGE('',*,*,#418,.F.);
#528=ORIENTED_EDGE('',*,*,#419,.F.);
#529=ORIENTED_EDGE('',*,*,#420,.T.);
#530=ORIENTED_EDGE('',*,*,#421,.T.);
#531=ORIENTED_EDGE('',*,*,#422,.F.);
#532=ORIENTED_EDGE('',*,*,#417,.F.);
#533=ORIENTED_EDGE('',*,*,#423,.T.);
#534=ORIENTED_EDGE('',*,*,#424,.F.);
#535=ORIENTED_EDGE('',*,*,#414,.F.);
#536=ORIENTED_EDGE('',*,*,#411,.F.);
#537=ORIENTED_EDGE('',*,*,#425,.F.);
#538=ORIENTED_EDGE('',*,*,#426,.F.);
#539=ORIENTED_EDGE('',*,*,#427,.T.);
#540=ORIENTED_EDGE('',*,*,#428,.T.);
#541=ORIENTED_EDGE('',*,*,#429,.F.);
#542=ORIENTED_EDGE('',*,*,#430,.T.);
#543=ORIENTED_EDGE('',*,*,#431,.F.);
#544=ORIENTED_EDGE('',*,*,#432,.F.);
#545=ORIENTED_EDGE('',*,*,#423,.F.);
#546=ORIENTED_EDGE('',*,*,#433,.T.);
#547=ORIENTED_EDGE('',*,*,#434,.T.);
#548=ORIENTED_EDGE('',*,*,#435,.F.);
#549=ORIENTED_EDGE('',*,*,#436,.T.);
#550=ORIENTED_EDGE('',*,*,#437,.T.);
#551=ORIENTED_EDGE('',*,*,#429,.T.);
#552=ORIENTED_EDGE('',*,*,#438,.F.);
#553=ORIENTED_EDGE('',*,*,#427,.F.);
#554=ORIENTED_EDGE('',*,*,#439,.F.);
#555=ORIENTED_EDGE('',*,*,#431,.T.);
#556=ORIENTED_EDGE('',*,*,#440,.T.);
#557=ORIENTED_EDGE('',*,*,#441,.F.);
#558=ORIENTED_EDGE('',*,*,#442,.F.);
#559=ORIENTED_EDGE('',*,*,#443,.T.);
#560=ORIENTED_EDGE('',*,*,#444,.F.);
#561=ORIENTED_EDGE('',*,*,#445,.T.);
#562=ORIENTED_EDGE('',*,*,#419,.T.);
#563=ORIENTED_EDGE('',*,*,#446,.F.);
#564=ORIENTED_EDGE('',*,*,#447,.F.);
#565=ORIENTED_EDGE('',*,*,#448,.T.);
#566=ORIENTED_EDGE('',*,*,#449,.T.);
#567=ORIENTED_EDGE('',*,*,#450,.T.);
#568=ORIENTED_EDGE('',*,*,#451,.T.);
#569=ORIENTED_EDGE('',*,*,#452,.T.);
#570=ORIENTED_EDGE('',*,*,#447,.T.);
#571=ORIENTED_EDGE('',*,*,#453,.F.);
#572=ORIENTED_EDGE('',*,*,#421,.F.);
#573=ORIENTED_EDGE('',*,*,#454,.F.);
#574=ORIENTED_EDGE('',*,*,#443,.F.);
#575=ORIENTED_EDGE('',*,*,#455,.F.);
#576=ORIENTED_EDGE('',*,*,#434,.F.);
#577=ORIENTED_EDGE('',*,*,#428,.F.);
#578=ORIENTED_EDGE('',*,*,#444,.T.);
#579=ORIENTED_EDGE('',*,*,#454,.T.);
#580=ORIENTED_EDGE('',*,*,#433,.F.);
#581=ORIENTED_EDGE('',*,*,#456,.T.);
#582=ORIENTED_EDGE('',*,*,#457,.T.);
#583=ORIENTED_EDGE('',*,*,#458,.T.);
#584=ORIENTED_EDGE('',*,*,#450,.F.);
#585=ORIENTED_EDGE('',*,*,#452,.F.);
#586=ORIENTED_EDGE('',*,*,#459,.F.);
#587=ORIENTED_EDGE('',*,*,#460,.F.);
#588=ORIENTED_EDGE('',*,*,#461,.F.);
#589=ORIENTED_EDGE('',*,*,#448,.F.);
#590=ORIENTED_EDGE('',*,*,#420,.F.);
#591=ORIENTED_EDGE('',*,*,#416,.F.);
#592=ORIENTED_EDGE('',*,*,#445,.F.);
#593=ORIENTED_EDGE('',*,*,#456,.F.);
#594=ORIENTED_EDGE('',*,*,#449,.F.);
#595=ORIENTED_EDGE('',*,*,#461,.T.);
#596=ORIENTED_EDGE('',*,*,#462,.F.);
#597=ORIENTED_EDGE('',*,*,#457,.F.);
#598=ORIENTED_EDGE('',*,*,#462,.T.);
#599=ORIENTED_EDGE('',*,*,#460,.T.);
#600=ORIENTED_EDGE('',*,*,#463,.F.);
#601=ORIENTED_EDGE('',*,*,#458,.F.);
#602=ORIENTED_EDGE('',*,*,#463,.T.);
#603=ORIENTED_EDGE('',*,*,#459,.T.);
#604=ORIENTED_EDGE('',*,*,#451,.F.);
#605=ORIENTED_EDGE('',*,*,#464,.F.);
#606=ORIENTED_EDGE('',*,*,#440,.F.);
#607=ORIENTED_EDGE('',*,*,#430,.F.);
#608=ORIENTED_EDGE('',*,*,#437,.F.);
#609=ORIENTED_EDGE('',*,*,#465,.F.);
#610=ORIENTED_EDGE('',*,*,#441,.T.);
#611=ORIENTED_EDGE('',*,*,#464,.T.);
#612=ORIENTED_EDGE('',*,*,#436,.F.);
#613=ORIENTED_EDGE('',*,*,#442,.T.);
#614=ORIENTED_EDGE('',*,*,#465,.T.);
#615=ORIENTED_EDGE('',*,*,#435,.T.);
#616=ORIENTED_EDGE('',*,*,#455,.T.);
#617=ORIENTED_EDGE('',*,*,#466,.F.);
#618=ORIENTED_EDGE('',*,*,#415,.F.);
#619=ORIENTED_EDGE('',*,*,#424,.T.);
#620=ORIENTED_EDGE('',*,*,#438,.T.);
#621=ORIENTED_EDGE('',*,*,#432,.T.);
#622=ORIENTED_EDGE('',*,*,#439,.T.);
#623=ORIENTED_EDGE('',*,*,#426,.T.);
#624=ORIENTED_EDGE('',*,*,#467,.T.);
#625=ORIENTED_EDGE('',*,*,#468,.F.);
#626=ORIENTED_EDGE('',*,*,#467,.F.);
#627=ORIENTED_EDGE('',*,*,#425,.T.);
#628=ORIENTED_EDGE('',*,*,#410,.T.);
#629=ORIENTED_EDGE('',*,*,#466,.T.);
#630=ORIENTED_EDGE('',*,*,#468,.T.);
#631=ORIENTED_EDGE('',*,*,#409,.T.);
#632=ORIENTED_EDGE('',*,*,#413,.T.);
#633=ORIENTED_EDGE('',*,*,#453,.T.);
#634=ORIENTED_EDGE('',*,*,#446,.T.);
#635=ORIENTED_EDGE('',*,*,#418,.T.);
#636=ORIENTED_EDGE('',*,*,#422,.T.);
#637=ORIENTED_EDGE('',*,*,#469,.T.);
#638=ORIENTED_EDGE('',*,*,#470,.T.);
#639=ORIENTED_EDGE('',*,*,#471,.F.);
#640=ORIENTED_EDGE('',*,*,#472,.F.);
#641=ORIENTED_EDGE('',*,*,#473,.T.);
#642=ORIENTED_EDGE('',*,*,#474,.T.);
#643=ORIENTED_EDGE('',*,*,#475,.F.);
#644=ORIENTED_EDGE('',*,*,#470,.F.);
#645=ORIENTED_EDGE('',*,*,#476,.F.);
#646=ORIENTED_EDGE('',*,*,#477,.T.);
#647=ORIENTED_EDGE('',*,*,#478,.T.);
#648=ORIENTED_EDGE('',*,*,#479,.F.);
#649=ORIENTED_EDGE('',*,*,#480,.T.);
#650=ORIENTED_EDGE('',*,*,#481,.T.);
#651=ORIENTED_EDGE('',*,*,#482,.F.);
#652=ORIENTED_EDGE('',*,*,#474,.F.);
#653=ORIENTED_EDGE('',*,*,#483,.T.);
#654=ORIENTED_EDGE('',*,*,#472,.T.);
#655=ORIENTED_EDGE('',*,*,#484,.F.);
#656=ORIENTED_EDGE('',*,*,#481,.F.);
#657=ORIENTED_EDGE('',*,*,#485,.F.);
#658=ORIENTED_EDGE('',*,*,#486,.T.);
#659=ORIENTED_EDGE('',*,*,#487,.T.);
#660=ORIENTED_EDGE('',*,*,#488,.F.);
#661=ORIENTED_EDGE('',*,*,#489,.T.);
#662=ORIENTED_EDGE('',*,*,#486,.F.);
#663=ORIENTED_EDGE('',*,*,#490,.F.);
#664=ORIENTED_EDGE('',*,*,#479,.T.);
#665=ORIENTED_EDGE('',*,*,#491,.F.);
#666=ORIENTED_EDGE('',*,*,#488,.T.);
#667=ORIENTED_EDGE('',*,*,#492,.T.);
#668=ORIENTED_EDGE('',*,*,#477,.F.);
#669=ORIENTED_EDGE('',*,*,#492,.F.);
#670=ORIENTED_EDGE('',*,*,#487,.F.);
#671=ORIENTED_EDGE('',*,*,#489,.F.);
#672=ORIENTED_EDGE('',*,*,#478,.F.);
#673=ORIENTED_EDGE('',*,*,#484,.T.);
#674=ORIENTED_EDGE('',*,*,#471,.T.);
#675=ORIENTED_EDGE('',*,*,#475,.T.);
#676=ORIENTED_EDGE('',*,*,#482,.T.);
#677=ORIENTED_EDGE('',*,*,#491,.T.);
#678=ORIENTED_EDGE('',*,*,#476,.T.);
#679=ORIENTED_EDGE('',*,*,#490,.T.);
#680=ORIENTED_EDGE('',*,*,#485,.T.);
#681=ORIENTED_EDGE('',*,*,#493,.T.);
#682=ORIENTED_EDGE('',*,*,#494,.T.);
#683=ORIENTED_EDGE('',*,*,#495,.T.);
#684=ORIENTED_EDGE('',*,*,#496,.T.);
#685=ORIENTED_EDGE('',*,*,#497,.T.);
#686=ORIENTED_EDGE('',*,*,#498,.T.);
#687=ORIENTED_EDGE('',*,*,#499,.T.);
#688=ORIENTED_EDGE('',*,*,#500,.T.);
#689=ORIENTED_EDGE('',*,*,#480,.F.);
#690=ORIENTED_EDGE('',*,*,#473,.F.);
#691=ORIENTED_EDGE('',*,*,#469,.F.);
#692=ORIENTED_EDGE('',*,*,#483,.F.);
#693=ORIENTED_EDGE('',*,*,#501,.T.);
#694=ORIENTED_EDGE('',*,*,#502,.T.);
#695=ORIENTED_EDGE('',*,*,#503,.T.);
#696=ORIENTED_EDGE('',*,*,#504,.T.);
#697=ORIENTED_EDGE('',*,*,#505,.T.);
#698=ORIENTED_EDGE('',*,*,#506,.T.);
#699=ORIENTED_EDGE('',*,*,#507,.T.);
#700=ORIENTED_EDGE('',*,*,#508,.T.);
#701=ORIENTED_EDGE('',*,*,#493,.F.);
#702=ORIENTED_EDGE('',*,*,#509,.T.);
#703=ORIENTED_EDGE('',*,*,#508,.F.);
#704=ORIENTED_EDGE('',*,*,#509,.F.);
#705=ORIENTED_EDGE('',*,*,#510,.F.);
#706=ORIENTED_EDGE('',*,*,#497,.F.);
#707=ORIENTED_EDGE('',*,*,#511,.F.);
#708=ORIENTED_EDGE('',*,*,#505,.F.);
#709=ORIENTED_EDGE('',*,*,#511,.T.);
#710=ORIENTED_EDGE('',*,*,#496,.F.);
#711=ORIENTED_EDGE('',*,*,#512,.F.);
#712=ORIENTED_EDGE('',*,*,#506,.F.);
#713=ORIENTED_EDGE('',*,*,#512,.T.);
#714=ORIENTED_EDGE('',*,*,#495,.F.);
#715=ORIENTED_EDGE('',*,*,#513,.F.);
#716=ORIENTED_EDGE('',*,*,#507,.F.);
#717=ORIENTED_EDGE('',*,*,#513,.T.);
#718=ORIENTED_EDGE('',*,*,#494,.F.);
#719=ORIENTED_EDGE('',*,*,#510,.T.);
#720=ORIENTED_EDGE('',*,*,#504,.F.);
#721=ORIENTED_EDGE('',*,*,#498,.F.);
#722=ORIENTED_EDGE('',*,*,#514,.T.);
#723=ORIENTED_EDGE('',*,*,#503,.F.);
#724=ORIENTED_EDGE('',*,*,#514,.F.);
#725=ORIENTED_EDGE('',*,*,#499,.F.);
#726=ORIENTED_EDGE('',*,*,#515,.T.);
#727=ORIENTED_EDGE('',*,*,#502,.F.);
#728=ORIENTED_EDGE('',*,*,#515,.F.);
#729=ORIENTED_EDGE('',*,*,#500,.F.);
#730=ORIENTED_EDGE('',*,*,#516,.T.);
#731=ORIENTED_EDGE('',*,*,#501,.F.);
#732=ORIENTED_EDGE('',*,*,#516,.F.);
#733=PLANE('',#816);
#734=PLANE('',#817);
#735=PLANE('',#818);
#736=PLANE('',#819);
#737=PLANE('',#820);
#738=PLANE('',#821);
#739=PLANE('',#822);
#740=PLANE('',#823);
#741=PLANE('',#824);
#742=PLANE('',#825);
#743=PLANE('',#826);
#744=PLANE('',#827);
#745=PLANE('',#828);
#746=PLANE('',#829);
#747=PLANE('',#830);
#748=PLANE('',#831);
#749=PLANE('',#832);
#750=PLANE('',#833);
#751=PLANE('',#834);
#752=PLANE('',#835);
#753=PLANE('',#836);
#754=PLANE('',#837);
#755=PLANE('',#838);
#756=PLANE('',#839);
#757=PLANE('',#840);
#758=PLANE('',#841);
#759=PLANE('',#842);
#760=PLANE('',#843);
#761=PLANE('',#844);
#762=PLANE('',#845);
#763=PLANE('',#846);
#764=PLANE('',#847);
#765=PLANE('',#848);
#766=PLANE('',#853);
#767=PLANE('',#859);
#768=PLANE('',#860);
#769=PLANE('',#861);
#770=PLANE('',#862);
#771=ADVANCED_FACE('',(#41),#733,.T.);
#772=ADVANCED_FACE('',(#42),#734,.T.);
#773=ADVANCED_FACE('',(#43),#735,.T.);
#774=ADVANCED_FACE('',(#44),#736,.T.);
#775=ADVANCED_FACE('',(#45),#737,.F.);
#776=ADVANCED_FACE('',(#46),#738,.F.);
#777=ADVANCED_FACE('',(#47),#739,.F.);
#778=ADVANCED_FACE('',(#48),#740,.F.);
#779=ADVANCED_FACE('',(#49),#741,.T.);
#780=ADVANCED_FACE('',(#50),#742,.T.);
#781=ADVANCED_FACE('',(#51),#743,.F.);
#782=ADVANCED_FACE('',(#52),#744,.F.);
#783=ADVANCED_FACE('',(#53),#745,.T.);
#784=ADVANCED_FACE('',(#54),#746,.F.);
#785=ADVANCED_FACE('',(#55),#747,.F.);
#786=ADVANCED_FACE('',(#56),#748,.F.);
#787=ADVANCED_FACE('',(#57),#749,.F.);
#788=ADVANCED_FACE('',(#58),#750,.F.);
#789=ADVANCED_FACE('',(#59),#751,.F.);
#790=ADVANCED_FACE('',(#60),#752,.T.);
#791=ADVANCED_FACE('',(#61),#753,.T.);
#792=ADVANCED_FACE('',(#62),#754,.T.);
#793=ADVANCED_FACE('',(#63,#29),#755,.T.);
#794=ADVANCED_FACE('',(#64),#756,.T.);
#795=ADVANCED_FACE('',(#65),#757,.T.);
#796=ADVANCED_FACE('',(#66),#758,.F.);
#797=ADVANCED_FACE('',(#67),#759,.T.);
#798=ADVANCED_FACE('',(#68),#760,.T.);
#799=ADVANCED_FACE('',(#69),#761,.F.);
#800=ADVANCED_FACE('',(#70),#762,.F.);
#801=ADVANCED_FACE('',(#71),#763,.F.);
#802=ADVANCED_FACE('',(#72),#764,.F.);
#803=ADVANCED_FACE('',(#73,#30,#31,#32,#33,#34,#35),#765,.T.);
#804=ADVANCED_FACE('',(#74,#36,#37,#38,#39,#40),#766,.F.);
#805=ADVANCED_FACE('',(#75),#13,.F.);
#806=ADVANCED_FACE('',(#76),#767,.T.);
#807=ADVANCED_FACE('',(#77),#768,.T.);
#808=ADVANCED_FACE('',(#78),#769,.T.);
#809=ADVANCED_FACE('',(#79),#770,.T.);
#810=ADVANCED_FACE('',(#80),#14,.F.);
#811=ADVANCED_FACE('',(#81),#15,.F.);
#812=ADVANCED_FACE('',(#82),#16,.F.);
#813=CLOSED_SHELL('',(#771,#772,#773,#774,#775,#776,#777,#778,#779,#780,
#781,#782,#783,#784,#785,#786,#787,#788,#789,#790,#791,#792,#793));
#814=CLOSED_SHELL('',(#794,#795,#796,#797,#798,#799,#800,#801,#802,#803,
#804,#805,#806,#807,#808,#809,#810,#811,#812));
#815=AXIS2_PLACEMENT_3D('',#1068,#866,#867);
#816=AXIS2_PLACEMENT_3D('',#1069,#868,#869);
#817=AXIS2_PLACEMENT_3D('',#1078,#874,#875);
#818=AXIS2_PLACEMENT_3D('',#1084,#879,#880);
#819=AXIS2_PLACEMENT_3D('',#1093,#885,#886);
#820=AXIS2_PLACEMENT_3D('',#1099,#890,#891);
#821=AXIS2_PLACEMENT_3D('',#1111,#898,#899);
#822=AXIS2_PLACEMENT_3D('',#1120,#904,#905);
#823=AXIS2_PLACEMENT_3D('',#1131,#912,#913);
#824=AXIS2_PLACEMENT_3D('',#1142,#920,#921);
#825=AXIS2_PLACEMENT_3D('',#1148,#925,#926);
#826=AXIS2_PLACEMENT_3D('',#1159,#933,#934);
#827=AXIS2_PLACEMENT_3D('',#1162,#937,#938);
#828=AXIS2_PLACEMENT_3D('',#1163,#939,#940);
#829=AXIS2_PLACEMENT_3D('',#1169,#944,#945);
#830=AXIS2_PLACEMENT_3D('',#1175,#949,#950);
#831=AXIS2_PLACEMENT_3D('',#1177,#952,#953);
#832=AXIS2_PLACEMENT_3D('',#1179,#955,#956);
#833=AXIS2_PLACEMENT_3D('',#1180,#957,#958);
#834=AXIS2_PLACEMENT_3D('',#1182,#960,#961);
#835=AXIS2_PLACEMENT_3D('',#1184,#963,#964);
#836=AXIS2_PLACEMENT_3D('',#1185,#965,#966);
#837=AXIS2_PLACEMENT_3D('',#1189,#969,#970);
#838=AXIS2_PLACEMENT_3D('',#1191,#972,#973);
#839=AXIS2_PLACEMENT_3D('',#1192,#974,#975);
#840=AXIS2_PLACEMENT_3D('',#1201,#980,#981);
#841=AXIS2_PLACEMENT_3D('',#1207,#985,#986);
#842=AXIS2_PLACEMENT_3D('',#1216,#991,#992);
#843=AXIS2_PLACEMENT_3D('',#1222,#996,#997);
#844=AXIS2_PLACEMENT_3D('',#1225,#1000,#1001);
#845=AXIS2_PLACEMENT_3D('',#1234,#1006,#1007);
#846=AXIS2_PLACEMENT_3D('',#1237,#1010,#1011);
#847=AXIS2_PLACEMENT_3D('',#1240,#1014,#1015);
#848=AXIS2_PLACEMENT_3D('',#1241,#1016,#1017);
#849=AXIS2_PLACEMENT_3D('',#1243,#1018,#1019);
#850=AXIS2_PLACEMENT_3D('',#1253,#1024,#1025);
#851=AXIS2_PLACEMENT_3D('',#1255,#1026,#1027);
#852=AXIS2_PLACEMENT_3D('',#1257,#1028,#1029);
#853=AXIS2_PLACEMENT_3D('',#1258,#1030,#1031);
#854=AXIS2_PLACEMENT_3D('',#1260,#1032,#1033);
#855=AXIS2_PLACEMENT_3D('',#1262,#1034,#1035);
#856=AXIS2_PLACEMENT_3D('',#1264,#1036,#1037);
#857=AXIS2_PLACEMENT_3D('',#1274,#1042,#1043);
#858=AXIS2_PLACEMENT_3D('',#1275,#1044,#1045);
#859=AXIS2_PLACEMENT_3D('',#1277,#1047,#1048);
#860=AXIS2_PLACEMENT_3D('',#1280,#1051,#1052);
#861=AXIS2_PLACEMENT_3D('',#1282,#1054,#1055);
#862=AXIS2_PLACEMENT_3D('',#1284,#1057,#1058);
#863=AXIS2_PLACEMENT_3D('',#1285,#1059,#1060);
#864=AXIS2_PLACEMENT_3D('',#1287,#1062,#1063);
#865=AXIS2_PLACEMENT_3D('',#1289,#1065,#1066);
#866=DIRECTION('axis',(0.,0.,1.));
#867=DIRECTION('refdir',(1.,0.,0.));
#868=DIRECTION('center_axis',(0.,-1.,0.));
#869=DIRECTION('ref_axis',(1.,0.,0.));
#870=DIRECTION('',(1.,0.,0.));
#871=DIRECTION('',(0.,0.,1.));
#872=DIRECTION('',(1.,0.,0.));
#873=DIRECTION('',(0.,0.,1.));
#874=DIRECTION('center_axis',(1.,0.,0.));
#875=DIRECTION('ref_axis',(0.,1.,0.));
#876=DIRECTION('',(0.,1.,0.));
#877=DIRECTION('',(0.,1.,0.));
#878=DIRECTION('',(0.,0.,1.));
#879=DIRECTION('center_axis',(0.,1.,0.));
#880=DIRECTION('ref_axis',(-1.,0.,0.));
#881=DIRECTION('',(-1.,0.,0.));
#882=DIRECTION('',(0.,0.,1.));
#883=DIRECTION('',(-1.,0.,0.));
#884=DIRECTION('',(0.,0.,1.));
#885=DIRECTION('center_axis',(1.,0.,0.));
#886=DIRECTION('ref_axis',(0.,1.,0.));
#887=DIRECTION('',(0.,1.,0.));
#888=DIRECTION('',(0.,0.,1.));
#889=DIRECTION('',(0.,1.,0.));
#890=DIRECTION('center_axis',(0.,0.,1.));
#891=DIRECTION('ref_axis',(1.,0.,0.));
#892=DIRECTION('',(0.,1.,0.));
#893=DIRECTION('',(-1.,0.,0.));
#894=DIRECTION('',(0.,-1.,0.));
#895=DIRECTION('',(-1.,0.,0.));
#896=DIRECTION('',(0.,-1.,0.));
#897=DIRECTION('',(1.,0.,0.));
#898=DIRECTION('center_axis',(0.,0.,1.));
#899=DIRECTION('ref_axis',(1.,0.,0.));
#900=DIRECTION('',(0.,1.,0.));
#901=DIRECTION('',(-1.,0.,0.));
#902=DIRECTION('',(0.,-1.,0.));
#903=DIRECTION('',(-1.,0.,0.));
#904=DIRECTION('center_axis',(1.,0.,0.));
#905=DIRECTION('ref_axis',(0.,1.,0.));
#906=DIRECTION('',(0.,0.,1.));
#907=DIRECTION('',(0.,1.,0.));
#908=DIRECTION('',(0.,0.,-1.));
#909=DIRECTION('',(0.,-1.,0.));
#910=DIRECTION('',(0.,0.,1.));
#911=DIRECTION('',(0.,0.,1.));
#912=DIRECTION('center_axis',(-1.,0.,0.));
#913=DIRECTION('ref_axis',(0.,-1.,0.));
#914=DIRECTION('',(0.,0.,-1.));
#915=DIRECTION('',(0.,0.,-1.));
#916=DIRECTION('',(0.,-1.,0.));
#917=DIRECTION('',(0.,0.,1.));
#918=DIRECTION('',(0.,-1.,0.));
#919=DIRECTION('',(0.,0.,1.));
#920=DIRECTION('center_axis',(-1.,0.,0.));
#921=DIRECTION('ref_axis',(0.,-1.,0.));
#922=DIRECTION('',(0.,-1.,0.));
#923=DIRECTION('',(0.,-1.,0.));
#924=DIRECTION('',(0.,0.,1.));
#925=DIRECTION('center_axis',(0.,-1.,0.));
#926=DIRECTION('ref_axis',(1.,0.,0.));
#927=DIRECTION('',(1.,0.,0.));
#928=DIRECTION('',(0.,0.,1.));
#929=DIRECTION('',(1.,0.,0.));
#930=DIRECTION('',(0.,0.,-1.));
#931=DIRECTION('',(1.,0.,0.));
#932=DIRECTION('',(1.,0.,0.));
#933=DIRECTION('center_axis',(0.,0.,1.));
#934=DIRECTION('ref_axis',(1.,0.,0.));
#935=DIRECTION('',(1.,0.,0.));
#936=DIRECTION('',(-1.,0.,0.));
#937=DIRECTION('center_axis',(0.,-1.,0.));
#938=DIRECTION('ref_axis',(1.,0.,0.));
#939=DIRECTION('center_axis',(0.,0.,1.));
#940=DIRECTION('ref_axis',(1.,0.,0.));
#941=DIRECTION('',(0.,-1.,0.));
#942=DIRECTION('',(1.,0.,0.));
#943=DIRECTION('',(0.,1.,0.));
#944=DIRECTION('center_axis',(0.,0.,-1.));
#945=DIRECTION('ref_axis',(-1.,0.,0.));
#946=DIRECTION('',(0.,1.,0.));
#947=DIRECTION('',(1.,0.,0.));
#948=DIRECTION('',(0.,-1.,0.));
#949=DIRECTION('center_axis',(1.,0.,0.));
#950=DIRECTION('ref_axis',(0.,-1.,0.));
#951=DIRECTION('',(0.,0.,-1.));
#952=DIRECTION('center_axis',(0.,1.,0.));
#953=DIRECTION('ref_axis',(1.,0.,0.));
#954=DIRECTION('',(0.,0.,-1.));
#955=DIRECTION('center_axis',(-1.,0.,0.));
#956=DIRECTION('ref_axis',(0.,1.,0.));
#957=DIRECTION('center_axis',(0.,-1.,0.));
#958=DIRECTION('ref_axis',(0.,0.,-1.));
#959=DIRECTION('',(1.,0.,0.));
#960=DIRECTION('center_axis',(0.,0.,-1.));
#961=DIRECTION('ref_axis',(1.,0.,0.));
#962=DIRECTION('',(1.,0.,0.));
#963=DIRECTION('center_axis',(0.,1.,0.));
#964=DIRECTION('ref_axis',(-1.,0.,0.));
#965=DIRECTION('center_axis',(0.,1.,0.));
#966=DIRECTION('ref_axis',(-1.,0.,0.));
#967=DIRECTION('',(-1.,0.,0.));
#968=DIRECTION('',(0.,0.,1.));
#969=DIRECTION('center_axis',(-1.,0.,0.));
#970=DIRECTION('ref_axis',(0.,-1.,0.));
#971=DIRECTION('',(0.,-1.,0.));
#972=DIRECTION('center_axis',(0.,0.,1.));
#973=DIRECTION('ref_axis',(1.,0.,0.));
#974=DIRECTION('center_axis',(0.,-1.,0.));
#975=DIRECTION('ref_axis',(1.,0.,0.));
#976=DIRECTION('',(1.,0.,0.));
#977=DIRECTION('',(0.,0.,1.));
#978=DIRECTION('',(1.,0.,0.));
#979=DIRECTION('',(0.,0.,1.));
#980=DIRECTION('center_axis',(1.,0.,0.));
#981=DIRECTION('ref_axis',(0.,1.,0.));
#982=DIRECTION('',(0.,1.,0.));
#983=DIRECTION('',(0.,0.,1.));
#984=DIRECTION('',(0.,1.,0.));
#985=DIRECTION('center_axis',(0.,1.,0.));
#986=DIRECTION('ref_axis',(1.,0.,0.));
#987=DIRECTION('',(1.,0.,0.));
#988=DIRECTION('',(0.,0.,-1.));
#989=DIRECTION('',(1.,0.,0.));
#990=DIRECTION('',(0.,0.,-1.));
#991=DIRECTION('center_axis',(0.,1.,0.));
#992=DIRECTION('ref_axis',(-1.,0.,0.));
#993=DIRECTION('',(-1.,0.,0.));
#994=DIRECTION('',(0.,0.,1.));
#995=DIRECTION('',(-1.,0.,0.));
#996=DIRECTION('center_axis',(-1.,0.,0.));
#997=DIRECTION('ref_axis',(0.,-1.,0.));
#998=DIRECTION('',(0.,-1.,0.));
#999=DIRECTION('',(0.,-1.,0.));
#1000=DIRECTION('center_axis',(0.,-1.,0.));
#1001=DIRECTION('ref_axis',(-1.,0.,0.));
#1002=DIRECTION('',(-1.,0.,0.));
#1003=DIRECTION('',(0.,0.,-1.));
#1004=DIRECTION('',(-1.,0.,0.));
#1005=DIRECTION('',(0.,0.,-1.));
#1006=DIRECTION('center_axis',(1.,0.,0.));
#1007=DIRECTION('ref_axis',(0.,-1.,0.));
#1008=DIRECTION('',(0.,-1.,0.));
#1009=DIRECTION('',(0.,-1.,0.));
#1010=DIRECTION('center_axis',(-1.,0.,0.));
#1011=DIRECTION('ref_axis',(0.,1.,0.));
#1012=DIRECTION('',(0.,1.,0.));
#1013=DIRECTION('',(0.,1.,0.));
#1014=DIRECTION('center_axis',(0.,0.,-1.));
#1015=DIRECTION('ref_axis',(-1.,0.,0.));
#1016=DIRECTION('center_axis',(0.,0.,1.));
#1017=DIRECTION('ref_axis',(1.,0.,0.));
#1018=DIRECTION('center_axis',(0.,0.,-1.));
#1019=DIRECTION('ref_axis',(1.,0.,0.));
#1020=DIRECTION('',(-1.,0.,0.));
#1021=DIRECTION('',(0.,1.,0.));
#1022=DIRECTION('',(1.,0.,0.));
#1023=DIRECTION('',(0.,-1.,0.));
#1024=DIRECTION('center_axis',(0.,0.,-1.));
#1025=DIRECTION('ref_axis',(1.,0.,0.));
#1026=DIRECTION('center_axis',(0.,0.,-1.));
#1027=DIRECTION('ref_axis',(1.,0.,0.));
#1028=DIRECTION('center_axis',(0.,0.,-1.));
#1029=DIRECTION('ref_axis',(1.,0.,0.));
#1030=DIRECTION('center_axis',(0.,0.,1.));
#1031=DIRECTION('ref_axis',(1.,0.,0.));
#1032=DIRECTION('center_axis',(0.,0.,1.));
#1033=DIRECTION('ref_axis',(1.,0.,0.));
#1034=DIRECTION('center_axis',(0.,0.,1.));
#1035=DIRECTION('ref_axis',(1.,0.,0.));
#1036=DIRECTION('center_axis',(0.,0.,1.));
#1037=DIRECTION('ref_axis',(1.,0.,0.));
#1038=DIRECTION('',(1.,0.,0.));
#1039=DIRECTION('',(0.,1.,0.));
#1040=DIRECTION('',(-1.,0.,0.));
#1041=DIRECTION('',(0.,-1.,0.));
#1042=DIRECTION('center_axis',(0.,0.,1.));
#1043=DIRECTION('ref_axis',(1.,0.,0.));
#1044=DIRECTION('center_axis',(0.,0.,1.));
#1045=DIRECTION('ref_axis',(1.,0.,0.));
#1046=DIRECTION('',(0.,0.,-1.));
#1047=DIRECTION('center_axis',(-1.,0.,0.));
#1048=DIRECTION('ref_axis',(0.,-1.,0.));
#1049=DIRECTION('',(0.,0.,-1.));
#1050=DIRECTION('',(0.,0.,1.));
#1051=DIRECTION('center_axis',(0.,-1.,0.));
#1052=DIRECTION('ref_axis',(1.,0.,0.));
#1053=DIRECTION('',(0.,0.,1.));
#1054=DIRECTION('center_axis',(1.,0.,0.));
#1055=DIRECTION('ref_axis',(0.,1.,0.));
#1056=DIRECTION('',(0.,0.,1.));
#1057=DIRECTION('center_axis',(0.,1.,0.));
#1058=DIRECTION('ref_axis',(-1.,0.,0.));
#1059=DIRECTION('center_axis',(0.,0.,1.));
#1060=DIRECTION('ref_axis',(1.,0.,0.));
#1061=DIRECTION('',(0.,0.,-1.));
#1062=DIRECTION('center_axis',(0.,0.,1.));
#1063=DIRECTION('ref_axis',(1.,0.,0.));
#1064=DIRECTION('',(0.,0.,-1.));
#1065=DIRECTION('center_axis',(0.,0.,1.));
#1066=DIRECTION('ref_axis',(1.,0.,0.));
#1067=DIRECTION('',(0.,0.,-1.));
#1068=CARTESIAN_POINT('',(0.,0.,0.));
#1069=CARTESIAN_POINT('Origin',(0.,0.,0.));
#1070=CARTESIAN_POINT('',(0.,0.,9.));
#1071=CARTESIAN_POINT('',(102.,-6.16297582203915E-32,9.));
#1072=CARTESIAN_POINT('',(25.5,0.,9.));
#1073=CARTESIAN_POINT('',(0.,0.,0.));
#1074=CARTESIAN_POINT('',(0.,0.,0.));
#1075=CARTESIAN_POINT('',(102.,-6.16297582203915E-32,0.));
#1076=CARTESIAN_POINT('',(0.,0.,0.));
#1077=CARTESIAN_POINT('',(102.,-6.16297582203915E-32,0.));
#1078=CARTESIAN_POINT('Origin',(102.,-6.16297582203915E-32,0.));
#1079=CARTESIAN_POINT('',(102.,52.,9.));
#1080=CARTESIAN_POINT('',(102.,13.,9.));
#1081=CARTESIAN_POINT('',(102.,52.,0.));
#1082=CARTESIAN_POINT('',(102.,-6.16297582203915E-32,0.));
#1083=CARTESIAN_POINT('',(102.,52.,0.));
#1084=CARTESIAN_POINT('Origin',(99.,3.,0.));
#1085=CARTESIAN_POINT('',(99.,3.,3.));
#1086=CARTESIAN_POINT('',(3.00000000000001,3.,3.));
#1087=CARTESIAN_POINT('',(75.,3.,3.));
#1088=CARTESIAN_POINT('',(3.,3.,9.));
#1089=CARTESIAN_POINT('',(3.,3.,0.));
#1090=CARTESIAN_POINT('',(99.,3.,9.));
#1091=CARTESIAN_POINT('',(3.,3.,9.));
#1092=CARTESIAN_POINT('',(99.,3.,0.));
#1093=CARTESIAN_POINT('Origin',(3.,3.,0.));
#1094=CARTESIAN_POINT('',(3.00000000000001,49.,3.));
#1095=CARTESIAN_POINT('',(3.,14.5,3.));
#1096=CARTESIAN_POINT('',(3.,49.,9.));
#1097=CARTESIAN_POINT('',(3.,49.,0.));
#1098=CARTESIAN_POINT('',(3.,49.,9.));
#1099=CARTESIAN_POINT('Origin',(51.,26.,0.));
#1100=CARTESIAN_POINT('',(59.3999988511205,32.,0.));
#1101=CARTESIAN_POINT('',(59.3999988511205,52.,0.));
#1102=CARTESIAN_POINT('',(59.3999988511205,37.4999994523823,0.));
#1103=CARTESIAN_POINT('',(102.,52.,0.));
#1104=CARTESIAN_POINT('',(1.00148357108136E-31,52.,0.));
#1105=CARTESIAN_POINT('',(0.,3.,0.));
#1106=CARTESIAN_POINT('',(43.3999990299344,52.,0.));
#1107=CARTESIAN_POINT('',(102.,52.,0.));
#1108=CARTESIAN_POINT('',(43.3999988511205,32.,0.));
#1109=CARTESIAN_POINT('',(43.3999990299344,39.,0.));
#1110=CARTESIAN_POINT('',(47.1999994255602,32.,0.));
#1111=CARTESIAN_POINT('Origin',(51.3999989405274,50.4999994523823,4.));
#1112=CARTESIAN_POINT('',(59.3999988511205,46.9999989047647,4.));
#1113=CARTESIAN_POINT('',(59.3999988511205,52.,4.));
#1114=CARTESIAN_POINT('',(59.3999988511205,48.9999989047647,4.));
#1115=CARTESIAN_POINT('',(43.3999990299344,46.9999989047647,4.));
#1116=CARTESIAN_POINT('',(59.3999988511205,46.9999989047647,4.));
#1117=CARTESIAN_POINT('',(43.3999990299344,52.,4.));
#1118=CARTESIAN_POINT('',(43.3999990299344,48.9999989047647,4.));
#1119=CARTESIAN_POINT('',(76.6999994702637,52.,4.));
#1120=CARTESIAN_POINT('Origin',(59.3999988511205,48.9999989047647,0.));
#1121=CARTESIAN_POINT('',(59.3999988511205,32.,1.));
#1122=CARTESIAN_POINT('',(59.3999988511205,32.,0.));
#1123=CARTESIAN_POINT('',(59.3999988511205,48.9999989047647,1.));
#1124=CARTESIAN_POINT('',(59.3999988511205,52.,1.));
#1125=CARTESIAN_POINT('',(59.3999988511205,48.9999989047647,2.5));
#1126=CARTESIAN_POINT('',(59.3999988511205,49.,0.));
#1127=CARTESIAN_POINT('',(59.3999988511205,46.9999989047647,2.5));
#1128=CARTESIAN_POINT('',(59.3999988511205,48.9999989047647,2.5));
#1129=CARTESIAN_POINT('',(59.3999988511205,46.9999989047647,2.5));
#1130=CARTESIAN_POINT('',(59.3999988511205,52.,0.));
#1131=CARTESIAN_POINT('Origin',(43.3999990299344,52.,0.));
#1132=CARTESIAN_POINT('',(43.3999990299344,52.,0.));
#1133=CARTESIAN_POINT('',(43.3999990299344,46.9999989047647,2.5));
#1134=CARTESIAN_POINT('',(43.3999990299344,46.9999989047647,4.));
#1135=CARTESIAN_POINT('',(43.3999990299344,48.9999989047647,2.5));
#1136=CARTESIAN_POINT('',(43.3999990299344,48.9999989047647,2.5));
#1137=CARTESIAN_POINT('',(43.3999990299344,48.9999989047647,1.));
#1138=CARTESIAN_POINT('',(43.3999990299344,49.,0.));
#1139=CARTESIAN_POINT('',(43.3999988511205,32.,1.));
#1140=CARTESIAN_POINT('',(43.3999988511205,52.,1.));
#1141=CARTESIAN_POINT('',(43.3999988511205,32.,0.));
#1142=CARTESIAN_POINT('Origin',(99.,49.,0.));
#1143=CARTESIAN_POINT('',(99.,49.,3.));
#1144=CARTESIAN_POINT('',(99.,37.5,3.));
#1145=CARTESIAN_POINT('',(99.,49.,9.));
#1146=CARTESIAN_POINT('',(99.,44.,9.));
#1147=CARTESIAN_POINT('',(99.,49.,0.));
#1148=CARTESIAN_POINT('Origin',(3.00000000000001,49.,0.));
#1149=CARTESIAN_POINT('',(40.3999988511205,49.,3.));
#1150=CARTESIAN_POINT('',(27.,49.,3.));
#1151=CARTESIAN_POINT('',(40.3999988511205,49.,6.));
#1152=CARTESIAN_POINT('',(40.3999988511205,49.,3.));
#1153=CARTESIAN_POINT('',(62.3999988511205,49.,6.));
#1154=CARTESIAN_POINT('',(27.,49.,6.));
#1155=CARTESIAN_POINT('',(62.3999988511205,49.,3.));
#1156=CARTESIAN_POINT('',(62.3999988511205,49.,3.));
#1157=CARTESIAN_POINT('',(27.,49.,3.));
#1158=CARTESIAN_POINT('',(99.,49.,9.));
#1159=CARTESIAN_POINT('Origin',(51.3999988511205,40.4999994523823,1.));
#1160=CARTESIAN_POINT('',(43.3999988511205,32.,1.));
#1161=CARTESIAN_POINT('',(75.1999994255603,49.,1.));
#1162=CARTESIAN_POINT('Origin',(43.3999988511205,32.,0.));
#1163=CARTESIAN_POINT('Origin',(51.,26.,6.));
#1164=CARTESIAN_POINT('',(40.3999988511205,29.,6.));
#1165=CARTESIAN_POINT('',(40.3999988511205,37.5,6.));
#1166=CARTESIAN_POINT('',(62.3999988511205,29.,6.));
#1167=CARTESIAN_POINT('',(45.6999994255602,29.,6.));
#1168=CARTESIAN_POINT('',(62.3999988511205,27.5,6.));
#1169=CARTESIAN_POINT('Origin',(51.,26.,3.));
#1170=CARTESIAN_POINT('',(62.3999988511205,29.,3.));
#1171=CARTESIAN_POINT('',(62.3999988511205,52.,3.));
#1172=CARTESIAN_POINT('',(40.3999988511205,29.,3.));
#1173=CARTESIAN_POINT('',(62.3999988511205,29.,3.));
#1174=CARTESIAN_POINT('',(40.3999988511205,29.,3.));
#1175=CARTESIAN_POINT('Origin',(40.3999988511205,49.,6.));
#1176=CARTESIAN_POINT('',(40.3999988511205,29.,6.));
#1177=CARTESIAN_POINT('Origin',(40.3999988511205,29.,6.));
#1178=CARTESIAN_POINT('',(62.3999988511205,29.,6.));
#1179=CARTESIAN_POINT('Origin',(62.3999988511205,29.,6.));
#1180=CARTESIAN_POINT('Origin',(51.3999989405274,46.9999989047647,3.25));
#1181=CARTESIAN_POINT('',(43.3999990299344,46.9999989047647,2.5));
#1182=CARTESIAN_POINT('Origin',(43.3999990299344,48.9999989047647,2.5));
#1183=CARTESIAN_POINT('',(71.1999995149672,49.,2.5));
#1184=CARTESIAN_POINT('Origin',(99.,49.,0.));
#1185=CARTESIAN_POINT('Origin',(102.,52.,0.));
#1186=CARTESIAN_POINT('',(1.00148357108136E-31,52.,9.));
#1187=CARTESIAN_POINT('',(76.5,52.,9.));
#1188=CARTESIAN_POINT('',(1.00148357108136E-31,52.,0.));
#1189=CARTESIAN_POINT('Origin',(0.,52.,0.));
#1190=CARTESIAN_POINT('',(0.,39.,9.));
#1191=CARTESIAN_POINT('Origin',(51.,26.,9.));
#1192=CARTESIAN_POINT('Origin',(0.,0.,0.));
#1193=CARTESIAN_POINT('',(0.,0.,9.));
#1194=CARTESIAN_POINT('',(102.,-6.16297582203915E-32,9.));
#1195=CARTESIAN_POINT('',(25.5,0.,9.));
#1196=CARTESIAN_POINT('',(102.,0.,12.));
#1197=CARTESIAN_POINT('',(102.,-6.16297582203915E-32,0.));
#1198=CARTESIAN_POINT('',(0.,0.,12.));
#1199=CARTESIAN_POINT('',(0.,0.,12.));
#1200=CARTESIAN_POINT('',(0.,0.,0.));
#1201=CARTESIAN_POINT('Origin',(102.,-6.16297582203915E-32,0.));
#1202=CARTESIAN_POINT('',(102.,52.,9.));
#1203=CARTESIAN_POINT('',(102.,13.,9.));
#1204=CARTESIAN_POINT('',(102.,52.,12.));
#1205=CARTESIAN_POINT('',(102.,52.,0.));
#1206=CARTESIAN_POINT('',(102.,-6.16297582203915E-32,12.));
#1207=CARTESIAN_POINT('Origin',(39.,49.9999989718199,12.));
#1208=CARTESIAN_POINT('',(39.,49.9999989718199,12.));
#1209=CARTESIAN_POINT('',(63.,49.9999989718199,12.));
#1210=CARTESIAN_POINT('',(45.,49.9999989718199,12.));
#1211=CARTESIAN_POINT('',(39.,49.9999989718199,10.));
#1212=CARTESIAN_POINT('',(39.,49.9999989718199,12.));
#1213=CARTESIAN_POINT('',(63.,49.9999989718199,10.));
#1214=CARTESIAN_POINT('',(63.,49.9999989718199,10.));
#1215=CARTESIAN_POINT('',(63.,49.9999989718199,12.));
#1216=CARTESIAN_POINT('Origin',(102.,52.,0.));
#1217=CARTESIAN_POINT('',(1.00148357108136E-31,52.,9.));
#1218=CARTESIAN_POINT('',(76.5,52.,9.));
#1219=CARTESIAN_POINT('',(0.,52.,12.));
#1220=CARTESIAN_POINT('',(1.00148357108136E-31,52.,0.));
#1221=CARTESIAN_POINT('',(102.,52.,12.));
#1222=CARTESIAN_POINT('Origin',(0.,52.,0.));
#1223=CARTESIAN_POINT('',(0.,39.,9.));
#1224=CARTESIAN_POINT('',(0.,3.,12.));
#1225=CARTESIAN_POINT('Origin',(63.,45.9999989718199,12.));
#1226=CARTESIAN_POINT('',(63.,45.9999989718199,12.));
#1227=CARTESIAN_POINT('',(39.,45.9999989718199,12.));
#1228=CARTESIAN_POINT('',(57.,45.9999989718199,12.));
#1229=CARTESIAN_POINT('',(63.,45.9999989718199,10.));
#1230=CARTESIAN_POINT('',(63.,45.9999989718199,12.));
#1231=CARTESIAN_POINT('',(39.,45.9999989718199,10.));
#1232=CARTESIAN_POINT('',(39.,45.9999989718199,10.));
#1233=CARTESIAN_POINT('',(39.,45.9999989718199,12.));
#1234=CARTESIAN_POINT('Origin',(63.,49.9999989718199,12.));
#1235=CARTESIAN_POINT('',(63.,45.9999989718199,10.));
#1236=CARTESIAN_POINT('',(63.,37.9999994859099,12.));
#1237=CARTESIAN_POINT('Origin',(39.,45.9999989718199,12.));
#1238=CARTESIAN_POINT('',(39.,35.9999994859099,12.));
#1239=CARTESIAN_POINT('',(39.,49.9999989718199,10.));
#1240=CARTESIAN_POINT('Origin',(51.,47.9999989718199,10.));
#1241=CARTESIAN_POINT('Origin',(51.,26.,12.));
#1242=CARTESIAN_POINT('',(23.,26.,12.));
#1243=CARTESIAN_POINT('Origin',(27.,26.,12.));
#1244=CARTESIAN_POINT('',(61.,34.,12.));
#1245=CARTESIAN_POINT('',(41.,34.,12.));
#1246=CARTESIAN_POINT('',(61.,34.,12.));
#1247=CARTESIAN_POINT('',(41.,44.,12.));
#1248=CARTESIAN_POINT('',(41.,34.,12.));
#1249=CARTESIAN_POINT('',(61.,44.,12.));
#1250=CARTESIAN_POINT('',(41.,44.,12.));
#1251=CARTESIAN_POINT('',(61.,44.,12.));
#1252=CARTESIAN_POINT('',(69.,26.,12.));
#1253=CARTESIAN_POINT('Origin',(79.,26.,12.));
#1254=CARTESIAN_POINT('',(92.,44.,12.));
#1255=CARTESIAN_POINT('Origin',(94.,44.,12.));
#1256=CARTESIAN_POINT('',(11.,26.,12.));
#1257=CARTESIAN_POINT('Origin',(15.,26.,12.));
#1258=CARTESIAN_POINT('Origin',(51.,26.,9.));
#1259=CARTESIAN_POINT('',(11.,26.,9.));
#1260=CARTESIAN_POINT('Origin',(15.,26.,9.));
#1261=CARTESIAN_POINT('',(92.,44.,9.));
#1262=CARTESIAN_POINT('Origin',(94.,44.,9.));
#1263=CARTESIAN_POINT('',(69.,26.,9.));
#1264=CARTESIAN_POINT('Origin',(79.,26.,9.));
#1265=CARTESIAN_POINT('',(41.,34.,9.));
#1266=CARTESIAN_POINT('',(61.,34.,9.));
#1267=CARTESIAN_POINT('',(61.,34.,9.));
#1268=CARTESIAN_POINT('',(61.,44.,9.));
#1269=CARTESIAN_POINT('',(61.,44.,9.));
#1270=CARTESIAN_POINT('',(41.,44.,9.));
#1271=CARTESIAN_POINT('',(41.,44.,9.));
#1272=CARTESIAN_POINT('',(41.,34.,9.));
#1273=CARTESIAN_POINT('',(23.,26.,9.));
#1274=CARTESIAN_POINT('Origin',(27.,26.,9.));
#1275=CARTESIAN_POINT('Origin',(27.,26.,10.));
#1276=CARTESIAN_POINT('',(23.,26.,10.));
#1277=CARTESIAN_POINT('Origin',(61.,44.,10.));
#1278=CARTESIAN_POINT('',(61.,34.,10.));
#1279=CARTESIAN_POINT('',(61.,44.,10.));
#1280=CARTESIAN_POINT('Origin',(41.,44.,10.));
#1281=CARTESIAN_POINT('',(41.,44.,10.));
#1282=CARTESIAN_POINT('Origin',(41.,34.,10.));
#1283=CARTESIAN_POINT('',(41.,34.,10.));
#1284=CARTESIAN_POINT('Origin',(61.,34.,10.));
#1285=CARTESIAN_POINT('Origin',(79.,26.,10.));
#1286=CARTESIAN_POINT('',(69.,26.,10.));
#1287=CARTESIAN_POINT('Origin',(94.,44.,10.));
#1288=CARTESIAN_POINT('',(92.,44.,10.));
#1289=CARTESIAN_POINT('Origin',(15.,26.,10.));
#1290=CARTESIAN_POINT('',(11.,26.,10.));
#1291=UNCERTAINTY_MEASURE_WITH_UNIT(LENGTH_MEASURE(0.01),#1295,
'DISTANCE_ACCURACY_VALUE',
'Maximum model space distance between geometric entities at asserted c
onnectivities');
#1292=UNCERTAINTY_MEASURE_WITH_UNIT(LENGTH_MEASURE(0.01),#1295,
'DISTANCE_ACCURACY_VALUE',
'Maximum model space distance between geometric entities at asserted c
onnectivities');
#1293=(
GEOMETRIC_REPRESENTATION_CONTEXT(3)
GLOBAL_UNCERTAINTY_ASSIGNED_CONTEXT((#1291))
GLOBAL_UNIT_ASSIGNED_CONTEXT((#1295,#1296,#1297))
REPRESENTATION_CONTEXT('','3D')
);
#1294=(
GEOMETRIC_REPRESENTATION_CONTEXT(3)
GLOBAL_UNCERTAINTY_ASSIGNED_CONTEXT((#1292))
GLOBAL_UNIT_ASSIGNED_CONTEXT((#1295,#1296,#1297))
REPRESENTATION_CONTEXT('','3D')
);
#1295=(
LENGTH_UNIT()
NAMED_UNIT(*)
SI_UNIT(.MILLI.,.METRE.)
);
#1296=(
NAMED_UNIT(*)
PLANE_ANGLE_UNIT()
SI_UNIT($,.RADIAN.)
);
#1297=(
NAMED_UNIT(*)
SI_UNIT($,.STERADIAN.)
SOLID_ANGLE_UNIT()
);
#1298=SHAPE_DEFINITION_REPRESENTATION(#1299,#1300);
#1299=PRODUCT_DEFINITION_SHAPE('',$,#1302);
#1300=SHAPE_REPRESENTATION('',(#815),#1293);
#1301=PRODUCT_DEFINITION_CONTEXT('part definition',#1306,'design');
#1302=PRODUCT_DEFINITION('2026-01-11-01-45-23-608','StickOfTruth',#1303,
#1301);
#1303=PRODUCT_DEFINITION_FORMATION('',$,#1308);
#1304=PRODUCT_RELATED_PRODUCT_CATEGORY('StickOfTruth','StickOfTruth',(#1308));
#1305=APPLICATION_PROTOCOL_DEFINITION('international standard',
'automotive_design',2009,#1306);
#1306=APPLICATION_CONTEXT(
'Core Data for Automotive Mechanical Design Process');
#1307=PRODUCT_CONTEXT('part definition',#1306,'mechanical');
#1308=PRODUCT('2026-01-11-01-45-23-608','StickOfTruth',$,(#1307));
#1309=PRESENTATION_STYLE_ASSIGNMENT((#1310));
#1310=SURFACE_STYLE_USAGE(.BOTH.,#1311);
#1311=SURFACE_SIDE_STYLE('',(#1312));
#1312=SURFACE_STYLE_FILL_AREA(#1313);
#1313=FILL_AREA_STYLE('Steel - Satin',(#1314));
#1314=FILL_AREA_STYLE_COLOUR('Steel - Satin',#1315);
#1315=COLOUR_RGB('Steel - Satin',0.627450980392157,0.627450980392157,0.627450980392157);
ENDSEC;
END-ISO-10303-21;
