ISO-10303-21;
HEADER;
/* Generated by software containing ST-Developer
 * from STEP Tools, Inc. (www.steptools.com) 
 */

FILE_DESCRIPTION(
/* description */ (''),
/* implementation_level */ '2;1');

FILE_NAME(
/* name */ 'Kaamera alus.step',
/* time_stamp */ '2026-05-07T11:43:13+03:00',
/* author */ (''),
/* organization */ (''),
/* preprocessor_version */ 'ST-DEVELOPER v20.1',
/* originating_system */ 'Autodesk Translation Framework v15.8.0.0',
/* authorisation */ '');

FILE_SCHEMA (('AUTOMOTIVE_DESIGN { 1 0 10303 214 3 1 1 }'));
ENDSEC;

DATA;
#10=MECHANICAL_DESIGN_GEOMETRIC_PRESENTATION_REPRESENTATION('',(#13),#1596);
#11=SHAPE_REPRESENTATION_RELATIONSHIP('SRR','None',#1603,#12);
#12=ADVANCED_BREP_SHAPE_REPRESENTATION('',(#14),#1595);
#13=STYLED_ITEM('',(#1613),#14);
#14=MANIFOLD_SOLID_BREP('Body1',#976);
#15=CYLINDRICAL_SURFACE('',#1001,2.);
#16=CYLINDRICAL_SURFACE('',#1005,2.);
#17=CYLINDRICAL_SURFACE('',#1009,2.);
#18=CYLINDRICAL_SURFACE('',#1013,2.);
#19=CYLINDRICAL_SURFACE('',#1017,2.);
#20=CYLINDRICAL_SURFACE('',#1021,2.);
#21=CYLINDRICAL_SURFACE('',#1025,2.);
#22=CYLINDRICAL_SURFACE('',#1029,2.);
#23=FACE_BOUND('',#126,.T.);
#24=FACE_BOUND('',#127,.T.);
#25=FACE_BOUND('',#128,.T.);
#26=FACE_BOUND('',#129,.T.);
#27=FACE_BOUND('',#130,.T.);
#28=FACE_BOUND('',#131,.T.);
#29=FACE_BOUND('',#132,.T.);
#30=FACE_BOUND('',#133,.T.);
#31=FACE_BOUND('',#134,.T.);
#32=FACE_BOUND('',#183,.T.);
#33=FACE_BOUND('',#184,.T.);
#34=FACE_BOUND('',#185,.T.);
#35=FACE_BOUND('',#186,.T.);
#36=FACE_BOUND('',#187,.T.);
#37=FACE_BOUND('',#188,.T.);
#38=FACE_BOUND('',#189,.T.);
#39=FACE_BOUND('',#190,.T.);
#40=PLANE('',#993);
#41=PLANE('',#1031);
#42=PLANE('',#1032);
#43=PLANE('',#1033);
#44=PLANE('',#1034);
#45=PLANE('',#1035);
#46=PLANE('',#1036);
#47=PLANE('',#1037);
#48=PLANE('',#1038);
#49=PLANE('',#1039);
#50=PLANE('',#1040);
#51=PLANE('',#1041);
#52=PLANE('',#1042);
#53=PLANE('',#1043);
#54=PLANE('',#1044);
#55=PLANE('',#1045);
#56=PLANE('',#1046);
#57=PLANE('',#1047);
#58=PLANE('',#1048);
#59=PLANE('',#1049);
#60=PLANE('',#1050);
#61=PLANE('',#1051);
#62=PLANE('',#1052);
#63=PLANE('',#1053);
#64=PLANE('',#1054);
#65=PLANE('',#1055);
#66=PLANE('',#1056);
#67=PLANE('',#1057);
#68=PLANE('',#1058);
#69=PLANE('',#1059);
#70=PLANE('',#1060);
#71=PLANE('',#1061);
#72=PLANE('',#1062);
#73=PLANE('',#1063);
#74=FACE_OUTER_BOUND('',#124,.T.);
#75=FACE_OUTER_BOUND('',#125,.T.);
#76=FACE_OUTER_BOUND('',#135,.T.);
#77=FACE_OUTER_BOUND('',#136,.T.);
#78=FACE_OUTER_BOUND('',#137,.T.);
#79=FACE_OUTER_BOUND('',#138,.T.);
#80=FACE_OUTER_BOUND('',#139,.T.);
#81=FACE_OUTER_BOUND('',#140,.T.);
#82=FACE_OUTER_BOUND('',#141,.T.);
#83=FACE_OUTER_BOUND('',#142,.T.);
#84=FACE_OUTER_BOUND('',#143,.T.);
#85=FACE_OUTER_BOUND('',#144,.T.);
#86=FACE_OUTER_BOUND('',#145,.T.);
#87=FACE_OUTER_BOUND('',#146,.T.);
#88=FACE_OUTER_BOUND('',#147,.T.);
#89=FACE_OUTER_BOUND('',#148,.T.);
#90=FACE_OUTER_BOUND('',#149,.T.);
#91=FACE_OUTER_BOUND('',#150,.T.);
#92=FACE_OUTER_BOUND('',#151,.T.);
#93=FACE_OUTER_BOUND('',#152,.T.);
#94=FACE_OUTER_BOUND('',#153,.T.);
#95=FACE_OUTER_BOUND('',#154,.T.);
#96=FACE_OUTER_BOUND('',#155,.T.);
#97=FACE_OUTER_BOUND('',#156,.T.);
#98=FACE_OUTER_BOUND('',#157,.T.);
#99=FACE_OUTER_BOUND('',#158,.T.);
#100=FACE_OUTER_BOUND('',#159,.T.);
#101=FACE_OUTER_BOUND('',#160,.T.);
#102=FACE_OUTER_BOUND('',#161,.T.);
#103=FACE_OUTER_BOUND('',#162,.T.);
#104=FACE_OUTER_BOUND('',#163,.T.);
#105=FACE_OUTER_BOUND('',#164,.T.);
#106=FACE_OUTER_BOUND('',#165,.T.);
#107=FACE_OUTER_BOUND('',#166,.T.);
#108=FACE_OUTER_BOUND('',#167,.T.);
#109=FACE_OUTER_BOUND('',#168,.T.);
#110=FACE_OUTER_BOUND('',#169,.T.);
#111=FACE_OUTER_BOUND('',#170,.T.);
#112=FACE_OUTER_BOUND('',#171,.T.);
#113=FACE_OUTER_BOUND('',#172,.T.);
#114=FACE_OUTER_BOUND('',#173,.T.);
#115=FACE_OUTER_BOUND('',#174,.T.);
#116=FACE_OUTER_BOUND('',#175,.T.);
#117=FACE_OUTER_BOUND('',#176,.T.);
#118=FACE_OUTER_BOUND('',#177,.T.);
#119=FACE_OUTER_BOUND('',#178,.T.);
#120=FACE_OUTER_BOUND('',#179,.T.);
#121=FACE_OUTER_BOUND('',#180,.T.);
#122=FACE_OUTER_BOUND('',#181,.T.);
#123=FACE_OUTER_BOUND('',#182,.T.);
#124=EDGE_LOOP('',(#652,#653,#654,#655));
#125=EDGE_LOOP('',(#656,#657,#658,#659));
#126=EDGE_LOOP('',(#660));
#127=EDGE_LOOP('',(#661));
#128=EDGE_LOOP('',(#662));
#129=EDGE_LOOP('',(#663));
#130=EDGE_LOOP('',(#664,#665,#666,#667,#668,#669,#670,#671,#672,#673,#674,
#675,#676,#677));
#131=EDGE_LOOP('',(#678));
#132=EDGE_LOOP('',(#679));
#133=EDGE_LOOP('',(#680));
#134=EDGE_LOOP('',(#681));
#135=EDGE_LOOP('',(#682,#683,#684,#685));
#136=EDGE_LOOP('',(#686,#687,#688,#689));
#137=EDGE_LOOP('',(#690,#691,#692,#693));
#138=EDGE_LOOP('',(#694,#695,#696,#697));
#139=EDGE_LOOP('',(#698,#699,#700,#701));
#140=EDGE_LOOP('',(#702,#703,#704,#705));
#141=EDGE_LOOP('',(#706,#707,#708,#709));
#142=EDGE_LOOP('',(#710,#711,#712,#713));
#143=EDGE_LOOP('',(#714,#715,#716,#717));
#144=EDGE_LOOP('',(#718,#719,#720,#721));
#145=EDGE_LOOP('',(#722,#723,#724,#725));
#146=EDGE_LOOP('',(#726,#727,#728,#729));
#147=EDGE_LOOP('',(#730,#731,#732,#733));
#148=EDGE_LOOP('',(#734,#735,#736,#737));
#149=EDGE_LOOP('',(#738,#739,#740,#741));
#150=EDGE_LOOP('',(#742,#743,#744,#745));
#151=EDGE_LOOP('',(#746,#747,#748,#749));
#152=EDGE_LOOP('',(#750,#751,#752,#753));
#153=EDGE_LOOP('',(#754,#755,#756,#757));
#154=EDGE_LOOP('',(#758,#759,#760,#761));
#155=EDGE_LOOP('',(#762,#763,#764,#765));
#156=EDGE_LOOP('',(#766,#767,#768,#769));
#157=EDGE_LOOP('',(#770,#771,#772,#773,#774,#775,#776,#777));
#158=EDGE_LOOP('',(#778,#779,#780,#781));
#159=EDGE_LOOP('',(#782,#783,#784,#785));
#160=EDGE_LOOP('',(#786,#787,#788,#789,#790,#791));
#161=EDGE_LOOP('',(#792,#793,#794,#795,#796,#797,#798,#799,#800,#801,#802,
#803));
#162=EDGE_LOOP('',(#804,#805,#806,#807,#808,#809));
#163=EDGE_LOOP('',(#810,#811,#812,#813));
#164=EDGE_LOOP('',(#814,#815,#816,#817,#818,#819));
#165=EDGE_LOOP('',(#820,#821,#822,#823));
#166=EDGE_LOOP('',(#824,#825,#826,#827));
#167=EDGE_LOOP('',(#828,#829,#830,#831));
#168=EDGE_LOOP('',(#832,#833,#834,#835));
#169=EDGE_LOOP('',(#836,#837,#838,#839,#840,#841,#842,#843));
#170=EDGE_LOOP('',(#844,#845,#846,#847,#848,#849,#850,#851));
#171=EDGE_LOOP('',(#852,#853,#854,#855));
#172=EDGE_LOOP('',(#856,#857,#858,#859));
#173=EDGE_LOOP('',(#860,#861,#862,#863));
#174=EDGE_LOOP('',(#864,#865,#866,#867,#868,#869,#870,#871));
#175=EDGE_LOOP('',(#872,#873,#874,#875));
#176=EDGE_LOOP('',(#876,#877,#878,#879,#880,#881,#882,#883));
#177=EDGE_LOOP('',(#884,#885,#886,#887));
#178=EDGE_LOOP('',(#888,#889,#890,#891));
#179=EDGE_LOOP('',(#892,#893,#894,#895,#896,#897));
#180=EDGE_LOOP('',(#898,#899,#900,#901));
#181=EDGE_LOOP('',(#902,#903,#904,#905));
#182=EDGE_LOOP('',(#906,#907,#908,#909));
#183=EDGE_LOOP('',(#910));
#184=EDGE_LOOP('',(#911));
#185=EDGE_LOOP('',(#912));
#186=EDGE_LOOP('',(#913));
#187=EDGE_LOOP('',(#914));
#188=EDGE_LOOP('',(#915));
#189=EDGE_LOOP('',(#916));
#190=EDGE_LOOP('',(#917));
#191=LINE('',#1328,#300);
#192=LINE('',#1333,#301);
#193=LINE('',#1335,#302);
#194=LINE('',#1337,#303);
#195=LINE('',#1338,#304);
#196=LINE('',#1349,#305);
#197=LINE('',#1351,#306);
#198=LINE('',#1353,#307);
#199=LINE('',#1355,#308);
#200=LINE('',#1357,#309);
#201=LINE('',#1359,#310);
#202=LINE('',#1361,#311);
#203=LINE('',#1363,#312);
#204=LINE('',#1365,#313);
#205=LINE('',#1367,#314);
#206=LINE('',#1369,#315);
#207=LINE('',#1371,#316);
#208=LINE('',#1373,#317);
#209=LINE('',#1374,#318);
#210=LINE('',#1383,#319);
#211=LINE('',#1387,#320);
#212=LINE('',#1391,#321);
#213=LINE('',#1395,#322);
#214=LINE('',#1399,#323);
#215=LINE('',#1403,#324);
#216=LINE('',#1407,#325);
#217=LINE('',#1411,#326);
#218=LINE('',#1415,#327);
#219=LINE('',#1419,#328);
#220=LINE('',#1423,#329);
#221=LINE('',#1427,#330);
#222=LINE('',#1431,#331);
#223=LINE('',#1435,#332);
#224=LINE('',#1439,#333);
#225=LINE('',#1443,#334);
#226=LINE('',#1445,#335);
#227=LINE('',#1446,#336);
#228=LINE('',#1449,#337);
#229=LINE('',#1451,#338);
#230=LINE('',#1452,#339);
#231=LINE('',#1455,#340);
#232=LINE('',#1456,#341);
#233=LINE('',#1459,#342);
#234=LINE('',#1460,#343);
#235=LINE('',#1463,#344);
#236=LINE('',#1464,#345);
#237=LINE('',#1467,#346);
#238=LINE('',#1468,#347);
#239=LINE('',#1470,#348);
#240=LINE('',#1472,#349);
#241=LINE('',#1476,#350);
#242=LINE('',#1478,#351);
#243=LINE('',#1480,#352);
#244=LINE('',#1481,#353);
#245=LINE('',#1485,#354);
#246=LINE('',#1486,#355);
#247=LINE('',#1487,#356);
#248=LINE('',#1490,#357);
#249=LINE('',#1492,#358);
#250=LINE('',#1494,#359);
#251=LINE('',#1495,#360);
#252=LINE('',#1499,#361);
#253=LINE('',#1501,#362);
#254=LINE('',#1503,#363);
#255=LINE('',#1505,#364);
#256=LINE('',#1507,#365);
#257=LINE('',#1509,#366);
#258=LINE('',#1511,#367);
#259=LINE('',#1513,#368);
#260=LINE('',#1515,#369);
#261=LINE('',#1517,#370);
#262=LINE('',#1519,#371);
#263=LINE('',#1520,#372);
#264=LINE('',#1523,#373);
#265=LINE('',#1525,#374);
#266=LINE('',#1527,#375);
#267=LINE('',#1528,#376);
#268=LINE('',#1532,#377);
#269=LINE('',#1534,#378);
#270=LINE('',#1536,#379);
#271=LINE('',#1537,#380);
#272=LINE('',#1540,#381);
#273=LINE('',#1542,#382);
#274=LINE('',#1544,#383);
#275=LINE('',#1546,#384);
#276=LINE('',#1547,#385);
#277=LINE('',#1551,#386);
#278=LINE('',#1552,#387);
#279=LINE('',#1553,#388);
#280=LINE('',#1556,#389);
#281=LINE('',#1557,#390);
#282=LINE('',#1560,#391);
#283=LINE('',#1561,#392);
#284=LINE('',#1563,#393);
#285=LINE('',#1565,#394);
#286=LINE('',#1566,#395);
#287=LINE('',#1567,#396);
#288=LINE('',#1569,#397);
#289=LINE('',#1571,#398);
#290=LINE('',#1573,#399);
#291=LINE('',#1575,#400);
#292=LINE('',#1577,#401);
#293=LINE('',#1578,#402);
#294=LINE('',#1580,#403);
#295=LINE('',#1582,#404);
#296=LINE('',#1583,#405);
#297=LINE('',#1585,#406);
#298=LINE('',#1588,#407);
#299=LINE('',#1590,#408);
#300=VECTOR('',#1070,2.5);
#301=VECTOR('',#1075,10.);
#302=VECTOR('',#1076,10.);
#303=VECTOR('',#1077,10.);
#304=VECTOR('',#1078,10.);
#305=VECTOR('',#1087,10.);
#306=VECTOR('',#1088,10.);
#307=VECTOR('',#1089,10.);
#308=VECTOR('',#1090,10.);
#309=VECTOR('',#1091,10.);
#310=VECTOR('',#1092,10.);
#311=VECTOR('',#1093,10.);
#312=VECTOR('',#1094,10.);
#313=VECTOR('',#1095,10.);
#314=VECTOR('',#1096,10.);
#315=VECTOR('',#1097,10.);
#316=VECTOR('',#1098,10.);
#317=VECTOR('',#1099,10.);
#318=VECTOR('',#1100,10.);
#319=VECTOR('',#1109,2.);
#320=VECTOR('',#1114,2.5);
#321=VECTOR('',#1119,2.);
#322=VECTOR('',#1124,2.5);
#323=VECTOR('',#1129,2.);
#324=VECTOR('',#1134,2.5);
#325=VECTOR('',#1139,2.);
#326=VECTOR('',#1144,2.5);
#327=VECTOR('',#1149,2.);
#328=VECTOR('',#1154,2.5);
#329=VECTOR('',#1159,2.);
#330=VECTOR('',#1164,2.5);
#331=VECTOR('',#1169,2.);
#332=VECTOR('',#1174,2.5);
#333=VECTOR('',#1179,2.);
#334=VECTOR('',#1184,10.);
#335=VECTOR('',#1185,10.);
#336=VECTOR('',#1186,10.);
#337=VECTOR('',#1189,10.);
#338=VECTOR('',#1190,10.);
#339=VECTOR('',#1191,10.);
#340=VECTOR('',#1194,10.);
#341=VECTOR('',#1195,10.);
#342=VECTOR('',#1198,10.);
#343=VECTOR('',#1199,10.);
#344=VECTOR('',#1202,10.);
#345=VECTOR('',#1203,10.);
#346=VECTOR('',#1206,10.);
#347=VECTOR('',#1207,10.);
#348=VECTOR('',#1210,10.);
#349=VECTOR('',#1213,10.);
#350=VECTOR('',#1216,10.);
#351=VECTOR('',#1217,10.);
#352=VECTOR('',#1218,10.);
#353=VECTOR('',#1219,10.);
#354=VECTOR('',#1222,10.);
#355=VECTOR('',#1223,10.);
#356=VECTOR('',#1224,10.);
#357=VECTOR('',#1227,10.);
#358=VECTOR('',#1228,10.);
#359=VECTOR('',#1229,10.);
#360=VECTOR('',#1230,10.);
#361=VECTOR('',#1233,10.);
#362=VECTOR('',#1234,10.);
#363=VECTOR('',#1235,10.);
#364=VECTOR('',#1236,10.);
#365=VECTOR('',#1237,10.);
#366=VECTOR('',#1238,10.);
#367=VECTOR('',#1239,10.);
#368=VECTOR('',#1240,10.);
#369=VECTOR('',#1241,10.);
#370=VECTOR('',#1242,10.);
#371=VECTOR('',#1243,10.);
#372=VECTOR('',#1244,10.);
#373=VECTOR('',#1247,10.);
#374=VECTOR('',#1248,10.);
#375=VECTOR('',#1249,10.);
#376=VECTOR('',#1250,10.);
#377=VECTOR('',#1253,10.);
#378=VECTOR('',#1254,10.);
#379=VECTOR('',#1255,10.);
#380=VECTOR('',#1256,10.);
#381=VECTOR('',#1259,10.);
#382=VECTOR('',#1260,10.);
#383=VECTOR('',#1261,10.);
#384=VECTOR('',#1262,10.);
#385=VECTOR('',#1263,10.);
#386=VECTOR('',#1266,10.);
#387=VECTOR('',#1267,10.);
#388=VECTOR('',#1268,10.);
#389=VECTOR('',#1271,10.);
#390=VECTOR('',#1272,10.);
#391=VECTOR('',#1275,10.);
#392=VECTOR('',#1276,10.);
#393=VECTOR('',#1279,10.);
#394=VECTOR('',#1282,10.);
#395=VECTOR('',#1283,10.);
#396=VECTOR('',#1284,10.);
#397=VECTOR('',#1287,10.);
#398=VECTOR('',#1290,10.);
#399=VECTOR('',#1293,10.);
#400=VECTOR('',#1296,10.);
#401=VECTOR('',#1299,10.);
#402=VECTOR('',#1300,10.);
#403=VECTOR('',#1303,10.);
#404=VECTOR('',#1306,10.);
#405=VECTOR('',#1307,10.);
#406=VECTOR('',#1310,10.);
#407=VECTOR('',#1315,10.);
#408=VECTOR('',#1318,10.);
#409=CIRCLE('',#991,3.);
#410=CIRCLE('',#992,2.);
#411=CIRCLE('',#994,3.);
#412=CIRCLE('',#995,3.);
#413=CIRCLE('',#996,3.);
#414=CIRCLE('',#997,3.);
#415=CIRCLE('',#998,3.);
#416=CIRCLE('',#999,3.);
#417=CIRCLE('',#1000,3.);
#418=CIRCLE('',#1002,2.);
#419=CIRCLE('',#1004,2.);
#420=CIRCLE('',#1006,2.);
#421=CIRCLE('',#1008,2.);
#422=CIRCLE('',#1010,2.);
#423=CIRCLE('',#1012,2.);
#424=CIRCLE('',#1014,2.);
#425=CIRCLE('',#1016,2.);
#426=CIRCLE('',#1018,2.);
#427=CIRCLE('',#1020,2.);
#428=CIRCLE('',#1022,2.);
#429=CIRCLE('',#1024,2.);
#430=CIRCLE('',#1026,2.);
#431=CIRCLE('',#1028,2.);
#432=CIRCLE('',#1030,2.);
#433=VERTEX_POINT('',#1325);
#434=VERTEX_POINT('',#1327);
#435=VERTEX_POINT('',#1331);
#436=VERTEX_POINT('',#1332);
#437=VERTEX_POINT('',#1334);
#438=VERTEX_POINT('',#1336);
#439=VERTEX_POINT('',#1339);
#440=VERTEX_POINT('',#1341);
#441=VERTEX_POINT('',#1343);
#442=VERTEX_POINT('',#1345);
#443=VERTEX_POINT('',#1347);
#444=VERTEX_POINT('',#1348);
#445=VERTEX_POINT('',#1350);
#446=VERTEX_POINT('',#1352);
#447=VERTEX_POINT('',#1354);
#448=VERTEX_POINT('',#1356);
#449=VERTEX_POINT('',#1358);
#450=VERTEX_POINT('',#1360);
#451=VERTEX_POINT('',#1362);
#452=VERTEX_POINT('',#1364);
#453=VERTEX_POINT('',#1366);
#454=VERTEX_POINT('',#1368);
#455=VERTEX_POINT('',#1370);
#456=VERTEX_POINT('',#1372);
#457=VERTEX_POINT('',#1375);
#458=VERTEX_POINT('',#1377);
#459=VERTEX_POINT('',#1379);
#460=VERTEX_POINT('',#1382);
#461=VERTEX_POINT('',#1386);
#462=VERTEX_POINT('',#1390);
#463=VERTEX_POINT('',#1394);
#464=VERTEX_POINT('',#1398);
#465=VERTEX_POINT('',#1402);
#466=VERTEX_POINT('',#1406);
#467=VERTEX_POINT('',#1410);
#468=VERTEX_POINT('',#1414);
#469=VERTEX_POINT('',#1418);
#470=VERTEX_POINT('',#1422);
#471=VERTEX_POINT('',#1426);
#472=VERTEX_POINT('',#1430);
#473=VERTEX_POINT('',#1434);
#474=VERTEX_POINT('',#1438);
#475=VERTEX_POINT('',#1442);
#476=VERTEX_POINT('',#1444);
#477=VERTEX_POINT('',#1448);
#478=VERTEX_POINT('',#1450);
#479=VERTEX_POINT('',#1454);
#480=VERTEX_POINT('',#1458);
#481=VERTEX_POINT('',#1462);
#482=VERTEX_POINT('',#1466);
#483=VERTEX_POINT('',#1474);
#484=VERTEX_POINT('',#1475);
#485=VERTEX_POINT('',#1477);
#486=VERTEX_POINT('',#1479);
#487=VERTEX_POINT('',#1483);
#488=VERTEX_POINT('',#1484);
#489=VERTEX_POINT('',#1489);
#490=VERTEX_POINT('',#1491);
#491=VERTEX_POINT('',#1493);
#492=VERTEX_POINT('',#1497);
#493=VERTEX_POINT('',#1498);
#494=VERTEX_POINT('',#1500);
#495=VERTEX_POINT('',#1502);
#496=VERTEX_POINT('',#1504);
#497=VERTEX_POINT('',#1506);
#498=VERTEX_POINT('',#1508);
#499=VERTEX_POINT('',#1510);
#500=VERTEX_POINT('',#1512);
#501=VERTEX_POINT('',#1514);
#502=VERTEX_POINT('',#1516);
#503=VERTEX_POINT('',#1518);
#504=VERTEX_POINT('',#1522);
#505=VERTEX_POINT('',#1524);
#506=VERTEX_POINT('',#1526);
#507=VERTEX_POINT('',#1530);
#508=VERTEX_POINT('',#1531);
#509=VERTEX_POINT('',#1533);
#510=VERTEX_POINT('',#1535);
#511=VERTEX_POINT('',#1539);
#512=VERTEX_POINT('',#1541);
#513=VERTEX_POINT('',#1543);
#514=VERTEX_POINT('',#1545);
#515=VERTEX_POINT('',#1549);
#516=VERTEX_POINT('',#1550);
#517=VERTEX_POINT('',#1555);
#518=VERTEX_POINT('',#1559);
#519=EDGE_CURVE('',#433,#433,#409,.T.);
#520=EDGE_CURVE('',#433,#434,#191,.T.);
#521=EDGE_CURVE('',#434,#434,#410,.T.);
#522=EDGE_CURVE('',#435,#436,#192,.T.);
#523=EDGE_CURVE('',#436,#437,#193,.T.);
#524=EDGE_CURVE('',#437,#438,#194,.T.);
#525=EDGE_CURVE('',#438,#435,#195,.T.);
#526=EDGE_CURVE('',#439,#439,#411,.T.);
#527=EDGE_CURVE('',#440,#440,#412,.T.);
#528=EDGE_CURVE('',#441,#441,#413,.T.);
#529=EDGE_CURVE('',#442,#442,#414,.T.);
#530=EDGE_CURVE('',#443,#444,#196,.T.);
#531=EDGE_CURVE('',#444,#445,#197,.T.);
#532=EDGE_CURVE('',#445,#446,#198,.T.);
#533=EDGE_CURVE('',#446,#447,#199,.T.);
#534=EDGE_CURVE('',#447,#448,#200,.T.);
#535=EDGE_CURVE('',#448,#449,#201,.T.);
#536=EDGE_CURVE('',#449,#450,#202,.T.);
#537=EDGE_CURVE('',#451,#450,#203,.T.);
#538=EDGE_CURVE('',#452,#451,#204,.T.);
#539=EDGE_CURVE('',#453,#452,#205,.T.);
#540=EDGE_CURVE('',#454,#453,#206,.T.);
#541=EDGE_CURVE('',#455,#454,#207,.T.);
#542=EDGE_CURVE('',#456,#455,#208,.T.);
#543=EDGE_CURVE('',#443,#456,#209,.T.);
#544=EDGE_CURVE('',#457,#457,#415,.T.);
#545=EDGE_CURVE('',#458,#458,#416,.T.);
#546=EDGE_CURVE('',#459,#459,#417,.T.);
#547=EDGE_CURVE('',#434,#460,#210,.T.);
#548=EDGE_CURVE('',#460,#460,#418,.T.);
#549=EDGE_CURVE('',#439,#461,#211,.T.);
#550=EDGE_CURVE('',#461,#461,#419,.T.);
#551=EDGE_CURVE('',#461,#462,#212,.T.);
#552=EDGE_CURVE('',#462,#462,#420,.T.);
#553=EDGE_CURVE('',#459,#463,#213,.T.);
#554=EDGE_CURVE('',#463,#463,#421,.T.);
#555=EDGE_CURVE('',#463,#464,#214,.T.);
#556=EDGE_CURVE('',#464,#464,#422,.T.);
#557=EDGE_CURVE('',#440,#465,#215,.T.);
#558=EDGE_CURVE('',#465,#465,#423,.T.);
#559=EDGE_CURVE('',#465,#466,#216,.T.);
#560=EDGE_CURVE('',#466,#466,#424,.T.);
#561=EDGE_CURVE('',#458,#467,#217,.T.);
#562=EDGE_CURVE('',#467,#467,#425,.T.);
#563=EDGE_CURVE('',#467,#468,#218,.T.);
#564=EDGE_CURVE('',#468,#468,#426,.T.);
#565=EDGE_CURVE('',#441,#469,#219,.T.);
#566=EDGE_CURVE('',#469,#469,#427,.T.);
#567=EDGE_CURVE('',#469,#470,#220,.T.);
#568=EDGE_CURVE('',#470,#470,#428,.T.);
#569=EDGE_CURVE('',#457,#471,#221,.T.);
#570=EDGE_CURVE('',#471,#471,#429,.T.);
#571=EDGE_CURVE('',#471,#472,#222,.T.);
#572=EDGE_CURVE('',#472,#472,#430,.T.);
#573=EDGE_CURVE('',#442,#473,#223,.T.);
#574=EDGE_CURVE('',#473,#473,#431,.T.);
#575=EDGE_CURVE('',#473,#474,#224,.T.);
#576=EDGE_CURVE('',#474,#474,#432,.T.);
#577=EDGE_CURVE('',#475,#443,#225,.T.);
#578=EDGE_CURVE('',#476,#475,#226,.T.);
#579=EDGE_CURVE('',#444,#476,#227,.T.);
#580=EDGE_CURVE('',#449,#477,#228,.T.);
#581=EDGE_CURVE('',#478,#477,#229,.T.);
#582=EDGE_CURVE('',#450,#478,#230,.T.);
#583=EDGE_CURVE('',#448,#479,#231,.T.);
#584=EDGE_CURVE('',#477,#479,#232,.T.);
#585=EDGE_CURVE('',#480,#476,#233,.T.);
#586=EDGE_CURVE('',#445,#480,#234,.T.);
#587=EDGE_CURVE('',#481,#480,#235,.T.);
#588=EDGE_CURVE('',#446,#481,#236,.T.);
#589=EDGE_CURVE('',#482,#481,#237,.T.);
#590=EDGE_CURVE('',#447,#482,#238,.T.);
#591=EDGE_CURVE('',#479,#482,#239,.T.);
#592=EDGE_CURVE('',#478,#475,#240,.T.);
#593=EDGE_CURVE('',#483,#484,#241,.T.);
#594=EDGE_CURVE('',#485,#483,#242,.T.);
#595=EDGE_CURVE('',#486,#485,#243,.T.);
#596=EDGE_CURVE('',#484,#486,#244,.T.);
#597=EDGE_CURVE('',#487,#488,#245,.T.);
#598=EDGE_CURVE('',#483,#488,#246,.T.);
#599=EDGE_CURVE('',#487,#484,#247,.T.);
#600=EDGE_CURVE('',#489,#488,#248,.T.);
#601=EDGE_CURVE('',#489,#490,#249,.T.);
#602=EDGE_CURVE('',#490,#491,#250,.T.);
#603=EDGE_CURVE('',#485,#491,#251,.T.);
#604=EDGE_CURVE('',#492,#493,#252,.T.);
#605=EDGE_CURVE('',#493,#494,#253,.T.);
#606=EDGE_CURVE('',#494,#495,#254,.T.);
#607=EDGE_CURVE('',#495,#496,#255,.T.);
#608=EDGE_CURVE('',#496,#497,#256,.T.);
#609=EDGE_CURVE('',#497,#498,#257,.T.);
#610=EDGE_CURVE('',#498,#499,#258,.T.);
#611=EDGE_CURVE('',#499,#500,#259,.T.);
#612=EDGE_CURVE('',#500,#501,#260,.T.);
#613=EDGE_CURVE('',#501,#502,#261,.T.);
#614=EDGE_CURVE('',#502,#503,#262,.T.);
#615=EDGE_CURVE('',#503,#492,#263,.T.);
#616=EDGE_CURVE('',#491,#504,#264,.T.);
#617=EDGE_CURVE('',#504,#505,#265,.T.);
#618=EDGE_CURVE('',#505,#506,#266,.T.);
#619=EDGE_CURVE('',#506,#486,#267,.T.);
#620=EDGE_CURVE('',#507,#508,#268,.T.);
#621=EDGE_CURVE('',#509,#508,#269,.T.);
#622=EDGE_CURVE('',#509,#510,#270,.T.);
#623=EDGE_CURVE('',#507,#510,#271,.T.);
#624=EDGE_CURVE('',#490,#511,#272,.T.);
#625=EDGE_CURVE('',#512,#489,#273,.T.);
#626=EDGE_CURVE('',#513,#512,#274,.T.);
#627=EDGE_CURVE('',#514,#513,#275,.T.);
#628=EDGE_CURVE('',#511,#514,#276,.T.);
#629=EDGE_CURVE('',#515,#516,#277,.T.);
#630=EDGE_CURVE('',#516,#435,#278,.T.);
#631=EDGE_CURVE('',#515,#438,#279,.T.);
#632=EDGE_CURVE('',#517,#515,#280,.T.);
#633=EDGE_CURVE('',#517,#437,#281,.T.);
#634=EDGE_CURVE('',#518,#517,#282,.T.);
#635=EDGE_CURVE('',#518,#436,#283,.T.);
#636=EDGE_CURVE('',#516,#518,#284,.T.);
#637=EDGE_CURVE('',#452,#506,#285,.T.);
#638=EDGE_CURVE('',#451,#494,#286,.T.);
#639=EDGE_CURVE('',#493,#487,#287,.T.);
#640=EDGE_CURVE('',#456,#495,#288,.T.);
#641=EDGE_CURVE('',#455,#496,#289,.T.);
#642=EDGE_CURVE('',#454,#497,#290,.T.);
#643=EDGE_CURVE('',#453,#498,#291,.T.);
#644=EDGE_CURVE('',#510,#505,#292,.T.);
#645=EDGE_CURVE('',#509,#499,#293,.T.);
#646=EDGE_CURVE('',#508,#500,#294,.T.);
#647=EDGE_CURVE('',#511,#501,#295,.T.);
#648=EDGE_CURVE('',#507,#504,#296,.T.);
#649=EDGE_CURVE('',#514,#502,#297,.T.);
#650=EDGE_CURVE('',#512,#492,#298,.T.);
#651=EDGE_CURVE('',#513,#503,#299,.T.);
#652=ORIENTED_EDGE('',*,*,#519,.T.);
#653=ORIENTED_EDGE('',*,*,#520,.T.);
#654=ORIENTED_EDGE('',*,*,#521,.T.);
#655=ORIENTED_EDGE('',*,*,#520,.F.);
#656=ORIENTED_EDGE('',*,*,#522,.T.);
#657=ORIENTED_EDGE('',*,*,#523,.T.);
#658=ORIENTED_EDGE('',*,*,#524,.T.);
#659=ORIENTED_EDGE('',*,*,#525,.T.);
#660=ORIENTED_EDGE('',*,*,#526,.F.);
#661=ORIENTED_EDGE('',*,*,#527,.F.);
#662=ORIENTED_EDGE('',*,*,#528,.F.);
#663=ORIENTED_EDGE('',*,*,#529,.F.);
#664=ORIENTED_EDGE('',*,*,#530,.T.);
#665=ORIENTED_EDGE('',*,*,#531,.T.);
#666=ORIENTED_EDGE('',*,*,#532,.T.);
#667=ORIENTED_EDGE('',*,*,#533,.T.);
#668=ORIENTED_EDGE('',*,*,#534,.T.);
#669=ORIENTED_EDGE('',*,*,#535,.T.);
#670=ORIENTED_EDGE('',*,*,#536,.T.);
#671=ORIENTED_EDGE('',*,*,#537,.F.);
#672=ORIENTED_EDGE('',*,*,#538,.F.);
#673=ORIENTED_EDGE('',*,*,#539,.F.);
#674=ORIENTED_EDGE('',*,*,#540,.F.);
#675=ORIENTED_EDGE('',*,*,#541,.F.);
#676=ORIENTED_EDGE('',*,*,#542,.F.);
#677=ORIENTED_EDGE('',*,*,#543,.F.);
#678=ORIENTED_EDGE('',*,*,#544,.F.);
#679=ORIENTED_EDGE('',*,*,#545,.F.);
#680=ORIENTED_EDGE('',*,*,#546,.F.);
#681=ORIENTED_EDGE('',*,*,#519,.F.);
#682=ORIENTED_EDGE('',*,*,#521,.F.);
#683=ORIENTED_EDGE('',*,*,#547,.T.);
#684=ORIENTED_EDGE('',*,*,#548,.T.);
#685=ORIENTED_EDGE('',*,*,#547,.F.);
#686=ORIENTED_EDGE('',*,*,#526,.T.);
#687=ORIENTED_EDGE('',*,*,#549,.T.);
#688=ORIENTED_EDGE('',*,*,#550,.T.);
#689=ORIENTED_EDGE('',*,*,#549,.F.);
#690=ORIENTED_EDGE('',*,*,#550,.F.);
#691=ORIENTED_EDGE('',*,*,#551,.T.);
#692=ORIENTED_EDGE('',*,*,#552,.T.);
#693=ORIENTED_EDGE('',*,*,#551,.F.);
#694=ORIENTED_EDGE('',*,*,#546,.T.);
#695=ORIENTED_EDGE('',*,*,#553,.T.);
#696=ORIENTED_EDGE('',*,*,#554,.T.);
#697=ORIENTED_EDGE('',*,*,#553,.F.);
#698=ORIENTED_EDGE('',*,*,#554,.F.);
#699=ORIENTED_EDGE('',*,*,#555,.T.);
#700=ORIENTED_EDGE('',*,*,#556,.T.);
#701=ORIENTED_EDGE('',*,*,#555,.F.);
#702=ORIENTED_EDGE('',*,*,#527,.T.);
#703=ORIENTED_EDGE('',*,*,#557,.T.);
#704=ORIENTED_EDGE('',*,*,#558,.T.);
#705=ORIENTED_EDGE('',*,*,#557,.F.);
#706=ORIENTED_EDGE('',*,*,#558,.F.);
#707=ORIENTED_EDGE('',*,*,#559,.T.);
#708=ORIENTED_EDGE('',*,*,#560,.T.);
#709=ORIENTED_EDGE('',*,*,#559,.F.);
#710=ORIENTED_EDGE('',*,*,#545,.T.);
#711=ORIENTED_EDGE('',*,*,#561,.T.);
#712=ORIENTED_EDGE('',*,*,#562,.T.);
#713=ORIENTED_EDGE('',*,*,#561,.F.);
#714=ORIENTED_EDGE('',*,*,#562,.F.);
#715=ORIENTED_EDGE('',*,*,#563,.T.);
#716=ORIENTED_EDGE('',*,*,#564,.T.);
#717=ORIENTED_EDGE('',*,*,#563,.F.);
#718=ORIENTED_EDGE('',*,*,#528,.T.);
#719=ORIENTED_EDGE('',*,*,#565,.T.);
#720=ORIENTED_EDGE('',*,*,#566,.T.);
#721=ORIENTED_EDGE('',*,*,#565,.F.);
#722=ORIENTED_EDGE('',*,*,#566,.F.);
#723=ORIENTED_EDGE('',*,*,#567,.T.);
#724=ORIENTED_EDGE('',*,*,#568,.T.);
#725=ORIENTED_EDGE('',*,*,#567,.F.);
#726=ORIENTED_EDGE('',*,*,#544,.T.);
#727=ORIENTED_EDGE('',*,*,#569,.T.);
#728=ORIENTED_EDGE('',*,*,#570,.T.);
#729=ORIENTED_EDGE('',*,*,#569,.F.);
#730=ORIENTED_EDGE('',*,*,#570,.F.);
#731=ORIENTED_EDGE('',*,*,#571,.T.);
#732=ORIENTED_EDGE('',*,*,#572,.T.);
#733=ORIENTED_EDGE('',*,*,#571,.F.);
#734=ORIENTED_EDGE('',*,*,#529,.T.);
#735=ORIENTED_EDGE('',*,*,#573,.T.);
#736=ORIENTED_EDGE('',*,*,#574,.T.);
#737=ORIENTED_EDGE('',*,*,#573,.F.);
#738=ORIENTED_EDGE('',*,*,#574,.F.);
#739=ORIENTED_EDGE('',*,*,#575,.T.);
#740=ORIENTED_EDGE('',*,*,#576,.T.);
#741=ORIENTED_EDGE('',*,*,#575,.F.);
#742=ORIENTED_EDGE('',*,*,#530,.F.);
#743=ORIENTED_EDGE('',*,*,#577,.F.);
#744=ORIENTED_EDGE('',*,*,#578,.F.);
#745=ORIENTED_EDGE('',*,*,#579,.F.);
#746=ORIENTED_EDGE('',*,*,#536,.F.);
#747=ORIENTED_EDGE('',*,*,#580,.T.);
#748=ORIENTED_EDGE('',*,*,#581,.F.);
#749=ORIENTED_EDGE('',*,*,#582,.F.);
#750=ORIENTED_EDGE('',*,*,#535,.F.);
#751=ORIENTED_EDGE('',*,*,#583,.T.);
#752=ORIENTED_EDGE('',*,*,#584,.F.);
#753=ORIENTED_EDGE('',*,*,#580,.F.);
#754=ORIENTED_EDGE('',*,*,#531,.F.);
#755=ORIENTED_EDGE('',*,*,#579,.T.);
#756=ORIENTED_EDGE('',*,*,#585,.F.);
#757=ORIENTED_EDGE('',*,*,#586,.F.);
#758=ORIENTED_EDGE('',*,*,#532,.F.);
#759=ORIENTED_EDGE('',*,*,#586,.T.);
#760=ORIENTED_EDGE('',*,*,#587,.F.);
#761=ORIENTED_EDGE('',*,*,#588,.F.);
#762=ORIENTED_EDGE('',*,*,#533,.F.);
#763=ORIENTED_EDGE('',*,*,#588,.T.);
#764=ORIENTED_EDGE('',*,*,#589,.F.);
#765=ORIENTED_EDGE('',*,*,#590,.F.);
#766=ORIENTED_EDGE('',*,*,#534,.F.);
#767=ORIENTED_EDGE('',*,*,#590,.T.);
#768=ORIENTED_EDGE('',*,*,#591,.F.);
#769=ORIENTED_EDGE('',*,*,#583,.F.);
#770=ORIENTED_EDGE('',*,*,#591,.T.);
#771=ORIENTED_EDGE('',*,*,#589,.T.);
#772=ORIENTED_EDGE('',*,*,#587,.T.);
#773=ORIENTED_EDGE('',*,*,#585,.T.);
#774=ORIENTED_EDGE('',*,*,#578,.T.);
#775=ORIENTED_EDGE('',*,*,#592,.F.);
#776=ORIENTED_EDGE('',*,*,#581,.T.);
#777=ORIENTED_EDGE('',*,*,#584,.T.);
#778=ORIENTED_EDGE('',*,*,#593,.F.);
#779=ORIENTED_EDGE('',*,*,#594,.F.);
#780=ORIENTED_EDGE('',*,*,#595,.F.);
#781=ORIENTED_EDGE('',*,*,#596,.F.);
#782=ORIENTED_EDGE('',*,*,#597,.T.);
#783=ORIENTED_EDGE('',*,*,#598,.F.);
#784=ORIENTED_EDGE('',*,*,#593,.T.);
#785=ORIENTED_EDGE('',*,*,#599,.F.);
#786=ORIENTED_EDGE('',*,*,#594,.T.);
#787=ORIENTED_EDGE('',*,*,#598,.T.);
#788=ORIENTED_EDGE('',*,*,#600,.F.);
#789=ORIENTED_EDGE('',*,*,#601,.T.);
#790=ORIENTED_EDGE('',*,*,#602,.T.);
#791=ORIENTED_EDGE('',*,*,#603,.F.);
#792=ORIENTED_EDGE('',*,*,#604,.T.);
#793=ORIENTED_EDGE('',*,*,#605,.T.);
#794=ORIENTED_EDGE('',*,*,#606,.T.);
#795=ORIENTED_EDGE('',*,*,#607,.T.);
#796=ORIENTED_EDGE('',*,*,#608,.T.);
#797=ORIENTED_EDGE('',*,*,#609,.T.);
#798=ORIENTED_EDGE('',*,*,#610,.T.);
#799=ORIENTED_EDGE('',*,*,#611,.T.);
#800=ORIENTED_EDGE('',*,*,#612,.T.);
#801=ORIENTED_EDGE('',*,*,#613,.T.);
#802=ORIENTED_EDGE('',*,*,#614,.T.);
#803=ORIENTED_EDGE('',*,*,#615,.T.);
#804=ORIENTED_EDGE('',*,*,#595,.T.);
#805=ORIENTED_EDGE('',*,*,#603,.T.);
#806=ORIENTED_EDGE('',*,*,#616,.T.);
#807=ORIENTED_EDGE('',*,*,#617,.T.);
#808=ORIENTED_EDGE('',*,*,#618,.T.);
#809=ORIENTED_EDGE('',*,*,#619,.T.);
#810=ORIENTED_EDGE('',*,*,#620,.T.);
#811=ORIENTED_EDGE('',*,*,#621,.F.);
#812=ORIENTED_EDGE('',*,*,#622,.T.);
#813=ORIENTED_EDGE('',*,*,#623,.F.);
#814=ORIENTED_EDGE('',*,*,#624,.F.);
#815=ORIENTED_EDGE('',*,*,#601,.F.);
#816=ORIENTED_EDGE('',*,*,#625,.F.);
#817=ORIENTED_EDGE('',*,*,#626,.F.);
#818=ORIENTED_EDGE('',*,*,#627,.F.);
#819=ORIENTED_EDGE('',*,*,#628,.F.);
#820=ORIENTED_EDGE('',*,*,#629,.T.);
#821=ORIENTED_EDGE('',*,*,#630,.T.);
#822=ORIENTED_EDGE('',*,*,#525,.F.);
#823=ORIENTED_EDGE('',*,*,#631,.F.);
#824=ORIENTED_EDGE('',*,*,#632,.T.);
#825=ORIENTED_EDGE('',*,*,#631,.T.);
#826=ORIENTED_EDGE('',*,*,#524,.F.);
#827=ORIENTED_EDGE('',*,*,#633,.F.);
#828=ORIENTED_EDGE('',*,*,#634,.T.);
#829=ORIENTED_EDGE('',*,*,#633,.T.);
#830=ORIENTED_EDGE('',*,*,#523,.F.);
#831=ORIENTED_EDGE('',*,*,#635,.F.);
#832=ORIENTED_EDGE('',*,*,#636,.T.);
#833=ORIENTED_EDGE('',*,*,#635,.T.);
#834=ORIENTED_EDGE('',*,*,#522,.F.);
#835=ORIENTED_EDGE('',*,*,#630,.F.);
#836=ORIENTED_EDGE('',*,*,#596,.T.);
#837=ORIENTED_EDGE('',*,*,#619,.F.);
#838=ORIENTED_EDGE('',*,*,#637,.F.);
#839=ORIENTED_EDGE('',*,*,#538,.T.);
#840=ORIENTED_EDGE('',*,*,#638,.T.);
#841=ORIENTED_EDGE('',*,*,#605,.F.);
#842=ORIENTED_EDGE('',*,*,#639,.T.);
#843=ORIENTED_EDGE('',*,*,#599,.T.);
#844=ORIENTED_EDGE('',*,*,#577,.T.);
#845=ORIENTED_EDGE('',*,*,#543,.T.);
#846=ORIENTED_EDGE('',*,*,#640,.T.);
#847=ORIENTED_EDGE('',*,*,#606,.F.);
#848=ORIENTED_EDGE('',*,*,#638,.F.);
#849=ORIENTED_EDGE('',*,*,#537,.T.);
#850=ORIENTED_EDGE('',*,*,#582,.T.);
#851=ORIENTED_EDGE('',*,*,#592,.T.);
#852=ORIENTED_EDGE('',*,*,#542,.T.);
#853=ORIENTED_EDGE('',*,*,#641,.T.);
#854=ORIENTED_EDGE('',*,*,#607,.F.);
#855=ORIENTED_EDGE('',*,*,#640,.F.);
#856=ORIENTED_EDGE('',*,*,#541,.T.);
#857=ORIENTED_EDGE('',*,*,#642,.T.);
#858=ORIENTED_EDGE('',*,*,#608,.F.);
#859=ORIENTED_EDGE('',*,*,#641,.F.);
#860=ORIENTED_EDGE('',*,*,#540,.T.);
#861=ORIENTED_EDGE('',*,*,#643,.T.);
#862=ORIENTED_EDGE('',*,*,#609,.F.);
#863=ORIENTED_EDGE('',*,*,#642,.F.);
#864=ORIENTED_EDGE('',*,*,#539,.T.);
#865=ORIENTED_EDGE('',*,*,#637,.T.);
#866=ORIENTED_EDGE('',*,*,#618,.F.);
#867=ORIENTED_EDGE('',*,*,#644,.F.);
#868=ORIENTED_EDGE('',*,*,#622,.F.);
#869=ORIENTED_EDGE('',*,*,#645,.T.);
#870=ORIENTED_EDGE('',*,*,#610,.F.);
#871=ORIENTED_EDGE('',*,*,#643,.F.);
#872=ORIENTED_EDGE('',*,*,#621,.T.);
#873=ORIENTED_EDGE('',*,*,#646,.T.);
#874=ORIENTED_EDGE('',*,*,#611,.F.);
#875=ORIENTED_EDGE('',*,*,#645,.F.);
#876=ORIENTED_EDGE('',*,*,#624,.T.);
#877=ORIENTED_EDGE('',*,*,#647,.T.);
#878=ORIENTED_EDGE('',*,*,#612,.F.);
#879=ORIENTED_EDGE('',*,*,#646,.F.);
#880=ORIENTED_EDGE('',*,*,#620,.F.);
#881=ORIENTED_EDGE('',*,*,#648,.T.);
#882=ORIENTED_EDGE('',*,*,#616,.F.);
#883=ORIENTED_EDGE('',*,*,#602,.F.);
#884=ORIENTED_EDGE('',*,*,#628,.T.);
#885=ORIENTED_EDGE('',*,*,#649,.T.);
#886=ORIENTED_EDGE('',*,*,#613,.F.);
#887=ORIENTED_EDGE('',*,*,#647,.F.);
#888=ORIENTED_EDGE('',*,*,#623,.T.);
#889=ORIENTED_EDGE('',*,*,#644,.T.);
#890=ORIENTED_EDGE('',*,*,#617,.F.);
#891=ORIENTED_EDGE('',*,*,#648,.F.);
#892=ORIENTED_EDGE('',*,*,#625,.T.);
#893=ORIENTED_EDGE('',*,*,#600,.T.);
#894=ORIENTED_EDGE('',*,*,#597,.F.);
#895=ORIENTED_EDGE('',*,*,#639,.F.);
#896=ORIENTED_EDGE('',*,*,#604,.F.);
#897=ORIENTED_EDGE('',*,*,#650,.F.);
#898=ORIENTED_EDGE('',*,*,#626,.T.);
#899=ORIENTED_EDGE('',*,*,#650,.T.);
#900=ORIENTED_EDGE('',*,*,#615,.F.);
#901=ORIENTED_EDGE('',*,*,#651,.F.);
#902=ORIENTED_EDGE('',*,*,#627,.T.);
#903=ORIENTED_EDGE('',*,*,#651,.T.);
#904=ORIENTED_EDGE('',*,*,#614,.F.);
#905=ORIENTED_EDGE('',*,*,#649,.F.);
#906=ORIENTED_EDGE('',*,*,#636,.F.);
#907=ORIENTED_EDGE('',*,*,#629,.F.);
#908=ORIENTED_EDGE('',*,*,#632,.F.);
#909=ORIENTED_EDGE('',*,*,#634,.F.);
#910=ORIENTED_EDGE('',*,*,#552,.F.);
#911=ORIENTED_EDGE('',*,*,#556,.F.);
#912=ORIENTED_EDGE('',*,*,#564,.F.);
#913=ORIENTED_EDGE('',*,*,#560,.F.);
#914=ORIENTED_EDGE('',*,*,#576,.F.);
#915=ORIENTED_EDGE('',*,*,#548,.F.);
#916=ORIENTED_EDGE('',*,*,#572,.F.);
#917=ORIENTED_EDGE('',*,*,#568,.F.);
#918=CONICAL_SURFACE('',#990,2.5,0.785398163397448);
#919=CONICAL_SURFACE('',#1003,2.5,0.785398163397448);
#920=CONICAL_SURFACE('',#1007,2.5,0.785398163397446);
#921=CONICAL_SURFACE('',#1011,2.5,0.785398163397446);
#922=CONICAL_SURFACE('',#1015,2.5,0.785398163397448);
#923=CONICAL_SURFACE('',#1019,2.5,0.785398163397448);
#924=CONICAL_SURFACE('',#1023,2.5,0.785398163397446);
#925=CONICAL_SURFACE('',#1027,2.5,0.785398163397446);
#926=ADVANCED_FACE('',(#74),#918,.F.);
#927=ADVANCED_FACE('',(#75,#23,#24,#25,#26,#27,#28,#29,#30,#31),#40,.T.);
#928=ADVANCED_FACE('',(#76),#15,.F.);
#929=ADVANCED_FACE('',(#77),#919,.F.);
#930=ADVANCED_FACE('',(#78),#16,.F.);
#931=ADVANCED_FACE('',(#79),#920,.F.);
#932=ADVANCED_FACE('',(#80),#17,.F.);
#933=ADVANCED_FACE('',(#81),#921,.F.);
#934=ADVANCED_FACE('',(#82),#18,.F.);
#935=ADVANCED_FACE('',(#83),#922,.F.);
#936=ADVANCED_FACE('',(#84),#19,.F.);
#937=ADVANCED_FACE('',(#85),#923,.F.);
#938=ADVANCED_FACE('',(#86),#20,.F.);
#939=ADVANCED_FACE('',(#87),#924,.F.);
#940=ADVANCED_FACE('',(#88),#21,.F.);
#941=ADVANCED_FACE('',(#89),#925,.F.);
#942=ADVANCED_FACE('',(#90),#22,.F.);
#943=ADVANCED_FACE('',(#91),#41,.T.);
#944=ADVANCED_FACE('',(#92),#42,.T.);
#945=ADVANCED_FACE('',(#93),#43,.T.);
#946=ADVANCED_FACE('',(#94),#44,.T.);
#947=ADVANCED_FACE('',(#95),#45,.T.);
#948=ADVANCED_FACE('',(#96),#46,.T.);
#949=ADVANCED_FACE('',(#97),#47,.T.);
#950=ADVANCED_FACE('',(#98),#48,.T.);
#951=ADVANCED_FACE('',(#99),#49,.F.);
#952=ADVANCED_FACE('',(#100),#50,.T.);
#953=ADVANCED_FACE('',(#101),#51,.T.);
#954=ADVANCED_FACE('',(#102),#52,.T.);
#955=ADVANCED_FACE('',(#103),#53,.T.);
#956=ADVANCED_FACE('',(#104),#54,.T.);
#957=ADVANCED_FACE('',(#105),#55,.T.);
#958=ADVANCED_FACE('',(#106),#56,.T.);
#959=ADVANCED_FACE('',(#107),#57,.T.);
#960=ADVANCED_FACE('',(#108),#58,.T.);
#961=ADVANCED_FACE('',(#109),#59,.T.);
#962=ADVANCED_FACE('',(#110),#60,.T.);
#963=ADVANCED_FACE('',(#111),#61,.T.);
#964=ADVANCED_FACE('',(#112),#62,.T.);
#965=ADVANCED_FACE('',(#113),#63,.T.);
#966=ADVANCED_FACE('',(#114),#64,.T.);
#967=ADVANCED_FACE('',(#115),#65,.T.);
#968=ADVANCED_FACE('',(#116),#66,.T.);
#969=ADVANCED_FACE('',(#117),#67,.T.);
#970=ADVANCED_FACE('',(#118),#68,.T.);
#971=ADVANCED_FACE('',(#119),#69,.T.);
#972=ADVANCED_FACE('',(#120),#70,.T.);
#973=ADVANCED_FACE('',(#121),#71,.T.);
#974=ADVANCED_FACE('',(#122),#72,.T.);
#975=ADVANCED_FACE('',(#123,#32,#33,#34,#35,#36,#37,#38,#39),#73,.F.);
#976=CLOSED_SHELL('',(#926,#927,#928,#929,#930,#931,#932,#933,#934,#935,
#936,#937,#938,#939,#940,#941,#942,#943,#944,#945,#946,#947,#948,#949,#950,
#951,#952,#953,#954,#955,#956,#957,#958,#959,#960,#961,#962,#963,#964,#965,
#966,#967,#968,#969,#970,#971,#972,#973,#974,#975));
#977=DERIVED_UNIT_ELEMENT(#979,1.);
#978=DERIVED_UNIT_ELEMENT(#1598,-3.);
#979=(
MASS_UNIT()
NAMED_UNIT(*)
SI_UNIT(.KILO.,.GRAM.)
);
#980=DERIVED_UNIT((#977,#978));
#981=MEASURE_REPRESENTATION_ITEM('density measure',
POSITIVE_RATIO_MEASURE(1420.),#980);
#982=PROPERTY_DEFINITION_REPRESENTATION(#987,#984);
#983=PROPERTY_DEFINITION_REPRESENTATION(#988,#985);
#984=REPRESENTATION('material name',(#986),#1595);
#985=REPRESENTATION('density',(#981),#1595);
#986=DESCRIPTIVE_REPRESENTATION_ITEM('PET','PET');
#987=PROPERTY_DEFINITION('material property','material name',#1605);
#988=PROPERTY_DEFINITION('material property','density of part',#1605);
#989=AXIS2_PLACEMENT_3D('',#1323,#1064,#1065);
#990=AXIS2_PLACEMENT_3D('',#1324,#1066,#1067);
#991=AXIS2_PLACEMENT_3D('',#1326,#1068,#1069);
#992=AXIS2_PLACEMENT_3D('',#1329,#1071,#1072);
#993=AXIS2_PLACEMENT_3D('',#1330,#1073,#1074);
#994=AXIS2_PLACEMENT_3D('',#1340,#1079,#1080);
#995=AXIS2_PLACEMENT_3D('',#1342,#1081,#1082);
#996=AXIS2_PLACEMENT_3D('',#1344,#1083,#1084);
#997=AXIS2_PLACEMENT_3D('',#1346,#1085,#1086);
#998=AXIS2_PLACEMENT_3D('',#1376,#1101,#1102);
#999=AXIS2_PLACEMENT_3D('',#1378,#1103,#1104);
#1000=AXIS2_PLACEMENT_3D('',#1380,#1105,#1106);
#1001=AXIS2_PLACEMENT_3D('',#1381,#1107,#1108);
#1002=AXIS2_PLACEMENT_3D('',#1384,#1110,#1111);
#1003=AXIS2_PLACEMENT_3D('',#1385,#1112,#1113);
#1004=AXIS2_PLACEMENT_3D('',#1388,#1115,#1116);
#1005=AXIS2_PLACEMENT_3D('',#1389,#1117,#1118);
#1006=AXIS2_PLACEMENT_3D('',#1392,#1120,#1121);
#1007=AXIS2_PLACEMENT_3D('',#1393,#1122,#1123);
#1008=AXIS2_PLACEMENT_3D('',#1396,#1125,#1126);
#1009=AXIS2_PLACEMENT_3D('',#1397,#1127,#1128);
#1010=AXIS2_PLACEMENT_3D('',#1400,#1130,#1131);
#1011=AXIS2_PLACEMENT_3D('',#1401,#1132,#1133);
#1012=AXIS2_PLACEMENT_3D('',#1404,#1135,#1136);
#1013=AXIS2_PLACEMENT_3D('',#1405,#1137,#1138);
#1014=AXIS2_PLACEMENT_3D('',#1408,#1140,#1141);
#1015=AXIS2_PLACEMENT_3D('',#1409,#1142,#1143);
#1016=AXIS2_PLACEMENT_3D('',#1412,#1145,#1146);
#1017=AXIS2_PLACEMENT_3D('',#1413,#1147,#1148);
#1018=AXIS2_PLACEMENT_3D('',#1416,#1150,#1151);
#1019=AXIS2_PLACEMENT_3D('',#1417,#1152,#1153);
#1020=AXIS2_PLACEMENT_3D('',#1420,#1155,#1156);
#1021=AXIS2_PLACEMENT_3D('',#1421,#1157,#1158);
#1022=AXIS2_PLACEMENT_3D('',#1424,#1160,#1161);
#1023=AXIS2_PLACEMENT_3D('',#1425,#1162,#1163);
#1024=AXIS2_PLACEMENT_3D('',#1428,#1165,#1166);
#1025=AXIS2_PLACEMENT_3D('',#1429,#1167,#1168);
#1026=AXIS2_PLACEMENT_3D('',#1432,#1170,#1171);
#1027=AXIS2_PLACEMENT_3D('',#1433,#1172,#1173);
#1028=AXIS2_PLACEMENT_3D('',#1436,#1175,#1176);
#1029=AXIS2_PLACEMENT_3D('',#1437,#1177,#1178);
#1030=AXIS2_PLACEMENT_3D('',#1440,#1180,#1181);
#1031=AXIS2_PLACEMENT_3D('',#1441,#1182,#1183);
#1032=AXIS2_PLACEMENT_3D('',#1447,#1187,#1188);
#1033=AXIS2_PLACEMENT_3D('',#1453,#1192,#1193);
#1034=AXIS2_PLACEMENT_3D('',#1457,#1196,#1197);
#1035=AXIS2_PLACEMENT_3D('',#1461,#1200,#1201);
#1036=AXIS2_PLACEMENT_3D('',#1465,#1204,#1205);
#1037=AXIS2_PLACEMENT_3D('',#1469,#1208,#1209);
#1038=AXIS2_PLACEMENT_3D('',#1471,#1211,#1212);
#1039=AXIS2_PLACEMENT_3D('',#1473,#1214,#1215);
#1040=AXIS2_PLACEMENT_3D('',#1482,#1220,#1221);
#1041=AXIS2_PLACEMENT_3D('',#1488,#1225,#1226);
#1042=AXIS2_PLACEMENT_3D('',#1496,#1231,#1232);
#1043=AXIS2_PLACEMENT_3D('',#1521,#1245,#1246);
#1044=AXIS2_PLACEMENT_3D('',#1529,#1251,#1252);
#1045=AXIS2_PLACEMENT_3D('',#1538,#1257,#1258);
#1046=AXIS2_PLACEMENT_3D('',#1548,#1264,#1265);
#1047=AXIS2_PLACEMENT_3D('',#1554,#1269,#1270);
#1048=AXIS2_PLACEMENT_3D('',#1558,#1273,#1274);
#1049=AXIS2_PLACEMENT_3D('',#1562,#1277,#1278);
#1050=AXIS2_PLACEMENT_3D('',#1564,#1280,#1281);
#1051=AXIS2_PLACEMENT_3D('',#1568,#1285,#1286);
#1052=AXIS2_PLACEMENT_3D('',#1570,#1288,#1289);
#1053=AXIS2_PLACEMENT_3D('',#1572,#1291,#1292);
#1054=AXIS2_PLACEMENT_3D('',#1574,#1294,#1295);
#1055=AXIS2_PLACEMENT_3D('',#1576,#1297,#1298);
#1056=AXIS2_PLACEMENT_3D('',#1579,#1301,#1302);
#1057=AXIS2_PLACEMENT_3D('',#1581,#1304,#1305);
#1058=AXIS2_PLACEMENT_3D('',#1584,#1308,#1309);
#1059=AXIS2_PLACEMENT_3D('',#1586,#1311,#1312);
#1060=AXIS2_PLACEMENT_3D('',#1587,#1313,#1314);
#1061=AXIS2_PLACEMENT_3D('',#1589,#1316,#1317);
#1062=AXIS2_PLACEMENT_3D('',#1591,#1319,#1320);
#1063=AXIS2_PLACEMENT_3D('',#1592,#1321,#1322);
#1064=DIRECTION('axis',(0.,0.,1.));
#1065=DIRECTION('refdir',(1.,0.,0.));
#1066=DIRECTION('center_axis',(0.,1.,0.));
#1067=DIRECTION('ref_axis',(-1.,-1.49388425896088E-221,2.73132595136726E-158));
#1068=DIRECTION('center_axis',(0.,1.,9.11574503592941E-64));
#1069=DIRECTION('ref_axis',(-1.,-2.48980709826813E-221,2.73132595136726E-158));
#1070=DIRECTION('',(-0.707106781186548,-0.707106781186548,8.65956056235493E-17));
#1071=DIRECTION('center_axis',(0.,-1.,-9.11574503592941E-64));
#1072=DIRECTION('ref_axis',(-1.,0.,2.73132595136726E-158));
#1073=DIRECTION('center_axis',(0.,1.,9.11574503592941E-64));
#1074=DIRECTION('ref_axis',(-1.,0.,0.));
#1075=DIRECTION('',(0.,-9.11574503592941E-64,1.));
#1076=DIRECTION('',(1.,-1.11635679800943E-79,1.22464679914735E-16));
#1077=DIRECTION('',(4.61391386857208E-16,9.11574503592941E-64,-1.));
#1078=DIRECTION('',(-1.,-1.20024110770287E-16,-1.09410919194609E-79));
#1079=DIRECTION('center_axis',(0.,1.,9.11574503592941E-64));
#1080=DIRECTION('ref_axis',(-1.,-3.04153992791687E-238,3.33657854177442E-175));
#1081=DIRECTION('center_axis',(0.,1.,9.11574503592941E-64));
#1082=DIRECTION('ref_axis',(-1.,-2.48980709826813E-221,2.73132595136727E-158));
#1083=DIRECTION('center_axis',(0.,1.,9.11574503592941E-64));
#1084=DIRECTION('ref_axis',(-1.,-7.6038498197916E-239,8.34144635443541E-176));
#1085=DIRECTION('center_axis',(0.,1.,9.11574503592941E-64));
#1086=DIRECTION('ref_axis',(-1.,-7.60384981979216E-239,8.34144635443602E-176));
#1087=DIRECTION('',(1.,0.,0.));
#1088=DIRECTION('',(0.,-9.11574503592941E-64,1.));
#1089=DIRECTION('',(-1.,-8.19397785410182E-157,8.98881860100905E-94));
#1090=DIRECTION('',(7.50695605888297E-45,9.11574503592941E-64,-1.));
#1091=DIRECTION('',(1.,1.5026947365793E-140,-1.64846069153589E-77));
#1092=DIRECTION('',(7.84859623753291E-30,9.11574503592941E-64,-1.));
#1093=DIRECTION('',(-1.,-2.57006528018901E-140,2.81936942077601E-77));
#1094=DIRECTION('',(2.57591629471473E-46,9.11574503592941E-64,-1.));
#1095=DIRECTION('',(1.,1.91473237335711E-92,-2.10046723093972E-29));
#1096=DIRECTION('',(-1.57535042320479E-29,-9.11574503592941E-64,1.));
#1097=DIRECTION('',(-1.,8.05316743340696E-93,-8.83434914169459E-30));
#1098=DIRECTION('',(1.14841073116302E-29,-9.11574503592941E-64,1.));
#1099=DIRECTION('',(-1.,0.,0.));
#1100=DIRECTION('',(2.57591629471473E-46,9.11574503592941E-64,-1.));
#1101=DIRECTION('center_axis',(0.,1.,9.11574503592941E-64));
#1102=DIRECTION('ref_axis',(-1.,-7.60384981979203E-239,8.34144635443588E-176));
#1103=DIRECTION('center_axis',(0.,1.,9.11574503592941E-64));
#1104=DIRECTION('ref_axis',(-1.,-7.6038498197915E-239,8.3414463544353E-176));
#1105=DIRECTION('center_axis',(0.,1.,9.11574503592941E-64));
#1106=DIRECTION('ref_axis',(-1.,0.,0.));
#1107=DIRECTION('center_axis',(0.,1.,0.));
#1108=DIRECTION('ref_axis',(-1.,0.,2.73132595136726E-158));
#1109=DIRECTION('',(0.,-1.,0.));
#1110=DIRECTION('center_axis',(-2.99627286700301E-95,-1.,-9.11574503592941E-64));
#1111=DIRECTION('ref_axis',(-1.,2.99627286700301E-95,2.73132595136726E-158));
#1112=DIRECTION('center_axis',(0.,1.,0.));
#1113=DIRECTION('ref_axis',(-1.,-1.82492395675012E-238,3.33657854177442E-175));
#1114=DIRECTION('',(-0.707106781186548,-0.707106781186548,8.65956056235493E-17));
#1115=DIRECTION('center_axis',(0.,-1.,-9.11574503592941E-64));
#1116=DIRECTION('ref_axis',(-1.,0.,3.33657854177442E-175));
#1117=DIRECTION('center_axis',(0.,1.,0.));
#1118=DIRECTION('ref_axis',(-1.,0.,3.33657854177442E-175));
#1119=DIRECTION('',(0.,-1.,0.));
#1120=DIRECTION('center_axis',(-3.66023679756663E-112,-1.,-9.11574503592941E-64));
#1121=DIRECTION('ref_axis',(-1.,3.66023679756663E-112,3.33657854177442E-175));
#1122=DIRECTION('center_axis',(0.,1.,0.));
#1123=DIRECTION('ref_axis',(-1.,0.,0.));
#1124=DIRECTION('',(-0.707106781186546,-0.707106781186549,8.65956056235491E-17));
#1125=DIRECTION('center_axis',(0.,-1.,-9.11574503592941E-64));
#1126=DIRECTION('ref_axis',(-1.,0.,0.));
#1127=DIRECTION('center_axis',(0.,1.,0.));
#1128=DIRECTION('ref_axis',(-1.,0.,0.));
#1129=DIRECTION('',(0.,-1.,0.));
#1130=DIRECTION('center_axis',(0.,-1.,-9.11574503592941E-64));
#1131=DIRECTION('ref_axis',(-1.,0.,0.));
#1132=DIRECTION('center_axis',(0.,1.,0.));
#1133=DIRECTION('ref_axis',(-1.,-1.49388425896088E-221,2.73132595136727E-158));
#1134=DIRECTION('',(-0.707106781186546,-0.707106781186549,8.65956056235491E-17));
#1135=DIRECTION('center_axis',(0.,-1.,-9.11574503592941E-64));
#1136=DIRECTION('ref_axis',(-1.,0.,2.73132595136727E-158));
#1137=DIRECTION('center_axis',(0.,1.,0.));
#1138=DIRECTION('ref_axis',(-1.,0.,2.73132595136727E-158));
#1139=DIRECTION('',(0.,-1.,0.));
#1140=DIRECTION('center_axis',(-2.99627286700301E-95,-1.,-9.11574503592941E-64));
#1141=DIRECTION('ref_axis',(-1.,2.99627286700301E-95,2.73132595136727E-158));
#1142=DIRECTION('center_axis',(0.,1.,0.));
#1143=DIRECTION('ref_axis',(-1.,-4.5623098918749E-239,8.3414463544353E-176));
#1144=DIRECTION('',(-0.707106781186548,-0.707106781186548,8.65956056235493E-17));
#1145=DIRECTION('center_axis',(0.,-1.,-9.11574503592941E-64));
#1146=DIRECTION('ref_axis',(-1.,0.,8.3414463544353E-176));
#1147=DIRECTION('center_axis',(0.,1.,0.));
#1148=DIRECTION('ref_axis',(-1.,0.,8.3414463544353E-176));
#1149=DIRECTION('',(0.,-1.,0.));
#1150=DIRECTION('center_axis',(-9.15059199391575E-113,-1.,-9.11574503592941E-64));
#1151=DIRECTION('ref_axis',(-1.,9.15059199391576E-113,8.3414463544353E-176));
#1152=DIRECTION('center_axis',(0.,1.,0.));
#1153=DIRECTION('ref_axis',(-1.,-4.56230989187496E-239,8.34144635443541E-176));
#1154=DIRECTION('',(-0.707106781186548,-0.707106781186548,8.65956056235493E-17));
#1155=DIRECTION('center_axis',(0.,-1.,-9.11574503592941E-64));
#1156=DIRECTION('ref_axis',(-1.,0.,8.34144635443541E-176));
#1157=DIRECTION('center_axis',(0.,1.,0.));
#1158=DIRECTION('ref_axis',(-1.,0.,8.34144635443541E-176));
#1159=DIRECTION('',(0.,-1.,0.));
#1160=DIRECTION('center_axis',(-9.15059199391588E-113,-1.,-9.11574503592941E-64));
#1161=DIRECTION('ref_axis',(-1.,9.15059199391588E-113,8.34144635443541E-176));
#1162=DIRECTION('center_axis',(0.,1.,0.));
#1163=DIRECTION('ref_axis',(-1.,-4.56230989187521E-239,8.34144635443588E-176));
#1164=DIRECTION('',(-0.707106781186546,-0.707106781186549,8.65956056235491E-17));
#1165=DIRECTION('center_axis',(0.,-1.,-9.11574503592941E-64));
#1166=DIRECTION('ref_axis',(-1.,0.,8.34144635443588E-176));
#1167=DIRECTION('center_axis',(0.,1.,0.));
#1168=DIRECTION('ref_axis',(-1.,0.,8.34144635443588E-176));
#1169=DIRECTION('',(0.,-1.,0.));
#1170=DIRECTION('center_axis',(-9.15059199391641E-113,-1.,-9.11574503592941E-64));
#1171=DIRECTION('ref_axis',(-1.,9.1505919939164E-113,8.34144635443588E-176));
#1172=DIRECTION('center_axis',(0.,1.,0.));
#1173=DIRECTION('ref_axis',(-1.,-4.56230989187529E-239,8.34144635443602E-176));
#1174=DIRECTION('',(-0.707106781186546,-0.707106781186549,8.65956056235491E-17));
#1175=DIRECTION('center_axis',(0.,-1.,-9.11574503592941E-64));
#1176=DIRECTION('ref_axis',(-1.,0.,8.34144635443602E-176));
#1177=DIRECTION('center_axis',(0.,1.,0.));
#1178=DIRECTION('ref_axis',(-1.,0.,8.34144635443602E-176));
#1179=DIRECTION('',(0.,-1.,0.));
#1180=DIRECTION('center_axis',(-9.15059199391657E-113,-1.,-9.11574503592941E-64));
#1181=DIRECTION('ref_axis',(-1.,9.15059199391656E-113,8.34144635443602E-176));
#1182=DIRECTION('center_axis',(0.,0.,-1.));
#1183=DIRECTION('ref_axis',(-1.,0.,0.));
#1184=DIRECTION('',(2.22044604925031E-15,-1.,0.));
#1185=DIRECTION('',(-1.,0.,0.));
#1186=DIRECTION('',(7.61295788314393E-15,1.,0.));
#1187=DIRECTION('center_axis',(2.81936942077601E-77,-2.14637406573916E-91,
1.));
#1188=DIRECTION('ref_axis',(1.,-3.09285682043931E-14,-2.81936942077601E-77));
#1189=DIRECTION('',(7.61295788314393E-15,1.,0.));
#1190=DIRECTION('',(1.,-3.09285682043931E-14,-2.81936942077601E-77));
#1191=DIRECTION('',(-2.22044604925031E-15,1.,2.77239983491309E-91));
#1192=DIRECTION('center_axis',(-1.,7.61295788314393E-15,-7.84859623753291E-30));
#1193=DIRECTION('ref_axis',(0.,1.03095227347976E-15,1.));
#1194=DIRECTION('',(7.61295788314393E-15,1.,0.));
#1195=DIRECTION('',(0.,1.03095227347976E-15,1.));
#1196=DIRECTION('center_axis',(1.,-7.61295788314393E-15,-6.93977830320089E-78));
#1197=DIRECTION('ref_axis',(0.,9.11574503592941E-64,-1.));
#1198=DIRECTION('',(0.,9.11574503592941E-64,-1.));
#1199=DIRECTION('',(7.61295788314393E-15,1.,0.));
#1200=DIRECTION('center_axis',(8.98881860100905E-94,-6.84314974287026E-108,
1.));
#1201=DIRECTION('ref_axis',(1.,-9.86076131526268E-31,-8.98881860100905E-94));
#1202=DIRECTION('',(1.,-9.86076131526268E-31,-8.98881860100905E-94));
#1203=DIRECTION('',(7.61295788314393E-15,1.,0.));
#1204=DIRECTION('center_axis',(-1.,7.61295788314393E-15,-7.50695605888297E-45));
#1205=DIRECTION('ref_axis',(0.,9.86076131526268E-31,1.));
#1206=DIRECTION('',(0.,9.86076131526268E-31,1.));
#1207=DIRECTION('',(7.61295788314393E-15,1.,0.));
#1208=DIRECTION('center_axis',(-1.64846069153589E-77,1.2549661816681E-91,
-1.));
#1209=DIRECTION('ref_axis',(-1.,1.80836638699144E-14,1.64846069153589E-77));
#1210=DIRECTION('',(-1.,1.80836638699144E-14,1.64846069153589E-77));
#1211=DIRECTION('center_axis',(7.61295788314393E-15,1.,0.));
#1212=DIRECTION('ref_axis',(0.,0.,1.));
#1213=DIRECTION('',(2.57591629471473E-46,-1.96103422621674E-60,-1.));
#1214=DIRECTION('center_axis',(-1.,-1.67767034832246E-14,-1.52932151496464E-77));
#1215=DIRECTION('ref_axis',(0.,-9.11574503592941E-64,1.));
#1216=DIRECTION('',(0.,-9.11574503592941E-64,1.));
#1217=DIRECTION('',(1.67767034832246E-14,-1.,-1.48029736616688E-15));
#1218=DIRECTION('',(-2.483450997918E-29,1.48029736616688E-15,-1.));
#1219=DIRECTION('',(-1.67767034832246E-14,1.,1.48029736616688E-15));
#1220=DIRECTION('center_axis',(-1.6879670143038E-14,1.,9.11574503592941E-64));
#1221=DIRECTION('ref_axis',(-1.,-1.6879670143038E-14,-1.53870769314525E-77));
#1222=DIRECTION('',(0.,1.6879670143038E-14,-1.));
#1223=DIRECTION('',(1.,1.6879670143038E-14,2.13036750597458E-29));
#1224=DIRECTION('',(-1.,-1.6879670143038E-14,-3.98225894510768E-30));
#1225=DIRECTION('center_axis',(-3.68325619475903E-30,1.48029736616688E-15,
-1.));
#1226=DIRECTION('ref_axis',(-1.,-2.48818668393403E-15,-2.26816754125372E-78));
#1227=DIRECTION('',(-2.22044604925031E-15,1.,1.48029736616688E-15));
#1228=DIRECTION('',(-1.,-3.35756243734309E-93,3.68325619475903E-30));
#1229=DIRECTION('',(-2.22044604925031E-15,1.,1.48029736616688E-15));
#1230=DIRECTION('',(-1.,-2.48818668393403E-15,-2.26816754125372E-78));
#1231=DIRECTION('center_axis',(-2.22044604925031E-15,1.,1.48029736616688E-15));
#1232=DIRECTION('ref_axis',(0.,-1.48029736616688E-15,1.));
#1233=DIRECTION('',(0.,1.81019374932692E-14,1.));
#1234=DIRECTION('',(1.,1.41894951578461E-14,1.2934782004748E-77));
#1235=DIRECTION('',(0.,1.16008956650149E-31,-1.));
#1236=DIRECTION('',(-1.,0.,0.));
#1237=DIRECTION('',(0.,5.17198214093407E-15,1.));
#1238=DIRECTION('',(-1.,5.96795572538949E-15,5.44023627783657E-78));
#1239=DIRECTION('',(0.,-7.20058070302407E-15,1.));
#1240=DIRECTION('',(1.,0.,0.));
#1241=DIRECTION('',(0.,9.11574503592941E-64,-1.));
#1242=DIRECTION('',(1.,-7.75797321140112E-15,-7.07197057907031E-78));
#1243=DIRECTION('',(0.,9.11574503592941E-64,-1.));
#1244=DIRECTION('',(1.,0.,0.));
#1245=DIRECTION('center_axis',(-2.22044604925031E-15,1.,1.48029736616688E-15));
#1246=DIRECTION('ref_axis',(0.,-1.48029736616688E-15,1.));
#1247=DIRECTION('',(0.,9.11574503592941E-64,-1.));
#1248=DIRECTION('',(-1.,0.,0.));
#1249=DIRECTION('',(0.,-7.09474757892303E-15,1.));
#1250=DIRECTION('',(1.,1.41894951578461E-14,1.2934782004748E-77));
#1251=DIRECTION('center_axis',(0.,1.,0.));
#1252=DIRECTION('ref_axis',(0.,0.,1.));
#1253=DIRECTION('',(0.,1.49291201036041E-15,-1.));
#1254=DIRECTION('',(1.,0.,0.));
#1255=DIRECTION('',(0.,-1.59767776547343E-15,1.));
#1256=DIRECTION('',(-1.,0.,0.));
#1257=DIRECTION('center_axis',(0.,1.,9.11574503592941E-64));
#1258=DIRECTION('ref_axis',(-1.,0.,0.));
#1259=DIRECTION('',(0.,9.11574503592941E-64,-1.));
#1260=DIRECTION('',(4.01943755907058E-29,-9.11574503592941E-64,1.));
#1261=DIRECTION('',(1.,0.,0.));
#1262=DIRECTION('',(0.,9.11574503592941E-64,-1.));
#1263=DIRECTION('',(1.,-1.04686194218074E-92,1.14841073116303E-29));
#1264=DIRECTION('center_axis',(1.09410919194609E-79,0.,-1.));
#1265=DIRECTION('ref_axis',(-1.,-1.20024110770287E-16,-1.09410919194609E-79));
#1266=DIRECTION('',(-1.,-1.20024110770287E-16,-1.09410919194609E-79));
#1267=DIRECTION('',(0.,1.,0.));
#1268=DIRECTION('',(0.,1.,0.));
#1269=DIRECTION('center_axis',(1.,0.,4.61391386857208E-16));
#1270=DIRECTION('ref_axis',(4.61391386857208E-16,9.11574503592941E-64,-1.));
#1271=DIRECTION('',(4.61391386857208E-16,9.11574503592941E-64,-1.));
#1272=DIRECTION('',(0.,1.,0.));
#1273=DIRECTION('center_axis',(-1.22464679914735E-16,0.,1.));
#1274=DIRECTION('ref_axis',(1.,-1.11635679800943E-79,1.22464679914735E-16));
#1275=DIRECTION('',(1.,-1.11635679800943E-79,1.22464679914735E-16));
#1276=DIRECTION('',(0.,1.,0.));
#1277=DIRECTION('center_axis',(-1.,0.,0.));
#1278=DIRECTION('ref_axis',(0.,-9.11574503592941E-64,1.));
#1279=DIRECTION('',(0.,-9.11574503592941E-64,1.));
#1280=DIRECTION('center_axis',(2.10046723093972E-29,-1.48029736616688E-15,
1.));
#1281=DIRECTION('ref_axis',(1.,1.41894951578461E-14,1.2934782004748E-77));
#1282=DIRECTION('',(-2.22044604925031E-15,1.,1.48029736616688E-15));
#1283=DIRECTION('',(-2.22044604925031E-15,1.,1.48029736616688E-15));
#1284=DIRECTION('',(1.67767034832246E-14,-1.,-1.48029736616688E-15));
#1285=DIRECTION('center_axis',(1.,2.22044604925031E-15,2.57591629471473E-46));
#1286=DIRECTION('ref_axis',(0.,1.16008956650149E-31,-1.));
#1287=DIRECTION('',(-2.22044604925031E-15,1.,1.48029736616688E-15));
#1288=DIRECTION('center_axis',(0.,1.48029736616688E-15,-1.));
#1289=DIRECTION('ref_axis',(-1.,0.,0.));
#1290=DIRECTION('',(-2.22044604925031E-15,1.,1.48029736616688E-15));
#1291=DIRECTION('center_axis',(-1.,-2.22044604925031E-15,1.14841073116302E-29));
#1292=DIRECTION('ref_axis',(0.,5.17198214093407E-15,1.));
#1293=DIRECTION('',(-2.22044604925031E-15,1.,1.48029736616688E-15));
#1294=DIRECTION('center_axis',(8.83434914169459E-30,1.48029736616688E-15,
-1.));
#1295=DIRECTION('ref_axis',(-1.,5.96795572538949E-15,5.44023627783657E-78));
#1296=DIRECTION('',(-2.22044604925031E-15,1.,1.48029736616688E-15));
#1297=DIRECTION('center_axis',(-1.,-2.22044604925031E-15,-1.59885009743378E-29));
#1298=DIRECTION('ref_axis',(0.,-7.20058070302407E-15,1.));
#1299=DIRECTION('',(-2.22044604925031E-15,1.,1.48029736616688E-15));
#1300=DIRECTION('',(-2.22044604925031E-15,1.,1.48029736616688E-15));
#1301=DIRECTION('center_axis',(0.,-1.48029736616688E-15,1.));
#1302=DIRECTION('ref_axis',(1.,0.,0.));
#1303=DIRECTION('',(-2.22044604925031E-15,1.,1.48029736616688E-15));
#1304=DIRECTION('center_axis',(1.,2.22044604925031E-15,2.02410200510026E-78));
#1305=DIRECTION('ref_axis',(0.,9.11574503592941E-64,-1.));
#1306=DIRECTION('',(-2.22044604925031E-15,1.,1.48029736616688E-15));
#1307=DIRECTION('',(-2.22044604925031E-15,1.,1.48029736616688E-15));
#1308=DIRECTION('center_axis',(-1.14841073116303E-29,-1.48029736616688E-15,
1.));
#1309=DIRECTION('ref_axis',(1.,-7.75797321140112E-15,-7.07197057907031E-78));
#1310=DIRECTION('',(-2.22044604925031E-15,1.,1.48029736616688E-15));
#1311=DIRECTION('center_axis',(0.,1.48029736616688E-15,-1.));
#1312=DIRECTION('ref_axis',(-1.,0.,0.));
#1313=DIRECTION('center_axis',(-1.,-2.22044604925031E-15,4.01943755907058E-29));
#1314=DIRECTION('ref_axis',(0.,1.81019374932692E-14,1.));
#1315=DIRECTION('',(-2.22044604925031E-15,1.,1.48029736616688E-15));
#1316=DIRECTION('center_axis',(0.,-1.48029736616688E-15,1.));
#1317=DIRECTION('ref_axis',(1.,0.,0.));
#1318=DIRECTION('',(-2.22044604925031E-15,1.,1.48029736616688E-15));
#1319=DIRECTION('center_axis',(1.,2.22044604925031E-15,2.02410200510026E-78));
#1320=DIRECTION('ref_axis',(0.,9.11574503592941E-64,-1.));
#1321=DIRECTION('center_axis',(-2.48818668393403E-15,1.,1.49291201036041E-15));
#1322=DIRECTION('ref_axis',(-1.,-2.48818668393403E-15,-2.26816754125372E-78));
#1323=CARTESIAN_POINT('',(0.,0.,0.));
#1324=CARTESIAN_POINT('Origin',(34.9926406871193,32.5,-138.25));
#1325=CARTESIAN_POINT('',(37.9926406871193,33.,-138.25));
#1326=CARTESIAN_POINT('Origin',(34.9926406871193,33.,-138.25));
#1327=CARTESIAN_POINT('',(36.9926406871193,32.,-138.25));
#1328=CARTESIAN_POINT('',(37.4926406871193,32.5,-138.25));
#1329=CARTESIAN_POINT('Origin',(34.9926406871193,32.,-138.25));
#1330=CARTESIAN_POINT('Origin',(42.4926406871193,33.,-75.));
#1331=CARTESIAN_POINT('',(23.9926406871193,33.,-150.));
#1332=CARTESIAN_POINT('',(23.9926406871193,33.,0.));
#1333=CARTESIAN_POINT('',(23.9926406871193,33.,-150.));
#1334=CARTESIAN_POINT('',(60.9926406871192,33.,1.77635683940025E-14));
#1335=CARTESIAN_POINT('',(23.9926406871193,33.,4.44089209850063E-15));
#1336=CARTESIAN_POINT('',(60.9926406871192,33.,-150.));
#1337=CARTESIAN_POINT('',(60.9926406871192,33.,8.97208525534582E-15));
#1338=CARTESIAN_POINT('',(60.9926406871192,33.,-150.));
#1339=CARTESIAN_POINT('',(37.9926406871193,33.,-123.25));
#1340=CARTESIAN_POINT('Origin',(34.9926406871193,33.,-123.25));
#1341=CARTESIAN_POINT('',(52.9926406871193,33.,-138.25));
#1342=CARTESIAN_POINT('Origin',(49.9926406871193,33.,-138.25));
#1343=CARTESIAN_POINT('',(37.9926406871193,33.,-26.75));
#1344=CARTESIAN_POINT('Origin',(34.9926406871193,33.,-26.75));
#1345=CARTESIAN_POINT('',(52.9926406871193,33.,-11.75));
#1346=CARTESIAN_POINT('Origin',(49.9926406871193,33.,-11.75));
#1347=CARTESIAN_POINT('',(48.9926406871193,33.,-73.5));
#1348=CARTESIAN_POINT('',(52.9926406871193,33.,-73.5));
#1349=CARTESIAN_POINT('',(47.7426406871193,33.,-73.5));
#1350=CARTESIAN_POINT('',(52.9926406871193,33.,-65.5));
#1351=CARTESIAN_POINT('',(52.9926406871193,33.,-70.25));
#1352=CARTESIAN_POINT('',(50.9926406871193,33.,-65.5));
#1353=CARTESIAN_POINT('',(46.7426406871193,33.,-65.5));
#1354=CARTESIAN_POINT('',(50.9926406871193,33.,-66.5));
#1355=CARTESIAN_POINT('',(50.9926406871193,33.,-70.75));
#1356=CARTESIAN_POINT('',(51.9926406871193,33.,-66.5));
#1357=CARTESIAN_POINT('',(47.2426406871193,33.,-66.5));
#1358=CARTESIAN_POINT('',(51.9926406871193,33.,-72.5));
#1359=CARTESIAN_POINT('',(51.9926406871193,33.,-73.75));
#1360=CARTESIAN_POINT('',(48.9926406871193,33.,-72.5));
#1361=CARTESIAN_POINT('',(45.7426406871193,33.,-72.5));
#1362=CARTESIAN_POINT('',(48.9926406871193,33.,-65.5));
#1363=CARTESIAN_POINT('',(48.9926406871193,33.,-70.25));
#1364=CARTESIAN_POINT('',(35.9926406871193,33.,-65.5));
#1365=CARTESIAN_POINT('',(39.2426406871193,33.,-65.5));
#1366=CARTESIAN_POINT('',(35.9926406871193,33.,-84.5));
#1367=CARTESIAN_POINT('',(35.9926406871193,33.,-72.25));
#1368=CARTESIAN_POINT('',(42.9926406871193,33.,-84.5));
#1369=CARTESIAN_POINT('',(42.7426406871193,33.,-84.5));
#1370=CARTESIAN_POINT('',(42.9926406871193,33.,-87.5));
#1371=CARTESIAN_POINT('',(42.9926406871193,33.,-81.25));
#1372=CARTESIAN_POINT('',(48.9926406871193,33.,-87.5));
#1373=CARTESIAN_POINT('',(45.7426406871193,33.,-87.5));
#1374=CARTESIAN_POINT('',(48.9926406871193,33.,-70.25));
#1375=CARTESIAN_POINT('',(52.9926406871193,33.,-26.75));
#1376=CARTESIAN_POINT('Origin',(49.9926406871193,33.,-26.75));
#1377=CARTESIAN_POINT('',(37.9926406871193,33.,-11.75));
#1378=CARTESIAN_POINT('Origin',(34.9926406871193,33.,-11.75));
#1379=CARTESIAN_POINT('',(52.9926406871193,33.,-123.25));
#1380=CARTESIAN_POINT('Origin',(49.9926406871193,33.,-123.25));
#1381=CARTESIAN_POINT('Origin',(34.9926406871193,31.,-138.25));
#1382=CARTESIAN_POINT('',(36.9926406871193,31.,-138.25));
#1383=CARTESIAN_POINT('',(36.9926406871193,31.,-138.25));
#1384=CARTESIAN_POINT('Origin',(34.9926406871193,31.,-138.25));
#1385=CARTESIAN_POINT('Origin',(34.9926406871193,32.5,-123.25));
#1386=CARTESIAN_POINT('',(36.9926406871193,32.,-123.25));
#1387=CARTESIAN_POINT('',(37.4926406871193,32.5,-123.25));
#1388=CARTESIAN_POINT('Origin',(34.9926406871193,32.,-123.25));
#1389=CARTESIAN_POINT('Origin',(34.9926406871193,31.,-123.25));
#1390=CARTESIAN_POINT('',(36.9926406871193,31.,-123.25));
#1391=CARTESIAN_POINT('',(36.9926406871193,31.,-123.25));
#1392=CARTESIAN_POINT('Origin',(34.9926406871193,31.,-123.25));
#1393=CARTESIAN_POINT('Origin',(49.9926406871193,32.5,-123.25));
#1394=CARTESIAN_POINT('',(51.9926406871193,32.,-123.25));
#1395=CARTESIAN_POINT('',(52.4926406871193,32.5,-123.25));
#1396=CARTESIAN_POINT('Origin',(49.9926406871193,32.,-123.25));
#1397=CARTESIAN_POINT('Origin',(49.9926406871193,31.,-123.25));
#1398=CARTESIAN_POINT('',(51.9926406871193,31.,-123.25));
#1399=CARTESIAN_POINT('',(51.9926406871193,31.,-123.25));
#1400=CARTESIAN_POINT('Origin',(49.9926406871193,31.,-123.25));
#1401=CARTESIAN_POINT('Origin',(49.9926406871193,32.5,-138.25));
#1402=CARTESIAN_POINT('',(51.9926406871193,32.,-138.25));
#1403=CARTESIAN_POINT('',(52.4926406871193,32.5,-138.25));
#1404=CARTESIAN_POINT('Origin',(49.9926406871193,32.,-138.25));
#1405=CARTESIAN_POINT('Origin',(49.9926406871193,31.,-138.25));
#1406=CARTESIAN_POINT('',(51.9926406871193,31.,-138.25));
#1407=CARTESIAN_POINT('',(51.9926406871193,31.,-138.25));
#1408=CARTESIAN_POINT('Origin',(49.9926406871193,31.,-138.25));
#1409=CARTESIAN_POINT('Origin',(34.9926406871193,32.5,-11.75));
#1410=CARTESIAN_POINT('',(36.9926406871193,32.,-11.75));
#1411=CARTESIAN_POINT('',(37.4926406871193,32.5,-11.75));
#1412=CARTESIAN_POINT('Origin',(34.9926406871193,32.,-11.75));
#1413=CARTESIAN_POINT('Origin',(34.9926406871193,31.,-11.75));
#1414=CARTESIAN_POINT('',(36.9926406871193,31.,-11.75));
#1415=CARTESIAN_POINT('',(36.9926406871193,31.,-11.75));
#1416=CARTESIAN_POINT('Origin',(34.9926406871193,31.,-11.75));
#1417=CARTESIAN_POINT('Origin',(34.9926406871193,32.5,-26.75));
#1418=CARTESIAN_POINT('',(36.9926406871193,32.,-26.75));
#1419=CARTESIAN_POINT('',(37.4926406871193,32.5,-26.75));
#1420=CARTESIAN_POINT('Origin',(34.9926406871193,32.,-26.75));
#1421=CARTESIAN_POINT('Origin',(34.9926406871193,31.,-26.75));
#1422=CARTESIAN_POINT('',(36.9926406871193,31.,-26.75));
#1423=CARTESIAN_POINT('',(36.9926406871193,31.,-26.75));
#1424=CARTESIAN_POINT('Origin',(34.9926406871193,31.,-26.75));
#1425=CARTESIAN_POINT('Origin',(49.9926406871193,32.5,-26.75));
#1426=CARTESIAN_POINT('',(51.9926406871193,32.,-26.75));
#1427=CARTESIAN_POINT('',(52.4926406871193,32.5,-26.75));
#1428=CARTESIAN_POINT('Origin',(49.9926406871193,32.,-26.75));
#1429=CARTESIAN_POINT('Origin',(49.9926406871193,31.,-26.75));
#1430=CARTESIAN_POINT('',(51.9926406871193,31.,-26.75));
#1431=CARTESIAN_POINT('',(51.9926406871193,31.,-26.75));
#1432=CARTESIAN_POINT('Origin',(49.9926406871193,31.,-26.75));
#1433=CARTESIAN_POINT('Origin',(49.9926406871193,32.5,-11.75));
#1434=CARTESIAN_POINT('',(51.9926406871193,32.,-11.75));
#1435=CARTESIAN_POINT('',(52.4926406871193,32.5,-11.75));
#1436=CARTESIAN_POINT('Origin',(49.9926406871193,32.,-11.75));
#1437=CARTESIAN_POINT('Origin',(49.9926406871193,31.,-11.75));
#1438=CARTESIAN_POINT('',(51.9926406871193,31.,-11.75));
#1439=CARTESIAN_POINT('',(51.9926406871193,31.,-11.75));
#1440=CARTESIAN_POINT('Origin',(49.9926406871193,31.,-11.75));
#1441=CARTESIAN_POINT('Origin',(52.9926406871193,31.,-73.5));
#1442=CARTESIAN_POINT('',(48.9926406871193,38.,-73.5));
#1443=CARTESIAN_POINT('',(48.9926406871193,31.,-73.5));
#1444=CARTESIAN_POINT('',(52.9926406871193,38.,-73.5));
#1445=CARTESIAN_POINT('',(52.9926406871193,38.,-73.5));
#1446=CARTESIAN_POINT('',(52.9926406871193,31.,-73.5));
#1447=CARTESIAN_POINT('Origin',(48.9926406871193,31.,-72.5));
#1448=CARTESIAN_POINT('',(51.9926406871193,38.,-72.5));
#1449=CARTESIAN_POINT('',(51.9926406871193,31.,-72.5));
#1450=CARTESIAN_POINT('',(48.9926406871193,38.,-72.5));
#1451=CARTESIAN_POINT('',(49.9926406871193,38.,-72.5));
#1452=CARTESIAN_POINT('',(48.9926406871193,31.,-72.5));
#1453=CARTESIAN_POINT('Origin',(51.9926406871193,31.,-72.5));
#1454=CARTESIAN_POINT('',(51.9926406871193,38.,-66.5));
#1455=CARTESIAN_POINT('',(51.9926406871193,31.,-66.5));
#1456=CARTESIAN_POINT('',(51.9926406871193,38.,-66.5));
#1457=CARTESIAN_POINT('Origin',(52.9926406871193,31.,-65.5));
#1458=CARTESIAN_POINT('',(52.9926406871193,38.,-65.5));
#1459=CARTESIAN_POINT('',(52.9926406871193,38.,-65.5));
#1460=CARTESIAN_POINT('',(52.9926406871193,31.,-65.5));
#1461=CARTESIAN_POINT('Origin',(50.9926406871193,31.,-65.5));
#1462=CARTESIAN_POINT('',(50.9926406871193,38.,-65.5));
#1463=CARTESIAN_POINT('',(50.9926406871193,38.,-65.5));
#1464=CARTESIAN_POINT('',(50.9926406871193,31.,-65.5));
#1465=CARTESIAN_POINT('Origin',(50.9926406871193,31.,-66.5));
#1466=CARTESIAN_POINT('',(50.9926406871193,38.,-66.5));
#1467=CARTESIAN_POINT('',(50.9926406871193,38.,-66.5));
#1468=CARTESIAN_POINT('',(50.9926406871193,31.,-66.5));
#1469=CARTESIAN_POINT('Origin',(51.9926406871193,31.,-66.5));
#1470=CARTESIAN_POINT('',(51.9926406871193,38.,-66.5));
#1471=CARTESIAN_POINT('Origin',(50.9926406871193,38.,-69.5));
#1472=CARTESIAN_POINT('',(48.9926406871193,38.,-67.5));
#1473=CARTESIAN_POINT('Origin',(44.9926406871192,34.,-67.5));
#1474=CARTESIAN_POINT('',(44.9926406871192,34.,-67.5));
#1475=CARTESIAN_POINT('',(44.9926406871192,34.,-65.5));
#1476=CARTESIAN_POINT('',(44.9926406871192,34.,-67.5));
#1477=CARTESIAN_POINT('',(44.9926406871191,43.,-67.5));
#1478=CARTESIAN_POINT('',(44.9926406871192,32.5,-67.5));
#1479=CARTESIAN_POINT('',(44.9926406871191,43.,-65.5));
#1480=CARTESIAN_POINT('',(44.9926406871191,42.9999999999999,-72.));
#1481=CARTESIAN_POINT('',(44.9926406871192,32.5000000000001,-65.5));
#1482=CARTESIAN_POINT('Origin',(45.9926406871192,34.,-66.5));
#1483=CARTESIAN_POINT('',(46.9926406871192,34.,-65.5));
#1484=CARTESIAN_POINT('',(46.9926406871192,34.,-67.5));
#1485=CARTESIAN_POINT('',(46.9926406871192,34.,-65.5));
#1486=CARTESIAN_POINT('',(46.4926406871192,34.,-67.5));
#1487=CARTESIAN_POINT('',(40.9926406871192,33.9999999999999,-65.5));
#1488=CARTESIAN_POINT('Origin',(46.9926406871193,31.,-67.5));
#1489=CARTESIAN_POINT('',(46.9926406871193,33.,-67.5));
#1490=CARTESIAN_POINT('',(46.9926406871193,31.,-67.5));
#1491=CARTESIAN_POINT('',(37.9926406871193,33.,-67.5));
#1492=CARTESIAN_POINT('',(44.7426406871193,33.,-67.5));
#1493=CARTESIAN_POINT('',(37.9926406871192,43.,-67.5));
#1494=CARTESIAN_POINT('',(37.9926406871193,31.,-67.5));
#1495=CARTESIAN_POINT('',(37.9926406871192,43.,-67.5));
#1496=CARTESIAN_POINT('Origin',(42.4926406871192,42.9999999999999,-76.5));
#1497=CARTESIAN_POINT('',(46.9926406871193,43.,-85.5));
#1498=CARTESIAN_POINT('',(46.9926406871191,43.,-65.5));
#1499=CARTESIAN_POINT('',(46.9926406871193,43.,-85.5));
#1500=CARTESIAN_POINT('',(48.9926406871193,43.,-65.5));
#1501=CARTESIAN_POINT('',(35.9926406871192,43.,-65.5));
#1502=CARTESIAN_POINT('',(48.9926406871193,43.,-87.5));
#1503=CARTESIAN_POINT('',(48.9926406871193,43.,-65.5));
#1504=CARTESIAN_POINT('',(42.9926406871192,43.,-87.5));
#1505=CARTESIAN_POINT('',(42.9926406871192,43.,-87.5));
#1506=CARTESIAN_POINT('',(42.9926406871192,43.,-84.5));
#1507=CARTESIAN_POINT('',(42.9926406871192,43.,-84.5));
#1508=CARTESIAN_POINT('',(35.9926406871192,43.,-84.5));
#1509=CARTESIAN_POINT('',(42.9926406871192,43.,-84.5));
#1510=CARTESIAN_POINT('',(35.9926406871192,43.,-80.5));
#1511=CARTESIAN_POINT('',(35.9926406871192,43.,-80.5));
#1512=CARTESIAN_POINT('',(37.9926406871192,43.,-80.5));
#1513=CARTESIAN_POINT('',(37.9926406871192,43.,-80.5));
#1514=CARTESIAN_POINT('',(37.9926406871192,43.,-82.5));
#1515=CARTESIAN_POINT('',(37.9926406871192,43.,-84.5));
#1516=CARTESIAN_POINT('',(44.9926406871192,43.,-82.5));
#1517=CARTESIAN_POINT('',(44.9926406871192,43.,-82.5));
#1518=CARTESIAN_POINT('',(44.9926406871192,43.,-85.5));
#1519=CARTESIAN_POINT('',(44.9926406871192,43.,-82.5));
#1520=CARTESIAN_POINT('',(44.9926406871192,43.,-85.5));
#1521=CARTESIAN_POINT('Origin',(42.4926406871192,42.9999999999999,-76.5));
#1522=CARTESIAN_POINT('',(37.9926406871192,43.,-69.5));
#1523=CARTESIAN_POINT('',(37.9926406871192,43.,-65.5));
#1524=CARTESIAN_POINT('',(35.9926406871192,43.,-69.5));
#1525=CARTESIAN_POINT('',(37.9926406871192,43.,-69.5));
#1526=CARTESIAN_POINT('',(35.9926406871192,43.,-65.5));
#1527=CARTESIAN_POINT('',(35.9926406871192,43.,-69.5));
#1528=CARTESIAN_POINT('',(35.9926406871192,43.,-65.5));
#1529=CARTESIAN_POINT('Origin',(36.9926406871193,34.5,-75.));
#1530=CARTESIAN_POINT('',(37.9926406871193,34.5,-69.5));
#1531=CARTESIAN_POINT('',(37.9926406871193,34.5,-80.5));
#1532=CARTESIAN_POINT('',(37.9926406871193,34.5,-82.5));
#1533=CARTESIAN_POINT('',(35.9926406871193,34.5,-80.5));
#1534=CARTESIAN_POINT('',(36.4926406871193,34.5,-80.5));
#1535=CARTESIAN_POINT('',(35.9926406871193,34.5,-69.5));
#1536=CARTESIAN_POINT('',(35.9926406871193,34.5,-84.5));
#1537=CARTESIAN_POINT('',(37.4926406871193,34.5,-69.5));
#1538=CARTESIAN_POINT('Origin',(42.4926406871193,33.,-75.));
#1539=CARTESIAN_POINT('',(37.9926406871193,33.,-82.5));
#1540=CARTESIAN_POINT('',(37.9926406871193,33.,-77.75));
#1541=CARTESIAN_POINT('',(46.9926406871193,33.,-85.5));
#1542=CARTESIAN_POINT('',(46.9926406871193,33.,-80.25));
#1543=CARTESIAN_POINT('',(44.9926406871193,33.,-85.5));
#1544=CARTESIAN_POINT('',(43.7426406871193,33.,-85.5));
#1545=CARTESIAN_POINT('',(44.9926406871193,33.,-82.5));
#1546=CARTESIAN_POINT('',(44.9926406871193,33.,-78.75));
#1547=CARTESIAN_POINT('',(40.2426406871193,33.,-82.5));
#1548=CARTESIAN_POINT('Origin',(60.9926406871192,31.,-150.));
#1549=CARTESIAN_POINT('',(60.9926406871192,31.,-150.));
#1550=CARTESIAN_POINT('',(23.9926406871193,31.,-150.));
#1551=CARTESIAN_POINT('',(60.9926406871192,31.,-150.));
#1552=CARTESIAN_POINT('',(23.9926406871193,31.,-150.));
#1553=CARTESIAN_POINT('',(60.9926406871192,31.,-150.));
#1554=CARTESIAN_POINT('Origin',(60.9926406871192,31.,8.97208525534582E-15));
#1555=CARTESIAN_POINT('',(60.9926406871192,31.,8.97208525534582E-15));
#1556=CARTESIAN_POINT('',(60.9926406871192,31.,8.97208525534582E-15));
#1557=CARTESIAN_POINT('',(60.9926406871192,31.,8.97208525534582E-15));
#1558=CARTESIAN_POINT('Origin',(23.9926406871193,31.,4.44089209850063E-15));
#1559=CARTESIAN_POINT('',(23.9926406871193,31.,4.44089209850063E-15));
#1560=CARTESIAN_POINT('',(23.9926406871193,31.,4.44089209850063E-15));
#1561=CARTESIAN_POINT('',(23.9926406871193,31.,4.44089209850063E-15));
#1562=CARTESIAN_POINT('Origin',(23.9926406871193,31.,-150.));
#1563=CARTESIAN_POINT('',(23.9926406871193,31.,-150.));
#1564=CARTESIAN_POINT('Origin',(35.9926406871193,31.,-65.5));
#1565=CARTESIAN_POINT('',(35.9926406871193,31.,-65.5));
#1566=CARTESIAN_POINT('',(48.9926406871193,31.,-65.5));
#1567=CARTESIAN_POINT('',(46.9926406871193,32.5000000000001,-65.5));
#1568=CARTESIAN_POINT('Origin',(48.9926406871193,31.,-65.5));
#1569=CARTESIAN_POINT('',(48.9926406871193,31.,-87.5));
#1570=CARTESIAN_POINT('Origin',(48.9926406871193,31.,-87.5));
#1571=CARTESIAN_POINT('',(42.9926406871193,31.,-87.5));
#1572=CARTESIAN_POINT('Origin',(42.9926406871193,31.,-87.5));
#1573=CARTESIAN_POINT('',(42.9926406871193,31.,-84.5));
#1574=CARTESIAN_POINT('Origin',(42.9926406871193,31.,-84.5));
#1575=CARTESIAN_POINT('',(35.9926406871193,31.,-84.5));
#1576=CARTESIAN_POINT('Origin',(35.9926406871193,31.,-84.5));
#1577=CARTESIAN_POINT('',(35.9926406871193,31.,-69.5));
#1578=CARTESIAN_POINT('',(35.9926406871193,31.,-80.5));
#1579=CARTESIAN_POINT('Origin',(35.9926406871193,31.,-80.5));
#1580=CARTESIAN_POINT('',(37.9926406871193,31.,-80.5));
#1581=CARTESIAN_POINT('Origin',(37.9926406871193,31.,-80.5));
#1582=CARTESIAN_POINT('',(37.9926406871193,31.,-82.5));
#1583=CARTESIAN_POINT('',(37.9926406871193,31.,-69.5));
#1584=CARTESIAN_POINT('Origin',(37.9926406871193,31.,-82.5));
#1585=CARTESIAN_POINT('',(44.9926406871193,31.,-82.5));
#1586=CARTESIAN_POINT('Origin',(37.9926406871193,31.,-69.5));
#1587=CARTESIAN_POINT('Origin',(46.9926406871193,31.,-85.5));
#1588=CARTESIAN_POINT('',(46.9926406871193,31.,-85.5));
#1589=CARTESIAN_POINT('Origin',(44.9926406871193,31.,-85.5));
#1590=CARTESIAN_POINT('',(44.9926406871193,31.,-85.5));
#1591=CARTESIAN_POINT('Origin',(44.9926406871193,31.,-82.5));
#1592=CARTESIAN_POINT('Origin',(42.4926406871193,31.,-76.5));
#1593=UNCERTAINTY_MEASURE_WITH_UNIT(LENGTH_MEASURE(0.01),#1597,
'DISTANCE_ACCURACY_VALUE',
'Maximum model space distance between geometric entities at asserted c
onnectivities');
#1594=UNCERTAINTY_MEASURE_WITH_UNIT(LENGTH_MEASURE(0.01),#1597,
'DISTANCE_ACCURACY_VALUE',
'Maximum model space distance between geometric entities at asserted c
onnectivities');
#1595=(
GEOMETRIC_REPRESENTATION_CONTEXT(3)
GLOBAL_UNCERTAINTY_ASSIGNED_CONTEXT((#1593))
GLOBAL_UNIT_ASSIGNED_CONTEXT((#1597,#1599,#1600))
REPRESENTATION_CONTEXT('','3D')
);
#1596=(
GEOMETRIC_REPRESENTATION_CONTEXT(3)
GLOBAL_UNCERTAINTY_ASSIGNED_CONTEXT((#1594))
GLOBAL_UNIT_ASSIGNED_CONTEXT((#1597,#1599,#1600))
REPRESENTATION_CONTEXT('','3D')
);
#1597=(
LENGTH_UNIT()
NAMED_UNIT(*)
SI_UNIT(.MILLI.,.METRE.)
);
#1598=(
LENGTH_UNIT()
NAMED_UNIT(*)
SI_UNIT($,.METRE.)
);
#1599=(
NAMED_UNIT(*)
PLANE_ANGLE_UNIT()
SI_UNIT($,.RADIAN.)
);
#1600=(
NAMED_UNIT(*)
SI_UNIT($,.STERADIAN.)
SOLID_ANGLE_UNIT()
);
#1601=SHAPE_DEFINITION_REPRESENTATION(#1602,#1603);
#1602=PRODUCT_DEFINITION_SHAPE('',$,#1605);
#1603=SHAPE_REPRESENTATION('',(#989),#1595);
#1604=PRODUCT_DEFINITION_CONTEXT('part definition',#1609,'design');
#1605=PRODUCT_DEFINITION('2026-05-07-11-43-13-092','Kaamera alus',#1606,
#1604);
#1606=PRODUCT_DEFINITION_FORMATION('',$,#1611);
#1607=PRODUCT_RELATED_PRODUCT_CATEGORY('Kaamera alus','Kaamera alus',(#1611));
#1608=APPLICATION_PROTOCOL_DEFINITION('international standard',
'automotive_design',2009,#1609);
#1609=APPLICATION_CONTEXT(
'Core Data for Automotive Mechanical Design Process');
#1610=PRODUCT_CONTEXT('part definition',#1609,'mechanical');
#1611=PRODUCT('2026-05-07-11-43-13-092','Kaamera alus',$,(#1610));
#1612=PRESENTATION_STYLE_ASSIGNMENT((#1614));
#1613=PRESENTATION_STYLE_ASSIGNMENT((#1615));
#1614=SURFACE_STYLE_USAGE(.BOTH.,#1616);
#1615=SURFACE_STYLE_USAGE(.BOTH.,#1617);
#1616=SURFACE_SIDE_STYLE('',(#1618));
#1617=SURFACE_SIDE_STYLE('',(#1619));
#1618=SURFACE_STYLE_FILL_AREA(#1620);
#1619=SURFACE_STYLE_FILL_AREA(#1621);
#1620=FILL_AREA_STYLE('Steel - Satin',(#1622));
#1621=FILL_AREA_STYLE('EPX 82 (with Carbon M2 M3 L1 3D Printers)',(#1623));
#1622=FILL_AREA_STYLE_COLOUR('Steel - Satin',#1624);
#1623=FILL_AREA_STYLE_COLOUR(
'EPX 82 (with Carbon M2 M3 L1 3D Printers)',#1625);
#1624=COLOUR_RGB('Steel - Satin',0.627450980392157,0.627450980392157,0.627450980392157);
#1625=COLOUR_RGB('EPX 82 (with Carbon M2 M3 L1 3D Printers)',0.247058823529412,
0.247058823529412,0.247058823529412);
ENDSEC;
END-ISO-10303-21;
