ISO-10303-21;
HEADER;
/* Generated by software containing ST-Developer
 * from STEP Tools, Inc. (www.steptools.com) 
 */

FILE_DESCRIPTION(
/* description */ (''),
/* implementation_level */ '2;1');

FILE_NAME(
/* name */ 'Rataste kate.step',
/* time_stamp */ '2026-05-07T11:29:56+03:00',
/* author */ (''),
/* organization */ (''),
/* preprocessor_version */ 'ST-DEVELOPER v20.1',
/* originating_system */ 'Autodesk Translation Framework v15.8.0.0',
/* authorisation */ '');

FILE_SCHEMA (('AUTOMOTIVE_DESIGN { 1 0 10303 214 3 1 1 }'));
ENDSEC;

DATA;
#10=MECHANICAL_DESIGN_GEOMETRIC_PRESENTATION_REPRESENTATION('',(#13),#1051);
#11=SHAPE_REPRESENTATION_RELATIONSHIP('SRR','None',#1058,#12);
#12=ADVANCED_BREP_SHAPE_REPRESENTATION('',(#14),#1050);
#13=STYLED_ITEM('',(#1068),#14);
#14=MANIFOLD_SOLID_BREP('Body1',#631);
#15=CONICAL_SURFACE('',#687,3.15,0.78539816339745);
#16=CONICAL_SURFACE('',#690,3.15,0.785398163397448);
#17=CYLINDRICAL_SURFACE('',#685,1.69999999999999);
#18=CYLINDRICAL_SURFACE('',#688,1.7);
#19=CYLINDRICAL_SURFACE('',#691,6.);
#20=CYLINDRICAL_SURFACE('',#692,6.);
#21=CYLINDRICAL_SURFACE('',#693,6.);
#22=CYLINDRICAL_SURFACE('',#694,6.);
#23=CYLINDRICAL_SURFACE('',#695,2.);
#24=CYLINDRICAL_SURFACE('',#696,2.);
#25=CYLINDRICAL_SURFACE('',#697,2.);
#26=CYLINDRICAL_SURFACE('',#698,2.);
#27=ELLIPSE('',#662,8.48528137423857,6.);
#28=ELLIPSE('',#664,8.48528137423857,6.);
#29=FACE_BOUND('',#94,.T.);
#30=FACE_BOUND('',#96,.T.);
#31=FACE_BOUND('',#100,.T.);
#32=FACE_BOUND('',#101,.T.);
#33=FACE_BOUND('',#102,.T.);
#34=FACE_BOUND('',#103,.T.);
#35=FACE_BOUND('',#110,.T.);
#36=FACE_BOUND('',#114,.T.);
#37=FACE_BOUND('',#119,.T.);
#38=FACE_BOUND('',#120,.T.);
#39=FACE_BOUND('',#121,.T.);
#40=FACE_BOUND('',#122,.T.);
#41=CIRCLE('',#646,1.69999999999999);
#42=CIRCLE('',#648,1.7);
#43=CIRCLE('',#651,6.);
#44=CIRCLE('',#652,6.);
#45=CIRCLE('',#653,6.);
#46=CIRCLE('',#654,6.);
#47=CIRCLE('',#656,2.);
#48=CIRCLE('',#657,2.);
#49=CIRCLE('',#658,2.);
#50=CIRCLE('',#659,2.);
#51=CIRCLE('',#668,3.15);
#52=CIRCLE('',#672,3.15);
#53=CIRCLE('',#676,6.);
#54=CIRCLE('',#677,6.);
#55=CIRCLE('',#679,2.);
#56=CIRCLE('',#680,2.);
#57=CIRCLE('',#681,2.);
#58=CIRCLE('',#682,2.);
#59=CIRCLE('',#686,1.69999999999999);
#60=CIRCLE('',#689,1.7);
#61=FACE_OUTER_BOUND('',#93,.T.);
#62=FACE_OUTER_BOUND('',#95,.T.);
#63=FACE_OUTER_BOUND('',#97,.T.);
#64=FACE_OUTER_BOUND('',#98,.T.);
#65=FACE_OUTER_BOUND('',#99,.T.);
#66=FACE_OUTER_BOUND('',#104,.T.);
#67=FACE_OUTER_BOUND('',#105,.T.);
#68=FACE_OUTER_BOUND('',#106,.T.);
#69=FACE_OUTER_BOUND('',#107,.T.);
#70=FACE_OUTER_BOUND('',#108,.T.);
#71=FACE_OUTER_BOUND('',#109,.T.);
#72=FACE_OUTER_BOUND('',#111,.T.);
#73=FACE_OUTER_BOUND('',#112,.T.);
#74=FACE_OUTER_BOUND('',#113,.T.);
#75=FACE_OUTER_BOUND('',#115,.T.);
#76=FACE_OUTER_BOUND('',#116,.T.);
#77=FACE_OUTER_BOUND('',#117,.T.);
#78=FACE_OUTER_BOUND('',#118,.T.);
#79=FACE_OUTER_BOUND('',#123,.T.);
#80=FACE_OUTER_BOUND('',#124,.T.);
#81=FACE_OUTER_BOUND('',#125,.T.);
#82=FACE_OUTER_BOUND('',#126,.T.);
#83=FACE_OUTER_BOUND('',#127,.T.);
#84=FACE_OUTER_BOUND('',#128,.T.);
#85=FACE_OUTER_BOUND('',#129,.T.);
#86=FACE_OUTER_BOUND('',#130,.T.);
#87=FACE_OUTER_BOUND('',#131,.T.);
#88=FACE_OUTER_BOUND('',#132,.T.);
#89=FACE_OUTER_BOUND('',#133,.T.);
#90=FACE_OUTER_BOUND('',#134,.T.);
#91=FACE_OUTER_BOUND('',#135,.T.);
#92=FACE_OUTER_BOUND('',#136,.T.);
#93=EDGE_LOOP('',(#407,#408,#409,#410,#411));
#94=EDGE_LOOP('',(#412));
#95=EDGE_LOOP('',(#413,#414,#415,#416,#417));
#96=EDGE_LOOP('',(#418));
#97=EDGE_LOOP('',(#419,#420,#421,#422,#423,#424));
#98=EDGE_LOOP('',(#425,#426,#427,#428,#429,#430,#431,#432,#433,#434,#435,
#436,#437,#438));
#99=EDGE_LOOP('',(#439,#440,#441,#442));
#100=EDGE_LOOP('',(#443));
#101=EDGE_LOOP('',(#444));
#102=EDGE_LOOP('',(#445));
#103=EDGE_LOOP('',(#446));
#104=EDGE_LOOP('',(#447,#448,#449,#450));
#105=EDGE_LOOP('',(#451,#452,#453,#454,#455,#456,#457,#458,#459));
#106=EDGE_LOOP('',(#460,#461,#462,#463,#464,#465,#466,#467,#468));
#107=EDGE_LOOP('',(#469,#470,#471,#472));
#108=EDGE_LOOP('',(#473,#474,#475,#476));
#109=EDGE_LOOP('',(#477,#478,#479,#480));
#110=EDGE_LOOP('',(#481));
#111=EDGE_LOOP('',(#482,#483,#484,#485));
#112=EDGE_LOOP('',(#486,#487,#488,#489));
#113=EDGE_LOOP('',(#490,#491,#492,#493));
#114=EDGE_LOOP('',(#494));
#115=EDGE_LOOP('',(#495,#496,#497,#498,#499));
#116=EDGE_LOOP('',(#500,#501,#502,#503,#504));
#117=EDGE_LOOP('',(#505,#506,#507,#508,#509,#510,#511,#512));
#118=EDGE_LOOP('',(#513,#514,#515,#516));
#119=EDGE_LOOP('',(#517));
#120=EDGE_LOOP('',(#518));
#121=EDGE_LOOP('',(#519));
#122=EDGE_LOOP('',(#520));
#123=EDGE_LOOP('',(#521,#522,#523,#524,#525));
#124=EDGE_LOOP('',(#526,#527,#528,#529,#530));
#125=EDGE_LOOP('',(#531,#532,#533,#534));
#126=EDGE_LOOP('',(#535,#536,#537,#538));
#127=EDGE_LOOP('',(#539,#540,#541,#542));
#128=EDGE_LOOP('',(#543,#544,#545,#546));
#129=EDGE_LOOP('',(#547,#548,#549,#550));
#130=EDGE_LOOP('',(#551,#552,#553,#554));
#131=EDGE_LOOP('',(#555,#556,#557,#558));
#132=EDGE_LOOP('',(#559,#560,#561,#562));
#133=EDGE_LOOP('',(#563,#564,#565,#566));
#134=EDGE_LOOP('',(#567,#568,#569,#570));
#135=EDGE_LOOP('',(#571,#572,#573,#574));
#136=EDGE_LOOP('',(#575,#576,#577,#578));
#137=LINE('',#877,#201);
#138=LINE('',#879,#202);
#139=LINE('',#881,#203);
#140=LINE('',#883,#204);
#141=LINE('',#884,#205);
#142=LINE('',#890,#206);
#143=LINE('',#892,#207);
#144=LINE('',#894,#208);
#145=LINE('',#896,#209);
#146=LINE('',#897,#210);
#147=LINE('',#903,#211);
#148=LINE('',#905,#212);
#149=LINE('',#907,#213);
#150=LINE('',#909,#214);
#151=LINE('',#911,#215);
#152=LINE('',#912,#216);
#153=LINE('',#917,#217);
#154=LINE('',#921,#218);
#155=LINE('',#925,#219);
#156=LINE('',#928,#220);
#157=LINE('',#930,#221);
#158=LINE('',#932,#222);
#159=LINE('',#934,#223);
#160=LINE('',#935,#224);
#161=LINE('',#937,#225);
#162=LINE('',#938,#226);
#163=LINE('',#949,#227);
#164=LINE('',#951,#228);
#165=LINE('',#952,#229);
#166=LINE('',#955,#230);
#167=LINE('',#957,#231);
#168=LINE('',#960,#232);
#169=LINE('',#962,#233);
#170=LINE('',#963,#234);
#171=LINE('',#966,#235);
#172=LINE('',#968,#236);
#173=LINE('',#969,#237);
#174=LINE('',#973,#238);
#175=LINE('',#974,#239);
#176=LINE('',#977,#240);
#177=LINE('',#978,#241);
#178=LINE('',#980,#242);
#179=LINE('',#982,#243);
#180=LINE('',#987,#244);
#181=LINE('',#988,#245);
#182=LINE('',#990,#246);
#183=LINE('',#992,#247);
#184=LINE('',#996,#248);
#185=LINE('',#998,#249);
#186=LINE('',#999,#250);
#187=LINE('',#1002,#251);
#188=LINE('',#1003,#252);
#189=LINE('',#1004,#253);
#190=LINE('',#1008,#254);
#191=LINE('',#1012,#255);
#192=LINE('',#1013,#256);
#193=LINE('',#1026,#257);
#194=LINE('',#1029,#258);
#195=LINE('',#1032,#259);
#196=LINE('',#1035,#260);
#197=LINE('',#1041,#261);
#198=LINE('',#1043,#262);
#199=LINE('',#1045,#263);
#200=LINE('',#1047,#264);
#201=VECTOR('',#703,12.0416305603426);
#202=VECTOR('',#704,30.5220779386421);
#203=VECTOR('',#705,0.514718625761441);
#204=VECTOR('',#706,11.3137084989848);
#205=VECTOR('',#707,14.0073593128807);
#206=VECTOR('',#712,0.514718625761429);
#207=VECTOR('',#713,30.5073593128807);
#208=VECTOR('',#714,12.0416305603426);
#209=VECTOR('',#715,13.9926406871193);
#210=VECTOR('',#716,11.3137084989848);
#211=VECTOR('',#721,36.9999999999999);
#212=VECTOR('',#722,7.76776695296641);
#213=VECTOR('',#723,10.5073593128807);
#214=VECTOR('',#724,47.9999999999999);
#215=VECTOR('',#725,10.4926406871193);
#216=VECTOR('',#726,7.78858223313768);
#217=VECTOR('',#731,8.46446609406726);
#218=VECTOR('',#734,35.0294372515229);
#219=VECTOR('',#737,8.46446609406727);
#220=VECTOR('',#740,2.);
#221=VECTOR('',#741,19.7989898732234);
#222=VECTOR('',#742,36.9999999999999);
#223=VECTOR('',#743,19.7989898732234);
#224=VECTOR('',#744,2.);
#225=VECTOR('',#747,38.5);
#226=VECTOR('',#748,38.5);
#227=VECTOR('',#759,3.53553390593274);
#228=VECTOR('',#760,52.9999999999999);
#229=VECTOR('',#761,3.53553390593274);
#230=VECTOR('',#764,2.99264068711932);
#231=VECTOR('',#765,2.13957010182477);
#232=VECTOR('',#768,2.);
#233=VECTOR('',#769,11.3137084989848);
#234=VECTOR('',#770,14.7096851605173);
#235=VECTOR('',#773,14.7351785681537);
#236=VECTOR('',#774,11.3137084989848);
#237=VECTOR('',#775,2.);
#238=VECTOR('',#778,2.16506350946113);
#239=VECTOR('',#779,3.00735931288074);
#240=VECTOR('',#782,2.);
#241=VECTOR('',#783,11.3137084989848);
#242=VECTOR('',#786,13.9926406871193);
#243=VECTOR('',#789,29.9926406871193);
#244=VECTOR('',#794,2.);
#245=VECTOR('',#795,14.0073593128807);
#246=VECTOR('',#798,11.3137084989848);
#247=VECTOR('',#801,30.0073593128807);
#248=VECTOR('',#806,34.7647186257614);
#249=VECTOR('',#807,6.71751442127215);
#250=VECTOR('',#808,36.);
#251=VECTOR('',#811,36.);
#252=VECTOR('',#812,6.69669914110087);
#253=VECTOR('',#813,34.75);
#254=VECTOR('',#816,35.0294372515229);
#255=VECTOR('',#823,36.);
#256=VECTOR('',#824,36.);
#257=VECTOR('',#839,1.69999999999999);
#258=VECTOR('',#844,3.15);
#259=VECTOR('',#847,1.7);
#260=VECTOR('',#852,3.15);
#261=VECTOR('',#863,2.);
#262=VECTOR('',#866,2.);
#263=VECTOR('',#869,2.);
#264=VECTOR('',#872,2.);
#265=VERTEX_POINT('',#875);
#266=VERTEX_POINT('',#876);
#267=VERTEX_POINT('',#878);
#268=VERTEX_POINT('',#880);
#269=VERTEX_POINT('',#882);
#270=VERTEX_POINT('',#885);
#271=VERTEX_POINT('',#888);
#272=VERTEX_POINT('',#889);
#273=VERTEX_POINT('',#891);
#274=VERTEX_POINT('',#893);
#275=VERTEX_POINT('',#895);
#276=VERTEX_POINT('',#898);
#277=VERTEX_POINT('',#901);
#278=VERTEX_POINT('',#902);
#279=VERTEX_POINT('',#904);
#280=VERTEX_POINT('',#906);
#281=VERTEX_POINT('',#908);
#282=VERTEX_POINT('',#910);
#283=VERTEX_POINT('',#914);
#284=VERTEX_POINT('',#916);
#285=VERTEX_POINT('',#918);
#286=VERTEX_POINT('',#920);
#287=VERTEX_POINT('',#922);
#288=VERTEX_POINT('',#924);
#289=VERTEX_POINT('',#927);
#290=VERTEX_POINT('',#929);
#291=VERTEX_POINT('',#931);
#292=VERTEX_POINT('',#933);
#293=VERTEX_POINT('',#939);
#294=VERTEX_POINT('',#941);
#295=VERTEX_POINT('',#943);
#296=VERTEX_POINT('',#945);
#297=VERTEX_POINT('',#948);
#298=VERTEX_POINT('',#950);
#299=VERTEX_POINT('',#954);
#300=VERTEX_POINT('',#956);
#301=VERTEX_POINT('',#959);
#302=VERTEX_POINT('',#961);
#303=VERTEX_POINT('',#965);
#304=VERTEX_POINT('',#967);
#305=VERTEX_POINT('',#970);
#306=VERTEX_POINT('',#972);
#307=VERTEX_POINT('',#976);
#308=VERTEX_POINT('',#983);
#309=VERTEX_POINT('',#986);
#310=VERTEX_POINT('',#993);
#311=VERTEX_POINT('',#997);
#312=VERTEX_POINT('',#1001);
#313=VERTEX_POINT('',#1006);
#314=VERTEX_POINT('',#1007);
#315=VERTEX_POINT('',#1014);
#316=VERTEX_POINT('',#1016);
#317=VERTEX_POINT('',#1018);
#318=VERTEX_POINT('',#1020);
#319=VERTEX_POINT('',#1025);
#320=VERTEX_POINT('',#1031);
#321=EDGE_CURVE('',#265,#266,#137,.T.);
#322=EDGE_CURVE('',#265,#267,#138,.T.);
#323=EDGE_CURVE('',#268,#267,#139,.T.);
#324=EDGE_CURVE('',#268,#269,#140,.T.);
#325=EDGE_CURVE('',#269,#266,#141,.T.);
#326=EDGE_CURVE('',#270,#270,#41,.T.);
#327=EDGE_CURVE('',#271,#272,#142,.T.);
#328=EDGE_CURVE('',#271,#273,#143,.F.);
#329=EDGE_CURVE('',#274,#273,#144,.T.);
#330=EDGE_CURVE('',#274,#275,#145,.T.);
#331=EDGE_CURVE('',#275,#272,#146,.T.);
#332=EDGE_CURVE('',#276,#276,#42,.T.);
#333=EDGE_CURVE('',#277,#278,#147,.T.);
#334=EDGE_CURVE('',#277,#279,#148,.F.);
#335=EDGE_CURVE('',#279,#280,#149,.T.);
#336=EDGE_CURVE('',#280,#281,#150,.T.);
#337=EDGE_CURVE('',#282,#281,#151,.T.);
#338=EDGE_CURVE('',#282,#278,#152,.F.);
#339=EDGE_CURVE('',#267,#283,#43,.F.);
#340=EDGE_CURVE('',#284,#283,#153,.T.);
#341=EDGE_CURVE('',#284,#285,#44,.T.);
#342=EDGE_CURVE('',#286,#285,#154,.T.);
#343=EDGE_CURVE('',#286,#287,#45,.T.);
#344=EDGE_CURVE('',#288,#287,#155,.T.);
#345=EDGE_CURVE('',#288,#271,#46,.F.);
#346=EDGE_CURVE('',#289,#272,#156,.T.);
#347=EDGE_CURVE('',#289,#290,#157,.F.);
#348=EDGE_CURVE('',#291,#290,#158,.T.);
#349=EDGE_CURVE('',#291,#292,#159,.F.);
#350=EDGE_CURVE('',#292,#268,#160,.T.);
#351=EDGE_CURVE('',#290,#277,#161,.T.);
#352=EDGE_CURVE('',#278,#291,#162,.T.);
#353=EDGE_CURVE('',#293,#293,#47,.T.);
#354=EDGE_CURVE('',#294,#294,#48,.T.);
#355=EDGE_CURVE('',#295,#295,#49,.T.);
#356=EDGE_CURVE('',#296,#296,#50,.T.);
#357=EDGE_CURVE('',#297,#280,#163,.T.);
#358=EDGE_CURVE('',#298,#297,#164,.T.);
#359=EDGE_CURVE('',#281,#298,#165,.T.);
#360=EDGE_CURVE('',#298,#299,#166,.T.);
#361=EDGE_CURVE('',#299,#300,#167,.T.);
#362=EDGE_CURVE('',#300,#265,#27,.F.);
#363=EDGE_CURVE('',#301,#266,#168,.T.);
#364=EDGE_CURVE('',#301,#302,#169,.T.);
#365=EDGE_CURVE('',#302,#282,#170,.F.);
#366=EDGE_CURVE('',#279,#303,#171,.F.);
#367=EDGE_CURVE('',#303,#304,#172,.T.);
#368=EDGE_CURVE('',#304,#274,#173,.T.);
#369=EDGE_CURVE('',#273,#305,#28,.F.);
#370=EDGE_CURVE('',#305,#306,#174,.T.);
#371=EDGE_CURVE('',#306,#297,#175,.T.);
#372=EDGE_CURVE('',#307,#275,#176,.T.);
#373=EDGE_CURVE('',#307,#289,#177,.T.);
#374=EDGE_CURVE('',#304,#307,#178,.T.);
#375=EDGE_CURVE('',#289,#303,#179,.T.);
#376=EDGE_CURVE('',#308,#308,#51,.T.);
#377=EDGE_CURVE('',#309,#269,#180,.T.);
#378=EDGE_CURVE('',#309,#301,#181,.T.);
#379=EDGE_CURVE('',#292,#309,#182,.T.);
#380=EDGE_CURVE('',#302,#292,#183,.T.);
#381=EDGE_CURVE('',#310,#310,#52,.T.);
#382=EDGE_CURVE('',#283,#300,#184,.F.);
#383=EDGE_CURVE('',#311,#299,#185,.T.);
#384=EDGE_CURVE('',#311,#284,#186,.T.);
#385=EDGE_CURVE('',#287,#312,#187,.F.);
#386=EDGE_CURVE('',#306,#312,#188,.T.);
#387=EDGE_CURVE('',#305,#288,#189,.T.);
#388=EDGE_CURVE('',#313,#314,#190,.T.);
#389=EDGE_CURVE('',#314,#311,#53,.F.);
#390=EDGE_CURVE('',#312,#313,#54,.F.);
#391=EDGE_CURVE('',#285,#314,#191,.F.);
#392=EDGE_CURVE('',#313,#286,#192,.T.);
#393=EDGE_CURVE('',#315,#315,#55,.F.);
#394=EDGE_CURVE('',#316,#316,#56,.F.);
#395=EDGE_CURVE('',#317,#317,#57,.F.);
#396=EDGE_CURVE('',#318,#318,#58,.F.);
#397=EDGE_CURVE('',#270,#319,#193,.T.);
#398=EDGE_CURVE('',#319,#319,#59,.T.);
#399=EDGE_CURVE('',#319,#310,#194,.T.);
#400=EDGE_CURVE('',#276,#320,#195,.T.);
#401=EDGE_CURVE('',#320,#320,#60,.T.);
#402=EDGE_CURVE('',#320,#308,#196,.T.);
#403=EDGE_CURVE('',#318,#296,#197,.T.);
#404=EDGE_CURVE('',#317,#295,#198,.T.);
#405=EDGE_CURVE('',#316,#294,#199,.T.);
#406=EDGE_CURVE('',#315,#293,#200,.T.);
#407=ORIENTED_EDGE('',*,*,#321,.F.);
#408=ORIENTED_EDGE('',*,*,#322,.T.);
#409=ORIENTED_EDGE('',*,*,#323,.F.);
#410=ORIENTED_EDGE('',*,*,#324,.T.);
#411=ORIENTED_EDGE('',*,*,#325,.T.);
#412=ORIENTED_EDGE('',*,*,#326,.F.);
#413=ORIENTED_EDGE('',*,*,#327,.F.);
#414=ORIENTED_EDGE('',*,*,#328,.T.);
#415=ORIENTED_EDGE('',*,*,#329,.F.);
#416=ORIENTED_EDGE('',*,*,#330,.T.);
#417=ORIENTED_EDGE('',*,*,#331,.T.);
#418=ORIENTED_EDGE('',*,*,#332,.F.);
#419=ORIENTED_EDGE('',*,*,#333,.F.);
#420=ORIENTED_EDGE('',*,*,#334,.T.);
#421=ORIENTED_EDGE('',*,*,#335,.T.);
#422=ORIENTED_EDGE('',*,*,#336,.T.);
#423=ORIENTED_EDGE('',*,*,#337,.F.);
#424=ORIENTED_EDGE('',*,*,#338,.T.);
#425=ORIENTED_EDGE('',*,*,#323,.T.);
#426=ORIENTED_EDGE('',*,*,#339,.T.);
#427=ORIENTED_EDGE('',*,*,#340,.F.);
#428=ORIENTED_EDGE('',*,*,#341,.T.);
#429=ORIENTED_EDGE('',*,*,#342,.F.);
#430=ORIENTED_EDGE('',*,*,#343,.T.);
#431=ORIENTED_EDGE('',*,*,#344,.F.);
#432=ORIENTED_EDGE('',*,*,#345,.T.);
#433=ORIENTED_EDGE('',*,*,#327,.T.);
#434=ORIENTED_EDGE('',*,*,#346,.F.);
#435=ORIENTED_EDGE('',*,*,#347,.T.);
#436=ORIENTED_EDGE('',*,*,#348,.F.);
#437=ORIENTED_EDGE('',*,*,#349,.T.);
#438=ORIENTED_EDGE('',*,*,#350,.T.);
#439=ORIENTED_EDGE('',*,*,#348,.T.);
#440=ORIENTED_EDGE('',*,*,#351,.T.);
#441=ORIENTED_EDGE('',*,*,#333,.T.);
#442=ORIENTED_EDGE('',*,*,#352,.T.);
#443=ORIENTED_EDGE('',*,*,#353,.F.);
#444=ORIENTED_EDGE('',*,*,#354,.F.);
#445=ORIENTED_EDGE('',*,*,#355,.F.);
#446=ORIENTED_EDGE('',*,*,#356,.F.);
#447=ORIENTED_EDGE('',*,*,#336,.F.);
#448=ORIENTED_EDGE('',*,*,#357,.F.);
#449=ORIENTED_EDGE('',*,*,#358,.F.);
#450=ORIENTED_EDGE('',*,*,#359,.F.);
#451=ORIENTED_EDGE('',*,*,#337,.T.);
#452=ORIENTED_EDGE('',*,*,#359,.T.);
#453=ORIENTED_EDGE('',*,*,#360,.T.);
#454=ORIENTED_EDGE('',*,*,#361,.T.);
#455=ORIENTED_EDGE('',*,*,#362,.T.);
#456=ORIENTED_EDGE('',*,*,#321,.T.);
#457=ORIENTED_EDGE('',*,*,#363,.F.);
#458=ORIENTED_EDGE('',*,*,#364,.T.);
#459=ORIENTED_EDGE('',*,*,#365,.T.);
#460=ORIENTED_EDGE('',*,*,#357,.T.);
#461=ORIENTED_EDGE('',*,*,#335,.F.);
#462=ORIENTED_EDGE('',*,*,#366,.T.);
#463=ORIENTED_EDGE('',*,*,#367,.T.);
#464=ORIENTED_EDGE('',*,*,#368,.T.);
#465=ORIENTED_EDGE('',*,*,#329,.T.);
#466=ORIENTED_EDGE('',*,*,#369,.T.);
#467=ORIENTED_EDGE('',*,*,#370,.T.);
#468=ORIENTED_EDGE('',*,*,#371,.T.);
#469=ORIENTED_EDGE('',*,*,#331,.F.);
#470=ORIENTED_EDGE('',*,*,#372,.F.);
#471=ORIENTED_EDGE('',*,*,#373,.T.);
#472=ORIENTED_EDGE('',*,*,#346,.T.);
#473=ORIENTED_EDGE('',*,*,#330,.F.);
#474=ORIENTED_EDGE('',*,*,#368,.F.);
#475=ORIENTED_EDGE('',*,*,#374,.T.);
#476=ORIENTED_EDGE('',*,*,#372,.T.);
#477=ORIENTED_EDGE('',*,*,#375,.F.);
#478=ORIENTED_EDGE('',*,*,#373,.F.);
#479=ORIENTED_EDGE('',*,*,#374,.F.);
#480=ORIENTED_EDGE('',*,*,#367,.F.);
#481=ORIENTED_EDGE('',*,*,#376,.F.);
#482=ORIENTED_EDGE('',*,*,#325,.F.);
#483=ORIENTED_EDGE('',*,*,#377,.F.);
#484=ORIENTED_EDGE('',*,*,#378,.T.);
#485=ORIENTED_EDGE('',*,*,#363,.T.);
#486=ORIENTED_EDGE('',*,*,#324,.F.);
#487=ORIENTED_EDGE('',*,*,#350,.F.);
#488=ORIENTED_EDGE('',*,*,#379,.T.);
#489=ORIENTED_EDGE('',*,*,#377,.T.);
#490=ORIENTED_EDGE('',*,*,#364,.F.);
#491=ORIENTED_EDGE('',*,*,#378,.F.);
#492=ORIENTED_EDGE('',*,*,#379,.F.);
#493=ORIENTED_EDGE('',*,*,#380,.F.);
#494=ORIENTED_EDGE('',*,*,#381,.F.);
#495=ORIENTED_EDGE('',*,*,#340,.T.);
#496=ORIENTED_EDGE('',*,*,#382,.T.);
#497=ORIENTED_EDGE('',*,*,#361,.F.);
#498=ORIENTED_EDGE('',*,*,#383,.F.);
#499=ORIENTED_EDGE('',*,*,#384,.T.);
#500=ORIENTED_EDGE('',*,*,#344,.T.);
#501=ORIENTED_EDGE('',*,*,#385,.T.);
#502=ORIENTED_EDGE('',*,*,#386,.F.);
#503=ORIENTED_EDGE('',*,*,#370,.F.);
#504=ORIENTED_EDGE('',*,*,#387,.T.);
#505=ORIENTED_EDGE('',*,*,#388,.T.);
#506=ORIENTED_EDGE('',*,*,#389,.T.);
#507=ORIENTED_EDGE('',*,*,#383,.T.);
#508=ORIENTED_EDGE('',*,*,#360,.F.);
#509=ORIENTED_EDGE('',*,*,#358,.T.);
#510=ORIENTED_EDGE('',*,*,#371,.F.);
#511=ORIENTED_EDGE('',*,*,#386,.T.);
#512=ORIENTED_EDGE('',*,*,#390,.T.);
#513=ORIENTED_EDGE('',*,*,#342,.T.);
#514=ORIENTED_EDGE('',*,*,#391,.T.);
#515=ORIENTED_EDGE('',*,*,#388,.F.);
#516=ORIENTED_EDGE('',*,*,#392,.T.);
#517=ORIENTED_EDGE('',*,*,#393,.F.);
#518=ORIENTED_EDGE('',*,*,#394,.F.);
#519=ORIENTED_EDGE('',*,*,#395,.F.);
#520=ORIENTED_EDGE('',*,*,#396,.F.);
#521=ORIENTED_EDGE('',*,*,#347,.F.);
#522=ORIENTED_EDGE('',*,*,#375,.T.);
#523=ORIENTED_EDGE('',*,*,#366,.F.);
#524=ORIENTED_EDGE('',*,*,#334,.F.);
#525=ORIENTED_EDGE('',*,*,#351,.F.);
#526=ORIENTED_EDGE('',*,*,#365,.F.);
#527=ORIENTED_EDGE('',*,*,#380,.T.);
#528=ORIENTED_EDGE('',*,*,#349,.F.);
#529=ORIENTED_EDGE('',*,*,#352,.F.);
#530=ORIENTED_EDGE('',*,*,#338,.F.);
#531=ORIENTED_EDGE('',*,*,#326,.T.);
#532=ORIENTED_EDGE('',*,*,#397,.T.);
#533=ORIENTED_EDGE('',*,*,#398,.T.);
#534=ORIENTED_EDGE('',*,*,#397,.F.);
#535=ORIENTED_EDGE('',*,*,#398,.F.);
#536=ORIENTED_EDGE('',*,*,#399,.T.);
#537=ORIENTED_EDGE('',*,*,#381,.T.);
#538=ORIENTED_EDGE('',*,*,#399,.F.);
#539=ORIENTED_EDGE('',*,*,#332,.T.);
#540=ORIENTED_EDGE('',*,*,#400,.T.);
#541=ORIENTED_EDGE('',*,*,#401,.T.);
#542=ORIENTED_EDGE('',*,*,#400,.F.);
#543=ORIENTED_EDGE('',*,*,#401,.F.);
#544=ORIENTED_EDGE('',*,*,#402,.T.);
#545=ORIENTED_EDGE('',*,*,#376,.T.);
#546=ORIENTED_EDGE('',*,*,#402,.F.);
#547=ORIENTED_EDGE('',*,*,#362,.F.);
#548=ORIENTED_EDGE('',*,*,#382,.F.);
#549=ORIENTED_EDGE('',*,*,#339,.F.);
#550=ORIENTED_EDGE('',*,*,#322,.F.);
#551=ORIENTED_EDGE('',*,*,#389,.F.);
#552=ORIENTED_EDGE('',*,*,#391,.F.);
#553=ORIENTED_EDGE('',*,*,#341,.F.);
#554=ORIENTED_EDGE('',*,*,#384,.F.);
#555=ORIENTED_EDGE('',*,*,#390,.F.);
#556=ORIENTED_EDGE('',*,*,#385,.F.);
#557=ORIENTED_EDGE('',*,*,#343,.F.);
#558=ORIENTED_EDGE('',*,*,#392,.F.);
#559=ORIENTED_EDGE('',*,*,#369,.F.);
#560=ORIENTED_EDGE('',*,*,#328,.F.);
#561=ORIENTED_EDGE('',*,*,#345,.F.);
#562=ORIENTED_EDGE('',*,*,#387,.F.);
#563=ORIENTED_EDGE('',*,*,#396,.T.);
#564=ORIENTED_EDGE('',*,*,#403,.T.);
#565=ORIENTED_EDGE('',*,*,#356,.T.);
#566=ORIENTED_EDGE('',*,*,#403,.F.);
#567=ORIENTED_EDGE('',*,*,#395,.T.);
#568=ORIENTED_EDGE('',*,*,#404,.T.);
#569=ORIENTED_EDGE('',*,*,#355,.T.);
#570=ORIENTED_EDGE('',*,*,#404,.F.);
#571=ORIENTED_EDGE('',*,*,#394,.T.);
#572=ORIENTED_EDGE('',*,*,#405,.T.);
#573=ORIENTED_EDGE('',*,*,#354,.T.);
#574=ORIENTED_EDGE('',*,*,#405,.F.);
#575=ORIENTED_EDGE('',*,*,#393,.T.);
#576=ORIENTED_EDGE('',*,*,#406,.T.);
#577=ORIENTED_EDGE('',*,*,#353,.T.);
#578=ORIENTED_EDGE('',*,*,#406,.F.);
#579=PLANE('',#645);
#580=PLANE('',#647);
#581=PLANE('',#649);
#582=PLANE('',#650);
#583=PLANE('',#655);
#584=PLANE('',#660);
#585=PLANE('',#661);
#586=PLANE('',#663);
#587=PLANE('',#665);
#588=PLANE('',#666);
#589=PLANE('',#667);
#590=PLANE('',#669);
#591=PLANE('',#670);
#592=PLANE('',#671);
#593=PLANE('',#673);
#594=PLANE('',#674);
#595=PLANE('',#675);
#596=PLANE('',#678);
#597=PLANE('',#683);
#598=PLANE('',#684);
#599=ADVANCED_FACE('',(#61,#29),#579,.T.);
#600=ADVANCED_FACE('',(#62,#30),#580,.T.);
#601=ADVANCED_FACE('',(#63),#581,.F.);
#602=ADVANCED_FACE('',(#64),#582,.F.);
#603=ADVANCED_FACE('',(#65,#31,#32,#33,#34),#583,.F.);
#604=ADVANCED_FACE('',(#66),#584,.T.);
#605=ADVANCED_FACE('',(#67),#585,.F.);
#606=ADVANCED_FACE('',(#68),#586,.F.);
#607=ADVANCED_FACE('',(#69),#587,.T.);
#608=ADVANCED_FACE('',(#70),#588,.T.);
#609=ADVANCED_FACE('',(#71,#35),#589,.F.);
#610=ADVANCED_FACE('',(#72),#590,.T.);
#611=ADVANCED_FACE('',(#73),#591,.T.);
#612=ADVANCED_FACE('',(#74,#36),#592,.T.);
#613=ADVANCED_FACE('',(#75),#593,.F.);
#614=ADVANCED_FACE('',(#76),#594,.F.);
#615=ADVANCED_FACE('',(#77),#595,.F.);
#616=ADVANCED_FACE('',(#78,#37,#38,#39,#40),#596,.F.);
#617=ADVANCED_FACE('',(#79),#597,.F.);
#618=ADVANCED_FACE('',(#80),#598,.F.);
#619=ADVANCED_FACE('',(#81),#17,.F.);
#620=ADVANCED_FACE('',(#82),#15,.F.);
#621=ADVANCED_FACE('',(#83),#18,.F.);
#622=ADVANCED_FACE('',(#84),#16,.F.);
#623=ADVANCED_FACE('',(#85),#19,.T.);
#624=ADVANCED_FACE('',(#86),#20,.F.);
#625=ADVANCED_FACE('',(#87),#21,.F.);
#626=ADVANCED_FACE('',(#88),#22,.T.);
#627=ADVANCED_FACE('',(#89),#23,.F.);
#628=ADVANCED_FACE('',(#90),#24,.F.);
#629=ADVANCED_FACE('',(#91),#25,.F.);
#630=ADVANCED_FACE('',(#92),#26,.F.);
#631=CLOSED_SHELL('',(#599,#600,#601,#602,#603,#604,#605,#606,#607,#608,
#609,#610,#611,#612,#613,#614,#615,#616,#617,#618,#619,#620,#621,#622,#623,
#624,#625,#626,#627,#628,#629,#630));
#632=DERIVED_UNIT_ELEMENT(#634,1.);
#633=DERIVED_UNIT_ELEMENT(#1053,-3.);
#634=(
MASS_UNIT()
NAMED_UNIT(*)
SI_UNIT(.KILO.,.GRAM.)
);
#635=DERIVED_UNIT((#632,#633));
#636=MEASURE_REPRESENTATION_ITEM('density measure',
POSITIVE_RATIO_MEASURE(1420.),#635);
#637=PROPERTY_DEFINITION_REPRESENTATION(#642,#639);
#638=PROPERTY_DEFINITION_REPRESENTATION(#643,#640);
#639=REPRESENTATION('material name',(#641),#1050);
#640=REPRESENTATION('density',(#636),#1050);
#641=DESCRIPTIVE_REPRESENTATION_ITEM('PET','PET');
#642=PROPERTY_DEFINITION('material property','material name',#1060);
#643=PROPERTY_DEFINITION('material property','density of part',#1060);
#644=AXIS2_PLACEMENT_3D('',#873,#699,#700);
#645=AXIS2_PLACEMENT_3D('',#874,#701,#702);
#646=AXIS2_PLACEMENT_3D('',#886,#708,#709);
#647=AXIS2_PLACEMENT_3D('',#887,#710,#711);
#648=AXIS2_PLACEMENT_3D('',#899,#717,#718);
#649=AXIS2_PLACEMENT_3D('',#900,#719,#720);
#650=AXIS2_PLACEMENT_3D('',#913,#727,#728);
#651=AXIS2_PLACEMENT_3D('',#915,#729,#730);
#652=AXIS2_PLACEMENT_3D('',#919,#732,#733);
#653=AXIS2_PLACEMENT_3D('',#923,#735,#736);
#654=AXIS2_PLACEMENT_3D('',#926,#738,#739);
#655=AXIS2_PLACEMENT_3D('',#936,#745,#746);
#656=AXIS2_PLACEMENT_3D('',#940,#749,#750);
#657=AXIS2_PLACEMENT_3D('',#942,#751,#752);
#658=AXIS2_PLACEMENT_3D('',#944,#753,#754);
#659=AXIS2_PLACEMENT_3D('',#946,#755,#756);
#660=AXIS2_PLACEMENT_3D('',#947,#757,#758);
#661=AXIS2_PLACEMENT_3D('',#953,#762,#763);
#662=AXIS2_PLACEMENT_3D('',#958,#766,#767);
#663=AXIS2_PLACEMENT_3D('',#964,#771,#772);
#664=AXIS2_PLACEMENT_3D('',#971,#776,#777);
#665=AXIS2_PLACEMENT_3D('',#975,#780,#781);
#666=AXIS2_PLACEMENT_3D('',#979,#784,#785);
#667=AXIS2_PLACEMENT_3D('',#981,#787,#788);
#668=AXIS2_PLACEMENT_3D('',#984,#790,#791);
#669=AXIS2_PLACEMENT_3D('',#985,#792,#793);
#670=AXIS2_PLACEMENT_3D('',#989,#796,#797);
#671=AXIS2_PLACEMENT_3D('',#991,#799,#800);
#672=AXIS2_PLACEMENT_3D('',#994,#802,#803);
#673=AXIS2_PLACEMENT_3D('',#995,#804,#805);
#674=AXIS2_PLACEMENT_3D('',#1000,#809,#810);
#675=AXIS2_PLACEMENT_3D('',#1005,#814,#815);
#676=AXIS2_PLACEMENT_3D('',#1009,#817,#818);
#677=AXIS2_PLACEMENT_3D('',#1010,#819,#820);
#678=AXIS2_PLACEMENT_3D('',#1011,#821,#822);
#679=AXIS2_PLACEMENT_3D('',#1015,#825,#826);
#680=AXIS2_PLACEMENT_3D('',#1017,#827,#828);
#681=AXIS2_PLACEMENT_3D('',#1019,#829,#830);
#682=AXIS2_PLACEMENT_3D('',#1021,#831,#832);
#683=AXIS2_PLACEMENT_3D('',#1022,#833,#834);
#684=AXIS2_PLACEMENT_3D('',#1023,#835,#836);
#685=AXIS2_PLACEMENT_3D('',#1024,#837,#838);
#686=AXIS2_PLACEMENT_3D('',#1027,#840,#841);
#687=AXIS2_PLACEMENT_3D('',#1028,#842,#843);
#688=AXIS2_PLACEMENT_3D('',#1030,#845,#846);
#689=AXIS2_PLACEMENT_3D('',#1033,#848,#849);
#690=AXIS2_PLACEMENT_3D('',#1034,#850,#851);
#691=AXIS2_PLACEMENT_3D('',#1036,#853,#854);
#692=AXIS2_PLACEMENT_3D('',#1037,#855,#856);
#693=AXIS2_PLACEMENT_3D('',#1038,#857,#858);
#694=AXIS2_PLACEMENT_3D('',#1039,#859,#860);
#695=AXIS2_PLACEMENT_3D('',#1040,#861,#862);
#696=AXIS2_PLACEMENT_3D('',#1042,#864,#865);
#697=AXIS2_PLACEMENT_3D('',#1044,#867,#868);
#698=AXIS2_PLACEMENT_3D('',#1046,#870,#871);
#699=DIRECTION('axis',(0.,0.,1.));
#700=DIRECTION('refdir',(1.,0.,0.));
#701=DIRECTION('center_axis',(-2.23271359601886E-79,-1.,9.11574503592941E-64));
#702=DIRECTION('ref_axis',(2.44929359829471E-16,-9.11574503592941E-64,-1.));
#703=DIRECTION('',(0.707106781186548,-6.44580513047329E-64,-0.707106781186547));
#704=DIRECTION('',(2.44929359829471E-16,-9.11574503592941E-64,-1.));
#705=DIRECTION('',(-1.,-5.61801162563065E-96,-2.44929359829471E-16));
#706=DIRECTION('',(0.707106781186548,6.44580513047329E-64,0.707106781186548));
#707=DIRECTION('',(-2.44929359829471E-16,9.11574503592941E-64,1.));
#708=DIRECTION('center_axis',(-2.23271359601886E-79,-1.,9.11574503592941E-64));
#709=DIRECTION('ref_axis',(2.44929359829471E-16,-9.11574503592941E-64,-1.));
#710=DIRECTION('center_axis',(-2.23271359601886E-79,-1.,9.11574503592941E-64));
#711=DIRECTION('ref_axis',(2.44929359829471E-16,-9.11574503592941E-64,-1.));
#712=DIRECTION('',(-1.,-5.61801162563065E-96,-2.44929359829471E-16));
#713=DIRECTION('',(2.44929359829471E-16,-9.11574503592941E-64,-1.));
#714=DIRECTION('',(0.707106781186547,6.44580513047329E-64,0.707106781186548));
#715=DIRECTION('',(2.44929359829471E-16,-9.11574503592941E-64,-1.));
#716=DIRECTION('',(0.707106781186548,-6.44580513047329E-64,-0.707106781186547));
#717=DIRECTION('center_axis',(-2.23271359601886E-79,-1.,9.11574503592941E-64));
#718=DIRECTION('ref_axis',(2.44929359829471E-16,-9.11574503592941E-64,-1.));
#719=DIRECTION('center_axis',(2.44929359829471E-16,-9.11574503592941E-64,
-1.));
#720=DIRECTION('ref_axis',(-1.,-5.61801162563065E-96,-2.44929359829471E-16));
#721=DIRECTION('',(1.,5.61801162563065E-96,2.44929359829471E-16));
#722=DIRECTION('',(0.707106781186548,0.707106781186548,1.73191211247099E-16));
#723=DIRECTION('',(-2.23271359601886E-79,-1.,9.11574503592941E-64));
#724=DIRECTION('',(1.,-1.66533453693773E-16,2.44929359829471E-16));
#725=DIRECTION('',(-2.23271359601886E-79,-1.,9.1157450359294E-64));
#726=DIRECTION('',(0.707106781186547,-0.707106781186548,1.73191211247099E-16));
#727=DIRECTION('center_axis',(-2.44929359829471E-16,9.11574503592941E-64,
1.));
#728=DIRECTION('ref_axis',(1.,5.61801162563065E-96,2.44929359829471E-16));
#729=DIRECTION('center_axis',(-2.44929359829471E-16,9.11574503592941E-64,
1.));
#730=DIRECTION('ref_axis',(1.,5.61801162563065E-96,2.44929359829471E-16));
#731=DIRECTION('',(0.707106781186548,-0.707106781186547,1.73191211247099E-16));
#732=DIRECTION('center_axis',(-2.44929359829471E-16,9.11574503592941E-64,
1.));
#733=DIRECTION('ref_axis',(1.,5.61801162563065E-96,2.44929359829471E-16));
#734=DIRECTION('',(1.,5.61801162563065E-96,2.44929359829471E-16));
#735=DIRECTION('center_axis',(-2.44929359829471E-16,9.11574503592941E-64,
1.));
#736=DIRECTION('ref_axis',(1.,5.61801162563065E-96,2.44929359829471E-16));
#737=DIRECTION('',(0.707106781186547,0.707106781186547,1.73191211247099E-16));
#738=DIRECTION('center_axis',(-2.44929359829471E-16,9.11574503592941E-64,
1.));
#739=DIRECTION('ref_axis',(1.,5.61801162563065E-96,2.44929359829471E-16));
#740=DIRECTION('',(-2.23271359601886E-79,-1.,9.11574503592941E-64));
#741=DIRECTION('',(-0.707106781186547,-0.707106781186547,-1.73191211247099E-16));
#742=DIRECTION('',(-1.,-5.61801162563065E-96,-2.44929359829471E-16));
#743=DIRECTION('',(-0.707106781186547,0.707106781186548,-1.73191211247099E-16));
#744=DIRECTION('',(-2.23271359601886E-79,-1.,9.11574503592941E-64));
#745=DIRECTION('center_axis',(-2.23271359601886E-79,-1.,9.11574503592941E-64));
#746=DIRECTION('ref_axis',(2.44929359829471E-16,-9.11574503592941E-64,-1.));
#747=DIRECTION('',(-2.44929359829471E-16,9.11574503592941E-64,1.));
#748=DIRECTION('',(2.44929359829471E-16,-9.11574503592941E-64,-1.));
#749=DIRECTION('center_axis',(2.23271359601886E-79,1.,-9.11574503592941E-64));
#750=DIRECTION('ref_axis',(-2.44929359829471E-16,9.11574503592941E-64,1.));
#751=DIRECTION('center_axis',(2.23271359601886E-79,1.,-9.11574503592941E-64));
#752=DIRECTION('ref_axis',(-2.44929359829471E-16,9.1157450359294E-64,1.));
#753=DIRECTION('center_axis',(2.23271359601886E-79,1.,-9.11574503592941E-64));
#754=DIRECTION('ref_axis',(-2.44929359829471E-16,9.1157450359294E-64,1.));
#755=DIRECTION('center_axis',(2.23271359601886E-79,1.,-9.11574503592941E-64));
#756=DIRECTION('ref_axis',(-2.44929359829471E-16,9.11574503592941E-64,1.));
#757=DIRECTION('center_axis',(-2.23271359601886E-79,-1.,9.11574503592941E-64));
#758=DIRECTION('ref_axis',(2.44929359829471E-16,-9.11574503592941E-64,-1.));
#759=DIRECTION('',(0.707106781186547,6.44580513047329E-64,0.707106781186548));
#760=DIRECTION('',(-1.,-5.61801162563065E-96,-2.44929359829471E-16));
#761=DIRECTION('',(0.707106781186547,-6.44580513047329E-64,-0.707106781186548));
#762=DIRECTION('center_axis',(-0.707106781186547,-6.44580513047329E-64,
-0.707106781186548));
#763=DIRECTION('ref_axis',(-0.707106781186548,6.44580513047329E-64,0.707106781186547));
#764=DIRECTION('',(2.23271359601886E-79,1.,-9.11574503592941E-64));
#765=DIRECTION('',(0.577350269189628,-0.577350269189625,-0.577350269189625));
#766=DIRECTION('center_axis',(-0.707106781186547,-6.44580513047329E-64,
-0.707106781186548));
#767=DIRECTION('ref_axis',(-0.707106781186548,6.44580513047329E-64,0.707106781186547));
#768=DIRECTION('',(-2.23271359601886E-79,-1.,9.11574503592941E-64));
#769=DIRECTION('',(-0.707106781186548,6.44580513047329E-64,0.707106781186547));
#770=DIRECTION('',(0.577350269189626,-0.577350269189626,-0.577350269189625));
#771=DIRECTION('center_axis',(0.707106781186548,-6.44580513047329E-64,-0.707106781186547));
#772=DIRECTION('ref_axis',(-0.707106781186547,-6.44580513047329E-64,-0.707106781186548));
#773=DIRECTION('',(0.577350269189625,0.577350269189626,0.577350269189626));
#774=DIRECTION('',(-0.707106781186547,-6.44580513047329E-64,-0.707106781186548));
#775=DIRECTION('',(-2.23271359601886E-79,-1.,9.11574503592941E-64));
#776=DIRECTION('center_axis',(0.707106781186548,-6.44580513047329E-64,-0.707106781186547));
#777=DIRECTION('ref_axis',(0.707106781186547,6.44580513047329E-64,0.707106781186548));
#778=DIRECTION('',(0.577350269189626,0.577350269189626,0.577350269189626));
#779=DIRECTION('',(-2.23271359601886E-79,-1.,9.11574503592941E-64));
#780=DIRECTION('center_axis',(-0.707106781186547,-6.44580513047329E-64,
-0.707106781186548));
#781=DIRECTION('ref_axis',(-0.707106781186548,6.44580513047329E-64,0.707106781186547));
#782=DIRECTION('',(-2.23271359601886E-79,-1.,9.11574503592941E-64));
#783=DIRECTION('',(0.707106781186548,-6.44580513047329E-64,-0.707106781186547));
#784=DIRECTION('center_axis',(-1.,-5.61801162563065E-96,-2.44929359829471E-16));
#785=DIRECTION('ref_axis',(-2.44929359829471E-16,9.11574503592941E-64,1.));
#786=DIRECTION('',(2.44929359829471E-16,-9.11574503592941E-64,-1.));
#787=DIRECTION('center_axis',(-2.23271359601886E-79,-1.,9.11574503592941E-64));
#788=DIRECTION('ref_axis',(2.44929359829471E-16,-9.11574503592941E-64,-1.));
#789=DIRECTION('',(-2.44929359829471E-16,9.1157450359294E-64,1.));
#790=DIRECTION('center_axis',(2.23271359601886E-79,1.,-9.11574503592941E-64));
#791=DIRECTION('ref_axis',(-2.44929359829471E-16,9.11574503592941E-64,1.));
#792=DIRECTION('center_axis',(1.,5.61801162563065E-96,2.44929359829471E-16));
#793=DIRECTION('ref_axis',(2.44929359829471E-16,-9.11574503592941E-64,-1.));
#794=DIRECTION('',(-2.23271359601886E-79,-1.,9.11574503592941E-64));
#795=DIRECTION('',(-2.44929359829471E-16,9.11574503592941E-64,1.));
#796=DIRECTION('center_axis',(0.707106781186548,-6.44580513047329E-64,-0.707106781186548));
#797=DIRECTION('ref_axis',(-0.707106781186548,-6.44580513047329E-64,-0.707106781186548));
#798=DIRECTION('',(0.707106781186548,6.44580513047329E-64,0.707106781186548));
#799=DIRECTION('center_axis',(2.23271359601886E-79,1.,-9.11574503592941E-64));
#800=DIRECTION('ref_axis',(-2.44929359829471E-16,9.11574503592941E-64,1.));
#801=DIRECTION('',(2.44929359829471E-16,-9.1157450359294E-64,-1.));
#802=DIRECTION('center_axis',(2.23271359601886E-79,1.,-9.11574503592941E-64));
#803=DIRECTION('ref_axis',(-2.44929359829471E-16,9.11574503592941E-64,1.));
#804=DIRECTION('center_axis',(0.707106781186547,0.707106781186548,1.73191211247099E-16));
#805=DIRECTION('ref_axis',(2.44929359829471E-16,-9.11574503592941E-64,-1.));
#806=DIRECTION('',(2.44929359829471E-16,-9.11574503592941E-64,-1.));
#807=DIRECTION('',(0.707106781186547,-0.707106781186548,1.73191211247099E-16));
#808=DIRECTION('',(2.4492935982947E-16,-9.1157450359294E-64,-1.));
#809=DIRECTION('center_axis',(-0.707106781186548,0.707106781186547,-1.73191211247099E-16));
#810=DIRECTION('ref_axis',(-2.44929359829471E-16,9.11574503592941E-64,1.));
#811=DIRECTION('',(2.4492935982947E-16,-9.1157450359294E-64,-1.));
#812=DIRECTION('',(0.707106781186548,0.707106781186547,1.73191211247099E-16));
#813=DIRECTION('',(2.44929359829471E-16,-9.11574503592941E-64,-1.));
#814=DIRECTION('center_axis',(-2.44929359829471E-16,9.11574503592941E-64,
1.));
#815=DIRECTION('ref_axis',(1.,5.61801162563065E-96,2.44929359829471E-16));
#816=DIRECTION('',(1.,5.61801162563065E-96,2.44929359829471E-16));
#817=DIRECTION('center_axis',(-2.44929359829471E-16,9.11574503592941E-64,
1.));
#818=DIRECTION('ref_axis',(1.,5.61801162563065E-96,2.44929359829471E-16));
#819=DIRECTION('center_axis',(-2.44929359829471E-16,9.11574503592941E-64,
1.));
#820=DIRECTION('ref_axis',(1.,5.61801162563065E-96,2.44929359829471E-16));
#821=DIRECTION('center_axis',(2.23271359601886E-79,1.,-9.11574503592941E-64));
#822=DIRECTION('ref_axis',(-2.44929359829471E-16,9.11574503592941E-64,1.));
#823=DIRECTION('',(2.4492935982947E-16,-9.1157450359294E-64,-1.));
#824=DIRECTION('',(2.4492935982947E-16,-9.1157450359294E-64,-1.));
#825=DIRECTION('center_axis',(2.23271359601886E-79,1.,-9.11574503592941E-64));
#826=DIRECTION('ref_axis',(-2.44929359829471E-16,9.11574503592941E-64,1.));
#827=DIRECTION('center_axis',(2.23271359601886E-79,1.,-9.11574503592941E-64));
#828=DIRECTION('ref_axis',(-2.44929359829471E-16,9.1157450359294E-64,1.));
#829=DIRECTION('center_axis',(2.23271359601886E-79,1.,-9.11574503592941E-64));
#830=DIRECTION('ref_axis',(-2.44929359829471E-16,9.1157450359294E-64,1.));
#831=DIRECTION('center_axis',(2.23271359601886E-79,1.,-9.11574503592941E-64));
#832=DIRECTION('ref_axis',(-2.44929359829471E-16,9.11574503592941E-64,1.));
#833=DIRECTION('center_axis',(0.707106781186548,-0.707106781186548,1.73191211247099E-16));
#834=DIRECTION('ref_axis',(2.44929359829471E-16,-9.11574503592941E-64,-1.));
#835=DIRECTION('center_axis',(-0.707106781186548,-0.707106781186547,-1.73191211247099E-16));
#836=DIRECTION('ref_axis',(-2.44929359829471E-16,9.11574503592941E-64,1.));
#837=DIRECTION('center_axis',(2.23271359601886E-79,1.,-9.11574503592941E-64));
#838=DIRECTION('ref_axis',(-2.44929359829471E-16,9.11574503592941E-64,1.));
#839=DIRECTION('',(2.23271359601886E-79,1.,-9.11574503592941E-64));
#840=DIRECTION('center_axis',(2.23271359601886E-79,1.,-9.11574503592941E-64));
#841=DIRECTION('ref_axis',(-2.44929359829471E-16,9.11574503592941E-64,1.));
#842=DIRECTION('center_axis',(2.23271359601886E-79,1.,-9.11574503592941E-64));
#843=DIRECTION('ref_axis',(-2.44929359829471E-16,9.11574503592941E-64,1.));
#844=DIRECTION('',(8.65956056235494E-17,0.707106781186547,-0.707106781186548));
#845=DIRECTION('center_axis',(2.23271359601886E-79,1.,-9.11574503592941E-64));
#846=DIRECTION('ref_axis',(-2.44929359829471E-16,9.11574503592941E-64,1.));
#847=DIRECTION('',(2.23271359601886E-79,1.,-9.11574503592941E-64));
#848=DIRECTION('center_axis',(2.23271359601886E-79,1.,-9.11574503592941E-64));
#849=DIRECTION('ref_axis',(-2.44929359829471E-16,9.11574503592941E-64,1.));
#850=DIRECTION('center_axis',(2.23271359601886E-79,1.,-9.11574503592941E-64));
#851=DIRECTION('ref_axis',(-2.44929359829471E-16,9.11574503592941E-64,1.));
#852=DIRECTION('',(8.65956056235492E-17,0.707106781186548,-0.707106781186547));
#853=DIRECTION('center_axis',(-2.44929359829471E-16,9.11574503592941E-64,
1.));
#854=DIRECTION('ref_axis',(1.,5.61801162563065E-96,2.44929359829471E-16));
#855=DIRECTION('center_axis',(-2.44929359829471E-16,9.11574503592941E-64,
1.));
#856=DIRECTION('ref_axis',(1.,5.61801162563065E-96,2.44929359829471E-16));
#857=DIRECTION('center_axis',(-2.44929359829471E-16,9.11574503592941E-64,
1.));
#858=DIRECTION('ref_axis',(1.,5.61801162563065E-96,2.44929359829471E-16));
#859=DIRECTION('center_axis',(-2.44929359829471E-16,9.11574503592941E-64,
1.));
#860=DIRECTION('ref_axis',(1.,5.61801162563065E-96,2.44929359829471E-16));
#861=DIRECTION('center_axis',(2.23271359601886E-79,1.,-9.11574503592941E-64));
#862=DIRECTION('ref_axis',(-2.44929359829471E-16,9.11574503592941E-64,1.));
#863=DIRECTION('',(2.23271359601886E-79,1.,-9.11574503592941E-64));
#864=DIRECTION('center_axis',(2.23271359601886E-79,1.,-9.11574503592941E-64));
#865=DIRECTION('ref_axis',(-2.44929359829471E-16,9.1157450359294E-64,1.));
#866=DIRECTION('',(2.23271359601886E-79,1.,-9.1157450359294E-64));
#867=DIRECTION('center_axis',(2.23271359601886E-79,1.,-9.11574503592941E-64));
#868=DIRECTION('ref_axis',(-2.44929359829471E-16,9.1157450359294E-64,1.));
#869=DIRECTION('',(2.23271359601886E-79,1.,-9.1157450359294E-64));
#870=DIRECTION('center_axis',(2.23271359601886E-79,1.,-9.11574503592941E-64));
#871=DIRECTION('ref_axis',(-2.44929359829471E-16,9.11574503592941E-64,1.));
#872=DIRECTION('',(2.23271359601886E-79,1.,-9.11574503592941E-64));
#873=CARTESIAN_POINT('',(0.,0.,0.));
#874=CARTESIAN_POINT('Origin',(8.99264068711924,15.,-138.5));
#875=CARTESIAN_POINT('',(73.4779220613578,15.,-146.477922061358));
#876=CARTESIAN_POINT('',(81.9926406871192,15.,-154.992640687119));
#877=CARTESIAN_POINT('',(73.4779220613578,15.,-146.477922061358));
#878=CARTESIAN_POINT('',(73.4779220613578,15.,-177.));
#879=CARTESIAN_POINT('',(73.4779220613578,15.,-146.477922061358));
#880=CARTESIAN_POINT('',(73.9926406871192,15.,-177.));
#881=CARTESIAN_POINT('',(73.9926406871192,15.,-177.));
#882=CARTESIAN_POINT('',(81.9926406871192,15.,-169.));
#883=CARTESIAN_POINT('',(73.9926406871192,15.,-177.));
#884=CARTESIAN_POINT('',(81.9926406871192,15.,-169.));
#885=CARTESIAN_POINT('',(77.9926406871192,15.,-163.7));
#886=CARTESIAN_POINT('Origin',(77.9926406871192,15.,-162.));
#887=CARTESIAN_POINT('Origin',(8.99264068711924,15.,-138.5));
#888=CARTESIAN_POINT('',(9.50735931288067,15.,-177.));
#889=CARTESIAN_POINT('',(8.99264068711925,15.,-177.));
#890=CARTESIAN_POINT('',(9.50735931288067,15.,-177.));
#891=CARTESIAN_POINT('',(9.50735931288068,15.,-146.492640687119));
#892=CARTESIAN_POINT('',(9.50735931288068,15.,-146.492640687119));
#893=CARTESIAN_POINT('',(0.992640687119248,15.,-155.007359312881));
#894=CARTESIAN_POINT('',(0.992640687119248,15.,-155.007359312881));
#895=CARTESIAN_POINT('',(0.992640687119248,15.,-169.));
#896=CARTESIAN_POINT('',(0.992640687119248,15.,-155.007359312881));
#897=CARTESIAN_POINT('',(0.992640687119248,15.,-169.));
#898=CARTESIAN_POINT('',(4.99264068711924,15.,-163.7));
#899=CARTESIAN_POINT('Origin',(4.99264068711925,15.,-162.));
#900=CARTESIAN_POINT('Origin',(8.99264068711924,31.,-138.5));
#901=CARTESIAN_POINT('',(22.9926406871193,31.,-138.5));
#902=CARTESIAN_POINT('',(59.9926406871192,31.,-138.5));
#903=CARTESIAN_POINT('',(22.9926406871193,31.,-138.5));
#904=CARTESIAN_POINT('',(17.5,25.5073593128807,-138.5));
#905=CARTESIAN_POINT('',(17.5,25.5073593128807,-138.5));
#906=CARTESIAN_POINT('',(17.5,15.,-138.5));
#907=CARTESIAN_POINT('',(17.5,25.5073593128807,-138.5));
#908=CARTESIAN_POINT('',(65.4999999999999,15.,-138.5));
#909=CARTESIAN_POINT('',(17.5,15.,-138.5));
#910=CARTESIAN_POINT('',(65.4999999999999,25.4926406871193,-138.5));
#911=CARTESIAN_POINT('',(65.4999999999999,25.4926406871193,-138.5));
#912=CARTESIAN_POINT('',(59.9926406871192,31.,-138.5));
#913=CARTESIAN_POINT('Origin',(8.99264068711925,31.,-177.));
#914=CARTESIAN_POINT('',(69.2352813742385,16.7573593128807,-177.));
#915=CARTESIAN_POINT('Origin',(73.4779220613578,21.,-177.));
#916=CARTESIAN_POINT('',(63.25,22.7426406871193,-177.));
#917=CARTESIAN_POINT('',(63.25,22.7426406871193,-177.));
#918=CARTESIAN_POINT('',(59.0073593128807,24.5,-177.));
#919=CARTESIAN_POINT('Origin',(59.0073593128807,18.5,-177.));
#920=CARTESIAN_POINT('',(23.9779220613578,24.5,-177.));
#921=CARTESIAN_POINT('',(23.9779220613578,24.5,-177.));
#922=CARTESIAN_POINT('',(19.7352813742385,22.7426406871193,-177.));
#923=CARTESIAN_POINT('Origin',(23.9779220613578,18.5,-177.));
#924=CARTESIAN_POINT('',(13.75,16.7573593128807,-177.));
#925=CARTESIAN_POINT('',(13.7499999999999,16.7573593128807,-177.));
#926=CARTESIAN_POINT('Origin',(9.50735931288067,21.,-177.));
#927=CARTESIAN_POINT('',(8.99264068711925,17.,-177.));
#928=CARTESIAN_POINT('',(8.99264068711925,17.,-177.));
#929=CARTESIAN_POINT('',(22.9926406871193,31.,-177.));
#930=CARTESIAN_POINT('',(22.9926406871193,31.,-177.));
#931=CARTESIAN_POINT('',(59.9926406871192,31.,-177.));
#932=CARTESIAN_POINT('',(59.9926406871192,31.,-177.));
#933=CARTESIAN_POINT('',(73.9926406871192,17.,-177.));
#934=CARTESIAN_POINT('',(73.9926406871192,17.,-177.));
#935=CARTESIAN_POINT('',(73.9926406871192,17.,-177.));
#936=CARTESIAN_POINT('Origin',(8.99264068711924,31.,-138.5));
#937=CARTESIAN_POINT('',(22.9926406871193,31.,-177.));
#938=CARTESIAN_POINT('',(59.9926406871192,31.,-138.5));
#939=CARTESIAN_POINT('',(48.9926406871192,31.,-167.25));
#940=CARTESIAN_POINT('Origin',(48.9926406871192,31.,-165.25));
#941=CARTESIAN_POINT('',(33.9926406871193,31.,-152.25));
#942=CARTESIAN_POINT('Origin',(33.9926406871193,31.,-150.25));
#943=CARTESIAN_POINT('',(48.9926406871193,31.,-152.25));
#944=CARTESIAN_POINT('Origin',(48.9926406871193,31.,-150.25));
#945=CARTESIAN_POINT('',(33.9926406871193,31.,-167.25));
#946=CARTESIAN_POINT('Origin',(33.9926406871193,31.,-165.25));
#947=CARTESIAN_POINT('Origin',(8.99264068711924,15.,-138.5));
#948=CARTESIAN_POINT('',(15.,15.,-141.));
#949=CARTESIAN_POINT('',(15.,15.,-141.));
#950=CARTESIAN_POINT('',(67.9999999999999,15.,-141.));
#951=CARTESIAN_POINT('',(67.9999999999999,15.,-141.));
#952=CARTESIAN_POINT('',(65.4999999999999,15.,-138.5));
#953=CARTESIAN_POINT('Origin',(73.9926406871192,31.,-146.992640687119));
#954=CARTESIAN_POINT('',(67.9999999999999,17.9926406871193,-141.));
#955=CARTESIAN_POINT('',(67.9999999999999,15.,-141.));
#956=CARTESIAN_POINT('',(69.2352813742385,16.7573593128807,-142.235281374239));
#957=CARTESIAN_POINT('',(67.9999999999999,17.9926406871193,-141.));
#958=CARTESIAN_POINT('Origin',(73.4779220613578,21.,-146.477922061358));
#959=CARTESIAN_POINT('',(81.9926406871192,17.,-154.992640687119));
#960=CARTESIAN_POINT('',(81.9926406871192,17.,-154.992640687119));
#961=CARTESIAN_POINT('',(73.9926406871192,17.,-146.992640687119));
#962=CARTESIAN_POINT('',(81.9926406871192,17.,-154.992640687119));
#963=CARTESIAN_POINT('',(65.4999999999999,25.4926406871193,-138.5));
#964=CARTESIAN_POINT('Origin',(8.99264068711925,31.,-147.007359312881));
#965=CARTESIAN_POINT('',(8.99264068711925,17.,-147.007359312881));
#966=CARTESIAN_POINT('',(8.99264068711926,17.,-147.007359312881));
#967=CARTESIAN_POINT('',(0.992640687119248,17.,-155.007359312881));
#968=CARTESIAN_POINT('',(8.99264068711925,17.,-147.007359312881));
#969=CARTESIAN_POINT('',(0.992640687119248,17.,-155.007359312881));
#970=CARTESIAN_POINT('',(13.75,16.7573593128807,-142.25));
#971=CARTESIAN_POINT('Origin',(9.50735931288068,21.,-146.492640687119));
#972=CARTESIAN_POINT('',(15.,18.0073593128807,-141.));
#973=CARTESIAN_POINT('',(13.75,16.7573593128807,-142.25));
#974=CARTESIAN_POINT('',(15.,18.0073593128807,-141.));
#975=CARTESIAN_POINT('Origin',(0.992640687119248,17.,-169.));
#976=CARTESIAN_POINT('',(0.992640687119248,17.,-169.));
#977=CARTESIAN_POINT('',(0.992640687119248,17.,-169.));
#978=CARTESIAN_POINT('',(0.992640687119248,17.,-169.));
#979=CARTESIAN_POINT('Origin',(0.992640687119248,17.,-155.007359312881));
#980=CARTESIAN_POINT('',(0.992640687119248,17.,-155.007359312881));
#981=CARTESIAN_POINT('Origin',(8.99264068711924,17.,-138.5));
#982=CARTESIAN_POINT('',(8.99264068711925,17.,-177.));
#983=CARTESIAN_POINT('',(4.99264068711925,17.,-165.15));
#984=CARTESIAN_POINT('Origin',(4.99264068711925,17.,-162.));
#985=CARTESIAN_POINT('Origin',(81.9926406871192,17.,-169.));
#986=CARTESIAN_POINT('',(81.9926406871192,17.,-169.));
#987=CARTESIAN_POINT('',(81.9926406871192,17.,-169.));
#988=CARTESIAN_POINT('',(81.9926406871192,17.,-169.));
#989=CARTESIAN_POINT('Origin',(73.9926406871192,17.,-177.));
#990=CARTESIAN_POINT('',(73.9926406871192,17.,-177.));
#991=CARTESIAN_POINT('Origin',(8.99264068711924,17.,-138.5));
#992=CARTESIAN_POINT('',(73.9926406871192,17.,-146.992640687119));
#993=CARTESIAN_POINT('',(77.9926406871192,17.,-165.15));
#994=CARTESIAN_POINT('Origin',(77.9926406871192,17.,-162.));
#995=CARTESIAN_POINT('Origin',(70.9926406871192,15.,-141.));
#996=CARTESIAN_POINT('',(69.2352813742385,16.7573593128807,-142.235281374239));
#997=CARTESIAN_POINT('',(63.25,22.7426406871193,-141.));
#998=CARTESIAN_POINT('',(63.25,22.7426406871193,-141.));
#999=CARTESIAN_POINT('',(63.25,22.7426406871193,-141.));
#1000=CARTESIAN_POINT('Origin',(21.4926406871192,24.5,-141.));
#1001=CARTESIAN_POINT('',(19.7352813742385,22.7426406871193,-141.));
#1002=CARTESIAN_POINT('',(19.7352813742385,22.7426406871193,-141.));
#1003=CARTESIAN_POINT('',(15.,18.0073593128807,-141.));
#1004=CARTESIAN_POINT('',(13.75,16.7573593128807,-142.25));
#1005=CARTESIAN_POINT('Origin',(8.99264068711925,15.,-141.));
#1006=CARTESIAN_POINT('',(23.9779220613578,24.5,-141.));
#1007=CARTESIAN_POINT('',(59.0073593128807,24.5,-141.));
#1008=CARTESIAN_POINT('',(23.9779220613578,24.5,-141.));
#1009=CARTESIAN_POINT('Origin',(59.0073593128807,18.5,-141.));
#1010=CARTESIAN_POINT('Origin',(23.9779220613578,18.5,-141.));
#1011=CARTESIAN_POINT('Origin',(61.4926406871192,24.5,-141.));
#1012=CARTESIAN_POINT('',(59.0073593128807,24.5,-141.));
#1013=CARTESIAN_POINT('',(23.9779220613578,24.5,-141.));
#1014=CARTESIAN_POINT('',(48.9926406871192,24.5,-167.25));
#1015=CARTESIAN_POINT('Origin',(48.9926406871192,24.5,-165.25));
#1016=CARTESIAN_POINT('',(33.9926406871193,24.5,-152.25));
#1017=CARTESIAN_POINT('Origin',(33.9926406871193,24.5,-150.25));
#1018=CARTESIAN_POINT('',(48.9926406871193,24.5,-152.25));
#1019=CARTESIAN_POINT('Origin',(48.9926406871193,24.5,-150.25));
#1020=CARTESIAN_POINT('',(33.9926406871193,24.5,-167.25));
#1021=CARTESIAN_POINT('Origin',(33.9926406871193,24.5,-165.25));
#1022=CARTESIAN_POINT('Origin',(22.9926406871193,31.,-138.5));
#1023=CARTESIAN_POINT('Origin',(59.9926406871192,31.,-138.5));
#1024=CARTESIAN_POINT('Origin',(77.9926406871192,17.,-162.));
#1025=CARTESIAN_POINT('',(77.9926406871192,15.55,-163.7));
#1026=CARTESIAN_POINT('',(77.9926406871192,17.,-163.7));
#1027=CARTESIAN_POINT('Origin',(77.9926406871192,15.55,-162.));
#1028=CARTESIAN_POINT('Origin',(77.9926406871192,17.,-162.));
#1029=CARTESIAN_POINT('',(77.9926406871192,17.,-165.15));
#1030=CARTESIAN_POINT('Origin',(4.99264068711925,17.,-162.));
#1031=CARTESIAN_POINT('',(4.99264068711925,15.55,-163.7));
#1032=CARTESIAN_POINT('',(4.99264068711925,17.,-163.7));
#1033=CARTESIAN_POINT('Origin',(4.99264068711925,15.55,-162.));
#1034=CARTESIAN_POINT('Origin',(4.99264068711925,17.,-162.));
#1035=CARTESIAN_POINT('',(4.99264068711925,17.,-165.15));
#1036=CARTESIAN_POINT('Origin',(73.4779220613578,21.,-138.5));
#1037=CARTESIAN_POINT('Origin',(59.0073593128807,18.5,-141.));
#1038=CARTESIAN_POINT('Origin',(23.9779220613578,18.5,-141.));
#1039=CARTESIAN_POINT('Origin',(9.50735931288068,21.,-141.));
#1040=CARTESIAN_POINT('Origin',(33.9926406871193,18.8431457505076,-165.25));
#1041=CARTESIAN_POINT('',(33.9926406871193,18.8431457505076,-167.25));
#1042=CARTESIAN_POINT('Origin',(48.9926406871193,18.8431457505076,-150.25));
#1043=CARTESIAN_POINT('',(48.9926406871193,18.8431457505076,-152.25));
#1044=CARTESIAN_POINT('Origin',(33.9926406871193,18.8431457505076,-150.25));
#1045=CARTESIAN_POINT('',(33.9926406871193,18.8431457505076,-152.25));
#1046=CARTESIAN_POINT('Origin',(48.9926406871192,18.8431457505076,-165.25));
#1047=CARTESIAN_POINT('',(48.9926406871192,18.8431457505076,-167.25));
#1048=UNCERTAINTY_MEASURE_WITH_UNIT(LENGTH_MEASURE(0.01),#1052,
'DISTANCE_ACCURACY_VALUE',
'Maximum model space distance between geometric entities at asserted c
onnectivities');
#1049=UNCERTAINTY_MEASURE_WITH_UNIT(LENGTH_MEASURE(0.01),#1052,
'DISTANCE_ACCURACY_VALUE',
'Maximum model space distance between geometric entities at asserted c
onnectivities');
#1050=(
GEOMETRIC_REPRESENTATION_CONTEXT(3)
GLOBAL_UNCERTAINTY_ASSIGNED_CONTEXT((#1048))
GLOBAL_UNIT_ASSIGNED_CONTEXT((#1052,#1054,#1055))
REPRESENTATION_CONTEXT('','3D')
);
#1051=(
GEOMETRIC_REPRESENTATION_CONTEXT(3)
GLOBAL_UNCERTAINTY_ASSIGNED_CONTEXT((#1049))
GLOBAL_UNIT_ASSIGNED_CONTEXT((#1052,#1054,#1055))
REPRESENTATION_CONTEXT('','3D')
);
#1052=(
LENGTH_UNIT()
NAMED_UNIT(*)
SI_UNIT(.MILLI.,.METRE.)
);
#1053=(
LENGTH_UNIT()
NAMED_UNIT(*)
SI_UNIT($,.METRE.)
);
#1054=(
NAMED_UNIT(*)
PLANE_ANGLE_UNIT()
SI_UNIT($,.RADIAN.)
);
#1055=(
NAMED_UNIT(*)
SI_UNIT($,.STERADIAN.)
SOLID_ANGLE_UNIT()
);
#1056=SHAPE_DEFINITION_REPRESENTATION(#1057,#1058);
#1057=PRODUCT_DEFINITION_SHAPE('',$,#1060);
#1058=SHAPE_REPRESENTATION('',(#644),#1050);
#1059=PRODUCT_DEFINITION_CONTEXT('part definition',#1064,'design');
#1060=PRODUCT_DEFINITION('2026-05-07-11-29-56-547','FusionComponent',#1061,
#1059);
#1061=PRODUCT_DEFINITION_FORMATION('',$,#1066);
#1062=PRODUCT_RELATED_PRODUCT_CATEGORY('FusionComponent',
'FusionComponent',(#1066));
#1063=APPLICATION_PROTOCOL_DEFINITION('international standard',
'automotive_design',2009,#1064);
#1064=APPLICATION_CONTEXT(
'Core Data for Automotive Mechanical Design Process');
#1065=PRODUCT_CONTEXT('part definition',#1064,'mechanical');
#1066=PRODUCT('2026-05-07-11-29-56-547','FusionComponent',$,(#1065));
#1067=PRESENTATION_STYLE_ASSIGNMENT((#1069));
#1068=PRESENTATION_STYLE_ASSIGNMENT((#1070));
#1069=SURFACE_STYLE_USAGE(.BOTH.,#1071);
#1070=SURFACE_STYLE_USAGE(.BOTH.,#1072);
#1071=SURFACE_SIDE_STYLE('',(#1073));
#1072=SURFACE_SIDE_STYLE('',(#1074));
#1073=SURFACE_STYLE_FILL_AREA(#1075);
#1074=SURFACE_STYLE_FILL_AREA(#1076);
#1075=FILL_AREA_STYLE('Steel - Satin',(#1077));
#1076=FILL_AREA_STYLE('EPX 82 (with Carbon M2 M3 L1 3D Printers)',(#1078));
#1077=FILL_AREA_STYLE_COLOUR('Steel - Satin',#1079);
#1078=FILL_AREA_STYLE_COLOUR(
'EPX 82 (with Carbon M2 M3 L1 3D Printers)',#1080);
#1079=COLOUR_RGB('Steel - Satin',0.627450980392157,0.627450980392157,0.627450980392157);
#1080=COLOUR_RGB('EPX 82 (with Carbon M2 M3 L1 3D Printers)',0.247058823529412,
0.247058823529412,0.247058823529412);
ENDSEC;
END-ISO-10303-21;
