ISO-10303-21;
HEADER;
/* Generated by software containing ST-Developer
 * from STEP Tools, Inc. (www.steptools.com) 
 */

FILE_DESCRIPTION(
/* description */ (''),
/* implementation_level */ '2;1');

FILE_NAME(
/* name */ 'Esiratta rumm.step',
/* time_stamp */ '2026-05-07T11:27:07+03:00',
/* author */ (''),
/* organization */ (''),
/* preprocessor_version */ 'ST-DEVELOPER v20.1',
/* originating_system */ 'Autodesk Translation Framework v15.8.0.0',
/* authorisation */ '');

FILE_SCHEMA (('AUTOMOTIVE_DESIGN { 1 0 10303 214 3 1 1 }'));
ENDSEC;

DATA;
#10=MECHANICAL_DESIGN_GEOMETRIC_PRESENTATION_REPRESENTATION('',(#13),#576);
#11=SHAPE_REPRESENTATION_RELATIONSHIP('SRR','None',#583,#12);
#12=ADVANCED_BREP_SHAPE_REPRESENTATION('',(#14),#575);
#13=STYLED_ITEM('',(#592),#14);
#14=MANIFOLD_SOLID_BREP('Body1',#316);
#15=FACE_BOUND('',#47,.T.);
#16=FACE_BOUND('',#48,.T.);
#17=FACE_BOUND('',#49,.T.);
#18=FACE_BOUND('',#50,.T.);
#19=FACE_BOUND('',#51,.T.);
#20=FACE_BOUND('',#53,.T.);
#21=FACE_BOUND('',#56,.T.);
#22=FACE_BOUND('',#59,.T.);
#23=PLANE('',#342);
#24=PLANE('',#348);
#25=PLANE('',#359);
#26=PLANE('',#368);
#27=FACE_OUTER_BOUND('',#42,.T.);
#28=FACE_OUTER_BOUND('',#43,.T.);
#29=FACE_OUTER_BOUND('',#44,.T.);
#30=FACE_OUTER_BOUND('',#45,.T.);
#31=FACE_OUTER_BOUND('',#46,.T.);
#32=FACE_OUTER_BOUND('',#52,.T.);
#33=FACE_OUTER_BOUND('',#54,.T.);
#34=FACE_OUTER_BOUND('',#55,.T.);
#35=FACE_OUTER_BOUND('',#57,.T.);
#36=FACE_OUTER_BOUND('',#58,.T.);
#37=FACE_OUTER_BOUND('',#60,.T.);
#38=FACE_OUTER_BOUND('',#61,.T.);
#39=FACE_OUTER_BOUND('',#62,.T.);
#40=FACE_OUTER_BOUND('',#63,.T.);
#41=FACE_OUTER_BOUND('',#64,.T.);
#42=EDGE_LOOP('',(#200,#201,#202,#203));
#43=EDGE_LOOP('',(#204,#205,#206,#207));
#44=EDGE_LOOP('',(#208,#209,#210,#211));
#45=EDGE_LOOP('',(#212,#213,#214,#215));
#46=EDGE_LOOP('',(#216));
#47=EDGE_LOOP('',(#217));
#48=EDGE_LOOP('',(#218));
#49=EDGE_LOOP('',(#219));
#50=EDGE_LOOP('',(#220));
#51=EDGE_LOOP('',(#221));
#52=EDGE_LOOP('',(#222));
#53=EDGE_LOOP('',(#223,#224,#225,#226,#227,#228,#229,#230,#231,#232,#233));
#54=EDGE_LOOP('',(#234,#235,#236,#237));
#55=EDGE_LOOP('',(#238,#239,#240,#241,#242,#243,#244,#245,#246));
#56=EDGE_LOOP('',(#247));
#57=EDGE_LOOP('',(#248,#249,#250,#251));
#58=EDGE_LOOP('',(#252));
#59=EDGE_LOOP('',(#253));
#60=EDGE_LOOP('',(#254,#255,#256,#257,#258,#259,#260,#261));
#61=EDGE_LOOP('',(#262,#263,#264,#265,#266,#267,#268,#269));
#62=EDGE_LOOP('',(#270,#271,#272,#273,#274,#275,#276,#277));
#63=EDGE_LOOP('',(#278,#279,#280,#281,#282,#283,#284,#285));
#64=EDGE_LOOP('',(#286,#287,#288,#289));
#65=CIRCLE('',#331,10.);
#66=CIRCLE('',#332,10.);
#67=CIRCLE('',#334,10.);
#68=CIRCLE('',#335,10.);
#69=CIRCLE('',#337,10.);
#70=CIRCLE('',#338,10.);
#71=CIRCLE('',#340,13.5);
#72=CIRCLE('',#341,13.5);
#73=CIRCLE('',#343,2.);
#74=CIRCLE('',#344,2.);
#75=CIRCLE('',#345,2.);
#76=CIRCLE('',#346,2.);
#77=CIRCLE('',#347,8.5);
#78=CIRCLE('',#349,2.);
#79=CIRCLE('',#350,2.);
#80=CIRCLE('',#351,2.);
#81=CIRCLE('',#352,2.);
#82=CIRCLE('',#353,10.);
#83=CIRCLE('',#354,2.);
#84=CIRCLE('',#355,2.);
#85=CIRCLE('',#356,2.);
#86=CIRCLE('',#358,10.);
#87=CIRCLE('',#360,2.);
#88=CIRCLE('',#361,2.);
#89=CIRCLE('',#362,2.);
#90=CIRCLE('',#363,2.);
#91=CIRCLE('',#364,2.);
#92=CIRCLE('',#365,7.25);
#93=CIRCLE('',#367,8.5);
#94=CIRCLE('',#369,7.25);
#95=LINE('',#486,#110);
#96=LINE('',#490,#111);
#97=LINE('',#495,#112);
#98=LINE('',#499,#113);
#99=LINE('',#504,#114);
#100=LINE('',#508,#115);
#101=LINE('',#514,#116);
#102=LINE('',#543,#117);
#103=LINE('',#546,#118);
#104=LINE('',#559,#119);
#105=LINE('',#564,#120);
#106=LINE('',#566,#121);
#107=LINE('',#568,#122);
#108=LINE('',#570,#123);
#109=LINE('',#572,#124);
#110=VECTOR('',#379,1.);
#111=VECTOR('',#382,1.);
#112=VECTOR('',#387,1.);
#113=VECTOR('',#390,1.);
#114=VECTOR('',#395,1.);
#115=VECTOR('',#398,1.);
#116=VECTOR('',#405,13.5);
#117=VECTOR('',#440,1.);
#118=VECTOR('',#443,1.);
#119=VECTOR('',#462,8.5);
#120=VECTOR('',#469,2.);
#121=VECTOR('',#472,2.);
#122=VECTOR('',#475,2.);
#123=VECTOR('',#478,2.);
#124=VECTOR('',#481,7.25);
#125=VERTEX_POINT('',#484);
#126=VERTEX_POINT('',#485);
#127=VERTEX_POINT('',#487);
#128=VERTEX_POINT('',#489);
#129=VERTEX_POINT('',#493);
#130=VERTEX_POINT('',#494);
#131=VERTEX_POINT('',#496);
#132=VERTEX_POINT('',#498);
#133=VERTEX_POINT('',#502);
#134=VERTEX_POINT('',#503);
#135=VERTEX_POINT('',#505);
#136=VERTEX_POINT('',#507);
#137=VERTEX_POINT('',#511);
#138=VERTEX_POINT('',#513);
#139=VERTEX_POINT('',#517);
#140=VERTEX_POINT('',#519);
#141=VERTEX_POINT('',#521);
#142=VERTEX_POINT('',#523);
#143=VERTEX_POINT('',#525);
#144=VERTEX_POINT('',#528);
#145=VERTEX_POINT('',#530);
#146=VERTEX_POINT('',#533);
#147=VERTEX_POINT('',#535);
#148=VERTEX_POINT('',#537);
#149=VERTEX_POINT('',#542);
#150=VERTEX_POINT('',#544);
#151=VERTEX_POINT('',#550);
#152=VERTEX_POINT('',#554);
#153=VERTEX_POINT('',#557);
#154=VERTEX_POINT('',#561);
#155=EDGE_CURVE('',#125,#126,#95,.T.);
#156=EDGE_CURVE('',#125,#127,#65,.T.);
#157=EDGE_CURVE('',#128,#127,#96,.F.);
#158=EDGE_CURVE('',#126,#128,#66,.T.);
#159=EDGE_CURVE('',#129,#130,#97,.F.);
#160=EDGE_CURVE('',#131,#129,#67,.T.);
#161=EDGE_CURVE('',#132,#131,#98,.T.);
#162=EDGE_CURVE('',#132,#130,#68,.T.);
#163=EDGE_CURVE('',#133,#134,#99,.F.);
#164=EDGE_CURVE('',#135,#133,#69,.T.);
#165=EDGE_CURVE('',#136,#135,#100,.T.);
#166=EDGE_CURVE('',#136,#134,#70,.T.);
#167=EDGE_CURVE('',#137,#137,#71,.T.);
#168=EDGE_CURVE('',#137,#138,#101,.T.);
#169=EDGE_CURVE('',#138,#138,#72,.T.);
#170=EDGE_CURVE('',#139,#139,#73,.T.);
#171=EDGE_CURVE('',#140,#140,#74,.T.);
#172=EDGE_CURVE('',#141,#141,#75,.T.);
#173=EDGE_CURVE('',#142,#142,#76,.T.);
#174=EDGE_CURVE('',#143,#143,#77,.T.);
#175=EDGE_CURVE('',#130,#144,#78,.T.);
#176=EDGE_CURVE('',#145,#132,#79,.T.);
#177=EDGE_CURVE('',#134,#145,#80,.T.);
#178=EDGE_CURVE('',#146,#136,#81,.T.);
#179=EDGE_CURVE('',#147,#146,#82,.T.);
#180=EDGE_CURVE('',#148,#147,#83,.T.);
#181=EDGE_CURVE('',#127,#148,#84,.T.);
#182=EDGE_CURVE('',#144,#125,#85,.T.);
#183=EDGE_CURVE('',#149,#146,#102,.F.);
#184=EDGE_CURVE('',#150,#149,#86,.T.);
#185=EDGE_CURVE('',#147,#150,#103,.T.);
#186=EDGE_CURVE('',#126,#129,#87,.T.);
#187=EDGE_CURVE('',#150,#128,#88,.T.);
#188=EDGE_CURVE('',#151,#149,#89,.T.);
#189=EDGE_CURVE('',#135,#151,#90,.T.);
#190=EDGE_CURVE('',#131,#133,#91,.T.);
#191=EDGE_CURVE('',#152,#152,#92,.T.);
#192=EDGE_CURVE('',#153,#153,#93,.T.);
#193=EDGE_CURVE('',#153,#143,#104,.T.);
#194=EDGE_CURVE('',#154,#154,#94,.T.);
#195=EDGE_CURVE('',#142,#148,#105,.T.);
#196=EDGE_CURVE('',#141,#151,#106,.T.);
#197=EDGE_CURVE('',#140,#145,#107,.T.);
#198=EDGE_CURVE('',#139,#144,#108,.T.);
#199=EDGE_CURVE('',#154,#152,#109,.T.);
#200=ORIENTED_EDGE('',*,*,#155,.F.);
#201=ORIENTED_EDGE('',*,*,#156,.T.);
#202=ORIENTED_EDGE('',*,*,#157,.F.);
#203=ORIENTED_EDGE('',*,*,#158,.F.);
#204=ORIENTED_EDGE('',*,*,#159,.F.);
#205=ORIENTED_EDGE('',*,*,#160,.F.);
#206=ORIENTED_EDGE('',*,*,#161,.F.);
#207=ORIENTED_EDGE('',*,*,#162,.T.);
#208=ORIENTED_EDGE('',*,*,#163,.F.);
#209=ORIENTED_EDGE('',*,*,#164,.F.);
#210=ORIENTED_EDGE('',*,*,#165,.F.);
#211=ORIENTED_EDGE('',*,*,#166,.T.);
#212=ORIENTED_EDGE('',*,*,#167,.T.);
#213=ORIENTED_EDGE('',*,*,#168,.T.);
#214=ORIENTED_EDGE('',*,*,#169,.F.);
#215=ORIENTED_EDGE('',*,*,#168,.F.);
#216=ORIENTED_EDGE('',*,*,#167,.F.);
#217=ORIENTED_EDGE('',*,*,#170,.T.);
#218=ORIENTED_EDGE('',*,*,#171,.T.);
#219=ORIENTED_EDGE('',*,*,#172,.T.);
#220=ORIENTED_EDGE('',*,*,#173,.T.);
#221=ORIENTED_EDGE('',*,*,#174,.F.);
#222=ORIENTED_EDGE('',*,*,#169,.T.);
#223=ORIENTED_EDGE('',*,*,#175,.F.);
#224=ORIENTED_EDGE('',*,*,#162,.F.);
#225=ORIENTED_EDGE('',*,*,#176,.F.);
#226=ORIENTED_EDGE('',*,*,#177,.F.);
#227=ORIENTED_EDGE('',*,*,#166,.F.);
#228=ORIENTED_EDGE('',*,*,#178,.F.);
#229=ORIENTED_EDGE('',*,*,#179,.F.);
#230=ORIENTED_EDGE('',*,*,#180,.F.);
#231=ORIENTED_EDGE('',*,*,#181,.F.);
#232=ORIENTED_EDGE('',*,*,#156,.F.);
#233=ORIENTED_EDGE('',*,*,#182,.F.);
#234=ORIENTED_EDGE('',*,*,#183,.F.);
#235=ORIENTED_EDGE('',*,*,#184,.F.);
#236=ORIENTED_EDGE('',*,*,#185,.F.);
#237=ORIENTED_EDGE('',*,*,#179,.T.);
#238=ORIENTED_EDGE('',*,*,#186,.F.);
#239=ORIENTED_EDGE('',*,*,#158,.T.);
#240=ORIENTED_EDGE('',*,*,#187,.F.);
#241=ORIENTED_EDGE('',*,*,#184,.T.);
#242=ORIENTED_EDGE('',*,*,#188,.F.);
#243=ORIENTED_EDGE('',*,*,#189,.F.);
#244=ORIENTED_EDGE('',*,*,#164,.T.);
#245=ORIENTED_EDGE('',*,*,#190,.F.);
#246=ORIENTED_EDGE('',*,*,#160,.T.);
#247=ORIENTED_EDGE('',*,*,#191,.F.);
#248=ORIENTED_EDGE('',*,*,#192,.F.);
#249=ORIENTED_EDGE('',*,*,#193,.T.);
#250=ORIENTED_EDGE('',*,*,#174,.T.);
#251=ORIENTED_EDGE('',*,*,#193,.F.);
#252=ORIENTED_EDGE('',*,*,#192,.T.);
#253=ORIENTED_EDGE('',*,*,#194,.F.);
#254=ORIENTED_EDGE('',*,*,#173,.F.);
#255=ORIENTED_EDGE('',*,*,#195,.T.);
#256=ORIENTED_EDGE('',*,*,#180,.T.);
#257=ORIENTED_EDGE('',*,*,#185,.T.);
#258=ORIENTED_EDGE('',*,*,#187,.T.);
#259=ORIENTED_EDGE('',*,*,#157,.T.);
#260=ORIENTED_EDGE('',*,*,#181,.T.);
#261=ORIENTED_EDGE('',*,*,#195,.F.);
#262=ORIENTED_EDGE('',*,*,#172,.F.);
#263=ORIENTED_EDGE('',*,*,#196,.T.);
#264=ORIENTED_EDGE('',*,*,#188,.T.);
#265=ORIENTED_EDGE('',*,*,#183,.T.);
#266=ORIENTED_EDGE('',*,*,#178,.T.);
#267=ORIENTED_EDGE('',*,*,#165,.T.);
#268=ORIENTED_EDGE('',*,*,#189,.T.);
#269=ORIENTED_EDGE('',*,*,#196,.F.);
#270=ORIENTED_EDGE('',*,*,#171,.F.);
#271=ORIENTED_EDGE('',*,*,#197,.T.);
#272=ORIENTED_EDGE('',*,*,#176,.T.);
#273=ORIENTED_EDGE('',*,*,#161,.T.);
#274=ORIENTED_EDGE('',*,*,#190,.T.);
#275=ORIENTED_EDGE('',*,*,#163,.T.);
#276=ORIENTED_EDGE('',*,*,#177,.T.);
#277=ORIENTED_EDGE('',*,*,#197,.F.);
#278=ORIENTED_EDGE('',*,*,#170,.F.);
#279=ORIENTED_EDGE('',*,*,#198,.T.);
#280=ORIENTED_EDGE('',*,*,#182,.T.);
#281=ORIENTED_EDGE('',*,*,#155,.T.);
#282=ORIENTED_EDGE('',*,*,#186,.T.);
#283=ORIENTED_EDGE('',*,*,#159,.T.);
#284=ORIENTED_EDGE('',*,*,#175,.T.);
#285=ORIENTED_EDGE('',*,*,#198,.F.);
#286=ORIENTED_EDGE('',*,*,#194,.T.);
#287=ORIENTED_EDGE('',*,*,#199,.T.);
#288=ORIENTED_EDGE('',*,*,#191,.T.);
#289=ORIENTED_EDGE('',*,*,#199,.F.);
#290=CYLINDRICAL_SURFACE('',#330,10.);
#291=CYLINDRICAL_SURFACE('',#333,10.);
#292=CYLINDRICAL_SURFACE('',#336,10.);
#293=CYLINDRICAL_SURFACE('',#339,13.5);
#294=CYLINDRICAL_SURFACE('',#357,10.);
#295=CYLINDRICAL_SURFACE('',#366,8.5);
#296=CYLINDRICAL_SURFACE('',#370,2.);
#297=CYLINDRICAL_SURFACE('',#371,2.);
#298=CYLINDRICAL_SURFACE('',#372,2.);
#299=CYLINDRICAL_SURFACE('',#373,2.);
#300=CYLINDRICAL_SURFACE('',#374,7.25);
#301=ADVANCED_FACE('',(#27),#290,.T.);
#302=ADVANCED_FACE('',(#28),#291,.T.);
#303=ADVANCED_FACE('',(#29),#292,.T.);
#304=ADVANCED_FACE('',(#30),#293,.T.);
#305=ADVANCED_FACE('',(#31,#15,#16,#17,#18,#19),#23,.F.);
#306=ADVANCED_FACE('',(#32,#20),#24,.T.);
#307=ADVANCED_FACE('',(#33),#294,.T.);
#308=ADVANCED_FACE('',(#34,#21),#25,.T.);
#309=ADVANCED_FACE('',(#35),#295,.F.);
#310=ADVANCED_FACE('',(#36,#22),#26,.T.);
#311=ADVANCED_FACE('',(#37),#296,.F.);
#312=ADVANCED_FACE('',(#38),#297,.F.);
#313=ADVANCED_FACE('',(#39),#298,.F.);
#314=ADVANCED_FACE('',(#40),#299,.F.);
#315=ADVANCED_FACE('',(#41),#300,.F.);
#316=CLOSED_SHELL('',(#301,#302,#303,#304,#305,#306,#307,#308,#309,#310,
#311,#312,#313,#314,#315));
#317=DERIVED_UNIT_ELEMENT(#319,1.);
#318=DERIVED_UNIT_ELEMENT(#578,-3.);
#319=(
MASS_UNIT()
NAMED_UNIT(*)
SI_UNIT(.KILO.,.GRAM.)
);
#320=DERIVED_UNIT((#317,#318));
#321=MEASURE_REPRESENTATION_ITEM('density measure',
POSITIVE_RATIO_MEASURE(1420.),#320);
#322=PROPERTY_DEFINITION_REPRESENTATION(#327,#324);
#323=PROPERTY_DEFINITION_REPRESENTATION(#328,#325);
#324=REPRESENTATION('material name',(#326),#575);
#325=REPRESENTATION('density',(#321),#575);
#326=DESCRIPTIVE_REPRESENTATION_ITEM('PET','PET');
#327=PROPERTY_DEFINITION('material property','material name',#585);
#328=PROPERTY_DEFINITION('material property','density of part',#585);
#329=AXIS2_PLACEMENT_3D('',#482,#375,#376);
#330=AXIS2_PLACEMENT_3D('',#483,#377,#378);
#331=AXIS2_PLACEMENT_3D('',#488,#380,#381);
#332=AXIS2_PLACEMENT_3D('',#491,#383,#384);
#333=AXIS2_PLACEMENT_3D('',#492,#385,#386);
#334=AXIS2_PLACEMENT_3D('',#497,#388,#389);
#335=AXIS2_PLACEMENT_3D('',#500,#391,#392);
#336=AXIS2_PLACEMENT_3D('',#501,#393,#394);
#337=AXIS2_PLACEMENT_3D('',#506,#396,#397);
#338=AXIS2_PLACEMENT_3D('',#509,#399,#400);
#339=AXIS2_PLACEMENT_3D('',#510,#401,#402);
#340=AXIS2_PLACEMENT_3D('',#512,#403,#404);
#341=AXIS2_PLACEMENT_3D('',#515,#406,#407);
#342=AXIS2_PLACEMENT_3D('',#516,#408,#409);
#343=AXIS2_PLACEMENT_3D('',#518,#410,#411);
#344=AXIS2_PLACEMENT_3D('',#520,#412,#413);
#345=AXIS2_PLACEMENT_3D('',#522,#414,#415);
#346=AXIS2_PLACEMENT_3D('',#524,#416,#417);
#347=AXIS2_PLACEMENT_3D('',#526,#418,#419);
#348=AXIS2_PLACEMENT_3D('',#527,#420,#421);
#349=AXIS2_PLACEMENT_3D('',#529,#422,#423);
#350=AXIS2_PLACEMENT_3D('',#531,#424,#425);
#351=AXIS2_PLACEMENT_3D('',#532,#426,#427);
#352=AXIS2_PLACEMENT_3D('',#534,#428,#429);
#353=AXIS2_PLACEMENT_3D('',#536,#430,#431);
#354=AXIS2_PLACEMENT_3D('',#538,#432,#433);
#355=AXIS2_PLACEMENT_3D('',#539,#434,#435);
#356=AXIS2_PLACEMENT_3D('',#540,#436,#437);
#357=AXIS2_PLACEMENT_3D('',#541,#438,#439);
#358=AXIS2_PLACEMENT_3D('',#545,#441,#442);
#359=AXIS2_PLACEMENT_3D('',#547,#444,#445);
#360=AXIS2_PLACEMENT_3D('',#548,#446,#447);
#361=AXIS2_PLACEMENT_3D('',#549,#448,#449);
#362=AXIS2_PLACEMENT_3D('',#551,#450,#451);
#363=AXIS2_PLACEMENT_3D('',#552,#452,#453);
#364=AXIS2_PLACEMENT_3D('',#553,#454,#455);
#365=AXIS2_PLACEMENT_3D('',#555,#456,#457);
#366=AXIS2_PLACEMENT_3D('',#556,#458,#459);
#367=AXIS2_PLACEMENT_3D('',#558,#460,#461);
#368=AXIS2_PLACEMENT_3D('',#560,#463,#464);
#369=AXIS2_PLACEMENT_3D('',#562,#465,#466);
#370=AXIS2_PLACEMENT_3D('',#563,#467,#468);
#371=AXIS2_PLACEMENT_3D('',#565,#470,#471);
#372=AXIS2_PLACEMENT_3D('',#567,#473,#474);
#373=AXIS2_PLACEMENT_3D('',#569,#476,#477);
#374=AXIS2_PLACEMENT_3D('',#571,#479,#480);
#375=DIRECTION('axis',(0.,0.,1.));
#376=DIRECTION('refdir',(1.,0.,0.));
#377=DIRECTION('center_axis',(0.,1.,0.));
#378=DIRECTION('ref_axis',(0.,0.,1.));
#379=DIRECTION('',(0.,1.,0.));
#380=DIRECTION('center_axis',(0.,1.,0.));
#381=DIRECTION('ref_axis',(0.,0.,1.));
#382=DIRECTION('',(0.,1.,0.));
#383=DIRECTION('center_axis',(0.,1.,0.));
#384=DIRECTION('ref_axis',(0.,0.,1.));
#385=DIRECTION('center_axis',(0.,1.,0.));
#386=DIRECTION('ref_axis',(0.,0.,1.));
#387=DIRECTION('',(0.,1.,0.));
#388=DIRECTION('center_axis',(0.,1.,0.));
#389=DIRECTION('ref_axis',(0.,0.,1.));
#390=DIRECTION('',(0.,1.,0.));
#391=DIRECTION('center_axis',(0.,1.,0.));
#392=DIRECTION('ref_axis',(0.,0.,1.));
#393=DIRECTION('center_axis',(0.,1.,0.));
#394=DIRECTION('ref_axis',(0.,0.,1.));
#395=DIRECTION('',(0.,1.,0.));
#396=DIRECTION('center_axis',(0.,1.,0.));
#397=DIRECTION('ref_axis',(0.,0.,1.));
#398=DIRECTION('',(0.,1.,0.));
#399=DIRECTION('center_axis',(0.,1.,0.));
#400=DIRECTION('ref_axis',(0.,0.,1.));
#401=DIRECTION('center_axis',(0.,-1.,0.));
#402=DIRECTION('ref_axis',(0.,0.,-1.));
#403=DIRECTION('center_axis',(0.,1.,0.));
#404=DIRECTION('ref_axis',(0.,0.,1.));
#405=DIRECTION('',(0.,1.,0.));
#406=DIRECTION('center_axis',(0.,1.,0.));
#407=DIRECTION('ref_axis',(0.,0.,1.));
#408=DIRECTION('center_axis',(0.,1.,0.));
#409=DIRECTION('ref_axis',(0.,0.,1.));
#410=DIRECTION('center_axis',(0.,1.,0.));
#411=DIRECTION('ref_axis',(0.,0.,1.));
#412=DIRECTION('center_axis',(0.,1.,0.));
#413=DIRECTION('ref_axis',(0.,0.,1.));
#414=DIRECTION('center_axis',(0.,1.,0.));
#415=DIRECTION('ref_axis',(0.,0.,1.));
#416=DIRECTION('center_axis',(0.,1.,0.));
#417=DIRECTION('ref_axis',(0.,0.,1.));
#418=DIRECTION('center_axis',(0.,-1.,0.));
#419=DIRECTION('ref_axis',(0.,0.,-1.));
#420=DIRECTION('center_axis',(0.,1.,0.));
#421=DIRECTION('ref_axis',(0.,0.,1.));
#422=DIRECTION('center_axis',(0.,1.,0.));
#423=DIRECTION('ref_axis',(0.,0.,1.));
#424=DIRECTION('center_axis',(0.,1.,0.));
#425=DIRECTION('ref_axis',(0.,0.,1.));
#426=DIRECTION('center_axis',(0.,1.,0.));
#427=DIRECTION('ref_axis',(0.,0.,1.));
#428=DIRECTION('center_axis',(0.,1.,0.));
#429=DIRECTION('ref_axis',(0.,0.,1.));
#430=DIRECTION('center_axis',(0.,1.,0.));
#431=DIRECTION('ref_axis',(0.,0.,1.));
#432=DIRECTION('center_axis',(0.,1.,0.));
#433=DIRECTION('ref_axis',(0.,0.,1.));
#434=DIRECTION('center_axis',(0.,1.,0.));
#435=DIRECTION('ref_axis',(0.,0.,1.));
#436=DIRECTION('center_axis',(0.,1.,0.));
#437=DIRECTION('ref_axis',(0.,0.,1.));
#438=DIRECTION('center_axis',(0.,1.,0.));
#439=DIRECTION('ref_axis',(0.,0.,1.));
#440=DIRECTION('',(0.,1.,0.));
#441=DIRECTION('center_axis',(0.,1.,0.));
#442=DIRECTION('ref_axis',(0.,0.,1.));
#443=DIRECTION('',(0.,1.,0.));
#444=DIRECTION('center_axis',(0.,1.,0.));
#445=DIRECTION('ref_axis',(0.,0.,1.));
#446=DIRECTION('center_axis',(0.,1.,0.));
#447=DIRECTION('ref_axis',(0.,0.,1.));
#448=DIRECTION('center_axis',(0.,1.,0.));
#449=DIRECTION('ref_axis',(0.,0.,1.));
#450=DIRECTION('center_axis',(0.,1.,0.));
#451=DIRECTION('ref_axis',(0.,0.,1.));
#452=DIRECTION('center_axis',(0.,1.,0.));
#453=DIRECTION('ref_axis',(0.,0.,1.));
#454=DIRECTION('center_axis',(0.,1.,0.));
#455=DIRECTION('ref_axis',(0.,0.,1.));
#456=DIRECTION('center_axis',(0.,1.,0.));
#457=DIRECTION('ref_axis',(0.,0.,1.));
#458=DIRECTION('center_axis',(0.,-1.,0.));
#459=DIRECTION('ref_axis',(0.,0.,-1.));
#460=DIRECTION('center_axis',(0.,-1.,0.));
#461=DIRECTION('ref_axis',(0.,0.,-1.));
#462=DIRECTION('',(0.,-1.,0.));
#463=DIRECTION('center_axis',(0.,-1.,0.));
#464=DIRECTION('ref_axis',(0.,0.,-1.));
#465=DIRECTION('center_axis',(0.,-1.,0.));
#466=DIRECTION('ref_axis',(0.,0.,-1.));
#467=DIRECTION('center_axis',(0.,1.,0.));
#468=DIRECTION('ref_axis',(0.,0.,1.));
#469=DIRECTION('',(0.,1.,0.));
#470=DIRECTION('center_axis',(0.,1.,0.));
#471=DIRECTION('ref_axis',(0.,0.,1.));
#472=DIRECTION('',(0.,1.,0.));
#473=DIRECTION('center_axis',(0.,1.,0.));
#474=DIRECTION('ref_axis',(0.,0.,1.));
#475=DIRECTION('',(0.,1.,0.));
#476=DIRECTION('center_axis',(0.,1.,0.));
#477=DIRECTION('ref_axis',(0.,0.,1.));
#478=DIRECTION('',(0.,1.,0.));
#479=DIRECTION('center_axis',(0.,1.,0.));
#480=DIRECTION('ref_axis',(0.,0.,1.));
#481=DIRECTION('',(0.,1.,0.));
#482=CARTESIAN_POINT('',(0.,0.,0.));
#483=CARTESIAN_POINT('Origin',(0.,4.,0.));
#484=CARTESIAN_POINT('',(-1.70446265876917,4.,-9.85366972477064));
#485=CARTESIAN_POINT('',(-1.70446265876917,5.,-9.85366972477064));
#486=CARTESIAN_POINT('',(-1.70446265876917,4.,-9.85366972477064));
#487=CARTESIAN_POINT('',(-9.85366972477064,4.,-1.70446265876916));
#488=CARTESIAN_POINT('Origin',(0.,4.,0.));
#489=CARTESIAN_POINT('',(-9.85366972477064,5.,-1.70446265876917));
#490=CARTESIAN_POINT('',(-9.85366972477064,4.,-1.70446265876917));
#491=CARTESIAN_POINT('Origin',(0.,5.,0.));
#492=CARTESIAN_POINT('Origin',(0.,4.,0.));
#493=CARTESIAN_POINT('',(1.70446265876917,5.,-9.85366972477064));
#494=CARTESIAN_POINT('',(1.70446265876917,4.,-9.85366972477064));
#495=CARTESIAN_POINT('',(1.70446265876917,4.,-9.85366972477064));
#496=CARTESIAN_POINT('',(9.85366972477064,5.,-1.70446265876917));
#497=CARTESIAN_POINT('Origin',(0.,5.,0.));
#498=CARTESIAN_POINT('',(9.85366972477064,4.,-1.70446265876917));
#499=CARTESIAN_POINT('',(9.85366972477064,4.,-1.70446265876917));
#500=CARTESIAN_POINT('Origin',(0.,4.,0.));
#501=CARTESIAN_POINT('Origin',(0.,4.,0.));
#502=CARTESIAN_POINT('',(9.85366972477064,5.,1.70446265876917));
#503=CARTESIAN_POINT('',(9.85366972477064,4.,1.70446265876917));
#504=CARTESIAN_POINT('',(9.85366972477064,4.,1.70446265876917));
#505=CARTESIAN_POINT('',(1.70446265876917,5.,9.85366972477064));
#506=CARTESIAN_POINT('Origin',(0.,5.,0.));
#507=CARTESIAN_POINT('',(1.70446265876917,4.,9.85366972477064));
#508=CARTESIAN_POINT('',(1.70446265876916,4.,9.85366972477064));
#509=CARTESIAN_POINT('Origin',(0.,4.,0.));
#510=CARTESIAN_POINT('Origin',(0.,5.,0.));
#511=CARTESIAN_POINT('',(0.,0.,13.5));
#512=CARTESIAN_POINT('Origin',(0.,0.,0.));
#513=CARTESIAN_POINT('',(0.,4.,13.5));
#514=CARTESIAN_POINT('',(-1.65327317884893E-15,5.,13.5));
#515=CARTESIAN_POINT('Origin',(0.,4.,0.));
#516=CARTESIAN_POINT('Origin',(0.,0.,0.));
#517=CARTESIAN_POINT('',(-2.44929359829471E-16,0.,-12.9));
#518=CARTESIAN_POINT('Origin',(0.,0.,-10.9));
#519=CARTESIAN_POINT('',(10.9,0.,-2.));
#520=CARTESIAN_POINT('Origin',(10.9,0.,0.));
#521=CARTESIAN_POINT('',(-2.84701457379468E-15,0.,8.9));
#522=CARTESIAN_POINT('Origin',(-2.60208521396521E-15,0.,10.9));
#523=CARTESIAN_POINT('',(-10.9,0.,-2.));
#524=CARTESIAN_POINT('Origin',(-10.9,0.,0.));
#525=CARTESIAN_POINT('',(-1.04094977927525E-15,0.,8.5));
#526=CARTESIAN_POINT('Origin',(0.,0.,0.));
#527=CARTESIAN_POINT('Origin',(0.,4.,0.));
#528=CARTESIAN_POINT('',(-2.44929359829471E-16,4.,-12.9));
#529=CARTESIAN_POINT('Origin',(0.,4.,-10.9));
#530=CARTESIAN_POINT('',(10.9,4.,-2.));
#531=CARTESIAN_POINT('Origin',(10.9,4.,0.));
#532=CARTESIAN_POINT('Origin',(10.9,4.,0.));
#533=CARTESIAN_POINT('',(-1.70446265876917,4.,9.85366972477064));
#534=CARTESIAN_POINT('Origin',(-2.60208521396521E-15,4.,10.9));
#535=CARTESIAN_POINT('',(-9.85366972477064,4.,1.70446265876917));
#536=CARTESIAN_POINT('Origin',(0.,4.,0.));
#537=CARTESIAN_POINT('',(-10.9,4.,-2.));
#538=CARTESIAN_POINT('Origin',(-10.9,4.,0.));
#539=CARTESIAN_POINT('Origin',(-10.9,4.,0.));
#540=CARTESIAN_POINT('Origin',(0.,4.,-10.9));
#541=CARTESIAN_POINT('Origin',(0.,4.,0.));
#542=CARTESIAN_POINT('',(-1.70446265876917,5.,9.85366972477064));
#543=CARTESIAN_POINT('',(-1.70446265876917,4.,9.85366972477064));
#544=CARTESIAN_POINT('',(-9.85366972477064,5.,1.70446265876917));
#545=CARTESIAN_POINT('Origin',(0.,5.,0.));
#546=CARTESIAN_POINT('',(-9.85366972477064,4.,1.70446265876917));
#547=CARTESIAN_POINT('Origin',(0.,5.,0.));
#548=CARTESIAN_POINT('Origin',(0.,5.,-10.9));
#549=CARTESIAN_POINT('Origin',(-10.9,5.,0.));
#550=CARTESIAN_POINT('',(-2.84701457379468E-15,5.,8.9));
#551=CARTESIAN_POINT('Origin',(-2.60208521396521E-15,5.,10.9));
#552=CARTESIAN_POINT('Origin',(-2.60208521396521E-15,5.,10.9));
#553=CARTESIAN_POINT('Origin',(10.9,5.,0.));
#554=CARTESIAN_POINT('',(-8.87868929381831E-16,5.,-7.25));
#555=CARTESIAN_POINT('Origin',(0.,5.,0.));
#556=CARTESIAN_POINT('Origin',(0.,4.,0.));
#557=CARTESIAN_POINT('',(-1.04094977927525E-15,4.,8.5));
#558=CARTESIAN_POINT('Origin',(0.,4.,0.));
#559=CARTESIAN_POINT('',(-1.04094977927525E-15,4.,8.5));
#560=CARTESIAN_POINT('Origin',(0.,4.,0.));
#561=CARTESIAN_POINT('',(0.,4.,-7.25));
#562=CARTESIAN_POINT('Origin',(0.,4.,0.));
#563=CARTESIAN_POINT('Origin',(-10.9,0.,0.));
#564=CARTESIAN_POINT('',(-10.9,0.,-2.));
#565=CARTESIAN_POINT('Origin',(-2.60208521396521E-15,0.,10.9));
#566=CARTESIAN_POINT('',(-2.84701457379468E-15,0.,8.9));
#567=CARTESIAN_POINT('Origin',(10.9,0.,0.));
#568=CARTESIAN_POINT('',(10.9,0.,-2.));
#569=CARTESIAN_POINT('Origin',(0.,0.,-10.9));
#570=CARTESIAN_POINT('',(-2.44929359829471E-16,0.,-12.9));
#571=CARTESIAN_POINT('Origin',(0.,0.,0.));
#572=CARTESIAN_POINT('',(-8.87868929381831E-16,0.,-7.25));
#573=UNCERTAINTY_MEASURE_WITH_UNIT(LENGTH_MEASURE(0.01),#577,
'DISTANCE_ACCURACY_VALUE',
'Maximum model space distance between geometric entities at asserted c
onnectivities');
#574=UNCERTAINTY_MEASURE_WITH_UNIT(LENGTH_MEASURE(0.01),#577,
'DISTANCE_ACCURACY_VALUE',
'Maximum model space distance between geometric entities at asserted c
onnectivities');
#575=(
GEOMETRIC_REPRESENTATION_CONTEXT(3)
GLOBAL_UNCERTAINTY_ASSIGNED_CONTEXT((#573))
GLOBAL_UNIT_ASSIGNED_CONTEXT((#577,#579,#580))
REPRESENTATION_CONTEXT('','3D')
);
#576=(
GEOMETRIC_REPRESENTATION_CONTEXT(3)
GLOBAL_UNCERTAINTY_ASSIGNED_CONTEXT((#574))
GLOBAL_UNIT_ASSIGNED_CONTEXT((#577,#579,#580))
REPRESENTATION_CONTEXT('','3D')
);
#577=(
LENGTH_UNIT()
NAMED_UNIT(*)
SI_UNIT(.MILLI.,.METRE.)
);
#578=(
LENGTH_UNIT()
NAMED_UNIT(*)
SI_UNIT($,.METRE.)
);
#579=(
NAMED_UNIT(*)
PLANE_ANGLE_UNIT()
SI_UNIT($,.RADIAN.)
);
#580=(
NAMED_UNIT(*)
SI_UNIT($,.STERADIAN.)
SOLID_ANGLE_UNIT()
);
#581=SHAPE_DEFINITION_REPRESENTATION(#582,#583);
#582=PRODUCT_DEFINITION_SHAPE('',$,#585);
#583=SHAPE_REPRESENTATION('',(#329),#575);
#584=PRODUCT_DEFINITION_CONTEXT('part definition',#589,'design');
#585=PRODUCT_DEFINITION('2026-05-07-11-27-07-765',
'uus esi ratta kuullaagri kinnitus',#586,#584);
#586=PRODUCT_DEFINITION_FORMATION('',$,#591);
#587=PRODUCT_RELATED_PRODUCT_CATEGORY(
'uus esi ratta kuullaagri kinnitus','uus esi ratta kuullaagri kinnitus',
(#591));
#588=APPLICATION_PROTOCOL_DEFINITION('international standard',
'automotive_design',2009,#589);
#589=APPLICATION_CONTEXT(
'Core Data for Automotive Mechanical Design Process');
#590=PRODUCT_CONTEXT('part definition',#589,'mechanical');
#591=PRODUCT('2026-05-07-11-27-07-765',
'uus esi ratta kuullaagri kinnitus',$,(#590));
#592=PRESENTATION_STYLE_ASSIGNMENT((#593));
#593=SURFACE_STYLE_USAGE(.BOTH.,#594);
#594=SURFACE_SIDE_STYLE('',(#595));
#595=SURFACE_STYLE_FILL_AREA(#596);
#596=FILL_AREA_STYLE('Steel - Satin',(#597));
#597=FILL_AREA_STYLE_COLOUR('Steel - Satin',#598);
#598=COLOUR_RGB('Steel - Satin',0.627450980392157,0.627450980392157,0.627450980392157);
ENDSEC;
END-ISO-10303-21;
