ISO-10303-21;
HEADER;
/* Generated by software containing ST-Developer
 * from STEP Tools, Inc. (www.steptools.com) 
 */

FILE_DESCRIPTION(
/* description */ (''),
/* implementation_level */ '2;1');

FILE_NAME(
/* name */ 'Servo parem kinnitus.step',
/* time_stamp */ '2026-05-07T11:44:38+03:00',
/* author */ (''),
/* organization */ (''),
/* preprocessor_version */ 'ST-DEVELOPER v20.1',
/* originating_system */ 'Autodesk Translation Framework v15.8.0.0',
/* authorisation */ '');

FILE_SCHEMA (('AUTOMOTIVE_DESIGN { 1 0 10303 214 3 1 1 }'));
ENDSEC;

DATA;
#10=MECHANICAL_DESIGN_GEOMETRIC_PRESENTATION_REPRESENTATION('',(#13),#657);
#11=SHAPE_REPRESENTATION_RELATIONSHIP('SRR','None',#664,#12);
#12=ADVANCED_BREP_SHAPE_REPRESENTATION('',(#14),#656);
#13=STYLED_ITEM('',(#674),#14);
#14=MANIFOLD_SOLID_BREP('Body1',#397);
#15=CYLINDRICAL_SURFACE('',#414,1.5);
#16=CYLINDRICAL_SURFACE('',#418,1.5);
#17=CYLINDRICAL_SURFACE('',#430,2.);
#18=CYLINDRICAL_SURFACE('',#432,2.);
#19=FACE_BOUND('',#54,.T.);
#20=FACE_BOUND('',#64,.T.);
#21=FACE_BOUND('',#65,.T.);
#22=FACE_BOUND('',#75,.T.);
#23=FACE_BOUND('',#76,.T.);
#24=CIRCLE('',#412,1.5);
#25=CIRCLE('',#413,1.5);
#26=CIRCLE('',#415,1.5);
#27=CIRCLE('',#419,1.5);
#28=CIRCLE('',#420,1.5);
#29=CIRCLE('',#421,1.5);
#30=CIRCLE('',#427,2.);
#31=CIRCLE('',#428,2.);
#32=CIRCLE('',#431,2.);
#33=CIRCLE('',#433,2.);
#34=FACE_OUTER_BOUND('',#53,.T.);
#35=FACE_OUTER_BOUND('',#55,.T.);
#36=FACE_OUTER_BOUND('',#56,.T.);
#37=FACE_OUTER_BOUND('',#57,.T.);
#38=FACE_OUTER_BOUND('',#58,.T.);
#39=FACE_OUTER_BOUND('',#59,.T.);
#40=FACE_OUTER_BOUND('',#60,.T.);
#41=FACE_OUTER_BOUND('',#61,.T.);
#42=FACE_OUTER_BOUND('',#62,.T.);
#43=FACE_OUTER_BOUND('',#63,.T.);
#44=FACE_OUTER_BOUND('',#66,.T.);
#45=FACE_OUTER_BOUND('',#67,.T.);
#46=FACE_OUTER_BOUND('',#68,.T.);
#47=FACE_OUTER_BOUND('',#69,.T.);
#48=FACE_OUTER_BOUND('',#70,.T.);
#49=FACE_OUTER_BOUND('',#71,.T.);
#50=FACE_OUTER_BOUND('',#72,.T.);
#51=FACE_OUTER_BOUND('',#73,.T.);
#52=FACE_OUTER_BOUND('',#74,.T.);
#53=EDGE_LOOP('',(#255,#256,#257,#258));
#54=EDGE_LOOP('',(#259,#260,#261,#262));
#55=EDGE_LOOP('',(#263,#264,#265,#266));
#56=EDGE_LOOP('',(#267,#268,#269,#270));
#57=EDGE_LOOP('',(#271,#272,#273,#274));
#58=EDGE_LOOP('',(#275,#276,#277,#278,#279,#280,#281,#282));
#59=EDGE_LOOP('',(#283,#284,#285,#286,#287,#288,#289,#290,#291,#292,#293));
#60=EDGE_LOOP('',(#294,#295,#296,#297));
#61=EDGE_LOOP('',(#298,#299,#300,#301,#302));
#62=EDGE_LOOP('',(#303,#304,#305,#306));
#63=EDGE_LOOP('',(#307,#308,#309,#310,#311,#312,#313,#314));
#64=EDGE_LOOP('',(#315));
#65=EDGE_LOOP('',(#316));
#66=EDGE_LOOP('',(#317,#318,#319,#320));
#67=EDGE_LOOP('',(#321,#322,#323,#324));
#68=EDGE_LOOP('',(#325,#326,#327,#328));
#69=EDGE_LOOP('',(#329,#330,#331,#332));
#70=EDGE_LOOP('',(#333,#334,#335,#336));
#71=EDGE_LOOP('',(#337,#338,#339,#340,#341,#342));
#72=EDGE_LOOP('',(#343,#344,#345,#346,#347,#348,#349,#350));
#73=EDGE_LOOP('',(#351,#352,#353,#354));
#74=EDGE_LOOP('',(#355,#356,#357,#358,#359,#360));
#75=EDGE_LOOP('',(#361));
#76=EDGE_LOOP('',(#362));
#77=LINE('',#548,#121);
#78=LINE('',#550,#122);
#79=LINE('',#552,#123);
#80=LINE('',#553,#124);
#81=LINE('',#556,#125);
#82=LINE('',#560,#126);
#83=LINE('',#566,#127);
#84=LINE('',#567,#128);
#85=LINE('',#570,#129);
#86=LINE('',#571,#130);
#87=LINE('',#574,#131);
#88=LINE('',#575,#132);
#89=LINE('',#580,#133);
#90=LINE('',#584,#134);
#91=LINE('',#588,#135);
#92=LINE('',#590,#136);
#93=LINE('',#592,#137);
#94=LINE('',#594,#138);
#95=LINE('',#596,#139);
#96=LINE('',#597,#140);
#97=LINE('',#600,#141);
#98=LINE('',#601,#142);
#99=LINE('',#604,#143);
#100=LINE('',#606,#144);
#101=LINE('',#607,#145);
#102=LINE('',#609,#146);
#103=LINE('',#612,#147);
#104=LINE('',#614,#148);
#105=LINE('',#616,#149);
#106=LINE('',#618,#150);
#107=LINE('',#619,#151);
#108=LINE('',#625,#152);
#109=LINE('',#626,#153);
#110=LINE('',#629,#154);
#111=LINE('',#633,#155);
#112=LINE('',#638,#156);
#113=LINE('',#639,#157);
#114=LINE('',#640,#158);
#115=LINE('',#643,#159);
#116=LINE('',#644,#160);
#117=LINE('',#646,#161);
#118=LINE('',#649,#162);
#119=LINE('',#650,#163);
#120=LINE('',#652,#164);
#121=VECTOR('',#444,10.);
#122=VECTOR('',#445,10.);
#123=VECTOR('',#446,10.);
#124=VECTOR('',#447,10.);
#125=VECTOR('',#448,10.);
#126=VECTOR('',#451,10.);
#127=VECTOR('',#458,10.);
#128=VECTOR('',#459,10.);
#129=VECTOR('',#462,10.);
#130=VECTOR('',#463,10.);
#131=VECTOR('',#466,10.);
#132=VECTOR('',#467,10.);
#133=VECTOR('',#472,10.);
#134=VECTOR('',#475,10.);
#135=VECTOR('',#480,10.);
#136=VECTOR('',#481,10.);
#137=VECTOR('',#482,10.);
#138=VECTOR('',#483,10.);
#139=VECTOR('',#484,10.);
#140=VECTOR('',#485,10.);
#141=VECTOR('',#488,10.);
#142=VECTOR('',#489,10.);
#143=VECTOR('',#492,10.);
#144=VECTOR('',#493,10.);
#145=VECTOR('',#494,10.);
#146=VECTOR('',#497,10.);
#147=VECTOR('',#500,10.);
#148=VECTOR('',#501,10.);
#149=VECTOR('',#502,10.);
#150=VECTOR('',#503,10.);
#151=VECTOR('',#504,10.);
#152=VECTOR('',#511,10.);
#153=VECTOR('',#512,10.);
#154=VECTOR('',#515,2.);
#155=VECTOR('',#520,2.);
#156=VECTOR('',#525,10.);
#157=VECTOR('',#526,10.);
#158=VECTOR('',#527,10.);
#159=VECTOR('',#530,10.);
#160=VECTOR('',#531,10.);
#161=VECTOR('',#534,10.);
#162=VECTOR('',#537,10.);
#163=VECTOR('',#538,10.);
#164=VECTOR('',#541,10.);
#165=VERTEX_POINT('',#546);
#166=VERTEX_POINT('',#547);
#167=VERTEX_POINT('',#549);
#168=VERTEX_POINT('',#551);
#169=VERTEX_POINT('',#554);
#170=VERTEX_POINT('',#555);
#171=VERTEX_POINT('',#557);
#172=VERTEX_POINT('',#559);
#173=VERTEX_POINT('',#563);
#174=VERTEX_POINT('',#564);
#175=VERTEX_POINT('',#569);
#176=VERTEX_POINT('',#573);
#177=VERTEX_POINT('',#577);
#178=VERTEX_POINT('',#579);
#179=VERTEX_POINT('',#581);
#180=VERTEX_POINT('',#583);
#181=VERTEX_POINT('',#587);
#182=VERTEX_POINT('',#589);
#183=VERTEX_POINT('',#591);
#184=VERTEX_POINT('',#593);
#185=VERTEX_POINT('',#595);
#186=VERTEX_POINT('',#599);
#187=VERTEX_POINT('',#603);
#188=VERTEX_POINT('',#605);
#189=VERTEX_POINT('',#611);
#190=VERTEX_POINT('',#613);
#191=VERTEX_POINT('',#615);
#192=VERTEX_POINT('',#617);
#193=VERTEX_POINT('',#620);
#194=VERTEX_POINT('',#622);
#195=VERTEX_POINT('',#628);
#196=VERTEX_POINT('',#632);
#197=VERTEX_POINT('',#636);
#198=VERTEX_POINT('',#637);
#199=VERTEX_POINT('',#642);
#200=VERTEX_POINT('',#648);
#201=EDGE_CURVE('',#165,#166,#77,.T.);
#202=EDGE_CURVE('',#166,#167,#78,.T.);
#203=EDGE_CURVE('',#167,#168,#79,.T.);
#204=EDGE_CURVE('',#168,#165,#80,.T.);
#205=EDGE_CURVE('',#169,#170,#81,.T.);
#206=EDGE_CURVE('',#170,#171,#24,.T.);
#207=EDGE_CURVE('',#171,#172,#82,.T.);
#208=EDGE_CURVE('',#172,#169,#25,.T.);
#209=EDGE_CURVE('',#173,#174,#26,.T.);
#210=EDGE_CURVE('',#169,#173,#83,.T.);
#211=EDGE_CURVE('',#172,#174,#84,.T.);
#212=EDGE_CURVE('',#174,#175,#85,.T.);
#213=EDGE_CURVE('',#171,#175,#86,.T.);
#214=EDGE_CURVE('',#176,#173,#87,.T.);
#215=EDGE_CURVE('',#176,#170,#88,.T.);
#216=EDGE_CURVE('',#177,#176,#27,.T.);
#217=EDGE_CURVE('',#178,#177,#89,.T.);
#218=EDGE_CURVE('',#179,#178,#28,.T.);
#219=EDGE_CURVE('',#180,#179,#90,.T.);
#220=EDGE_CURVE('',#175,#180,#29,.T.);
#221=EDGE_CURVE('',#180,#181,#91,.T.);
#222=EDGE_CURVE('',#181,#182,#92,.T.);
#223=EDGE_CURVE('',#182,#183,#93,.T.);
#224=EDGE_CURVE('',#184,#183,#94,.T.);
#225=EDGE_CURVE('',#185,#184,#95,.T.);
#226=EDGE_CURVE('',#185,#177,#96,.T.);
#227=EDGE_CURVE('',#186,#179,#97,.T.);
#228=EDGE_CURVE('',#181,#186,#98,.T.);
#229=EDGE_CURVE('',#187,#178,#99,.T.);
#230=EDGE_CURVE('',#188,#187,#100,.T.);
#231=EDGE_CURVE('',#188,#186,#101,.T.);
#232=EDGE_CURVE('',#187,#185,#102,.T.);
#233=EDGE_CURVE('',#184,#189,#103,.T.);
#234=EDGE_CURVE('',#189,#190,#104,.T.);
#235=EDGE_CURVE('',#190,#191,#105,.T.);
#236=EDGE_CURVE('',#191,#192,#106,.T.);
#237=EDGE_CURVE('',#192,#188,#107,.T.);
#238=EDGE_CURVE('',#193,#193,#30,.T.);
#239=EDGE_CURVE('',#194,#194,#31,.T.);
#240=EDGE_CURVE('',#168,#182,#108,.T.);
#241=EDGE_CURVE('',#183,#167,#109,.T.);
#242=EDGE_CURVE('',#194,#195,#110,.T.);
#243=EDGE_CURVE('',#195,#195,#32,.T.);
#244=EDGE_CURVE('',#193,#196,#111,.T.);
#245=EDGE_CURVE('',#196,#196,#33,.T.);
#246=EDGE_CURVE('',#197,#198,#112,.T.);
#247=EDGE_CURVE('',#197,#191,#113,.T.);
#248=EDGE_CURVE('',#198,#190,#114,.T.);
#249=EDGE_CURVE('',#198,#199,#115,.T.);
#250=EDGE_CURVE('',#199,#189,#116,.T.);
#251=EDGE_CURVE('',#199,#166,#117,.T.);
#252=EDGE_CURVE('',#200,#165,#118,.T.);
#253=EDGE_CURVE('',#200,#192,#119,.T.);
#254=EDGE_CURVE('',#197,#200,#120,.T.);
#255=ORIENTED_EDGE('',*,*,#201,.T.);
#256=ORIENTED_EDGE('',*,*,#202,.T.);
#257=ORIENTED_EDGE('',*,*,#203,.T.);
#258=ORIENTED_EDGE('',*,*,#204,.T.);
#259=ORIENTED_EDGE('',*,*,#205,.T.);
#260=ORIENTED_EDGE('',*,*,#206,.T.);
#261=ORIENTED_EDGE('',*,*,#207,.T.);
#262=ORIENTED_EDGE('',*,*,#208,.T.);
#263=ORIENTED_EDGE('',*,*,#209,.F.);
#264=ORIENTED_EDGE('',*,*,#210,.F.);
#265=ORIENTED_EDGE('',*,*,#208,.F.);
#266=ORIENTED_EDGE('',*,*,#211,.T.);
#267=ORIENTED_EDGE('',*,*,#212,.F.);
#268=ORIENTED_EDGE('',*,*,#211,.F.);
#269=ORIENTED_EDGE('',*,*,#207,.F.);
#270=ORIENTED_EDGE('',*,*,#213,.T.);
#271=ORIENTED_EDGE('',*,*,#214,.F.);
#272=ORIENTED_EDGE('',*,*,#215,.T.);
#273=ORIENTED_EDGE('',*,*,#205,.F.);
#274=ORIENTED_EDGE('',*,*,#210,.T.);
#275=ORIENTED_EDGE('',*,*,#216,.F.);
#276=ORIENTED_EDGE('',*,*,#217,.F.);
#277=ORIENTED_EDGE('',*,*,#218,.F.);
#278=ORIENTED_EDGE('',*,*,#219,.F.);
#279=ORIENTED_EDGE('',*,*,#220,.F.);
#280=ORIENTED_EDGE('',*,*,#213,.F.);
#281=ORIENTED_EDGE('',*,*,#206,.F.);
#282=ORIENTED_EDGE('',*,*,#215,.F.);
#283=ORIENTED_EDGE('',*,*,#216,.T.);
#284=ORIENTED_EDGE('',*,*,#214,.T.);
#285=ORIENTED_EDGE('',*,*,#209,.T.);
#286=ORIENTED_EDGE('',*,*,#212,.T.);
#287=ORIENTED_EDGE('',*,*,#220,.T.);
#288=ORIENTED_EDGE('',*,*,#221,.T.);
#289=ORIENTED_EDGE('',*,*,#222,.T.);
#290=ORIENTED_EDGE('',*,*,#223,.T.);
#291=ORIENTED_EDGE('',*,*,#224,.F.);
#292=ORIENTED_EDGE('',*,*,#225,.F.);
#293=ORIENTED_EDGE('',*,*,#226,.T.);
#294=ORIENTED_EDGE('',*,*,#219,.T.);
#295=ORIENTED_EDGE('',*,*,#227,.F.);
#296=ORIENTED_EDGE('',*,*,#228,.F.);
#297=ORIENTED_EDGE('',*,*,#221,.F.);
#298=ORIENTED_EDGE('',*,*,#218,.T.);
#299=ORIENTED_EDGE('',*,*,#229,.F.);
#300=ORIENTED_EDGE('',*,*,#230,.F.);
#301=ORIENTED_EDGE('',*,*,#231,.T.);
#302=ORIENTED_EDGE('',*,*,#227,.T.);
#303=ORIENTED_EDGE('',*,*,#217,.T.);
#304=ORIENTED_EDGE('',*,*,#226,.F.);
#305=ORIENTED_EDGE('',*,*,#232,.F.);
#306=ORIENTED_EDGE('',*,*,#229,.T.);
#307=ORIENTED_EDGE('',*,*,#230,.T.);
#308=ORIENTED_EDGE('',*,*,#232,.T.);
#309=ORIENTED_EDGE('',*,*,#225,.T.);
#310=ORIENTED_EDGE('',*,*,#233,.T.);
#311=ORIENTED_EDGE('',*,*,#234,.T.);
#312=ORIENTED_EDGE('',*,*,#235,.T.);
#313=ORIENTED_EDGE('',*,*,#236,.T.);
#314=ORIENTED_EDGE('',*,*,#237,.T.);
#315=ORIENTED_EDGE('',*,*,#238,.T.);
#316=ORIENTED_EDGE('',*,*,#239,.T.);
#317=ORIENTED_EDGE('',*,*,#240,.F.);
#318=ORIENTED_EDGE('',*,*,#203,.F.);
#319=ORIENTED_EDGE('',*,*,#241,.F.);
#320=ORIENTED_EDGE('',*,*,#223,.F.);
#321=ORIENTED_EDGE('',*,*,#239,.F.);
#322=ORIENTED_EDGE('',*,*,#242,.T.);
#323=ORIENTED_EDGE('',*,*,#243,.T.);
#324=ORIENTED_EDGE('',*,*,#242,.F.);
#325=ORIENTED_EDGE('',*,*,#238,.F.);
#326=ORIENTED_EDGE('',*,*,#244,.T.);
#327=ORIENTED_EDGE('',*,*,#245,.T.);
#328=ORIENTED_EDGE('',*,*,#244,.F.);
#329=ORIENTED_EDGE('',*,*,#246,.F.);
#330=ORIENTED_EDGE('',*,*,#247,.T.);
#331=ORIENTED_EDGE('',*,*,#235,.F.);
#332=ORIENTED_EDGE('',*,*,#248,.F.);
#333=ORIENTED_EDGE('',*,*,#249,.F.);
#334=ORIENTED_EDGE('',*,*,#248,.T.);
#335=ORIENTED_EDGE('',*,*,#234,.F.);
#336=ORIENTED_EDGE('',*,*,#250,.F.);
#337=ORIENTED_EDGE('',*,*,#251,.F.);
#338=ORIENTED_EDGE('',*,*,#250,.T.);
#339=ORIENTED_EDGE('',*,*,#233,.F.);
#340=ORIENTED_EDGE('',*,*,#224,.T.);
#341=ORIENTED_EDGE('',*,*,#241,.T.);
#342=ORIENTED_EDGE('',*,*,#202,.F.);
#343=ORIENTED_EDGE('',*,*,#252,.T.);
#344=ORIENTED_EDGE('',*,*,#204,.F.);
#345=ORIENTED_EDGE('',*,*,#240,.T.);
#346=ORIENTED_EDGE('',*,*,#222,.F.);
#347=ORIENTED_EDGE('',*,*,#228,.T.);
#348=ORIENTED_EDGE('',*,*,#231,.F.);
#349=ORIENTED_EDGE('',*,*,#237,.F.);
#350=ORIENTED_EDGE('',*,*,#253,.F.);
#351=ORIENTED_EDGE('',*,*,#254,.T.);
#352=ORIENTED_EDGE('',*,*,#253,.T.);
#353=ORIENTED_EDGE('',*,*,#236,.F.);
#354=ORIENTED_EDGE('',*,*,#247,.F.);
#355=ORIENTED_EDGE('',*,*,#254,.F.);
#356=ORIENTED_EDGE('',*,*,#246,.T.);
#357=ORIENTED_EDGE('',*,*,#249,.T.);
#358=ORIENTED_EDGE('',*,*,#251,.T.);
#359=ORIENTED_EDGE('',*,*,#201,.F.);
#360=ORIENTED_EDGE('',*,*,#252,.F.);
#361=ORIENTED_EDGE('',*,*,#245,.F.);
#362=ORIENTED_EDGE('',*,*,#243,.F.);
#363=PLANE('',#411);
#364=PLANE('',#416);
#365=PLANE('',#417);
#366=PLANE('',#422);
#367=PLANE('',#423);
#368=PLANE('',#424);
#369=PLANE('',#425);
#370=PLANE('',#426);
#371=PLANE('',#429);
#372=PLANE('',#434);
#373=PLANE('',#435);
#374=PLANE('',#436);
#375=PLANE('',#437);
#376=PLANE('',#438);
#377=PLANE('',#439);
#378=ADVANCED_FACE('',(#34,#19),#363,.T.);
#379=ADVANCED_FACE('',(#35),#15,.F.);
#380=ADVANCED_FACE('',(#36),#364,.F.);
#381=ADVANCED_FACE('',(#37),#365,.F.);
#382=ADVANCED_FACE('',(#38),#16,.F.);
#383=ADVANCED_FACE('',(#39),#366,.T.);
#384=ADVANCED_FACE('',(#40),#367,.T.);
#385=ADVANCED_FACE('',(#41),#368,.T.);
#386=ADVANCED_FACE('',(#42),#369,.T.);
#387=ADVANCED_FACE('',(#43,#20,#21),#370,.T.);
#388=ADVANCED_FACE('',(#44),#371,.T.);
#389=ADVANCED_FACE('',(#45),#17,.F.);
#390=ADVANCED_FACE('',(#46),#18,.F.);
#391=ADVANCED_FACE('',(#47),#372,.T.);
#392=ADVANCED_FACE('',(#48),#373,.T.);
#393=ADVANCED_FACE('',(#49),#374,.T.);
#394=ADVANCED_FACE('',(#50),#375,.T.);
#395=ADVANCED_FACE('',(#51),#376,.T.);
#396=ADVANCED_FACE('',(#52,#22,#23),#377,.F.);
#397=CLOSED_SHELL('',(#378,#379,#380,#381,#382,#383,#384,#385,#386,#387,
#388,#389,#390,#391,#392,#393,#394,#395,#396));
#398=DERIVED_UNIT_ELEMENT(#400,1.);
#399=DERIVED_UNIT_ELEMENT(#659,-3.);
#400=(
MASS_UNIT()
NAMED_UNIT(*)
SI_UNIT(.KILO.,.GRAM.)
);
#401=DERIVED_UNIT((#398,#399));
#402=MEASURE_REPRESENTATION_ITEM('density measure',
POSITIVE_RATIO_MEASURE(1420.),#401);
#403=PROPERTY_DEFINITION_REPRESENTATION(#408,#405);
#404=PROPERTY_DEFINITION_REPRESENTATION(#409,#406);
#405=REPRESENTATION('material name',(#407),#656);
#406=REPRESENTATION('density',(#402),#656);
#407=DESCRIPTIVE_REPRESENTATION_ITEM('PET','PET');
#408=PROPERTY_DEFINITION('material property','material name',#666);
#409=PROPERTY_DEFINITION('material property','density of part',#666);
#410=AXIS2_PLACEMENT_3D('',#544,#440,#441);
#411=AXIS2_PLACEMENT_3D('',#545,#442,#443);
#412=AXIS2_PLACEMENT_3D('',#558,#449,#450);
#413=AXIS2_PLACEMENT_3D('',#561,#452,#453);
#414=AXIS2_PLACEMENT_3D('',#562,#454,#455);
#415=AXIS2_PLACEMENT_3D('',#565,#456,#457);
#416=AXIS2_PLACEMENT_3D('',#568,#460,#461);
#417=AXIS2_PLACEMENT_3D('',#572,#464,#465);
#418=AXIS2_PLACEMENT_3D('',#576,#468,#469);
#419=AXIS2_PLACEMENT_3D('',#578,#470,#471);
#420=AXIS2_PLACEMENT_3D('',#582,#473,#474);
#421=AXIS2_PLACEMENT_3D('',#585,#476,#477);
#422=AXIS2_PLACEMENT_3D('',#586,#478,#479);
#423=AXIS2_PLACEMENT_3D('',#598,#486,#487);
#424=AXIS2_PLACEMENT_3D('',#602,#490,#491);
#425=AXIS2_PLACEMENT_3D('',#608,#495,#496);
#426=AXIS2_PLACEMENT_3D('',#610,#498,#499);
#427=AXIS2_PLACEMENT_3D('',#621,#505,#506);
#428=AXIS2_PLACEMENT_3D('',#623,#507,#508);
#429=AXIS2_PLACEMENT_3D('',#624,#509,#510);
#430=AXIS2_PLACEMENT_3D('',#627,#513,#514);
#431=AXIS2_PLACEMENT_3D('',#630,#516,#517);
#432=AXIS2_PLACEMENT_3D('',#631,#518,#519);
#433=AXIS2_PLACEMENT_3D('',#634,#521,#522);
#434=AXIS2_PLACEMENT_3D('',#635,#523,#524);
#435=AXIS2_PLACEMENT_3D('',#641,#528,#529);
#436=AXIS2_PLACEMENT_3D('',#645,#532,#533);
#437=AXIS2_PLACEMENT_3D('',#647,#535,#536);
#438=AXIS2_PLACEMENT_3D('',#651,#539,#540);
#439=AXIS2_PLACEMENT_3D('',#653,#542,#543);
#440=DIRECTION('axis',(0.,0.,1.));
#441=DIRECTION('refdir',(1.,0.,0.));
#442=DIRECTION('center_axis',(-1.,0.,0.));
#443=DIRECTION('ref_axis',(0.,0.,1.));
#444=DIRECTION('',(0.,0.,1.));
#445=DIRECTION('',(0.,1.,0.));
#446=DIRECTION('',(0.,0.,-1.));
#447=DIRECTION('',(0.,-1.,0.));
#448=DIRECTION('',(0.,0.,-1.));
#449=DIRECTION('center_axis',(1.,0.,0.));
#450=DIRECTION('ref_axis',(0.,1.,0.));
#451=DIRECTION('',(0.,0.,1.));
#452=DIRECTION('center_axis',(1.,0.,0.));
#453=DIRECTION('ref_axis',(0.,-1.,0.));
#454=DIRECTION('center_axis',(1.,0.,0.));
#455=DIRECTION('ref_axis',(0.,-1.,0.));
#456=DIRECTION('center_axis',(-1.,0.,0.));
#457=DIRECTION('ref_axis',(0.,-1.,0.));
#458=DIRECTION('',(1.,0.,0.));
#459=DIRECTION('',(1.,0.,0.));
#460=DIRECTION('center_axis',(0.,1.,0.));
#461=DIRECTION('ref_axis',(0.,0.,1.));
#462=DIRECTION('',(0.,0.,-1.));
#463=DIRECTION('',(1.,0.,0.));
#464=DIRECTION('center_axis',(0.,-1.,0.));
#465=DIRECTION('ref_axis',(0.,0.,-1.));
#466=DIRECTION('',(0.,0.,1.));
#467=DIRECTION('',(-1.,0.,0.));
#468=DIRECTION('center_axis',(1.,0.,0.));
#469=DIRECTION('ref_axis',(0.,1.,0.));
#470=DIRECTION('center_axis',(-1.,0.,0.));
#471=DIRECTION('ref_axis',(0.,1.,0.));
#472=DIRECTION('',(-1.,0.,0.));
#473=DIRECTION('center_axis',(-1.,0.,0.));
#474=DIRECTION('ref_axis',(0.,1.,0.));
#475=DIRECTION('',(1.,0.,0.));
#476=DIRECTION('center_axis',(-1.,0.,0.));
#477=DIRECTION('ref_axis',(0.,1.,0.));
#478=DIRECTION('center_axis',(1.,0.,0.));
#479=DIRECTION('ref_axis',(0.,0.,-1.));
#480=DIRECTION('',(0.,0.,-1.));
#481=DIRECTION('',(0.,1.,0.));
#482=DIRECTION('',(0.,0.,1.));
#483=DIRECTION('',(0.,1.,0.));
#484=DIRECTION('',(0.,0.,1.));
#485=DIRECTION('',(0.,1.,0.));
#486=DIRECTION('center_axis',(0.,1.,0.));
#487=DIRECTION('ref_axis',(0.,0.,1.));
#488=DIRECTION('',(0.,0.,1.));
#489=DIRECTION('',(1.,0.,0.));
#490=DIRECTION('center_axis',(1.,0.,0.));
#491=DIRECTION('ref_axis',(0.,0.,-1.));
#492=DIRECTION('',(0.,1.,0.));
#493=DIRECTION('',(0.,0.,1.));
#494=DIRECTION('',(0.,1.,0.));
#495=DIRECTION('center_axis',(0.,0.,1.));
#496=DIRECTION('ref_axis',(1.,0.,0.));
#497=DIRECTION('',(-1.,0.,0.));
#498=DIRECTION('center_axis',(0.,1.,0.));
#499=DIRECTION('ref_axis',(-1.,0.,0.));
#500=DIRECTION('',(1.,0.,0.));
#501=DIRECTION('',(0.,0.,1.));
#502=DIRECTION('',(1.,0.,0.));
#503=DIRECTION('',(0.,0.,-1.));
#504=DIRECTION('',(-1.,0.,0.));
#505=DIRECTION('center_axis',(0.,-1.,0.));
#506=DIRECTION('ref_axis',(-1.,0.,0.));
#507=DIRECTION('center_axis',(0.,-1.,0.));
#508=DIRECTION('ref_axis',(-1.,0.,0.));
#509=DIRECTION('center_axis',(0.,1.,0.));
#510=DIRECTION('ref_axis',(0.,0.,1.));
#511=DIRECTION('',(1.,0.,0.));
#512=DIRECTION('',(-1.,0.,0.));
#513=DIRECTION('center_axis',(0.,1.,0.));
#514=DIRECTION('ref_axis',(-1.,0.,0.));
#515=DIRECTION('',(0.,-1.,0.));
#516=DIRECTION('center_axis',(0.,-1.,0.));
#517=DIRECTION('ref_axis',(-1.,0.,0.));
#518=DIRECTION('center_axis',(0.,1.,0.));
#519=DIRECTION('ref_axis',(-1.,0.,0.));
#520=DIRECTION('',(0.,-1.,0.));
#521=DIRECTION('center_axis',(0.,-1.,0.));
#522=DIRECTION('ref_axis',(-1.,0.,0.));
#523=DIRECTION('center_axis',(0.,0.,1.));
#524=DIRECTION('ref_axis',(1.,0.,0.));
#525=DIRECTION('',(-1.,0.,0.));
#526=DIRECTION('',(0.,1.,0.));
#527=DIRECTION('',(0.,1.,0.));
#528=DIRECTION('center_axis',(-1.,0.,0.));
#529=DIRECTION('ref_axis',(0.,0.,1.));
#530=DIRECTION('',(0.,0.,-1.));
#531=DIRECTION('',(0.,1.,0.));
#532=DIRECTION('center_axis',(0.,0.,1.));
#533=DIRECTION('ref_axis',(1.,0.,0.));
#534=DIRECTION('',(-1.,0.,0.));
#535=DIRECTION('center_axis',(0.,0.,-1.));
#536=DIRECTION('ref_axis',(-1.,0.,0.));
#537=DIRECTION('',(-1.,0.,0.));
#538=DIRECTION('',(0.,1.,0.));
#539=DIRECTION('center_axis',(1.,0.,0.));
#540=DIRECTION('ref_axis',(0.,0.,-1.));
#541=DIRECTION('',(0.,0.,-1.));
#542=DIRECTION('center_axis',(0.,1.,0.));
#543=DIRECTION('ref_axis',(-1.,0.,0.));
#544=CARTESIAN_POINT('',(0.,0.,0.));
#545=CARTESIAN_POINT('Origin',(26.8,15.,-67.8976158056174));
#546=CARTESIAN_POINT('',(26.8,15.,-67.8976158056174));
#547=CARTESIAN_POINT('',(26.8,15.,-59.8976158056174));
#548=CARTESIAN_POINT('',(26.8,15.,-59.8976158056174));
#549=CARTESIAN_POINT('',(26.8,27.,-59.8976158056174));
#550=CARTESIAN_POINT('',(26.8,15.,-59.8976158056174));
#551=CARTESIAN_POINT('',(26.8,27.,-67.8976158056174));
#552=CARTESIAN_POINT('',(26.8,27.,-65.8976158056174));
#553=CARTESIAN_POINT('',(26.8,15.,-67.8976158056174));
#554=CARTESIAN_POINT('',(26.8,19.4999995306134,-64.3976158056174));
#555=CARTESIAN_POINT('',(26.8,19.4999995306134,-64.8976158056174));
#556=CARTESIAN_POINT('',(26.8,19.4999995306134,-66.1476158056174));
#557=CARTESIAN_POINT('',(26.8,22.4999995306134,-64.8976158056174));
#558=CARTESIAN_POINT('Origin',(26.8,20.9999995306134,-64.8976158056174));
#559=CARTESIAN_POINT('',(26.8,22.4999995306134,-64.3976158056174));
#560=CARTESIAN_POINT('',(26.8,22.4999995306134,-66.3976158056174));
#561=CARTESIAN_POINT('Origin',(26.8,20.9999995306134,-64.3976158056174));
#562=CARTESIAN_POINT('Origin',(29.,20.9999995306134,-64.3976158056174));
#563=CARTESIAN_POINT('',(32.,19.4999995306134,-64.3976158056174));
#564=CARTESIAN_POINT('',(32.,22.4999995306134,-64.3976158056174));
#565=CARTESIAN_POINT('Origin',(32.,20.9999995306134,-64.3976158056174));
#566=CARTESIAN_POINT('',(29.,19.4999995306134,-64.3976158056174));
#567=CARTESIAN_POINT('',(29.,22.4999995306134,-64.3976158056174));
#568=CARTESIAN_POINT('Origin',(29.,22.4999995306134,-64.8976158056174));
#569=CARTESIAN_POINT('',(32.,22.4999995306134,-64.8976158056174));
#570=CARTESIAN_POINT('',(32.,22.4999995306134,-62.3976158056174));
#571=CARTESIAN_POINT('',(29.,22.4999995306134,-64.8976158056174));
#572=CARTESIAN_POINT('Origin',(29.,19.4999995306134,-64.3976158056174));
#573=CARTESIAN_POINT('',(32.,19.4999995306134,-64.8976158056174));
#574=CARTESIAN_POINT('',(32.,19.4999995306134,-62.1476158056174));
#575=CARTESIAN_POINT('',(29.,19.4999995306134,-64.8976158056174));
#576=CARTESIAN_POINT('Origin',(29.,20.9999995306134,-64.8976158056174));
#577=CARTESIAN_POINT('',(32.,19.8819655418635,-65.8976158056174));
#578=CARTESIAN_POINT('Origin',(32.,20.9999995306134,-64.8976158056174));
#579=CARTESIAN_POINT('',(38.9999991282821,19.8819655418635,-65.8976158056174));
#580=CARTESIAN_POINT('',(29.,19.8819655418635,-65.8976158056174));
#581=CARTESIAN_POINT('',(38.9999991282821,21.,-66.3976158056173));
#582=CARTESIAN_POINT('Origin',(38.9999991282821,20.9999995306134,-64.8976158056174));
#583=CARTESIAN_POINT('',(32.,21.,-66.3976158056173));
#584=CARTESIAN_POINT('',(29.,21.,-66.3976158056173));
#585=CARTESIAN_POINT('Origin',(32.,20.9999995306134,-64.8976158056174));
#586=CARTESIAN_POINT('Origin',(32.,17.,-59.8976158056174));
#587=CARTESIAN_POINT('',(32.,21.,-67.8976158056174));
#588=CARTESIAN_POINT('',(32.,21.,-63.3976158056174));
#589=CARTESIAN_POINT('',(32.,27.,-67.8976158056174));
#590=CARTESIAN_POINT('',(32.,17.,-67.8976158056174));
#591=CARTESIAN_POINT('',(32.,27.,-59.8976158056174));
#592=CARTESIAN_POINT('',(32.,27.,-61.8976158056174));
#593=CARTESIAN_POINT('',(32.,17.,-59.8976158056174));
#594=CARTESIAN_POINT('',(32.,17.,-59.8976158056174));
#595=CARTESIAN_POINT('',(32.,17.,-65.8976158056174));
#596=CARTESIAN_POINT('',(32.,17.,-59.3976158056174));
#597=CARTESIAN_POINT('',(32.,17.,-65.8976158056174));
#598=CARTESIAN_POINT('Origin',(35.499999564141,21.,-66.8976158056174));
#599=CARTESIAN_POINT('',(38.9999991282821,21.,-67.8976158056174));
#600=CARTESIAN_POINT('',(38.9999991282821,21.,-66.3976158056174));
#601=CARTESIAN_POINT('',(37.2499993462116,21.,-67.8976158056174));
#602=CARTESIAN_POINT('Origin',(38.9999991282821,17.,-65.8976158056174));
#603=CARTESIAN_POINT('',(38.9999991282821,17.,-65.8976158056174));
#604=CARTESIAN_POINT('',(38.9999991282821,17.,-65.8976158056174));
#605=CARTESIAN_POINT('',(38.9999991282821,17.,-67.8976158056174));
#606=CARTESIAN_POINT('',(38.9999991282821,17.,-62.3976158056174));
#607=CARTESIAN_POINT('',(38.9999991282821,17.,-67.8976158056174));
#608=CARTESIAN_POINT('Origin',(32.,17.,-65.8976158056174));
#609=CARTESIAN_POINT('',(35.,17.,-65.8976158056174));
#610=CARTESIAN_POINT('Origin',(38.,17.,-58.8976158056174));
#611=CARTESIAN_POINT('',(38.,17.,-59.8976158056174));
#612=CARTESIAN_POINT('',(38.,17.,-59.8976158056174));
#613=CARTESIAN_POINT('',(38.,17.,-49.8976158056174));
#614=CARTESIAN_POINT('',(38.,17.,-49.8976158056174));
#615=CARTESIAN_POINT('',(47.,17.,-49.8976158056174));
#616=CARTESIAN_POINT('',(47.,17.,-49.8976158056174));
#617=CARTESIAN_POINT('',(47.,17.,-67.8976158056174));
#618=CARTESIAN_POINT('',(47.,17.,-49.8976158056174));
#619=CARTESIAN_POINT('',(47.,17.,-67.8976158056174));
#620=CARTESIAN_POINT('',(44.7425109383646,17.,-64.6976158056174));
#621=CARTESIAN_POINT('Origin',(42.7425109383646,17.,-64.6976158056174));
#622=CARTESIAN_POINT('',(44.7425109383646,17.,-54.6976158056174));
#623=CARTESIAN_POINT('Origin',(42.7425109383646,17.,-54.6976158056174));
#624=CARTESIAN_POINT('Origin',(30.5,27.,-63.8976158056174));
#625=CARTESIAN_POINT('',(31.25,27.,-67.8976158056174));
#626=CARTESIAN_POINT('',(29.75,27.,-59.8976158056174));
#627=CARTESIAN_POINT('Origin',(42.7425109383646,15.,-54.6976158056174));
#628=CARTESIAN_POINT('',(44.7425109383646,15.,-54.6976158056174));
#629=CARTESIAN_POINT('',(44.7425109383646,15.,-54.6976158056174));
#630=CARTESIAN_POINT('Origin',(42.7425109383646,15.,-54.6976158056174));
#631=CARTESIAN_POINT('Origin',(42.7425109383646,15.,-64.6976158056174));
#632=CARTESIAN_POINT('',(44.7425109383646,15.,-64.6976158056174));
#633=CARTESIAN_POINT('',(44.7425109383646,15.,-64.6976158056174));
#634=CARTESIAN_POINT('Origin',(42.7425109383646,15.,-64.6976158056174));
#635=CARTESIAN_POINT('Origin',(38.,15.,-49.8976158056174));
#636=CARTESIAN_POINT('',(47.,15.,-49.8976158056174));
#637=CARTESIAN_POINT('',(38.,15.,-49.8976158056174));
#638=CARTESIAN_POINT('',(47.,15.,-49.8976158056174));
#639=CARTESIAN_POINT('',(47.,15.,-49.8976158056174));
#640=CARTESIAN_POINT('',(38.,15.,-49.8976158056174));
#641=CARTESIAN_POINT('Origin',(38.,15.,-59.8976158056174));
#642=CARTESIAN_POINT('',(38.,15.,-59.8976158056174));
#643=CARTESIAN_POINT('',(38.,15.,-49.8976158056174));
#644=CARTESIAN_POINT('',(38.,15.,-59.8976158056174));
#645=CARTESIAN_POINT('Origin',(29.,15.,-59.8976158056174));
#646=CARTESIAN_POINT('',(29.,15.,-59.8976158056174));
#647=CARTESIAN_POINT('Origin',(47.,15.,-67.8976158056174));
#648=CARTESIAN_POINT('',(47.,15.,-67.8976158056174));
#649=CARTESIAN_POINT('',(47.,15.,-67.8976158056174));
#650=CARTESIAN_POINT('',(47.,15.,-67.8976158056174));
#651=CARTESIAN_POINT('Origin',(47.,15.,-49.8976158056174));
#652=CARTESIAN_POINT('',(47.,15.,-49.8976158056174));
#653=CARTESIAN_POINT('Origin',(38.,15.,-58.8976158056174));
#654=UNCERTAINTY_MEASURE_WITH_UNIT(LENGTH_MEASURE(0.01),#658,
'DISTANCE_ACCURACY_VALUE',
'Maximum model space distance between geometric entities at asserted c
onnectivities');
#655=UNCERTAINTY_MEASURE_WITH_UNIT(LENGTH_MEASURE(0.01),#658,
'DISTANCE_ACCURACY_VALUE',
'Maximum model space distance between geometric entities at asserted c
onnectivities');
#656=(
GEOMETRIC_REPRESENTATION_CONTEXT(3)
GLOBAL_UNCERTAINTY_ASSIGNED_CONTEXT((#654))
GLOBAL_UNIT_ASSIGNED_CONTEXT((#658,#660,#661))
REPRESENTATION_CONTEXT('','3D')
);
#657=(
GEOMETRIC_REPRESENTATION_CONTEXT(3)
GLOBAL_UNCERTAINTY_ASSIGNED_CONTEXT((#655))
GLOBAL_UNIT_ASSIGNED_CONTEXT((#658,#660,#661))
REPRESENTATION_CONTEXT('','3D')
);
#658=(
LENGTH_UNIT()
NAMED_UNIT(*)
SI_UNIT(.MILLI.,.METRE.)
);
#659=(
LENGTH_UNIT()
NAMED_UNIT(*)
SI_UNIT($,.METRE.)
);
#660=(
NAMED_UNIT(*)
PLANE_ANGLE_UNIT()
SI_UNIT($,.RADIAN.)
);
#661=(
NAMED_UNIT(*)
SI_UNIT($,.STERADIAN.)
SOLID_ANGLE_UNIT()
);
#662=SHAPE_DEFINITION_REPRESENTATION(#663,#664);
#663=PRODUCT_DEFINITION_SHAPE('',$,#666);
#664=SHAPE_REPRESENTATION('',(#410),#656);
#665=PRODUCT_DEFINITION_CONTEXT('part definition',#670,'design');
#666=PRODUCT_DEFINITION('2026-05-07-11-44-38-383',
'Servo parem kinnitus',#667,#665);
#667=PRODUCT_DEFINITION_FORMATION('',$,#672);
#668=PRODUCT_RELATED_PRODUCT_CATEGORY('Servo parem kinnitus',
'Servo parem kinnitus',(#672));
#669=APPLICATION_PROTOCOL_DEFINITION('international standard',
'automotive_design',2009,#670);
#670=APPLICATION_CONTEXT(
'Core Data for Automotive Mechanical Design Process');
#671=PRODUCT_CONTEXT('part definition',#670,'mechanical');
#672=PRODUCT('2026-05-07-11-44-38-383','Servo parem kinnitus',$,(#671));
#673=PRESENTATION_STYLE_ASSIGNMENT((#675));
#674=PRESENTATION_STYLE_ASSIGNMENT((#676));
#675=SURFACE_STYLE_USAGE(.BOTH.,#677);
#676=SURFACE_STYLE_USAGE(.BOTH.,#678);
#677=SURFACE_SIDE_STYLE('',(#679));
#678=SURFACE_SIDE_STYLE('',(#680));
#679=SURFACE_STYLE_FILL_AREA(#681);
#680=SURFACE_STYLE_FILL_AREA(#682);
#681=FILL_AREA_STYLE('Steel - Satin',(#683));
#682=FILL_AREA_STYLE('EPX 82 (with Carbon M2 M3 L1 3D Printers)',(#684));
#683=FILL_AREA_STYLE_COLOUR('Steel - Satin',#685);
#684=FILL_AREA_STYLE_COLOUR('EPX 82 (with Carbon M2 M3 L1 3D Printers)',
#686);
#685=COLOUR_RGB('Steel - Satin',0.627450980392157,0.627450980392157,0.627450980392157);
#686=COLOUR_RGB('EPX 82 (with Carbon M2 M3 L1 3D Printers)',0.247058823529412,
0.247058823529412,0.247058823529412);
ENDSEC;
END-ISO-10303-21;
