ISO-10303-21;
HEADER;
/* Generated by software containing ST-Developer
 * from STEP Tools, Inc. (www.steptools.com) 
 */

FILE_DESCRIPTION(
/* description */ (''),
/* implementation_level */ '2;1');

FILE_NAME(
/* name */ 'Servo stabilisaator.step',
/* time_stamp */ '2026-05-07T11:25:36+03:00',
/* author */ (''),
/* organization */ (''),
/* preprocessor_version */ 'ST-DEVELOPER v20.1',
/* originating_system */ 'Autodesk Translation Framework v15.8.0.0',
/* authorisation */ '');

FILE_SCHEMA (('AUTOMOTIVE_DESIGN { 1 0 10303 214 3 1 1 }'));
ENDSEC;

DATA;
#10=MECHANICAL_DESIGN_GEOMETRIC_PRESENTATION_REPRESENTATION('',(#13),#265);
#11=SHAPE_REPRESENTATION_RELATIONSHIP('SRR','None',#272,#12);
#12=ADVANCED_BREP_SHAPE_REPRESENTATION('',(#14),#264);
#13=STYLED_ITEM('',(#281),#14);
#14=MANIFOLD_SOLID_BREP('Body1',#149);
#15=FACE_BOUND('',#36,.T.);
#16=FACE_BOUND('',#37,.T.);
#17=FACE_BOUND('',#39,.T.);
#18=FACE_BOUND('',#40,.T.);
#19=PLANE('',#166);
#20=PLANE('',#170);
#21=PLANE('',#171);
#22=PLANE('',#174);
#23=FACE_OUTER_BOUND('',#31,.T.);
#24=FACE_OUTER_BOUND('',#32,.T.);
#25=FACE_OUTER_BOUND('',#33,.T.);
#26=FACE_OUTER_BOUND('',#34,.T.);
#27=FACE_OUTER_BOUND('',#35,.T.);
#28=FACE_OUTER_BOUND('',#38,.T.);
#29=FACE_OUTER_BOUND('',#41,.T.);
#30=FACE_OUTER_BOUND('',#42,.T.);
#31=EDGE_LOOP('',(#101,#102,#103,#104));
#32=EDGE_LOOP('',(#105,#106,#107,#108));
#33=EDGE_LOOP('',(#109,#110,#111,#112));
#34=EDGE_LOOP('',(#113,#114,#115,#116));
#35=EDGE_LOOP('',(#117,#118,#119,#120));
#36=EDGE_LOOP('',(#121));
#37=EDGE_LOOP('',(#122));
#38=EDGE_LOOP('',(#123,#124,#125,#126));
#39=EDGE_LOOP('',(#127));
#40=EDGE_LOOP('',(#128));
#41=EDGE_LOOP('',(#129,#130,#131,#132));
#42=EDGE_LOOP('',(#133,#134,#135,#136));
#43=LINE('',#229,#53);
#44=LINE('',#232,#54);
#45=LINE('',#235,#55);
#46=LINE('',#237,#56);
#47=LINE('',#238,#57);
#48=LINE('',#243,#58);
#49=LINE('',#246,#59);
#50=LINE('',#247,#60);
#51=LINE('',#259,#61);
#52=LINE('',#261,#62);
#53=VECTOR('',#185,3.5);
#54=VECTOR('',#188,3.5);
#55=VECTOR('',#191,64.83);
#56=VECTOR('',#192,3.5);
#57=VECTOR('',#193,64.83);
#58=VECTOR('',#198,3.5);
#59=VECTOR('',#203,64.83);
#60=VECTOR('',#204,64.83);
#61=VECTOR('',#219,1.60000000000001);
#62=VECTOR('',#222,1.6);
#63=CIRCLE('',#164,2.5);
#64=CIRCLE('',#165,2.5);
#65=CIRCLE('',#168,2.5);
#66=CIRCLE('',#169,2.5);
#67=CIRCLE('',#172,1.6);
#68=CIRCLE('',#173,1.60000000000001);
#69=CIRCLE('',#175,1.6);
#70=CIRCLE('',#176,1.60000000000001);
#71=VERTEX_POINT('',#225);
#72=VERTEX_POINT('',#226);
#73=VERTEX_POINT('',#228);
#74=VERTEX_POINT('',#230);
#75=VERTEX_POINT('',#234);
#76=VERTEX_POINT('',#236);
#77=VERTEX_POINT('',#240);
#78=VERTEX_POINT('',#242);
#79=VERTEX_POINT('',#249);
#80=VERTEX_POINT('',#251);
#81=VERTEX_POINT('',#254);
#82=VERTEX_POINT('',#256);
#83=EDGE_CURVE('',#71,#72,#63,.T.);
#84=EDGE_CURVE('',#73,#72,#43,.T.);
#85=EDGE_CURVE('',#74,#73,#64,.T.);
#86=EDGE_CURVE('',#74,#71,#44,.T.);
#87=EDGE_CURVE('',#72,#75,#45,.T.);
#88=EDGE_CURVE('',#76,#75,#46,.T.);
#89=EDGE_CURVE('',#73,#76,#47,.T.);
#90=EDGE_CURVE('',#75,#77,#65,.T.);
#91=EDGE_CURVE('',#78,#77,#48,.T.);
#92=EDGE_CURVE('',#76,#78,#66,.T.);
#93=EDGE_CURVE('',#77,#71,#49,.T.);
#94=EDGE_CURVE('',#78,#74,#50,.T.);
#95=EDGE_CURVE('',#79,#79,#67,.T.);
#96=EDGE_CURVE('',#80,#80,#68,.T.);
#97=EDGE_CURVE('',#81,#81,#69,.F.);
#98=EDGE_CURVE('',#82,#82,#70,.F.);
#99=EDGE_CURVE('',#82,#80,#51,.T.);
#100=EDGE_CURVE('',#81,#79,#52,.T.);
#101=ORIENTED_EDGE('',*,*,#83,.T.);
#102=ORIENTED_EDGE('',*,*,#84,.F.);
#103=ORIENTED_EDGE('',*,*,#85,.F.);
#104=ORIENTED_EDGE('',*,*,#86,.T.);
#105=ORIENTED_EDGE('',*,*,#87,.T.);
#106=ORIENTED_EDGE('',*,*,#88,.F.);
#107=ORIENTED_EDGE('',*,*,#89,.F.);
#108=ORIENTED_EDGE('',*,*,#84,.T.);
#109=ORIENTED_EDGE('',*,*,#90,.T.);
#110=ORIENTED_EDGE('',*,*,#91,.F.);
#111=ORIENTED_EDGE('',*,*,#92,.F.);
#112=ORIENTED_EDGE('',*,*,#88,.T.);
#113=ORIENTED_EDGE('',*,*,#93,.T.);
#114=ORIENTED_EDGE('',*,*,#86,.F.);
#115=ORIENTED_EDGE('',*,*,#94,.F.);
#116=ORIENTED_EDGE('',*,*,#91,.T.);
#117=ORIENTED_EDGE('',*,*,#85,.T.);
#118=ORIENTED_EDGE('',*,*,#89,.T.);
#119=ORIENTED_EDGE('',*,*,#92,.T.);
#120=ORIENTED_EDGE('',*,*,#94,.T.);
#121=ORIENTED_EDGE('',*,*,#95,.F.);
#122=ORIENTED_EDGE('',*,*,#96,.F.);
#123=ORIENTED_EDGE('',*,*,#83,.F.);
#124=ORIENTED_EDGE('',*,*,#93,.F.);
#125=ORIENTED_EDGE('',*,*,#90,.F.);
#126=ORIENTED_EDGE('',*,*,#87,.F.);
#127=ORIENTED_EDGE('',*,*,#97,.F.);
#128=ORIENTED_EDGE('',*,*,#98,.F.);
#129=ORIENTED_EDGE('',*,*,#98,.T.);
#130=ORIENTED_EDGE('',*,*,#99,.T.);
#131=ORIENTED_EDGE('',*,*,#96,.T.);
#132=ORIENTED_EDGE('',*,*,#99,.F.);
#133=ORIENTED_EDGE('',*,*,#97,.T.);
#134=ORIENTED_EDGE('',*,*,#100,.T.);
#135=ORIENTED_EDGE('',*,*,#95,.T.);
#136=ORIENTED_EDGE('',*,*,#100,.F.);
#137=CYLINDRICAL_SURFACE('',#163,2.5);
#138=CYLINDRICAL_SURFACE('',#167,2.5);
#139=CYLINDRICAL_SURFACE('',#177,1.60000000000001);
#140=CYLINDRICAL_SURFACE('',#178,1.6);
#141=ADVANCED_FACE('',(#23),#137,.T.);
#142=ADVANCED_FACE('',(#24),#19,.F.);
#143=ADVANCED_FACE('',(#25),#138,.T.);
#144=ADVANCED_FACE('',(#26),#20,.F.);
#145=ADVANCED_FACE('',(#27,#15,#16),#21,.T.);
#146=ADVANCED_FACE('',(#28,#17,#18),#22,.F.);
#147=ADVANCED_FACE('',(#29),#139,.F.);
#148=ADVANCED_FACE('',(#30),#140,.F.);
#149=CLOSED_SHELL('',(#141,#142,#143,#144,#145,#146,#147,#148));
#150=DERIVED_UNIT_ELEMENT(#152,1.);
#151=DERIVED_UNIT_ELEMENT(#267,-3.);
#152=(
MASS_UNIT()
NAMED_UNIT(*)
SI_UNIT(.KILO.,.GRAM.)
);
#153=DERIVED_UNIT((#150,#151));
#154=MEASURE_REPRESENTATION_ITEM('density measure',
POSITIVE_RATIO_MEASURE(7850.),#153);
#155=PROPERTY_DEFINITION_REPRESENTATION(#160,#157);
#156=PROPERTY_DEFINITION_REPRESENTATION(#161,#158);
#157=REPRESENTATION('material name',(#159),#264);
#158=REPRESENTATION('density',(#154),#264);
#159=DESCRIPTIVE_REPRESENTATION_ITEM('Steel','Steel');
#160=PROPERTY_DEFINITION('material property','material name',#274);
#161=PROPERTY_DEFINITION('material property','density of part',#274);
#162=AXIS2_PLACEMENT_3D('',#223,#179,#180);
#163=AXIS2_PLACEMENT_3D('',#224,#181,#182);
#164=AXIS2_PLACEMENT_3D('',#227,#183,#184);
#165=AXIS2_PLACEMENT_3D('',#231,#186,#187);
#166=AXIS2_PLACEMENT_3D('',#233,#189,#190);
#167=AXIS2_PLACEMENT_3D('',#239,#194,#195);
#168=AXIS2_PLACEMENT_3D('',#241,#196,#197);
#169=AXIS2_PLACEMENT_3D('',#244,#199,#200);
#170=AXIS2_PLACEMENT_3D('',#245,#201,#202);
#171=AXIS2_PLACEMENT_3D('',#248,#205,#206);
#172=AXIS2_PLACEMENT_3D('',#250,#207,#208);
#173=AXIS2_PLACEMENT_3D('',#252,#209,#210);
#174=AXIS2_PLACEMENT_3D('',#253,#211,#212);
#175=AXIS2_PLACEMENT_3D('',#255,#213,#214);
#176=AXIS2_PLACEMENT_3D('',#257,#215,#216);
#177=AXIS2_PLACEMENT_3D('',#258,#217,#218);
#178=AXIS2_PLACEMENT_3D('',#260,#220,#221);
#179=DIRECTION('axis',(0.,0.,1.));
#180=DIRECTION('refdir',(1.,0.,0.));
#181=DIRECTION('center_axis',(0.,-1.,0.));
#182=DIRECTION('ref_axis',(-1.,0.,1.83697019872103E-16));
#183=DIRECTION('center_axis',(0.,1.,0.));
#184=DIRECTION('ref_axis',(0.,0.,1.));
#185=DIRECTION('',(0.,-1.,0.));
#186=DIRECTION('center_axis',(0.,1.,0.));
#187=DIRECTION('ref_axis',(0.,0.,1.));
#188=DIRECTION('',(0.,-1.,0.));
#189=DIRECTION('center_axis',(0.,0.,-1.));
#190=DIRECTION('ref_axis',(-1.,0.,0.));
#191=DIRECTION('',(1.,0.,0.));
#192=DIRECTION('',(0.,-1.,0.));
#193=DIRECTION('',(1.,0.,0.));
#194=DIRECTION('center_axis',(0.,-1.,0.));
#195=DIRECTION('ref_axis',(1.,0.,-6.12323399573676E-17));
#196=DIRECTION('center_axis',(0.,1.,0.));
#197=DIRECTION('ref_axis',(0.,0.,1.));
#198=DIRECTION('',(0.,-1.,0.));
#199=DIRECTION('center_axis',(0.,1.,0.));
#200=DIRECTION('ref_axis',(0.,0.,1.));
#201=DIRECTION('center_axis',(0.,0.,1.));
#202=DIRECTION('ref_axis',(1.,0.,0.));
#203=DIRECTION('',(-1.,0.,0.));
#204=DIRECTION('',(-1.,0.,0.));
#205=DIRECTION('center_axis',(0.,1.,0.));
#206=DIRECTION('ref_axis',(0.,0.,1.));
#207=DIRECTION('center_axis',(0.,1.,0.));
#208=DIRECTION('ref_axis',(0.,0.,1.));
#209=DIRECTION('center_axis',(0.,1.,0.));
#210=DIRECTION('ref_axis',(0.,0.,1.));
#211=DIRECTION('center_axis',(0.,1.,0.));
#212=DIRECTION('ref_axis',(0.,0.,1.));
#213=DIRECTION('center_axis',(0.,1.,0.));
#214=DIRECTION('ref_axis',(0.,0.,1.));
#215=DIRECTION('center_axis',(0.,1.,0.));
#216=DIRECTION('ref_axis',(0.,0.,1.));
#217=DIRECTION('center_axis',(0.,1.,0.));
#218=DIRECTION('ref_axis',(0.,0.,1.));
#219=DIRECTION('',(0.,1.,0.));
#220=DIRECTION('center_axis',(0.,1.,0.));
#221=DIRECTION('ref_axis',(0.,0.,1.));
#222=DIRECTION('',(0.,1.,0.));
#223=CARTESIAN_POINT('',(0.,0.,0.));
#224=CARTESIAN_POINT('Origin',(0.,3.5,0.));
#225=CARTESIAN_POINT('',(2.,0.,-1.5));
#226=CARTESIAN_POINT('',(2.,0.,1.5));
#227=CARTESIAN_POINT('Origin',(0.,0.,0.));
#228=CARTESIAN_POINT('',(2.,3.5,1.5));
#229=CARTESIAN_POINT('',(2.,3.5,1.5));
#230=CARTESIAN_POINT('',(2.,3.5,-1.5));
#231=CARTESIAN_POINT('Origin',(0.,3.5,0.));
#232=CARTESIAN_POINT('',(2.,3.5,-1.5));
#233=CARTESIAN_POINT('Origin',(2.,3.5,1.5));
#234=CARTESIAN_POINT('',(66.83,0.,1.5));
#235=CARTESIAN_POINT('',(2.,0.,1.5));
#236=CARTESIAN_POINT('',(66.83,3.5,1.5));
#237=CARTESIAN_POINT('',(66.83,3.5,1.5));
#238=CARTESIAN_POINT('',(2.,3.5,1.5));
#239=CARTESIAN_POINT('Origin',(68.83,3.5,0.));
#240=CARTESIAN_POINT('',(66.83,0.,-1.5));
#241=CARTESIAN_POINT('Origin',(68.83,0.,0.));
#242=CARTESIAN_POINT('',(66.83,3.5,-1.5));
#243=CARTESIAN_POINT('',(66.83,3.5,-1.5));
#244=CARTESIAN_POINT('Origin',(68.83,3.5,0.));
#245=CARTESIAN_POINT('Origin',(2.,3.5,-1.5));
#246=CARTESIAN_POINT('',(66.83,0.,-1.5));
#247=CARTESIAN_POINT('',(66.83,3.5,-1.5));
#248=CARTESIAN_POINT('Origin',(0.,3.5,0.));
#249=CARTESIAN_POINT('',(-1.95943487863577E-16,3.5,-1.6));
#250=CARTESIAN_POINT('Origin',(0.,3.5,0.));
#251=CARTESIAN_POINT('',(68.83,3.5,-1.60000000000001));
#252=CARTESIAN_POINT('Origin',(68.83,3.5,0.));
#253=CARTESIAN_POINT('Origin',(0.,0.,0.));
#254=CARTESIAN_POINT('',(-1.95943487863577E-16,-5.55111512312578E-16,-1.6));
#255=CARTESIAN_POINT('Origin',(0.,0.,0.));
#256=CARTESIAN_POINT('',(68.83,5.55111512312578E-16,-1.60000000000001));
#257=CARTESIAN_POINT('Origin',(68.83,0.,0.));
#258=CARTESIAN_POINT('Origin',(68.83,-4.52548339959392,0.));
#259=CARTESIAN_POINT('',(68.83,-4.52548339959392,-1.60000000000001));
#260=CARTESIAN_POINT('Origin',(0.,-4.52548339959392,0.));
#261=CARTESIAN_POINT('',(-1.95943487863577E-16,-4.52548339959392,-1.6));
#262=UNCERTAINTY_MEASURE_WITH_UNIT(LENGTH_MEASURE(0.01),#266,
'DISTANCE_ACCURACY_VALUE',
'Maximum model space distance between geometric entities at asserted c
onnectivities');
#263=UNCERTAINTY_MEASURE_WITH_UNIT(LENGTH_MEASURE(0.01),#266,
'DISTANCE_ACCURACY_VALUE',
'Maximum model space distance between geometric entities at asserted c
onnectivities');
#264=(
GEOMETRIC_REPRESENTATION_CONTEXT(3)
GLOBAL_UNCERTAINTY_ASSIGNED_CONTEXT((#262))
GLOBAL_UNIT_ASSIGNED_CONTEXT((#266,#268,#269))
REPRESENTATION_CONTEXT('','3D')
);
#265=(
GEOMETRIC_REPRESENTATION_CONTEXT(3)
GLOBAL_UNCERTAINTY_ASSIGNED_CONTEXT((#263))
GLOBAL_UNIT_ASSIGNED_CONTEXT((#266,#268,#269))
REPRESENTATION_CONTEXT('','3D')
);
#266=(
LENGTH_UNIT()
NAMED_UNIT(*)
SI_UNIT(.MILLI.,.METRE.)
);
#267=(
LENGTH_UNIT()
NAMED_UNIT(*)
SI_UNIT($,.METRE.)
);
#268=(
NAMED_UNIT(*)
PLANE_ANGLE_UNIT()
SI_UNIT($,.RADIAN.)
);
#269=(
NAMED_UNIT(*)
SI_UNIT($,.STERADIAN.)
SOLID_ANGLE_UNIT()
);
#270=SHAPE_DEFINITION_REPRESENTATION(#271,#272);
#271=PRODUCT_DEFINITION_SHAPE('',$,#274);
#272=SHAPE_REPRESENTATION('',(#162),#264);
#273=PRODUCT_DEFINITION_CONTEXT('part definition',#278,'design');
#274=PRODUCT_DEFINITION('2026-05-07-11-25-36-893',
'esiratta_keeramis_mehanismi_stapikas',#275,#273);
#275=PRODUCT_DEFINITION_FORMATION('',$,#280);
#276=PRODUCT_RELATED_PRODUCT_CATEGORY(
'esiratta_keeramis_mehanismi_stapikas',
'esiratta_keeramis_mehanismi_stapikas',(#280));
#277=APPLICATION_PROTOCOL_DEFINITION('international standard',
'automotive_design',2009,#278);
#278=APPLICATION_CONTEXT(
'Core Data for Automotive Mechanical Design Process');
#279=PRODUCT_CONTEXT('part definition',#278,'mechanical');
#280=PRODUCT('2026-05-07-11-25-36-893',
'esiratta_keeramis_mehanismi_stapikas',$,(#279));
#281=PRESENTATION_STYLE_ASSIGNMENT((#282));
#282=SURFACE_STYLE_USAGE(.BOTH.,#283);
#283=SURFACE_SIDE_STYLE('',(#284));
#284=SURFACE_STYLE_FILL_AREA(#285);
#285=FILL_AREA_STYLE('Steel - Satin',(#286));
#286=FILL_AREA_STYLE_COLOUR('Steel - Satin',#287);
#287=COLOUR_RGB('Steel - Satin',0.627450980392157,0.627450980392157,0.627450980392157);
ENDSEC;
END-ISO-10303-21;
