ISO-10303-21;
HEADER;
/* Generated by software containing ST-Developer
 * from STEP Tools, Inc. (www.steptools.com) 
 */

FILE_DESCRIPTION(
/* description */ (''),
/* implementation_level */ '2;1');

FILE_NAME(
/* name */ 'Servomootori kinnitus.step',
/* time_stamp */ '2026-05-07T11:24:39+03:00',
/* author */ (''),
/* organization */ (''),
/* preprocessor_version */ 'ST-DEVELOPER v20.1',
/* originating_system */ 'Autodesk Translation Framework v15.8.0.0',
/* authorisation */ '');

FILE_SCHEMA (('AUTOMOTIVE_DESIGN { 1 0 10303 214 3 1 1 }'));
ENDSEC;

DATA;
#10=MECHANICAL_DESIGN_GEOMETRIC_PRESENTATION_REPRESENTATION('',(#13),#1297);
#11=SHAPE_REPRESENTATION_RELATIONSHIP('SRR','None',#1304,#12);
#12=ADVANCED_BREP_SHAPE_REPRESENTATION('',(#14),#1296);
#13=STYLED_ITEM('',(#1314),#14);
#14=MANIFOLD_SOLID_BREP('Body1',#788);
#15=CYLINDRICAL_SURFACE('',#812,1.5);
#16=CYLINDRICAL_SURFACE('',#815,1.5);
#17=CYLINDRICAL_SURFACE('',#836,1.6);
#18=CYLINDRICAL_SURFACE('',#837,1.6);
#19=CYLINDRICAL_SURFACE('',#838,2.99999999999999);
#20=CYLINDRICAL_SURFACE('',#841,3.00000000000001);
#21=CYLINDRICAL_SURFACE('',#851,1.6);
#22=CYLINDRICAL_SURFACE('',#852,1.6);
#23=CYLINDRICAL_SURFACE('',#854,2.99999999999999);
#24=CYLINDRICAL_SURFACE('',#859,3.00000000000001);
#25=FACE_BOUND('',#100,.T.);
#26=FACE_BOUND('',#109,.T.);
#27=FACE_BOUND('',#114,.T.);
#28=FACE_BOUND('',#115,.T.);
#29=FACE_BOUND('',#121,.T.);
#30=FACE_BOUND('',#123,.T.);
#31=FACE_BOUND('',#132,.T.);
#32=FACE_BOUND('',#134,.T.);
#33=FACE_BOUND('',#135,.T.);
#34=FACE_BOUND('',#146,.T.);
#35=CIRCLE('',#806,1.5);
#36=CIRCLE('',#807,1.5);
#37=CIRCLE('',#813,1.5);
#38=CIRCLE('',#816,1.5);
#39=CIRCLE('',#822,3.00000000000001);
#40=CIRCLE('',#823,2.99999999999999);
#41=CIRCLE('',#824,1.6);
#42=CIRCLE('',#825,1.6);
#43=CIRCLE('',#831,2.99999999999999);
#44=CIRCLE('',#832,1.6);
#45=CIRCLE('',#834,3.00000000000001);
#46=CIRCLE('',#835,1.6);
#47=CIRCLE('',#844,2.99999999999999);
#48=CIRCLE('',#845,1.6);
#49=CIRCLE('',#847,2.99999999999999);
#50=CIRCLE('',#848,3.00000000000001);
#51=CIRCLE('',#849,1.6);
#52=CIRCLE('',#850,1.6);
#53=CIRCLE('',#853,1.6);
#54=CIRCLE('',#860,3.00000000000001);
#55=FACE_OUTER_BOUND('',#96,.T.);
#56=FACE_OUTER_BOUND('',#97,.T.);
#57=FACE_OUTER_BOUND('',#98,.T.);
#58=FACE_OUTER_BOUND('',#99,.T.);
#59=FACE_OUTER_BOUND('',#101,.T.);
#60=FACE_OUTER_BOUND('',#102,.T.);
#61=FACE_OUTER_BOUND('',#103,.T.);
#62=FACE_OUTER_BOUND('',#104,.T.);
#63=FACE_OUTER_BOUND('',#105,.T.);
#64=FACE_OUTER_BOUND('',#106,.T.);
#65=FACE_OUTER_BOUND('',#107,.T.);
#66=FACE_OUTER_BOUND('',#108,.T.);
#67=FACE_OUTER_BOUND('',#110,.T.);
#68=FACE_OUTER_BOUND('',#111,.T.);
#69=FACE_OUTER_BOUND('',#112,.T.);
#70=FACE_OUTER_BOUND('',#113,.T.);
#71=FACE_OUTER_BOUND('',#116,.T.);
#72=FACE_OUTER_BOUND('',#117,.T.);
#73=FACE_OUTER_BOUND('',#118,.T.);
#74=FACE_OUTER_BOUND('',#119,.T.);
#75=FACE_OUTER_BOUND('',#120,.T.);
#76=FACE_OUTER_BOUND('',#122,.T.);
#77=FACE_OUTER_BOUND('',#124,.T.);
#78=FACE_OUTER_BOUND('',#125,.T.);
#79=FACE_OUTER_BOUND('',#126,.T.);
#80=FACE_OUTER_BOUND('',#127,.T.);
#81=FACE_OUTER_BOUND('',#128,.T.);
#82=FACE_OUTER_BOUND('',#129,.T.);
#83=FACE_OUTER_BOUND('',#130,.T.);
#84=FACE_OUTER_BOUND('',#131,.T.);
#85=FACE_OUTER_BOUND('',#133,.T.);
#86=FACE_OUTER_BOUND('',#136,.T.);
#87=FACE_OUTER_BOUND('',#137,.T.);
#88=FACE_OUTER_BOUND('',#138,.T.);
#89=FACE_OUTER_BOUND('',#139,.T.);
#90=FACE_OUTER_BOUND('',#140,.T.);
#91=FACE_OUTER_BOUND('',#141,.T.);
#92=FACE_OUTER_BOUND('',#142,.T.);
#93=FACE_OUTER_BOUND('',#143,.T.);
#94=FACE_OUTER_BOUND('',#144,.T.);
#95=FACE_OUTER_BOUND('',#145,.T.);
#96=EDGE_LOOP('',(#500,#501,#502,#503));
#97=EDGE_LOOP('',(#504,#505,#506,#507));
#98=EDGE_LOOP('',(#508,#509,#510,#511));
#99=EDGE_LOOP('',(#512,#513,#514,#515,#516,#517));
#100=EDGE_LOOP('',(#518,#519,#520,#521));
#101=EDGE_LOOP('',(#522,#523,#524,#525));
#102=EDGE_LOOP('',(#526,#527,#528,#529));
#103=EDGE_LOOP('',(#530,#531,#532,#533,#534,#535));
#104=EDGE_LOOP('',(#536,#537,#538,#539));
#105=EDGE_LOOP('',(#540,#541,#542,#543));
#106=EDGE_LOOP('',(#544,#545,#546,#547));
#107=EDGE_LOOP('',(#548,#549,#550,#551));
#108=EDGE_LOOP('',(#552,#553,#554,#555,#556,#557));
#109=EDGE_LOOP('',(#558,#559,#560,#561));
#110=EDGE_LOOP('',(#562,#563,#564,#565));
#111=EDGE_LOOP('',(#566,#567,#568,#569));
#112=EDGE_LOOP('',(#570,#571,#572,#573));
#113=EDGE_LOOP('',(#574,#575,#576,#577,#578,#579,#580,#581,#582,#583,#584,
#585,#586,#587));
#114=EDGE_LOOP('',(#588));
#115=EDGE_LOOP('',(#589));
#116=EDGE_LOOP('',(#590,#591,#592,#593));
#117=EDGE_LOOP('',(#594,#595,#596,#597));
#118=EDGE_LOOP('',(#598,#599,#600,#601));
#119=EDGE_LOOP('',(#602,#603,#604,#605));
#120=EDGE_LOOP('',(#606,#607,#608,#609,#610));
#121=EDGE_LOOP('',(#611));
#122=EDGE_LOOP('',(#612,#613,#614,#615,#616));
#123=EDGE_LOOP('',(#617));
#124=EDGE_LOOP('',(#618,#619,#620,#621));
#125=EDGE_LOOP('',(#622,#623,#624,#625));
#126=EDGE_LOOP('',(#626,#627,#628,#629));
#127=EDGE_LOOP('',(#630,#631,#632,#633));
#128=EDGE_LOOP('',(#634,#635,#636,#637));
#129=EDGE_LOOP('',(#638,#639,#640,#641));
#130=EDGE_LOOP('',(#642,#643,#644,#645,#646,#647,#648,#649));
#131=EDGE_LOOP('',(#650,#651,#652,#653,#654));
#132=EDGE_LOOP('',(#655));
#133=EDGE_LOOP('',(#656,#657,#658,#659,#660,#661,#662,#663));
#134=EDGE_LOOP('',(#664));
#135=EDGE_LOOP('',(#665));
#136=EDGE_LOOP('',(#666,#667,#668,#669));
#137=EDGE_LOOP('',(#670,#671,#672,#673));
#138=EDGE_LOOP('',(#674,#675,#676,#677));
#139=EDGE_LOOP('',(#678,#679,#680,#681));
#140=EDGE_LOOP('',(#682,#683,#684,#685,#686,#687));
#141=EDGE_LOOP('',(#688,#689,#690,#691,#692,#693));
#142=EDGE_LOOP('',(#694,#695,#696,#697));
#143=EDGE_LOOP('',(#698,#699,#700,#701));
#144=EDGE_LOOP('',(#702,#703,#704,#705,#706,#707,#708,#709));
#145=EDGE_LOOP('',(#710,#711,#712,#713,#714));
#146=EDGE_LOOP('',(#715));
#147=LINE('',#1079,#235);
#148=LINE('',#1081,#236);
#149=LINE('',#1083,#237);
#150=LINE('',#1084,#238);
#151=LINE('',#1087,#239);
#152=LINE('',#1089,#240);
#153=LINE('',#1090,#241);
#154=LINE('',#1093,#242);
#155=LINE('',#1095,#243);
#156=LINE('',#1096,#244);
#157=LINE('',#1099,#245);
#158=LINE('',#1101,#246);
#159=LINE('',#1103,#247);
#160=LINE('',#1104,#248);
#161=LINE('',#1107,#249);
#162=LINE('',#1111,#250);
#163=LINE('',#1116,#251);
#164=LINE('',#1118,#252);
#165=LINE('',#1120,#253);
#166=LINE('',#1121,#254);
#167=LINE('',#1123,#255);
#168=LINE('',#1124,#256);
#169=LINE('',#1126,#257);
#170=LINE('',#1129,#258);
#171=LINE('',#1131,#259);
#172=LINE('',#1132,#260);
#173=LINE('',#1136,#261);
#174=LINE('',#1139,#262);
#175=LINE('',#1140,#263);
#176=LINE('',#1145,#264);
#177=LINE('',#1147,#265);
#178=LINE('',#1148,#266);
#179=LINE('',#1150,#267);
#180=LINE('',#1153,#268);
#181=LINE('',#1154,#269);
#182=LINE('',#1156,#270);
#183=LINE('',#1160,#271);
#184=LINE('',#1164,#272);
#185=LINE('',#1166,#273);
#186=LINE('',#1167,#274);
#187=LINE('',#1169,#275);
#188=LINE('',#1172,#276);
#189=LINE('',#1180,#277);
#190=LINE('',#1182,#278);
#191=LINE('',#1184,#279);
#192=LINE('',#1185,#280);
#193=LINE('',#1188,#281);
#194=LINE('',#1190,#282);
#195=LINE('',#1191,#283);
#196=LINE('',#1195,#284);
#197=LINE('',#1197,#285);
#198=LINE('',#1199,#286);
#199=LINE('',#1200,#287);
#200=LINE('',#1203,#288);
#201=LINE('',#1205,#289);
#202=LINE('',#1206,#290);
#203=LINE('',#1209,#291);
#204=LINE('',#1212,#292);
#205=LINE('',#1217,#293);
#206=LINE('',#1220,#294);
#207=LINE('',#1224,#295);
#208=LINE('',#1226,#296);
#209=LINE('',#1228,#297);
#210=LINE('',#1229,#298);
#211=LINE('',#1231,#299);
#212=LINE('',#1233,#300);
#213=LINE('',#1234,#301);
#214=LINE('',#1236,#302);
#215=LINE('',#1240,#303);
#216=LINE('',#1242,#304);
#217=LINE('',#1243,#305);
#218=LINE('',#1244,#306);
#219=LINE('',#1247,#307);
#220=LINE('',#1250,#308);
#221=LINE('',#1255,#309);
#222=LINE('',#1259,#310);
#223=LINE('',#1261,#311);
#224=LINE('',#1263,#312);
#225=LINE('',#1265,#313);
#226=LINE('',#1272,#314);
#227=LINE('',#1276,#315);
#228=LINE('',#1278,#316);
#229=LINE('',#1279,#317);
#230=LINE('',#1281,#318);
#231=LINE('',#1283,#319);
#232=LINE('',#1285,#320);
#233=LINE('',#1288,#321);
#234=LINE('',#1289,#322);
#235=VECTOR('',#867,10.);
#236=VECTOR('',#868,10.);
#237=VECTOR('',#869,10.);
#238=VECTOR('',#870,10.);
#239=VECTOR('',#873,10.);
#240=VECTOR('',#874,10.);
#241=VECTOR('',#875,10.);
#242=VECTOR('',#878,10.);
#243=VECTOR('',#879,10.);
#244=VECTOR('',#880,10.);
#245=VECTOR('',#883,10.);
#246=VECTOR('',#884,10.);
#247=VECTOR('',#885,10.);
#248=VECTOR('',#886,10.);
#249=VECTOR('',#887,10.);
#250=VECTOR('',#890,10.);
#251=VECTOR('',#895,10.);
#252=VECTOR('',#896,10.);
#253=VECTOR('',#897,10.);
#254=VECTOR('',#898,10.);
#255=VECTOR('',#901,10.);
#256=VECTOR('',#902,10.);
#257=VECTOR('',#905,10.);
#258=VECTOR('',#908,10.);
#259=VECTOR('',#909,10.);
#260=VECTOR('',#910,10.);
#261=VECTOR('',#915,10.);
#262=VECTOR('',#918,10.);
#263=VECTOR('',#919,10.);
#264=VECTOR('',#926,10.);
#265=VECTOR('',#927,10.);
#266=VECTOR('',#928,10.);
#267=VECTOR('',#931,10.);
#268=VECTOR('',#934,10.);
#269=VECTOR('',#935,10.);
#270=VECTOR('',#938,10.);
#271=VECTOR('',#941,10.);
#272=VECTOR('',#944,10.);
#273=VECTOR('',#945,10.);
#274=VECTOR('',#946,10.);
#275=VECTOR('',#947,10.);
#276=VECTOR('',#950,10.);
#277=VECTOR('',#957,10.);
#278=VECTOR('',#958,10.);
#279=VECTOR('',#959,10.);
#280=VECTOR('',#960,10.);
#281=VECTOR('',#963,10.);
#282=VECTOR('',#964,10.);
#283=VECTOR('',#965,10.);
#284=VECTOR('',#968,10.);
#285=VECTOR('',#969,10.);
#286=VECTOR('',#970,10.);
#287=VECTOR('',#971,10.);
#288=VECTOR('',#974,10.);
#289=VECTOR('',#975,10.);
#290=VECTOR('',#976,10.);
#291=VECTOR('',#979,10.);
#292=VECTOR('',#982,10.);
#293=VECTOR('',#987,10.);
#294=VECTOR('',#990,10.);
#295=VECTOR('',#995,1.6);
#296=VECTOR('',#998,1.6);
#297=VECTOR('',#1001,10.);
#298=VECTOR('',#1002,10.);
#299=VECTOR('',#1005,10.);
#300=VECTOR('',#1008,10.);
#301=VECTOR('',#1009,10.);
#302=VECTOR('',#1012,10.);
#303=VECTOR('',#1015,10.);
#304=VECTOR('',#1016,10.);
#305=VECTOR('',#1017,10.);
#306=VECTOR('',#1018,10.);
#307=VECTOR('',#1021,10.);
#308=VECTOR('',#1024,10.);
#309=VECTOR('',#1029,10.);
#310=VECTOR('',#1032,10.);
#311=VECTOR('',#1033,10.);
#312=VECTOR('',#1034,10.);
#313=VECTOR('',#1035,10.);
#314=VECTOR('',#1044,1.6);
#315=VECTOR('',#1049,1.6);
#316=VECTOR('',#1052,10.);
#317=VECTOR('',#1053,10.);
#318=VECTOR('',#1056,10.);
#319=VECTOR('',#1059,10.);
#320=VECTOR('',#1062,10.);
#321=VECTOR('',#1065,10.);
#322=VECTOR('',#1066,10.);
#323=VERTEX_POINT('',#1077);
#324=VERTEX_POINT('',#1078);
#325=VERTEX_POINT('',#1080);
#326=VERTEX_POINT('',#1082);
#327=VERTEX_POINT('',#1086);
#328=VERTEX_POINT('',#1088);
#329=VERTEX_POINT('',#1092);
#330=VERTEX_POINT('',#1094);
#331=VERTEX_POINT('',#1098);
#332=VERTEX_POINT('',#1100);
#333=VERTEX_POINT('',#1102);
#334=VERTEX_POINT('',#1105);
#335=VERTEX_POINT('',#1106);
#336=VERTEX_POINT('',#1108);
#337=VERTEX_POINT('',#1110);
#338=VERTEX_POINT('',#1114);
#339=VERTEX_POINT('',#1115);
#340=VERTEX_POINT('',#1117);
#341=VERTEX_POINT('',#1119);
#342=VERTEX_POINT('',#1128);
#343=VERTEX_POINT('',#1130);
#344=VERTEX_POINT('',#1134);
#345=VERTEX_POINT('',#1138);
#346=VERTEX_POINT('',#1144);
#347=VERTEX_POINT('',#1146);
#348=VERTEX_POINT('',#1152);
#349=VERTEX_POINT('',#1158);
#350=VERTEX_POINT('',#1159);
#351=VERTEX_POINT('',#1161);
#352=VERTEX_POINT('',#1163);
#353=VERTEX_POINT('',#1165);
#354=VERTEX_POINT('',#1168);
#355=VERTEX_POINT('',#1170);
#356=VERTEX_POINT('',#1173);
#357=VERTEX_POINT('',#1175);
#358=VERTEX_POINT('',#1178);
#359=VERTEX_POINT('',#1179);
#360=VERTEX_POINT('',#1181);
#361=VERTEX_POINT('',#1183);
#362=VERTEX_POINT('',#1187);
#363=VERTEX_POINT('',#1189);
#364=VERTEX_POINT('',#1193);
#365=VERTEX_POINT('',#1194);
#366=VERTEX_POINT('',#1196);
#367=VERTEX_POINT('',#1198);
#368=VERTEX_POINT('',#1202);
#369=VERTEX_POINT('',#1204);
#370=VERTEX_POINT('',#1208);
#371=VERTEX_POINT('',#1210);
#372=VERTEX_POINT('',#1213);
#373=VERTEX_POINT('',#1216);
#374=VERTEX_POINT('',#1218);
#375=VERTEX_POINT('',#1221);
#376=VERTEX_POINT('',#1238);
#377=VERTEX_POINT('',#1239);
#378=VERTEX_POINT('',#1241);
#379=VERTEX_POINT('',#1246);
#380=VERTEX_POINT('',#1248);
#381=VERTEX_POINT('',#1251);
#382=VERTEX_POINT('',#1254);
#383=VERTEX_POINT('',#1256);
#384=VERTEX_POINT('',#1258);
#385=VERTEX_POINT('',#1260);
#386=VERTEX_POINT('',#1262);
#387=VERTEX_POINT('',#1264);
#388=VERTEX_POINT('',#1267);
#389=VERTEX_POINT('',#1269);
#390=VERTEX_POINT('',#1274);
#391=VERTEX_POINT('',#1287);
#392=EDGE_CURVE('',#323,#324,#147,.T.);
#393=EDGE_CURVE('',#324,#325,#148,.T.);
#394=EDGE_CURVE('',#325,#326,#149,.T.);
#395=EDGE_CURVE('',#326,#323,#150,.T.);
#396=EDGE_CURVE('',#323,#327,#151,.T.);
#397=EDGE_CURVE('',#327,#328,#152,.T.);
#398=EDGE_CURVE('',#328,#324,#153,.T.);
#399=EDGE_CURVE('',#329,#326,#154,.T.);
#400=EDGE_CURVE('',#330,#329,#155,.T.);
#401=EDGE_CURVE('',#330,#323,#156,.T.);
#402=EDGE_CURVE('',#331,#325,#157,.T.);
#403=EDGE_CURVE('',#332,#331,#158,.T.);
#404=EDGE_CURVE('',#333,#332,#159,.T.);
#405=EDGE_CURVE('',#329,#333,#160,.T.);
#406=EDGE_CURVE('',#334,#335,#161,.T.);
#407=EDGE_CURVE('',#335,#336,#35,.T.);
#408=EDGE_CURVE('',#336,#337,#162,.T.);
#409=EDGE_CURVE('',#337,#334,#36,.T.);
#410=EDGE_CURVE('',#338,#339,#163,.T.);
#411=EDGE_CURVE('',#339,#340,#164,.T.);
#412=EDGE_CURVE('',#340,#341,#165,.T.);
#413=EDGE_CURVE('',#341,#338,#166,.T.);
#414=EDGE_CURVE('',#338,#332,#167,.T.);
#415=EDGE_CURVE('',#331,#339,#168,.T.);
#416=EDGE_CURVE('',#328,#340,#169,.T.);
#417=EDGE_CURVE('',#342,#336,#170,.T.);
#418=EDGE_CURVE('',#343,#342,#171,.T.);
#419=EDGE_CURVE('',#343,#337,#172,.T.);
#420=EDGE_CURVE('',#344,#343,#37,.T.);
#421=EDGE_CURVE('',#344,#334,#173,.T.);
#422=EDGE_CURVE('',#345,#344,#174,.T.);
#423=EDGE_CURVE('',#345,#335,#175,.T.);
#424=EDGE_CURVE('',#342,#345,#38,.T.);
#425=EDGE_CURVE('',#346,#327,#176,.T.);
#426=EDGE_CURVE('',#347,#346,#177,.T.);
#427=EDGE_CURVE('',#347,#341,#178,.T.);
#428=EDGE_CURVE('',#346,#330,#179,.T.);
#429=EDGE_CURVE('',#348,#338,#180,.T.);
#430=EDGE_CURVE('',#333,#348,#181,.T.);
#431=EDGE_CURVE('',#348,#347,#182,.T.);
#432=EDGE_CURVE('',#349,#350,#183,.T.);
#433=EDGE_CURVE('',#350,#351,#39,.T.);
#434=EDGE_CURVE('',#351,#352,#184,.T.);
#435=EDGE_CURVE('',#352,#353,#185,.T.);
#436=EDGE_CURVE('',#353,#347,#186,.T.);
#437=EDGE_CURVE('',#347,#354,#187,.T.);
#438=EDGE_CURVE('',#354,#355,#40,.T.);
#439=EDGE_CURVE('',#355,#349,#188,.T.);
#440=EDGE_CURVE('',#356,#356,#41,.T.);
#441=EDGE_CURVE('',#357,#357,#42,.T.);
#442=EDGE_CURVE('',#358,#359,#189,.T.);
#443=EDGE_CURVE('',#358,#360,#190,.T.);
#444=EDGE_CURVE('',#361,#360,#191,.T.);
#445=EDGE_CURVE('',#359,#361,#192,.T.);
#446=EDGE_CURVE('',#362,#358,#193,.T.);
#447=EDGE_CURVE('',#362,#363,#194,.T.);
#448=EDGE_CURVE('',#360,#363,#195,.T.);
#449=EDGE_CURVE('',#364,#365,#196,.T.);
#450=EDGE_CURVE('',#364,#366,#197,.T.);
#451=EDGE_CURVE('',#367,#366,#198,.T.);
#452=EDGE_CURVE('',#365,#367,#199,.T.);
#453=EDGE_CURVE('',#365,#368,#200,.T.);
#454=EDGE_CURVE('',#369,#367,#201,.T.);
#455=EDGE_CURVE('',#368,#369,#202,.T.);
#456=EDGE_CURVE('',#370,#366,#203,.T.);
#457=EDGE_CURVE('',#371,#370,#43,.T.);
#458=EDGE_CURVE('',#371,#369,#204,.T.);
#459=EDGE_CURVE('',#372,#372,#44,.T.);
#460=EDGE_CURVE('',#373,#363,#205,.T.);
#461=EDGE_CURVE('',#374,#373,#45,.T.);
#462=EDGE_CURVE('',#361,#374,#206,.T.);
#463=EDGE_CURVE('',#375,#375,#46,.T.);
#464=EDGE_CURVE('',#357,#372,#207,.T.);
#465=EDGE_CURVE('',#356,#375,#208,.T.);
#466=EDGE_CURVE('',#370,#355,#209,.T.);
#467=EDGE_CURVE('',#371,#354,#210,.T.);
#468=EDGE_CURVE('',#369,#347,#211,.T.);
#469=EDGE_CURVE('',#363,#352,#212,.T.);
#470=EDGE_CURVE('',#373,#351,#213,.T.);
#471=EDGE_CURVE('',#374,#350,#214,.T.);
#472=EDGE_CURVE('',#376,#377,#215,.T.);
#473=EDGE_CURVE('',#377,#378,#216,.T.);
#474=EDGE_CURVE('',#359,#378,#217,.T.);
#475=EDGE_CURVE('',#376,#349,#218,.T.);
#476=EDGE_CURVE('',#368,#379,#219,.T.);
#477=EDGE_CURVE('',#379,#380,#47,.T.);
#478=EDGE_CURVE('',#380,#364,#220,.T.);
#479=EDGE_CURVE('',#381,#381,#48,.T.);
#480=EDGE_CURVE('',#382,#376,#221,.T.);
#481=EDGE_CURVE('',#383,#382,#49,.T.);
#482=EDGE_CURVE('',#383,#384,#222,.T.);
#483=EDGE_CURVE('',#385,#384,#223,.T.);
#484=EDGE_CURVE('',#385,#386,#224,.T.);
#485=EDGE_CURVE('',#387,#386,#225,.T.);
#486=EDGE_CURVE('',#377,#387,#50,.T.);
#487=EDGE_CURVE('',#388,#388,#51,.T.);
#488=EDGE_CURVE('',#389,#389,#52,.T.);
#489=EDGE_CURVE('',#381,#388,#226,.T.);
#490=EDGE_CURVE('',#390,#390,#53,.T.);
#491=EDGE_CURVE('',#390,#389,#227,.T.);
#492=EDGE_CURVE('',#382,#380,#228,.T.);
#493=EDGE_CURVE('',#383,#379,#229,.T.);
#494=EDGE_CURVE('',#384,#368,#230,.T.);
#495=EDGE_CURVE('',#385,#353,#231,.T.);
#496=EDGE_CURVE('',#386,#362,#232,.T.);
#497=EDGE_CURVE('',#391,#362,#233,.T.);
#498=EDGE_CURVE('',#387,#391,#234,.T.);
#499=EDGE_CURVE('',#378,#391,#54,.T.);
#500=ORIENTED_EDGE('',*,*,#392,.T.);
#501=ORIENTED_EDGE('',*,*,#393,.T.);
#502=ORIENTED_EDGE('',*,*,#394,.T.);
#503=ORIENTED_EDGE('',*,*,#395,.T.);
#504=ORIENTED_EDGE('',*,*,#392,.F.);
#505=ORIENTED_EDGE('',*,*,#396,.T.);
#506=ORIENTED_EDGE('',*,*,#397,.T.);
#507=ORIENTED_EDGE('',*,*,#398,.T.);
#508=ORIENTED_EDGE('',*,*,#395,.F.);
#509=ORIENTED_EDGE('',*,*,#399,.F.);
#510=ORIENTED_EDGE('',*,*,#400,.F.);
#511=ORIENTED_EDGE('',*,*,#401,.T.);
#512=ORIENTED_EDGE('',*,*,#394,.F.);
#513=ORIENTED_EDGE('',*,*,#402,.F.);
#514=ORIENTED_EDGE('',*,*,#403,.F.);
#515=ORIENTED_EDGE('',*,*,#404,.F.);
#516=ORIENTED_EDGE('',*,*,#405,.F.);
#517=ORIENTED_EDGE('',*,*,#399,.T.);
#518=ORIENTED_EDGE('',*,*,#406,.T.);
#519=ORIENTED_EDGE('',*,*,#407,.T.);
#520=ORIENTED_EDGE('',*,*,#408,.T.);
#521=ORIENTED_EDGE('',*,*,#409,.T.);
#522=ORIENTED_EDGE('',*,*,#410,.T.);
#523=ORIENTED_EDGE('',*,*,#411,.T.);
#524=ORIENTED_EDGE('',*,*,#412,.T.);
#525=ORIENTED_EDGE('',*,*,#413,.T.);
#526=ORIENTED_EDGE('',*,*,#410,.F.);
#527=ORIENTED_EDGE('',*,*,#414,.T.);
#528=ORIENTED_EDGE('',*,*,#403,.T.);
#529=ORIENTED_EDGE('',*,*,#415,.T.);
#530=ORIENTED_EDGE('',*,*,#398,.F.);
#531=ORIENTED_EDGE('',*,*,#416,.T.);
#532=ORIENTED_EDGE('',*,*,#411,.F.);
#533=ORIENTED_EDGE('',*,*,#415,.F.);
#534=ORIENTED_EDGE('',*,*,#402,.T.);
#535=ORIENTED_EDGE('',*,*,#393,.F.);
#536=ORIENTED_EDGE('',*,*,#408,.F.);
#537=ORIENTED_EDGE('',*,*,#417,.F.);
#538=ORIENTED_EDGE('',*,*,#418,.F.);
#539=ORIENTED_EDGE('',*,*,#419,.T.);
#540=ORIENTED_EDGE('',*,*,#409,.F.);
#541=ORIENTED_EDGE('',*,*,#419,.F.);
#542=ORIENTED_EDGE('',*,*,#420,.F.);
#543=ORIENTED_EDGE('',*,*,#421,.T.);
#544=ORIENTED_EDGE('',*,*,#406,.F.);
#545=ORIENTED_EDGE('',*,*,#421,.F.);
#546=ORIENTED_EDGE('',*,*,#422,.F.);
#547=ORIENTED_EDGE('',*,*,#423,.T.);
#548=ORIENTED_EDGE('',*,*,#407,.F.);
#549=ORIENTED_EDGE('',*,*,#423,.F.);
#550=ORIENTED_EDGE('',*,*,#424,.F.);
#551=ORIENTED_EDGE('',*,*,#417,.T.);
#552=ORIENTED_EDGE('',*,*,#397,.F.);
#553=ORIENTED_EDGE('',*,*,#425,.F.);
#554=ORIENTED_EDGE('',*,*,#426,.F.);
#555=ORIENTED_EDGE('',*,*,#427,.T.);
#556=ORIENTED_EDGE('',*,*,#412,.F.);
#557=ORIENTED_EDGE('',*,*,#416,.F.);
#558=ORIENTED_EDGE('',*,*,#422,.T.);
#559=ORIENTED_EDGE('',*,*,#420,.T.);
#560=ORIENTED_EDGE('',*,*,#418,.T.);
#561=ORIENTED_EDGE('',*,*,#424,.T.);
#562=ORIENTED_EDGE('',*,*,#396,.F.);
#563=ORIENTED_EDGE('',*,*,#401,.F.);
#564=ORIENTED_EDGE('',*,*,#428,.F.);
#565=ORIENTED_EDGE('',*,*,#425,.T.);
#566=ORIENTED_EDGE('',*,*,#414,.F.);
#567=ORIENTED_EDGE('',*,*,#429,.F.);
#568=ORIENTED_EDGE('',*,*,#430,.F.);
#569=ORIENTED_EDGE('',*,*,#404,.T.);
#570=ORIENTED_EDGE('',*,*,#413,.F.);
#571=ORIENTED_EDGE('',*,*,#427,.F.);
#572=ORIENTED_EDGE('',*,*,#431,.F.);
#573=ORIENTED_EDGE('',*,*,#429,.T.);
#574=ORIENTED_EDGE('',*,*,#432,.T.);
#575=ORIENTED_EDGE('',*,*,#433,.T.);
#576=ORIENTED_EDGE('',*,*,#434,.T.);
#577=ORIENTED_EDGE('',*,*,#435,.T.);
#578=ORIENTED_EDGE('',*,*,#436,.T.);
#579=ORIENTED_EDGE('',*,*,#426,.T.);
#580=ORIENTED_EDGE('',*,*,#428,.T.);
#581=ORIENTED_EDGE('',*,*,#400,.T.);
#582=ORIENTED_EDGE('',*,*,#405,.T.);
#583=ORIENTED_EDGE('',*,*,#430,.T.);
#584=ORIENTED_EDGE('',*,*,#431,.T.);
#585=ORIENTED_EDGE('',*,*,#437,.T.);
#586=ORIENTED_EDGE('',*,*,#438,.T.);
#587=ORIENTED_EDGE('',*,*,#439,.T.);
#588=ORIENTED_EDGE('',*,*,#440,.T.);
#589=ORIENTED_EDGE('',*,*,#441,.T.);
#590=ORIENTED_EDGE('',*,*,#442,.F.);
#591=ORIENTED_EDGE('',*,*,#443,.T.);
#592=ORIENTED_EDGE('',*,*,#444,.F.);
#593=ORIENTED_EDGE('',*,*,#445,.F.);
#594=ORIENTED_EDGE('',*,*,#446,.F.);
#595=ORIENTED_EDGE('',*,*,#447,.T.);
#596=ORIENTED_EDGE('',*,*,#448,.F.);
#597=ORIENTED_EDGE('',*,*,#443,.F.);
#598=ORIENTED_EDGE('',*,*,#449,.F.);
#599=ORIENTED_EDGE('',*,*,#450,.T.);
#600=ORIENTED_EDGE('',*,*,#451,.F.);
#601=ORIENTED_EDGE('',*,*,#452,.F.);
#602=ORIENTED_EDGE('',*,*,#453,.F.);
#603=ORIENTED_EDGE('',*,*,#452,.T.);
#604=ORIENTED_EDGE('',*,*,#454,.F.);
#605=ORIENTED_EDGE('',*,*,#455,.F.);
#606=ORIENTED_EDGE('',*,*,#451,.T.);
#607=ORIENTED_EDGE('',*,*,#456,.F.);
#608=ORIENTED_EDGE('',*,*,#457,.F.);
#609=ORIENTED_EDGE('',*,*,#458,.T.);
#610=ORIENTED_EDGE('',*,*,#454,.T.);
#611=ORIENTED_EDGE('',*,*,#459,.F.);
#612=ORIENTED_EDGE('',*,*,#444,.T.);
#613=ORIENTED_EDGE('',*,*,#448,.T.);
#614=ORIENTED_EDGE('',*,*,#460,.F.);
#615=ORIENTED_EDGE('',*,*,#461,.F.);
#616=ORIENTED_EDGE('',*,*,#462,.F.);
#617=ORIENTED_EDGE('',*,*,#463,.F.);
#618=ORIENTED_EDGE('',*,*,#441,.F.);
#619=ORIENTED_EDGE('',*,*,#464,.T.);
#620=ORIENTED_EDGE('',*,*,#459,.T.);
#621=ORIENTED_EDGE('',*,*,#464,.F.);
#622=ORIENTED_EDGE('',*,*,#440,.F.);
#623=ORIENTED_EDGE('',*,*,#465,.T.);
#624=ORIENTED_EDGE('',*,*,#463,.T.);
#625=ORIENTED_EDGE('',*,*,#465,.F.);
#626=ORIENTED_EDGE('',*,*,#457,.T.);
#627=ORIENTED_EDGE('',*,*,#466,.T.);
#628=ORIENTED_EDGE('',*,*,#438,.F.);
#629=ORIENTED_EDGE('',*,*,#467,.F.);
#630=ORIENTED_EDGE('',*,*,#458,.F.);
#631=ORIENTED_EDGE('',*,*,#467,.T.);
#632=ORIENTED_EDGE('',*,*,#437,.F.);
#633=ORIENTED_EDGE('',*,*,#468,.F.);
#634=ORIENTED_EDGE('',*,*,#460,.T.);
#635=ORIENTED_EDGE('',*,*,#469,.T.);
#636=ORIENTED_EDGE('',*,*,#434,.F.);
#637=ORIENTED_EDGE('',*,*,#470,.F.);
#638=ORIENTED_EDGE('',*,*,#461,.T.);
#639=ORIENTED_EDGE('',*,*,#470,.T.);
#640=ORIENTED_EDGE('',*,*,#433,.F.);
#641=ORIENTED_EDGE('',*,*,#471,.F.);
#642=ORIENTED_EDGE('',*,*,#472,.T.);
#643=ORIENTED_EDGE('',*,*,#473,.T.);
#644=ORIENTED_EDGE('',*,*,#474,.F.);
#645=ORIENTED_EDGE('',*,*,#445,.T.);
#646=ORIENTED_EDGE('',*,*,#462,.T.);
#647=ORIENTED_EDGE('',*,*,#471,.T.);
#648=ORIENTED_EDGE('',*,*,#432,.F.);
#649=ORIENTED_EDGE('',*,*,#475,.F.);
#650=ORIENTED_EDGE('',*,*,#449,.T.);
#651=ORIENTED_EDGE('',*,*,#453,.T.);
#652=ORIENTED_EDGE('',*,*,#476,.T.);
#653=ORIENTED_EDGE('',*,*,#477,.T.);
#654=ORIENTED_EDGE('',*,*,#478,.T.);
#655=ORIENTED_EDGE('',*,*,#479,.T.);
#656=ORIENTED_EDGE('',*,*,#472,.F.);
#657=ORIENTED_EDGE('',*,*,#480,.F.);
#658=ORIENTED_EDGE('',*,*,#481,.F.);
#659=ORIENTED_EDGE('',*,*,#482,.T.);
#660=ORIENTED_EDGE('',*,*,#483,.F.);
#661=ORIENTED_EDGE('',*,*,#484,.T.);
#662=ORIENTED_EDGE('',*,*,#485,.F.);
#663=ORIENTED_EDGE('',*,*,#486,.F.);
#664=ORIENTED_EDGE('',*,*,#487,.F.);
#665=ORIENTED_EDGE('',*,*,#488,.F.);
#666=ORIENTED_EDGE('',*,*,#479,.F.);
#667=ORIENTED_EDGE('',*,*,#489,.T.);
#668=ORIENTED_EDGE('',*,*,#487,.T.);
#669=ORIENTED_EDGE('',*,*,#489,.F.);
#670=ORIENTED_EDGE('',*,*,#490,.F.);
#671=ORIENTED_EDGE('',*,*,#491,.T.);
#672=ORIENTED_EDGE('',*,*,#488,.T.);
#673=ORIENTED_EDGE('',*,*,#491,.F.);
#674=ORIENTED_EDGE('',*,*,#481,.T.);
#675=ORIENTED_EDGE('',*,*,#492,.T.);
#676=ORIENTED_EDGE('',*,*,#477,.F.);
#677=ORIENTED_EDGE('',*,*,#493,.F.);
#678=ORIENTED_EDGE('',*,*,#482,.F.);
#679=ORIENTED_EDGE('',*,*,#493,.T.);
#680=ORIENTED_EDGE('',*,*,#476,.F.);
#681=ORIENTED_EDGE('',*,*,#494,.F.);
#682=ORIENTED_EDGE('',*,*,#483,.T.);
#683=ORIENTED_EDGE('',*,*,#494,.T.);
#684=ORIENTED_EDGE('',*,*,#455,.T.);
#685=ORIENTED_EDGE('',*,*,#468,.T.);
#686=ORIENTED_EDGE('',*,*,#436,.F.);
#687=ORIENTED_EDGE('',*,*,#495,.F.);
#688=ORIENTED_EDGE('',*,*,#484,.F.);
#689=ORIENTED_EDGE('',*,*,#495,.T.);
#690=ORIENTED_EDGE('',*,*,#435,.F.);
#691=ORIENTED_EDGE('',*,*,#469,.F.);
#692=ORIENTED_EDGE('',*,*,#447,.F.);
#693=ORIENTED_EDGE('',*,*,#496,.F.);
#694=ORIENTED_EDGE('',*,*,#485,.T.);
#695=ORIENTED_EDGE('',*,*,#496,.T.);
#696=ORIENTED_EDGE('',*,*,#497,.F.);
#697=ORIENTED_EDGE('',*,*,#498,.F.);
#698=ORIENTED_EDGE('',*,*,#486,.T.);
#699=ORIENTED_EDGE('',*,*,#498,.T.);
#700=ORIENTED_EDGE('',*,*,#499,.F.);
#701=ORIENTED_EDGE('',*,*,#473,.F.);
#702=ORIENTED_EDGE('',*,*,#478,.F.);
#703=ORIENTED_EDGE('',*,*,#492,.F.);
#704=ORIENTED_EDGE('',*,*,#480,.T.);
#705=ORIENTED_EDGE('',*,*,#475,.T.);
#706=ORIENTED_EDGE('',*,*,#439,.F.);
#707=ORIENTED_EDGE('',*,*,#466,.F.);
#708=ORIENTED_EDGE('',*,*,#456,.T.);
#709=ORIENTED_EDGE('',*,*,#450,.F.);
#710=ORIENTED_EDGE('',*,*,#442,.T.);
#711=ORIENTED_EDGE('',*,*,#474,.T.);
#712=ORIENTED_EDGE('',*,*,#499,.T.);
#713=ORIENTED_EDGE('',*,*,#497,.T.);
#714=ORIENTED_EDGE('',*,*,#446,.T.);
#715=ORIENTED_EDGE('',*,*,#490,.T.);
#716=PLANE('',#802);
#717=PLANE('',#803);
#718=PLANE('',#804);
#719=PLANE('',#805);
#720=PLANE('',#808);
#721=PLANE('',#809);
#722=PLANE('',#810);
#723=PLANE('',#811);
#724=PLANE('',#814);
#725=PLANE('',#817);
#726=PLANE('',#818);
#727=PLANE('',#819);
#728=PLANE('',#820);
#729=PLANE('',#821);
#730=PLANE('',#826);
#731=PLANE('',#827);
#732=PLANE('',#828);
#733=PLANE('',#829);
#734=PLANE('',#830);
#735=PLANE('',#833);
#736=PLANE('',#839);
#737=PLANE('',#840);
#738=PLANE('',#842);
#739=PLANE('',#843);
#740=PLANE('',#846);
#741=PLANE('',#855);
#742=PLANE('',#856);
#743=PLANE('',#857);
#744=PLANE('',#858);
#745=PLANE('',#861);
#746=PLANE('',#862);
#747=ADVANCED_FACE('',(#55),#716,.T.);
#748=ADVANCED_FACE('',(#56),#717,.T.);
#749=ADVANCED_FACE('',(#57),#718,.T.);
#750=ADVANCED_FACE('',(#58,#25),#719,.T.);
#751=ADVANCED_FACE('',(#59),#720,.T.);
#752=ADVANCED_FACE('',(#60),#721,.T.);
#753=ADVANCED_FACE('',(#61),#722,.T.);
#754=ADVANCED_FACE('',(#62),#723,.F.);
#755=ADVANCED_FACE('',(#63),#15,.F.);
#756=ADVANCED_FACE('',(#64),#724,.F.);
#757=ADVANCED_FACE('',(#65),#16,.F.);
#758=ADVANCED_FACE('',(#66,#26),#725,.T.);
#759=ADVANCED_FACE('',(#67),#726,.T.);
#760=ADVANCED_FACE('',(#68),#727,.T.);
#761=ADVANCED_FACE('',(#69),#728,.T.);
#762=ADVANCED_FACE('',(#70,#27,#28),#729,.T.);
#763=ADVANCED_FACE('',(#71),#730,.T.);
#764=ADVANCED_FACE('',(#72),#731,.T.);
#765=ADVANCED_FACE('',(#73),#732,.T.);
#766=ADVANCED_FACE('',(#74),#733,.T.);
#767=ADVANCED_FACE('',(#75,#29),#734,.F.);
#768=ADVANCED_FACE('',(#76,#30),#735,.F.);
#769=ADVANCED_FACE('',(#77),#17,.F.);
#770=ADVANCED_FACE('',(#78),#18,.F.);
#771=ADVANCED_FACE('',(#79),#19,.T.);
#772=ADVANCED_FACE('',(#80),#736,.T.);
#773=ADVANCED_FACE('',(#81),#737,.T.);
#774=ADVANCED_FACE('',(#82),#20,.T.);
#775=ADVANCED_FACE('',(#83),#738,.T.);
#776=ADVANCED_FACE('',(#84,#31),#739,.T.);
#777=ADVANCED_FACE('',(#85,#32,#33),#740,.F.);
#778=ADVANCED_FACE('',(#86),#21,.F.);
#779=ADVANCED_FACE('',(#87),#22,.F.);
#780=ADVANCED_FACE('',(#88),#23,.T.);
#781=ADVANCED_FACE('',(#89),#741,.T.);
#782=ADVANCED_FACE('',(#90),#742,.T.);
#783=ADVANCED_FACE('',(#91),#743,.T.);
#784=ADVANCED_FACE('',(#92),#744,.T.);
#785=ADVANCED_FACE('',(#93),#24,.T.);
#786=ADVANCED_FACE('',(#94),#745,.T.);
#787=ADVANCED_FACE('',(#95,#34),#746,.T.);
#788=CLOSED_SHELL('',(#747,#748,#749,#750,#751,#752,#753,#754,#755,#756,
#757,#758,#759,#760,#761,#762,#763,#764,#765,#766,#767,#768,#769,#770,#771,
#772,#773,#774,#775,#776,#777,#778,#779,#780,#781,#782,#783,#784,#785,#786,
#787));
#789=DERIVED_UNIT_ELEMENT(#791,1.);
#790=DERIVED_UNIT_ELEMENT(#1299,-3.);
#791=(
MASS_UNIT()
NAMED_UNIT(*)
SI_UNIT(.KILO.,.GRAM.)
);
#792=DERIVED_UNIT((#789,#790));
#793=MEASURE_REPRESENTATION_ITEM('density measure',
POSITIVE_RATIO_MEASURE(1420.),#792);
#794=PROPERTY_DEFINITION_REPRESENTATION(#799,#796);
#795=PROPERTY_DEFINITION_REPRESENTATION(#800,#797);
#796=REPRESENTATION('material name',(#798),#1296);
#797=REPRESENTATION('density',(#793),#1296);
#798=DESCRIPTIVE_REPRESENTATION_ITEM('PET','PET');
#799=PROPERTY_DEFINITION('material property','material name',#1306);
#800=PROPERTY_DEFINITION('material property','density of part',#1306);
#801=AXIS2_PLACEMENT_3D('',#1075,#863,#864);
#802=AXIS2_PLACEMENT_3D('',#1076,#865,#866);
#803=AXIS2_PLACEMENT_3D('',#1085,#871,#872);
#804=AXIS2_PLACEMENT_3D('',#1091,#876,#877);
#805=AXIS2_PLACEMENT_3D('',#1097,#881,#882);
#806=AXIS2_PLACEMENT_3D('',#1109,#888,#889);
#807=AXIS2_PLACEMENT_3D('',#1112,#891,#892);
#808=AXIS2_PLACEMENT_3D('',#1113,#893,#894);
#809=AXIS2_PLACEMENT_3D('',#1122,#899,#900);
#810=AXIS2_PLACEMENT_3D('',#1125,#903,#904);
#811=AXIS2_PLACEMENT_3D('',#1127,#906,#907);
#812=AXIS2_PLACEMENT_3D('',#1133,#911,#912);
#813=AXIS2_PLACEMENT_3D('',#1135,#913,#914);
#814=AXIS2_PLACEMENT_3D('',#1137,#916,#917);
#815=AXIS2_PLACEMENT_3D('',#1141,#920,#921);
#816=AXIS2_PLACEMENT_3D('',#1142,#922,#923);
#817=AXIS2_PLACEMENT_3D('',#1143,#924,#925);
#818=AXIS2_PLACEMENT_3D('',#1149,#929,#930);
#819=AXIS2_PLACEMENT_3D('',#1151,#932,#933);
#820=AXIS2_PLACEMENT_3D('',#1155,#936,#937);
#821=AXIS2_PLACEMENT_3D('',#1157,#939,#940);
#822=AXIS2_PLACEMENT_3D('',#1162,#942,#943);
#823=AXIS2_PLACEMENT_3D('',#1171,#948,#949);
#824=AXIS2_PLACEMENT_3D('',#1174,#951,#952);
#825=AXIS2_PLACEMENT_3D('',#1176,#953,#954);
#826=AXIS2_PLACEMENT_3D('',#1177,#955,#956);
#827=AXIS2_PLACEMENT_3D('',#1186,#961,#962);
#828=AXIS2_PLACEMENT_3D('',#1192,#966,#967);
#829=AXIS2_PLACEMENT_3D('',#1201,#972,#973);
#830=AXIS2_PLACEMENT_3D('',#1207,#977,#978);
#831=AXIS2_PLACEMENT_3D('',#1211,#980,#981);
#832=AXIS2_PLACEMENT_3D('',#1214,#983,#984);
#833=AXIS2_PLACEMENT_3D('',#1215,#985,#986);
#834=AXIS2_PLACEMENT_3D('',#1219,#988,#989);
#835=AXIS2_PLACEMENT_3D('',#1222,#991,#992);
#836=AXIS2_PLACEMENT_3D('',#1223,#993,#994);
#837=AXIS2_PLACEMENT_3D('',#1225,#996,#997);
#838=AXIS2_PLACEMENT_3D('',#1227,#999,#1000);
#839=AXIS2_PLACEMENT_3D('',#1230,#1003,#1004);
#840=AXIS2_PLACEMENT_3D('',#1232,#1006,#1007);
#841=AXIS2_PLACEMENT_3D('',#1235,#1010,#1011);
#842=AXIS2_PLACEMENT_3D('',#1237,#1013,#1014);
#843=AXIS2_PLACEMENT_3D('',#1245,#1019,#1020);
#844=AXIS2_PLACEMENT_3D('',#1249,#1022,#1023);
#845=AXIS2_PLACEMENT_3D('',#1252,#1025,#1026);
#846=AXIS2_PLACEMENT_3D('',#1253,#1027,#1028);
#847=AXIS2_PLACEMENT_3D('',#1257,#1030,#1031);
#848=AXIS2_PLACEMENT_3D('',#1266,#1036,#1037);
#849=AXIS2_PLACEMENT_3D('',#1268,#1038,#1039);
#850=AXIS2_PLACEMENT_3D('',#1270,#1040,#1041);
#851=AXIS2_PLACEMENT_3D('',#1271,#1042,#1043);
#852=AXIS2_PLACEMENT_3D('',#1273,#1045,#1046);
#853=AXIS2_PLACEMENT_3D('',#1275,#1047,#1048);
#854=AXIS2_PLACEMENT_3D('',#1277,#1050,#1051);
#855=AXIS2_PLACEMENT_3D('',#1280,#1054,#1055);
#856=AXIS2_PLACEMENT_3D('',#1282,#1057,#1058);
#857=AXIS2_PLACEMENT_3D('',#1284,#1060,#1061);
#858=AXIS2_PLACEMENT_3D('',#1286,#1063,#1064);
#859=AXIS2_PLACEMENT_3D('',#1290,#1067,#1068);
#860=AXIS2_PLACEMENT_3D('',#1291,#1069,#1070);
#861=AXIS2_PLACEMENT_3D('',#1292,#1071,#1072);
#862=AXIS2_PLACEMENT_3D('',#1293,#1073,#1074);
#863=DIRECTION('axis',(0.,0.,1.));
#864=DIRECTION('refdir',(1.,0.,0.));
#865=DIRECTION('center_axis',(-5.54736933095886E-5,-0.707106781186608,0.707106779010486));
#866=DIRECTION('ref_axis',(0.999999996922669,0.,7.84516494333525E-5));
#867=DIRECTION('',(2.77368467272427E-5,-0.707106780914484,-0.70710678091461));
#868=DIRECTION('',(0.999999996922669,1.18860444384231E-15,7.84516494345411E-5));
#869=DIRECTION('',(-8.37392226426692E-16,0.707106780098486,0.707106782274609));
#870=DIRECTION('',(-0.999999996922669,-1.18860444384231E-15,-7.84516494345411E-5));
#871=DIRECTION('center_axis',(8.3737306154755E-16,-0.707106781186608,0.707106781186487));
#872=DIRECTION('ref_axis',(1.,0.,-1.18422434040653E-15));
#873=DIRECTION('',(-1.,-1.1842378929335E-15,-1.3552527176224E-20));
#874=DIRECTION('',(8.37392227715129E-16,-0.707106781186487,-0.707106781186608));
#875=DIRECTION('',(1.,1.1842378929335E-15,1.3552527176224E-20));
#876=DIRECTION('center_axis',(-7.84516494345411E-5,5.56590878911768E-14,
0.999999996922669));
#877=DIRECTION('ref_axis',(-0.999999996922669,-1.55069548584348E-15,-7.84516494345411E-5));
#878=DIRECTION('',(1.1842378929335E-15,-1.,5.56591809678745E-14));
#879=DIRECTION('',(0.999999996922669,1.54635867715353E-15,7.84516494345411E-5));
#880=DIRECTION('',(1.1842378929335E-15,-1.,5.56591809678745E-14));
#881=DIRECTION('center_axis',(1.,1.1842378929335E-15,1.35525271560837E-20));
#882=DIRECTION('ref_axis',(-1.35525271561325E-20,4.11665516456301E-17,1.));
#883=DIRECTION('',(-1.35525271561325E-20,4.11665516456301E-17,1.));
#884=DIRECTION('',(8.37373060258979E-16,-0.707106780098507,0.707106782274588));
#885=DIRECTION('',(1.1842378929335E-15,-1.,5.56591809678745E-14));
#886=DIRECTION('',(1.35525271561325E-20,-4.11665516456302E-17,-1.));
#887=DIRECTION('',(-1.1842378929335E-15,1.,0.));
#888=DIRECTION('center_axis',(-1.,-1.1842378929335E-15,-1.35525271560837E-20));
#889=DIRECTION('ref_axis',(0.,0.,1.));
#890=DIRECTION('',(1.1842378929335E-15,-1.,0.));
#891=DIRECTION('center_axis',(-1.,-1.1842378929335E-15,-1.35525271560837E-20));
#892=DIRECTION('ref_axis',(0.,0.,-1.));
#893=DIRECTION('center_axis',(8.37392227715263E-16,-0.707106781186586,-0.707106781186509));
#894=DIRECTION('ref_axis',(-1.,0.,-1.18425144546081E-15));
#895=DIRECTION('',(-2.77368466476876E-5,-0.707106780914509,0.707106780914586));
#896=DIRECTION('',(-1.,-1.1842378929335E-15,-1.35525271785143E-20));
#897=DIRECTION('',(-8.37373061547447E-16,0.707106781186509,-0.707106781186586));
#898=DIRECTION('',(1.,1.1842378929335E-15,1.35525271785143E-20));
#899=DIRECTION('center_axis',(5.54736933112712E-5,-0.707106781186587,-0.707106779010507));
#900=DIRECTION('ref_axis',(-0.999999996922669,0.,-7.84516494357297E-5));
#901=DIRECTION('',(0.999999996922669,1.18860444384231E-15,7.84516494345411E-5));
#902=DIRECTION('',(-0.999999996922669,-1.18860444384231E-15,-7.84516494345411E-5));
#903=DIRECTION('center_axis',(1.1842378929335E-15,-1.,5.56591809678745E-14));
#904=DIRECTION('ref_axis',(0.,-5.56591809678745E-14,-1.));
#905=DIRECTION('',(1.35525271561452E-20,-4.940225035245E-17,-1.));
#906=DIRECTION('center_axis',(0.,0.,-1.));
#907=DIRECTION('ref_axis',(0.,1.,0.));
#908=DIRECTION('',(1.,0.,0.));
#909=DIRECTION('',(-1.1842378929335E-15,1.,0.));
#910=DIRECTION('',(1.,0.,0.));
#911=DIRECTION('center_axis',(1.,0.,0.));
#912=DIRECTION('ref_axis',(0.,0.,-1.));
#913=DIRECTION('center_axis',(1.,1.1842378929335E-15,1.35525271560867E-20));
#914=DIRECTION('ref_axis',(0.,0.,-1.));
#915=DIRECTION('',(1.,0.,0.));
#916=DIRECTION('center_axis',(0.,0.,1.));
#917=DIRECTION('ref_axis',(0.,-1.,0.));
#918=DIRECTION('',(1.1842378929335E-15,-1.,0.));
#919=DIRECTION('',(1.,0.,0.));
#920=DIRECTION('center_axis',(1.,0.,0.));
#921=DIRECTION('ref_axis',(0.,0.,1.));
#922=DIRECTION('center_axis',(1.,1.1842378929335E-15,1.35525271560867E-20));
#923=DIRECTION('ref_axis',(0.,0.,1.));
#924=DIRECTION('center_axis',(-1.,-1.1842378929335E-15,-1.35525271560867E-20));
#925=DIRECTION('ref_axis',(1.35525271561452E-20,-4.940225035245E-17,-1.));
#926=DIRECTION('',(1.1842378929335E-15,-1.,5.56591809678745E-14));
#927=DIRECTION('',(-1.35525271561354E-20,4.11665516456302E-17,1.));
#928=DIRECTION('',(1.1842378929335E-15,-1.,5.56591809678745E-14));
#929=DIRECTION('center_axis',(-1.35525272421377E-20,5.56591809678745E-14,
1.));
#930=DIRECTION('ref_axis',(-1.,-1.5463554523283E-15,-1.35525271560688E-20));
#931=DIRECTION('',(1.,1.5463554523283E-15,1.35525271560688E-20));
#932=DIRECTION('center_axis',(7.84516494345411E-5,-5.56590878911768E-14,
-0.999999996922669));
#933=DIRECTION('ref_axis',(0.999999996922669,1.55069548584348E-15,7.84516494345411E-5));
#934=DIRECTION('',(1.1842378929335E-15,-1.,5.56591809678745E-14));
#935=DIRECTION('',(-0.999999996922669,-1.54635867715353E-15,-7.84516494345411E-5));
#936=DIRECTION('center_axis',(1.3552527244428E-20,-5.56591809678745E-14,
-1.));
#937=DIRECTION('ref_axis',(1.,1.58753480720788E-15,1.35525271560671E-20));
#938=DIRECTION('',(-1.,-1.5463554523283E-15,-1.35525271583591E-20));
#939=DIRECTION('center_axis',(1.5463554523283E-15,-1.,4.11665516456302E-17));
#940=DIRECTION('ref_axis',(1.,1.5463554523283E-15,1.35525271560688E-20));
#941=DIRECTION('',(-0.132241483148129,-1.63687330883441E-16,0.991217529170456));
#942=DIRECTION('center_axis',(1.5463554523283E-15,-1.,4.11665516456302E-17));
#943=DIRECTION('ref_axis',(0.999999996922669,1.54635867715354E-15,7.8451649484871E-5));
#944=DIRECTION('',(-0.257518586846531,-4.42463277817537E-16,-0.966273345088524));
#945=DIRECTION('',(1.35525271561396E-20,-4.57924325414057E-17,-1.));
#946=DIRECTION('',(7.84516494330717E-5,-4.1045237383102E-17,-0.999999996922669));
#947=DIRECTION('',(0.257735936295579,3.67714996119772E-16,-0.966215393761578));
#948=DIRECTION('center_axis',(1.5463554523283E-15,-1.,4.11665516456302E-17));
#949=DIRECTION('ref_axis',(-0.999999996922669,-1.54635867715354E-15,-7.84516494907927E-5));
#950=DIRECTION('',(0.132085956220488,2.45057699851838E-16,0.991238266094141));
#951=DIRECTION('center_axis',(-1.5463554523283E-15,1.,-4.11665516456302E-17));
#952=DIRECTION('ref_axis',(1.,1.5463554523283E-15,1.35525271560688E-20));
#953=DIRECTION('center_axis',(-1.5463554523283E-15,1.,-4.11665516456302E-17));
#954=DIRECTION('ref_axis',(1.,1.5463554523283E-15,1.35525271560688E-20));
#955=DIRECTION('center_axis',(-7.84516494345411E-5,-2.32263540058796E-19,
0.999999996922669));
#956=DIRECTION('ref_axis',(-0.999999996922669,-1.55069548584348E-15,-7.84516494345411E-5));
#957=DIRECTION('',(0.999999996922669,1.54635867715353E-15,7.84516494345411E-5));
#958=DIRECTION('',(2.96059473233375E-15,-1.,0.));
#959=DIRECTION('',(-0.999999996922669,-1.54635867715353E-15,-7.84516494345411E-5));
#960=DIRECTION('',(2.96059473233375E-15,-1.,0.));
#961=DIRECTION('center_axis',(-1.35525271560688E-20,-4.01235405080674E-35,
1.));
#962=DIRECTION('ref_axis',(-1.,-1.5463554523283E-15,-1.35525271560688E-20));
#963=DIRECTION('',(1.,1.5463554523283E-15,1.35525271560688E-20));
#964=DIRECTION('',(2.96059473233375E-15,-1.,0.));
#965=DIRECTION('',(-1.,-1.5463554523283E-15,-1.35525271560688E-20));
#966=DIRECTION('center_axis',(7.84516494345411E-5,2.32263540058796E-19,
-0.999999996922669));
#967=DIRECTION('ref_axis',(0.999999996922669,1.55069548584348E-15,7.84516494345411E-5));
#968=DIRECTION('',(-0.999999996922669,-1.54635867715353E-15,-7.84516494345411E-5));
#969=DIRECTION('',(2.96059473233375E-15,-1.,0.));
#970=DIRECTION('',(0.999999996922669,1.54635867715353E-15,7.84516494345411E-5));
#971=DIRECTION('',(2.96059473233375E-15,-1.,0.));
#972=DIRECTION('center_axis',(1.35525271560674E-20,4.01235405080632E-35,
-1.));
#973=DIRECTION('ref_axis',(1.,1.58104992174106E-15,1.35525271560674E-20));
#974=DIRECTION('',(-1.,-1.5463554523283E-15,-1.35525271560674E-20));
#975=DIRECTION('',(1.,1.5463554523283E-15,1.35525271560674E-20));
#976=DIRECTION('',(2.96059473233375E-15,-1.,0.));
#977=DIRECTION('center_axis',(1.5463554523283E-15,-1.,4.11665516456302E-17));
#978=DIRECTION('ref_axis',(1.,1.5463554523283E-15,1.35525271560688E-20));
#979=DIRECTION('',(0.132085956220488,2.45057699851838E-16,0.991238266094141));
#980=DIRECTION('center_axis',(1.5463554523283E-15,-1.,4.11665516456302E-17));
#981=DIRECTION('ref_axis',(-0.999999996922669,-1.54635867715354E-15,-7.84516494907927E-5));
#982=DIRECTION('',(-0.257735936295579,-3.67714996119772E-16,0.966215393761578));
#983=DIRECTION('center_axis',(-1.5463554523283E-15,1.,-4.11665516456302E-17));
#984=DIRECTION('ref_axis',(1.,1.5463554523283E-15,1.35525271560688E-20));
#985=DIRECTION('center_axis',(1.5463554523283E-15,-1.,4.11665516456302E-17));
#986=DIRECTION('ref_axis',(1.,1.5463554523283E-15,1.35525271560688E-20));
#987=DIRECTION('',(-0.257518586846531,-4.42463277817537E-16,-0.966273345088524));
#988=DIRECTION('center_axis',(1.5463554523283E-15,-1.,4.11665516456302E-17));
#989=DIRECTION('ref_axis',(0.999999996922669,1.54635867715354E-15,7.8451649484871E-5));
#990=DIRECTION('',(-0.132241483148129,-1.63687330883441E-16,0.991217529170456));
#991=DIRECTION('center_axis',(-1.5463554523283E-15,1.,-4.11665516456302E-17));
#992=DIRECTION('ref_axis',(1.,1.5463554523283E-15,1.35525271560688E-20));
#993=DIRECTION('center_axis',(0.,-1.,0.));
#994=DIRECTION('ref_axis',(1.,0.,1.35525271560688E-20));
#995=DIRECTION('',(0.,1.,0.));
#996=DIRECTION('center_axis',(0.,-1.,0.));
#997=DIRECTION('ref_axis',(1.,0.,1.35525271560688E-20));
#998=DIRECTION('',(0.,1.,0.));
#999=DIRECTION('center_axis',(0.,-1.,0.));
#1000=DIRECTION('ref_axis',(-0.999999996922669,0.,-7.84516494907927E-5));
#1001=DIRECTION('',(0.,-1.,0.));
#1002=DIRECTION('',(0.,-1.,0.));
#1003=DIRECTION('center_axis',(-0.966215393761578,0.,-0.257735936295579));
#1004=DIRECTION('ref_axis',(0.257735936295579,3.67714996119772E-16,-0.966215393761578));
#1005=DIRECTION('',(0.,-1.,0.));
#1006=DIRECTION('center_axis',(-0.966273345088524,0.,0.257518586846531));
#1007=DIRECTION('ref_axis',(-0.257518586846531,-4.42463277817537E-16,-0.966273345088524));
#1008=DIRECTION('',(0.,-1.,0.));
#1009=DIRECTION('',(0.,-1.,0.));
#1010=DIRECTION('center_axis',(0.,-1.,0.));
#1011=DIRECTION('ref_axis',(0.999999996922669,0.,7.8451649484871E-5));
#1012=DIRECTION('',(0.,-1.,0.));
#1013=DIRECTION('center_axis',(0.991217529170456,0.,0.132241483148129));
#1014=DIRECTION('ref_axis',(-0.132241483148129,-1.63687330883441E-16,0.991217529170456));
#1015=DIRECTION('',(-0.132241483148129,-1.63687330883441E-16,0.991217529170456));
#1016=DIRECTION('',(0.,-1.,0.));
#1017=DIRECTION('',(-0.132241483148129,-1.63687330883441E-16,0.991217529170456));
#1018=DIRECTION('',(0.,-1.,0.));
#1019=DIRECTION('center_axis',(1.5463554523283E-15,-1.,4.11665516456302E-17));
#1020=DIRECTION('ref_axis',(1.,1.5463554523283E-15,1.35525271560688E-20));
#1021=DIRECTION('',(0.257735936295579,3.67714996119772E-16,-0.966215393761578));
#1022=DIRECTION('center_axis',(1.5463554523283E-15,-1.,4.11665516456302E-17));
#1023=DIRECTION('ref_axis',(-0.999999996922669,-1.54635867715354E-15,-7.84516494907927E-5));
#1024=DIRECTION('',(0.132085956220488,2.45057699851838E-16,0.991238266094141));
#1025=DIRECTION('center_axis',(-1.5463554523283E-15,1.,-4.11665516456302E-17));
#1026=DIRECTION('ref_axis',(1.,1.5463554523283E-15,1.35525271560688E-20));
#1027=DIRECTION('center_axis',(1.5463554523283E-15,-1.,4.11665516456302E-17));
#1028=DIRECTION('ref_axis',(1.,1.5463554523283E-15,1.35525271560688E-20));
#1029=DIRECTION('',(0.132085956220488,2.45057699851838E-16,0.991238266094141));
#1030=DIRECTION('center_axis',(1.5463554523283E-15,-1.,4.11665516456302E-17));
#1031=DIRECTION('ref_axis',(-0.999999996922669,-1.54635867715354E-15,-7.84516494907927E-5));
#1032=DIRECTION('',(-0.257735936295579,-3.67714996119772E-16,0.966215393761578));
#1033=DIRECTION('',(7.84516494330717E-5,-4.1045237383102E-17,-0.999999996922669));
#1034=DIRECTION('',(-1.35525271561396E-20,4.57924325414057E-17,1.));
#1035=DIRECTION('',(-0.257518586846531,-4.42463277817537E-16,-0.966273345088524));
#1036=DIRECTION('center_axis',(1.5463554523283E-15,-1.,4.11665516456302E-17));
#1037=DIRECTION('ref_axis',(0.999999996922669,1.54635867715354E-15,7.8451649484871E-5));
#1038=DIRECTION('center_axis',(-1.5463554523283E-15,1.,-4.11665516456302E-17));
#1039=DIRECTION('ref_axis',(1.,1.5463554523283E-15,1.35525271560688E-20));
#1040=DIRECTION('center_axis',(-1.5463554523283E-15,1.,-4.11665516456302E-17));
#1041=DIRECTION('ref_axis',(1.,1.5463554523283E-15,1.35525271560688E-20));
#1042=DIRECTION('center_axis',(0.,-1.,0.));
#1043=DIRECTION('ref_axis',(1.,0.,1.35525271560688E-20));
#1044=DIRECTION('',(0.,1.,0.));
#1045=DIRECTION('center_axis',(0.,-1.,0.));
#1046=DIRECTION('ref_axis',(1.,0.,1.35525271560688E-20));
#1047=DIRECTION('center_axis',(-1.5463554523283E-15,1.,-4.11665516456302E-17));
#1048=DIRECTION('ref_axis',(1.,1.5463554523283E-15,1.35525271560688E-20));
#1049=DIRECTION('',(0.,1.,0.));
#1050=DIRECTION('center_axis',(0.,-1.,0.));
#1051=DIRECTION('ref_axis',(-0.999999996922669,0.,-7.84516494907927E-5));
#1052=DIRECTION('',(0.,-1.,0.));
#1053=DIRECTION('',(0.,-1.,0.));
#1054=DIRECTION('center_axis',(-0.966215393761578,0.,-0.257735936295579));
#1055=DIRECTION('ref_axis',(0.257735936295579,3.67714996119772E-16,-0.966215393761578));
#1056=DIRECTION('',(0.,-1.,0.));
#1057=DIRECTION('center_axis',(-0.999999996922669,0.,-7.84516494330717E-5));
#1058=DIRECTION('ref_axis',(7.84516494330717E-5,-4.1045237383102E-17,-0.999999996922669));
#1059=DIRECTION('',(0.,-1.,0.));
#1060=DIRECTION('center_axis',(-1.,0.,-1.35525271561396E-20));
#1061=DIRECTION('ref_axis',(1.35525271561396E-20,-4.57924325414057E-17,
-1.));
#1062=DIRECTION('',(0.,-1.,0.));
#1063=DIRECTION('center_axis',(-0.966273345088524,0.,0.257518586846531));
#1064=DIRECTION('ref_axis',(-0.257518586846531,-4.42463277817537E-16,-0.966273345088524));
#1065=DIRECTION('',(-0.257518586846531,-4.42463277817537E-16,-0.966273345088524));
#1066=DIRECTION('',(0.,-1.,0.));
#1067=DIRECTION('center_axis',(0.,-1.,0.));
#1068=DIRECTION('ref_axis',(0.999999996922669,0.,7.8451649484871E-5));
#1069=DIRECTION('center_axis',(1.5463554523283E-15,-1.,4.11665516456302E-17));
#1070=DIRECTION('ref_axis',(0.999999996922669,1.54635867715354E-15,7.8451649484871E-5));
#1071=DIRECTION('center_axis',(0.991238266094141,0.,-0.132085956220488));
#1072=DIRECTION('ref_axis',(0.132085956220488,2.45057699851838E-16,0.991238266094141));
#1073=DIRECTION('center_axis',(1.5463554523283E-15,-1.,4.11665516456302E-17));
#1074=DIRECTION('ref_axis',(1.,1.5463554523283E-15,1.35525271560688E-20));
#1075=CARTESIAN_POINT('',(0.,0.,0.));
#1076=CARTESIAN_POINT('Origin',(-97.0084143587345,-18.9999999999996,-93.9609636197068));
#1077=CARTESIAN_POINT('',(-98.2594146157265,-17.4999999999999,-92.4610617581248));
#1078=CARTESIAN_POINT('',(-98.259296938252,-20.4999999999993,-95.4610617581246));
#1079=CARTESIAN_POINT('',(-98.2594146157265,-17.4999999999999,-92.4610617581248));
#1080=CARTESIAN_POINT('',(-96.258237844062,-20.4999999999999,-95.4609047717376));
#1081=CARTESIAN_POINT('',(-97.0082966812604,-20.4999999999993,-95.4609636150907));
#1082=CARTESIAN_POINT('',(-96.258237844062,-17.4999999999999,-92.4609047625057));
#1083=CARTESIAN_POINT('',(-96.258237844062,-19.0000147339187,-93.9609195010408));
#1084=CARTESIAN_POINT('',(-97.0085320362087,-17.4999999999999,-92.4609636243229));
#1085=CARTESIAN_POINT('Origin',(-98.0088262298943,-18.9999999999996,-93.9610617581247));
#1086=CARTESIAN_POINT('',(-99.258237844062,-17.4999999999999,-92.4610617581248));
#1087=CARTESIAN_POINT('',(-98.0088262298943,-17.4999999999999,-92.4610617581248));
#1088=CARTESIAN_POINT('',(-99.258237844062,-20.4999999999999,-95.4610617581246));
#1089=CARTESIAN_POINT('',(-99.258237844062,-15.2500000000005,-90.2110617581249));
#1090=CARTESIAN_POINT('',(-98.0088262298943,-20.4999999999993,-95.4610617581246));
#1091=CARTESIAN_POINT('Origin',(-96.258237844062,-5.49999999999994,-92.4609047625064));
#1092=CARTESIAN_POINT('',(-96.258237844062,-5.49999999999994,-92.4609047625064));
#1093=CARTESIAN_POINT('',(-96.258237844062,-5.49999999999994,-92.4609047625064));
#1094=CARTESIAN_POINT('',(-98.2594146157265,-5.49999999999994,-92.4610617581254));
#1095=CARTESIAN_POINT('',(-95.2588262360487,-5.49999999999994,-92.4608263570171));
#1096=CARTESIAN_POINT('',(-98.2594146157265,-5.49999999999994,-92.4610617581254));
#1097=CARTESIAN_POINT('Origin',(-96.258237844062,-5.49999999999994,-107.460904808666));
#1098=CARTESIAN_POINT('',(-96.258237844062,-20.4999999999999,-104.460904799434));
#1099=CARTESIAN_POINT('',(-96.258237844062,-20.4999999999999,-107.461061711965));
#1100=CARTESIAN_POINT('',(-96.258237844062,-17.4999999999999,-107.460904808666));
#1101=CARTESIAN_POINT('',(-96.258237844062,-15.2499656900974,-109.710939125493));
#1102=CARTESIAN_POINT('',(-96.258237844062,-5.49999999999994,-107.460904808666));
#1103=CARTESIAN_POINT('',(-96.258237844062,-5.49999999999994,-107.460904808666));
#1104=CARTESIAN_POINT('',(-96.258237844062,-5.49999999999994,-103.710826368557));
#1105=CARTESIAN_POINT('',(-96.258237844062,-17.4999999999998,-98.4610617350446));
#1106=CARTESIAN_POINT('',(-96.258237844062,-8.49999999999983,-98.4610617350446));
#1107=CARTESIAN_POINT('',(-96.258237844062,-6.99999999999988,-98.4610617350446));
#1108=CARTESIAN_POINT('',(-96.258237844062,-8.49999999999983,-101.461061735045));
#1109=CARTESIAN_POINT('Origin',(-96.258237844062,-8.49999999999983,-99.9610617350446));
#1110=CARTESIAN_POINT('',(-96.258237844062,-17.4999999999998,-101.461061735045));
#1111=CARTESIAN_POINT('',(-96.258237844062,-11.4999999999999,-101.461061735045));
#1112=CARTESIAN_POINT('Origin',(-96.258237844062,-17.4999999999998,-99.9610617350446));
#1113=CARTESIAN_POINT('Origin',(-98.508237844062,-18.9999999999999,-105.961061711965));
#1114=CARTESIAN_POINT('',(-98.2582378409843,-17.4999999999999,-107.461061711965));
#1115=CARTESIAN_POINT('',(-98.2583555184584,-20.4999999999998,-104.461061711965));
#1116=CARTESIAN_POINT('',(-98.2582378409843,-17.4999999999999,-107.461061711965));
#1117=CARTESIAN_POINT('',(-99.258237844062,-20.4999999999999,-104.461061711965));
#1118=CARTESIAN_POINT('',(-98.508237844062,-20.4999999999998,-104.461061711965));
#1119=CARTESIAN_POINT('',(-99.258237844062,-17.4999999999999,-107.461061711965));
#1120=CARTESIAN_POINT('',(-99.258237844062,-18.9999999884601,-105.961061723505));
#1121=CARTESIAN_POINT('',(-98.508237844062,-17.4999999999999,-107.461061711965));
#1122=CARTESIAN_POINT('Origin',(-98.0080613247732,-18.9999999999999,-105.961042080588));
#1123=CARTESIAN_POINT('',(-98.0079436472991,-17.4999999999999,-107.461042075972));
#1124=CARTESIAN_POINT('',(-98.0081790022474,-20.4999999999998,-104.461042085204));
#1125=CARTESIAN_POINT('Origin',(-97.758237844062,-20.4999999999995,-99.9609832372351));
#1126=CARTESIAN_POINT('',(-99.258237844062,-20.4999999999999,-92.4607479515269));
#1127=CARTESIAN_POINT('Origin',(-99.258237844062,-17.4999999999998,-101.461061735045));
#1128=CARTESIAN_POINT('',(-99.258237844062,-8.49999999999983,-101.461061735045));
#1129=CARTESIAN_POINT('',(-99.258237844062,-8.49999999999983,-101.461061735045));
#1130=CARTESIAN_POINT('',(-99.258237844062,-17.4999999999998,-101.461061735045));
#1131=CARTESIAN_POINT('',(-99.258237844062,-11.4999999999999,-101.461061735045));
#1132=CARTESIAN_POINT('',(-99.258237844062,-17.4999999999998,-101.461061735045));
#1133=CARTESIAN_POINT('Origin',(-99.258237844062,-17.4999999999998,-99.9610617350446));
#1134=CARTESIAN_POINT('',(-99.258237844062,-17.4999999999998,-98.4610617350446));
#1135=CARTESIAN_POINT('Origin',(-99.258237844062,-17.4999999999998,-99.9610617350446));
#1136=CARTESIAN_POINT('',(-99.258237844062,-17.4999999999998,-98.4610617350446));
#1137=CARTESIAN_POINT('Origin',(-99.258237844062,-8.49999999999983,-98.4610617350446));
#1138=CARTESIAN_POINT('',(-99.258237844062,-8.49999999999983,-98.4610617350446));
#1139=CARTESIAN_POINT('',(-99.258237844062,-6.99999999999989,-98.4610617350446));
#1140=CARTESIAN_POINT('',(-99.258237844062,-8.49999999999983,-98.4610617350446));
#1141=CARTESIAN_POINT('Origin',(-99.258237844062,-8.49999999999983,-99.9610617350446));
#1142=CARTESIAN_POINT('Origin',(-99.258237844062,-8.49999999999983,-99.9610617350446));
#1143=CARTESIAN_POINT('Origin',(-99.258237844062,-5.49999999999995,-92.4610617581254));
#1144=CARTESIAN_POINT('',(-99.258237844062,-5.49999999999995,-92.4610617581254));
#1145=CARTESIAN_POINT('',(-99.258237844062,-5.49999999999995,-92.4610617581254));
#1146=CARTESIAN_POINT('',(-99.258237844062,-5.49999999999995,-107.461061711966));
#1147=CARTESIAN_POINT('',(-99.258237844062,-5.49999999999995,-96.2109048432867));
#1148=CARTESIAN_POINT('',(-99.258237844062,-5.49999999999995,-107.461061711965));
#1149=CARTESIAN_POINT('Origin',(-98.2594146157265,-5.49999999999995,-92.4610617581254));
#1150=CARTESIAN_POINT('',(-96.2591204281956,-5.49999999999994,-92.4610617581254));
#1151=CARTESIAN_POINT('Origin',(-98.2582378409843,-5.49999999999995,-107.461061711965));
#1152=CARTESIAN_POINT('',(-98.2582378409843,-5.49999999999995,-107.461061711965));
#1153=CARTESIAN_POINT('',(-98.2582378409843,-5.49999999999995,-107.461061711965));
#1154=CARTESIAN_POINT('',(-96.2582378471391,-5.49999999999994,-107.460904808667));
#1155=CARTESIAN_POINT('Origin',(-99.258237844062,-5.49999999999995,-107.461061711965));
#1156=CARTESIAN_POINT('',(-96.7585320423634,-5.49999999999994,-107.461061711965));
#1157=CARTESIAN_POINT('Origin',(-94.2588262406647,-5.49999999999994,-99.960747928448));
#1158=CARTESIAN_POINT('',(-89.2588262560514,-5.49999999999993,-99.960355670201));
#1159=CARTESIAN_POINT('',(-91.260003024639,-5.49999999999993,-84.9605126196596));
#1160=CARTESIAN_POINT('',(-89.2588262560514,-5.49999999999993,-99.960355670201));
#1161=CARTESIAN_POINT('',(-97.260003006175,-5.49999999999994,-84.9609833295565));
#1162=CARTESIAN_POINT('Origin',(-94.260003015407,-5.49999999999994,-84.960747974608));
#1163=CARTESIAN_POINT('',(-99.2588262252781,-5.49999999999995,-92.4610617581258));
#1164=CARTESIAN_POINT('',(-97.260003006175,-5.49999999999994,-84.9609833295565));
#1165=CARTESIAN_POINT('',(-99.2588262252781,-5.49999999999995,-99.9611401866951));
#1166=CARTESIAN_POINT('',(-99.2588262252781,-5.49999999999995,-99.9611401866951));
#1167=CARTESIAN_POINT('',(-99.2588262252781,-5.49999999999995,-99.9611401866951));
#1168=CARTESIAN_POINT('',(-97.2576494566905,-5.49999999999994,-114.960983237237));
#1169=CARTESIAN_POINT('',(-97.2576494566905,-5.49999999999994,-114.960983237237));
#1170=CARTESIAN_POINT('',(-91.2576494751545,-5.49999999999994,-114.96051252734));
#1171=CARTESIAN_POINT('Origin',(-94.2576494659225,-5.49999999999994,-114.960747882288));
#1172=CARTESIAN_POINT('',(-91.2576494751545,-5.49999999999994,-114.96051252734));
#1173=CARTESIAN_POINT('',(-95.8599637895823,-5.49999999999994,-85.4607479730693));
#1174=CARTESIAN_POINT('Origin',(-94.2599637895823,-5.49999999999994,-85.4607479730693));
#1175=CARTESIAN_POINT('',(-95.8576886917472,-5.49999999999994,-114.460747883827));
#1176=CARTESIAN_POINT('Origin',(-94.2576886917472,-5.49999999999994,-114.460747883827));
#1177=CARTESIAN_POINT('Origin',(-90.2594146403452,0.500000000000068,-92.4604341449303));
#1178=CARTESIAN_POINT('',(-98.2594146157266,-0.999999999999944,-92.4610617581258));
#1179=CARTESIAN_POINT('',(-90.2594146403452,-0.999999999999932,-92.4604341449303));
#1180=CARTESIAN_POINT('',(-92.2594146341903,-0.999999999999935,-92.4605910482292));
#1181=CARTESIAN_POINT('',(-98.2594146157265,-3.99999999999994,-92.4610617581258));
#1182=CARTESIAN_POINT('',(-98.2594146157266,0.500000000000056,-92.4610617581258));
#1183=CARTESIAN_POINT('',(-90.2594146403452,-3.99999999999993,-92.4604341449303));
#1184=CARTESIAN_POINT('',(-92.2594146341903,-3.99999999999994,-92.4605910482292));
#1185=CARTESIAN_POINT('',(-90.2594146403452,0.500000000000068,-92.4604341449303));
#1186=CARTESIAN_POINT('Origin',(-98.2594146157266,0.500000000000056,-92.4610617581258));
#1187=CARTESIAN_POINT('',(-99.2588262252781,-0.999999999999946,-92.4610617581258));
#1188=CARTESIAN_POINT('',(-96.2591204281956,-0.999999999999941,-92.4610617581258));
#1189=CARTESIAN_POINT('',(-99.2588262252781,-3.99999999999995,-92.4610617581258));
#1190=CARTESIAN_POINT('',(-99.2588262252781,0.500000000000054,-92.4610617581258));
#1191=CARTESIAN_POINT('',(-96.2591204281956,-3.99999999999994,-92.4610617581258));
#1192=CARTESIAN_POINT('Origin',(-98.2582378409843,0.500000000000055,-107.461061711966));
#1193=CARTESIAN_POINT('',(-90.2582378656029,-0.999999999999933,-107.46043409877));
#1194=CARTESIAN_POINT('',(-98.2582378409843,-0.999999999999945,-107.461061711966));
#1195=CARTESIAN_POINT('',(-96.2582378471391,-0.999999999999942,-107.460904808667));
#1196=CARTESIAN_POINT('',(-90.2582378656029,-3.99999999999993,-107.46043409877));
#1197=CARTESIAN_POINT('',(-90.2582378656029,0.500000000000067,-107.46043409877));
#1198=CARTESIAN_POINT('',(-98.2582378409843,-3.99999999999995,-107.461061711966));
#1199=CARTESIAN_POINT('',(-96.2582378471391,-3.99999999999994,-107.460904808667));
#1200=CARTESIAN_POINT('',(-98.2582378409843,0.500000000000055,-107.461061711966));
#1201=CARTESIAN_POINT('Origin',(-99.258237844062,0.500000000000053,-107.461061711966));
#1202=CARTESIAN_POINT('',(-99.258237844062,-0.999999999999947,-107.461061711966));
#1203=CARTESIAN_POINT('',(-96.7585320423634,-0.999999999999943,-107.461061711966));
#1204=CARTESIAN_POINT('',(-99.258237844062,-3.99999999999995,-107.461061711966));
#1205=CARTESIAN_POINT('',(-96.7585320423634,-3.99999999999994,-107.461061711966));
#1206=CARTESIAN_POINT('',(-99.258237844062,0.500000000000053,-107.461061711966));
#1207=CARTESIAN_POINT('Origin',(-94.2588262406647,-3.99999999999994,-99.960747928448));
#1208=CARTESIAN_POINT('',(-91.2576494751545,-3.99999999999994,-114.96051252734));
#1209=CARTESIAN_POINT('',(-91.2576494751545,-3.99999999999994,-114.96051252734));
#1210=CARTESIAN_POINT('',(-97.2576494566905,-3.99999999999994,-114.960983237237));
#1211=CARTESIAN_POINT('Origin',(-94.2576494659225,-3.99999999999994,-114.960747882288));
#1212=CARTESIAN_POINT('',(-97.2576494566905,-3.99999999999994,-114.960983237237));
#1213=CARTESIAN_POINT('',(-95.8576886917472,-3.99999999999994,-114.460747883827));
#1214=CARTESIAN_POINT('Origin',(-94.2576886917472,-3.99999999999994,-114.460747883827));
#1215=CARTESIAN_POINT('Origin',(-94.2588262406647,-3.99999999999994,-99.960747928448));
#1216=CARTESIAN_POINT('',(-97.260003006175,-3.99999999999994,-84.9609833295565));
#1217=CARTESIAN_POINT('',(-97.260003006175,-3.99999999999994,-84.9609833295565));
#1218=CARTESIAN_POINT('',(-91.260003024639,-3.99999999999993,-84.9605126196596));
#1219=CARTESIAN_POINT('Origin',(-94.260003015407,-3.99999999999994,-84.960747974608));
#1220=CARTESIAN_POINT('',(-89.2588262560514,-3.99999999999993,-99.960355670201));
#1221=CARTESIAN_POINT('',(-95.8599637895823,-3.99999999999994,-85.4607479730693));
#1222=CARTESIAN_POINT('Origin',(-94.2599637895823,-3.99999999999994,-85.4607479730693));
#1223=CARTESIAN_POINT('Origin',(-94.2576886917472,-3.99999999999994,-114.460747883827));
#1224=CARTESIAN_POINT('',(-95.8576886917472,-3.99999999999994,-114.460747883827));
#1225=CARTESIAN_POINT('Origin',(-94.2599637895823,-3.99999999999994,-85.4607479730693));
#1226=CARTESIAN_POINT('',(-95.8599637895823,-3.99999999999994,-85.4607479730693));
#1227=CARTESIAN_POINT('Origin',(-94.2576494659225,-3.99999999999994,-114.960747882288));
#1228=CARTESIAN_POINT('',(-91.2576494751545,-3.99999999999994,-114.96051252734));
#1229=CARTESIAN_POINT('',(-97.2576494566905,-3.99999999999994,-114.960983237237));
#1230=CARTESIAN_POINT('Origin',(-99.258237844062,-3.99999999999995,-107.461061711966));
#1231=CARTESIAN_POINT('',(-99.258237844062,-3.99999999999995,-107.461061711966));
#1232=CARTESIAN_POINT('Origin',(-97.260003006175,-3.99999999999994,-84.9609833295565));
#1233=CARTESIAN_POINT('',(-99.2588262252781,-3.99999999999995,-92.4610617581258));
#1234=CARTESIAN_POINT('',(-97.260003006175,-3.99999999999994,-84.9609833295565));
#1235=CARTESIAN_POINT('Origin',(-94.260003015407,-3.99999999999994,-84.960747974608));
#1236=CARTESIAN_POINT('',(-91.260003024639,-3.99999999999993,-84.9605126196596));
#1237=CARTESIAN_POINT('Origin',(-89.2588262560514,0.500000000000069,-99.960355670201));
#1238=CARTESIAN_POINT('',(-89.2588262560514,0.500000000000069,-99.960355670201));
#1239=CARTESIAN_POINT('',(-91.260003024639,0.500000000000067,-84.9605126196596));
#1240=CARTESIAN_POINT('',(-89.2588262560514,0.500000000000069,-99.960355670201));
#1241=CARTESIAN_POINT('',(-91.260003024639,-0.999999999999934,-84.9605126196596));
#1242=CARTESIAN_POINT('',(-91.260003024639,0.500000000000067,-84.9605126196596));
#1243=CARTESIAN_POINT('',(-89.2588262560514,-0.999999999999931,-99.960355670201));
#1244=CARTESIAN_POINT('',(-89.2588262560514,0.500000000000069,-99.960355670201));
#1245=CARTESIAN_POINT('Origin',(-94.2588262406647,-0.999999999999939,-99.960747928448));
#1246=CARTESIAN_POINT('',(-97.2576494566905,-0.999999999999944,-114.960983237237));
#1247=CARTESIAN_POINT('',(-97.2576494566905,-0.999999999999944,-114.960983237237));
#1248=CARTESIAN_POINT('',(-91.2576494751545,-0.999999999999935,-114.96051252734));
#1249=CARTESIAN_POINT('Origin',(-94.2576494659225,-0.999999999999939,-114.960747882288));
#1250=CARTESIAN_POINT('',(-91.2576494751545,-0.999999999999935,-114.96051252734));
#1251=CARTESIAN_POINT('',(-95.8576886917472,-0.999999999999942,-114.460747883827));
#1252=CARTESIAN_POINT('Origin',(-94.2576886917472,-0.999999999999939,-114.460747883827));
#1253=CARTESIAN_POINT('Origin',(-94.2588262406647,0.500000000000061,-99.960747928448));
#1254=CARTESIAN_POINT('',(-91.2576494751545,0.500000000000066,-114.96051252734));
#1255=CARTESIAN_POINT('',(-91.2576494751545,0.500000000000066,-114.96051252734));
#1256=CARTESIAN_POINT('',(-97.2576494566905,0.500000000000056,-114.960983237237));
#1257=CARTESIAN_POINT('Origin',(-94.2576494659225,0.500000000000061,-114.960747882288));
#1258=CARTESIAN_POINT('',(-99.258237844062,0.500000000000053,-107.461061711966));
#1259=CARTESIAN_POINT('',(-97.2576494566905,0.500000000000056,-114.960983237237));
#1260=CARTESIAN_POINT('',(-99.2588262252781,0.500000000000054,-99.9611401866951));
#1261=CARTESIAN_POINT('',(-99.2588262252781,0.500000000000054,-99.9611401866951));
#1262=CARTESIAN_POINT('',(-99.2588262252781,0.500000000000054,-92.4610617581258));
#1263=CARTESIAN_POINT('',(-99.2588262252781,0.500000000000054,-99.9611401866951));
#1264=CARTESIAN_POINT('',(-97.260003006175,0.500000000000057,-84.9609833295565));
#1265=CARTESIAN_POINT('',(-97.260003006175,0.500000000000057,-84.9609833295565));
#1266=CARTESIAN_POINT('Origin',(-94.260003015407,0.500000000000062,-84.960747974608));
#1267=CARTESIAN_POINT('',(-95.8576886917472,0.500000000000058,-114.460747883827));
#1268=CARTESIAN_POINT('Origin',(-94.2576886917472,0.500000000000061,-114.460747883827));
#1269=CARTESIAN_POINT('',(-95.8599637895823,0.50000000000006,-85.4607479730693));
#1270=CARTESIAN_POINT('Origin',(-94.2599637895823,0.500000000000062,-85.4607479730693));
#1271=CARTESIAN_POINT('Origin',(-94.2576886917472,0.500000000000061,-114.460747883827));
#1272=CARTESIAN_POINT('',(-95.8576886917472,0.500000000000061,-114.460747883827));
#1273=CARTESIAN_POINT('Origin',(-94.2599637895823,0.500000000000062,-85.4607479730693));
#1274=CARTESIAN_POINT('',(-95.8599637895823,-0.999999999999941,-85.4607479730693));
#1275=CARTESIAN_POINT('Origin',(-94.2599637895823,-0.999999999999938,-85.4607479730693));
#1276=CARTESIAN_POINT('',(-95.8599637895823,0.500000000000062,-85.4607479730693));
#1277=CARTESIAN_POINT('Origin',(-94.2576494659225,0.500000000000061,-114.960747882288));
#1278=CARTESIAN_POINT('',(-91.2576494751545,0.500000000000066,-114.96051252734));
#1279=CARTESIAN_POINT('',(-97.2576494566905,0.500000000000056,-114.960983237237));
#1280=CARTESIAN_POINT('Origin',(-99.258237844062,0.500000000000053,-107.461061711966));
#1281=CARTESIAN_POINT('',(-99.258237844062,0.500000000000053,-107.461061711966));
#1282=CARTESIAN_POINT('Origin',(-99.2588262252781,0.500000000000054,-99.9611401866951));
#1283=CARTESIAN_POINT('',(-99.2588262252781,0.500000000000054,-99.9611401866951));
#1284=CARTESIAN_POINT('Origin',(-99.2588262252781,0.500000000000054,-92.4610617581258));
#1285=CARTESIAN_POINT('',(-99.2588262252781,0.500000000000054,-92.4610617581258));
#1286=CARTESIAN_POINT('Origin',(-97.260003006175,0.500000000000057,-84.9609833295565));
#1287=CARTESIAN_POINT('',(-97.260003006175,-0.999999999999943,-84.9609833295565));
#1288=CARTESIAN_POINT('',(-97.260003006175,-0.999999999999943,-84.9609833295565));
#1289=CARTESIAN_POINT('',(-97.260003006175,0.500000000000057,-84.9609833295565));
#1290=CARTESIAN_POINT('Origin',(-94.260003015407,0.500000000000062,-84.960747974608));
#1291=CARTESIAN_POINT('Origin',(-94.260003015407,-0.999999999999938,-84.960747974608));
#1292=CARTESIAN_POINT('Origin',(-91.2576494751545,0.500000000000066,-114.96051252734));
#1293=CARTESIAN_POINT('Origin',(-94.2588262406647,-0.999999999999939,-99.960747928448));
#1294=UNCERTAINTY_MEASURE_WITH_UNIT(LENGTH_MEASURE(0.01),#1298,
'DISTANCE_ACCURACY_VALUE',
'Maximum model space distance between geometric entities at asserted c
onnectivities');
#1295=UNCERTAINTY_MEASURE_WITH_UNIT(LENGTH_MEASURE(0.01),#1298,
'DISTANCE_ACCURACY_VALUE',
'Maximum model space distance between geometric entities at asserted c
onnectivities');
#1296=(
GEOMETRIC_REPRESENTATION_CONTEXT(3)
GLOBAL_UNCERTAINTY_ASSIGNED_CONTEXT((#1294))
GLOBAL_UNIT_ASSIGNED_CONTEXT((#1298,#1300,#1301))
REPRESENTATION_CONTEXT('','3D')
);
#1297=(
GEOMETRIC_REPRESENTATION_CONTEXT(3)
GLOBAL_UNCERTAINTY_ASSIGNED_CONTEXT((#1295))
GLOBAL_UNIT_ASSIGNED_CONTEXT((#1298,#1300,#1301))
REPRESENTATION_CONTEXT('','3D')
);
#1298=(
LENGTH_UNIT()
NAMED_UNIT(*)
SI_UNIT(.MILLI.,.METRE.)
);
#1299=(
LENGTH_UNIT()
NAMED_UNIT(*)
SI_UNIT($,.METRE.)
);
#1300=(
NAMED_UNIT(*)
PLANE_ANGLE_UNIT()
SI_UNIT($,.RADIAN.)
);
#1301=(
NAMED_UNIT(*)
SI_UNIT($,.STERADIAN.)
SOLID_ANGLE_UNIT()
);
#1302=SHAPE_DEFINITION_REPRESENTATION(#1303,#1304);
#1303=PRODUCT_DEFINITION_SHAPE('',$,#1306);
#1304=SHAPE_REPRESENTATION('',(#801),#1296);
#1305=PRODUCT_DEFINITION_CONTEXT('part definition',#1310,'design');
#1306=PRODUCT_DEFINITION('2026-05-07-11-24-39-133','FusionComponent',#1307,
#1305);
#1307=PRODUCT_DEFINITION_FORMATION('',$,#1312);
#1308=PRODUCT_RELATED_PRODUCT_CATEGORY('FusionComponent',
'FusionComponent',(#1312));
#1309=APPLICATION_PROTOCOL_DEFINITION('international standard',
'automotive_design',2009,#1310);
#1310=APPLICATION_CONTEXT(
'Core Data for Automotive Mechanical Design Process');
#1311=PRODUCT_CONTEXT('part definition',#1310,'mechanical');
#1312=PRODUCT('2026-05-07-11-24-39-133','FusionComponent',$,(#1311));
#1313=PRESENTATION_STYLE_ASSIGNMENT((#1315));
#1314=PRESENTATION_STYLE_ASSIGNMENT((#1316));
#1315=SURFACE_STYLE_USAGE(.BOTH.,#1317);
#1316=SURFACE_STYLE_USAGE(.BOTH.,#1318);
#1317=SURFACE_SIDE_STYLE('',(#1319));
#1318=SURFACE_SIDE_STYLE('',(#1320));
#1319=SURFACE_STYLE_FILL_AREA(#1321);
#1320=SURFACE_STYLE_FILL_AREA(#1322);
#1321=FILL_AREA_STYLE('Steel - Satin',(#1323));
#1322=FILL_AREA_STYLE('EPX 82 (with Carbon M2 M3 L1 3D Printers)',(#1324));
#1323=FILL_AREA_STYLE_COLOUR('Steel - Satin',#1325);
#1324=FILL_AREA_STYLE_COLOUR(
'EPX 82 (with Carbon M2 M3 L1 3D Printers)',#1326);
#1325=COLOUR_RGB('Steel - Satin',0.627450980392157,0.627450980392157,0.627450980392157);
#1326=COLOUR_RGB('EPX 82 (with Carbon M2 M3 L1 3D Printers)',0.247058823529412,
0.247058823529412,0.247058823529412);
ENDSEC;
END-ISO-10303-21;
