ISO-10303-21;
HEADER;
/* Generated by software containing ST-Developer
 * from STEP Tools, Inc. (www.steptools.com) 
 */

FILE_DESCRIPTION(
/* description */ (''),
/* implementation_level */ '2;1');

FILE_NAME(
/* name */ 'Servo vasak kinnitus.step',
/* time_stamp */ '2026-05-07T11:44:33+03:00',
/* author */ (''),
/* organization */ (''),
/* preprocessor_version */ 'ST-DEVELOPER v20.1',
/* originating_system */ 'Autodesk Translation Framework v15.8.0.0',
/* authorisation */ '');

FILE_SCHEMA (('AUTOMOTIVE_DESIGN { 1 0 10303 214 3 1 1 }'));
ENDSEC;

DATA;
#10=MECHANICAL_DESIGN_GEOMETRIC_PRESENTATION_REPRESENTATION('',(#13),#727);
#11=SHAPE_REPRESENTATION_RELATIONSHIP('SRR','None',#734,#12);
#12=ADVANCED_BREP_SHAPE_REPRESENTATION('',(#14),#726);
#13=STYLED_ITEM('',(#744),#14);
#14=MANIFOLD_SOLID_BREP('Body1',#433);
#15=B_SPLINE_CURVE_WITH_KNOTS('',3,(#627,#628,#629,#630,#631,#632,#633,
#634,#635,#636),.UNSPECIFIED.,.F.,.F.,(4,2,2,2,4),(0.135363116874805,0.158323028689381,
0.211097371585842,0.247982358976901,0.284867346367961),.UNSPECIFIED.);
#16=CYLINDRICAL_SURFACE('',#450,1.5);
#17=CYLINDRICAL_SURFACE('',#454,1.5);
#18=CYLINDRICAL_SURFACE('',#458,3.00000000000001);
#19=CYLINDRICAL_SURFACE('',#473,1.99999999999999);
#20=FACE_BOUND('',#56,.T.);
#21=FACE_BOUND('',#69,.T.);
#22=FACE_BOUND('',#78,.T.);
#23=CIRCLE('',#448,1.5);
#24=CIRCLE('',#449,1.5);
#25=CIRCLE('',#451,1.5);
#26=CIRCLE('',#452,1.5);
#27=CIRCLE('',#455,1.5);
#28=CIRCLE('',#459,3.00000000000001);
#29=CIRCLE('',#460,3.00000000000001);
#30=CIRCLE('',#461,3.00000000000001);
#31=CIRCLE('',#462,3.00000000000001);
#32=CIRCLE('',#469,1.99999999999999);
#33=CIRCLE('',#474,1.99999999999999);
#34=FACE_OUTER_BOUND('',#55,.T.);
#35=FACE_OUTER_BOUND('',#57,.T.);
#36=FACE_OUTER_BOUND('',#58,.T.);
#37=FACE_OUTER_BOUND('',#59,.T.);
#38=FACE_OUTER_BOUND('',#60,.T.);
#39=FACE_OUTER_BOUND('',#61,.T.);
#40=FACE_OUTER_BOUND('',#62,.T.);
#41=FACE_OUTER_BOUND('',#63,.T.);
#42=FACE_OUTER_BOUND('',#64,.T.);
#43=FACE_OUTER_BOUND('',#65,.T.);
#44=FACE_OUTER_BOUND('',#66,.T.);
#45=FACE_OUTER_BOUND('',#67,.T.);
#46=FACE_OUTER_BOUND('',#68,.T.);
#47=FACE_OUTER_BOUND('',#70,.T.);
#48=FACE_OUTER_BOUND('',#71,.T.);
#49=FACE_OUTER_BOUND('',#72,.T.);
#50=FACE_OUTER_BOUND('',#73,.T.);
#51=FACE_OUTER_BOUND('',#74,.T.);
#52=FACE_OUTER_BOUND('',#75,.T.);
#53=FACE_OUTER_BOUND('',#76,.T.);
#54=FACE_OUTER_BOUND('',#77,.T.);
#55=EDGE_LOOP('',(#275,#276,#277,#278,#279,#280));
#56=EDGE_LOOP('',(#281,#282,#283,#284));
#57=EDGE_LOOP('',(#285,#286,#287,#288,#289,#290,#291,#292));
#58=EDGE_LOOP('',(#293,#294,#295,#296));
#59=EDGE_LOOP('',(#297,#298,#299,#300));
#60=EDGE_LOOP('',(#301,#302,#303,#304));
#61=EDGE_LOOP('',(#305,#306,#307,#308));
#62=EDGE_LOOP('',(#309,#310,#311,#312,#313,#314,#315,#316,#317));
#63=EDGE_LOOP('',(#318,#319,#320,#321));
#64=EDGE_LOOP('',(#322,#323,#324,#325));
#65=EDGE_LOOP('',(#326,#327,#328,#329,#330,#331,#332,#333,#334,#335,#336));
#66=EDGE_LOOP('',(#337,#338,#339,#340));
#67=EDGE_LOOP('',(#341,#342,#343,#344,#345,#346));
#68=EDGE_LOOP('',(#347,#348,#349,#350,#351,#352,#353,#354));
#69=EDGE_LOOP('',(#355,#356));
#70=EDGE_LOOP('',(#357,#358,#359,#360));
#71=EDGE_LOOP('',(#361,#362,#363,#364));
#72=EDGE_LOOP('',(#365,#366,#367,#368));
#73=EDGE_LOOP('',(#369,#370,#371,#372));
#74=EDGE_LOOP('',(#373,#374,#375,#376));
#75=EDGE_LOOP('',(#377,#378,#379,#380));
#76=EDGE_LOOP('',(#381,#382,#383,#384,#385,#386));
#77=EDGE_LOOP('',(#387,#388,#389,#390,#391,#392));
#78=EDGE_LOOP('',(#393,#394));
#79=LINE('',#597,#127);
#80=LINE('',#599,#128);
#81=LINE('',#601,#129);
#82=LINE('',#603,#130);
#83=LINE('',#605,#131);
#84=LINE('',#606,#132);
#85=LINE('',#609,#133);
#86=LINE('',#613,#134);
#87=LINE('',#619,#135);
#88=LINE('',#621,#136);
#89=LINE('',#625,#137);
#90=LINE('',#637,#138);
#91=LINE('',#640,#139);
#92=LINE('',#641,#140);
#93=LINE('',#645,#141);
#94=LINE('',#647,#142);
#95=LINE('',#650,#143);
#96=LINE('',#652,#144);
#97=LINE('',#653,#145);
#98=LINE('',#658,#146);
#99=LINE('',#662,#147);
#100=LINE('',#666,#148);
#101=LINE('',#670,#149);
#102=LINE('',#671,#150);
#103=LINE('',#674,#151);
#104=LINE('',#676,#152);
#105=LINE('',#677,#153);
#106=LINE('',#679,#154);
#107=LINE('',#681,#155);
#108=LINE('',#682,#156);
#109=LINE('',#684,#157);
#110=LINE('',#686,#158);
#111=LINE('',#689,#159);
#112=LINE('',#691,#160);
#113=LINE('',#692,#161);
#114=LINE('',#696,#162);
#115=LINE('',#699,#163);
#116=LINE('',#700,#164);
#117=LINE('',#703,#165);
#118=LINE('',#704,#166);
#119=LINE('',#708,#167);
#120=LINE('',#709,#168);
#121=LINE('',#710,#169);
#122=LINE('',#715,#170);
#123=LINE('',#716,#171);
#124=LINE('',#719,#172);
#125=LINE('',#720,#173);
#126=LINE('',#722,#174);
#127=VECTOR('',#483,10.);
#128=VECTOR('',#484,10.);
#129=VECTOR('',#485,10.);
#130=VECTOR('',#486,10.);
#131=VECTOR('',#487,10.);
#132=VECTOR('',#488,10.);
#133=VECTOR('',#489,10.);
#134=VECTOR('',#492,10.);
#135=VECTOR('',#499,10.);
#136=VECTOR('',#500,10.);
#137=VECTOR('',#503,10.);
#138=VECTOR('',#504,10.);
#139=VECTOR('',#507,10.);
#140=VECTOR('',#508,10.);
#141=VECTOR('',#513,10.);
#142=VECTOR('',#516,10.);
#143=VECTOR('',#519,10.);
#144=VECTOR('',#520,10.);
#145=VECTOR('',#521,10.);
#146=VECTOR('',#526,10.);
#147=VECTOR('',#529,10.);
#148=VECTOR('',#532,10.);
#149=VECTOR('',#537,10.);
#150=VECTOR('',#538,10.);
#151=VECTOR('',#541,10.);
#152=VECTOR('',#542,10.);
#153=VECTOR('',#543,10.);
#154=VECTOR('',#546,10.);
#155=VECTOR('',#547,10.);
#156=VECTOR('',#548,10.);
#157=VECTOR('',#551,10.);
#158=VECTOR('',#554,10.);
#159=VECTOR('',#557,10.);
#160=VECTOR('',#558,10.);
#161=VECTOR('',#559,10.);
#162=VECTOR('',#562,10.);
#163=VECTOR('',#565,10.);
#164=VECTOR('',#566,10.);
#165=VECTOR('',#569,10.);
#166=VECTOR('',#570,10.);
#167=VECTOR('',#573,10.);
#168=VECTOR('',#574,10.);
#169=VECTOR('',#575,10.);
#170=VECTOR('',#582,10.);
#171=VECTOR('',#583,10.);
#172=VECTOR('',#586,10.);
#173=VECTOR('',#587,10.);
#174=VECTOR('',#590,10.);
#175=VERTEX_POINT('',#595);
#176=VERTEX_POINT('',#596);
#177=VERTEX_POINT('',#598);
#178=VERTEX_POINT('',#600);
#179=VERTEX_POINT('',#602);
#180=VERTEX_POINT('',#604);
#181=VERTEX_POINT('',#607);
#182=VERTEX_POINT('',#608);
#183=VERTEX_POINT('',#610);
#184=VERTEX_POINT('',#612);
#185=VERTEX_POINT('',#616);
#186=VERTEX_POINT('',#617);
#187=VERTEX_POINT('',#620);
#188=VERTEX_POINT('',#622);
#189=VERTEX_POINT('',#624);
#190=VERTEX_POINT('',#626);
#191=VERTEX_POINT('',#639);
#192=VERTEX_POINT('',#643);
#193=VERTEX_POINT('',#649);
#194=VERTEX_POINT('',#651);
#195=VERTEX_POINT('',#655);
#196=VERTEX_POINT('',#657);
#197=VERTEX_POINT('',#659);
#198=VERTEX_POINT('',#661);
#199=VERTEX_POINT('',#663);
#200=VERTEX_POINT('',#665);
#201=VERTEX_POINT('',#669);
#202=VERTEX_POINT('',#673);
#203=VERTEX_POINT('',#675);
#204=VERTEX_POINT('',#680);
#205=VERTEX_POINT('',#688);
#206=VERTEX_POINT('',#690);
#207=VERTEX_POINT('',#693);
#208=VERTEX_POINT('',#694);
#209=VERTEX_POINT('',#698);
#210=VERTEX_POINT('',#702);
#211=VERTEX_POINT('',#706);
#212=VERTEX_POINT('',#707);
#213=VERTEX_POINT('',#714);
#214=VERTEX_POINT('',#718);
#215=EDGE_CURVE('',#175,#176,#79,.T.);
#216=EDGE_CURVE('',#176,#177,#80,.T.);
#217=EDGE_CURVE('',#177,#178,#81,.T.);
#218=EDGE_CURVE('',#178,#179,#82,.T.);
#219=EDGE_CURVE('',#179,#180,#83,.T.);
#220=EDGE_CURVE('',#180,#175,#84,.T.);
#221=EDGE_CURVE('',#181,#182,#85,.T.);
#222=EDGE_CURVE('',#182,#183,#23,.T.);
#223=EDGE_CURVE('',#183,#184,#86,.T.);
#224=EDGE_CURVE('',#184,#181,#24,.T.);
#225=EDGE_CURVE('',#185,#186,#25,.T.);
#226=EDGE_CURVE('',#183,#185,#87,.T.);
#227=EDGE_CURVE('',#187,#182,#88,.T.);
#228=EDGE_CURVE('',#188,#187,#26,.T.);
#229=EDGE_CURVE('',#189,#188,#89,.T.);
#230=EDGE_CURVE('',#190,#189,#15,.T.);
#231=EDGE_CURVE('',#186,#190,#90,.T.);
#232=EDGE_CURVE('',#187,#191,#91,.T.);
#233=EDGE_CURVE('',#181,#191,#92,.T.);
#234=EDGE_CURVE('',#191,#192,#27,.T.);
#235=EDGE_CURVE('',#184,#192,#93,.T.);
#236=EDGE_CURVE('',#192,#185,#94,.T.);
#237=EDGE_CURVE('',#193,#190,#95,.T.);
#238=EDGE_CURVE('',#194,#193,#96,.T.);
#239=EDGE_CURVE('',#194,#186,#97,.T.);
#240=EDGE_CURVE('',#195,#189,#28,.T.);
#241=EDGE_CURVE('',#196,#195,#98,.T.);
#242=EDGE_CURVE('',#197,#196,#29,.T.);
#243=EDGE_CURVE('',#197,#198,#99,.T.);
#244=EDGE_CURVE('',#199,#198,#30,.T.);
#245=EDGE_CURVE('',#200,#199,#100,.T.);
#246=EDGE_CURVE('',#193,#200,#31,.T.);
#247=EDGE_CURVE('',#188,#201,#101,.T.);
#248=EDGE_CURVE('',#201,#195,#102,.T.);
#249=EDGE_CURVE('',#175,#202,#103,.T.);
#250=EDGE_CURVE('',#203,#180,#104,.T.);
#251=EDGE_CURVE('',#202,#203,#105,.T.);
#252=EDGE_CURVE('',#202,#194,#106,.T.);
#253=EDGE_CURVE('',#204,#203,#107,.T.);
#254=EDGE_CURVE('',#201,#204,#108,.T.);
#255=EDGE_CURVE('',#204,#179,#109,.T.);
#256=EDGE_CURVE('',#196,#178,#110,.T.);
#257=EDGE_CURVE('',#200,#205,#111,.T.);
#258=EDGE_CURVE('',#205,#206,#112,.T.);
#259=EDGE_CURVE('',#206,#176,#113,.T.);
#260=EDGE_CURVE('',#207,#208,#32,.T.);
#261=EDGE_CURVE('',#208,#207,#114,.T.);
#262=EDGE_CURVE('',#209,#199,#115,.T.);
#263=EDGE_CURVE('',#205,#209,#116,.T.);
#264=EDGE_CURVE('',#210,#209,#117,.T.);
#265=EDGE_CURVE('',#198,#210,#118,.T.);
#266=EDGE_CURVE('',#211,#212,#119,.T.);
#267=EDGE_CURVE('',#212,#207,#120,.T.);
#268=EDGE_CURVE('',#211,#208,#121,.T.);
#269=EDGE_CURVE('',#212,#211,#33,.T.);
#270=EDGE_CURVE('',#213,#197,#122,.T.);
#271=EDGE_CURVE('',#213,#210,#123,.T.);
#272=EDGE_CURVE('',#177,#214,#124,.T.);
#273=EDGE_CURVE('',#214,#206,#125,.T.);
#274=EDGE_CURVE('',#213,#214,#126,.T.);
#275=ORIENTED_EDGE('',*,*,#215,.T.);
#276=ORIENTED_EDGE('',*,*,#216,.T.);
#277=ORIENTED_EDGE('',*,*,#217,.T.);
#278=ORIENTED_EDGE('',*,*,#218,.T.);
#279=ORIENTED_EDGE('',*,*,#219,.T.);
#280=ORIENTED_EDGE('',*,*,#220,.T.);
#281=ORIENTED_EDGE('',*,*,#221,.T.);
#282=ORIENTED_EDGE('',*,*,#222,.T.);
#283=ORIENTED_EDGE('',*,*,#223,.T.);
#284=ORIENTED_EDGE('',*,*,#224,.T.);
#285=ORIENTED_EDGE('',*,*,#225,.F.);
#286=ORIENTED_EDGE('',*,*,#226,.F.);
#287=ORIENTED_EDGE('',*,*,#222,.F.);
#288=ORIENTED_EDGE('',*,*,#227,.F.);
#289=ORIENTED_EDGE('',*,*,#228,.F.);
#290=ORIENTED_EDGE('',*,*,#229,.F.);
#291=ORIENTED_EDGE('',*,*,#230,.F.);
#292=ORIENTED_EDGE('',*,*,#231,.F.);
#293=ORIENTED_EDGE('',*,*,#232,.F.);
#294=ORIENTED_EDGE('',*,*,#227,.T.);
#295=ORIENTED_EDGE('',*,*,#221,.F.);
#296=ORIENTED_EDGE('',*,*,#233,.T.);
#297=ORIENTED_EDGE('',*,*,#234,.F.);
#298=ORIENTED_EDGE('',*,*,#233,.F.);
#299=ORIENTED_EDGE('',*,*,#224,.F.);
#300=ORIENTED_EDGE('',*,*,#235,.T.);
#301=ORIENTED_EDGE('',*,*,#236,.F.);
#302=ORIENTED_EDGE('',*,*,#235,.F.);
#303=ORIENTED_EDGE('',*,*,#223,.F.);
#304=ORIENTED_EDGE('',*,*,#226,.T.);
#305=ORIENTED_EDGE('',*,*,#231,.T.);
#306=ORIENTED_EDGE('',*,*,#237,.F.);
#307=ORIENTED_EDGE('',*,*,#238,.F.);
#308=ORIENTED_EDGE('',*,*,#239,.T.);
#309=ORIENTED_EDGE('',*,*,#230,.T.);
#310=ORIENTED_EDGE('',*,*,#240,.F.);
#311=ORIENTED_EDGE('',*,*,#241,.F.);
#312=ORIENTED_EDGE('',*,*,#242,.F.);
#313=ORIENTED_EDGE('',*,*,#243,.T.);
#314=ORIENTED_EDGE('',*,*,#244,.F.);
#315=ORIENTED_EDGE('',*,*,#245,.F.);
#316=ORIENTED_EDGE('',*,*,#246,.F.);
#317=ORIENTED_EDGE('',*,*,#237,.T.);
#318=ORIENTED_EDGE('',*,*,#229,.T.);
#319=ORIENTED_EDGE('',*,*,#247,.T.);
#320=ORIENTED_EDGE('',*,*,#248,.T.);
#321=ORIENTED_EDGE('',*,*,#240,.T.);
#322=ORIENTED_EDGE('',*,*,#249,.F.);
#323=ORIENTED_EDGE('',*,*,#220,.F.);
#324=ORIENTED_EDGE('',*,*,#250,.F.);
#325=ORIENTED_EDGE('',*,*,#251,.F.);
#326=ORIENTED_EDGE('',*,*,#225,.T.);
#327=ORIENTED_EDGE('',*,*,#239,.F.);
#328=ORIENTED_EDGE('',*,*,#252,.F.);
#329=ORIENTED_EDGE('',*,*,#251,.T.);
#330=ORIENTED_EDGE('',*,*,#253,.F.);
#331=ORIENTED_EDGE('',*,*,#254,.F.);
#332=ORIENTED_EDGE('',*,*,#247,.F.);
#333=ORIENTED_EDGE('',*,*,#228,.T.);
#334=ORIENTED_EDGE('',*,*,#232,.T.);
#335=ORIENTED_EDGE('',*,*,#234,.T.);
#336=ORIENTED_EDGE('',*,*,#236,.T.);
#337=ORIENTED_EDGE('',*,*,#255,.F.);
#338=ORIENTED_EDGE('',*,*,#253,.T.);
#339=ORIENTED_EDGE('',*,*,#250,.T.);
#340=ORIENTED_EDGE('',*,*,#219,.F.);
#341=ORIENTED_EDGE('',*,*,#256,.F.);
#342=ORIENTED_EDGE('',*,*,#241,.T.);
#343=ORIENTED_EDGE('',*,*,#248,.F.);
#344=ORIENTED_EDGE('',*,*,#254,.T.);
#345=ORIENTED_EDGE('',*,*,#255,.T.);
#346=ORIENTED_EDGE('',*,*,#218,.F.);
#347=ORIENTED_EDGE('',*,*,#252,.T.);
#348=ORIENTED_EDGE('',*,*,#238,.T.);
#349=ORIENTED_EDGE('',*,*,#246,.T.);
#350=ORIENTED_EDGE('',*,*,#257,.T.);
#351=ORIENTED_EDGE('',*,*,#258,.T.);
#352=ORIENTED_EDGE('',*,*,#259,.T.);
#353=ORIENTED_EDGE('',*,*,#215,.F.);
#354=ORIENTED_EDGE('',*,*,#249,.T.);
#355=ORIENTED_EDGE('',*,*,#260,.T.);
#356=ORIENTED_EDGE('',*,*,#261,.T.);
#357=ORIENTED_EDGE('',*,*,#257,.F.);
#358=ORIENTED_EDGE('',*,*,#245,.T.);
#359=ORIENTED_EDGE('',*,*,#262,.F.);
#360=ORIENTED_EDGE('',*,*,#263,.F.);
#361=ORIENTED_EDGE('',*,*,#264,.T.);
#362=ORIENTED_EDGE('',*,*,#262,.T.);
#363=ORIENTED_EDGE('',*,*,#244,.T.);
#364=ORIENTED_EDGE('',*,*,#265,.T.);
#365=ORIENTED_EDGE('',*,*,#266,.T.);
#366=ORIENTED_EDGE('',*,*,#267,.T.);
#367=ORIENTED_EDGE('',*,*,#261,.F.);
#368=ORIENTED_EDGE('',*,*,#268,.F.);
#369=ORIENTED_EDGE('',*,*,#269,.T.);
#370=ORIENTED_EDGE('',*,*,#268,.T.);
#371=ORIENTED_EDGE('',*,*,#260,.F.);
#372=ORIENTED_EDGE('',*,*,#267,.F.);
#373=ORIENTED_EDGE('',*,*,#270,.F.);
#374=ORIENTED_EDGE('',*,*,#271,.T.);
#375=ORIENTED_EDGE('',*,*,#265,.F.);
#376=ORIENTED_EDGE('',*,*,#243,.F.);
#377=ORIENTED_EDGE('',*,*,#272,.F.);
#378=ORIENTED_EDGE('',*,*,#216,.F.);
#379=ORIENTED_EDGE('',*,*,#259,.F.);
#380=ORIENTED_EDGE('',*,*,#273,.F.);
#381=ORIENTED_EDGE('',*,*,#274,.T.);
#382=ORIENTED_EDGE('',*,*,#273,.T.);
#383=ORIENTED_EDGE('',*,*,#258,.F.);
#384=ORIENTED_EDGE('',*,*,#263,.T.);
#385=ORIENTED_EDGE('',*,*,#264,.F.);
#386=ORIENTED_EDGE('',*,*,#271,.F.);
#387=ORIENTED_EDGE('',*,*,#272,.T.);
#388=ORIENTED_EDGE('',*,*,#274,.F.);
#389=ORIENTED_EDGE('',*,*,#270,.T.);
#390=ORIENTED_EDGE('',*,*,#242,.T.);
#391=ORIENTED_EDGE('',*,*,#256,.T.);
#392=ORIENTED_EDGE('',*,*,#217,.F.);
#393=ORIENTED_EDGE('',*,*,#269,.F.);
#394=ORIENTED_EDGE('',*,*,#266,.F.);
#395=PLANE('',#447);
#396=PLANE('',#453);
#397=PLANE('',#456);
#398=PLANE('',#457);
#399=PLANE('',#463);
#400=PLANE('',#464);
#401=PLANE('',#465);
#402=PLANE('',#466);
#403=PLANE('',#467);
#404=PLANE('',#468);
#405=PLANE('',#470);
#406=PLANE('',#471);
#407=PLANE('',#472);
#408=PLANE('',#475);
#409=PLANE('',#476);
#410=PLANE('',#477);
#411=PLANE('',#478);
#412=ADVANCED_FACE('',(#34,#20),#395,.T.);
#413=ADVANCED_FACE('',(#35),#16,.F.);
#414=ADVANCED_FACE('',(#36),#396,.F.);
#415=ADVANCED_FACE('',(#37),#17,.F.);
#416=ADVANCED_FACE('',(#38),#397,.F.);
#417=ADVANCED_FACE('',(#39),#398,.T.);
#418=ADVANCED_FACE('',(#40),#18,.F.);
#419=ADVANCED_FACE('',(#41),#399,.T.);
#420=ADVANCED_FACE('',(#42),#400,.T.);
#421=ADVANCED_FACE('',(#43),#401,.T.);
#422=ADVANCED_FACE('',(#44),#402,.T.);
#423=ADVANCED_FACE('',(#45),#403,.T.);
#424=ADVANCED_FACE('',(#46,#21),#404,.T.);
#425=ADVANCED_FACE('',(#47),#405,.T.);
#426=ADVANCED_FACE('',(#48),#406,.T.);
#427=ADVANCED_FACE('',(#49),#407,.T.);
#428=ADVANCED_FACE('',(#50),#19,.F.);
#429=ADVANCED_FACE('',(#51),#408,.T.);
#430=ADVANCED_FACE('',(#52),#409,.T.);
#431=ADVANCED_FACE('',(#53),#410,.T.);
#432=ADVANCED_FACE('',(#54,#22),#411,.F.);
#433=CLOSED_SHELL('',(#412,#413,#414,#415,#416,#417,#418,#419,#420,#421,
#422,#423,#424,#425,#426,#427,#428,#429,#430,#431,#432));
#434=DERIVED_UNIT_ELEMENT(#436,1.);
#435=DERIVED_UNIT_ELEMENT(#729,-3.);
#436=(
MASS_UNIT()
NAMED_UNIT(*)
SI_UNIT(.KILO.,.GRAM.)
);
#437=DERIVED_UNIT((#434,#435));
#438=MEASURE_REPRESENTATION_ITEM('density measure',
POSITIVE_RATIO_MEASURE(1420.),#437);
#439=PROPERTY_DEFINITION_REPRESENTATION(#444,#441);
#440=PROPERTY_DEFINITION_REPRESENTATION(#445,#442);
#441=REPRESENTATION('material name',(#443),#726);
#442=REPRESENTATION('density',(#438),#726);
#443=DESCRIPTIVE_REPRESENTATION_ITEM('PET','PET');
#444=PROPERTY_DEFINITION('material property','material name',#736);
#445=PROPERTY_DEFINITION('material property','density of part',#736);
#446=AXIS2_PLACEMENT_3D('',#593,#479,#480);
#447=AXIS2_PLACEMENT_3D('',#594,#481,#482);
#448=AXIS2_PLACEMENT_3D('',#611,#490,#491);
#449=AXIS2_PLACEMENT_3D('',#614,#493,#494);
#450=AXIS2_PLACEMENT_3D('',#615,#495,#496);
#451=AXIS2_PLACEMENT_3D('',#618,#497,#498);
#452=AXIS2_PLACEMENT_3D('',#623,#501,#502);
#453=AXIS2_PLACEMENT_3D('',#638,#505,#506);
#454=AXIS2_PLACEMENT_3D('',#642,#509,#510);
#455=AXIS2_PLACEMENT_3D('',#644,#511,#512);
#456=AXIS2_PLACEMENT_3D('',#646,#514,#515);
#457=AXIS2_PLACEMENT_3D('',#648,#517,#518);
#458=AXIS2_PLACEMENT_3D('',#654,#522,#523);
#459=AXIS2_PLACEMENT_3D('',#656,#524,#525);
#460=AXIS2_PLACEMENT_3D('',#660,#527,#528);
#461=AXIS2_PLACEMENT_3D('',#664,#530,#531);
#462=AXIS2_PLACEMENT_3D('',#667,#533,#534);
#463=AXIS2_PLACEMENT_3D('',#668,#535,#536);
#464=AXIS2_PLACEMENT_3D('',#672,#539,#540);
#465=AXIS2_PLACEMENT_3D('',#678,#544,#545);
#466=AXIS2_PLACEMENT_3D('',#683,#549,#550);
#467=AXIS2_PLACEMENT_3D('',#685,#552,#553);
#468=AXIS2_PLACEMENT_3D('',#687,#555,#556);
#469=AXIS2_PLACEMENT_3D('',#695,#560,#561);
#470=AXIS2_PLACEMENT_3D('',#697,#563,#564);
#471=AXIS2_PLACEMENT_3D('',#701,#567,#568);
#472=AXIS2_PLACEMENT_3D('',#705,#571,#572);
#473=AXIS2_PLACEMENT_3D('',#711,#576,#577);
#474=AXIS2_PLACEMENT_3D('',#712,#578,#579);
#475=AXIS2_PLACEMENT_3D('',#713,#580,#581);
#476=AXIS2_PLACEMENT_3D('',#717,#584,#585);
#477=AXIS2_PLACEMENT_3D('',#721,#588,#589);
#478=AXIS2_PLACEMENT_3D('',#723,#591,#592);
#479=DIRECTION('axis',(0.,0.,1.));
#480=DIRECTION('refdir',(1.,0.,0.));
#481=DIRECTION('center_axis',(-1.,0.,0.));
#482=DIRECTION('ref_axis',(0.,0.,1.));
#483=DIRECTION('',(0.,0.,-1.));
#484=DIRECTION('',(0.,-1.,0.));
#485=DIRECTION('',(0.,0.,1.));
#486=DIRECTION('',(0.,1.,0.));
#487=DIRECTION('',(0.,0.,-1.));
#488=DIRECTION('',(0.,-1.,0.));
#489=DIRECTION('',(0.,0.,1.));
#490=DIRECTION('center_axis',(1.,0.,0.));
#491=DIRECTION('ref_axis',(0.,-1.,0.));
#492=DIRECTION('',(0.,0.,-1.));
#493=DIRECTION('center_axis',(1.,0.,0.));
#494=DIRECTION('ref_axis',(0.,1.,0.));
#495=DIRECTION('center_axis',(1.,0.,0.));
#496=DIRECTION('ref_axis',(0.,-1.,0.));
#497=DIRECTION('center_axis',(-1.,0.,0.));
#498=DIRECTION('ref_axis',(0.,-1.,0.));
#499=DIRECTION('',(1.,0.,0.));
#500=DIRECTION('',(-1.,0.,0.));
#501=DIRECTION('center_axis',(-1.,0.,0.));
#502=DIRECTION('ref_axis',(0.,-1.,0.));
#503=DIRECTION('',(-1.,0.,0.));
#504=DIRECTION('',(1.,0.,0.));
#505=DIRECTION('center_axis',(0.,1.,0.));
#506=DIRECTION('ref_axis',(0.,0.,1.));
#507=DIRECTION('',(0.,0.,-1.));
#508=DIRECTION('',(1.,0.,0.));
#509=DIRECTION('center_axis',(1.,0.,0.));
#510=DIRECTION('ref_axis',(0.,1.,0.));
#511=DIRECTION('center_axis',(-1.,0.,0.));
#512=DIRECTION('ref_axis',(0.,1.,0.));
#513=DIRECTION('',(1.,0.,0.));
#514=DIRECTION('center_axis',(0.,-1.,0.));
#515=DIRECTION('ref_axis',(0.,0.,-1.));
#516=DIRECTION('',(0.,0.,1.));
#517=DIRECTION('center_axis',(0.,0.,-1.));
#518=DIRECTION('ref_axis',(-1.,0.,0.));
#519=DIRECTION('',(0.,1.,0.));
#520=DIRECTION('',(1.,0.,0.));
#521=DIRECTION('',(0.,1.,0.));
#522=DIRECTION('center_axis',(0.,1.,0.));
#523=DIRECTION('ref_axis',(-1.,0.,0.));
#524=DIRECTION('center_axis',(0.,-1.,0.));
#525=DIRECTION('ref_axis',(-1.,0.,0.));
#526=DIRECTION('',(0.,1.,0.));
#527=DIRECTION('center_axis',(0.,1.,0.));
#528=DIRECTION('ref_axis',(-1.,0.,0.));
#529=DIRECTION('',(0.,1.,0.));
#530=DIRECTION('center_axis',(0.,-1.,0.));
#531=DIRECTION('ref_axis',(-1.,0.,0.));
#532=DIRECTION('',(0.,1.,0.));
#533=DIRECTION('center_axis',(0.,-1.,0.));
#534=DIRECTION('ref_axis',(-1.,0.,0.));
#535=DIRECTION('center_axis',(0.,1.,0.));
#536=DIRECTION('ref_axis',(-1.,0.,0.));
#537=DIRECTION('',(0.,0.,1.));
#538=DIRECTION('',(1.,0.,-2.368475785867E-14));
#539=DIRECTION('center_axis',(-1.1842378929335E-14,0.,-1.));
#540=DIRECTION('ref_axis',(-1.,0.,1.1842378929335E-14));
#541=DIRECTION('',(1.,0.,-1.1842378929335E-14));
#542=DIRECTION('',(-1.,0.,1.1842378929335E-14));
#543=DIRECTION('',(0.,1.,0.));
#544=DIRECTION('center_axis',(1.,0.,0.));
#545=DIRECTION('ref_axis',(0.,0.,-1.));
#546=DIRECTION('',(0.,0.,1.));
#547=DIRECTION('',(0.,0.,-1.));
#548=DIRECTION('',(0.,1.,0.));
#549=DIRECTION('center_axis',(0.,1.,0.));
#550=DIRECTION('ref_axis',(0.,0.,1.));
#551=DIRECTION('',(-1.,0.,0.));
#552=DIRECTION('center_axis',(2.368475785867E-14,0.,1.));
#553=DIRECTION('ref_axis',(1.,0.,-2.368475785867E-14));
#554=DIRECTION('',(-1.,0.,0.));
#555=DIRECTION('center_axis',(0.,1.,0.));
#556=DIRECTION('ref_axis',(-1.,0.,0.));
#557=DIRECTION('',(1.,0.,0.));
#558=DIRECTION('',(0.,0.,-1.));
#559=DIRECTION('',(-1.,0.,0.));
#560=DIRECTION('center_axis',(0.,-1.,0.));
#561=DIRECTION('ref_axis',(-1.,0.,0.));
#562=DIRECTION('',(-1.,0.,0.));
#563=DIRECTION('center_axis',(0.,0.,-1.));
#564=DIRECTION('ref_axis',(-1.,0.,0.));
#565=DIRECTION('',(-1.,0.,0.));
#566=DIRECTION('',(0.,1.,0.));
#567=DIRECTION('center_axis',(0.,1.,0.));
#568=DIRECTION('ref_axis',(-1.,0.,0.));
#569=DIRECTION('',(0.,0.,-1.));
#570=DIRECTION('',(1.,0.,0.));
#571=DIRECTION('center_axis',(0.,0.,-1.));
#572=DIRECTION('ref_axis',(-1.,0.,0.));
#573=DIRECTION('',(-1.,0.,0.));
#574=DIRECTION('',(0.,1.,0.));
#575=DIRECTION('',(0.,1.,0.));
#576=DIRECTION('center_axis',(0.,1.,0.));
#577=DIRECTION('ref_axis',(1.83697019872103E-16,0.,-1.));
#578=DIRECTION('center_axis',(0.,-1.,0.));
#579=DIRECTION('ref_axis',(-1.,0.,0.));
#580=DIRECTION('center_axis',(0.,0.,1.));
#581=DIRECTION('ref_axis',(1.,0.,0.));
#582=DIRECTION('',(-1.,0.,0.));
#583=DIRECTION('',(0.,1.,0.));
#584=DIRECTION('center_axis',(0.,0.,-1.));
#585=DIRECTION('ref_axis',(-1.,0.,0.));
#586=DIRECTION('',(1.,0.,0.));
#587=DIRECTION('',(0.,1.,0.));
#588=DIRECTION('center_axis',(1.,0.,0.));
#589=DIRECTION('ref_axis',(0.,0.,-1.));
#590=DIRECTION('',(0.,0.,-1.));
#591=DIRECTION('center_axis',(0.,1.,0.));
#592=DIRECTION('ref_axis',(-1.,0.,0.));
#593=CARTESIAN_POINT('',(0.,0.,0.));
#594=CARTESIAN_POINT('Origin',(26.8,15.,-109.));
#595=CARTESIAN_POINT('',(26.8,17.,-103.));
#596=CARTESIAN_POINT('',(26.8,17.,-109.));
#597=CARTESIAN_POINT('',(26.8,17.,-103.));
#598=CARTESIAN_POINT('',(26.8,15.,-109.));
#599=CARTESIAN_POINT('',(26.8,15.,-109.));
#600=CARTESIAN_POINT('',(26.8,15.,-96.));
#601=CARTESIAN_POINT('',(26.8,15.,-103.));
#602=CARTESIAN_POINT('',(26.8,27.,-96.));
#603=CARTESIAN_POINT('',(26.8,15.,-96.));
#604=CARTESIAN_POINT('',(26.8,27.,-103.));
#605=CARTESIAN_POINT('',(26.8,27.,-103.));
#606=CARTESIAN_POINT('',(26.8,17.,-103.));
#607=CARTESIAN_POINT('',(26.8,22.5,-99.5));
#608=CARTESIAN_POINT('',(26.8,22.5,-99.));
#609=CARTESIAN_POINT('',(26.8,22.5,-104.25));
#610=CARTESIAN_POINT('',(26.8,19.5,-99.));
#611=CARTESIAN_POINT('Origin',(26.8,21.,-99.));
#612=CARTESIAN_POINT('',(26.8,19.5,-99.5));
#613=CARTESIAN_POINT('',(26.8,19.5,-104.));
#614=CARTESIAN_POINT('Origin',(26.8,21.,-99.5));
#615=CARTESIAN_POINT('Origin',(29.,21.,-99.));
#616=CARTESIAN_POINT('',(32.,19.5,-99.));
#617=CARTESIAN_POINT('',(32.,19.8819660112501,-98.));
#618=CARTESIAN_POINT('Origin',(32.,21.,-99.));
#619=CARTESIAN_POINT('',(29.,19.5,-99.));
#620=CARTESIAN_POINT('',(32.,22.5,-99.));
#621=CARTESIAN_POINT('',(29.,22.5,-99.));
#622=CARTESIAN_POINT('',(32.,21.,-97.5));
#623=CARTESIAN_POINT('Origin',(32.,21.,-99.));
#624=CARTESIAN_POINT('',(40.7003344594821,21.,-97.5));
#625=CARTESIAN_POINT('',(29.,21.,-97.5));
#626=CARTESIAN_POINT('',(41.4299299064723,19.8819660112501,-98.));
#627=CARTESIAN_POINT('Ctrl Pts',(41.4299299064723,19.8819660112501,-98.));
#628=CARTESIAN_POINT('Ctrl Pts',(41.3657892447743,19.909880164335,-97.9687910280839));
#629=CARTESIAN_POINT('Ctrl Pts',(41.3045632607269,19.9414103175007,-97.936155784921));
#630=CARTESIAN_POINT('Ctrl Pts',(41.1139022477368,20.0590230420102,-97.8264929296908));
#631=CARTESIAN_POINT('Ctrl Pts',(40.9991107868155,20.1624840265098,-97.7465393010641));
#632=CARTESIAN_POINT('Ctrl Pts',(40.8438740892522,20.3879199361939,-97.6265385992369));
#633=CARTESIAN_POINT('Ctrl Pts',(40.7891109003994,20.5010762192022,-97.5797768157197));
#634=CARTESIAN_POINT('Ctrl Pts',(40.7174903647475,20.7456404485582,-97.5163354072862));
#635=CARTESIAN_POINT('Ctrl Pts',(40.7003344594821,20.8770500420298,-97.5));
#636=CARTESIAN_POINT('Ctrl Pts',(40.7003344594821,21.,-97.5));
#637=CARTESIAN_POINT('',(29.,19.8819660112501,-98.));
#638=CARTESIAN_POINT('Origin',(29.,22.5,-99.5));
#639=CARTESIAN_POINT('',(32.,22.5,-99.5));
#640=CARTESIAN_POINT('',(32.,22.5,-97.75));
#641=CARTESIAN_POINT('',(29.,22.5,-99.5));
#642=CARTESIAN_POINT('Origin',(29.,21.,-99.5));
#643=CARTESIAN_POINT('',(32.,19.5,-99.5));
#644=CARTESIAN_POINT('Origin',(32.,21.,-99.5));
#645=CARTESIAN_POINT('',(29.,19.5,-99.5));
#646=CARTESIAN_POINT('Origin',(29.,19.5,-99.));
#647=CARTESIAN_POINT('',(32.,19.5,-97.5));
#648=CARTESIAN_POINT('Origin',(41.4299299064723,15.,-98.));
#649=CARTESIAN_POINT('',(41.4299299064723,17.,-98.));
#650=CARTESIAN_POINT('',(41.4299299064723,15.,-98.));
#651=CARTESIAN_POINT('',(32.,17.,-98.));
#652=CARTESIAN_POINT('',(39.7149650326234,17.,-98.));
#653=CARTESIAN_POINT('',(32.,16.,-98.));
#654=CARTESIAN_POINT('Origin',(42.7425109383646,15.,-95.3023841943826));
#655=CARTESIAN_POINT('',(39.8247494354736,21.,-96.));
#656=CARTESIAN_POINT('Origin',(42.7425109383646,21.,-95.3023841943826));
#657=CARTESIAN_POINT('',(39.8247494354736,15.,-96.));
#658=CARTESIAN_POINT('',(39.8247494354736,15.,-96.));
#659=CARTESIAN_POINT('',(45.6602724412556,15.,-96.));
#660=CARTESIAN_POINT('Origin',(42.7425109383646,15.,-95.3023841943826));
#661=CARTESIAN_POINT('',(45.6602724412556,21.,-96.));
#662=CARTESIAN_POINT('',(45.6602724412556,15.,-96.));
#663=CARTESIAN_POINT('',(44.055091970257,21.,-98.));
#664=CARTESIAN_POINT('Origin',(42.7425109383646,21.,-95.3023841943826));
#665=CARTESIAN_POINT('',(44.055091970257,17.,-98.));
#666=CARTESIAN_POINT('',(44.055091970257,15.,-98.));
#667=CARTESIAN_POINT('Origin',(42.7425109383646,17.,-95.3023841943826));
#668=CARTESIAN_POINT('Origin',(35.2149649532361,21.,-96.9999989271164));
#669=CARTESIAN_POINT('',(32.,21.,-96.));
#670=CARTESIAN_POINT('',(32.,21.,-96.4999994635582));
#671=CARTESIAN_POINT('',(29.,21.,-96.));
#672=CARTESIAN_POINT('Origin',(32.,17.,-103.));
#673=CARTESIAN_POINT('',(32.,17.,-103.));
#674=CARTESIAN_POINT('',(35.0000000793872,17.,-103.));
#675=CARTESIAN_POINT('',(32.,27.,-103.));
#676=CARTESIAN_POINT('',(32.,27.,-103.));
#677=CARTESIAN_POINT('',(32.,17.,-103.));
#678=CARTESIAN_POINT('Origin',(32.,17.,-96.));
#679=CARTESIAN_POINT('',(32.,17.,-99.2499994635582));
#680=CARTESIAN_POINT('',(32.,27.,-96.));
#681=CARTESIAN_POINT('',(32.,27.,-96.));
#682=CARTESIAN_POINT('',(32.,17.,-96.));
#683=CARTESIAN_POINT('Origin',(30.5,27.,-100.5));
#684=CARTESIAN_POINT('',(29.,27.,-96.));
#685=CARTESIAN_POINT('Origin',(29.,15.,-96.));
#686=CARTESIAN_POINT('',(29.,15.,-96.));
#687=CARTESIAN_POINT('Origin',(38.0000001587744,17.,-102.499998927116));
#688=CARTESIAN_POINT('',(47.0000003175489,17.,-98.));
#689=CARTESIAN_POINT('',(42.5000002381616,17.,-98.));
#690=CARTESIAN_POINT('',(47.0000003175489,17.,-109.));
#691=CARTESIAN_POINT('',(47.0000003175489,17.,-96.));
#692=CARTESIAN_POINT('',(29.,17.,-109.));
#693=CARTESIAN_POINT('',(32.5078652804066,17.,-103.));
#694=CARTESIAN_POINT('',(33.0721347195934,17.,-103.));
#695=CARTESIAN_POINT('Origin',(32.79,17.,-104.98));
#696=CARTESIAN_POINT('',(47.0000003175489,17.,-103.));
#697=CARTESIAN_POINT('Origin',(47.0000003175489,15.,-98.));
#698=CARTESIAN_POINT('',(47.0000003175489,21.,-98.));
#699=CARTESIAN_POINT('',(29.,21.,-98.));
#700=CARTESIAN_POINT('',(47.0000003175489,15.,-98.));
#701=CARTESIAN_POINT('Origin',(45.5275461439029,21.,-97.));
#702=CARTESIAN_POINT('',(47.0000003175489,21.,-96.));
#703=CARTESIAN_POINT('',(47.0000003175489,21.,-98.));
#704=CARTESIAN_POINT('',(47.0000003175489,21.,-96.));
#705=CARTESIAN_POINT('Origin',(33.0721347195934,15.,-103.));
#706=CARTESIAN_POINT('',(33.0721347195934,15.,-103.));
#707=CARTESIAN_POINT('',(32.5078652804066,15.,-103.));
#708=CARTESIAN_POINT('',(47.0000003175489,15.,-103.));
#709=CARTESIAN_POINT('',(32.5078652804066,15.,-103.));
#710=CARTESIAN_POINT('',(33.0721347195934,15.,-103.));
#711=CARTESIAN_POINT('Origin',(32.79,15.,-104.98));
#712=CARTESIAN_POINT('Origin',(32.79,15.,-104.98));
#713=CARTESIAN_POINT('Origin',(45.6602724412556,15.,-96.));
#714=CARTESIAN_POINT('',(47.0000003175489,15.,-96.));
#715=CARTESIAN_POINT('',(47.0000003175489,15.,-96.));
#716=CARTESIAN_POINT('',(47.0000003175489,15.,-96.));
#717=CARTESIAN_POINT('Origin',(47.0000003175489,15.,-109.));
#718=CARTESIAN_POINT('',(47.0000003175489,15.,-109.));
#719=CARTESIAN_POINT('',(29.,15.,-109.));
#720=CARTESIAN_POINT('',(47.0000003175489,15.,-109.));
#721=CARTESIAN_POINT('Origin',(47.0000003175489,15.,-96.));
#722=CARTESIAN_POINT('',(47.0000003175489,15.,-96.));
#723=CARTESIAN_POINT('Origin',(38.0000001587744,15.,-102.499998927116));
#724=UNCERTAINTY_MEASURE_WITH_UNIT(LENGTH_MEASURE(0.01),#728,
'DISTANCE_ACCURACY_VALUE',
'Maximum model space distance between geometric entities at asserted c
onnectivities');
#725=UNCERTAINTY_MEASURE_WITH_UNIT(LENGTH_MEASURE(0.01),#728,
'DISTANCE_ACCURACY_VALUE',
'Maximum model space distance between geometric entities at asserted c
onnectivities');
#726=(
GEOMETRIC_REPRESENTATION_CONTEXT(3)
GLOBAL_UNCERTAINTY_ASSIGNED_CONTEXT((#724))
GLOBAL_UNIT_ASSIGNED_CONTEXT((#728,#730,#731))
REPRESENTATION_CONTEXT('','3D')
);
#727=(
GEOMETRIC_REPRESENTATION_CONTEXT(3)
GLOBAL_UNCERTAINTY_ASSIGNED_CONTEXT((#725))
GLOBAL_UNIT_ASSIGNED_CONTEXT((#728,#730,#731))
REPRESENTATION_CONTEXT('','3D')
);
#728=(
LENGTH_UNIT()
NAMED_UNIT(*)
SI_UNIT(.MILLI.,.METRE.)
);
#729=(
LENGTH_UNIT()
NAMED_UNIT(*)
SI_UNIT($,.METRE.)
);
#730=(
NAMED_UNIT(*)
PLANE_ANGLE_UNIT()
SI_UNIT($,.RADIAN.)
);
#731=(
NAMED_UNIT(*)
SI_UNIT($,.STERADIAN.)
SOLID_ANGLE_UNIT()
);
#732=SHAPE_DEFINITION_REPRESENTATION(#733,#734);
#733=PRODUCT_DEFINITION_SHAPE('',$,#736);
#734=SHAPE_REPRESENTATION('',(#446),#726);
#735=PRODUCT_DEFINITION_CONTEXT('part definition',#740,'design');
#736=PRODUCT_DEFINITION('2026-05-07-11-44-32-933',
'Servo vasak kinnitus',#737,#735);
#737=PRODUCT_DEFINITION_FORMATION('',$,#742);
#738=PRODUCT_RELATED_PRODUCT_CATEGORY('Servo vasak kinnitus',
'Servo vasak kinnitus',(#742));
#739=APPLICATION_PROTOCOL_DEFINITION('international standard',
'automotive_design',2009,#740);
#740=APPLICATION_CONTEXT(
'Core Data for Automotive Mechanical Design Process');
#741=PRODUCT_CONTEXT('part definition',#740,'mechanical');
#742=PRODUCT('2026-05-07-11-44-32-933','Servo vasak kinnitus',$,(#741));
#743=PRESENTATION_STYLE_ASSIGNMENT((#745));
#744=PRESENTATION_STYLE_ASSIGNMENT((#746));
#745=SURFACE_STYLE_USAGE(.BOTH.,#747);
#746=SURFACE_STYLE_USAGE(.BOTH.,#748);
#747=SURFACE_SIDE_STYLE('',(#749));
#748=SURFACE_SIDE_STYLE('',(#750));
#749=SURFACE_STYLE_FILL_AREA(#751);
#750=SURFACE_STYLE_FILL_AREA(#752);
#751=FILL_AREA_STYLE('Steel - Satin',(#753));
#752=FILL_AREA_STYLE('EPX 82 (with Carbon M2 M3 L1 3D Printers)',(#754));
#753=FILL_AREA_STYLE_COLOUR('Steel - Satin',#755);
#754=FILL_AREA_STYLE_COLOUR('EPX 82 (with Carbon M2 M3 L1 3D Printers)',
#756);
#755=COLOUR_RGB('Steel - Satin',0.627450980392157,0.627450980392157,0.627450980392157);
#756=COLOUR_RGB('EPX 82 (with Carbon M2 M3 L1 3D Printers)',0.247058823529412,
0.247058823529412,0.247058823529412);
ENDSEC;
END-ISO-10303-21;
