ISO-10303-21;
HEADER;
/* Generated by software containing ST-Developer
 * from STEP Tools, Inc. (www.steptools.com) 
 */

FILE_DESCRIPTION(
/* description */ (''),
/* implementation_level */ '2;1');

FILE_NAME(
/* name */ 'Servo liigend.step',
/* time_stamp */ '2026-05-07T11:29:06+03:00',
/* author */ (''),
/* organization */ (''),
/* preprocessor_version */ 'ST-DEVELOPER v20.1',
/* originating_system */ 'Autodesk Translation Framework v15.8.0.0',
/* authorisation */ '');

FILE_SCHEMA (('AUTOMOTIVE_DESIGN { 1 0 10303 214 3 1 1 }'));
ENDSEC;

DATA;
#10=MECHANICAL_DESIGN_GEOMETRIC_PRESENTATION_REPRESENTATION('',(#13),#501);
#11=SHAPE_REPRESENTATION_RELATIONSHIP('SRR','None',#508,#12);
#12=ADVANCED_BREP_SHAPE_REPRESENTATION('',(#14),#500);
#13=STYLED_ITEM('',(#517),#14);
#14=MANIFOLD_SOLID_BREP('Body1',#285);
#15=FACE_BOUND('',#69,.T.);
#16=FACE_BOUND('',#71,.T.);
#17=FACE_BOUND('',#73,.T.);
#18=FACE_BOUND('',#76,.T.);
#19=B_SPLINE_CURVE_WITH_KNOTS('',3,(#421,#422,#423,#424),.UNSPECIFIED.,
 .F.,.F.,(4,4),(4.54228161294271,4.84855704322762),.UNSPECIFIED.);
#20=B_SPLINE_CURVE_WITH_KNOTS('',3,(#428,#429,#430,#431),.UNSPECIFIED.,
 .F.,.F.,(4,4),(1.20224494368092,1.50852037396583),.UNSPECIFIED.);
#21=B_SPLINE_CURVE_WITH_KNOTS('',3,(#459,#460,#461,#462),.UNSPECIFIED.,
 .F.,.F.,(4,4),(4.54228161294272,4.84855704322764),.UNSPECIFIED.);
#22=B_SPLINE_CURVE_WITH_KNOTS('',3,(#463,#464,#465,#466),.UNSPECIFIED.,
 .F.,.F.,(4,4),(1.2022449436809,1.50852037396583),.UNSPECIFIED.);
#23=CIRCLE('',#301,50.);
#24=CIRCLE('',#302,50.);
#25=CIRCLE('',#305,3.);
#26=CIRCLE('',#306,3.);
#27=CIRCLE('',#309,50.);
#28=CIRCLE('',#310,50.);
#29=CIRCLE('',#313,3.5);
#30=CIRCLE('',#314,3.5);
#31=CIRCLE('',#316,5.);
#32=CIRCLE('',#317,5.);
#33=CIRCLE('',#321,1.6);
#34=CIRCLE('',#323,1.6);
#35=CYLINDRICAL_SURFACE('',#300,50.);
#36=CYLINDRICAL_SURFACE('',#304,3.);
#37=CYLINDRICAL_SURFACE('',#308,50.);
#38=CYLINDRICAL_SURFACE('',#312,3.5);
#39=CYLINDRICAL_SURFACE('',#315,5.);
#40=CYLINDRICAL_SURFACE('',#322,1.6);
#41=CYLINDRICAL_SURFACE('',#325,10.);
#42=CYLINDRICAL_SURFACE('',#326,10.);
#43=FACE_OUTER_BOUND('',#59,.T.);
#44=FACE_OUTER_BOUND('',#60,.T.);
#45=FACE_OUTER_BOUND('',#61,.T.);
#46=FACE_OUTER_BOUND('',#62,.T.);
#47=FACE_OUTER_BOUND('',#63,.T.);
#48=FACE_OUTER_BOUND('',#64,.T.);
#49=FACE_OUTER_BOUND('',#65,.T.);
#50=FACE_OUTER_BOUND('',#66,.T.);
#51=FACE_OUTER_BOUND('',#67,.T.);
#52=FACE_OUTER_BOUND('',#68,.T.);
#53=FACE_OUTER_BOUND('',#70,.T.);
#54=FACE_OUTER_BOUND('',#72,.T.);
#55=FACE_OUTER_BOUND('',#74,.T.);
#56=FACE_OUTER_BOUND('',#75,.T.);
#57=FACE_OUTER_BOUND('',#77,.T.);
#58=FACE_OUTER_BOUND('',#78,.T.);
#59=EDGE_LOOP('',(#185,#186,#187,#188));
#60=EDGE_LOOP('',(#189,#190,#191,#192,#193,#194));
#61=EDGE_LOOP('',(#195,#196,#197,#198));
#62=EDGE_LOOP('',(#199,#200,#201,#202));
#63=EDGE_LOOP('',(#203,#204,#205,#206));
#64=EDGE_LOOP('',(#207,#208,#209,#210,#211,#212));
#65=EDGE_LOOP('',(#213,#214,#215,#216));
#66=EDGE_LOOP('',(#217,#218,#219,#220));
#67=EDGE_LOOP('',(#221,#222,#223,#224));
#68=EDGE_LOOP('',(#225,#226,#227,#228,#229,#230));
#69=EDGE_LOOP('',(#231));
#70=EDGE_LOOP('',(#232,#233,#234,#235,#236,#237));
#71=EDGE_LOOP('',(#238));
#72=EDGE_LOOP('',(#239,#240,#241,#242));
#73=EDGE_LOOP('',(#243));
#74=EDGE_LOOP('',(#244,#245,#246,#247));
#75=EDGE_LOOP('',(#248,#249,#250,#251));
#76=EDGE_LOOP('',(#252));
#77=EDGE_LOOP('',(#253,#254,#255,#256));
#78=EDGE_LOOP('',(#257,#258,#259,#260));
#79=LINE('',#411,#101);
#80=LINE('',#413,#102);
#81=LINE('',#415,#103);
#82=LINE('',#416,#104);
#83=LINE('',#426,#105);
#84=LINE('',#435,#106);
#85=LINE('',#437,#107);
#86=LINE('',#438,#108);
#87=LINE('',#443,#109);
#88=LINE('',#447,#110);
#89=LINE('',#449,#111);
#90=LINE('',#450,#112);
#91=LINE('',#456,#113);
#92=LINE('',#469,#114);
#93=LINE('',#471,#115);
#94=LINE('',#472,#116);
#95=LINE('',#477,#117);
#96=LINE('',#483,#118);
#97=LINE('',#485,#119);
#98=LINE('',#487,#120);
#99=LINE('',#493,#121);
#100=LINE('',#495,#122);
#101=VECTOR('',#331,14.1861735530313);
#102=VECTOR('',#332,2.);
#103=VECTOR('',#333,14.1861735530313);
#104=VECTOR('',#334,2.);
#105=VECTOR('',#339,3.);
#106=VECTOR('',#344,6.11893078440757);
#107=VECTOR('',#345,3.);
#108=VECTOR('',#346,6.11893078440757);
#109=VECTOR('',#351,3.);
#110=VECTOR('',#356,6.11893078440757);
#111=VECTOR('',#357,3.);
#112=VECTOR('',#358,6.11893078440778);
#113=VECTOR('',#363,2.);
#114=VECTOR('',#368,14.1861735530313);
#115=VECTOR('',#369,2.);
#116=VECTOR('',#370,14.1861735530313);
#117=VECTOR('',#375,3.5);
#118=VECTOR('',#386,6.19519049664989);
#119=VECTOR('',#389,6.19519049664989);
#120=VECTOR('',#392,6.);
#121=VECTOR('',#399,1.6);
#122=VECTOR('',#402,5.99999999999999);
#123=VERTEX_POINT('',#409);
#124=VERTEX_POINT('',#410);
#125=VERTEX_POINT('',#412);
#126=VERTEX_POINT('',#414);
#127=VERTEX_POINT('',#418);
#128=VERTEX_POINT('',#420);
#129=VERTEX_POINT('',#425);
#130=VERTEX_POINT('',#427);
#131=VERTEX_POINT('',#434);
#132=VERTEX_POINT('',#436);
#133=VERTEX_POINT('',#440);
#134=VERTEX_POINT('',#442);
#135=VERTEX_POINT('',#446);
#136=VERTEX_POINT('',#448);
#137=VERTEX_POINT('',#452);
#138=VERTEX_POINT('',#453);
#139=VERTEX_POINT('',#455);
#140=VERTEX_POINT('',#457);
#141=VERTEX_POINT('',#468);
#142=VERTEX_POINT('',#470);
#143=VERTEX_POINT('',#474);
#144=VERTEX_POINT('',#476);
#145=VERTEX_POINT('',#488);
#146=VERTEX_POINT('',#491);
#147=EDGE_CURVE('',#123,#124,#79,.T.);
#148=EDGE_CURVE('',#125,#124,#80,.T.);
#149=EDGE_CURVE('',#126,#125,#81,.T.);
#150=EDGE_CURVE('',#126,#123,#82,.T.);
#151=EDGE_CURVE('',#124,#127,#23,.F.);
#152=EDGE_CURVE('',#127,#128,#19,.T.);
#153=EDGE_CURVE('',#129,#128,#83,.T.);
#154=EDGE_CURVE('',#129,#130,#20,.T.);
#155=EDGE_CURVE('',#125,#130,#24,.F.);
#156=EDGE_CURVE('',#128,#131,#84,.T.);
#157=EDGE_CURVE('',#132,#131,#85,.T.);
#158=EDGE_CURVE('',#129,#132,#86,.T.);
#159=EDGE_CURVE('',#131,#133,#25,.T.);
#160=EDGE_CURVE('',#134,#133,#87,.T.);
#161=EDGE_CURVE('',#132,#134,#26,.T.);
#162=EDGE_CURVE('',#133,#135,#88,.T.);
#163=EDGE_CURVE('',#136,#135,#89,.T.);
#164=EDGE_CURVE('',#134,#136,#90,.T.);
#165=EDGE_CURVE('',#137,#138,#27,.T.);
#166=EDGE_CURVE('',#139,#137,#91,.T.);
#167=EDGE_CURVE('',#139,#140,#28,.T.);
#168=EDGE_CURVE('',#140,#136,#21,.T.);
#169=EDGE_CURVE('',#135,#138,#22,.T.);
#170=EDGE_CURVE('',#141,#137,#92,.T.);
#171=EDGE_CURVE('',#142,#141,#93,.T.);
#172=EDGE_CURVE('',#142,#139,#94,.T.);
#173=EDGE_CURVE('',#143,#143,#29,.T.);
#174=EDGE_CURVE('',#143,#144,#95,.T.);
#175=EDGE_CURVE('',#144,#144,#30,.T.);
#176=EDGE_CURVE('',#141,#123,#31,.T.);
#177=EDGE_CURVE('',#142,#126,#32,.T.);
#178=EDGE_CURVE('',#130,#140,#96,.F.);
#179=EDGE_CURVE('',#138,#127,#97,.F.);
#180=EDGE_CURVE('',#135,#128,#98,.T.);
#181=EDGE_CURVE('',#145,#145,#33,.T.);
#182=EDGE_CURVE('',#146,#146,#34,.T.);
#183=EDGE_CURVE('',#146,#145,#99,.T.);
#184=EDGE_CURVE('',#136,#129,#100,.T.);
#185=ORIENTED_EDGE('',*,*,#147,.T.);
#186=ORIENTED_EDGE('',*,*,#148,.F.);
#187=ORIENTED_EDGE('',*,*,#149,.F.);
#188=ORIENTED_EDGE('',*,*,#150,.T.);
#189=ORIENTED_EDGE('',*,*,#151,.T.);
#190=ORIENTED_EDGE('',*,*,#152,.T.);
#191=ORIENTED_EDGE('',*,*,#153,.F.);
#192=ORIENTED_EDGE('',*,*,#154,.T.);
#193=ORIENTED_EDGE('',*,*,#155,.F.);
#194=ORIENTED_EDGE('',*,*,#148,.T.);
#195=ORIENTED_EDGE('',*,*,#153,.T.);
#196=ORIENTED_EDGE('',*,*,#156,.T.);
#197=ORIENTED_EDGE('',*,*,#157,.F.);
#198=ORIENTED_EDGE('',*,*,#158,.F.);
#199=ORIENTED_EDGE('',*,*,#157,.T.);
#200=ORIENTED_EDGE('',*,*,#159,.T.);
#201=ORIENTED_EDGE('',*,*,#160,.F.);
#202=ORIENTED_EDGE('',*,*,#161,.F.);
#203=ORIENTED_EDGE('',*,*,#160,.T.);
#204=ORIENTED_EDGE('',*,*,#162,.T.);
#205=ORIENTED_EDGE('',*,*,#163,.F.);
#206=ORIENTED_EDGE('',*,*,#164,.F.);
#207=ORIENTED_EDGE('',*,*,#165,.F.);
#208=ORIENTED_EDGE('',*,*,#166,.F.);
#209=ORIENTED_EDGE('',*,*,#167,.T.);
#210=ORIENTED_EDGE('',*,*,#168,.T.);
#211=ORIENTED_EDGE('',*,*,#163,.T.);
#212=ORIENTED_EDGE('',*,*,#169,.T.);
#213=ORIENTED_EDGE('',*,*,#170,.F.);
#214=ORIENTED_EDGE('',*,*,#171,.F.);
#215=ORIENTED_EDGE('',*,*,#172,.T.);
#216=ORIENTED_EDGE('',*,*,#166,.T.);
#217=ORIENTED_EDGE('',*,*,#173,.T.);
#218=ORIENTED_EDGE('',*,*,#174,.T.);
#219=ORIENTED_EDGE('',*,*,#175,.F.);
#220=ORIENTED_EDGE('',*,*,#174,.F.);
#221=ORIENTED_EDGE('',*,*,#176,.T.);
#222=ORIENTED_EDGE('',*,*,#150,.F.);
#223=ORIENTED_EDGE('',*,*,#177,.F.);
#224=ORIENTED_EDGE('',*,*,#171,.T.);
#225=ORIENTED_EDGE('',*,*,#155,.T.);
#226=ORIENTED_EDGE('',*,*,#178,.T.);
#227=ORIENTED_EDGE('',*,*,#167,.F.);
#228=ORIENTED_EDGE('',*,*,#172,.F.);
#229=ORIENTED_EDGE('',*,*,#177,.T.);
#230=ORIENTED_EDGE('',*,*,#149,.T.);
#231=ORIENTED_EDGE('',*,*,#173,.F.);
#232=ORIENTED_EDGE('',*,*,#165,.T.);
#233=ORIENTED_EDGE('',*,*,#179,.T.);
#234=ORIENTED_EDGE('',*,*,#151,.F.);
#235=ORIENTED_EDGE('',*,*,#147,.F.);
#236=ORIENTED_EDGE('',*,*,#176,.F.);
#237=ORIENTED_EDGE('',*,*,#170,.T.);
#238=ORIENTED_EDGE('',*,*,#175,.T.);
#239=ORIENTED_EDGE('',*,*,#159,.F.);
#240=ORIENTED_EDGE('',*,*,#156,.F.);
#241=ORIENTED_EDGE('',*,*,#180,.F.);
#242=ORIENTED_EDGE('',*,*,#162,.F.);
#243=ORIENTED_EDGE('',*,*,#181,.T.);
#244=ORIENTED_EDGE('',*,*,#182,.T.);
#245=ORIENTED_EDGE('',*,*,#183,.T.);
#246=ORIENTED_EDGE('',*,*,#181,.F.);
#247=ORIENTED_EDGE('',*,*,#183,.F.);
#248=ORIENTED_EDGE('',*,*,#161,.T.);
#249=ORIENTED_EDGE('',*,*,#164,.T.);
#250=ORIENTED_EDGE('',*,*,#184,.T.);
#251=ORIENTED_EDGE('',*,*,#158,.T.);
#252=ORIENTED_EDGE('',*,*,#182,.F.);
#253=ORIENTED_EDGE('',*,*,#169,.F.);
#254=ORIENTED_EDGE('',*,*,#180,.T.);
#255=ORIENTED_EDGE('',*,*,#152,.F.);
#256=ORIENTED_EDGE('',*,*,#179,.F.);
#257=ORIENTED_EDGE('',*,*,#168,.F.);
#258=ORIENTED_EDGE('',*,*,#178,.F.);
#259=ORIENTED_EDGE('',*,*,#154,.F.);
#260=ORIENTED_EDGE('',*,*,#184,.F.);
#261=PLANE('',#299);
#262=PLANE('',#303);
#263=PLANE('',#307);
#264=PLANE('',#311);
#265=PLANE('',#318);
#266=PLANE('',#319);
#267=PLANE('',#320);
#268=PLANE('',#324);
#269=ADVANCED_FACE('',(#43),#261,.F.);
#270=ADVANCED_FACE('',(#44),#35,.F.);
#271=ADVANCED_FACE('',(#45),#262,.F.);
#272=ADVANCED_FACE('',(#46),#36,.T.);
#273=ADVANCED_FACE('',(#47),#263,.T.);
#274=ADVANCED_FACE('',(#48),#37,.F.);
#275=ADVANCED_FACE('',(#49),#264,.T.);
#276=ADVANCED_FACE('',(#50),#38,.F.);
#277=ADVANCED_FACE('',(#51),#39,.T.);
#278=ADVANCED_FACE('',(#52,#15),#265,.T.);
#279=ADVANCED_FACE('',(#53,#16),#266,.F.);
#280=ADVANCED_FACE('',(#54,#17),#267,.F.);
#281=ADVANCED_FACE('',(#55),#40,.F.);
#282=ADVANCED_FACE('',(#56,#18),#268,.T.);
#283=ADVANCED_FACE('',(#57),#41,.F.);
#284=ADVANCED_FACE('',(#58),#42,.F.);
#285=CLOSED_SHELL('',(#269,#270,#271,#272,#273,#274,#275,#276,#277,#278,
#279,#280,#281,#282,#283,#284));
#286=DERIVED_UNIT_ELEMENT(#288,1.);
#287=DERIVED_UNIT_ELEMENT(#503,-3.);
#288=(
MASS_UNIT()
NAMED_UNIT(*)
SI_UNIT(.KILO.,.GRAM.)
);
#289=DERIVED_UNIT((#286,#287));
#290=MEASURE_REPRESENTATION_ITEM('density measure',
POSITIVE_RATIO_MEASURE(7850.),#289);
#291=PROPERTY_DEFINITION_REPRESENTATION(#296,#293);
#292=PROPERTY_DEFINITION_REPRESENTATION(#297,#294);
#293=REPRESENTATION('material name',(#295),#500);
#294=REPRESENTATION('density',(#290),#500);
#295=DESCRIPTIVE_REPRESENTATION_ITEM('Steel','Steel');
#296=PROPERTY_DEFINITION('material property','material name',#510);
#297=PROPERTY_DEFINITION('material property','density of part',#510);
#298=AXIS2_PLACEMENT_3D('',#407,#327,#328);
#299=AXIS2_PLACEMENT_3D('',#408,#329,#330);
#300=AXIS2_PLACEMENT_3D('',#417,#335,#336);
#301=AXIS2_PLACEMENT_3D('',#419,#337,#338);
#302=AXIS2_PLACEMENT_3D('',#432,#340,#341);
#303=AXIS2_PLACEMENT_3D('',#433,#342,#343);
#304=AXIS2_PLACEMENT_3D('',#439,#347,#348);
#305=AXIS2_PLACEMENT_3D('',#441,#349,#350);
#306=AXIS2_PLACEMENT_3D('',#444,#352,#353);
#307=AXIS2_PLACEMENT_3D('',#445,#354,#355);
#308=AXIS2_PLACEMENT_3D('',#451,#359,#360);
#309=AXIS2_PLACEMENT_3D('',#454,#361,#362);
#310=AXIS2_PLACEMENT_3D('',#458,#364,#365);
#311=AXIS2_PLACEMENT_3D('',#467,#366,#367);
#312=AXIS2_PLACEMENT_3D('',#473,#371,#372);
#313=AXIS2_PLACEMENT_3D('',#475,#373,#374);
#314=AXIS2_PLACEMENT_3D('',#478,#376,#377);
#315=AXIS2_PLACEMENT_3D('',#479,#378,#379);
#316=AXIS2_PLACEMENT_3D('',#480,#380,#381);
#317=AXIS2_PLACEMENT_3D('',#481,#382,#383);
#318=AXIS2_PLACEMENT_3D('',#482,#384,#385);
#319=AXIS2_PLACEMENT_3D('',#484,#387,#388);
#320=AXIS2_PLACEMENT_3D('',#486,#390,#391);
#321=AXIS2_PLACEMENT_3D('',#489,#393,#394);
#322=AXIS2_PLACEMENT_3D('',#490,#395,#396);
#323=AXIS2_PLACEMENT_3D('',#492,#397,#398);
#324=AXIS2_PLACEMENT_3D('',#494,#400,#401);
#325=AXIS2_PLACEMENT_3D('',#496,#403,#404);
#326=AXIS2_PLACEMENT_3D('',#497,#405,#406);
#327=DIRECTION('axis',(0.,0.,1.));
#328=DIRECTION('refdir',(1.,0.,0.));
#329=DIRECTION('center_axis',(0.116841247567397,0.,0.993150604322876));
#330=DIRECTION('ref_axis',(0.993150604322876,0.,-0.116841247567397));
#331=DIRECTION('',(-0.993150604322876,0.,0.116841247567397));
#332=DIRECTION('',(0.,-1.,0.));
#333=DIRECTION('',(-0.993150604322876,0.,0.116841247567397));
#334=DIRECTION('',(0.,-1.,0.));
#335=DIRECTION('center_axis',(0.,-1.,0.));
#336=DIRECTION('ref_axis',(0.,0.,-1.));
#337=DIRECTION('center_axis',(0.,1.,0.));
#338=DIRECTION('ref_axis',(0.,0.,1.));
#339=DIRECTION('',(0.,-1.,0.));
#340=DIRECTION('center_axis',(0.,1.,0.));
#341=DIRECTION('ref_axis',(0.,0.,1.));
#342=DIRECTION('center_axis',(-2.12625808792928E-16,0.,1.));
#343=DIRECTION('ref_axis',(1.,0.,2.12625808792928E-16));
#344=DIRECTION('',(-1.,0.,0.));
#345=DIRECTION('',(0.,-1.,0.));
#346=DIRECTION('',(-1.,0.,0.));
#347=DIRECTION('center_axis',(0.,-1.,0.));
#348=DIRECTION('ref_axis',(0.,0.,-1.));
#349=DIRECTION('center_axis',(0.,1.,0.));
#350=DIRECTION('ref_axis',(0.,0.,1.));
#351=DIRECTION('',(0.,-1.,0.));
#352=DIRECTION('center_axis',(0.,1.,0.));
#353=DIRECTION('ref_axis',(0.,0.,1.));
#354=DIRECTION('center_axis',(2.12625808792928E-16,0.,1.));
#355=DIRECTION('ref_axis',(1.,0.,-2.12625808792928E-16));
#356=DIRECTION('',(1.,0.,-4.53601725424913E-16));
#357=DIRECTION('',(0.,-1.,0.));
#358=DIRECTION('',(1.,0.,-4.53601725424897E-16));
#359=DIRECTION('center_axis',(0.,-1.,0.));
#360=DIRECTION('ref_axis',(0.,0.,-1.));
#361=DIRECTION('center_axis',(0.,1.,0.));
#362=DIRECTION('ref_axis',(0.,0.,1.));
#363=DIRECTION('',(0.,-1.,0.));
#364=DIRECTION('center_axis',(0.,1.,0.));
#365=DIRECTION('ref_axis',(0.,0.,1.));
#366=DIRECTION('center_axis',(-0.116841247567397,0.,0.993150604322876));
#367=DIRECTION('ref_axis',(0.993150604322876,0.,0.116841247567397));
#368=DIRECTION('',(-0.993150604322876,0.,-0.116841247567397));
#369=DIRECTION('',(0.,-1.,0.));
#370=DIRECTION('',(-0.993150604322876,0.,-0.116841247567397));
#371=DIRECTION('center_axis',(0.,-1.,0.));
#372=DIRECTION('ref_axis',(0.,0.,-1.));
#373=DIRECTION('center_axis',(0.,1.,0.));
#374=DIRECTION('ref_axis',(0.,0.,1.));
#375=DIRECTION('',(0.,-1.,0.));
#376=DIRECTION('center_axis',(0.,1.,0.));
#377=DIRECTION('ref_axis',(0.,0.,1.));
#378=DIRECTION('center_axis',(0.,-1.,0.));
#379=DIRECTION('ref_axis',(0.,0.,-1.));
#380=DIRECTION('center_axis',(0.,1.,0.));
#381=DIRECTION('ref_axis',(0.,0.,1.));
#382=DIRECTION('center_axis',(0.,1.,0.));
#383=DIRECTION('ref_axis',(0.,0.,1.));
#384=DIRECTION('center_axis',(0.,1.,0.));
#385=DIRECTION('ref_axis',(0.,0.,1.));
#386=DIRECTION('',(-3.58414491120336E-14,0.,-1.));
#387=DIRECTION('center_axis',(0.,1.,0.));
#388=DIRECTION('ref_axis',(0.,0.,1.));
#389=DIRECTION('',(3.58414491120336E-14,0.,1.));
#390=DIRECTION('center_axis',(0.,1.,0.));
#391=DIRECTION('ref_axis',(0.,0.,1.));
#392=DIRECTION('',(-3.58972111295467E-14,0.,-1.));
#393=DIRECTION('center_axis',(0.,1.,0.));
#394=DIRECTION('ref_axis',(0.,0.,1.));
#395=DIRECTION('center_axis',(0.,-1.,0.));
#396=DIRECTION('ref_axis',(0.,0.,-1.));
#397=DIRECTION('center_axis',(0.,1.,0.));
#398=DIRECTION('ref_axis',(0.,0.,1.));
#399=DIRECTION('',(0.,-1.,0.));
#400=DIRECTION('center_axis',(0.,1.,0.));
#401=DIRECTION('ref_axis',(0.,0.,1.));
#402=DIRECTION('',(-3.58972111295468E-14,0.,-1.));
#403=DIRECTION('center_axis',(3.5850951836854E-14,0.,1.));
#404=DIRECTION('ref_axis',(1.,0.,-3.5850951836854E-14));
#405=DIRECTION('center_axis',(3.5850951836854E-14,0.,1.));
#406=DIRECTION('ref_axis',(1.,0.,-3.5850951836854E-14));
#407=CARTESIAN_POINT('',(0.,0.,0.));
#408=CARTESIAN_POINT('Origin',(-0.580204778156997,2.,-4.93174061433447));
#409=CARTESIAN_POINT('',(0.,0.,-5.));
#410=CARTESIAN_POINT('',(-14.0890068372222,0.,-3.34246978385621));
#411=CARTESIAN_POINT('',(0.,0.,-5.));
#412=CARTESIAN_POINT('',(-14.0890068372222,2.,-3.34246978385621));
#413=CARTESIAN_POINT('',(-14.0890068372222,2.,-3.34246978385621));
#414=CARTESIAN_POINT('',(0.,2.,-5.));
#415=CARTESIAN_POINT('',(0.,2.,-5.));
#416=CARTESIAN_POINT('',(0.,2.,-5.));
#417=CARTESIAN_POINT('Origin',(-19.9310692155922,2.,-53.));
#418=CARTESIAN_POINT('',(-16.8085702163932,0.,-3.09759524832494));
#419=CARTESIAN_POINT('Origin',(-19.9310692155922,0.,-53.));
#420=CARTESIAN_POINT('',(-19.9310692155924,-0.5,-3.));
#421=CARTESIAN_POINT('Ctrl Pts',(-16.8085702163932,-9.24446373305873E-32,
-3.09759524832494));
#422=CARTESIAN_POINT('Ctrl Pts',(-17.8274955822313,-1.41680847741371E-16,
-3.03383893335535));
#423=CARTESIAN_POINT('Ctrl Pts',(-18.903687462437,-0.16231594778702,-2.99999999999999));
#424=CARTESIAN_POINT('Ctrl Pts',(-19.9310692155924,-0.499999999999999,-3.));
#425=CARTESIAN_POINT('',(-19.9310692155924,2.5,-3.));
#426=CARTESIAN_POINT('',(-19.9310692155924,2.5,-3.));
#427=CARTESIAN_POINT('',(-16.8085702163932,2.,-3.09759524832494));
#428=CARTESIAN_POINT('Ctrl Pts',(-19.9310692155924,2.5,-3.));
#429=CARTESIAN_POINT('Ctrl Pts',(-18.903687462437,2.16231594778702,-2.99999999999999));
#430=CARTESIAN_POINT('Ctrl Pts',(-17.8274955822313,2.,-3.03383893335535));
#431=CARTESIAN_POINT('Ctrl Pts',(-16.8085702163932,2.,-3.09759524832494));
#432=CARTESIAN_POINT('Origin',(-19.9310692155922,2.,-53.));
#433=CARTESIAN_POINT('Origin',(6.37877426378783E-16,2.,-2.99999999999999));
#434=CARTESIAN_POINT('',(-26.05,-0.5,-3.));
#435=CARTESIAN_POINT('',(-19.9310692155924,-0.5,-3.));
#436=CARTESIAN_POINT('',(-26.05,2.5,-3.));
#437=CARTESIAN_POINT('',(-26.05,2.5,-3.));
#438=CARTESIAN_POINT('',(-19.9310692155924,2.5,-3.));
#439=CARTESIAN_POINT('Origin',(-26.05,2.,0.));
#440=CARTESIAN_POINT('',(-26.05,-0.5,3.));
#441=CARTESIAN_POINT('Origin',(-26.05,-0.5,0.));
#442=CARTESIAN_POINT('',(-26.05,2.5,3.));
#443=CARTESIAN_POINT('',(-26.05,2.5,3.));
#444=CARTESIAN_POINT('Origin',(-26.05,2.5,0.));
#445=CARTESIAN_POINT('Origin',(6.37877426378783E-16,2.,2.99999999999999));
#446=CARTESIAN_POINT('',(-19.9310692155924,-0.5,3.));
#447=CARTESIAN_POINT('',(-26.05,-0.5,3.));
#448=CARTESIAN_POINT('',(-19.9310692155922,2.5,3.));
#449=CARTESIAN_POINT('',(-19.9310692155924,2.5,3.));
#450=CARTESIAN_POINT('',(-26.05,2.5,3.));
#451=CARTESIAN_POINT('Origin',(-19.9310692155922,2.,53.));
#452=CARTESIAN_POINT('',(-14.0890068372222,0.,3.34246978385621));
#453=CARTESIAN_POINT('',(-16.808570216393,0.,3.09759524832495));
#454=CARTESIAN_POINT('Origin',(-19.9310692155922,0.,53.));
#455=CARTESIAN_POINT('',(-14.0890068372222,2.,3.34246978385621));
#456=CARTESIAN_POINT('',(-14.0890068372222,2.,3.34246978385621));
#457=CARTESIAN_POINT('',(-16.808570216393,2.,3.09759524832495));
#458=CARTESIAN_POINT('Origin',(-19.9310692155922,2.,53.));
#459=CARTESIAN_POINT('Ctrl Pts',(-16.808570216393,2.,3.09759524832495));
#460=CARTESIAN_POINT('Ctrl Pts',(-17.8274955822311,2.,3.03383893335536));
#461=CARTESIAN_POINT('Ctrl Pts',(-18.9036874624368,2.16231594778702,3.));
#462=CARTESIAN_POINT('Ctrl Pts',(-19.9310692155922,2.5,3.));
#463=CARTESIAN_POINT('Ctrl Pts',(-19.9310692155924,-0.500000000000065,3.));
#464=CARTESIAN_POINT('Ctrl Pts',(-18.9036874624369,-0.162315947787042,3.));
#465=CARTESIAN_POINT('Ctrl Pts',(-17.8274955822312,-1.01982277600024E-16,
3.03383893335535));
#466=CARTESIAN_POINT('Ctrl Pts',(-16.808570216393,7.70371977754894E-33,
3.09759524832495));
#467=CARTESIAN_POINT('Origin',(-0.580204778156997,2.,4.93174061433447));
#468=CARTESIAN_POINT('',(0.,0.,5.));
#469=CARTESIAN_POINT('',(0.,0.,5.));
#470=CARTESIAN_POINT('',(0.,2.,5.));
#471=CARTESIAN_POINT('',(0.,2.,5.));
#472=CARTESIAN_POINT('',(0.,2.,5.));
#473=CARTESIAN_POINT('Origin',(0.,2.,0.));
#474=CARTESIAN_POINT('',(0.,2.,3.5));
#475=CARTESIAN_POINT('Origin',(0.,2.,0.));
#476=CARTESIAN_POINT('',(0.,0.,3.5));
#477=CARTESIAN_POINT('',(-4.28626379701574E-16,2.,3.5));
#478=CARTESIAN_POINT('Origin',(0.,0.,0.));
#479=CARTESIAN_POINT('Origin',(0.,2.,0.));
#480=CARTESIAN_POINT('Origin',(0.,0.,0.));
#481=CARTESIAN_POINT('Origin',(0.,2.,0.));
#482=CARTESIAN_POINT('Origin',(0.,2.,0.));
#483=CARTESIAN_POINT('',(-16.808570216393,2.,3.09759524832495));
#484=CARTESIAN_POINT('Origin',(0.,0.,0.));
#485=CARTESIAN_POINT('',(-16.8085702163932,0.,-3.09759524832494));
#486=CARTESIAN_POINT('Origin',(-26.05,-0.5,0.));
#487=CARTESIAN_POINT('',(-19.9310692155922,-0.5,3.));
#488=CARTESIAN_POINT('',(-26.05,-0.5,1.6));
#489=CARTESIAN_POINT('Origin',(-26.05,-0.5,0.));
#490=CARTESIAN_POINT('Origin',(-26.05,2.,0.));
#491=CARTESIAN_POINT('',(-26.05,2.5,1.6));
#492=CARTESIAN_POINT('Origin',(-26.05,2.5,0.));
#493=CARTESIAN_POINT('',(-26.05,2.,1.6));
#494=CARTESIAN_POINT('Origin',(-26.05,2.5,0.));
#495=CARTESIAN_POINT('',(-19.9310692155922,2.5,3.));
#496=CARTESIAN_POINT('Origin',(-16.8085702163932,-10.,-3.00000000000011));
#497=CARTESIAN_POINT('Origin',(-16.8085702163932,12.,-3.00000000000011));
#498=UNCERTAINTY_MEASURE_WITH_UNIT(LENGTH_MEASURE(0.01),#502,
'DISTANCE_ACCURACY_VALUE',
'Maximum model space distance between geometric entities at asserted c
onnectivities');
#499=UNCERTAINTY_MEASURE_WITH_UNIT(LENGTH_MEASURE(0.01),#502,
'DISTANCE_ACCURACY_VALUE',
'Maximum model space distance between geometric entities at asserted c
onnectivities');
#500=(
GEOMETRIC_REPRESENTATION_CONTEXT(3)
GLOBAL_UNCERTAINTY_ASSIGNED_CONTEXT((#498))
GLOBAL_UNIT_ASSIGNED_CONTEXT((#502,#504,#505))
REPRESENTATION_CONTEXT('','3D')
);
#501=(
GEOMETRIC_REPRESENTATION_CONTEXT(3)
GLOBAL_UNCERTAINTY_ASSIGNED_CONTEXT((#499))
GLOBAL_UNIT_ASSIGNED_CONTEXT((#502,#504,#505))
REPRESENTATION_CONTEXT('','3D')
);
#502=(
LENGTH_UNIT()
NAMED_UNIT(*)
SI_UNIT(.MILLI.,.METRE.)
);
#503=(
LENGTH_UNIT()
NAMED_UNIT(*)
SI_UNIT($,.METRE.)
);
#504=(
NAMED_UNIT(*)
PLANE_ANGLE_UNIT()
SI_UNIT($,.RADIAN.)
);
#505=(
NAMED_UNIT(*)
SI_UNIT($,.STERADIAN.)
SOLID_ANGLE_UNIT()
);
#506=SHAPE_DEFINITION_REPRESENTATION(#507,#508);
#507=PRODUCT_DEFINITION_SHAPE('',$,#510);
#508=SHAPE_REPRESENTATION('',(#298),#500);
#509=PRODUCT_DEFINITION_CONTEXT('part definition',#514,'design');
#510=PRODUCT_DEFINITION('2026-05-07-11-29-06-573','Part3',#511,#509);
#511=PRODUCT_DEFINITION_FORMATION('',$,#516);
#512=PRODUCT_RELATED_PRODUCT_CATEGORY('Part3','Part3',(#516));
#513=APPLICATION_PROTOCOL_DEFINITION('international standard',
'automotive_design',2009,#514);
#514=APPLICATION_CONTEXT(
'Core Data for Automotive Mechanical Design Process');
#515=PRODUCT_CONTEXT('part definition',#514,'mechanical');
#516=PRODUCT('2026-05-07-11-29-06-573','Part3',$,(#515));
#517=PRESENTATION_STYLE_ASSIGNMENT((#518));
#518=SURFACE_STYLE_USAGE(.BOTH.,#519);
#519=SURFACE_SIDE_STYLE('',(#520));
#520=SURFACE_STYLE_FILL_AREA(#521);
#521=FILL_AREA_STYLE('Steel - Satin',(#522));
#522=FILL_AREA_STYLE_COLOUR('Steel - Satin',#523);
#523=COLOUR_RGB('Steel - Satin',0.627450980392157,0.627450980392157,0.627450980392157);
ENDSEC;
END-ISO-10303-21;
