ISO-10303-21;
HEADER;
/* Generated by software containing ST-Developer
 * from STEP Tools, Inc. (www.steptools.com) 
 */

FILE_DESCRIPTION(
/* description */ (''),
/* implementation_level */ '2;1');

FILE_NAME(
/* name */ 'Tagaratta hoidik.step',
/* time_stamp */ '2026-05-07T11:23:05+03:00',
/* author */ (''),
/* organization */ (''),
/* preprocessor_version */ 'ST-DEVELOPER v20.1',
/* originating_system */ 'Autodesk Translation Framework v15.8.0.0',
/* authorisation */ '');

FILE_SCHEMA (('AUTOMOTIVE_DESIGN { 1 0 10303 214 3 1 1 }'));
ENDSEC;

DATA;
#10=MECHANICAL_DESIGN_GEOMETRIC_PRESENTATION_REPRESENTATION('',(#13),#1083);
#11=SHAPE_REPRESENTATION_RELATIONSHIP('SRR','None',#1090,#12);
#12=ADVANCED_BREP_SHAPE_REPRESENTATION('',(#14),#1082);
#13=STYLED_ITEM('',(#1099),#14);
#14=MANIFOLD_SOLID_BREP('Body1',#611);
#15=CONICAL_SURFACE('',#679,1.6,0.785398163397443);
#16=CONICAL_SURFACE('',#680,1.6,0.785398163397444);
#17=CONICAL_SURFACE('',#681,1.6,0.785398163397444);
#18=CONICAL_SURFACE('',#682,1.60000000000001,0.785398163397443);
#19=CONICAL_SURFACE('',#683,1.60000000000001,0.78539816339745);
#20=CONICAL_SURFACE('',#684,1.6,0.78539816339745);
#21=CONICAL_SURFACE('',#685,1.6,0.78539816339745);
#22=CONICAL_SURFACE('',#686,1.6,0.785398163397451);
#23=(
BOUNDED_CURVE()
B_SPLINE_CURVE(2,(#1019,#1020,#1021),.UNSPECIFIED.,.F.,.F.)
B_SPLINE_CURVE_WITH_KNOTS((3,3),(0.282855445270628,0.505784474656794),
 .UNSPECIFIED.)
CURVE()
GEOMETRIC_REPRESENTATION_ITEM()
RATIONAL_B_SPLINE_CURVE((1.,1.,1.))
REPRESENTATION_ITEM('')
);
#24=(
BOUNDED_CURVE()
B_SPLINE_CURVE(2,(#1022,#1023,#1024),.UNSPECIFIED.,.F.,.F.)
B_SPLINE_CURVE_WITH_KNOTS((3,3),(0.28285544527062,0.505784474656791),
 .UNSPECIFIED.)
CURVE()
GEOMETRIC_REPRESENTATION_ITEM()
RATIONAL_B_SPLINE_CURVE((1.,1.,1.))
REPRESENTATION_ITEM('')
);
#25=(
BOUNDED_CURVE()
B_SPLINE_CURVE(2,(#1025,#1026,#1027),.UNSPECIFIED.,.F.,.F.)
B_SPLINE_CURVE_WITH_KNOTS((3,3),(0.282855445270624,0.505784474656792),
 .UNSPECIFIED.)
CURVE()
GEOMETRIC_REPRESENTATION_ITEM()
RATIONAL_B_SPLINE_CURVE((1.,1.,1.))
REPRESENTATION_ITEM('')
);
#26=(
BOUNDED_CURVE()
B_SPLINE_CURVE(2,(#1028,#1029,#1030),.UNSPECIFIED.,.F.,.F.)
B_SPLINE_CURVE_WITH_KNOTS((3,3),(0.282855445270629,0.505784474656796),
 .UNSPECIFIED.)
CURVE()
GEOMETRIC_REPRESENTATION_ITEM()
RATIONAL_B_SPLINE_CURVE((1.,1.,1.))
REPRESENTATION_ITEM('')
);
#27=B_SPLINE_CURVE_WITH_KNOTS('',3,(#952,#953,#954,#955,#956,#957),
 .UNSPECIFIED.,.F.,.F.,(4,2,4),(2.69515779955062,2.73994252102844,2.80685586818444),
 .UNSPECIFIED.);
#28=B_SPLINE_CURVE_WITH_KNOTS('',3,(#958,#959,#960,#961,#962,#963),
 .UNSPECIFIED.,.F.,.F.,(4,2,4),(2.80685586818444,2.87376921534044,2.91855393681826),
 .UNSPECIFIED.);
#29=B_SPLINE_CURVE_WITH_KNOTS('',3,(#965,#966,#967,#968,#969,#970),
 .UNSPECIFIED.,.F.,.F.,(4,2,4),(2.69515779955062,2.73994252102844,2.80685586818444),
 .UNSPECIFIED.);
#30=B_SPLINE_CURVE_WITH_KNOTS('',3,(#971,#972,#973,#974,#975,#976),
 .UNSPECIFIED.,.F.,.F.,(4,2,4),(2.80685586818444,2.87376921534044,2.91855393681826),
 .UNSPECIFIED.);
#31=B_SPLINE_CURVE_WITH_KNOTS('',3,(#978,#979,#980,#981,#982,#983),
 .UNSPECIFIED.,.F.,.F.,(4,2,4),(2.69515779955063,2.73994252102844,2.80685586818445),
 .UNSPECIFIED.);
#32=B_SPLINE_CURVE_WITH_KNOTS('',3,(#984,#985,#986,#987,#988,#989),
 .UNSPECIFIED.,.F.,.F.,(4,2,4),(2.80685586818445,2.87376921534045,2.91855393681827),
 .UNSPECIFIED.);
#33=B_SPLINE_CURVE_WITH_KNOTS('',3,(#991,#992,#993,#994,#995,#996),
 .UNSPECIFIED.,.F.,.F.,(4,2,4),(2.69515779955062,2.73994252102845,2.80685586818445),
 .UNSPECIFIED.);
#34=B_SPLINE_CURVE_WITH_KNOTS('',3,(#997,#998,#999,#1000,#1001,#1002),
 .UNSPECIFIED.,.F.,.F.,(4,2,4),(2.80685586818445,2.87376921534045,2.91855393681827),
 .UNSPECIFIED.);
#35=CYLINDRICAL_SURFACE('',#652,14.);
#36=CYLINDRICAL_SURFACE('',#660,12.5);
#37=CYLINDRICAL_SURFACE('',#663,1.6);
#38=CYLINDRICAL_SURFACE('',#665,1.6);
#39=CYLINDRICAL_SURFACE('',#667,1.6);
#40=CYLINDRICAL_SURFACE('',#669,1.60000000000001);
#41=CYLINDRICAL_SURFACE('',#671,1.6);
#42=CYLINDRICAL_SURFACE('',#673,1.60000000000001);
#43=CYLINDRICAL_SURFACE('',#675,1.6);
#44=CYLINDRICAL_SURFACE('',#677,1.6);
#45=FACE_BOUND('',#92,.T.);
#46=FACE_BOUND('',#93,.T.);
#47=FACE_BOUND('',#94,.T.);
#48=FACE_BOUND('',#95,.T.);
#49=FACE_BOUND('',#99,.T.);
#50=FACE_BOUND('',#100,.T.);
#51=FACE_BOUND('',#101,.T.);
#52=FACE_BOUND('',#102,.T.);
#53=FACE_BOUND('',#105,.T.);
#54=FACE_BOUND('',#106,.T.);
#55=FACE_BOUND('',#107,.T.);
#56=FACE_BOUND('',#108,.T.);
#57=FACE_OUTER_BOUND('',#87,.T.);
#58=FACE_OUTER_BOUND('',#88,.T.);
#59=FACE_OUTER_BOUND('',#89,.T.);
#60=FACE_OUTER_BOUND('',#90,.T.);
#61=FACE_OUTER_BOUND('',#91,.T.);
#62=FACE_OUTER_BOUND('',#96,.T.);
#63=FACE_OUTER_BOUND('',#97,.T.);
#64=FACE_OUTER_BOUND('',#98,.T.);
#65=FACE_OUTER_BOUND('',#103,.T.);
#66=FACE_OUTER_BOUND('',#104,.T.);
#67=FACE_OUTER_BOUND('',#109,.T.);
#68=FACE_OUTER_BOUND('',#110,.T.);
#69=FACE_OUTER_BOUND('',#111,.T.);
#70=FACE_OUTER_BOUND('',#112,.T.);
#71=FACE_OUTER_BOUND('',#113,.T.);
#72=FACE_OUTER_BOUND('',#114,.T.);
#73=FACE_OUTER_BOUND('',#115,.T.);
#74=FACE_OUTER_BOUND('',#116,.T.);
#75=FACE_OUTER_BOUND('',#117,.T.);
#76=FACE_OUTER_BOUND('',#118,.T.);
#77=FACE_OUTER_BOUND('',#119,.T.);
#78=FACE_OUTER_BOUND('',#120,.T.);
#79=FACE_OUTER_BOUND('',#121,.T.);
#80=FACE_OUTER_BOUND('',#122,.T.);
#81=FACE_OUTER_BOUND('',#123,.T.);
#82=FACE_OUTER_BOUND('',#124,.T.);
#83=FACE_OUTER_BOUND('',#125,.T.);
#84=FACE_OUTER_BOUND('',#126,.T.);
#85=FACE_OUTER_BOUND('',#127,.T.);
#86=FACE_OUTER_BOUND('',#128,.T.);
#87=EDGE_LOOP('',(#393,#394,#395,#396));
#88=EDGE_LOOP('',(#397,#398,#399,#400));
#89=EDGE_LOOP('',(#401,#402,#403,#404));
#90=EDGE_LOOP('',(#405,#406,#407,#408));
#91=EDGE_LOOP('',(#409,#410,#411,#412));
#92=EDGE_LOOP('',(#413));
#93=EDGE_LOOP('',(#414));
#94=EDGE_LOOP('',(#415));
#95=EDGE_LOOP('',(#416));
#96=EDGE_LOOP('',(#417,#418,#419,#420,#421,#422,#423,#424));
#97=EDGE_LOOP('',(#425,#426,#427,#428,#429,#430,#431,#432));
#98=EDGE_LOOP('',(#433,#434,#435,#436));
#99=EDGE_LOOP('',(#437));
#100=EDGE_LOOP('',(#438));
#101=EDGE_LOOP('',(#439));
#102=EDGE_LOOP('',(#440));
#103=EDGE_LOOP('',(#441,#442,#443,#444,#445,#446,#447,#448,#449,#450,#451,
#452,#453,#454,#455,#456));
#104=EDGE_LOOP('',(#457,#458,#459,#460));
#105=EDGE_LOOP('',(#461));
#106=EDGE_LOOP('',(#462));
#107=EDGE_LOOP('',(#463));
#108=EDGE_LOOP('',(#464));
#109=EDGE_LOOP('',(#465,#466,#467,#468));
#110=EDGE_LOOP('',(#469,#470,#471,#472));
#111=EDGE_LOOP('',(#473,#474,#475,#476,#477,#478,#479,#480,#481,#482,#483,
#484));
#112=EDGE_LOOP('',(#485,#486,#487,#488));
#113=EDGE_LOOP('',(#489,#490,#491,#492));
#114=EDGE_LOOP('',(#493,#494,#495,#496));
#115=EDGE_LOOP('',(#497,#498,#499,#500));
#116=EDGE_LOOP('',(#501,#502,#503,#504));
#117=EDGE_LOOP('',(#505,#506,#507,#508));
#118=EDGE_LOOP('',(#509,#510,#511,#512));
#119=EDGE_LOOP('',(#513,#514,#515,#516));
#120=EDGE_LOOP('',(#517,#518,#519,#520));
#121=EDGE_LOOP('',(#521,#522,#523,#524,#525,#526,#527,#528));
#122=EDGE_LOOP('',(#529,#530,#531,#532,#533,#534,#535,#536));
#123=EDGE_LOOP('',(#537,#538,#539,#540,#541,#542,#543,#544));
#124=EDGE_LOOP('',(#545,#546,#547,#548,#549,#550,#551,#552));
#125=EDGE_LOOP('',(#553,#554,#555,#556));
#126=EDGE_LOOP('',(#557,#558,#559,#560));
#127=EDGE_LOOP('',(#561,#562,#563,#564));
#128=EDGE_LOOP('',(#565,#566,#567,#568));
#129=CIRCLE('',#626,3.10000000000001);
#130=CIRCLE('',#627,3.10000000000001);
#131=CIRCLE('',#629,3.10000000000001);
#132=CIRCLE('',#630,3.10000000000001);
#133=CIRCLE('',#632,3.10000000000001);
#134=CIRCLE('',#633,3.10000000000001);
#135=CIRCLE('',#635,3.10000000000001);
#136=CIRCLE('',#637,1.6);
#137=CIRCLE('',#638,1.6);
#138=CIRCLE('',#639,1.60000000000001);
#139=CIRCLE('',#640,1.6);
#140=CIRCLE('',#642,14.);
#141=CIRCLE('',#643,12.5);
#142=CIRCLE('',#645,12.5);
#143=CIRCLE('',#646,14.);
#144=CIRCLE('',#648,1.60000000000001);
#145=CIRCLE('',#649,1.6);
#146=CIRCLE('',#650,1.6);
#147=CIRCLE('',#651,1.6);
#148=CIRCLE('',#654,3.10000000000006);
#149=CIRCLE('',#655,3.10000000000002);
#150=CIRCLE('',#656,3.10000000000002);
#151=CIRCLE('',#657,3.10000000000006);
#152=CIRCLE('',#659,3.10000000000001);
#153=CIRCLE('',#664,1.6);
#154=CIRCLE('',#666,1.6);
#155=CIRCLE('',#668,1.6);
#156=CIRCLE('',#670,1.60000000000001);
#157=CIRCLE('',#672,1.6);
#158=CIRCLE('',#674,1.60000000000001);
#159=CIRCLE('',#676,1.6);
#160=CIRCLE('',#678,1.6);
#161=LINE('',#861,#205);
#162=LINE('',#865,#206);
#163=LINE('',#870,#207);
#164=LINE('',#874,#208);
#165=LINE('',#879,#209);
#166=LINE('',#883,#210);
#167=LINE('',#888,#211);
#168=LINE('',#892,#212);
#169=LINE('',#893,#213);
#170=LINE('',#897,#214);
#171=LINE('',#899,#215);
#172=LINE('',#901,#216);
#173=LINE('',#902,#217);
#174=LINE('',#914,#218);
#175=LINE('',#916,#219);
#176=LINE('',#918,#220);
#177=LINE('',#922,#221);
#178=LINE('',#923,#222);
#179=LINE('',#927,#223);
#180=LINE('',#929,#224);
#181=LINE('',#932,#225);
#182=LINE('',#934,#226);
#183=LINE('',#937,#227);
#184=LINE('',#938,#228);
#185=LINE('',#948,#229);
#186=LINE('',#950,#230);
#187=LINE('',#1004,#231);
#188=LINE('',#1015,#232);
#189=LINE('',#1034,#233);
#190=LINE('',#1038,#234);
#191=LINE('',#1042,#235);
#192=LINE('',#1046,#236);
#193=LINE('',#1050,#237);
#194=LINE('',#1054,#238);
#195=LINE('',#1058,#239);
#196=LINE('',#1062,#240);
#197=LINE('',#1065,#241);
#198=LINE('',#1067,#242);
#199=LINE('',#1069,#243);
#200=LINE('',#1071,#244);
#201=LINE('',#1073,#245);
#202=LINE('',#1075,#246);
#203=LINE('',#1077,#247);
#204=LINE('',#1079,#248);
#205=VECTOR('',#691,17.9488798901766);
#206=VECTOR('',#694,17.9488798901766);
#207=VECTOR('',#699,17.9488798901766);
#208=VECTOR('',#702,17.9488798901765);
#209=VECTOR('',#707,17.9488798901766);
#210=VECTOR('',#710,17.9488798901765);
#211=VECTOR('',#715,8.97443994508826);
#212=VECTOR('',#718,8.97443994508825);
#213=VECTOR('',#719,5.85088935932632);
#214=VECTOR('',#722,12.1550077565321);
#215=VECTOR('',#723,80.);
#216=VECTOR('',#724,12.1550077565321);
#217=VECTOR('',#725,80.);
#218=VECTOR('',#736,9.36533890048824);
#219=VECTOR('',#737,4.24264068711929);
#220=VECTOR('',#738,5.85088935932633);
#221=VECTOR('',#741,8.64055821537022);
#222=VECTOR('',#742,4.24264068711929);
#223=VECTOR('',#747,4.24264068711927);
#224=VECTOR('',#748,9.36533890048823);
#225=VECTOR('',#751,4.24264068711929);
#226=VECTOR('',#752,8.64055821537022);
#227=VECTOR('',#757,80.);
#228=VECTOR('',#758,80.);
#229=VECTOR('',#769,80.);
#230=VECTOR('',#770,8.97443994508829);
#231=VECTOR('',#773,80.);
#232=VECTOR('',#784,8.97443994508829);
#233=VECTOR('',#795,1.6);
#234=VECTOR('',#800,1.6);
#235=VECTOR('',#805,1.6);
#236=VECTOR('',#810,1.60000000000001);
#237=VECTOR('',#815,1.6);
#238=VECTOR('',#820,1.60000000000001);
#239=VECTOR('',#825,1.6);
#240=VECTOR('',#830,1.6);
#241=VECTOR('',#835,1.6);
#242=VECTOR('',#838,1.6);
#243=VECTOR('',#841,1.6);
#244=VECTOR('',#844,1.60000000000001);
#245=VECTOR('',#847,1.60000000000001);
#246=VECTOR('',#850,1.6);
#247=VECTOR('',#853,1.6);
#248=VECTOR('',#856,1.6);
#249=VERTEX_POINT('',#859);
#250=VERTEX_POINT('',#860);
#251=VERTEX_POINT('',#862);
#252=VERTEX_POINT('',#864);
#253=VERTEX_POINT('',#868);
#254=VERTEX_POINT('',#869);
#255=VERTEX_POINT('',#871);
#256=VERTEX_POINT('',#873);
#257=VERTEX_POINT('',#877);
#258=VERTEX_POINT('',#878);
#259=VERTEX_POINT('',#880);
#260=VERTEX_POINT('',#882);
#261=VERTEX_POINT('',#886);
#262=VERTEX_POINT('',#887);
#263=VERTEX_POINT('',#889);
#264=VERTEX_POINT('',#891);
#265=VERTEX_POINT('',#895);
#266=VERTEX_POINT('',#896);
#267=VERTEX_POINT('',#898);
#268=VERTEX_POINT('',#900);
#269=VERTEX_POINT('',#903);
#270=VERTEX_POINT('',#905);
#271=VERTEX_POINT('',#907);
#272=VERTEX_POINT('',#909);
#273=VERTEX_POINT('',#912);
#274=VERTEX_POINT('',#913);
#275=VERTEX_POINT('',#915);
#276=VERTEX_POINT('',#917);
#277=VERTEX_POINT('',#919);
#278=VERTEX_POINT('',#921);
#279=VERTEX_POINT('',#926);
#280=VERTEX_POINT('',#928);
#281=VERTEX_POINT('',#931);
#282=VERTEX_POINT('',#933);
#283=VERTEX_POINT('',#939);
#284=VERTEX_POINT('',#941);
#285=VERTEX_POINT('',#943);
#286=VERTEX_POINT('',#945);
#287=VERTEX_POINT('',#949);
#288=VERTEX_POINT('',#951);
#289=VERTEX_POINT('',#964);
#290=VERTEX_POINT('',#977);
#291=VERTEX_POINT('',#990);
#292=VERTEX_POINT('',#1005);
#293=VERTEX_POINT('',#1007);
#294=VERTEX_POINT('',#1009);
#295=VERTEX_POINT('',#1011);
#296=VERTEX_POINT('',#1014);
#297=VERTEX_POINT('',#1033);
#298=VERTEX_POINT('',#1037);
#299=VERTEX_POINT('',#1041);
#300=VERTEX_POINT('',#1045);
#301=VERTEX_POINT('',#1049);
#302=VERTEX_POINT('',#1053);
#303=VERTEX_POINT('',#1057);
#304=VERTEX_POINT('',#1061);
#305=EDGE_CURVE('',#249,#250,#161,.T.);
#306=EDGE_CURVE('',#250,#251,#129,.T.);
#307=EDGE_CURVE('',#251,#252,#162,.T.);
#308=EDGE_CURVE('',#252,#249,#130,.T.);
#309=EDGE_CURVE('',#253,#254,#163,.T.);
#310=EDGE_CURVE('',#254,#255,#131,.T.);
#311=EDGE_CURVE('',#255,#256,#164,.T.);
#312=EDGE_CURVE('',#256,#253,#132,.T.);
#313=EDGE_CURVE('',#257,#258,#165,.T.);
#314=EDGE_CURVE('',#258,#259,#133,.T.);
#315=EDGE_CURVE('',#259,#260,#166,.T.);
#316=EDGE_CURVE('',#260,#257,#134,.T.);
#317=EDGE_CURVE('',#261,#262,#167,.T.);
#318=EDGE_CURVE('',#262,#263,#135,.T.);
#319=EDGE_CURVE('',#263,#264,#168,.T.);
#320=EDGE_CURVE('',#264,#261,#169,.T.);
#321=EDGE_CURVE('',#265,#266,#170,.T.);
#322=EDGE_CURVE('',#266,#267,#171,.T.);
#323=EDGE_CURVE('',#267,#268,#172,.T.);
#324=EDGE_CURVE('',#268,#265,#173,.T.);
#325=EDGE_CURVE('',#269,#269,#136,.F.);
#326=EDGE_CURVE('',#270,#270,#137,.F.);
#327=EDGE_CURVE('',#271,#271,#138,.F.);
#328=EDGE_CURVE('',#272,#272,#139,.F.);
#329=EDGE_CURVE('',#273,#274,#174,.T.);
#330=EDGE_CURVE('',#273,#275,#175,.F.);
#331=EDGE_CURVE('',#276,#275,#176,.T.);
#332=EDGE_CURVE('',#277,#276,#140,.T.);
#333=EDGE_CURVE('',#278,#277,#177,.T.);
#334=EDGE_CURVE('',#278,#268,#178,.F.);
#335=EDGE_CURVE('',#274,#267,#141,.T.);
#336=EDGE_CURVE('',#264,#279,#179,.F.);
#337=EDGE_CURVE('',#280,#279,#180,.T.);
#338=EDGE_CURVE('',#266,#280,#142,.F.);
#339=EDGE_CURVE('',#265,#281,#181,.F.);
#340=EDGE_CURVE('',#282,#281,#182,.T.);
#341=EDGE_CURVE('',#261,#282,#143,.T.);
#342=EDGE_CURVE('',#280,#274,#183,.T.);
#343=EDGE_CURVE('',#273,#279,#184,.T.);
#344=EDGE_CURVE('',#283,#283,#144,.F.);
#345=EDGE_CURVE('',#284,#284,#145,.F.);
#346=EDGE_CURVE('',#285,#285,#146,.F.);
#347=EDGE_CURVE('',#286,#286,#147,.F.);
#348=EDGE_CURVE('',#282,#277,#185,.T.);
#349=EDGE_CURVE('',#287,#276,#186,.T.);
#350=EDGE_CURVE('',#287,#288,#27,.T.);
#351=EDGE_CURVE('',#288,#250,#28,.T.);
#352=EDGE_CURVE('',#249,#289,#29,.T.);
#353=EDGE_CURVE('',#289,#254,#30,.T.);
#354=EDGE_CURVE('',#253,#290,#31,.T.);
#355=EDGE_CURVE('',#290,#258,#32,.T.);
#356=EDGE_CURVE('',#257,#291,#33,.T.);
#357=EDGE_CURVE('',#291,#262,#34,.T.);
#358=EDGE_CURVE('',#281,#278,#187,.T.);
#359=EDGE_CURVE('',#292,#292,#148,.T.);
#360=EDGE_CURVE('',#293,#293,#149,.T.);
#361=EDGE_CURVE('',#294,#294,#150,.T.);
#362=EDGE_CURVE('',#295,#295,#151,.T.);
#363=EDGE_CURVE('',#275,#296,#188,.T.);
#364=EDGE_CURVE('',#296,#287,#152,.T.);
#365=EDGE_CURVE('',#251,#296,#23,.T.);
#366=EDGE_CURVE('',#263,#260,#24,.T.);
#367=EDGE_CURVE('',#259,#256,#25,.T.);
#368=EDGE_CURVE('',#255,#252,#26,.T.);
#369=EDGE_CURVE('',#286,#297,#189,.T.);
#370=EDGE_CURVE('',#297,#297,#153,.F.);
#371=EDGE_CURVE('',#285,#298,#190,.T.);
#372=EDGE_CURVE('',#298,#298,#154,.F.);
#373=EDGE_CURVE('',#284,#299,#191,.T.);
#374=EDGE_CURVE('',#299,#299,#155,.F.);
#375=EDGE_CURVE('',#283,#300,#192,.T.);
#376=EDGE_CURVE('',#300,#300,#156,.F.);
#377=EDGE_CURVE('',#272,#301,#193,.T.);
#378=EDGE_CURVE('',#301,#301,#157,.F.);
#379=EDGE_CURVE('',#271,#302,#194,.T.);
#380=EDGE_CURVE('',#302,#302,#158,.F.);
#381=EDGE_CURVE('',#270,#303,#195,.T.);
#382=EDGE_CURVE('',#303,#303,#159,.F.);
#383=EDGE_CURVE('',#269,#304,#196,.T.);
#384=EDGE_CURVE('',#304,#304,#160,.F.);
#385=EDGE_CURVE('',#297,#288,#197,.T.);
#386=EDGE_CURVE('',#298,#289,#198,.T.);
#387=EDGE_CURVE('',#299,#290,#199,.T.);
#388=EDGE_CURVE('',#300,#291,#200,.T.);
#389=EDGE_CURVE('',#302,#292,#201,.T.);
#390=EDGE_CURVE('',#303,#293,#202,.T.);
#391=EDGE_CURVE('',#304,#294,#203,.T.);
#392=EDGE_CURVE('',#301,#295,#204,.T.);
#393=ORIENTED_EDGE('',*,*,#305,.T.);
#394=ORIENTED_EDGE('',*,*,#306,.T.);
#395=ORIENTED_EDGE('',*,*,#307,.T.);
#396=ORIENTED_EDGE('',*,*,#308,.T.);
#397=ORIENTED_EDGE('',*,*,#309,.T.);
#398=ORIENTED_EDGE('',*,*,#310,.T.);
#399=ORIENTED_EDGE('',*,*,#311,.T.);
#400=ORIENTED_EDGE('',*,*,#312,.T.);
#401=ORIENTED_EDGE('',*,*,#313,.T.);
#402=ORIENTED_EDGE('',*,*,#314,.T.);
#403=ORIENTED_EDGE('',*,*,#315,.T.);
#404=ORIENTED_EDGE('',*,*,#316,.T.);
#405=ORIENTED_EDGE('',*,*,#317,.T.);
#406=ORIENTED_EDGE('',*,*,#318,.T.);
#407=ORIENTED_EDGE('',*,*,#319,.T.);
#408=ORIENTED_EDGE('',*,*,#320,.T.);
#409=ORIENTED_EDGE('',*,*,#321,.T.);
#410=ORIENTED_EDGE('',*,*,#322,.T.);
#411=ORIENTED_EDGE('',*,*,#323,.T.);
#412=ORIENTED_EDGE('',*,*,#324,.T.);
#413=ORIENTED_EDGE('',*,*,#325,.F.);
#414=ORIENTED_EDGE('',*,*,#326,.F.);
#415=ORIENTED_EDGE('',*,*,#327,.F.);
#416=ORIENTED_EDGE('',*,*,#328,.F.);
#417=ORIENTED_EDGE('',*,*,#329,.F.);
#418=ORIENTED_EDGE('',*,*,#330,.T.);
#419=ORIENTED_EDGE('',*,*,#331,.F.);
#420=ORIENTED_EDGE('',*,*,#332,.F.);
#421=ORIENTED_EDGE('',*,*,#333,.F.);
#422=ORIENTED_EDGE('',*,*,#334,.T.);
#423=ORIENTED_EDGE('',*,*,#323,.F.);
#424=ORIENTED_EDGE('',*,*,#335,.F.);
#425=ORIENTED_EDGE('',*,*,#320,.F.);
#426=ORIENTED_EDGE('',*,*,#336,.T.);
#427=ORIENTED_EDGE('',*,*,#337,.F.);
#428=ORIENTED_EDGE('',*,*,#338,.F.);
#429=ORIENTED_EDGE('',*,*,#321,.F.);
#430=ORIENTED_EDGE('',*,*,#339,.T.);
#431=ORIENTED_EDGE('',*,*,#340,.F.);
#432=ORIENTED_EDGE('',*,*,#341,.F.);
#433=ORIENTED_EDGE('',*,*,#329,.T.);
#434=ORIENTED_EDGE('',*,*,#342,.F.);
#435=ORIENTED_EDGE('',*,*,#337,.T.);
#436=ORIENTED_EDGE('',*,*,#343,.F.);
#437=ORIENTED_EDGE('',*,*,#344,.F.);
#438=ORIENTED_EDGE('',*,*,#345,.F.);
#439=ORIENTED_EDGE('',*,*,#346,.F.);
#440=ORIENTED_EDGE('',*,*,#347,.F.);
#441=ORIENTED_EDGE('',*,*,#341,.T.);
#442=ORIENTED_EDGE('',*,*,#348,.T.);
#443=ORIENTED_EDGE('',*,*,#332,.T.);
#444=ORIENTED_EDGE('',*,*,#349,.F.);
#445=ORIENTED_EDGE('',*,*,#350,.T.);
#446=ORIENTED_EDGE('',*,*,#351,.T.);
#447=ORIENTED_EDGE('',*,*,#305,.F.);
#448=ORIENTED_EDGE('',*,*,#352,.T.);
#449=ORIENTED_EDGE('',*,*,#353,.T.);
#450=ORIENTED_EDGE('',*,*,#309,.F.);
#451=ORIENTED_EDGE('',*,*,#354,.T.);
#452=ORIENTED_EDGE('',*,*,#355,.T.);
#453=ORIENTED_EDGE('',*,*,#313,.F.);
#454=ORIENTED_EDGE('',*,*,#356,.T.);
#455=ORIENTED_EDGE('',*,*,#357,.T.);
#456=ORIENTED_EDGE('',*,*,#317,.F.);
#457=ORIENTED_EDGE('',*,*,#340,.T.);
#458=ORIENTED_EDGE('',*,*,#358,.T.);
#459=ORIENTED_EDGE('',*,*,#333,.T.);
#460=ORIENTED_EDGE('',*,*,#348,.F.);
#461=ORIENTED_EDGE('',*,*,#359,.T.);
#462=ORIENTED_EDGE('',*,*,#360,.T.);
#463=ORIENTED_EDGE('',*,*,#361,.T.);
#464=ORIENTED_EDGE('',*,*,#362,.T.);
#465=ORIENTED_EDGE('',*,*,#363,.T.);
#466=ORIENTED_EDGE('',*,*,#364,.T.);
#467=ORIENTED_EDGE('',*,*,#349,.T.);
#468=ORIENTED_EDGE('',*,*,#331,.T.);
#469=ORIENTED_EDGE('',*,*,#338,.T.);
#470=ORIENTED_EDGE('',*,*,#342,.T.);
#471=ORIENTED_EDGE('',*,*,#335,.T.);
#472=ORIENTED_EDGE('',*,*,#322,.F.);
#473=ORIENTED_EDGE('',*,*,#307,.F.);
#474=ORIENTED_EDGE('',*,*,#365,.T.);
#475=ORIENTED_EDGE('',*,*,#363,.F.);
#476=ORIENTED_EDGE('',*,*,#330,.F.);
#477=ORIENTED_EDGE('',*,*,#343,.T.);
#478=ORIENTED_EDGE('',*,*,#336,.F.);
#479=ORIENTED_EDGE('',*,*,#319,.F.);
#480=ORIENTED_EDGE('',*,*,#366,.T.);
#481=ORIENTED_EDGE('',*,*,#315,.F.);
#482=ORIENTED_EDGE('',*,*,#367,.T.);
#483=ORIENTED_EDGE('',*,*,#311,.F.);
#484=ORIENTED_EDGE('',*,*,#368,.T.);
#485=ORIENTED_EDGE('',*,*,#339,.F.);
#486=ORIENTED_EDGE('',*,*,#324,.F.);
#487=ORIENTED_EDGE('',*,*,#334,.F.);
#488=ORIENTED_EDGE('',*,*,#358,.F.);
#489=ORIENTED_EDGE('',*,*,#347,.T.);
#490=ORIENTED_EDGE('',*,*,#369,.T.);
#491=ORIENTED_EDGE('',*,*,#370,.T.);
#492=ORIENTED_EDGE('',*,*,#369,.F.);
#493=ORIENTED_EDGE('',*,*,#346,.T.);
#494=ORIENTED_EDGE('',*,*,#371,.T.);
#495=ORIENTED_EDGE('',*,*,#372,.T.);
#496=ORIENTED_EDGE('',*,*,#371,.F.);
#497=ORIENTED_EDGE('',*,*,#345,.T.);
#498=ORIENTED_EDGE('',*,*,#373,.T.);
#499=ORIENTED_EDGE('',*,*,#374,.T.);
#500=ORIENTED_EDGE('',*,*,#373,.F.);
#501=ORIENTED_EDGE('',*,*,#344,.T.);
#502=ORIENTED_EDGE('',*,*,#375,.T.);
#503=ORIENTED_EDGE('',*,*,#376,.T.);
#504=ORIENTED_EDGE('',*,*,#375,.F.);
#505=ORIENTED_EDGE('',*,*,#328,.T.);
#506=ORIENTED_EDGE('',*,*,#377,.T.);
#507=ORIENTED_EDGE('',*,*,#378,.T.);
#508=ORIENTED_EDGE('',*,*,#377,.F.);
#509=ORIENTED_EDGE('',*,*,#327,.T.);
#510=ORIENTED_EDGE('',*,*,#379,.T.);
#511=ORIENTED_EDGE('',*,*,#380,.T.);
#512=ORIENTED_EDGE('',*,*,#379,.F.);
#513=ORIENTED_EDGE('',*,*,#326,.T.);
#514=ORIENTED_EDGE('',*,*,#381,.T.);
#515=ORIENTED_EDGE('',*,*,#382,.T.);
#516=ORIENTED_EDGE('',*,*,#381,.F.);
#517=ORIENTED_EDGE('',*,*,#325,.T.);
#518=ORIENTED_EDGE('',*,*,#383,.T.);
#519=ORIENTED_EDGE('',*,*,#384,.T.);
#520=ORIENTED_EDGE('',*,*,#383,.F.);
#521=ORIENTED_EDGE('',*,*,#370,.F.);
#522=ORIENTED_EDGE('',*,*,#385,.T.);
#523=ORIENTED_EDGE('',*,*,#350,.F.);
#524=ORIENTED_EDGE('',*,*,#364,.F.);
#525=ORIENTED_EDGE('',*,*,#365,.F.);
#526=ORIENTED_EDGE('',*,*,#306,.F.);
#527=ORIENTED_EDGE('',*,*,#351,.F.);
#528=ORIENTED_EDGE('',*,*,#385,.F.);
#529=ORIENTED_EDGE('',*,*,#372,.F.);
#530=ORIENTED_EDGE('',*,*,#386,.T.);
#531=ORIENTED_EDGE('',*,*,#352,.F.);
#532=ORIENTED_EDGE('',*,*,#308,.F.);
#533=ORIENTED_EDGE('',*,*,#368,.F.);
#534=ORIENTED_EDGE('',*,*,#310,.F.);
#535=ORIENTED_EDGE('',*,*,#353,.F.);
#536=ORIENTED_EDGE('',*,*,#386,.F.);
#537=ORIENTED_EDGE('',*,*,#374,.F.);
#538=ORIENTED_EDGE('',*,*,#387,.T.);
#539=ORIENTED_EDGE('',*,*,#354,.F.);
#540=ORIENTED_EDGE('',*,*,#312,.F.);
#541=ORIENTED_EDGE('',*,*,#367,.F.);
#542=ORIENTED_EDGE('',*,*,#314,.F.);
#543=ORIENTED_EDGE('',*,*,#355,.F.);
#544=ORIENTED_EDGE('',*,*,#387,.F.);
#545=ORIENTED_EDGE('',*,*,#376,.F.);
#546=ORIENTED_EDGE('',*,*,#388,.T.);
#547=ORIENTED_EDGE('',*,*,#356,.F.);
#548=ORIENTED_EDGE('',*,*,#316,.F.);
#549=ORIENTED_EDGE('',*,*,#366,.F.);
#550=ORIENTED_EDGE('',*,*,#318,.F.);
#551=ORIENTED_EDGE('',*,*,#357,.F.);
#552=ORIENTED_EDGE('',*,*,#388,.F.);
#553=ORIENTED_EDGE('',*,*,#380,.F.);
#554=ORIENTED_EDGE('',*,*,#389,.T.);
#555=ORIENTED_EDGE('',*,*,#359,.F.);
#556=ORIENTED_EDGE('',*,*,#389,.F.);
#557=ORIENTED_EDGE('',*,*,#382,.F.);
#558=ORIENTED_EDGE('',*,*,#390,.T.);
#559=ORIENTED_EDGE('',*,*,#360,.F.);
#560=ORIENTED_EDGE('',*,*,#390,.F.);
#561=ORIENTED_EDGE('',*,*,#384,.F.);
#562=ORIENTED_EDGE('',*,*,#391,.T.);
#563=ORIENTED_EDGE('',*,*,#361,.F.);
#564=ORIENTED_EDGE('',*,*,#391,.F.);
#565=ORIENTED_EDGE('',*,*,#378,.F.);
#566=ORIENTED_EDGE('',*,*,#392,.T.);
#567=ORIENTED_EDGE('',*,*,#362,.F.);
#568=ORIENTED_EDGE('',*,*,#392,.F.);
#569=PLANE('',#625);
#570=PLANE('',#628);
#571=PLANE('',#631);
#572=PLANE('',#634);
#573=PLANE('',#636);
#574=PLANE('',#641);
#575=PLANE('',#644);
#576=PLANE('',#647);
#577=PLANE('',#653);
#578=PLANE('',#658);
#579=PLANE('',#661);
#580=PLANE('',#662);
#581=ADVANCED_FACE('',(#57),#569,.F.);
#582=ADVANCED_FACE('',(#58),#570,.F.);
#583=ADVANCED_FACE('',(#59),#571,.F.);
#584=ADVANCED_FACE('',(#60),#572,.F.);
#585=ADVANCED_FACE('',(#61,#45,#46,#47,#48),#573,.F.);
#586=ADVANCED_FACE('',(#62),#574,.F.);
#587=ADVANCED_FACE('',(#63),#575,.F.);
#588=ADVANCED_FACE('',(#64,#49,#50,#51,#52),#576,.F.);
#589=ADVANCED_FACE('',(#65),#35,.T.);
#590=ADVANCED_FACE('',(#66,#53,#54,#55,#56),#577,.F.);
#591=ADVANCED_FACE('',(#67),#578,.F.);
#592=ADVANCED_FACE('',(#68),#36,.F.);
#593=ADVANCED_FACE('',(#69),#579,.F.);
#594=ADVANCED_FACE('',(#70),#580,.F.);
#595=ADVANCED_FACE('',(#71),#37,.F.);
#596=ADVANCED_FACE('',(#72),#38,.F.);
#597=ADVANCED_FACE('',(#73),#39,.F.);
#598=ADVANCED_FACE('',(#74),#40,.F.);
#599=ADVANCED_FACE('',(#75),#41,.F.);
#600=ADVANCED_FACE('',(#76),#42,.F.);
#601=ADVANCED_FACE('',(#77),#43,.F.);
#602=ADVANCED_FACE('',(#78),#44,.F.);
#603=ADVANCED_FACE('',(#79),#15,.F.);
#604=ADVANCED_FACE('',(#80),#16,.F.);
#605=ADVANCED_FACE('',(#81),#17,.F.);
#606=ADVANCED_FACE('',(#82),#18,.F.);
#607=ADVANCED_FACE('',(#83),#19,.F.);
#608=ADVANCED_FACE('',(#84),#20,.F.);
#609=ADVANCED_FACE('',(#85),#21,.F.);
#610=ADVANCED_FACE('',(#86),#22,.F.);
#611=CLOSED_SHELL('',(#581,#582,#583,#584,#585,#586,#587,#588,#589,#590,
#591,#592,#593,#594,#595,#596,#597,#598,#599,#600,#601,#602,#603,#604,#605,
#606,#607,#608,#609,#610));
#612=DERIVED_UNIT_ELEMENT(#614,1.);
#613=DERIVED_UNIT_ELEMENT(#1085,-3.);
#614=(
MASS_UNIT()
NAMED_UNIT(*)
SI_UNIT(.KILO.,.GRAM.)
);
#615=DERIVED_UNIT((#612,#613));
#616=MEASURE_REPRESENTATION_ITEM('density measure',
POSITIVE_RATIO_MEASURE(7850.),#615);
#617=PROPERTY_DEFINITION_REPRESENTATION(#622,#619);
#618=PROPERTY_DEFINITION_REPRESENTATION(#623,#620);
#619=REPRESENTATION('material name',(#621),#1082);
#620=REPRESENTATION('density',(#616),#1082);
#621=DESCRIPTIVE_REPRESENTATION_ITEM('Steel','Steel');
#622=PROPERTY_DEFINITION('material property','material name',#1092);
#623=PROPERTY_DEFINITION('material property','density of part',#1092);
#624=AXIS2_PLACEMENT_3D('',#857,#687,#688);
#625=AXIS2_PLACEMENT_3D('',#858,#689,#690);
#626=AXIS2_PLACEMENT_3D('',#863,#692,#693);
#627=AXIS2_PLACEMENT_3D('',#866,#695,#696);
#628=AXIS2_PLACEMENT_3D('',#867,#697,#698);
#629=AXIS2_PLACEMENT_3D('',#872,#700,#701);
#630=AXIS2_PLACEMENT_3D('',#875,#703,#704);
#631=AXIS2_PLACEMENT_3D('',#876,#705,#706);
#632=AXIS2_PLACEMENT_3D('',#881,#708,#709);
#633=AXIS2_PLACEMENT_3D('',#884,#711,#712);
#634=AXIS2_PLACEMENT_3D('',#885,#713,#714);
#635=AXIS2_PLACEMENT_3D('',#890,#716,#717);
#636=AXIS2_PLACEMENT_3D('',#894,#720,#721);
#637=AXIS2_PLACEMENT_3D('',#904,#726,#727);
#638=AXIS2_PLACEMENT_3D('',#906,#728,#729);
#639=AXIS2_PLACEMENT_3D('',#908,#730,#731);
#640=AXIS2_PLACEMENT_3D('',#910,#732,#733);
#641=AXIS2_PLACEMENT_3D('',#911,#734,#735);
#642=AXIS2_PLACEMENT_3D('',#920,#739,#740);
#643=AXIS2_PLACEMENT_3D('',#924,#743,#744);
#644=AXIS2_PLACEMENT_3D('',#925,#745,#746);
#645=AXIS2_PLACEMENT_3D('',#930,#749,#750);
#646=AXIS2_PLACEMENT_3D('',#935,#753,#754);
#647=AXIS2_PLACEMENT_3D('',#936,#755,#756);
#648=AXIS2_PLACEMENT_3D('',#940,#759,#760);
#649=AXIS2_PLACEMENT_3D('',#942,#761,#762);
#650=AXIS2_PLACEMENT_3D('',#944,#763,#764);
#651=AXIS2_PLACEMENT_3D('',#946,#765,#766);
#652=AXIS2_PLACEMENT_3D('',#947,#767,#768);
#653=AXIS2_PLACEMENT_3D('',#1003,#771,#772);
#654=AXIS2_PLACEMENT_3D('',#1006,#774,#775);
#655=AXIS2_PLACEMENT_3D('',#1008,#776,#777);
#656=AXIS2_PLACEMENT_3D('',#1010,#778,#779);
#657=AXIS2_PLACEMENT_3D('',#1012,#780,#781);
#658=AXIS2_PLACEMENT_3D('',#1013,#782,#783);
#659=AXIS2_PLACEMENT_3D('',#1016,#785,#786);
#660=AXIS2_PLACEMENT_3D('',#1017,#787,#788);
#661=AXIS2_PLACEMENT_3D('',#1018,#789,#790);
#662=AXIS2_PLACEMENT_3D('',#1031,#791,#792);
#663=AXIS2_PLACEMENT_3D('',#1032,#793,#794);
#664=AXIS2_PLACEMENT_3D('',#1035,#796,#797);
#665=AXIS2_PLACEMENT_3D('',#1036,#798,#799);
#666=AXIS2_PLACEMENT_3D('',#1039,#801,#802);
#667=AXIS2_PLACEMENT_3D('',#1040,#803,#804);
#668=AXIS2_PLACEMENT_3D('',#1043,#806,#807);
#669=AXIS2_PLACEMENT_3D('',#1044,#808,#809);
#670=AXIS2_PLACEMENT_3D('',#1047,#811,#812);
#671=AXIS2_PLACEMENT_3D('',#1048,#813,#814);
#672=AXIS2_PLACEMENT_3D('',#1051,#816,#817);
#673=AXIS2_PLACEMENT_3D('',#1052,#818,#819);
#674=AXIS2_PLACEMENT_3D('',#1055,#821,#822);
#675=AXIS2_PLACEMENT_3D('',#1056,#823,#824);
#676=AXIS2_PLACEMENT_3D('',#1059,#826,#827);
#677=AXIS2_PLACEMENT_3D('',#1060,#828,#829);
#678=AXIS2_PLACEMENT_3D('',#1063,#831,#832);
#679=AXIS2_PLACEMENT_3D('',#1064,#833,#834);
#680=AXIS2_PLACEMENT_3D('',#1066,#836,#837);
#681=AXIS2_PLACEMENT_3D('',#1068,#839,#840);
#682=AXIS2_PLACEMENT_3D('',#1070,#842,#843);
#683=AXIS2_PLACEMENT_3D('',#1072,#845,#846);
#684=AXIS2_PLACEMENT_3D('',#1074,#848,#849);
#685=AXIS2_PLACEMENT_3D('',#1076,#851,#852);
#686=AXIS2_PLACEMENT_3D('',#1078,#854,#855);
#687=DIRECTION('axis',(0.,0.,1.));
#688=DIRECTION('refdir',(1.,0.,0.));
#689=DIRECTION('center_axis',(0.,1.,0.));
#690=DIRECTION('ref_axis',(0.,0.,1.));
#691=DIRECTION('',(-1.,0.,0.));
#692=DIRECTION('center_axis',(0.,1.,0.));
#693=DIRECTION('ref_axis',(0.,0.,1.));
#694=DIRECTION('',(1.,0.,4.94837797753734E-16));
#695=DIRECTION('center_axis',(0.,1.,0.));
#696=DIRECTION('ref_axis',(0.,0.,1.));
#697=DIRECTION('center_axis',(0.,1.,0.));
#698=DIRECTION('ref_axis',(0.,0.,1.));
#699=DIRECTION('',(-1.,0.,0.));
#700=DIRECTION('center_axis',(0.,1.,0.));
#701=DIRECTION('ref_axis',(0.,0.,1.));
#702=DIRECTION('',(1.,0.,0.));
#703=DIRECTION('center_axis',(0.,1.,0.));
#704=DIRECTION('ref_axis',(0.,0.,1.));
#705=DIRECTION('center_axis',(0.,1.,0.));
#706=DIRECTION('ref_axis',(0.,0.,1.));
#707=DIRECTION('',(-1.,0.,0.));
#708=DIRECTION('center_axis',(0.,1.,0.));
#709=DIRECTION('ref_axis',(0.,0.,1.));
#710=DIRECTION('',(1.,0.,0.));
#711=DIRECTION('center_axis',(0.,1.,0.));
#712=DIRECTION('ref_axis',(0.,0.,1.));
#713=DIRECTION('center_axis',(0.,1.,0.));
#714=DIRECTION('ref_axis',(0.,0.,1.));
#715=DIRECTION('',(-1.,0.,0.));
#716=DIRECTION('center_axis',(0.,1.,0.));
#717=DIRECTION('ref_axis',(0.,0.,1.));
#718=DIRECTION('',(1.,0.,0.));
#719=DIRECTION('',(0.,0.,1.));
#720=DIRECTION('center_axis',(0.,-1.,0.));
#721=DIRECTION('ref_axis',(0.,0.,-1.));
#722=DIRECTION('',(0.,0.,-1.));
#723=DIRECTION('',(-1.,0.,0.));
#724=DIRECTION('',(0.,0.,1.));
#725=DIRECTION('',(1.,0.,0.));
#726=DIRECTION('center_axis',(0.,-1.,0.));
#727=DIRECTION('ref_axis',(0.,0.,-1.));
#728=DIRECTION('center_axis',(0.,-1.,0.));
#729=DIRECTION('ref_axis',(0.,0.,-1.));
#730=DIRECTION('center_axis',(0.,-1.,0.));
#731=DIRECTION('ref_axis',(0.,0.,-1.));
#732=DIRECTION('center_axis',(0.,-1.,0.));
#733=DIRECTION('ref_axis',(0.,0.,-1.));
#734=DIRECTION('center_axis',(1.,0.,0.));
#735=DIRECTION('ref_axis',(0.,0.,-1.));
#736=DIRECTION('',(0.,0.,1.));
#737=DIRECTION('',(0.,0.707106781186546,-0.707106781186549));
#738=DIRECTION('',(0.,0.,-1.));
#739=DIRECTION('center_axis',(1.,0.,0.));
#740=DIRECTION('ref_axis',(0.,0.,1.));
#741=DIRECTION('',(0.,0.,-1.));
#742=DIRECTION('',(0.,-0.707106781186548,-0.707106781186547));
#743=DIRECTION('center_axis',(-1.,0.,0.));
#744=DIRECTION('ref_axis',(0.,0.,1.));
#745=DIRECTION('center_axis',(-1.,0.,0.));
#746=DIRECTION('ref_axis',(0.,0.,1.));
#747=DIRECTION('',(0.,-0.707106781186547,0.707106781186548));
#748=DIRECTION('',(0.,0.,-1.));
#749=DIRECTION('center_axis',(-1.,0.,0.));
#750=DIRECTION('ref_axis',(0.,0.,1.));
#751=DIRECTION('',(0.,0.707106781186548,0.707106781186547));
#752=DIRECTION('',(0.,0.,1.));
#753=DIRECTION('center_axis',(-1.,0.,0.));
#754=DIRECTION('ref_axis',(0.,0.,1.));
#755=DIRECTION('center_axis',(0.,-1.,0.));
#756=DIRECTION('ref_axis',(0.,0.,-1.));
#757=DIRECTION('',(-1.,0.,0.));
#758=DIRECTION('',(1.,0.,1.11022302462516E-16));
#759=DIRECTION('center_axis',(0.,-1.,0.));
#760=DIRECTION('ref_axis',(0.,0.,-1.));
#761=DIRECTION('center_axis',(0.,-1.,0.));
#762=DIRECTION('ref_axis',(0.,0.,-1.));
#763=DIRECTION('center_axis',(0.,-1.,0.));
#764=DIRECTION('ref_axis',(0.,0.,-1.));
#765=DIRECTION('center_axis',(0.,-1.,0.));
#766=DIRECTION('ref_axis',(0.,0.,-1.));
#767=DIRECTION('center_axis',(-1.,0.,0.));
#768=DIRECTION('ref_axis',(0.,0.,1.));
#769=DIRECTION('',(-1.,0.,0.));
#770=DIRECTION('',(-1.,0.,0.));
#771=DIRECTION('center_axis',(0.,1.,0.));
#772=DIRECTION('ref_axis',(0.,0.,1.));
#773=DIRECTION('',(-1.,0.,0.));
#774=DIRECTION('center_axis',(0.,1.,0.));
#775=DIRECTION('ref_axis',(0.,0.,1.));
#776=DIRECTION('center_axis',(0.,1.,0.));
#777=DIRECTION('ref_axis',(0.,0.,1.));
#778=DIRECTION('center_axis',(0.,1.,0.));
#779=DIRECTION('ref_axis',(0.,0.,1.));
#780=DIRECTION('center_axis',(0.,1.,0.));
#781=DIRECTION('ref_axis',(0.,0.,1.));
#782=DIRECTION('center_axis',(0.,1.,0.));
#783=DIRECTION('ref_axis',(0.,0.,1.));
#784=DIRECTION('',(1.,0.,0.));
#785=DIRECTION('center_axis',(0.,1.,0.));
#786=DIRECTION('ref_axis',(0.,0.,1.));
#787=DIRECTION('center_axis',(-1.,0.,0.));
#788=DIRECTION('ref_axis',(0.,0.,1.));
#789=DIRECTION('center_axis',(-6.13317366673349E-17,0.707106781186548,0.707106781186547));
#790=DIRECTION('ref_axis',(1.,0.,8.67361737988404E-17));
#791=DIRECTION('center_axis',(0.,0.707106781186548,-0.707106781186548));
#792=DIRECTION('ref_axis',(-1.,0.,0.));
#793=DIRECTION('center_axis',(0.,-1.,0.));
#794=DIRECTION('ref_axis',(0.,0.,-1.));
#795=DIRECTION('',(0.,-1.,0.));
#796=DIRECTION('center_axis',(0.,1.,0.));
#797=DIRECTION('ref_axis',(0.,0.,1.));
#798=DIRECTION('center_axis',(0.,-1.,0.));
#799=DIRECTION('ref_axis',(0.,0.,-1.));
#800=DIRECTION('',(0.,-1.,0.));
#801=DIRECTION('center_axis',(0.,1.,0.));
#802=DIRECTION('ref_axis',(0.,0.,1.));
#803=DIRECTION('center_axis',(0.,-1.,0.));
#804=DIRECTION('ref_axis',(0.,0.,-1.));
#805=DIRECTION('',(0.,-1.,0.));
#806=DIRECTION('center_axis',(0.,1.,0.));
#807=DIRECTION('ref_axis',(0.,0.,1.));
#808=DIRECTION('center_axis',(0.,-1.,0.));
#809=DIRECTION('ref_axis',(0.,0.,-1.));
#810=DIRECTION('',(0.,-1.,0.));
#811=DIRECTION('center_axis',(0.,1.,0.));
#812=DIRECTION('ref_axis',(0.,0.,1.));
#813=DIRECTION('center_axis',(0.,-1.,0.));
#814=DIRECTION('ref_axis',(0.,0.,-1.));
#815=DIRECTION('',(0.,-1.,0.));
#816=DIRECTION('center_axis',(0.,1.,0.));
#817=DIRECTION('ref_axis',(0.,0.,1.));
#818=DIRECTION('center_axis',(0.,-1.,0.));
#819=DIRECTION('ref_axis',(0.,0.,-1.));
#820=DIRECTION('',(0.,-1.,0.));
#821=DIRECTION('center_axis',(0.,1.,0.));
#822=DIRECTION('ref_axis',(0.,0.,1.));
#823=DIRECTION('center_axis',(0.,-1.,0.));
#824=DIRECTION('ref_axis',(0.,0.,-1.));
#825=DIRECTION('',(0.,-1.,0.));
#826=DIRECTION('center_axis',(0.,1.,0.));
#827=DIRECTION('ref_axis',(0.,0.,1.));
#828=DIRECTION('center_axis',(0.,-1.,0.));
#829=DIRECTION('ref_axis',(0.,0.,-1.));
#830=DIRECTION('',(0.,-1.,0.));
#831=DIRECTION('center_axis',(0.,1.,0.));
#832=DIRECTION('ref_axis',(0.,0.,1.));
#833=DIRECTION('center_axis',(0.,-1.,0.));
#834=DIRECTION('ref_axis',(0.,0.,-1.));
#835=DIRECTION('',(-8.65956056235489E-17,-0.707106781186551,0.707106781186544));
#836=DIRECTION('center_axis',(0.,-1.,0.));
#837=DIRECTION('ref_axis',(0.,0.,-1.));
#838=DIRECTION('',(-8.65956056235489E-17,-0.707106781186551,0.707106781186544));
#839=DIRECTION('center_axis',(0.,-1.,0.));
#840=DIRECTION('ref_axis',(0.,0.,-1.));
#841=DIRECTION('',(-8.65956056235489E-17,-0.707106781186551,0.707106781186544));
#842=DIRECTION('center_axis',(0.,-1.,0.));
#843=DIRECTION('ref_axis',(0.,0.,-1.));
#844=DIRECTION('',(-8.65956056235489E-17,-0.707106781186551,0.707106781186544));
#845=DIRECTION('center_axis',(0.,-1.,0.));
#846=DIRECTION('ref_axis',(0.,0.,-1.));
#847=DIRECTION('',(-8.65956056235495E-17,-0.707106781186546,0.707106781186549));
#848=DIRECTION('center_axis',(0.,-1.,0.));
#849=DIRECTION('ref_axis',(0.,0.,-1.));
#850=DIRECTION('',(-8.65956056235495E-17,-0.707106781186546,0.707106781186549));
#851=DIRECTION('center_axis',(0.,-1.,0.));
#852=DIRECTION('ref_axis',(0.,0.,-1.));
#853=DIRECTION('',(-8.65956056235495E-17,-0.707106781186546,0.707106781186549));
#854=DIRECTION('center_axis',(0.,-1.,0.));
#855=DIRECTION('ref_axis',(0.,0.,-1.));
#856=DIRECTION('',(-8.65956056235496E-17,-0.707106781186546,0.70710678118655));
#857=CARTESIAN_POINT('',(0.,0.,0.));
#858=CARTESIAN_POINT('Origin',(133.157255139314,27.,-45.7896688560436));
#859=CARTESIAN_POINT('',(28.9744399450883,27.,-36.9387794967173));
#860=CARTESIAN_POINT('',(11.0255600549117,27.,-36.9387794967173));
#861=CARTESIAN_POINT('',(28.9744399450883,27.,-36.9387794967173));
#862=CARTESIAN_POINT('',(11.0255600549117,27.,-42.7896688560436));
#863=CARTESIAN_POINT('Origin',(10.,27.,-39.8642241763804));
#864=CARTESIAN_POINT('',(28.9744399450883,27.,-42.7896688560436));
#865=CARTESIAN_POINT('',(11.0255600549117,27.,-42.7896688560436));
#866=CARTESIAN_POINT('Origin',(30.,27.,-39.8642241763804));
#867=CARTESIAN_POINT('Origin',(133.157255139314,27.,-45.7896688560436));
#868=CARTESIAN_POINT('',(48.9744399450883,27.,-36.9387794967173));
#869=CARTESIAN_POINT('',(31.0255600549117,27.,-36.9387794967173));
#870=CARTESIAN_POINT('',(48.9744399450883,27.,-36.9387794967173));
#871=CARTESIAN_POINT('',(31.0255600549117,27.,-42.7896688560436));
#872=CARTESIAN_POINT('Origin',(30.,27.,-39.8642241763804));
#873=CARTESIAN_POINT('',(48.9744399450883,27.,-42.7896688560436));
#874=CARTESIAN_POINT('',(31.0255600549117,27.,-42.7896688560436));
#875=CARTESIAN_POINT('Origin',(50.,27.,-39.8642241763804));
#876=CARTESIAN_POINT('Origin',(133.157255139314,27.,-45.7896688560436));
#877=CARTESIAN_POINT('',(68.9744399450883,27.,-36.9387794967173));
#878=CARTESIAN_POINT('',(51.0255600549117,27.,-36.9387794967173));
#879=CARTESIAN_POINT('',(68.9744399450883,27.,-36.9387794967173));
#880=CARTESIAN_POINT('',(51.0255600549117,27.,-42.7896688560436));
#881=CARTESIAN_POINT('Origin',(50.,27.,-39.8642241763804));
#882=CARTESIAN_POINT('',(68.9744399450882,27.,-42.7896688560436));
#883=CARTESIAN_POINT('',(51.0255600549117,27.,-42.7896688560436));
#884=CARTESIAN_POINT('Origin',(70.,27.,-39.8642241763804));
#885=CARTESIAN_POINT('Origin',(133.157255139314,27.,-45.7896688560436));
#886=CARTESIAN_POINT('',(80.,27.,-36.9387794967173));
#887=CARTESIAN_POINT('',(71.0255600549118,27.,-36.9387794967173));
#888=CARTESIAN_POINT('',(80.,27.,-36.9387794967173));
#889=CARTESIAN_POINT('',(71.0255600549118,27.,-42.7896688560436));
#890=CARTESIAN_POINT('Origin',(70.,27.,-39.8642241763804));
#891=CARTESIAN_POINT('',(80.,27.,-42.7896688560436));
#892=CARTESIAN_POINT('',(71.0255600549118,27.,-42.7896688560436));
#893=CARTESIAN_POINT('',(80.,27.,-42.7896688560436));
#894=CARTESIAN_POINT('Origin',(0.,30.,0.));
#895=CARTESIAN_POINT('',(80.,30.,0.));
#896=CARTESIAN_POINT('',(80.,30.,-12.1550077565321));
#897=CARTESIAN_POINT('',(80.,30.,0.));
#898=CARTESIAN_POINT('',(0.,30.,-12.1550077565321));
#899=CARTESIAN_POINT('',(80.,30.,-12.1550077565321));
#900=CARTESIAN_POINT('',(0.,30.,0.));
#901=CARTESIAN_POINT('',(0.,30.,-12.1550077565321));
#902=CARTESIAN_POINT('',(0.,30.,0.));
#903=CARTESIAN_POINT('',(30.,30.,-5.72027910768512));
#904=CARTESIAN_POINT('Origin',(30.,30.,-7.32027910768511));
#905=CARTESIAN_POINT('',(50.,30.,-5.72027910768511));
#906=CARTESIAN_POINT('Origin',(50.,30.,-7.32027910768511));
#907=CARTESIAN_POINT('',(70.,30.,-5.72027910768511));
#908=CARTESIAN_POINT('Origin',(70.,30.,-7.32027910768511));
#909=CARTESIAN_POINT('',(10.,30.,-5.72027910768511));
#910=CARTESIAN_POINT('Origin',(10.,30.,-7.32027910768511));
#911=CARTESIAN_POINT('Origin',(0.,30.,0.));
#912=CARTESIAN_POINT('',(0.,30.,-45.7896688560436));
#913=CARTESIAN_POINT('',(0.,30.,-36.4243299555554));
#914=CARTESIAN_POINT('',(0.,30.,-45.7896688560436));
#915=CARTESIAN_POINT('',(0.,27.,-42.7896688560436));
#916=CARTESIAN_POINT('',(0.,27.,-42.7896688560436));
#917=CARTESIAN_POINT('',(0.,27.,-36.9387794967173));
#918=CARTESIAN_POINT('',(0.,27.,-36.9387794967173));
#919=CARTESIAN_POINT('',(0.,27.,-11.6405582153702));
#920=CARTESIAN_POINT('Origin',(0.,33.,-24.2896688560437));
#921=CARTESIAN_POINT('',(0.,27.,-3.));
#922=CARTESIAN_POINT('',(0.,27.,-3.));
#923=CARTESIAN_POINT('',(0.,30.,-1.30104260698261E-15));
#924=CARTESIAN_POINT('Origin',(0.,33.,-24.2896688560437));
#925=CARTESIAN_POINT('Origin',(80.,30.,0.));
#926=CARTESIAN_POINT('',(80.,30.,-45.7896688560436));
#927=CARTESIAN_POINT('',(80.,30.,-45.7896688560436));
#928=CARTESIAN_POINT('',(80.,30.,-36.4243299555554));
#929=CARTESIAN_POINT('',(80.,30.,-36.4243299555554));
#930=CARTESIAN_POINT('Origin',(80.,33.,-24.2896688560437));
#931=CARTESIAN_POINT('',(80.,27.,-3.));
#932=CARTESIAN_POINT('',(80.,27.,-3.));
#933=CARTESIAN_POINT('',(80.,27.,-11.6405582153702));
#934=CARTESIAN_POINT('',(80.,27.,-11.6405582153702));
#935=CARTESIAN_POINT('Origin',(80.,33.,-24.2896688560437));
#936=CARTESIAN_POINT('Origin',(0.,30.,0.));
#937=CARTESIAN_POINT('',(80.,30.,-36.4243299555554));
#938=CARTESIAN_POINT('',(0.,30.,-45.7896688560436));
#939=CARTESIAN_POINT('',(70.,30.,-38.2642241763804));
#940=CARTESIAN_POINT('Origin',(70.,30.,-39.8642241763804));
#941=CARTESIAN_POINT('',(50.,30.,-38.2642241763804));
#942=CARTESIAN_POINT('Origin',(50.,30.,-39.8642241763804));
#943=CARTESIAN_POINT('',(30.,30.,-38.2642241763804));
#944=CARTESIAN_POINT('Origin',(30.,30.,-39.8642241763804));
#945=CARTESIAN_POINT('',(10.,30.,-38.2642241763804));
#946=CARTESIAN_POINT('Origin',(10.,30.,-39.8642241763804));
#947=CARTESIAN_POINT('Origin',(133.157255139314,33.,-24.2896688560437));
#948=CARTESIAN_POINT('',(80.,27.,-11.6405582153702));
#949=CARTESIAN_POINT('',(8.97443994508829,27.,-36.9387794967173));
#950=CARTESIAN_POINT('',(8.97443994508829,27.,-36.9387794967173));
#951=CARTESIAN_POINT('',(10.,27.3225961337962,-37.0868203101765));
#952=CARTESIAN_POINT('Ctrl Pts',(8.97443994508828,27.,-36.9387794967173));
#953=CARTESIAN_POINT('Ctrl Pts',(9.10097893187709,27.0757871389154,-36.9747284931653));
#954=CARTESIAN_POINT('Ctrl Pts',(9.2311979331303,27.1423390423328,-37.0054537081131));
#955=CARTESIAN_POINT('Ctrl Pts',(9.56658214006784,27.2742169674626,-37.0655424358828));
#956=CARTESIAN_POINT('Ctrl Pts',(9.77695550948,27.3225961337962,-37.0868203101765));
#957=CARTESIAN_POINT('Ctrl Pts',(10.,27.3225961337962,-37.0868203101765));
#958=CARTESIAN_POINT('Ctrl Pts',(10.,27.3225961337962,-37.0868203101765));
#959=CARTESIAN_POINT('Ctrl Pts',(10.22304449052,27.3225961337962,-37.0868203101765));
#960=CARTESIAN_POINT('Ctrl Pts',(10.4334178599322,27.2742169674626,-37.0655424358828));
#961=CARTESIAN_POINT('Ctrl Pts',(10.7688020668697,27.1423390423328,-37.0054537081131));
#962=CARTESIAN_POINT('Ctrl Pts',(10.8990210681229,27.0757871389154,-36.9747284931653));
#963=CARTESIAN_POINT('Ctrl Pts',(11.0255600549117,27.,-36.9387794967173));
#964=CARTESIAN_POINT('',(30.,27.3225961337962,-37.0868203101765));
#965=CARTESIAN_POINT('Ctrl Pts',(28.9744399450883,27.,-36.9387794967173));
#966=CARTESIAN_POINT('Ctrl Pts',(29.1009789318771,27.0757871389154,-36.9747284931653));
#967=CARTESIAN_POINT('Ctrl Pts',(29.2311979331303,27.1423390423328,-37.0054537081131));
#968=CARTESIAN_POINT('Ctrl Pts',(29.5665821400678,27.2742169674626,-37.0655424358828));
#969=CARTESIAN_POINT('Ctrl Pts',(29.77695550948,27.3225961337962,-37.0868203101765));
#970=CARTESIAN_POINT('Ctrl Pts',(30.,27.3225961337962,-37.0868203101765));
#971=CARTESIAN_POINT('Ctrl Pts',(30.,27.3225961337962,-37.0868203101765));
#972=CARTESIAN_POINT('Ctrl Pts',(30.22304449052,27.3225961337962,-37.0868203101765));
#973=CARTESIAN_POINT('Ctrl Pts',(30.4334178599322,27.2742169674626,-37.0655424358828));
#974=CARTESIAN_POINT('Ctrl Pts',(30.7688020668697,27.1423390423328,-37.0054537081131));
#975=CARTESIAN_POINT('Ctrl Pts',(30.8990210681229,27.0757871389154,-36.9747284931653));
#976=CARTESIAN_POINT('Ctrl Pts',(31.0255600549117,27.,-36.9387794967173));
#977=CARTESIAN_POINT('',(50.,27.3225961337962,-37.0868203101765));
#978=CARTESIAN_POINT('Ctrl Pts',(48.9744399450883,27.,-36.9387794967173));
#979=CARTESIAN_POINT('Ctrl Pts',(49.1009789318771,27.0757871389154,-36.9747284931653));
#980=CARTESIAN_POINT('Ctrl Pts',(49.2311979331303,27.1423390423328,-37.0054537081131));
#981=CARTESIAN_POINT('Ctrl Pts',(49.5665821400678,27.2742169674627,-37.0655424358828));
#982=CARTESIAN_POINT('Ctrl Pts',(49.77695550948,27.3225961337962,-37.0868203101765));
#983=CARTESIAN_POINT('Ctrl Pts',(50.,27.3225961337962,-37.0868203101765));
#984=CARTESIAN_POINT('Ctrl Pts',(50.,27.3225961337962,-37.0868203101765));
#985=CARTESIAN_POINT('Ctrl Pts',(50.22304449052,27.3225961337962,-37.0868203101765));
#986=CARTESIAN_POINT('Ctrl Pts',(50.4334178599322,27.2742169674626,-37.0655424358828));
#987=CARTESIAN_POINT('Ctrl Pts',(50.7688020668697,27.1423390423328,-37.0054537081131));
#988=CARTESIAN_POINT('Ctrl Pts',(50.8990210681229,27.0757871389154,-36.9747284931653));
#989=CARTESIAN_POINT('Ctrl Pts',(51.0255600549117,27.,-36.9387794967173));
#990=CARTESIAN_POINT('',(70.,27.3225961337962,-37.0868203101766));
#991=CARTESIAN_POINT('Ctrl Pts',(68.9744399450882,27.,-36.9387794967173));
#992=CARTESIAN_POINT('Ctrl Pts',(69.1009789318771,27.0757871389154,-36.9747284931653));
#993=CARTESIAN_POINT('Ctrl Pts',(69.2311979331303,27.1423390423328,-37.0054537081131));
#994=CARTESIAN_POINT('Ctrl Pts',(69.5665821400679,27.2742169674627,-37.0655424358828));
#995=CARTESIAN_POINT('Ctrl Pts',(69.77695550948,27.3225961337962,-37.0868203101766));
#996=CARTESIAN_POINT('Ctrl Pts',(70.,27.3225961337962,-37.0868203101766));
#997=CARTESIAN_POINT('Ctrl Pts',(70.,27.3225961337962,-37.0868203101766));
#998=CARTESIAN_POINT('Ctrl Pts',(70.22304449052,27.3225961337962,-37.0868203101766));
#999=CARTESIAN_POINT('Ctrl Pts',(70.4334178599322,27.2742169674627,-37.0655424358828));
#1000=CARTESIAN_POINT('Ctrl Pts',(70.7688020668697,27.1423390423328,-37.0054537081131));
#1001=CARTESIAN_POINT('Ctrl Pts',(70.8990210681229,27.0757871389154,-36.9747284931653));
#1002=CARTESIAN_POINT('Ctrl Pts',(71.0255600549117,27.,-36.9387794967173));
#1003=CARTESIAN_POINT('Origin',(133.157255139314,27.,3.67394039744206E-16));
#1004=CARTESIAN_POINT('',(80.,27.,-3.));
#1005=CARTESIAN_POINT('',(70.,27.,-4.22027910768505));
#1006=CARTESIAN_POINT('Origin',(70.,27.,-7.32027910768511));
#1007=CARTESIAN_POINT('',(50.,27.,-4.22027910768509));
#1008=CARTESIAN_POINT('Origin',(50.,27.,-7.32027910768511));
#1009=CARTESIAN_POINT('',(30.,27.,-4.22027910768509));
#1010=CARTESIAN_POINT('Origin',(30.,27.,-7.32027910768511));
#1011=CARTESIAN_POINT('',(10.,27.,-4.22027910768505));
#1012=CARTESIAN_POINT('Origin',(10.,27.,-7.32027910768511));
#1013=CARTESIAN_POINT('Origin',(133.157255139314,27.,-45.7896688560436));
#1014=CARTESIAN_POINT('',(8.97443994508828,27.,-42.7896688560436));
#1015=CARTESIAN_POINT('',(0.,27.,-42.7896688560436));
#1016=CARTESIAN_POINT('Origin',(10.,27.,-39.8642241763804));
#1017=CARTESIAN_POINT('Origin',(133.157255139314,33.,-24.2896688560437));
#1018=CARTESIAN_POINT('Origin',(80.,30.,-45.7896688560436));
#1019=CARTESIAN_POINT('Ctrl Pts',(11.0255600549117,27.,-42.7896688560436));
#1020=CARTESIAN_POINT('Ctrl Pts',(10.,27.1745553203369,-42.9642241763804));
#1021=CARTESIAN_POINT('Ctrl Pts',(8.97443994508829,27.,-42.7896688560436));
#1022=CARTESIAN_POINT('Ctrl Pts',(71.0255600549118,27.,-42.7896688560436));
#1023=CARTESIAN_POINT('Ctrl Pts',(70.,27.1745553203369,-42.9642241763804));
#1024=CARTESIAN_POINT('Ctrl Pts',(68.9744399450883,27.,-42.7896688560436));
#1025=CARTESIAN_POINT('Ctrl Pts',(51.0255600549117,27.,-42.7896688560436));
#1026=CARTESIAN_POINT('Ctrl Pts',(50.,27.1745553203369,-42.9642241763804));
#1027=CARTESIAN_POINT('Ctrl Pts',(48.9744399450883,27.,-42.7896688560436));
#1028=CARTESIAN_POINT('Ctrl Pts',(31.0255600549117,27.,-42.7896688560436));
#1029=CARTESIAN_POINT('Ctrl Pts',(30.,27.1745553203369,-42.9642241763804));
#1030=CARTESIAN_POINT('Ctrl Pts',(28.9744399450883,27.,-42.7896688560436));
#1031=CARTESIAN_POINT('Origin',(133.157255139314,27.,-3.));
#1032=CARTESIAN_POINT('Origin',(10.,34.5254833995939,-39.8642241763804));
#1033=CARTESIAN_POINT('',(10.,28.5,-38.2642241763804));
#1034=CARTESIAN_POINT('',(10.,34.5254833995939,-38.2642241763804));
#1035=CARTESIAN_POINT('Origin',(10.,28.5,-39.8642241763804));
#1036=CARTESIAN_POINT('Origin',(30.,34.5254833995939,-39.8642241763804));
#1037=CARTESIAN_POINT('',(30.,28.5,-38.2642241763804));
#1038=CARTESIAN_POINT('',(30.,34.5254833995939,-38.2642241763804));
#1039=CARTESIAN_POINT('Origin',(30.,28.5,-39.8642241763804));
#1040=CARTESIAN_POINT('Origin',(50.,34.5254833995939,-39.8642241763804));
#1041=CARTESIAN_POINT('',(50.,28.5,-38.2642241763804));
#1042=CARTESIAN_POINT('',(50.,34.5254833995939,-38.2642241763804));
#1043=CARTESIAN_POINT('Origin',(50.,28.5,-39.8642241763804));
#1044=CARTESIAN_POINT('Origin',(70.,34.5254833995939,-39.8642241763804));
#1045=CARTESIAN_POINT('',(70.,28.5,-38.2642241763804));
#1046=CARTESIAN_POINT('',(70.,34.5254833995939,-38.2642241763804));
#1047=CARTESIAN_POINT('Origin',(70.,28.5,-39.8642241763804));
#1048=CARTESIAN_POINT('Origin',(10.,34.5254833995939,-7.32027910768511));
#1049=CARTESIAN_POINT('',(10.,28.5,-5.72027910768511));
#1050=CARTESIAN_POINT('',(10.,34.5254833995939,-5.72027910768511));
#1051=CARTESIAN_POINT('Origin',(10.,28.5,-7.32027910768511));
#1052=CARTESIAN_POINT('Origin',(70.,34.5254833995939,-7.32027910768511));
#1053=CARTESIAN_POINT('',(70.,28.5,-5.72027910768511));
#1054=CARTESIAN_POINT('',(70.,34.5254833995939,-5.72027910768511));
#1055=CARTESIAN_POINT('Origin',(70.,28.5,-7.32027910768511));
#1056=CARTESIAN_POINT('Origin',(50.,34.5254833995939,-7.32027910768511));
#1057=CARTESIAN_POINT('',(50.,28.5,-5.72027910768511));
#1058=CARTESIAN_POINT('',(50.,34.5254833995939,-5.72027910768511));
#1059=CARTESIAN_POINT('Origin',(50.,28.5,-7.32027910768511));
#1060=CARTESIAN_POINT('Origin',(30.,34.5254833995939,-7.32027910768511));
#1061=CARTESIAN_POINT('',(30.,28.5,-5.72027910768512));
#1062=CARTESIAN_POINT('',(30.,34.5254833995939,-5.72027910768512));
#1063=CARTESIAN_POINT('Origin',(30.,28.5,-7.32027910768511));
#1064=CARTESIAN_POINT('Origin',(10.,28.5,-39.8642241763804));
#1065=CARTESIAN_POINT('',(10.,28.5,-38.2642241763804));
#1066=CARTESIAN_POINT('Origin',(30.,28.5,-39.8642241763804));
#1067=CARTESIAN_POINT('',(30.,28.5,-38.2642241763804));
#1068=CARTESIAN_POINT('Origin',(50.,28.5,-39.8642241763804));
#1069=CARTESIAN_POINT('',(50.,28.5,-38.2642241763804));
#1070=CARTESIAN_POINT('Origin',(70.,28.5,-39.8642241763804));
#1071=CARTESIAN_POINT('',(70.,28.5,-38.2642241763804));
#1072=CARTESIAN_POINT('Origin',(70.,28.5,-7.32027910768511));
#1073=CARTESIAN_POINT('',(70.,28.5,-5.72027910768511));
#1074=CARTESIAN_POINT('Origin',(50.,28.5,-7.32027910768511));
#1075=CARTESIAN_POINT('',(50.,28.5,-5.72027910768511));
#1076=CARTESIAN_POINT('Origin',(30.,28.5,-7.32027910768511));
#1077=CARTESIAN_POINT('',(30.,28.5,-5.72027910768512));
#1078=CARTESIAN_POINT('Origin',(10.,28.5,-7.32027910768511));
#1079=CARTESIAN_POINT('',(10.,28.5,-5.72027910768511));
#1080=UNCERTAINTY_MEASURE_WITH_UNIT(LENGTH_MEASURE(0.01),#1084,
'DISTANCE_ACCURACY_VALUE',
'Maximum model space distance between geometric entities at asserted c
onnectivities');
#1081=UNCERTAINTY_MEASURE_WITH_UNIT(LENGTH_MEASURE(0.01),#1084,
'DISTANCE_ACCURACY_VALUE',
'Maximum model space distance between geometric entities at asserted c
onnectivities');
#1082=(
GEOMETRIC_REPRESENTATION_CONTEXT(3)
GLOBAL_UNCERTAINTY_ASSIGNED_CONTEXT((#1080))
GLOBAL_UNIT_ASSIGNED_CONTEXT((#1084,#1086,#1087))
REPRESENTATION_CONTEXT('','3D')
);
#1083=(
GEOMETRIC_REPRESENTATION_CONTEXT(3)
GLOBAL_UNCERTAINTY_ASSIGNED_CONTEXT((#1081))
GLOBAL_UNIT_ASSIGNED_CONTEXT((#1084,#1086,#1087))
REPRESENTATION_CONTEXT('','3D')
);
#1084=(
LENGTH_UNIT()
NAMED_UNIT(*)
SI_UNIT(.MILLI.,.METRE.)
);
#1085=(
LENGTH_UNIT()
NAMED_UNIT(*)
SI_UNIT($,.METRE.)
);
#1086=(
NAMED_UNIT(*)
PLANE_ANGLE_UNIT()
SI_UNIT($,.RADIAN.)
);
#1087=(
NAMED_UNIT(*)
SI_UNIT($,.STERADIAN.)
SOLID_ANGLE_UNIT()
);
#1088=SHAPE_DEFINITION_REPRESENTATION(#1089,#1090);
#1089=PRODUCT_DEFINITION_SHAPE('',$,#1092);
#1090=SHAPE_REPRESENTATION('',(#624),#1082);
#1091=PRODUCT_DEFINITION_CONTEXT('part definition',#1096,'design');
#1092=PRODUCT_DEFINITION('2026-05-07-11-23-05-338','Big motor holde',#1093,
#1091);
#1093=PRODUCT_DEFINITION_FORMATION('',$,#1098);
#1094=PRODUCT_RELATED_PRODUCT_CATEGORY('Big motor holde',
'Big motor holde',(#1098));
#1095=APPLICATION_PROTOCOL_DEFINITION('international standard',
'automotive_design',2009,#1096);
#1096=APPLICATION_CONTEXT(
'Core Data for Automotive Mechanical Design Process');
#1097=PRODUCT_CONTEXT('part definition',#1096,'mechanical');
#1098=PRODUCT('2026-05-07-11-23-05-338','Big motor holde',$,(#1097));
#1099=PRESENTATION_STYLE_ASSIGNMENT((#1100));
#1100=SURFACE_STYLE_USAGE(.BOTH.,#1101);
#1101=SURFACE_SIDE_STYLE('',(#1102));
#1102=SURFACE_STYLE_FILL_AREA(#1103);
#1103=FILL_AREA_STYLE('Steel - Satin',(#1104));
#1104=FILL_AREA_STYLE_COLOUR('Steel - Satin',#1105);
#1105=COLOUR_RGB('Steel - Satin',0.627450980392157,0.627450980392157,0.627450980392157);
ENDSEC;
END-ISO-10303-21;
