%TF.GenerationSoftware,Altium Limited,Altium Designer,26.2.0 (7)*%
G04 Layer_Physical_Order=1*
G04 Layer_Color=255*
%FSLAX45Y45*%
%MOMM*%
%TF.SameCoordinates,894498E9-F992-4E77-9241-7735D3C5E39B*%
%TF.FilePolarity,Positive*%
%TF.FileFunction,Copper,L1,Top,Signal*%
%TF.Part,Single*%
G01*
G75*
%TA.AperFunction,SMDPad,CuDef*%
%ADD10R,0.60000X1.00000*%
%ADD11R,1.00000X0.60000*%
G04:AMPARAMS|DCode=12|XSize=0.6mm|YSize=1mm|CornerRadius=0mm|HoleSize=0mm|Usage=FLASHONLY|Rotation=135.000|XOffset=0mm|YOffset=0mm|HoleType=Round|Shape=Rectangle|*
%AMROTATEDRECTD12*
4,1,4,0.56569,0.14142,-0.14142,-0.56569,-0.56569,-0.14142,0.14142,0.56569,0.56569,0.14142,0.0*
%
%ADD12ROTATEDRECTD12*%

G04:AMPARAMS|DCode=13|XSize=0.6mm|YSize=1mm|CornerRadius=0mm|HoleSize=0mm|Usage=FLASHONLY|Rotation=225.000|XOffset=0mm|YOffset=0mm|HoleType=Round|Shape=Rectangle|*
%AMROTATEDRECTD13*
4,1,4,-0.14142,0.56569,0.56569,-0.14142,0.14142,-0.56569,-0.56569,0.14142,-0.14142,0.56569,0.0*
%
%ADD13ROTATEDRECTD13*%

G04:AMPARAMS|DCode=14|XSize=0.3mm|YSize=1.4mm|CornerRadius=0mm|HoleSize=0mm|Usage=FLASHONLY|Rotation=135.000|XOffset=0mm|YOffset=0mm|HoleType=Round|Shape=Rectangle|*
%AMROTATEDRECTD14*
4,1,4,0.60104,0.38891,-0.38891,-0.60104,-0.60104,-0.38891,0.38891,0.60104,0.60104,0.38891,0.0*
%
%ADD14ROTATEDRECTD14*%

G04:AMPARAMS|DCode=15|XSize=0.3mm|YSize=1.4mm|CornerRadius=0mm|HoleSize=0mm|Usage=FLASHONLY|Rotation=225.000|XOffset=0mm|YOffset=0mm|HoleType=Round|Shape=Rectangle|*
%AMROTATEDRECTD15*
4,1,4,-0.38891,0.60104,0.60104,-0.38891,0.38891,-0.60104,-0.60104,0.38891,-0.38891,0.60104,0.0*
%
%ADD15ROTATEDRECTD15*%

%ADD16R,1.20000X1.40000*%
G04:AMPARAMS|DCode=17|XSize=0.63mm|YSize=0.61mm|CornerRadius=0.14945mm|HoleSize=0mm|Usage=FLASHONLY|Rotation=315.000|XOffset=0mm|YOffset=0mm|HoleType=Round|Shape=RoundedRectangle|*
%AMROUNDEDRECTD17*
21,1,0.63000,0.31110,0,0,315.0*
21,1,0.33110,0.61000,0,0,315.0*
1,1,0.29890,0.00707,-0.22706*
1,1,0.29890,-0.22706,0.00707*
1,1,0.29890,-0.00707,0.22706*
1,1,0.29890,0.22706,-0.00707*
%
%ADD17ROUNDEDRECTD17*%
%AMCUSTOMSHAPE18*
4,1,5,-0.12374,0.40659,0.08838,0.40659,0.51265,-0.01768,0.05303,-0.47730,-0.47730,0.05303,-0.12374,0.40659,0.0*%
%ADD18CUSTOMSHAPE18*%

G04:AMPARAMS|DCode=19|XSize=0.63mm|YSize=0.61mm|CornerRadius=0.14945mm|HoleSize=0mm|Usage=FLASHONLY|Rotation=225.000|XOffset=0mm|YOffset=0mm|HoleType=Round|Shape=RoundedRectangle|*
%AMROUNDEDRECTD19*
21,1,0.63000,0.31110,0,0,225.0*
21,1,0.33110,0.61000,0,0,225.0*
1,1,0.29890,-0.22706,-0.00707*
1,1,0.29890,0.00707,0.22706*
1,1,0.29890,0.22706,0.00707*
1,1,0.29890,-0.00707,-0.22706*
%
%ADD19ROUNDEDRECTD19*%
G04:AMPARAMS|DCode=20|XSize=0.75mm|YSize=0.65mm|CornerRadius=0mm|HoleSize=0mm|Usage=FLASHONLY|Rotation=315.000|XOffset=0mm|YOffset=0mm|HoleType=Round|Shape=Rectangle|*
%AMROTATEDRECTD20*
4,1,4,-0.49497,0.03535,-0.03535,0.49497,0.49497,-0.03535,0.03535,-0.49497,-0.49497,0.03535,0.0*
%
%ADD20ROTATEDRECTD20*%

G04:AMPARAMS|DCode=21|XSize=0.55mm|YSize=0.6mm|CornerRadius=0mm|HoleSize=0mm|Usage=FLASHONLY|Rotation=315.000|XOffset=0mm|YOffset=0mm|HoleType=Round|Shape=Rectangle|*
%AMROTATEDRECTD21*
4,1,4,-0.40659,-0.01768,0.01768,0.40659,0.40659,0.01768,-0.01768,-0.40659,-0.40659,-0.01768,0.0*
%
%ADD21ROTATEDRECTD21*%

G04:AMPARAMS|DCode=22|XSize=1.4mm|YSize=1.2mm|CornerRadius=0mm|HoleSize=0mm|Usage=FLASHONLY|Rotation=45.000|XOffset=0mm|YOffset=0mm|HoleType=Round|Shape=Rectangle|*
%AMROTATEDRECTD22*
4,1,4,-0.07071,-0.91924,-0.91924,-0.07071,0.07071,0.91924,0.91924,0.07071,-0.07071,-0.91924,0.0*
%
%ADD22ROTATEDRECTD22*%

%ADD23R,0.80000X0.80000*%
%ADD24R,1.15000X1.22000*%
%TA.AperFunction,Conductor*%
%ADD25C,0.15000*%
%ADD26C,0.30000*%
%ADD27C,0.20000*%
%ADD28C,0.40000*%
%ADD29C,0.26900*%
%TA.AperFunction,ComponentPad*%
%ADD30C,1.40000*%
%ADD31C,1.20000*%
%ADD32C,1.60000*%
%ADD33C,1.80000*%
%ADD34C,2.50000*%
%ADD35C,1.70000*%
%ADD36C,0.65000*%
%ADD37R,2.00000X2.00000*%
%ADD38C,1.35000*%
%ADD39R,1.60000X1.60000*%
%ADD40R,1.35000X1.35000*%
%ADD41C,2.00000*%
G04:AMPARAMS|DCode=42|XSize=0.9mm|YSize=2.4mm|CornerRadius=0.45mm|HoleSize=0mm|Usage=FLASHONLY|Rotation=90.000|XOffset=0mm|YOffset=0mm|HoleType=Round|Shape=RoundedRectangle|*
%AMROUNDEDRECTD42*
21,1,0.90000,1.50000,0,0,90.0*
21,1,0.00000,2.40000,0,0,90.0*
1,1,0.90000,0.75000,0.00000*
1,1,0.90000,0.75000,0.00000*
1,1,0.90000,-0.75000,0.00000*
1,1,0.90000,-0.75000,0.00000*
%
%ADD42ROUNDEDRECTD42*%
G04:AMPARAMS|DCode=43|XSize=0.9mm|YSize=1.7mm|CornerRadius=0.45mm|HoleSize=0mm|Usage=FLASHONLY|Rotation=90.000|XOffset=0mm|YOffset=0mm|HoleType=Round|Shape=RoundedRectangle|*
%AMROUNDEDRECTD43*
21,1,0.90000,0.80000,0,0,90.0*
21,1,0.00000,1.70000,0,0,90.0*
1,1,0.90000,0.40000,0.00000*
1,1,0.90000,0.40000,0.00000*
1,1,0.90000,-0.40000,0.00000*
1,1,0.90000,-0.40000,0.00000*
%
%ADD43ROUNDEDRECTD43*%
%ADD44R,1.40000X1.40000*%
%ADD45R,1.70000X1.70000*%
%ADD46C,1.50000*%
%TA.AperFunction,ViaPad*%
%ADD47C,0.70000*%
G36*
X7018715Y6299660D02*
X7052463Y6285681D01*
X7081443Y6263444D01*
X7103680Y6234464D01*
X7117659Y6200716D01*
X7120497Y6179158D01*
X7121324Y6164500D01*
Y6164424D01*
X7121343Y6149502D01*
X7121816Y5768494D01*
X7120824Y5767501D01*
X7120824D01*
Y5052500D01*
X7120841D01*
X7121324Y4664424D01*
X7121983Y4661132D01*
X7117659Y4628285D01*
X7103680Y4594537D01*
X7081443Y4565557D01*
X7052463Y4543320D01*
X7018715Y4529341D01*
X6985835Y4525013D01*
X6982499Y4525676D01*
X5782500D01*
X5779161Y4525012D01*
X5746284Y4529340D01*
X5712536Y4543319D01*
X5683556Y4565556D01*
X5661319Y4594536D01*
X5647340Y4628284D01*
X5643012Y4661164D01*
X5643675Y4664500D01*
Y6164500D01*
X5643012Y6167836D01*
X5647340Y6200716D01*
X5661319Y6234464D01*
X5683556Y6263444D01*
X5712536Y6285681D01*
X5746284Y6299660D01*
X5767842Y6302498D01*
X5782500Y6303325D01*
X5782500Y6303325D01*
X6982499D01*
X6985835Y6303988D01*
X7018715Y6299660D01*
D02*
G37*
G36*
X7782500Y6553824D02*
X8726350D01*
X8730369Y6538824D01*
X8719142Y6532343D01*
X8697657Y6510857D01*
X8682464Y6484543D01*
X8674600Y6455193D01*
Y6452700D01*
X8905399D01*
Y6455193D01*
X8897535Y6484543D01*
X8882342Y6510857D01*
X8860857Y6532343D01*
X8849630Y6538824D01*
X8853649Y6553824D01*
X9376350D01*
X9380369Y6538824D01*
X9369143Y6532343D01*
X9347657Y6510857D01*
X9332464Y6484543D01*
X9324600Y6455193D01*
Y6452700D01*
X9555399D01*
Y6455193D01*
X9547535Y6484543D01*
X9532342Y6510857D01*
X9510857Y6532343D01*
X9499630Y6538824D01*
X9503650Y6553824D01*
X10382499D01*
X10382499Y6553824D01*
Y6553824D01*
X10397157Y6552997D01*
X10418715Y6550159D01*
X10452463Y6536180D01*
X10481443Y6513943D01*
X10503680Y6484963D01*
X10517659Y6451215D01*
X10521988Y6418335D01*
X10521324Y6415000D01*
Y4415000D01*
X10521988Y4411664D01*
X10517659Y4378784D01*
X10503680Y4345036D01*
X10481443Y4316056D01*
X10452463Y4293819D01*
X10418715Y4279841D01*
X10385835Y4275512D01*
X10382499Y4276175D01*
X8812500Y4276175D01*
Y4276175D01*
X7782500D01*
X7779164Y4275512D01*
X7746284Y4279841D01*
X7712536Y4293819D01*
X7683556Y4316056D01*
X7661319Y4345036D01*
X7647340Y4378784D01*
X7643012Y4411665D01*
X7643675Y4415000D01*
Y6415000D01*
X7643012Y6418335D01*
X7647340Y6451215D01*
X7661319Y6484963D01*
X7683556Y6513943D01*
X7712536Y6536180D01*
X7746284Y6550159D01*
X7779164Y6554488D01*
X7782500Y6553824D01*
D02*
G37*
G36*
X7018715Y3999660D02*
X7052463Y3985681D01*
X7081443Y3963444D01*
X7103680Y3934464D01*
X7117659Y3900716D01*
X7121988Y3867836D01*
X7121324Y3864501D01*
Y2364501D01*
X7121988Y2361165D01*
X7117659Y2328285D01*
X7103680Y2294537D01*
X7081443Y2265557D01*
X7052463Y2243320D01*
X7018715Y2229341D01*
X6985835Y2225013D01*
X6982499Y2225676D01*
X5782500D01*
X5779161Y2225012D01*
X5746284Y2229340D01*
X5712536Y2243319D01*
X5683556Y2265556D01*
X5661319Y2294536D01*
X5647340Y2328284D01*
X5644502Y2349842D01*
X5643675Y2364500D01*
Y2364577D01*
X5643656Y2379499D01*
X5643042Y2873563D01*
X5652762Y2890398D01*
X5657900Y2909574D01*
Y2929427D01*
X5652762Y2948604D01*
X5642927Y2965637D01*
X5642881Y3003283D01*
X5652762Y3020398D01*
X5657900Y3039574D01*
Y3059427D01*
X5652762Y3078604D01*
X5642835Y3095797D01*
X5642765Y3095867D01*
X5642719Y3133088D01*
X5642835Y3133204D01*
X5652762Y3150398D01*
X5657900Y3169574D01*
Y3189427D01*
X5652762Y3208604D01*
X5642835Y3225797D01*
X5642604Y3226029D01*
X5642558Y3262927D01*
X5642835Y3263204D01*
X5652762Y3280398D01*
X5657900Y3299574D01*
Y3319427D01*
X5652762Y3338604D01*
X5642835Y3355797D01*
X5642442Y3356191D01*
X5642321Y3453196D01*
X5644175Y3462577D01*
X5643675Y3864576D01*
X5643016Y3867869D01*
X5647340Y3900716D01*
X5661319Y3934464D01*
X5683556Y3963444D01*
X5712536Y3985681D01*
X5746284Y3999660D01*
X5779161Y4003988D01*
X5782500Y4003324D01*
X5977999D01*
Y3995000D01*
X6693000D01*
Y4003325D01*
X6982499D01*
X6985835Y4003988D01*
X7018715Y3999660D01*
D02*
G37*
G36*
X10947612Y3751483D02*
X10960423Y3742923D01*
X10968983Y3730112D01*
X10971657Y3716669D01*
X10971325Y3715000D01*
Y1179923D01*
X10971323Y1165000D01*
X10969181Y1150886D01*
X10968982Y1149888D01*
X10960422Y1137077D01*
X10947611Y1128517D01*
X10934169Y1125843D01*
X10932500Y1126175D01*
X10932491D01*
X10928886Y1138061D01*
X10911243Y1171069D01*
X10887500Y1200000D01*
X10858568Y1223743D01*
X10825561Y1241386D01*
X10789746Y1252250D01*
X10752499Y1255919D01*
X10715253Y1252250D01*
X10679438Y1241386D01*
X10646431Y1223743D01*
X10617499Y1200000D01*
X10593756Y1171069D01*
X10576113Y1138061D01*
X10572508Y1126175D01*
X8092492D01*
X8088887Y1138061D01*
X8071244Y1171069D01*
X8047501Y1200000D01*
X8018569Y1223743D01*
X7985562Y1241386D01*
X7949747Y1252250D01*
X7939722Y1253238D01*
X7936396Y1268638D01*
X7950287Y1276658D01*
X7970842Y1297213D01*
X7985376Y1322387D01*
X7992900Y1350466D01*
Y1352300D01*
X7772100D01*
Y1350466D01*
X7779624Y1322387D01*
X7794158Y1297213D01*
X7814713Y1276658D01*
X7839887Y1262124D01*
X7848511Y1259813D01*
X7848766Y1244215D01*
X7839439Y1241386D01*
X7806431Y1223743D01*
X7777500Y1200000D01*
X7753757Y1171069D01*
X7736114Y1138061D01*
X7732509Y1126175D01*
X7682500D01*
X7680831Y1125843D01*
X7667389Y1128517D01*
X7654578Y1137077D01*
X7646017Y1149888D01*
X7643344Y1163330D01*
X7643676Y1165000D01*
Y3715000D01*
X7643343Y3716669D01*
X7646017Y3730112D01*
X7654578Y3742923D01*
X7667389Y3751483D01*
X7680831Y3754157D01*
X7682500Y3753825D01*
X7732509D01*
X7736114Y3741938D01*
X7753757Y3708931D01*
X7777500Y3680000D01*
X7806432Y3656257D01*
X7839439Y3638614D01*
X7875254Y3627749D01*
X7912501Y3624081D01*
X7949747Y3627749D01*
X7985562Y3638614D01*
X8018569Y3656257D01*
X8047501Y3680000D01*
X8071244Y3708931D01*
X8088887Y3741938D01*
X8092492Y3753825D01*
X8192108D01*
Y3310000D01*
X8193660Y3302196D01*
X8198081Y3295581D01*
X8204696Y3291160D01*
X8212500Y3289608D01*
X8232788D01*
X8236304Y3283754D01*
X8238228Y3274608D01*
X8223162Y3259542D01*
X8210931Y3238358D01*
X8204726Y3215200D01*
X8297500D01*
X8390274D01*
X8384069Y3238358D01*
X8371838Y3259542D01*
X8356772Y3274608D01*
X8358696Y3283754D01*
X8362212Y3289608D01*
X8456553D01*
X8595000Y3151161D01*
Y3142500D01*
X8603661D01*
X8613081Y3133081D01*
X8619697Y3128660D01*
X8627500Y3127108D01*
X8812100D01*
Y3052700D01*
X8897500D01*
Y3040000D01*
X8910200D01*
Y2944600D01*
X8982900D01*
X8982900Y2944600D01*
X8987078Y2943740D01*
X8987196Y2943660D01*
X8995000Y2942108D01*
X9020032D01*
X9030055Y2927108D01*
X9027500Y2920940D01*
Y2899060D01*
X9035873Y2878845D01*
X9051345Y2863373D01*
X9071560Y2855000D01*
X9093440D01*
X9113655Y2863373D01*
X9129127Y2878845D01*
X9137500Y2899060D01*
Y2920940D01*
X9134945Y2927108D01*
X9144968Y2942108D01*
X9147500D01*
X9155304Y2943660D01*
X9161919Y2948081D01*
X9166340Y2954696D01*
X9167892Y2962500D01*
Y3039053D01*
X9443447Y3314608D01*
X9750005D01*
X9757809Y3316160D01*
X9764425Y3320581D01*
X9924419Y3480574D01*
X9926126Y3483130D01*
X9941592Y3482071D01*
X9941981Y3481914D01*
X9942178Y3481182D01*
X9957976Y3453818D01*
X9980318Y3431476D01*
X10007682Y3415678D01*
X10038202Y3407500D01*
X10069798D01*
X10100318Y3415678D01*
X10127682Y3431476D01*
X10150024Y3453818D01*
X10165822Y3481182D01*
X10174000Y3511702D01*
Y3543298D01*
X10165822Y3573818D01*
X10150024Y3601182D01*
X10127682Y3623524D01*
X10100318Y3639322D01*
X10069798Y3647500D01*
X10038202D01*
X10007682Y3639322D01*
X9980318Y3623524D01*
X9957976Y3601182D01*
X9945392Y3579385D01*
X9930392Y3583404D01*
X9930391Y3753825D01*
X10572508D01*
X10576113Y3741938D01*
X10593756Y3708931D01*
X10617499Y3680000D01*
X10646431Y3656257D01*
X10679438Y3638614D01*
X10715253Y3627749D01*
X10752500Y3624081D01*
X10789746Y3627749D01*
X10825561Y3638614D01*
X10858569Y3656257D01*
X10887500Y3680000D01*
X10911243Y3708931D01*
X10928886Y3741938D01*
X10932491Y3753825D01*
X10932500D01*
X10934170Y3754157D01*
X10947612Y3751483D01*
D02*
G37*
G36*
X9020000Y3195000D02*
X8972500Y3147500D01*
X8627500D01*
X8465000Y3310000D01*
X8212500D01*
Y3753825D01*
X9020000D01*
Y3195000D01*
D02*
G37*
G36*
X9910000Y3494994D02*
X9750005Y3335000D01*
X9435000D01*
X9147500Y3047500D01*
Y2962500D01*
X9099475D01*
X9093440Y2965000D01*
X9071560D01*
X9065525Y2962500D01*
X8995000D01*
Y3132500D01*
X9047500Y3185000D01*
Y3753825D01*
X9909999D01*
X9910000Y3494994D01*
D02*
G37*
%LPC*%
G36*
X6899614Y6194500D02*
X6865385D01*
X6832321Y6185641D01*
X6802678Y6168526D01*
X6778474Y6144322D01*
X6761359Y6114679D01*
X6752499Y6081615D01*
Y6047386D01*
X6761359Y6014322D01*
X6778474Y5984679D01*
X6802678Y5960475D01*
X6832321Y5943360D01*
X6865385Y5934500D01*
X6899614D01*
X6932678Y5943360D01*
X6962321Y5960475D01*
X6986525Y5984679D01*
X7003640Y6014322D01*
X7012499Y6047386D01*
Y6081615D01*
X7003640Y6114679D01*
X6986525Y6144322D01*
X6962321Y6168526D01*
X6932678Y6185641D01*
X6899614Y6194500D01*
D02*
G37*
G36*
X5899614D02*
X5865385D01*
X5832321Y6185641D01*
X5802677Y6168526D01*
X5778474Y6144322D01*
X5761359Y6114679D01*
X5752499Y6081615D01*
Y6047386D01*
X5761359Y6014322D01*
X5778474Y5984679D01*
X5802677Y5960475D01*
X5832321Y5943360D01*
X5865385Y5934500D01*
X5899614D01*
X5932677Y5943360D01*
X5962321Y5960475D01*
X5986525Y5984679D01*
X6003640Y6014322D01*
X6012499Y6047386D01*
Y6081615D01*
X6003640Y6114679D01*
X5986525Y6144322D01*
X5962321Y6168526D01*
X5932677Y6185641D01*
X5899614Y6194500D01*
D02*
G37*
G36*
X5925699Y5745363D02*
Y5662700D01*
X6008362D01*
X6001898Y5686823D01*
X5989338Y5708577D01*
X5971576Y5726339D01*
X5949822Y5738899D01*
X5925699Y5745363D01*
D02*
G37*
G36*
X6425699D02*
Y5662700D01*
X6508362D01*
X6501898Y5686823D01*
X6489338Y5708577D01*
X6471576Y5726339D01*
X6449822Y5738899D01*
X6425699Y5745363D01*
D02*
G37*
G36*
X5900299Y5745362D02*
X5876176Y5738899D01*
X5854422Y5726339D01*
X5836660Y5708577D01*
X5824101Y5686823D01*
X5817637Y5662700D01*
X5900299D01*
Y5745362D01*
D02*
G37*
G36*
X6400299D02*
X6376176Y5738899D01*
X6354422Y5726339D01*
X6336660Y5708577D01*
X6324101Y5686823D01*
X6317637Y5662700D01*
X6400299D01*
Y5745362D01*
D02*
G37*
G36*
X5900299Y5637300D02*
X5817637D01*
X5824101Y5613177D01*
X5836660Y5591423D01*
X5854422Y5573661D01*
X5876176Y5561102D01*
X5900299Y5554638D01*
Y5637300D01*
D02*
G37*
G36*
X6008362D02*
X5925699D01*
Y5554638D01*
X5949822Y5561102D01*
X5971576Y5573661D01*
X5989338Y5591423D01*
X6001898Y5613177D01*
X6008362Y5637300D01*
D02*
G37*
G36*
X6174848Y5740000D02*
X6151151D01*
X6128261Y5733867D01*
X6107738Y5722018D01*
X6090982Y5705261D01*
X6079133Y5684739D01*
X6073000Y5661849D01*
Y5638152D01*
X6079133Y5615262D01*
X6090982Y5594739D01*
X6107738Y5577983D01*
X6128261Y5566134D01*
X6151151Y5560001D01*
X6174848D01*
X6196682Y5565851D01*
X6255265Y5507267D01*
X6266843Y5499531D01*
X6280499Y5496815D01*
X6582999D01*
X6596656Y5499531D01*
X6608233Y5507267D01*
X6648467Y5547501D01*
X6697999D01*
Y5687500D01*
X6597999D01*
Y5597968D01*
X6568218Y5568186D01*
X6487314D01*
X6481101Y5583186D01*
X6489338Y5591423D01*
X6501898Y5613177D01*
X6508362Y5637300D01*
X6412999D01*
X6317637D01*
X6324101Y5613177D01*
X6336660Y5591423D01*
X6344898Y5583186D01*
X6338684Y5568186D01*
X6295281D01*
X6247149Y5616318D01*
X6252999Y5638152D01*
Y5661849D01*
X6246866Y5684739D01*
X6235017Y5705261D01*
X6218260Y5722018D01*
X6197738Y5733867D01*
X6174848Y5740000D01*
D02*
G37*
G36*
X6837999Y5687500D02*
X6737999D01*
Y5547501D01*
X6837999D01*
Y5581815D01*
X6924295D01*
X6929499Y5575032D01*
Y5553968D01*
X6934951Y5533622D01*
X6945483Y5515379D01*
X6960378Y5500485D01*
X6978621Y5489952D01*
X6998967Y5484501D01*
X7020031D01*
X7040378Y5489952D01*
X7058620Y5500485D01*
X7073515Y5515379D01*
X7084047Y5533622D01*
X7089499Y5553968D01*
Y5575033D01*
X7084047Y5595379D01*
X7073515Y5613621D01*
X7058620Y5628516D01*
X7040378Y5639048D01*
X7020031Y5644500D01*
X6998967D01*
X6978621Y5639048D01*
X6976861Y5638032D01*
X6972159Y5642734D01*
X6960582Y5650470D01*
X6946925Y5653186D01*
X6837999D01*
Y5687500D01*
D02*
G37*
G36*
X6766031Y5517500D02*
X6744967D01*
X6724621Y5512048D01*
X6706378Y5501516D01*
X6691483Y5486621D01*
X6680951Y5468379D01*
X6675499Y5448033D01*
Y5426968D01*
X6680951Y5406622D01*
X6691483Y5388379D01*
X6706378Y5373485D01*
X6724621Y5362952D01*
X6744967Y5357501D01*
X6766031D01*
X6786378Y5362952D01*
X6804620Y5373485D01*
X6819515Y5388379D01*
X6830047Y5406622D01*
X6835499Y5426968D01*
Y5448033D01*
X6830047Y5468379D01*
X6819515Y5486621D01*
X6804620Y5501516D01*
X6786378Y5512048D01*
X6766031Y5517500D01*
D02*
G37*
G36*
X7020031Y5390500D02*
X6998967D01*
X6978621Y5385048D01*
X6960378Y5374516D01*
X6945483Y5359621D01*
X6934951Y5341379D01*
X6929499Y5321033D01*
Y5299968D01*
X6934951Y5279622D01*
X6945483Y5261379D01*
X6960378Y5246485D01*
X6978621Y5235952D01*
X6998967Y5230501D01*
X7020031D01*
X7040378Y5235952D01*
X7058620Y5246485D01*
X7073515Y5261379D01*
X7084047Y5279622D01*
X7089499Y5299968D01*
Y5321033D01*
X7084047Y5341379D01*
X7073515Y5359621D01*
X7058620Y5374516D01*
X7040378Y5385048D01*
X7020031Y5390500D01*
D02*
G37*
G36*
X6768199Y5268510D02*
Y5196200D01*
X6840509D01*
X6835079Y5216464D01*
X6823836Y5235937D01*
X6807936Y5251837D01*
X6788462Y5263080D01*
X6768199Y5268510D01*
D02*
G37*
G36*
X6742799D02*
X6722536Y5263080D01*
X6703063Y5251837D01*
X6687162Y5235937D01*
X6675919Y5216464D01*
X6670490Y5196200D01*
X6742799D01*
Y5268510D01*
D02*
G37*
G36*
X6425699Y5205363D02*
Y5122700D01*
X6508362D01*
X6501898Y5146823D01*
X6489338Y5168577D01*
X6471576Y5186339D01*
X6449822Y5198899D01*
X6425699Y5205363D01*
D02*
G37*
G36*
X6175699D02*
Y5122700D01*
X6258362D01*
X6251898Y5146823D01*
X6239338Y5168577D01*
X6221576Y5186339D01*
X6199822Y5198899D01*
X6175699Y5205363D01*
D02*
G37*
G36*
X6400299Y5205362D02*
X6376176Y5198899D01*
X6354422Y5186339D01*
X6336660Y5168577D01*
X6324101Y5146823D01*
X6317637Y5122700D01*
X6400299D01*
Y5205362D01*
D02*
G37*
G36*
X6150299D02*
X6126176Y5198899D01*
X6104422Y5186339D01*
X6086660Y5168577D01*
X6074101Y5146823D01*
X6067637Y5122700D01*
X6150299D01*
Y5205362D01*
D02*
G37*
G36*
X6840509Y5170800D02*
X6768199D01*
Y5098491D01*
X6788462Y5103920D01*
X6807936Y5115164D01*
X6823836Y5131064D01*
X6835079Y5150537D01*
X6840509Y5170800D01*
D02*
G37*
G36*
X6742799D02*
X6670490D01*
X6675919Y5150537D01*
X6687162Y5131064D01*
X6703063Y5115164D01*
X6722536Y5103920D01*
X6742799Y5098491D01*
Y5170800D01*
D02*
G37*
G36*
X5924848Y5200000D02*
X5901151D01*
X5878261Y5193867D01*
X5857738Y5182018D01*
X5840982Y5165261D01*
X5829133Y5144739D01*
X5823000Y5121849D01*
Y5098152D01*
X5829133Y5075262D01*
X5840982Y5054739D01*
X5857738Y5037983D01*
X5878261Y5026134D01*
X5901151Y5020001D01*
X5924848D01*
X5947738Y5026134D01*
X5968260Y5037983D01*
X5985017Y5054739D01*
X5996866Y5075262D01*
X6002999Y5098152D01*
Y5121849D01*
X5996866Y5144739D01*
X5985017Y5165261D01*
X5968260Y5182018D01*
X5947738Y5193867D01*
X5924848Y5200000D01*
D02*
G37*
G36*
X6400299Y5097300D02*
X6317637D01*
X6324101Y5073178D01*
X6336660Y5051423D01*
X6354422Y5033662D01*
X6376176Y5021102D01*
X6400299Y5014638D01*
Y5097300D01*
D02*
G37*
G36*
X6150299D02*
X6067637D01*
X6074101Y5073178D01*
X6086660Y5051423D01*
X6104422Y5033662D01*
X6126176Y5021102D01*
X6150299Y5014638D01*
Y5097300D01*
D02*
G37*
G36*
X6508362D02*
X6425699D01*
Y5014638D01*
X6449822Y5021102D01*
X6471576Y5033662D01*
X6489338Y5051423D01*
X6501898Y5073178D01*
X6508362Y5097300D01*
D02*
G37*
G36*
X6258362D02*
X6175699D01*
Y5014638D01*
X6199822Y5021102D01*
X6221576Y5033662D01*
X6239338Y5051423D01*
X6251898Y5073178D01*
X6258362Y5097300D01*
D02*
G37*
G36*
X6955499Y5124191D02*
X6915499D01*
X6894615Y5121441D01*
X6875154Y5113380D01*
X6858443Y5100557D01*
X6845620Y5083846D01*
X6837559Y5064385D01*
X6834809Y5043500D01*
X6837559Y5022616D01*
X6845620Y5003155D01*
X6858443Y4986444D01*
X6875154Y4973621D01*
X6894615Y4965560D01*
X6915499Y4962810D01*
X6955499D01*
X6976383Y4965560D01*
X6995844Y4973621D01*
X7012556Y4986444D01*
X7025379Y5003155D01*
X7033440Y5022616D01*
X7036189Y5043500D01*
X7033440Y5064385D01*
X7025379Y5083846D01*
X7012556Y5100557D01*
X6995844Y5113380D01*
X6976383Y5121441D01*
X6955499Y5124191D01*
D02*
G37*
G36*
X6899614Y4894500D02*
X6865385D01*
X6832321Y4885641D01*
X6802678Y4868526D01*
X6778474Y4844322D01*
X6761359Y4814679D01*
X6752499Y4781615D01*
Y4747386D01*
X6761359Y4714322D01*
X6778474Y4684679D01*
X6802678Y4660475D01*
X6832321Y4643360D01*
X6865385Y4634501D01*
X6899614D01*
X6932678Y4643360D01*
X6962321Y4660475D01*
X6986525Y4684679D01*
X7003640Y4714322D01*
X7012499Y4747386D01*
Y4781615D01*
X7003640Y4814679D01*
X6986525Y4844322D01*
X6962321Y4868526D01*
X6932678Y4885641D01*
X6899614Y4894500D01*
D02*
G37*
G36*
X5899614D02*
X5865385D01*
X5832321Y4885641D01*
X5802677Y4868526D01*
X5778474Y4844322D01*
X5761359Y4814679D01*
X5752499Y4781615D01*
Y4747386D01*
X5761359Y4714322D01*
X5778474Y4684679D01*
X5802677Y4660475D01*
X5832321Y4643360D01*
X5865385Y4634501D01*
X5899614D01*
X5932677Y4643360D01*
X5962321Y4660475D01*
X5986525Y4684679D01*
X6003640Y4714322D01*
X6012499Y4747386D01*
Y4781615D01*
X6003640Y4814679D01*
X5986525Y4844322D01*
X5962321Y4868526D01*
X5932677Y4885641D01*
X5899614Y4894500D01*
D02*
G37*
G36*
X9555399Y6427300D02*
X9452700D01*
Y6324600D01*
X9455192D01*
X9484542Y6332464D01*
X9510857Y6347657D01*
X9532342Y6369143D01*
X9547535Y6395457D01*
X9555399Y6424807D01*
Y6427300D01*
D02*
G37*
G36*
X9427300D02*
X9324600D01*
Y6424807D01*
X9332464Y6395457D01*
X9347657Y6369143D01*
X9369143Y6347657D01*
X9395457Y6332464D01*
X9424807Y6324600D01*
X9427300D01*
Y6427300D01*
D02*
G37*
G36*
X8905399D02*
X8802699D01*
Y6324600D01*
X8805192D01*
X8834542Y6332464D01*
X8860857Y6347657D01*
X8882342Y6369143D01*
X8897535Y6395457D01*
X8905399Y6424807D01*
Y6427300D01*
D02*
G37*
G36*
X8777299D02*
X8674600D01*
Y6424807D01*
X8682464Y6395457D01*
X8697657Y6369143D01*
X8719142Y6347657D01*
X8745457Y6332464D01*
X8774807Y6324600D01*
X8777299D01*
Y6427300D01*
D02*
G37*
G36*
X10299614Y6445000D02*
X10265385D01*
X10232321Y6436141D01*
X10202678Y6419026D01*
X10178474Y6394822D01*
X10161359Y6365178D01*
X10152499Y6332115D01*
Y6297885D01*
X10161359Y6264822D01*
X10178474Y6235178D01*
X10202678Y6210974D01*
X10232321Y6193859D01*
X10265385Y6185000D01*
X10299614D01*
X10332678Y6193859D01*
X10362321Y6210974D01*
X10386525Y6235178D01*
X10403640Y6264822D01*
X10412499Y6297885D01*
Y6332115D01*
X10403640Y6365178D01*
X10386525Y6394822D01*
X10362321Y6419026D01*
X10332678Y6436141D01*
X10299614Y6445000D01*
D02*
G37*
G36*
X7899614D02*
X7865385D01*
X7832321Y6436141D01*
X7802678Y6419026D01*
X7778474Y6394822D01*
X7761359Y6365178D01*
X7752500Y6332115D01*
Y6297885D01*
X7761359Y6264822D01*
X7778474Y6235178D01*
X7802678Y6210974D01*
X7832321Y6193859D01*
X7865385Y6185000D01*
X7899614D01*
X7932678Y6193859D01*
X7962321Y6210974D01*
X7986525Y6235178D01*
X8003640Y6264822D01*
X8012500Y6297885D01*
Y6332115D01*
X8003640Y6365178D01*
X7986525Y6394822D01*
X7962321Y6419026D01*
X7932678Y6436141D01*
X7899614Y6445000D01*
D02*
G37*
G36*
X9454481Y6100000D02*
X9425518D01*
X9397541Y6092503D01*
X9372458Y6078022D01*
X9351978Y6057541D01*
X9337496Y6032458D01*
X9335681Y6025686D01*
X8894318D01*
X8892503Y6032458D01*
X8878021Y6057541D01*
X8857541Y6078022D01*
X8832458Y6092503D01*
X8804481Y6100000D01*
X8775518D01*
X8747541Y6092503D01*
X8722458Y6078022D01*
X8701978Y6057541D01*
X8687496Y6032458D01*
X8680000Y6004482D01*
Y5975518D01*
X8687496Y5947542D01*
X8701978Y5922459D01*
X8722458Y5901978D01*
X8747541Y5887496D01*
X8775518Y5880000D01*
X8804481D01*
X8832458Y5887496D01*
X8857541Y5901978D01*
X8878021Y5922459D01*
X8892503Y5947542D01*
X8894318Y5954314D01*
X9335681D01*
X9337496Y5947542D01*
X9351978Y5922459D01*
X9372458Y5901978D01*
X9397541Y5887496D01*
X9425518Y5880000D01*
X9454481D01*
X9482458Y5887496D01*
X9507541Y5901978D01*
X9528021Y5922459D01*
X9542503Y5947542D01*
X9549999Y5975518D01*
Y6004482D01*
X9542503Y6032458D01*
X9528021Y6057541D01*
X9507541Y6078022D01*
X9482458Y6092503D01*
X9454481Y6100000D01*
D02*
G37*
G36*
X9762312Y6065400D02*
X9760199D01*
Y5927700D01*
X9897899D01*
Y5929813D01*
X9892120Y5958870D01*
X9880782Y5986241D01*
X9864323Y6010874D01*
X9843374Y6031823D01*
X9818741Y6048283D01*
X9791370Y6059620D01*
X9762312Y6065400D01*
D02*
G37*
G36*
X9734799D02*
X9732686D01*
X9703629Y6059620D01*
X9676258Y6048283D01*
X9651625Y6031823D01*
X9630676Y6010874D01*
X9614217Y5986241D01*
X9602879Y5958870D01*
X9597099Y5929813D01*
Y5927700D01*
X9734799D01*
Y6065400D01*
D02*
G37*
G36*
X8497313D02*
X8495200D01*
Y5927700D01*
X8632900D01*
Y5929813D01*
X8627120Y5958870D01*
X8615782Y5986241D01*
X8599323Y6010874D01*
X8578374Y6031823D01*
X8553741Y6048283D01*
X8526370Y6059620D01*
X8497313Y6065400D01*
D02*
G37*
G36*
X8469800D02*
X8467687D01*
X8438630Y6059620D01*
X8411259Y6048283D01*
X8386625Y6031823D01*
X8365676Y6010874D01*
X8349217Y5986241D01*
X8337879Y5958870D01*
X8332100Y5929813D01*
Y5927700D01*
X8469800D01*
Y6065400D01*
D02*
G37*
G36*
X10215500Y5952190D02*
X10175500D01*
X10154616Y5949440D01*
X10135155Y5941380D01*
X10118444Y5928556D01*
X10105620Y5911845D01*
X10097559Y5892384D01*
X10094810Y5871500D01*
X10097559Y5850616D01*
X10105620Y5831155D01*
X10118444Y5814443D01*
X10135155Y5801620D01*
X10154616Y5793559D01*
X10175500Y5790810D01*
X10215500D01*
X10236384Y5793559D01*
X10255845Y5801620D01*
X10272557Y5814443D01*
X10285380Y5831155D01*
X10293441Y5850616D01*
X10296190Y5871500D01*
X10293441Y5892384D01*
X10285380Y5911845D01*
X10272557Y5928556D01*
X10255845Y5941380D01*
X10236384Y5949440D01*
X10215500Y5952190D01*
D02*
G37*
G36*
X8632900Y5902300D02*
X8495200D01*
Y5764600D01*
X8497313D01*
X8526370Y5770380D01*
X8553741Y5781717D01*
X8578374Y5798177D01*
X8599323Y5819126D01*
X8615782Y5843759D01*
X8627120Y5871130D01*
X8632900Y5900187D01*
Y5902300D01*
D02*
G37*
G36*
X8469800D02*
X8332100D01*
Y5900187D01*
X8337879Y5871130D01*
X8349217Y5843759D01*
X8365676Y5819126D01*
X8386625Y5798177D01*
X8411259Y5781717D01*
X8438630Y5770380D01*
X8467687Y5764600D01*
X8469800D01*
Y5902300D01*
D02*
G37*
G36*
X9897899D02*
X9597099D01*
Y5900187D01*
X9602879Y5871130D01*
X9614217Y5843759D01*
X9630676Y5819126D01*
X9651625Y5798177D01*
X9676258Y5781717D01*
X9689668Y5776163D01*
X9693407Y5767119D01*
X9694530Y5757913D01*
X9687500Y5740940D01*
Y5719060D01*
X9689945Y5713157D01*
X9681611Y5700686D01*
X8335965D01*
X8335184Y5703598D01*
X8322019Y5726401D01*
X8303401Y5745019D01*
X8280598Y5758185D01*
X8255165Y5765000D01*
X8228834D01*
X8203401Y5758185D01*
X8180598Y5745019D01*
X8161980Y5726401D01*
X8148815Y5703598D01*
X8142000Y5678165D01*
Y5651835D01*
X8148815Y5626401D01*
X8161980Y5603599D01*
X8180598Y5584980D01*
X8203401Y5571815D01*
X8228834Y5565000D01*
X8255165D01*
X8280598Y5571815D01*
X8303401Y5584980D01*
X8322019Y5603599D01*
X8335184Y5626401D01*
X8335965Y5629314D01*
X9674314D01*
Y5132186D01*
X9363281D01*
X9263185Y5232281D01*
Y5260404D01*
X9274126Y5271345D01*
X9282500Y5291560D01*
Y5313440D01*
X9274126Y5333655D01*
X9258655Y5349126D01*
X9238440Y5357500D01*
X9216560D01*
X9196345Y5349126D01*
X9180873Y5333655D01*
X9172500Y5313440D01*
Y5291560D01*
X9180873Y5271345D01*
X9191814Y5260404D01*
Y5217500D01*
X9194531Y5203843D01*
X9202266Y5192266D01*
X9323266Y5071266D01*
X9334843Y5063531D01*
X9348499Y5060814D01*
X9668224D01*
X9672564Y5045814D01*
X9651625Y5031823D01*
X9630676Y5010874D01*
X9614217Y4986241D01*
X9602879Y4958870D01*
X9597099Y4929813D01*
Y4927700D01*
X9897899D01*
Y4929813D01*
X9892120Y4958870D01*
X9880782Y4986241D01*
X9864323Y5010874D01*
X9843374Y5031823D01*
X9822435Y5045814D01*
X9826775Y5060814D01*
X10049727D01*
X10057484Y5047379D01*
X10072379Y5032484D01*
X10090621Y5021952D01*
X10110968Y5016500D01*
X10132032D01*
X10152379Y5021952D01*
X10170621Y5032484D01*
X10185516Y5047379D01*
X10196048Y5065621D01*
X10201500Y5085968D01*
Y5107032D01*
X10196048Y5127379D01*
X10185516Y5145621D01*
X10170621Y5160516D01*
X10152379Y5171048D01*
X10145787Y5172814D01*
X10147762Y5187814D01*
X10303727D01*
X10311484Y5174379D01*
X10326379Y5159484D01*
X10344621Y5148952D01*
X10364968Y5143500D01*
X10386032D01*
X10406379Y5148952D01*
X10424621Y5159484D01*
X10439516Y5174379D01*
X10450048Y5192621D01*
X10455500Y5212968D01*
Y5234032D01*
X10450048Y5254379D01*
X10439516Y5272621D01*
X10424621Y5287516D01*
X10406379Y5298048D01*
X10386032Y5303500D01*
X10364968D01*
X10344621Y5298048D01*
X10326379Y5287516D01*
X10311484Y5272621D01*
X10303727Y5259186D01*
X10147762D01*
X10145787Y5274186D01*
X10152379Y5275952D01*
X10170621Y5286484D01*
X10185516Y5301379D01*
X10196048Y5319621D01*
X10201500Y5339968D01*
Y5361032D01*
X10196048Y5381379D01*
X10185516Y5399621D01*
X10170621Y5414516D01*
X10152379Y5425048D01*
X10132032Y5430500D01*
X10110968D01*
X10090621Y5425048D01*
X10072379Y5414516D01*
X10057484Y5399621D01*
X10046952Y5381379D01*
X10041500Y5361032D01*
Y5339968D01*
X10046952Y5319621D01*
X10057484Y5301379D01*
X10072379Y5286484D01*
X10090621Y5275952D01*
X10097213Y5274186D01*
X10095238Y5259186D01*
X10064190D01*
X9884830Y5438546D01*
Y5454019D01*
X9876456Y5474233D01*
X9860985Y5489705D01*
X9840770Y5498078D01*
X9818890D01*
X9798675Y5489705D01*
X9783203Y5474233D01*
X9774830Y5454019D01*
Y5432138D01*
X9783203Y5411924D01*
X9798675Y5396452D01*
X9818890Y5388079D01*
X9834363D01*
X10024175Y5198266D01*
X10035752Y5190531D01*
X10049409Y5187814D01*
X10095238D01*
X10097213Y5172814D01*
X10090621Y5171048D01*
X10072379Y5160516D01*
X10057484Y5145621D01*
X10049727Y5132186D01*
X9745685D01*
Y5650218D01*
X9763907Y5668440D01*
X9771642Y5680017D01*
X9772189Y5682766D01*
X9773655Y5683373D01*
X9789126Y5698845D01*
X9797500Y5719060D01*
Y5740940D01*
X9791619Y5755135D01*
X9791574Y5757934D01*
X9796351Y5770709D01*
X9798260Y5773234D01*
X9818741Y5781717D01*
X9843374Y5798177D01*
X9864323Y5819126D01*
X9880782Y5843759D01*
X9892120Y5871130D01*
X9897899Y5900187D01*
Y5902300D01*
D02*
G37*
G36*
X10386032Y5811500D02*
X10364968D01*
X10344621Y5806048D01*
X10326379Y5795516D01*
X10311484Y5780621D01*
X10300952Y5762379D01*
X10295500Y5742032D01*
Y5720968D01*
X10300952Y5700621D01*
X10311484Y5682379D01*
X10326379Y5667484D01*
X10344621Y5656952D01*
X10364968Y5651500D01*
X10386032D01*
X10406379Y5656952D01*
X10424621Y5667484D01*
X10439516Y5682379D01*
X10450048Y5700621D01*
X10455500Y5720968D01*
Y5742032D01*
X10450048Y5762379D01*
X10439516Y5780621D01*
X10424621Y5795516D01*
X10406379Y5806048D01*
X10386032Y5811500D01*
D02*
G37*
G36*
X10134200Y5689509D02*
Y5617200D01*
X10206509D01*
X10201080Y5637463D01*
X10189837Y5656937D01*
X10173937Y5672837D01*
X10154463Y5684080D01*
X10134200Y5689509D01*
D02*
G37*
G36*
X10108800D02*
X10088537Y5684080D01*
X10069063Y5672837D01*
X10053163Y5656937D01*
X10041920Y5637463D01*
X10036490Y5617200D01*
X10108800D01*
Y5689509D01*
D02*
G37*
G36*
Y5591800D02*
X10036490D01*
X10041920Y5571537D01*
X10053163Y5552063D01*
X10069063Y5536163D01*
X10088537Y5524920D01*
X10108800Y5519490D01*
Y5591800D01*
D02*
G37*
G36*
X10206509D02*
X10134200D01*
Y5519490D01*
X10154463Y5524920D01*
X10173937Y5536163D01*
X10189837Y5552063D01*
X10201080Y5571537D01*
X10206509Y5591800D01*
D02*
G37*
G36*
X10386032Y5557500D02*
X10364968D01*
X10344621Y5552048D01*
X10326379Y5541516D01*
X10311484Y5526621D01*
X10300952Y5508379D01*
X10295500Y5488032D01*
Y5466968D01*
X10300952Y5446621D01*
X10311484Y5428379D01*
X10326379Y5413484D01*
X10344621Y5402952D01*
X10364968Y5397500D01*
X10386032D01*
X10406379Y5402952D01*
X10424621Y5413484D01*
X10439516Y5428379D01*
X10450048Y5446621D01*
X10455500Y5466968D01*
Y5488032D01*
X10450048Y5508379D01*
X10439516Y5526621D01*
X10424621Y5541516D01*
X10406379Y5552048D01*
X10386032Y5557500D01*
D02*
G37*
G36*
X8255165Y5515000D02*
X8228834D01*
X8203401Y5508185D01*
X8180598Y5495019D01*
X8161980Y5476401D01*
X8148815Y5453598D01*
X8142000Y5428165D01*
Y5401835D01*
X8148815Y5376401D01*
X8161980Y5353599D01*
X8180598Y5334980D01*
X8203401Y5321815D01*
X8228834Y5315000D01*
X8255165D01*
X8280598Y5321815D01*
X8303401Y5334980D01*
X8322019Y5353599D01*
X8335184Y5376401D01*
X8335965Y5379314D01*
X9290218D01*
X9362500Y5307032D01*
Y5291560D01*
X9370873Y5271345D01*
X9386345Y5255873D01*
X9406560Y5247500D01*
X9428440D01*
X9448654Y5255873D01*
X9464126Y5271345D01*
X9472499Y5291560D01*
Y5313440D01*
X9464126Y5333655D01*
X9448654Y5349126D01*
X9428440Y5357500D01*
X9412967D01*
X9330233Y5440233D01*
X9318656Y5447969D01*
X9304999Y5450686D01*
X8335965D01*
X8335184Y5453598D01*
X8322019Y5476401D01*
X8303401Y5495019D01*
X8280598Y5508185D01*
X8255165Y5515000D01*
D02*
G37*
G36*
X8255876Y5270400D02*
X8254700D01*
Y5177700D01*
X8347399D01*
Y5178876D01*
X8340216Y5205683D01*
X8326340Y5229717D01*
X8306717Y5249341D01*
X8282682Y5263217D01*
X8255876Y5270400D01*
D02*
G37*
G36*
X8229300D02*
X8228123D01*
X8201317Y5263217D01*
X8177282Y5249341D01*
X8157659Y5229717D01*
X8143783Y5205683D01*
X8136600Y5178876D01*
Y5177700D01*
X8229300D01*
Y5270400D01*
D02*
G37*
G36*
X8347399Y5152300D02*
X8254700D01*
Y5059600D01*
X8255876D01*
X8282682Y5066783D01*
X8306717Y5080659D01*
X8326340Y5100283D01*
X8340216Y5124317D01*
X8347399Y5151124D01*
Y5152300D01*
D02*
G37*
G36*
X8229300D02*
X8136600D01*
Y5151124D01*
X8143783Y5124317D01*
X8157659Y5100283D01*
X8177282Y5080659D01*
X8201317Y5066783D01*
X8228123Y5059600D01*
X8229300D01*
Y5152300D01*
D02*
G37*
G36*
X8497313Y5065400D02*
X8495200D01*
Y4927700D01*
X8632900D01*
Y4929813D01*
X8627120Y4958870D01*
X8615782Y4986241D01*
X8599323Y5010874D01*
X8578374Y5031823D01*
X8553741Y5048283D01*
X8526370Y5059620D01*
X8497313Y5065400D01*
D02*
G37*
G36*
X8469800D02*
X8467687D01*
X8438630Y5059620D01*
X8411259Y5048283D01*
X8386625Y5031823D01*
X8365676Y5010874D01*
X8349217Y4986241D01*
X8337879Y4958870D01*
X8332100Y4929813D01*
Y4927700D01*
X8469800D01*
Y5065400D01*
D02*
G37*
G36*
X9897899Y4902300D02*
X9760199D01*
Y4764600D01*
X9762312D01*
X9791370Y4770380D01*
X9818741Y4781717D01*
X9843374Y4798177D01*
X9864323Y4819125D01*
X9880782Y4843759D01*
X9892120Y4871130D01*
X9897899Y4900187D01*
Y4902300D01*
D02*
G37*
G36*
X9734799D02*
X9597099D01*
Y4900187D01*
X9602879Y4871130D01*
X9614217Y4843759D01*
X9630676Y4819125D01*
X9651625Y4798177D01*
X9676258Y4781717D01*
X9703629Y4770380D01*
X9732686Y4764600D01*
X9734799D01*
Y4902300D01*
D02*
G37*
G36*
X8632900D02*
X8495200D01*
Y4764600D01*
X8497313D01*
X8526370Y4770380D01*
X8553741Y4781717D01*
X8578374Y4798177D01*
X8599323Y4819125D01*
X8615782Y4843759D01*
X8627120Y4871130D01*
X8632900Y4900187D01*
Y4902300D01*
D02*
G37*
G36*
X8469800D02*
X8332100D01*
Y4900187D01*
X8337879Y4871130D01*
X8349217Y4843759D01*
X8365676Y4819125D01*
X8386625Y4798177D01*
X8411259Y4781717D01*
X8438630Y4770380D01*
X8467687Y4764600D01*
X8469800D01*
Y4902300D01*
D02*
G37*
G36*
X9378876Y4647400D02*
X9377700D01*
Y4554700D01*
X9470399D01*
Y4555876D01*
X9463217Y4582683D01*
X9449341Y4606717D01*
X9429717Y4626341D01*
X9405682Y4640217D01*
X9378876Y4647400D01*
D02*
G37*
G36*
X9352300D02*
X9351123D01*
X9324317Y4640217D01*
X9300282Y4626341D01*
X9280659Y4606717D01*
X9266783Y4582683D01*
X9259600Y4555876D01*
Y4554700D01*
X9352300D01*
Y4647400D01*
D02*
G37*
G36*
X9128165Y4642000D02*
X9101834D01*
X9076401Y4635185D01*
X9053598Y4622019D01*
X9034980Y4603401D01*
X9021815Y4580598D01*
X9015000Y4555165D01*
Y4528834D01*
X9021815Y4503401D01*
X9034980Y4480599D01*
X9053598Y4461980D01*
X9076401Y4448815D01*
X9101834Y4442000D01*
X9128165D01*
X9153598Y4448815D01*
X9176401Y4461980D01*
X9195019Y4480599D01*
X9208185Y4503401D01*
X9214999Y4528834D01*
Y4555165D01*
X9208185Y4580598D01*
X9195019Y4603401D01*
X9176401Y4622019D01*
X9153598Y4635185D01*
X9128165Y4642000D01*
D02*
G37*
G36*
X8878165D02*
X8851834D01*
X8826401Y4635185D01*
X8803598Y4622019D01*
X8784980Y4603401D01*
X8771815Y4580598D01*
X8765000Y4555165D01*
Y4528834D01*
X8771815Y4503401D01*
X8784980Y4480599D01*
X8803598Y4461980D01*
X8826401Y4448815D01*
X8851834Y4442000D01*
X8878165D01*
X8903598Y4448815D01*
X8926401Y4461980D01*
X8945019Y4480599D01*
X8958185Y4503401D01*
X8964999Y4528834D01*
Y4555165D01*
X8958185Y4580598D01*
X8945019Y4603401D01*
X8926401Y4622019D01*
X8903598Y4635185D01*
X8878165Y4642000D01*
D02*
G37*
G36*
X9470399Y4529300D02*
X9377700D01*
Y4436600D01*
X9378876D01*
X9405682Y4443783D01*
X9429717Y4457659D01*
X9449341Y4477283D01*
X9463217Y4501317D01*
X9470399Y4528124D01*
Y4529300D01*
D02*
G37*
G36*
X9352300D02*
X9259600D01*
Y4528124D01*
X9266783Y4501317D01*
X9280659Y4477283D01*
X9300282Y4457659D01*
X9324317Y4443783D01*
X9351123Y4436600D01*
X9352300D01*
Y4529300D01*
D02*
G37*
G36*
X10299614Y4645000D02*
X10265385D01*
X10232321Y4636141D01*
X10202678Y4619026D01*
X10178474Y4594822D01*
X10161359Y4565178D01*
X10152499Y4532115D01*
Y4497885D01*
X10161359Y4464822D01*
X10178474Y4435178D01*
X10202678Y4410974D01*
X10232321Y4393859D01*
X10265385Y4385000D01*
X10299614D01*
X10332678Y4393859D01*
X10362321Y4410974D01*
X10386525Y4435178D01*
X10403640Y4464822D01*
X10412499Y4497885D01*
Y4532115D01*
X10403640Y4565178D01*
X10386525Y4594822D01*
X10362321Y4619026D01*
X10332678Y4636141D01*
X10299614Y4645000D01*
D02*
G37*
G36*
X7899614D02*
X7865385D01*
X7832321Y4636141D01*
X7802678Y4619026D01*
X7778474Y4594822D01*
X7761359Y4565178D01*
X7752500Y4532115D01*
Y4497885D01*
X7761359Y4464822D01*
X7778474Y4435178D01*
X7802678Y4410974D01*
X7832321Y4393859D01*
X7865385Y4385000D01*
X7899614D01*
X7932678Y4393859D01*
X7962321Y4410974D01*
X7986525Y4435178D01*
X8003640Y4464822D01*
X8012500Y4497885D01*
Y4532115D01*
X8003640Y4565178D01*
X7986525Y4594822D01*
X7962321Y4619026D01*
X7932678Y4636141D01*
X7899614Y4645000D01*
D02*
G37*
G36*
X6899614Y3894500D02*
X6865385D01*
X6832321Y3885641D01*
X6802678Y3868526D01*
X6778474Y3844322D01*
X6761359Y3814679D01*
X6752500Y3781615D01*
Y3747386D01*
X6761359Y3714322D01*
X6778474Y3684679D01*
X6802678Y3660475D01*
X6832321Y3643360D01*
X6865385Y3634500D01*
X6899614D01*
X6932678Y3643360D01*
X6962321Y3660475D01*
X6986525Y3684679D01*
X7003640Y3714322D01*
X7012500Y3747386D01*
Y3781615D01*
X7003640Y3814679D01*
X6986525Y3844322D01*
X6962321Y3868526D01*
X6932678Y3885641D01*
X6899614Y3894500D01*
D02*
G37*
G36*
X5899614D02*
X5865385D01*
X5832321Y3885641D01*
X5802678Y3868526D01*
X5778474Y3844322D01*
X5761359Y3814679D01*
X5752500Y3781615D01*
Y3747386D01*
X5761359Y3714322D01*
X5778474Y3684679D01*
X5802678Y3660475D01*
X5832321Y3643360D01*
X5865385Y3634500D01*
X5899614D01*
X5932678Y3643360D01*
X5962321Y3660475D01*
X5986525Y3684679D01*
X6003640Y3714322D01*
X6012500Y3747386D01*
Y3781615D01*
X6003640Y3814679D01*
X5986525Y3844322D01*
X5962321Y3868526D01*
X5932678Y3885641D01*
X5899614Y3894500D01*
D02*
G37*
G36*
X6425699Y3452863D02*
Y3370200D01*
X6508362D01*
X6501898Y3394323D01*
X6489338Y3416077D01*
X6471576Y3433839D01*
X6449822Y3446399D01*
X6425699Y3452863D01*
D02*
G37*
G36*
X5925699D02*
Y3370200D01*
X6008362D01*
X6001898Y3394323D01*
X5989338Y3416077D01*
X5971576Y3433839D01*
X5949822Y3446399D01*
X5925699Y3452863D01*
D02*
G37*
G36*
X6400299Y3452862D02*
X6376176Y3446399D01*
X6354422Y3433839D01*
X6336660Y3416077D01*
X6324101Y3394323D01*
X6317637Y3370200D01*
X6400299D01*
Y3452862D01*
D02*
G37*
G36*
X5900299D02*
X5876176Y3446399D01*
X5854422Y3433839D01*
X5836660Y3416077D01*
X5824101Y3394323D01*
X5817637Y3370200D01*
X5900299D01*
Y3452862D01*
D02*
G37*
G36*
Y3344800D02*
X5817637D01*
X5824101Y3320677D01*
X5836660Y3298923D01*
X5854422Y3281161D01*
X5876176Y3268602D01*
X5900299Y3262138D01*
Y3344800D01*
D02*
G37*
G36*
X6008362D02*
X5925699D01*
Y3262138D01*
X5949822Y3268602D01*
X5971576Y3281161D01*
X5989338Y3298923D01*
X6001898Y3320677D01*
X6008362Y3344800D01*
D02*
G37*
G36*
X6174848Y3447500D02*
X6151151D01*
X6128261Y3441367D01*
X6107738Y3429518D01*
X6090982Y3412761D01*
X6079133Y3392239D01*
X6073000Y3369349D01*
Y3345652D01*
X6079133Y3322762D01*
X6090982Y3302239D01*
X6107738Y3285483D01*
X6128261Y3273634D01*
X6151151Y3267500D01*
X6174848D01*
X6196682Y3273351D01*
X6242766Y3227267D01*
X6254343Y3219531D01*
X6267999Y3216815D01*
X6620500D01*
X6634156Y3219531D01*
X6645733Y3227267D01*
X6653467Y3235001D01*
X6702999D01*
Y3375000D01*
X6602999D01*
Y3288186D01*
X6498110D01*
X6491800Y3303186D01*
X6501898Y3320677D01*
X6508362Y3344800D01*
X6412999D01*
X6317637D01*
X6324101Y3320677D01*
X6334199Y3303186D01*
X6327889Y3288186D01*
X6282781D01*
X6247149Y3323818D01*
X6252999Y3345652D01*
Y3369349D01*
X6246866Y3392239D01*
X6235017Y3412761D01*
X6218260Y3429518D01*
X6197738Y3441367D01*
X6174848Y3447500D01*
D02*
G37*
G36*
X7020032Y3344500D02*
X6998967D01*
X6978621Y3339048D01*
X6960379Y3328516D01*
X6945484Y3313622D01*
X6934952Y3295379D01*
X6929500Y3275033D01*
Y3253968D01*
X6934952Y3233622D01*
X6945484Y3215379D01*
X6960379Y3200485D01*
X6978621Y3189952D01*
X6998967Y3184501D01*
X7020032D01*
X7040378Y3189952D01*
X7058621Y3200485D01*
X7073515Y3215379D01*
X7084048Y3233622D01*
X7089499Y3253968D01*
Y3275033D01*
X7084048Y3295379D01*
X7073515Y3313622D01*
X7058621Y3328516D01*
X7040378Y3339048D01*
X7020032Y3344500D01*
D02*
G37*
G36*
X6766032Y3217500D02*
X6744967D01*
X6724621Y3212048D01*
X6706379Y3201516D01*
X6691484Y3186622D01*
X6680952Y3168379D01*
X6675500Y3148033D01*
Y3126968D01*
X6680952Y3106622D01*
X6691484Y3088379D01*
X6706379Y3073485D01*
X6724621Y3062952D01*
X6744967Y3057501D01*
X6766032D01*
X6786378Y3062952D01*
X6804621Y3073485D01*
X6819515Y3088379D01*
X6830048Y3106622D01*
X6835499Y3126968D01*
Y3148033D01*
X6830048Y3168379D01*
X6819515Y3186622D01*
X6804621Y3201516D01*
X6786378Y3212048D01*
X6766032Y3217500D01*
D02*
G37*
G36*
X6843000Y3375000D02*
X6743000D01*
Y3235001D01*
X6792532D01*
X6956593Y3070940D01*
Y3070731D01*
X6945484Y3059622D01*
X6934952Y3041379D01*
X6929500Y3021033D01*
Y2999968D01*
X6934952Y2979622D01*
X6945484Y2961379D01*
X6960379Y2946485D01*
X6978621Y2935952D01*
X6998967Y2930501D01*
X7020032D01*
X7040378Y2935952D01*
X7058621Y2946485D01*
X7073515Y2961379D01*
X7084048Y2979622D01*
X7089499Y2999968D01*
Y3021033D01*
X7084048Y3041379D01*
X7073515Y3059622D01*
X7058621Y3074516D01*
X7040378Y3085048D01*
X7027407Y3088524D01*
X7025248Y3099377D01*
X7017513Y3110955D01*
X6843000Y3285468D01*
Y3375000D01*
D02*
G37*
G36*
X6768200Y2968510D02*
Y2896201D01*
X6840509D01*
X6835080Y2916464D01*
X6823836Y2935937D01*
X6807936Y2951837D01*
X6788463Y2963080D01*
X6768200Y2968510D01*
D02*
G37*
G36*
X6742800D02*
X6722536Y2963080D01*
X6703063Y2951837D01*
X6687163Y2935937D01*
X6675920Y2916464D01*
X6670490Y2896201D01*
X6742800D01*
Y2968510D01*
D02*
G37*
G36*
X6425699Y2912863D02*
Y2830200D01*
X6508362D01*
X6501898Y2854323D01*
X6489338Y2876077D01*
X6471576Y2893839D01*
X6449822Y2906399D01*
X6425699Y2912863D01*
D02*
G37*
G36*
X6175699D02*
Y2830200D01*
X6258362D01*
X6251898Y2854323D01*
X6239338Y2876077D01*
X6221576Y2893839D01*
X6199822Y2906399D01*
X6175699Y2912863D01*
D02*
G37*
G36*
X6400299Y2912862D02*
X6376176Y2906399D01*
X6354422Y2893839D01*
X6336660Y2876077D01*
X6324101Y2854323D01*
X6317637Y2830200D01*
X6400299D01*
Y2912862D01*
D02*
G37*
G36*
X6150299D02*
X6126176Y2906399D01*
X6104422Y2893839D01*
X6086660Y2876077D01*
X6074101Y2854323D01*
X6067637Y2830200D01*
X6150299D01*
Y2912862D01*
D02*
G37*
G36*
X6840509Y2870801D02*
X6768200D01*
Y2798491D01*
X6788463Y2803920D01*
X6807936Y2815164D01*
X6823836Y2831064D01*
X6835080Y2850537D01*
X6840509Y2870801D01*
D02*
G37*
G36*
X6742800D02*
X6670490D01*
X6675920Y2850537D01*
X6687163Y2831064D01*
X6703063Y2815164D01*
X6722536Y2803920D01*
X6742800Y2798491D01*
Y2870801D01*
D02*
G37*
G36*
X5924848Y2907500D02*
X5901151D01*
X5878261Y2901367D01*
X5857738Y2889518D01*
X5840982Y2872761D01*
X5829133Y2852239D01*
X5823000Y2829349D01*
Y2805652D01*
X5829133Y2782762D01*
X5840982Y2762239D01*
X5857738Y2745483D01*
X5878261Y2733634D01*
X5901151Y2727501D01*
X5924848D01*
X5947738Y2733634D01*
X5968260Y2745483D01*
X5985017Y2762239D01*
X5996866Y2782762D01*
X6002999Y2805652D01*
Y2829349D01*
X5996866Y2852239D01*
X5985017Y2872761D01*
X5968260Y2889518D01*
X5947738Y2901367D01*
X5924848Y2907500D01*
D02*
G37*
G36*
X6400299Y2804800D02*
X6317637D01*
X6324101Y2780677D01*
X6336660Y2758923D01*
X6354422Y2741161D01*
X6376176Y2728602D01*
X6400299Y2722138D01*
Y2804800D01*
D02*
G37*
G36*
X6150299D02*
X6067637D01*
X6074101Y2780677D01*
X6086660Y2758923D01*
X6104422Y2741161D01*
X6126176Y2728602D01*
X6150299Y2722138D01*
Y2804800D01*
D02*
G37*
G36*
X6508362D02*
X6425699D01*
Y2722138D01*
X6449822Y2728602D01*
X6471576Y2741161D01*
X6489338Y2758923D01*
X6501898Y2780677D01*
X6508362Y2804800D01*
D02*
G37*
G36*
X6258362D02*
X6175699D01*
Y2722138D01*
X6199822Y2728602D01*
X6221576Y2741161D01*
X6239338Y2758923D01*
X6251898Y2780677D01*
X6258362Y2804800D01*
D02*
G37*
G36*
X6955499Y2824191D02*
X6915500D01*
X6894615Y2821441D01*
X6875154Y2813380D01*
X6858443Y2800557D01*
X6845620Y2783846D01*
X6837559Y2764385D01*
X6834809Y2743500D01*
X6837559Y2722616D01*
X6845620Y2703155D01*
X6858443Y2686444D01*
X6875154Y2673621D01*
X6894615Y2665560D01*
X6915500Y2662810D01*
X6955499D01*
X6976384Y2665560D01*
X6995845Y2673621D01*
X7012556Y2686444D01*
X7025379Y2703155D01*
X7033440Y2722616D01*
X7036190Y2743500D01*
X7033440Y2764385D01*
X7025379Y2783846D01*
X7012556Y2800557D01*
X6995845Y2813380D01*
X6976384Y2821441D01*
X6955499Y2824191D01*
D02*
G37*
G36*
X6899614Y2594501D02*
X6865385D01*
X6832321Y2585641D01*
X6802678Y2568526D01*
X6778474Y2544322D01*
X6761359Y2514679D01*
X6752500Y2481615D01*
Y2447386D01*
X6761359Y2414322D01*
X6778474Y2384679D01*
X6802678Y2360475D01*
X6832321Y2343360D01*
X6865385Y2334501D01*
X6899614D01*
X6932678Y2343360D01*
X6962321Y2360475D01*
X6986525Y2384679D01*
X7003640Y2414322D01*
X7012500Y2447386D01*
Y2481615D01*
X7003640Y2514679D01*
X6986525Y2544322D01*
X6962321Y2568526D01*
X6932678Y2585641D01*
X6899614Y2594501D01*
D02*
G37*
G36*
X5899614D02*
X5865385D01*
X5832321Y2585641D01*
X5802678Y2568526D01*
X5778474Y2544322D01*
X5761359Y2514679D01*
X5752500Y2481615D01*
Y2447386D01*
X5761359Y2414322D01*
X5778474Y2384679D01*
X5802678Y2360475D01*
X5832321Y2343360D01*
X5865385Y2334501D01*
X5899614D01*
X5932678Y2343360D01*
X5962321Y2360475D01*
X5986525Y2384679D01*
X6003640Y2414322D01*
X6012500Y2447386D01*
Y2481615D01*
X6003640Y2514679D01*
X5986525Y2544322D01*
X5962321Y2568526D01*
X5932678Y2585641D01*
X5899614Y2594501D01*
D02*
G37*
G36*
X9970000Y3297500D02*
Y3297500D01*
X9870000D01*
Y3281495D01*
X9861054Y3276734D01*
X9855000Y3274605D01*
X9835940Y3282500D01*
X9814060D01*
X9793845Y3274127D01*
X9782904Y3263186D01*
X9777708D01*
X9764052Y3260469D01*
X9752475Y3252734D01*
X9717475Y3217734D01*
X9717474Y3217733D01*
X9623510Y3123769D01*
X9597947Y3149332D01*
X9592741Y3162175D01*
X9586969Y3167947D01*
X9541334Y3213582D01*
X9473876Y3146124D01*
X9464896Y3155104D01*
X9455916Y3146124D01*
X9395529Y3206511D01*
X9337051Y3148033D01*
X9343871Y3141213D01*
X9300309Y3097652D01*
X9339484Y3058478D01*
X9378657Y3019304D01*
X9422218Y3062866D01*
X9437339Y3047745D01*
X9436077Y3027793D01*
X9344645Y2936360D01*
X9415355Y2865650D01*
X9439619Y2889914D01*
X9451813Y2877719D01*
X9395178Y2821084D01*
X9426715Y2789547D01*
X9422896Y2785729D01*
X9442483Y2766142D01*
X9509941Y2833600D01*
X9527901Y2815639D01*
X9460444Y2748181D01*
X9461585Y2747040D01*
X9414544Y2699999D01*
X9400686Y2705739D01*
Y2766408D01*
X9397969Y2780065D01*
X9390234Y2791642D01*
X9296667Y2885208D01*
X9293745Y2887161D01*
X9232543Y2948363D01*
X9147690Y2863510D01*
X9112335Y2828155D01*
X9091122Y2806942D01*
X9041625Y2757444D01*
X8985519Y2701339D01*
X8926451Y2760407D01*
X8915387Y2767800D01*
X8902335Y2770396D01*
X8728557D01*
X8715506Y2767800D01*
X8704441Y2760407D01*
X8678212Y2734178D01*
X8668941Y2727983D01*
X8664082Y2723124D01*
X8612856Y2774350D01*
X8542145Y2703640D01*
X8443150Y2604645D01*
X8493701Y2554094D01*
X8438244Y2498637D01*
X8437467Y2497475D01*
X8368178Y2428186D01*
X8347547D01*
X8347098Y2428486D01*
X8344508Y2434739D01*
X8331746Y2447500D01*
X8344508Y2460261D01*
X8352500Y2479557D01*
Y2500443D01*
X8344508Y2519739D01*
X8331747Y2532500D01*
X8344508Y2545261D01*
X8352500Y2564557D01*
Y2585443D01*
X8344508Y2604739D01*
X8335565Y2613682D01*
X8336883Y2615000D01*
X8334246D01*
X8329739Y2619507D01*
X8310443Y2627500D01*
X8289557D01*
X8270261Y2619507D01*
X8265754Y2615000D01*
X8199246D01*
X8194739Y2619507D01*
X8175443Y2627500D01*
X8154557D01*
X8135261Y2619507D01*
X8130754Y2615000D01*
X8128117D01*
X8129436Y2613682D01*
X8120493Y2604739D01*
X8117875Y2598418D01*
X8110570Y2593537D01*
X8072266Y2555234D01*
X8064531Y2543656D01*
X8061814Y2530000D01*
Y2192500D01*
X8064531Y2178844D01*
X8072266Y2167267D01*
X8108070Y2131463D01*
X8118831Y2124273D01*
X8120493Y2120261D01*
X8135261Y2105493D01*
X8154557Y2097500D01*
X8175443D01*
X8194739Y2105493D01*
X8270261D01*
X8289557Y2097500D01*
X8310443D01*
X8329739Y2105493D01*
X8344508Y2120261D01*
X8352500Y2139557D01*
Y2160443D01*
X8350707Y2164772D01*
X8350739Y2164804D01*
X8350537Y2165182D01*
X8344508Y2179739D01*
X8337884Y2186362D01*
X8344895Y2200564D01*
X8362500D01*
Y2187500D01*
X8502500D01*
Y2287500D01*
X8430463D01*
X8425913Y2302500D01*
X8433046Y2307266D01*
X8548711Y2422931D01*
X8549487Y2424093D01*
X8586594Y2461200D01*
X8634479Y2413316D01*
X8628515Y2407353D01*
X8658708Y2377160D01*
X8712024Y2430475D01*
X8765340Y2483792D01*
X8737813Y2511318D01*
X8806850Y2580355D01*
X8755624Y2631581D01*
X8760484Y2636441D01*
X8766393Y2645285D01*
X8870014D01*
X8899740Y2615559D01*
X8882808Y2598628D01*
X8878990Y2602446D01*
X8859404Y2582860D01*
X8926862Y2515402D01*
X8908901Y2497442D01*
X8841443Y2564900D01*
X8821856Y2545312D01*
X8825674Y2541494D01*
X8794137Y2509957D01*
X8868107Y2435986D01*
X8870061Y2433063D01*
X8875078Y2428046D01*
X8844264Y2397231D01*
X8834142Y2407353D01*
X8735147Y2308358D01*
X8754019Y2289486D01*
X8677033Y2212500D01*
X8661560D01*
X8641345Y2204126D01*
X8625874Y2188655D01*
X8625244Y2187136D01*
X8621819Y2185632D01*
X8608023Y2184758D01*
X8596155Y2196627D01*
X8575940Y2205000D01*
X8554060D01*
X8533845Y2196627D01*
X8518373Y2181155D01*
X8511693Y2165028D01*
D01*
X8510000Y2160940D01*
Y2139060D01*
X8518373Y2118845D01*
X8529314Y2107904D01*
Y2051000D01*
X8532031Y2037344D01*
X8535000Y2032900D01*
Y2021054D01*
X8525940Y2015000D01*
X8504060D01*
X8483845Y2006626D01*
X8469719Y1992500D01*
X8295965D01*
X8293969Y1993327D01*
X8277000Y1995561D01*
X8127000D01*
X8110032Y1993327D01*
X8108036Y1992500D01*
X8094220Y1986777D01*
X8080642Y1976358D01*
X8070223Y1962780D01*
X8063673Y1946968D01*
X8061439Y1930000D01*
X8063673Y1913031D01*
X8070223Y1897219D01*
X8080642Y1883642D01*
X8094220Y1873223D01*
X8110032Y1866673D01*
X8127000Y1864439D01*
X8277000D01*
X8293969Y1866673D01*
X8309781Y1873223D01*
X8323359Y1883642D01*
X8333777Y1897219D01*
X8335000Y1900171D01*
X8350000Y1897187D01*
Y1794000D01*
X8505000D01*
Y1898324D01*
X8511676Y1905000D01*
X8525940D01*
X8546155Y1913373D01*
X8561627Y1928845D01*
X8570000Y1949060D01*
Y1970940D01*
X8567610Y1976710D01*
X8580326Y1985207D01*
X8660000Y1905533D01*
Y1794000D01*
X8815000D01*
X8887093Y1721907D01*
X8885958Y1706945D01*
X8866169Y1695519D01*
X8848481Y1677831D01*
X8835974Y1656169D01*
X8829500Y1632007D01*
Y1606993D01*
X8835974Y1582832D01*
X8848481Y1561169D01*
X8866169Y1543482D01*
X8887831Y1530975D01*
X8911993Y1524500D01*
X8937007D01*
X8961168Y1530975D01*
X8982831Y1543482D01*
X9000518Y1561169D01*
X9013025Y1582832D01*
X9019500Y1606993D01*
Y1611320D01*
X9034500Y1617533D01*
X9168814Y1483219D01*
Y1465500D01*
X9104500D01*
Y1265500D01*
X9304500D01*
Y1414257D01*
X9318358Y1419997D01*
X9358751Y1379604D01*
X9358500Y1378666D01*
Y1352335D01*
X9365315Y1326902D01*
X9378480Y1304099D01*
X9397099Y1285481D01*
X9419901Y1272315D01*
X9445334Y1265500D01*
X9471665D01*
X9497098Y1272315D01*
X9519901Y1285481D01*
X9538519Y1304099D01*
X9551685Y1326902D01*
X9558500Y1352335D01*
Y1378666D01*
X9557162Y1383657D01*
X9570611Y1391422D01*
X9596892Y1365141D01*
X9608469Y1357405D01*
X9612500Y1356603D01*
Y1352335D01*
X9619315Y1326902D01*
X9632480Y1304099D01*
X9651099Y1285481D01*
X9673901Y1272315D01*
X9699334Y1265500D01*
X9725665D01*
X9751098Y1272315D01*
X9773901Y1285481D01*
X9792519Y1304099D01*
X9805685Y1326902D01*
X9812500Y1352335D01*
Y1378666D01*
X9805685Y1404099D01*
X9792519Y1426901D01*
X9773901Y1445520D01*
X9751098Y1458685D01*
X9725665Y1465500D01*
X9699334D01*
X9673901Y1458685D01*
X9651099Y1445520D01*
X9634273Y1428694D01*
X9555234Y1507734D01*
X9543656Y1515469D01*
X9530000Y1518186D01*
X9394782D01*
X9378549Y1534418D01*
X9160686Y1752281D01*
Y1838463D01*
X9161833Y1852348D01*
Y1852348D01*
X9161833Y1852348D01*
X9223034Y1913549D01*
X9225957Y1915502D01*
X9277727Y1967273D01*
X9298456Y1946544D01*
X9269141Y1917230D01*
X9266218Y1915277D01*
X9246200Y1895259D01*
X9244247Y1892336D01*
X9183046Y1831135D01*
X9232543Y1781637D01*
X9261426Y1810520D01*
X9272500Y1820000D01*
X9444944Y1647557D01*
Y1600812D01*
X9447515Y1603383D01*
X9448771Y1604638D01*
X9451916Y1604360D01*
X9451916Y1604360D01*
X9451917Y1604360D01*
D01*
X9465706Y1602950D01*
X9466338Y1601425D01*
X9481809Y1585953D01*
X9502024Y1577580D01*
X9523904D01*
X9544119Y1585953D01*
X9559591Y1601425D01*
X9567964Y1621639D01*
X9582964Y1628912D01*
X9583584Y1628789D01*
X9593664Y1615500D01*
X9593283Y1613584D01*
X9596414Y1597842D01*
X9605331Y1584497D01*
X9608057Y1581771D01*
X9648143Y1621857D01*
X9657123Y1612877D01*
X9666104Y1621857D01*
X9706897Y1581064D01*
X9708916Y1583082D01*
X9717833Y1596428D01*
X9718140Y1597971D01*
X9734112Y1605205D01*
X9734858Y1605134D01*
X9744142Y1603288D01*
X9746114Y1603680D01*
X9758959Y1592238D01*
X9759080Y1591951D01*
X9762167Y1576428D01*
X9771085Y1563082D01*
X9773103Y1561064D01*
X9813897Y1601857D01*
X9822877Y1592877D01*
X9831857Y1601857D01*
X9871943Y1561771D01*
X9874669Y1564497D01*
X9883586Y1577842D01*
X9886717Y1593584D01*
X9886336Y1595500D01*
X9896417Y1608789D01*
X9910051Y1611501D01*
X9921610Y1619225D01*
X9945022Y1642637D01*
X9952746Y1654196D01*
X9955458Y1667831D01*
X9952746Y1681465D01*
X9945022Y1693024D01*
X9923024Y1715022D01*
X9911465Y1722746D01*
X9897831Y1725458D01*
X9889205Y1723742D01*
X9878094Y1734853D01*
X9889099Y1745858D01*
X9843468Y1791489D01*
Y1818824D01*
X9858468Y1825037D01*
X9920355Y1763150D01*
X9922855Y1765650D01*
X9991360Y1697144D01*
X10054670Y1760454D01*
X10084003D01*
X10089744Y1746596D01*
X10074304Y1731156D01*
X10113479Y1691982D01*
X10152652Y1652809D01*
X10196597Y1696754D01*
X10196669Y1696682D01*
X10266389Y1766402D01*
X10267380Y1767392D01*
X10279386Y1774619D01*
X10280815Y1773191D01*
X10311008Y1803384D01*
X10273602Y1840790D01*
X10236196Y1878196D01*
X10206003Y1848002D01*
X10207431Y1846574D01*
X10200204Y1834567D01*
X10199215Y1833577D01*
X10179476Y1813839D01*
X10171942Y1821373D01*
X10160365Y1829109D01*
X10146708Y1831825D01*
X10054670D01*
X10022115Y1864379D01*
X10019837Y1869370D01*
X10020753Y1881391D01*
X10087067Y1947704D01*
X10099074Y1954932D01*
X10100503Y1953503D01*
X10130696Y1983697D01*
X10093290Y2021102D01*
X10111251Y2039063D01*
X10148657Y2001657D01*
X10178850Y2031850D01*
X10190579Y2023954D01*
X10276454Y1938079D01*
X10284350Y1926349D01*
X10254157Y1896156D01*
X10291563Y1858750D01*
X10328968Y1821344D01*
X10350472Y1842848D01*
X10359162Y1851538D01*
X10370891Y1843641D01*
X10429270Y1785263D01*
X10440848Y1777527D01*
X10451178Y1775472D01*
X10453952Y1765121D01*
X10464484Y1746879D01*
X10479379Y1731984D01*
X10497621Y1721452D01*
X10517968Y1716000D01*
X10539032D01*
X10559379Y1721452D01*
X10577621Y1731984D01*
X10592516Y1746879D01*
X10603048Y1765121D01*
X10608500Y1785468D01*
Y1806532D01*
X10603048Y1826879D01*
X10592516Y1845121D01*
X10577621Y1860016D01*
X10559379Y1870548D01*
X10539032Y1876000D01*
X10517968D01*
X10497621Y1870548D01*
X10479379Y1860016D01*
X10467415Y1848052D01*
X10315011Y2000456D01*
X10320751Y2014314D01*
X10456727D01*
X10464484Y2000879D01*
X10479379Y1985984D01*
X10497621Y1975452D01*
X10517968Y1970000D01*
X10539032D01*
X10559379Y1975452D01*
X10577621Y1985984D01*
X10592516Y2000879D01*
X10603048Y2019121D01*
X10608500Y2039468D01*
Y2060532D01*
X10603048Y2080879D01*
X10592516Y2099121D01*
X10577621Y2114016D01*
X10559379Y2124548D01*
X10539032Y2130000D01*
X10517968D01*
X10497621Y2124548D01*
X10479379Y2114016D01*
X10464484Y2099121D01*
X10456727Y2085686D01*
X10312282D01*
X10243551Y2154417D01*
X10247070Y2172110D01*
X10256155Y2175873D01*
X10271627Y2191345D01*
X10280000Y2211560D01*
Y2233440D01*
X10271627Y2253655D01*
X10256155Y2269127D01*
X10235940Y2277500D01*
X10234877D01*
X10232416Y2281018D01*
X10237804Y2299486D01*
X10241155Y2300873D01*
X10256626Y2316345D01*
X10265000Y2336560D01*
Y2358440D01*
X10256626Y2378655D01*
X10250281Y2385000D01*
X10256494Y2400000D01*
X10300000D01*
Y2580000D01*
X10148163D01*
X10135400Y2585400D01*
X10135400Y2585401D01*
X10135399Y2585400D01*
X10062700D01*
Y2490000D01*
X10037300D01*
Y2585400D01*
X9968186D01*
Y2630219D01*
X10047282Y2709314D01*
X10155404D01*
X10166345Y2698374D01*
X10186560Y2690000D01*
X10208440D01*
X10228655Y2698374D01*
X10244127Y2713845D01*
X10252500Y2734060D01*
Y2755940D01*
X10249031Y2764314D01*
X10259054Y2779314D01*
X10430719D01*
X10482515Y2727517D01*
X10478500Y2712532D01*
Y2691468D01*
X10483952Y2671121D01*
X10494484Y2652879D01*
X10509379Y2637984D01*
X10527621Y2627452D01*
X10547968Y2622000D01*
X10569032D01*
X10589379Y2627452D01*
X10607621Y2637984D01*
X10622516Y2652879D01*
X10633048Y2671121D01*
X10638500Y2691468D01*
Y2712532D01*
X10633048Y2732879D01*
X10622516Y2751121D01*
X10607621Y2766016D01*
X10589379Y2776548D01*
X10569032Y2782000D01*
X10547968D01*
X10532983Y2777985D01*
X10490640Y2820327D01*
X10492542Y2839638D01*
X10492734Y2839766D01*
X10532983Y2880015D01*
X10547968Y2876000D01*
X10569032D01*
X10589379Y2881452D01*
X10607621Y2891984D01*
X10622516Y2906879D01*
X10633048Y2925121D01*
X10638500Y2945468D01*
Y2966532D01*
X10633048Y2986879D01*
X10622516Y3005121D01*
X10607621Y3020016D01*
X10589379Y3030548D01*
X10569032Y3036000D01*
X10547968D01*
X10527621Y3030548D01*
X10509379Y3020016D01*
X10494484Y3005121D01*
X10483952Y2986879D01*
X10478500Y2966532D01*
Y2945468D01*
X10482515Y2930483D01*
X10452719Y2900686D01*
X10402900D01*
Y2939800D01*
X10337500D01*
X10272100D01*
Y2900686D01*
X10247500D01*
Y3012500D01*
X10127500D01*
Y2988186D01*
X10110000D01*
Y3054314D01*
X10127500D01*
Y3030000D01*
X10247500D01*
Y3150000D01*
X10127500D01*
Y3125686D01*
X10110000D01*
Y3191814D01*
X10127500D01*
Y3167500D01*
X10247500D01*
Y3287500D01*
X10127500D01*
Y3263186D01*
X10110000D01*
Y3297500D01*
X9970000D01*
Y3297500D01*
D02*
G37*
G36*
X10402900Y3292900D02*
X10350200D01*
Y3240200D01*
X10402900D01*
Y3292900D01*
D02*
G37*
G36*
X10324800D02*
X10272100D01*
Y3240200D01*
X10324800D01*
Y3292900D01*
D02*
G37*
G36*
X9471967Y3282949D02*
X9413489Y3224471D01*
X9464896Y3173065D01*
X9523373Y3231542D01*
X9471967Y3282949D01*
D02*
G37*
G36*
X8390274Y3189800D02*
X8310200D01*
Y3109726D01*
X8333358Y3115931D01*
X8354542Y3128162D01*
X8371838Y3145458D01*
X8384069Y3166642D01*
X8390274Y3189800D01*
D02*
G37*
G36*
X8284800D02*
X8204726D01*
X8210931Y3166642D01*
X8223162Y3145458D01*
X8240458Y3128162D01*
X8261642Y3115931D01*
X8284800Y3109726D01*
Y3189800D01*
D02*
G37*
G36*
X10402900Y3214800D02*
X10337500D01*
X10272100D01*
Y3170400D01*
X10272100Y3162100D01*
X10272100Y3147100D01*
Y3102700D01*
X10337500D01*
X10402900D01*
Y3147100D01*
X10402900Y3155400D01*
X10402900Y3170400D01*
Y3214800D01*
D02*
G37*
G36*
X9282349Y3079691D02*
X9238013Y3035355D01*
X9268207Y3005161D01*
X9312543Y3049497D01*
X9282349Y3079691D01*
D02*
G37*
G36*
X10402900Y3077300D02*
X10337500D01*
X10272100D01*
Y3032900D01*
X10272100Y3024600D01*
X10272100Y3009600D01*
Y2965200D01*
X10337500D01*
X10402900D01*
Y3009600D01*
X10402900Y3017900D01*
X10402900Y3032900D01*
Y3077300D01*
D02*
G37*
G36*
X9330503Y3031537D02*
X9286168Y2987201D01*
X9316360Y2957008D01*
X9360696Y3001344D01*
X9330503Y3031537D01*
D02*
G37*
G36*
X8884800Y3027300D02*
X8812100D01*
Y2944600D01*
X8884800D01*
Y3027300D01*
D02*
G37*
G36*
X10823032Y2909000D02*
X10801968D01*
X10781621Y2903548D01*
X10763379Y2893016D01*
X10748484Y2878121D01*
X10737952Y2859879D01*
X10732500Y2839532D01*
Y2818468D01*
X10737952Y2798121D01*
X10748484Y2779879D01*
X10763379Y2764984D01*
X10781621Y2754452D01*
X10801968Y2749000D01*
X10823032D01*
X10843379Y2754452D01*
X10861621Y2764984D01*
X10876516Y2779879D01*
X10887048Y2798121D01*
X10892500Y2818468D01*
Y2839532D01*
X10887048Y2859879D01*
X10876516Y2878121D01*
X10861621Y2893016D01*
X10843379Y2903548D01*
X10823032Y2909000D01*
D02*
G37*
G36*
X8277000Y2860561D02*
X8127000D01*
X8110032Y2858327D01*
X8094220Y2851777D01*
X8080642Y2841358D01*
X8070223Y2827780D01*
X8063673Y2811968D01*
X8061439Y2795000D01*
X8063673Y2778032D01*
X8070223Y2762220D01*
X8080642Y2748642D01*
X8094220Y2738223D01*
X8100000Y2735828D01*
X8110032Y2731673D01*
X8127000Y2729439D01*
X8277000D01*
X8293969Y2731673D01*
X8296931Y2732900D01*
X8309781Y2738223D01*
X8323359Y2748642D01*
X8333777Y2762220D01*
X8340327Y2778032D01*
X8342561Y2795000D01*
X8340327Y2811968D01*
X8333777Y2827780D01*
X8323359Y2841358D01*
X8309781Y2851777D01*
X8293969Y2858327D01*
X8277000Y2860561D01*
D02*
G37*
G36*
X10825200Y2660010D02*
Y2587699D01*
X10897510D01*
X10892080Y2607963D01*
X10880837Y2627437D01*
X10864937Y2643337D01*
X10845463Y2654580D01*
X10825200Y2660010D01*
D02*
G37*
G36*
X10799800Y2660009D02*
X10779537Y2654580D01*
X10760063Y2643337D01*
X10744163Y2627437D01*
X10732920Y2607963D01*
X10727490Y2587699D01*
X10799800D01*
Y2660009D01*
D02*
G37*
G36*
Y2562299D02*
X10727491D01*
X10732920Y2542037D01*
X10744163Y2522563D01*
X10760063Y2506663D01*
X10779537Y2495420D01*
X10799800Y2489991D01*
Y2562299D01*
D02*
G37*
G36*
X10897509D02*
X10825200D01*
Y2489990D01*
X10845463Y2495420D01*
X10864937Y2506663D01*
X10880837Y2522563D01*
X10892080Y2542037D01*
X10897509Y2562299D01*
D02*
G37*
G36*
X8783301Y2465831D02*
X8738965Y2421495D01*
X8769159Y2391302D01*
X8813494Y2435637D01*
X8783301Y2465831D01*
D02*
G37*
G36*
X10652500Y2515690D02*
X10612500D01*
X10591616Y2512941D01*
X10572155Y2504880D01*
X10555444Y2492056D01*
X10542621Y2475345D01*
X10534560Y2455884D01*
X10531810Y2435000D01*
X10534560Y2414116D01*
X10542621Y2394655D01*
X10555444Y2377943D01*
X10572155Y2365120D01*
X10591616Y2357059D01*
X10612500Y2354310D01*
X10652500D01*
X10673384Y2357059D01*
X10692845Y2365120D01*
X10709557Y2377943D01*
X10722380Y2394655D01*
X10730441Y2414116D01*
X10733190Y2435000D01*
X10730441Y2455884D01*
X10722380Y2475345D01*
X10709557Y2492056D01*
X10692845Y2504880D01*
X10673384Y2512941D01*
X10652500Y2515690D01*
D02*
G37*
G36*
X8721004Y2403535D02*
X8676669Y2359199D01*
X8706863Y2329006D01*
X8751198Y2373341D01*
X8721004Y2403535D01*
D02*
G37*
G36*
X10728500Y2270690D02*
X10688500D01*
X10667616Y2267941D01*
X10648155Y2259880D01*
X10631443Y2247056D01*
X10618620Y2230345D01*
X10610559Y2210884D01*
X10607810Y2190000D01*
X10610559Y2169116D01*
X10618620Y2149655D01*
X10631443Y2132943D01*
X10648155Y2120120D01*
X10667616Y2112059D01*
X10688500Y2109310D01*
X10728500D01*
X10749384Y2112059D01*
X10768845Y2120120D01*
X10785556Y2132943D01*
X10798379Y2149655D01*
X10806440Y2169116D01*
X10809190Y2190000D01*
X10806440Y2210884D01*
X10798379Y2230345D01*
X10785556Y2247056D01*
X10768845Y2259880D01*
X10749384Y2267941D01*
X10728500Y2270690D01*
D02*
G37*
G36*
X10795200Y2008009D02*
Y1935700D01*
X10867509D01*
X10862080Y1955963D01*
X10850837Y1975437D01*
X10834937Y1991337D01*
X10815463Y2002580D01*
X10795200Y2008009D01*
D02*
G37*
G36*
X10769800D02*
X10749537Y2002580D01*
X10730063Y1991337D01*
X10714163Y1975437D01*
X10702920Y1955963D01*
X10697490Y1935700D01*
X10769800D01*
Y2008009D01*
D02*
G37*
G36*
X7904000Y2860561D02*
X7824000D01*
X7807032Y2858327D01*
X7791220Y2851777D01*
X7777642Y2841358D01*
X7767223Y2827780D01*
X7760673Y2811968D01*
X7758439Y2795000D01*
X7760673Y2778032D01*
X7767223Y2762220D01*
X7777642Y2748642D01*
X7791220Y2738223D01*
X7807032Y2731673D01*
X7824000Y2729439D01*
X7828314D01*
Y1995561D01*
X7824000D01*
X7807032Y1993327D01*
X7791220Y1986777D01*
X7777642Y1976358D01*
X7767223Y1962780D01*
X7760673Y1946968D01*
X7758439Y1930000D01*
X7760673Y1913031D01*
X7767223Y1897220D01*
X7777642Y1883642D01*
X7791220Y1873223D01*
X7807032Y1866673D01*
X7824000Y1864439D01*
X7904000D01*
X7920968Y1866673D01*
X7936780Y1873223D01*
X7950358Y1883642D01*
X7960777Y1897220D01*
X7967327Y1913031D01*
X7969561Y1930000D01*
X7967327Y1946968D01*
X7960777Y1962780D01*
X7950358Y1976358D01*
X7936780Y1986777D01*
X7920968Y1993327D01*
X7904000Y1995561D01*
X7899686D01*
Y2729439D01*
X7904000D01*
X7920968Y2731673D01*
X7936780Y2738223D01*
X7950358Y2748642D01*
X7960777Y2762220D01*
X7967327Y2778032D01*
X7969561Y2795000D01*
X7967327Y2811968D01*
X7960777Y2827780D01*
X7950358Y2841358D01*
X7936780Y2851777D01*
X7920968Y2858327D01*
X7904000Y2860561D01*
D02*
G37*
G36*
X10867509Y1910300D02*
X10795200D01*
Y1837990D01*
X10815463Y1843420D01*
X10834937Y1854663D01*
X10850837Y1870563D01*
X10862080Y1890037D01*
X10867509Y1910300D01*
D02*
G37*
G36*
X10769800D02*
X10697490D01*
X10702920Y1890037D01*
X10714163Y1870563D01*
X10730063Y1854663D01*
X10749537Y1843420D01*
X10769800Y1837990D01*
Y1910300D01*
D02*
G37*
G36*
X10056344Y1713196D02*
X10012008Y1668860D01*
X10042202Y1638666D01*
X10086538Y1683002D01*
X10056344Y1713196D01*
D02*
G37*
G36*
X10104498Y1665041D02*
X10060163Y1620705D01*
X10090355Y1590513D01*
X10134691Y1634849D01*
X10104498Y1665041D01*
D02*
G37*
G36*
X10793032Y1749000D02*
X10771968D01*
X10751621Y1743548D01*
X10733379Y1733016D01*
X10718484Y1718121D01*
X10707952Y1699879D01*
X10702500Y1679532D01*
Y1658468D01*
X10707952Y1638121D01*
X10718484Y1619879D01*
X10733379Y1604984D01*
X10751621Y1594452D01*
X10771968Y1589000D01*
X10793032D01*
X10813379Y1594452D01*
X10831621Y1604984D01*
X10846516Y1619879D01*
X10857048Y1638121D01*
X10862500Y1658468D01*
Y1679532D01*
X10857048Y1699879D01*
X10846516Y1718121D01*
X10831621Y1733016D01*
X10813379Y1743548D01*
X10793032Y1749000D01*
D02*
G37*
G36*
X9657123Y1594916D02*
X9626018Y1563810D01*
X9628744Y1561085D01*
X9642089Y1552167D01*
X9657831Y1549036D01*
X9673572Y1552167D01*
X9686918Y1561085D01*
X9688936Y1563103D01*
X9657123Y1594916D01*
D02*
G37*
G36*
X9822877Y1574916D02*
X9791064Y1543103D01*
X9793083Y1541085D01*
X9806428Y1532167D01*
X9822170Y1529036D01*
X9837911Y1532167D01*
X9851257Y1541085D01*
X9853983Y1543811D01*
X9822877Y1574916D01*
D02*
G37*
G36*
X8749500Y1724000D02*
X8539500D01*
Y1514000D01*
X8749500D01*
Y1724000D01*
D02*
G37*
G36*
X8404324D02*
X8376677D01*
X8349972Y1716844D01*
X8326029Y1703021D01*
X8306479Y1683471D01*
X8292656Y1659529D01*
X8285500Y1632824D01*
Y1605177D01*
X8292656Y1578472D01*
X8306479Y1554529D01*
X8326029Y1534979D01*
X8349972Y1521156D01*
X8376677Y1514000D01*
X8404324D01*
X8431029Y1521156D01*
X8454971Y1534979D01*
X8474521Y1554529D01*
X8488344Y1578472D01*
X8495500Y1605177D01*
Y1632824D01*
X8488344Y1659529D01*
X8474521Y1683471D01*
X8454971Y1703021D01*
X8431029Y1716844D01*
X8404324Y1724000D01*
D02*
G37*
G36*
X8150324D02*
X8122677D01*
X8095972Y1716844D01*
X8072029Y1703021D01*
X8052479Y1683471D01*
X8038656Y1659529D01*
X8031500Y1632824D01*
Y1605177D01*
X8038656Y1578472D01*
X8052479Y1554529D01*
X8072029Y1534979D01*
X8095972Y1521156D01*
X8122677Y1514000D01*
X8150324D01*
X8177029Y1521156D01*
X8200971Y1534979D01*
X8220521Y1554529D01*
X8234344Y1578472D01*
X8241500Y1605177D01*
Y1632824D01*
X8234344Y1659529D01*
X8220521Y1683471D01*
X8200971Y1703021D01*
X8177029Y1716844D01*
X8150324Y1724000D01*
D02*
G37*
G36*
X7896324D02*
X7868677D01*
X7841972Y1716844D01*
X7818029Y1703021D01*
X7798479Y1683471D01*
X7784656Y1659529D01*
X7777500Y1632824D01*
Y1605177D01*
X7784656Y1578472D01*
X7798479Y1554529D01*
X7818029Y1534979D01*
X7841972Y1521156D01*
X7868677Y1514000D01*
X7896324D01*
X7923029Y1521156D01*
X7946971Y1534979D01*
X7966521Y1554529D01*
X7980344Y1578472D01*
X7987500Y1605177D01*
Y1632824D01*
X7980344Y1659529D01*
X7966521Y1683471D01*
X7946971Y1703021D01*
X7923029Y1716844D01*
X7896324Y1724000D01*
D02*
G37*
G36*
X10539032Y1622000D02*
X10517968D01*
X10497621Y1616548D01*
X10479379Y1606016D01*
X10464484Y1591121D01*
X10453952Y1572879D01*
X10448500Y1552532D01*
Y1531468D01*
X10453952Y1511121D01*
X10464484Y1492879D01*
X10479379Y1477984D01*
X10497621Y1467452D01*
X10517968Y1462000D01*
X10539032D01*
X10559379Y1467452D01*
X10577621Y1477984D01*
X10592516Y1492879D01*
X10603048Y1511121D01*
X10608500Y1531468D01*
Y1552532D01*
X10603048Y1572879D01*
X10592516Y1591121D01*
X10577621Y1606016D01*
X10559379Y1616548D01*
X10539032Y1622000D01*
D02*
G37*
G36*
X7897034Y1475400D02*
X7895200D01*
Y1377700D01*
X7992900D01*
Y1379534D01*
X7985376Y1407613D01*
X7970842Y1432787D01*
X7950287Y1453342D01*
X7925113Y1467876D01*
X7897034Y1475400D01*
D02*
G37*
G36*
X7869800D02*
X7867966D01*
X7839887Y1467876D01*
X7814713Y1453342D01*
X7794158Y1432787D01*
X7779624Y1407613D01*
X7772100Y1379534D01*
Y1377700D01*
X7869800D01*
Y1475400D01*
D02*
G37*
G36*
X10793032Y1495000D02*
X10771968D01*
X10751621Y1489548D01*
X10733379Y1479016D01*
X10718484Y1464121D01*
X10707952Y1445879D01*
X10702500Y1425532D01*
Y1404468D01*
X10707952Y1384121D01*
X10718484Y1365879D01*
X10733379Y1350984D01*
X10751621Y1340452D01*
X10771968Y1335000D01*
X10793032D01*
X10813379Y1340452D01*
X10831621Y1350984D01*
X10846516Y1365879D01*
X10857048Y1384121D01*
X10862500Y1404468D01*
Y1425532D01*
X10857048Y1445879D01*
X10846516Y1464121D01*
X10831621Y1479016D01*
X10813379Y1489548D01*
X10793032Y1495000D01*
D02*
G37*
G36*
X8937007Y1460500D02*
X8911993D01*
X8887831Y1454026D01*
X8866169Y1441519D01*
X8848481Y1423831D01*
X8835974Y1402169D01*
X8829500Y1378007D01*
Y1352993D01*
X8835974Y1328832D01*
X8848481Y1307169D01*
X8866169Y1289482D01*
X8887831Y1276975D01*
X8911993Y1270500D01*
X8937007D01*
X8961168Y1276975D01*
X8982831Y1289482D01*
X9000518Y1307169D01*
X9013025Y1328832D01*
X9019500Y1352993D01*
Y1378007D01*
X9013025Y1402169D01*
X9000518Y1423831D01*
X8982831Y1441519D01*
X8961168Y1454026D01*
X8937007Y1460500D01*
D02*
G37*
G36*
X10233665Y1465500D02*
X10207334D01*
X10181901Y1458685D01*
X10159099Y1445520D01*
X10140480Y1426901D01*
X10127315Y1404099D01*
X10120500Y1378666D01*
Y1352335D01*
X10127315Y1326902D01*
X10140480Y1304099D01*
X10159099Y1285481D01*
X10181901Y1272315D01*
X10207334Y1265500D01*
X10233665D01*
X10259098Y1272315D01*
X10281901Y1285481D01*
X10300519Y1304099D01*
X10313685Y1326902D01*
X10320500Y1352335D01*
Y1378666D01*
X10313685Y1404099D01*
X10300519Y1426901D01*
X10281901Y1445520D01*
X10259098Y1458685D01*
X10233665Y1465500D01*
D02*
G37*
G36*
X9979665D02*
X9953334D01*
X9927901Y1458685D01*
X9905099Y1445520D01*
X9886480Y1426901D01*
X9873315Y1404099D01*
X9866500Y1378666D01*
Y1352335D01*
X9873315Y1326902D01*
X9886480Y1304099D01*
X9905099Y1285481D01*
X9927901Y1272315D01*
X9953334Y1265500D01*
X9979665D01*
X10005098Y1272315D01*
X10027901Y1285481D01*
X10046519Y1304099D01*
X10059685Y1326902D01*
X10066500Y1352335D01*
Y1378666D01*
X10059685Y1404099D01*
X10046519Y1426901D01*
X10027901Y1445520D01*
X10005098Y1458685D01*
X9979665Y1465500D01*
D02*
G37*
G36*
X8658324Y1470000D02*
X8630677D01*
X8603972Y1462844D01*
X8580029Y1449021D01*
X8560479Y1429471D01*
X8546656Y1405529D01*
X8539500Y1378824D01*
Y1351177D01*
X8546656Y1324472D01*
X8560479Y1300529D01*
X8580029Y1280979D01*
X8603972Y1267156D01*
X8630677Y1260000D01*
X8658324D01*
X8685029Y1267156D01*
X8708971Y1280979D01*
X8728521Y1300529D01*
X8742344Y1324472D01*
X8749500Y1351177D01*
Y1378824D01*
X8742344Y1405529D01*
X8728521Y1429471D01*
X8708971Y1449021D01*
X8685029Y1462844D01*
X8658324Y1470000D01*
D02*
G37*
G36*
X8404324D02*
X8376677D01*
X8349972Y1462844D01*
X8326029Y1449021D01*
X8306479Y1429471D01*
X8292656Y1405529D01*
X8285500Y1378824D01*
Y1351177D01*
X8292656Y1324472D01*
X8306479Y1300529D01*
X8326029Y1280979D01*
X8349972Y1267156D01*
X8376677Y1260000D01*
X8404324D01*
X8431029Y1267156D01*
X8454971Y1280979D01*
X8474521Y1300529D01*
X8488344Y1324472D01*
X8495500Y1351177D01*
Y1378824D01*
X8488344Y1405529D01*
X8474521Y1429471D01*
X8454971Y1449021D01*
X8431029Y1462844D01*
X8404324Y1470000D01*
D02*
G37*
G36*
X8150324D02*
X8122677D01*
X8095972Y1462844D01*
X8072029Y1449021D01*
X8052479Y1429471D01*
X8038656Y1405529D01*
X8031500Y1378824D01*
Y1351177D01*
X8038656Y1324472D01*
X8052479Y1300529D01*
X8072029Y1280979D01*
X8095972Y1267156D01*
X8122677Y1260000D01*
X8150324D01*
X8177029Y1267156D01*
X8200971Y1280979D01*
X8220521Y1300529D01*
X8234344Y1324472D01*
X8241500Y1351177D01*
Y1378824D01*
X8234344Y1405529D01*
X8220521Y1429471D01*
X8200971Y1449021D01*
X8177029Y1462844D01*
X8150324Y1470000D01*
D02*
G37*
%LPD*%
G36*
X9550741Y2665521D02*
X9642665Y2573597D01*
X9678020Y2538241D01*
X9713376Y2502886D01*
X9762873Y2453389D01*
X9809809Y2406453D01*
X9806526Y2391308D01*
X9805286Y2389762D01*
X9794767Y2382734D01*
X9756358Y2344325D01*
X9740086Y2349267D01*
X9734127Y2363655D01*
X9718655Y2379127D01*
X9698440Y2387500D01*
X9676560D01*
X9656345Y2379127D01*
X9640874Y2363655D01*
X9632500Y2343440D01*
Y2321560D01*
X9640874Y2301345D01*
X9651814Y2290404D01*
Y2231776D01*
X9654531Y2218120D01*
X9662266Y2206543D01*
X9673717Y2195092D01*
X9672575Y2193950D01*
X9740033Y2126492D01*
X9722072Y2108532D01*
X9654615Y2175989D01*
X9642500Y2163874D01*
X9627500Y2170088D01*
Y2170940D01*
X9619126Y2191155D01*
X9603655Y2206626D01*
X9583440Y2215000D01*
X9577500D01*
Y2220940D01*
X9569126Y2241155D01*
X9553655Y2256626D01*
X9533440Y2265000D01*
X9511560D01*
X9491345Y2256626D01*
X9475873Y2241155D01*
X9467500Y2220940D01*
Y2199060D01*
X9475873Y2178845D01*
X9491345Y2163373D01*
X9494979Y2161868D01*
Y2145632D01*
X9491345Y2144127D01*
X9475873Y2128655D01*
X9467500Y2108440D01*
Y2086560D01*
X9470271Y2079871D01*
X9465086Y2072997D01*
X9459159Y2067500D01*
X9445467D01*
X9407734Y2105233D01*
X9407734Y2105234D01*
X9335234Y2177734D01*
X9323656Y2185469D01*
X9310000Y2188186D01*
X9200355D01*
X9186699Y2185469D01*
X9175121Y2177734D01*
X9133063Y2135675D01*
X9119828Y2148910D01*
X9123347Y2166604D01*
X9133655Y2170873D01*
X9149126Y2186345D01*
X9157500Y2206560D01*
Y2222033D01*
X9440234Y2504766D01*
X9447969Y2516344D01*
X9450686Y2530000D01*
Y2635206D01*
X9515871Y2700391D01*
X9550741Y2665521D01*
D02*
G37*
%LPC*%
G36*
X9666000Y3647500D02*
X9426000D01*
Y3407500D01*
X9666000D01*
Y3647500D01*
D02*
G37*
%LPD*%
D10*
X6787999Y5617501D02*
D03*
X6647999D02*
D03*
X6793000Y3305001D02*
D03*
X6652999D02*
D03*
X9920000Y3090000D02*
D03*
X10060000D02*
D03*
Y3227500D02*
D03*
X9920000D02*
D03*
X10060000Y2952500D02*
D03*
X9920000D02*
D03*
D11*
X8432500Y2097500D02*
D03*
Y2237500D02*
D03*
D12*
X8721005Y2421495D02*
D03*
X9330503Y3049498D02*
D03*
X10104497Y1683002D02*
D03*
X8820000Y2322500D02*
D03*
X10005502Y1781997D02*
D03*
X9934498Y1848002D02*
D03*
X9835503Y1946997D02*
D03*
X9429498Y2950503D02*
D03*
D13*
X9263003Y1720503D02*
D03*
X9360502Y1623003D02*
D03*
X9459497Y1721998D02*
D03*
X8528003Y2590502D02*
D03*
X8721998Y2594497D02*
D03*
X8623003Y2495502D02*
D03*
X8626998Y2689497D02*
D03*
X9361998Y1819498D02*
D03*
X9933002Y2015502D02*
D03*
X10031997Y2114497D02*
D03*
D14*
X9236079Y1905380D02*
D03*
X9518921Y2824619D02*
D03*
X8882525Y2258934D02*
D03*
X8953236Y2188223D02*
D03*
X8917880Y2223579D02*
D03*
X8988591Y2152868D02*
D03*
X9200723Y1940736D02*
D03*
X9165368Y1976091D02*
D03*
X9130012Y2011447D02*
D03*
X9094657Y2046802D02*
D03*
X9059302Y2082157D02*
D03*
X9023946Y2117513D02*
D03*
X9271434Y1870025D02*
D03*
X9624987Y2718554D02*
D03*
X9483566Y2859975D02*
D03*
X9660343Y2683198D02*
D03*
X9695698Y2647843D02*
D03*
X9731053Y2612488D02*
D03*
X9766408Y2577132D02*
D03*
X9801764Y2541777D02*
D03*
X9589632Y2753909D02*
D03*
X9554277Y2789264D02*
D03*
X9837119Y2506421D02*
D03*
X9872475Y2471066D02*
D03*
D15*
X8917881Y2506421D02*
D03*
X9731053Y2117512D02*
D03*
X9695698Y2082157D02*
D03*
X9766408Y2152868D02*
D03*
X9837119Y2223578D02*
D03*
X9872475Y2258934D02*
D03*
X9518921Y1905380D02*
D03*
X9554277Y1940736D02*
D03*
X9589632Y1976091D02*
D03*
X9801764Y2188223D02*
D03*
X8882525Y2471066D02*
D03*
X8953236Y2541777D02*
D03*
X8988591Y2577132D02*
D03*
X9023947Y2612488D02*
D03*
X9059302Y2647843D02*
D03*
X9094657Y2683198D02*
D03*
X9130013Y2718554D02*
D03*
X9165368Y2753909D02*
D03*
X9200723Y2789264D02*
D03*
X9236079Y2824619D02*
D03*
X9271434Y2859975D02*
D03*
X9483566Y1870025D02*
D03*
X9660343Y2046802D02*
D03*
X9624987Y2011447D02*
D03*
D16*
X8897500Y3040000D02*
D03*
X10050000Y2490000D02*
D03*
X10220000D02*
D03*
X9067500Y3040000D02*
D03*
D17*
X9657123Y1612877D02*
D03*
X9582877Y1687123D02*
D03*
D18*
X9738839Y1676915D02*
D03*
D19*
X9822877Y1592877D02*
D03*
X9897123Y1667123D02*
D03*
D20*
X9719393Y1841317D02*
D03*
X9648683Y1770607D02*
D03*
X9811317Y1749393D02*
D03*
D21*
X10282582Y1849770D02*
D03*
X10102270Y2030082D02*
D03*
X10198437Y1765624D02*
D03*
X10018124Y1945937D02*
D03*
D22*
X9464896Y3155104D02*
D03*
X9585104Y3034896D02*
D03*
D23*
X10337500Y3227500D02*
D03*
Y2952500D02*
D03*
Y3090000D02*
D03*
X10187500Y3227500D02*
D03*
Y3090000D02*
D03*
Y2952500D02*
D03*
D24*
X8427500Y1875000D02*
D03*
X8737500D02*
D03*
D25*
X7267500Y4237500D02*
X7392500Y4362500D01*
Y5397751D01*
X6512323Y4237500D02*
X7267500D01*
X7432500Y4072500D01*
X8604999D01*
X6470000Y3945000D02*
Y4195178D01*
X6512323Y4237500D01*
X7118000Y5505000D02*
X7285252D01*
X7392500Y5397751D01*
X7028000Y5432500D02*
X7045500D01*
X7118000Y5505000D01*
X5673000Y3315000D02*
X5690500Y3297500D01*
X8604999Y4072500D02*
X10017500D01*
X8604999D02*
Y4452499D01*
X10085000Y3732500D02*
Y4005000D01*
X10017500Y4072500D02*
X10085000Y4005000D01*
D26*
X9330503Y3049498D02*
X9436109Y3155104D01*
X9263003Y1720503D02*
X9360502Y1623003D01*
X6162999Y5650000D02*
X6280499Y5532500D01*
X6162999Y5650000D02*
Y5650000D01*
X6647999Y5597500D02*
Y5617501D01*
X6582999Y5532500D02*
X6647999Y5597500D01*
X6280499Y5532500D02*
X6582999D01*
X6787999Y5617501D02*
X6946925D01*
X6999926Y5564500D01*
X7009499D01*
X6620500Y3252500D02*
X6652999Y3285000D01*
Y3305001D01*
X6793000Y3285000D02*
Y3305001D01*
Y3285000D02*
X6992279Y3085721D01*
Y3027721D02*
Y3085721D01*
Y3027721D02*
X7009500Y3010500D01*
X6162999Y3357500D02*
X6267999Y3252500D01*
X6620500D01*
X8789999Y5990000D02*
X9440000D01*
X8242000Y5415000D02*
X9304999D01*
X9227500Y5217500D02*
Y5302500D01*
X9304999Y5415000D02*
X9417500Y5302500D01*
X8242000Y5665000D02*
X9710000D01*
X9227500Y5217500D02*
X9348499Y5096500D01*
X10049409Y5223500D02*
X10375500D01*
X9348499Y5096500D02*
X9710000D01*
X9738673Y5726173D02*
X9742500Y5730000D01*
X9710000Y5096500D02*
Y5665000D01*
X9829830Y5443079D02*
X10049409Y5223500D01*
X9710000Y5096500D02*
X10121500D01*
X9738673Y5693673D02*
Y5726173D01*
X9710000Y5665000D02*
X9738673Y5693673D01*
X9175000Y1808505D02*
Y1844302D01*
X9236079Y1905380D01*
X9175000Y1808505D02*
X9263003Y1720503D01*
X8897500Y3040000D02*
X8942500Y2995000D01*
Y2927500D02*
Y2995000D01*
X9657123Y1612877D02*
X9721162Y1676915D01*
X9738839D01*
X9822877Y1592877D01*
Y1592877D02*
Y1592877D01*
X9436109Y3155104D02*
X9464896D01*
X10032500Y2745000D02*
X10197500D01*
X9932500Y2645000D02*
X10032500Y2745000D01*
X9932500Y2531092D02*
Y2645000D01*
X9872475Y2471066D02*
X9932500Y2531092D01*
X9382500Y2080000D02*
Y2080000D01*
X9310000Y2152500D02*
X9382500Y2080000D01*
X9200355Y2152500D02*
X9310000D01*
X9382500Y2080000D02*
X9450000Y2012500D01*
X8699169Y2049161D02*
X8810000Y2159992D01*
Y2186409D01*
X8882525Y2258934D01*
X8820000Y2305000D02*
Y2322500D01*
X8672500Y2157500D02*
X8820000Y2305000D01*
Y2322500D02*
X8921416Y2423916D01*
X8953236Y2541777D02*
X9035013Y2460000D01*
X9312500Y2627500D02*
Y2748198D01*
X9017500Y2332500D02*
X9312500Y2627500D01*
X9365000Y2580000D02*
Y2766408D01*
X9112500Y2327500D02*
X9365000Y2580000D01*
X9415000Y2530000D02*
Y2649988D01*
X9102500Y2217500D02*
X9415000Y2530000D01*
X9459497Y1700785D02*
X9499846Y1660436D01*
Y1647654D02*
X9507500Y1640000D01*
X9499846Y1647654D02*
Y1660436D01*
X9766408Y2152868D02*
X9805299Y2113977D01*
X9727518Y2191759D02*
X9766408Y2152868D01*
X9429498Y2950503D02*
X9501796Y2878205D01*
X9432500Y1748995D02*
X9518548Y1835043D01*
X9291452Y1890043D02*
X9361998Y1819498D01*
X9459497Y1700785D02*
Y1721998D01*
X9361998Y1819498D02*
X9432500Y1748995D01*
X9380000Y1482500D02*
X9530000D01*
X9622126Y1390374D01*
X9125000Y1737500D02*
X9380000Y1482500D01*
X9622126Y1390374D02*
X9687626D01*
X9712500Y1365500D01*
X8925000Y1777500D02*
X9204500Y1498001D01*
Y1365500D02*
Y1498001D01*
X9423322Y1365500D02*
X9458500D01*
X8975000Y1813822D02*
X9423322Y1365500D01*
X8975000Y1997856D02*
X9059302Y2082157D01*
X8975000Y1813822D02*
Y1997856D01*
X8925000Y2018566D02*
X9023946Y2117513D01*
X8925000Y1777500D02*
Y2018566D01*
X9105000Y1915724D02*
X9165368Y1976091D01*
X9105000Y1887500D02*
Y1915724D01*
Y1887500D02*
X9125000Y1867500D01*
Y1737500D02*
Y1867500D01*
X9687500Y2231776D02*
X9727518Y2191759D01*
Y2191759D02*
Y2191759D01*
X9687500Y2231776D02*
Y2332500D01*
X8565000Y2051000D02*
Y2150000D01*
Y2051000D02*
X8737500Y1878500D01*
X9050000Y1931434D02*
X9130012Y2011446D01*
X9050000Y1842500D02*
Y1931434D01*
X9094657Y2046802D02*
X9200355Y2152500D01*
X9251649Y2081649D02*
X9252500Y2082500D01*
X9200215Y2081649D02*
X9251649D01*
X9130012Y2011447D02*
X9200215Y2081649D01*
X9200723Y1940736D02*
X9200723D01*
X9269987Y2010000D01*
X9304176D01*
X9351676Y1962500D01*
X9362500D01*
X10090000Y2357500D02*
X10225000Y2222500D01*
X9820000Y2357500D02*
X10090000D01*
X9725000Y3000000D02*
X9815000Y3090000D01*
X9788223Y2952500D02*
X9920000D01*
X9589632Y2753909D02*
X9788223Y2952500D01*
X8737500Y1875000D02*
Y1878500D01*
X9692041Y1919541D02*
Y1944393D01*
X9624987Y2011446D02*
X9692041Y1944393D01*
X9648683Y1770607D02*
Y1795356D01*
X9627500Y1816538D02*
X9648683Y1795356D01*
X9627500Y1816538D02*
Y1855000D01*
X9692041Y1919541D01*
X9807782Y1752929D02*
X9811317Y1749393D01*
X9807782Y1752929D02*
Y1852218D01*
X9742500Y1917500D02*
X9807782Y1852218D01*
X9742500Y1917500D02*
Y1964645D01*
X9660343Y2046802D02*
X9742500Y1964645D01*
X9895356Y1667123D02*
X9897123D01*
X9813086Y1749393D02*
X9895356Y1667123D01*
X9811317Y1749393D02*
X9813086D01*
X9624987Y2011446D02*
Y2011447D01*
X9648683Y1761768D02*
Y1770607D01*
X9582877Y1695962D02*
X9648683Y1761768D01*
X9582877Y1687123D02*
Y1695962D01*
X10454504Y1810496D02*
X10514004D01*
X10026176Y2238824D02*
X10454504Y1810496D01*
X10001324Y2238824D02*
X10026176D01*
X10514004Y1810496D02*
X10528500Y1796000D01*
X9924025Y2161525D02*
X10001324Y2238824D01*
X10297500Y2050000D02*
X10558950D01*
X10051538Y2295962D02*
X10297500Y2050000D01*
X9842145Y2865000D02*
X10467500D01*
X10558500Y2956000D01*
X9862855Y2815000D02*
X10445500D01*
X10558500Y2702000D01*
X9271434Y1870025D02*
X9291452Y1890043D01*
X9825000Y3227500D02*
X9920000D01*
X9777708D02*
X9825000D01*
X9742708Y3192500D02*
X9777708Y3227500D01*
X9742708Y3192500D02*
X9742708D01*
X9585104Y3034896D02*
X9742708Y3192500D01*
X9920000Y2952500D02*
Y2968070D01*
X9815000Y3090000D02*
X9920000D01*
X10060000D02*
X10187500D01*
X10060000Y2952500D02*
X10187500D01*
X10060000Y3227500D02*
X10187500D01*
X8895294Y2458297D02*
X8921416Y2432175D01*
Y2423916D02*
Y2432175D01*
X9483565Y1870025D02*
X9518548Y1835043D01*
X9863315Y2080814D02*
X9892500Y2110000D01*
X9838462Y2080814D02*
X9863315D01*
X9805300Y2113977D02*
X9838462Y2080814D01*
X9892500Y2110000D02*
X9980000D01*
X10018854Y2127641D02*
X10031997Y2114497D01*
X9980000Y2110000D02*
X9997641Y2127641D01*
X10018854D01*
X9805299Y2113977D02*
X9805300D01*
X9695698Y2082157D02*
X9695698D01*
X9830858Y1946997D01*
X9933002Y2015502D02*
X9940781D01*
X10017779Y1938505D01*
Y1938437D02*
Y1938505D01*
X9934498Y1848002D02*
Y1855156D01*
X10017779Y1938437D01*
X10017846Y1945937D02*
X10018124D01*
X9934498Y1848002D02*
X9941997D01*
X10005502Y1784497D01*
Y1781997D02*
Y1784497D01*
X9830858Y1946997D02*
X9835503D01*
X10210000Y2347500D02*
Y2480000D01*
X10220000Y2490000D01*
X9415000Y2649988D02*
X9554277Y2789264D01*
X9271434Y2859975D02*
X9365000Y2766408D01*
X9236079Y2824619D02*
X9312500Y2748198D01*
X7864000Y1930000D02*
Y2795000D01*
X8335074Y2332500D02*
X8407812D01*
X8306697Y2398303D02*
X8329271D01*
X8463477Y2473403D02*
X8531257Y2541182D01*
X8523477Y2448165D02*
Y2448550D01*
X8407812Y2332500D02*
X8523477Y2448165D01*
X8382960Y2392500D02*
X8463477Y2473017D01*
Y2473403D01*
X8335074Y2392500D02*
X8382960D01*
X8329271Y2398303D02*
X8335074Y2392500D01*
X8523477Y2448550D02*
X8573683Y2498756D01*
X8301250Y2236250D02*
X8431250D01*
X8432500Y2237500D01*
X8097500Y2192500D02*
Y2530000D01*
Y2192500D02*
X8133304Y2156697D01*
X8158303D02*
X8165000Y2150000D01*
X8133304Y2156697D02*
X8158303D01*
X8097500Y2530000D02*
X8135803Y2568303D01*
X8158303D02*
X8165000Y2575000D01*
X8135803Y2568303D02*
X8158303D01*
X8165000Y2320000D02*
X8171697Y2326697D01*
X8194197D01*
X8265803Y2398303D01*
X8293303D01*
X8300000Y2405000D01*
Y2235000D02*
X8301250Y2236250D01*
X8300000Y2320000D02*
X8306697Y2326697D01*
X8329271D01*
X8335074Y2332500D01*
X8300000Y2405000D02*
X8306697Y2398303D01*
X8528003Y2590502D02*
X8542145Y2576360D01*
Y2555147D02*
Y2576360D01*
X8531257Y2544259D02*
X8542145Y2555147D01*
X8531257Y2541182D02*
Y2544259D01*
X8608860Y2509644D02*
X8623003Y2495502D01*
X8587647Y2509644D02*
X8608860D01*
X8576759Y2498756D02*
X8587647Y2509644D01*
X8573683Y2498756D02*
X8576759D01*
X9695698Y2647843D02*
X9862855Y2815000D01*
X9660343Y2683198D02*
X9842145Y2865000D01*
X9837119Y2223578D02*
X9899172Y2161525D01*
X9924025D01*
X9865447Y2265961D02*
X9872475Y2258934D01*
X9865447Y2265961D02*
Y2265962D01*
X9895447Y2295962D02*
X10051538D01*
X9865447Y2265962D02*
X9895447Y2295962D01*
X9738670Y2276170D02*
X9820000Y2357500D01*
X9738670Y2251317D02*
X9801764Y2188223D01*
X9738670Y2251317D02*
Y2276170D01*
X9130012Y2011446D02*
Y2011447D01*
X9429498Y2950503D02*
X9437071D01*
X9521464Y3034896D01*
X9585104D01*
X9501796Y2878204D02*
Y2878205D01*
X9483566Y2859975D02*
X9501796Y2878204D01*
X9130012Y2011447D02*
X9130012D01*
X10196669Y1763857D02*
X10198437Y1765624D01*
X10178991Y1763857D02*
X10196669D01*
X10146708Y1796139D02*
X10178991Y1763857D01*
X10019645Y1796139D02*
X10146708D01*
X10005502Y1781997D02*
X10019645Y1796139D01*
D27*
X9730000Y1685754D02*
X9738839Y1676915D01*
X9719393Y1809498D02*
X9730000Y1798891D01*
X9719393Y1809498D02*
Y1841317D01*
X9730000Y1685754D02*
Y1798891D01*
D28*
X8427500Y1875000D02*
Y1878500D01*
X8509000Y1960000D01*
X8515000D01*
D29*
X9023947Y2612488D02*
Y2614679D01*
X8728557Y2736291D02*
X8902335D01*
X8696133Y2703867D02*
X8728557Y2736291D01*
X8902335D02*
X9023947Y2614679D01*
X8664545Y2675355D02*
X8693057Y2703867D01*
X8641140Y2675355D02*
X8664545D01*
X8626998Y2689497D02*
X8641140Y2675355D01*
X8693057Y2703867D02*
X8696133D01*
X8736368Y2663633D02*
X8752126Y2679391D01*
X8884141D01*
X8986400Y2577132D01*
X8988591D01*
X8736368Y2660557D02*
Y2663633D01*
X8707855Y2608639D02*
Y2632045D01*
Y2608639D02*
X8721998Y2594497D01*
X8707855Y2632045D02*
X8736368Y2660557D01*
D30*
X6412999Y5110000D02*
D03*
X6162999D02*
D03*
X5912999D02*
D03*
Y5650000D02*
D03*
X6162999D02*
D03*
X6412999D02*
D03*
Y2817500D02*
D03*
X6162999D02*
D03*
X5912999D02*
D03*
Y3357500D02*
D03*
X6162999D02*
D03*
X6412999D02*
D03*
X8685000Y3562500D02*
D03*
X9185000Y3232500D02*
D03*
X8935000Y3562500D02*
D03*
X9185000D02*
D03*
X8935000Y3232500D02*
D03*
D31*
X6755499Y5183500D02*
D03*
X7009499Y5310500D02*
D03*
X6755499Y5437500D02*
D03*
X7009499Y5564500D02*
D03*
X7009500Y3264500D02*
D03*
X6755500Y3137500D02*
D03*
X7009500Y3010500D02*
D03*
X6755500Y2883500D02*
D03*
X10375500Y5731500D02*
D03*
Y5477500D02*
D03*
X10121500Y5350500D02*
D03*
X10375500Y5223500D02*
D03*
X10121500Y5604500D02*
D03*
Y5096500D02*
D03*
X10782500Y1923000D02*
D03*
X10812500Y2575000D02*
D03*
X10558500Y2702000D02*
D03*
X10812500Y2829000D02*
D03*
X10558500Y2956000D02*
D03*
X10528500Y2050000D02*
D03*
Y1796000D02*
D03*
X10782500Y1669000D02*
D03*
X10528500Y1542000D02*
D03*
X10782500Y1415000D02*
D03*
D32*
X9115000Y4542000D02*
D03*
X8242000Y5415000D02*
D03*
Y5165000D02*
D03*
X9365000Y4542000D02*
D03*
X8242000Y5665000D02*
D03*
X8865000Y4542000D02*
D03*
X10220500Y1365500D02*
D03*
X9966500D02*
D03*
X9458500D02*
D03*
X9712500D02*
D03*
D33*
X9440000Y5990000D02*
D03*
X8789999D02*
D03*
Y6440000D02*
D03*
X9440000D02*
D03*
D34*
X8482500Y5915000D02*
D03*
X9747499D02*
D03*
X8482500Y4915000D02*
D03*
X9747499D02*
D03*
D35*
X7882500Y1365000D02*
D03*
X8644500D02*
D03*
X8390500Y1619000D02*
D03*
Y1365000D02*
D03*
X8136500Y1619000D02*
D03*
Y1365000D02*
D03*
X7882500Y1619000D02*
D03*
D36*
X8300000Y2065000D02*
D03*
X8165000D02*
D03*
X8300000Y2660000D02*
D03*
X8165000D02*
D03*
Y2150000D02*
D03*
Y2235000D02*
D03*
Y2320000D02*
D03*
Y2405000D02*
D03*
Y2490000D02*
D03*
Y2575000D02*
D03*
X8300000D02*
D03*
Y2490000D02*
D03*
Y2405000D02*
D03*
Y2320000D02*
D03*
Y2235000D02*
D03*
Y2150000D02*
D03*
D37*
X9546000Y3527500D02*
D03*
D38*
X8297500Y3202500D02*
D03*
D39*
X9204500Y1365500D02*
D03*
D40*
X8297500Y3402500D02*
D03*
D41*
X10054000Y3527500D02*
D03*
X9800000D02*
D03*
D42*
X8202000Y2795000D02*
D03*
Y1930000D02*
D03*
D43*
X7864000Y2795000D02*
D03*
Y1930000D02*
D03*
D44*
X8685000Y3232500D02*
D03*
D45*
X8644500Y1619000D02*
D03*
D46*
X8924500Y1619500D02*
D03*
Y1365500D02*
D03*
D47*
X9227500Y5302500D02*
D03*
X9417500D02*
D03*
X9742500Y5730000D02*
D03*
X9829830Y5443079D02*
D03*
X9337500Y1697500D02*
D03*
X10052500Y3357500D02*
D03*
X9547500Y2517500D02*
D03*
X8832500Y2605000D02*
D03*
X8600000Y2375000D02*
D03*
X8492500Y2740000D02*
D03*
X8762500Y3080000D02*
D03*
X9417500Y3077500D02*
D03*
X7874997Y3149999D02*
D03*
X7799998Y3299999D02*
D03*
X7874997Y3449999D02*
D03*
X8024997Y3149999D02*
D03*
X7949998Y3299999D02*
D03*
X8024997Y3449999D02*
D03*
X8099998Y3299999D02*
D03*
Y3599999D02*
D03*
X10874997Y3449999D02*
D03*
X8100000Y3060000D02*
D03*
X9501498Y3233679D02*
D03*
X10292500Y2667500D02*
D03*
X10315000Y2290000D02*
D03*
X9377500Y2202500D02*
D03*
X10477500Y3660000D02*
D03*
X10252500Y3512500D02*
D03*
X10892500Y3155000D02*
D03*
X10197500Y2745000D02*
D03*
X9450000Y2012500D02*
D03*
X8699169Y2049161D02*
D03*
X8515000Y1960000D02*
D03*
X8672500Y2157500D02*
D03*
X9035013Y2460000D02*
D03*
X9112500Y2327500D02*
D03*
X9017500Y2332500D02*
D03*
X9102500Y2217500D02*
D03*
X9512964Y1632580D02*
D03*
X9687500Y2332500D02*
D03*
X8565000Y2150000D02*
D03*
X9050000Y1842500D02*
D03*
X9252500Y2082500D02*
D03*
X9362500Y1962500D02*
D03*
X10225000Y2222500D02*
D03*
X9725000Y3000000D02*
D03*
X9082500Y2910000D02*
D03*
X9825000Y3227500D02*
D03*
X9572500Y2160000D02*
D03*
X9522500Y2210000D02*
D03*
Y2097500D02*
D03*
X10210000Y2347500D02*
D03*
%TF.MD5,e1e18cea39f057f32a5c8afcea01fca2*%
M02*
