%TF.GenerationSoftware,Altium Limited,Altium Designer,26.2.0 (7)*%
G04 Layer_Color=65535*
%FSLAX45Y45*%
%MOMM*%
%TF.SameCoordinates,894498E9-F992-4E77-9241-7735D3C5E39B*%
%TF.FilePolarity,Positive*%
%TF.FileFunction,Legend,Top*%
%TF.Part,Single*%
G01*
G75*
%TA.AperFunction,NonConductor*%
%ADD57C,0.80000*%
%ADD58C,0.25400*%
%ADD59C,0.20000*%
%ADD60C,0.25000*%
%ADD61C,0.12700*%
%ADD62C,0.15000*%
%ADD63C,0.18000*%
D57*
X6525999Y4990000D02*
G03*
X6525999Y4990000I-3000J0D01*
G01*
Y2697500D02*
G03*
X6525999Y2697500I-3000J0D01*
G01*
D58*
X10422500Y3275000D02*
G03*
X10422500Y3275000I-2500J0D01*
G01*
Y3137500D02*
G03*
X10422500Y3137500I-2500J0D01*
G01*
Y3000000D02*
G03*
X10422500Y3000000I-2500J0D01*
G01*
D59*
X9520000Y1767500D02*
G03*
X9520000Y1767500I-10000J0D01*
G01*
X6622999Y4920000D02*
Y5020000D01*
X6522999Y4920000D02*
X6622999D01*
X5673000D02*
X5773000D01*
X5673000D02*
Y5020000D01*
X5672999Y5740000D02*
Y5840001D01*
X5772999D01*
X6522999D02*
X6622999D01*
Y5740000D02*
Y5840001D01*
Y2627500D02*
Y2727500D01*
X6522999Y2627500D02*
X6622999D01*
X5673000D02*
X5773000D01*
X5673000D02*
Y2727500D01*
X5672999Y3447500D02*
Y3547500D01*
X5772999D01*
X6522999D02*
X6622999D01*
Y3447500D02*
Y3547500D01*
X9117500Y1231000D02*
X10297500D01*
X9120000Y1500000D02*
X10295000D01*
X8522500Y1970000D02*
X8642500D01*
X8522500Y1780000D02*
X8642500D01*
X9600000Y1815000D02*
X9691250Y1906250D01*
X9740000Y1897500D02*
X9850000Y1787500D01*
X9740000Y1897500D02*
X9740000D01*
X10406000Y2536000D02*
Y2906000D01*
X10936000Y2536000D02*
Y2906000D01*
X10405000Y1525000D02*
Y1995000D01*
X10935000Y1525000D02*
Y1995000D01*
X9335000Y3577500D02*
X9385000D01*
X8485000Y3217500D02*
X8535000D01*
X8485000Y3577500D02*
X8535000D01*
X9385000Y3217500D02*
Y3577500D01*
X8485000Y3217500D02*
Y3577500D01*
D60*
X8327500Y1797500D02*
G03*
X8327500Y1797500I-12500J0D01*
G01*
X8697500Y3105000D02*
G03*
X8697500Y3105000I-12500J0D01*
G01*
D61*
X9914999Y4965000D02*
Y5855000D01*
X9565000Y6085000D02*
X9723000D01*
X8507999D02*
X8664999D01*
Y6605000D01*
X9565000D01*
Y6085000D02*
Y6605000D01*
X8124999Y4925000D02*
X8320000D01*
X8124999D02*
Y5905000D01*
X8320000D01*
D62*
X9600000Y4425000D02*
Y4735000D01*
X8630000Y4425000D02*
X9600000D01*
X8630000D02*
Y4725000D01*
X9600000Y4735000D02*
X9723000D01*
X8507999Y4725000D02*
X8630000D01*
D63*
X10044818Y1857725D02*
X10110225Y1792318D01*
X10189775Y2002682D02*
X10255182Y1937275D01*
%TF.MD5,ad04999c94e1b9c89774e85cce9d205a*%
M02*
