%TF.GenerationSoftware,Altium Limited,Altium Designer,26.2.0 (7)*%
G04 Layer_Color=32896*
%FSLAX45Y45*%
%MOMM*%
%TF.SameCoordinates,894498E9-F992-4E77-9241-7735D3C5E39B*%
%TF.FilePolarity,Positive*%
%TF.FileFunction,Legend,Bot*%
%TF.Part,Single*%
G01*
G75*
%TA.AperFunction,NonConductor*%
%ADD59C,0.20000*%
%ADD60C,0.25000*%
%ADD64C,0.10000*%
%ADD65C,0.16000*%
G36*
X8014812Y3528977D02*
X8017319D01*
Y3528619D01*
X8018752D01*
Y3528261D01*
X8019826D01*
Y3527903D01*
X8020901D01*
Y3527544D01*
X8021617D01*
Y3527186D01*
X8021976D01*
Y3526828D01*
X8022692D01*
Y3526470D01*
X8023408D01*
Y3526112D01*
X8023767D01*
Y3525753D01*
X8024125D01*
Y3525395D01*
X8024841D01*
Y3524679D01*
X8025200D01*
Y3524321D01*
X8025558D01*
Y3523962D01*
X8025916D01*
Y3523604D01*
X8026274D01*
Y3522888D01*
X8026632D01*
Y3522530D01*
X8026991D01*
Y3521455D01*
X8027349D01*
Y3520739D01*
X8027707D01*
Y3519306D01*
X8028065D01*
Y3513933D01*
X8027707D01*
Y3512142D01*
X8027349D01*
Y3511067D01*
X8026991D01*
Y3510351D01*
X8026632D01*
Y3509276D01*
X8026274D01*
Y3508560D01*
X8025916D01*
Y3507843D01*
X8025558D01*
Y3507127D01*
X8025200D01*
Y3506411D01*
X8024841D01*
Y3506052D01*
X8024483D01*
Y3505694D01*
X8024125D01*
Y3504978D01*
X8023767D01*
Y3504620D01*
X8023408D01*
Y3503903D01*
X8023050D01*
Y3503545D01*
X8022692D01*
Y3503187D01*
X8022334D01*
Y3502829D01*
X8021976D01*
Y3502471D01*
X8021617D01*
Y3502112D01*
X8021259D01*
Y3501754D01*
X8020901D01*
Y3501396D01*
X8020543D01*
Y3501038D01*
X8020185D01*
Y3500680D01*
X8019826D01*
Y3500321D01*
X8019468D01*
Y3499963D01*
X8019110D01*
Y3499605D01*
X8018752D01*
Y3499247D01*
X8018394D01*
Y3498889D01*
X8017677D01*
Y3498530D01*
X8017319D01*
Y3498172D01*
X8016961D01*
Y3497814D01*
X8016603D01*
Y3497456D01*
X8016245D01*
Y3497097D01*
X8015528D01*
Y3496739D01*
X8015170D01*
Y3496381D01*
X8014812D01*
Y3496023D01*
X8014454D01*
Y3495665D01*
X8014095D01*
Y3495306D01*
X8013379D01*
Y3494948D01*
X8013021D01*
Y3494590D01*
X8012663D01*
Y3494232D01*
X8011946D01*
Y3493874D01*
X8011588D01*
Y3493515D01*
X8011230D01*
Y3493157D01*
X8010513D01*
Y3492799D01*
X8009797D01*
Y3492083D01*
X8009081D01*
Y3493157D01*
X8009439D01*
Y3494948D01*
X8009797D01*
Y3496023D01*
X8010155D01*
Y3496739D01*
X8010513D01*
Y3497814D01*
X8010871D01*
Y3498530D01*
X8011230D01*
Y3499247D01*
X8011588D01*
Y3499963D01*
X8011946D01*
Y3500680D01*
X8012304D01*
Y3501396D01*
X8012663D01*
Y3501754D01*
X8013021D01*
Y3502471D01*
X8013379D01*
Y3502829D01*
X8013737D01*
Y3503545D01*
X8014095D01*
Y3503903D01*
X8014454D01*
Y3504261D01*
X8014812D01*
Y3504978D01*
X8015170D01*
Y3505336D01*
X8015528D01*
Y3505694D01*
X8015886D01*
Y3506411D01*
X8016245D01*
Y3506769D01*
X8016603D01*
Y3507127D01*
X8016961D01*
Y3507485D01*
X8017319D01*
Y3507843D01*
X8017677D01*
Y3508560D01*
X8018036D01*
Y3508918D01*
X8018394D01*
Y3509276D01*
X8018752D01*
Y3509634D01*
X8019110D01*
Y3510351D01*
X8019468D01*
Y3510709D01*
X8019826D01*
Y3511067D01*
X8020185D01*
Y3511784D01*
X8020543D01*
Y3512142D01*
X8020901D01*
Y3513216D01*
X8021259D01*
Y3513933D01*
X8021617D01*
Y3517873D01*
X8021259D01*
Y3518589D01*
X8020901D01*
Y3519306D01*
X8020543D01*
Y3519664D01*
X8020185D01*
Y3520022D01*
X8019826D01*
Y3520380D01*
X8019468D01*
Y3520739D01*
X8019110D01*
Y3521097D01*
X8018394D01*
Y3521455D01*
X8017677D01*
Y3521813D01*
X8016603D01*
Y3522171D01*
X8014812D01*
Y3522530D01*
X8010513D01*
Y3522171D01*
X8007648D01*
Y3521813D01*
X8006215D01*
Y3521455D01*
X8004424D01*
Y3521097D01*
X8002633D01*
Y3520739D01*
X8001200D01*
Y3520380D01*
X7999767D01*
Y3520022D01*
X7999051D01*
Y3519664D01*
X7997618D01*
Y3519306D01*
X7996185D01*
Y3518947D01*
X7995469D01*
Y3518589D01*
X7994394D01*
Y3518231D01*
X7993320D01*
Y3517873D01*
X7992604D01*
Y3517515D01*
X7991887D01*
Y3517157D01*
X7991171D01*
Y3516798D01*
X7990096D01*
Y3516440D01*
X7989380D01*
Y3516082D01*
X7988663D01*
Y3515724D01*
X7987947D01*
Y3515366D01*
X7987589D01*
Y3515007D01*
X7986872D01*
Y3514649D01*
X7986156D01*
Y3514291D01*
X7985798D01*
Y3513933D01*
X7985439D01*
Y3513575D01*
X7984723D01*
Y3513216D01*
X7984365D01*
Y3512858D01*
X7984007D01*
Y3512500D01*
X7983648D01*
Y3512142D01*
X7982932D01*
Y3511426D01*
X7982574D01*
Y3511067D01*
X7982216D01*
Y3510709D01*
X7981858D01*
Y3510351D01*
X7981499D01*
Y3509993D01*
X7981141D01*
Y3509276D01*
X7980783D01*
Y3508560D01*
X7980425D01*
Y3507485D01*
X7980067D01*
Y3506052D01*
X7979708D01*
Y3503903D01*
X7980067D01*
Y3502471D01*
X7980425D01*
Y3501396D01*
X7980783D01*
Y3500680D01*
X7981141D01*
Y3499963D01*
X7981499D01*
Y3499247D01*
X7981858D01*
Y3498530D01*
X7982216D01*
Y3498172D01*
X7982574D01*
Y3497814D01*
X7982932D01*
Y3497097D01*
X7983290D01*
Y3496739D01*
X7983648D01*
Y3496381D01*
X7984007D01*
Y3496023D01*
X7984365D01*
Y3495665D01*
X7984723D01*
Y3495306D01*
X7985081D01*
Y3494948D01*
X7985439D01*
Y3494590D01*
X7985798D01*
Y3494232D01*
X7986514D01*
Y3493874D01*
X7986872D01*
Y3493515D01*
X7987230D01*
Y3493157D01*
X7987947D01*
Y3492799D01*
X7988305D01*
Y3492441D01*
X7989022D01*
Y3492083D01*
X7989738D01*
Y3491725D01*
X7990454D01*
Y3491366D01*
X7990813D01*
Y3491008D01*
X7991529D01*
Y3490650D01*
X7992245D01*
Y3490292D01*
X7992962D01*
Y3489934D01*
X7993678D01*
Y3489575D01*
X7994394D01*
Y3489217D01*
X7995469D01*
Y3488859D01*
X7996185D01*
Y3488501D01*
X7996902D01*
Y3488143D01*
X7997618D01*
Y3487784D01*
X7998335D01*
Y3487426D01*
X7999409D01*
Y3487068D01*
X8000484D01*
Y3486710D01*
X8001200D01*
Y3486352D01*
X8002275D01*
Y3485993D01*
X8002991D01*
Y3485635D01*
X8004066D01*
Y3485277D01*
X8004782D01*
Y3484919D01*
X8003708D01*
Y3484560D01*
X8002275D01*
Y3484202D01*
X8000484D01*
Y3483844D01*
X7995111D01*
Y3484202D01*
X7993320D01*
Y3484560D01*
X7991887D01*
Y3484919D01*
X7990454D01*
Y3485277D01*
X7989738D01*
Y3485635D01*
X7988663D01*
Y3485993D01*
X7987947D01*
Y3486352D01*
X7987230D01*
Y3486710D01*
X7986514D01*
Y3487068D01*
X7985798D01*
Y3487426D01*
X7985439D01*
Y3487784D01*
X7984723D01*
Y3488143D01*
X7984007D01*
Y3488501D01*
X7983648D01*
Y3488859D01*
X7983290D01*
Y3489217D01*
X7982574D01*
Y3489575D01*
X7982216D01*
Y3489934D01*
X7981858D01*
Y3490292D01*
X7981141D01*
Y3490650D01*
X7980783D01*
Y3491008D01*
X7980425D01*
Y3491366D01*
X7980067D01*
Y3491725D01*
X7979708D01*
Y3492083D01*
X7979350D01*
Y3492441D01*
X7978992D01*
Y3492799D01*
X7978634D01*
Y3493157D01*
X7978276D01*
Y3493515D01*
X7977917D01*
Y3494232D01*
X7977559D01*
Y3494590D01*
X7977201D01*
Y3494948D01*
X7976843D01*
Y3495665D01*
X7976126D01*
Y3496381D01*
X7975768D01*
Y3497097D01*
X7975410D01*
Y3497814D01*
X7975052D01*
Y3498172D01*
X7974693D01*
Y3498889D01*
X7974335D01*
Y3499605D01*
X7973977D01*
Y3500680D01*
X7973619D01*
Y3501396D01*
X7973261D01*
Y3502471D01*
X7972903D01*
Y3503545D01*
X7972544D01*
Y3506411D01*
X7972186D01*
Y3507127D01*
X7972544D01*
Y3510709D01*
X7972903D01*
Y3512142D01*
X7973261D01*
Y3512858D01*
X7973619D01*
Y3513575D01*
X7973977D01*
Y3514291D01*
X7974335D01*
Y3515007D01*
X7974693D01*
Y3515366D01*
X7975052D01*
Y3515724D01*
X7975410D01*
Y3516440D01*
X7975768D01*
Y3516798D01*
X7976126D01*
Y3517157D01*
X7976485D01*
Y3517515D01*
X7976843D01*
Y3517873D01*
X7977201D01*
Y3518231D01*
X7977559D01*
Y3518589D01*
X7978276D01*
Y3518947D01*
X7978634D01*
Y3519306D01*
X7978992D01*
Y3519664D01*
X7979350D01*
Y3520022D01*
X7980067D01*
Y3520380D01*
X7980425D01*
Y3520739D01*
X7981141D01*
Y3521097D01*
X7981858D01*
Y3521455D01*
X7982574D01*
Y3521813D01*
X7982932D01*
Y3522171D01*
X7984007D01*
Y3522530D01*
X7984723D01*
Y3522888D01*
X7985439D01*
Y3523246D01*
X7986156D01*
Y3523604D01*
X7987230D01*
Y3523962D01*
X7987947D01*
Y3524321D01*
X7989022D01*
Y3524679D01*
X7989738D01*
Y3525037D01*
X7990813D01*
Y3525395D01*
X7991887D01*
Y3525753D01*
X7993320D01*
Y3526112D01*
X7994036D01*
Y3526470D01*
X7995469D01*
Y3526828D01*
X7996902D01*
Y3527186D01*
X7998335D01*
Y3527544D01*
X7999767D01*
Y3527903D01*
X8001917D01*
Y3528261D01*
X8003350D01*
Y3528619D01*
X8005499D01*
Y3528977D01*
X8009081D01*
Y3529335D01*
X8014812D01*
Y3528977D01*
D02*
G37*
G36*
X7959291Y3521097D02*
X7960724D01*
Y3520739D01*
X7961798D01*
Y3520380D01*
X7962157D01*
Y3520022D01*
X7962873D01*
Y3519664D01*
X7963231D01*
Y3519306D01*
X7963948D01*
Y3518947D01*
X7964306D01*
Y3518589D01*
X7964664D01*
Y3517873D01*
X7965380D01*
Y3517157D01*
X7965739D01*
Y3516440D01*
X7966097D01*
Y3515724D01*
X7966455D01*
Y3515366D01*
X7966813D01*
Y3514291D01*
X7967172D01*
Y3513216D01*
X7967530D01*
Y3512142D01*
X7967888D01*
Y3510709D01*
X7968246D01*
Y3508560D01*
X7968604D01*
Y3506411D01*
X7968962D01*
Y3503545D01*
X7969321D01*
Y3499605D01*
X7969679D01*
Y3497814D01*
X7970037D01*
Y3495665D01*
X7970395D01*
Y3494590D01*
X7970753D01*
Y3493515D01*
X7971112D01*
Y3492799D01*
X7971470D01*
Y3492083D01*
X7971828D01*
Y3491366D01*
X7972186D01*
Y3490650D01*
X7972544D01*
Y3489934D01*
X7972903D01*
Y3489575D01*
X7973261D01*
Y3489217D01*
X7973619D01*
Y3488501D01*
X7973977D01*
Y3488143D01*
X7974335D01*
Y3487784D01*
X7974693D01*
Y3487426D01*
X7975052D01*
Y3487068D01*
X7975410D01*
Y3486710D01*
X7975768D01*
Y3486352D01*
X7976485D01*
Y3485993D01*
X7976843D01*
Y3485635D01*
X7977201D01*
Y3485277D01*
X7977917D01*
Y3484919D01*
X7978276D01*
Y3484560D01*
X7978992D01*
Y3484202D01*
X7979708D01*
Y3483844D01*
X7980067D01*
Y3483486D01*
X7980783D01*
Y3483128D01*
X7981858D01*
Y3482770D01*
X7982216D01*
Y3482411D01*
X7982932D01*
Y3482053D01*
X7983648D01*
Y3481695D01*
X7984723D01*
Y3481337D01*
X7985439D01*
Y3480979D01*
X7986156D01*
Y3480620D01*
X7986872D01*
Y3480262D01*
X7987947D01*
Y3479904D01*
X7988663D01*
Y3479546D01*
X7989380D01*
Y3479188D01*
X7990096D01*
Y3478829D01*
X7990813D01*
Y3478471D01*
X7990454D01*
Y3478113D01*
X7989738D01*
Y3477755D01*
X7989022D01*
Y3477397D01*
X7987589D01*
Y3477039D01*
X7986514D01*
Y3476680D01*
X7981858D01*
Y3477039D01*
X7980067D01*
Y3477397D01*
X7978634D01*
Y3477755D01*
X7977559D01*
Y3478113D01*
X7976843D01*
Y3478471D01*
X7976126D01*
Y3478829D01*
X7975410D01*
Y3479188D01*
X7975052D01*
Y3479546D01*
X7974335D01*
Y3479904D01*
X7973977D01*
Y3480262D01*
X7973261D01*
Y3480620D01*
X7972903D01*
Y3480979D01*
X7972544D01*
Y3481337D01*
X7971828D01*
Y3481695D01*
X7971470D01*
Y3482053D01*
X7971112D01*
Y3482411D01*
X7970753D01*
Y3482770D01*
X7970395D01*
Y3483128D01*
X7970037D01*
Y3483486D01*
X7969679D01*
Y3483844D01*
X7969321D01*
Y3484202D01*
X7968962D01*
Y3484919D01*
X7968604D01*
Y3485277D01*
X7968246D01*
Y3485635D01*
X7967888D01*
Y3486352D01*
X7967530D01*
Y3486710D01*
X7967172D01*
Y3487426D01*
X7966813D01*
Y3488143D01*
X7966455D01*
Y3488859D01*
X7966097D01*
Y3489217D01*
X7965739D01*
Y3490292D01*
X7965380D01*
Y3491366D01*
X7965022D01*
Y3492083D01*
X7964664D01*
Y3493874D01*
X7964306D01*
Y3496381D01*
X7963948D01*
Y3501038D01*
X7963589D01*
Y3504261D01*
X7963231D01*
Y3506411D01*
X7962873D01*
Y3507843D01*
X7962515D01*
Y3509276D01*
X7962157D01*
Y3509993D01*
X7961798D01*
Y3511067D01*
X7961440D01*
Y3511784D01*
X7961082D01*
Y3512142D01*
X7960724D01*
Y3512858D01*
X7960366D01*
Y3513216D01*
X7960007D01*
Y3513575D01*
X7959649D01*
Y3513933D01*
X7958933D01*
Y3514291D01*
X7958575D01*
Y3514649D01*
X7957142D01*
Y3515007D01*
X7956067D01*
Y3514649D01*
X7954276D01*
Y3514291D01*
X7953202D01*
Y3513933D01*
X7952485D01*
Y3513575D01*
X7952127D01*
Y3513216D01*
X7951411D01*
Y3512858D01*
X7951052D01*
Y3512500D01*
X7950694D01*
Y3512142D01*
X7950336D01*
Y3511784D01*
X7949978D01*
Y3511426D01*
X7949620D01*
Y3511067D01*
X7949261D01*
Y3510709D01*
X7948903D01*
Y3510351D01*
X7948545D01*
Y3509993D01*
X7948187D01*
Y3509276D01*
X7947829D01*
Y3508918D01*
X7947471D01*
Y3508560D01*
X7947112D01*
Y3507843D01*
X7946754D01*
Y3507485D01*
X7946396D01*
Y3507127D01*
X7946038D01*
Y3506411D01*
X7945680D01*
Y3505694D01*
X7945321D01*
Y3505336D01*
X7944963D01*
Y3504978D01*
X7944605D01*
Y3504261D01*
X7944247D01*
Y3503545D01*
X7943889D01*
Y3503187D01*
X7943530D01*
Y3502471D01*
X7943172D01*
Y3501754D01*
X7942814D01*
Y3501396D01*
X7942456D01*
Y3500680D01*
X7942098D01*
Y3499963D01*
X7941739D01*
Y3499247D01*
X7941381D01*
Y3498530D01*
X7941023D01*
Y3497814D01*
X7940665D01*
Y3497097D01*
X7940307D01*
Y3496023D01*
X7939948D01*
Y3495306D01*
X7939590D01*
Y3494232D01*
X7939232D01*
Y3493515D01*
X7938874D01*
Y3492083D01*
X7938515D01*
Y3491008D01*
X7938157D01*
Y3489934D01*
X7937799D01*
Y3488501D01*
X7937441D01*
Y3487068D01*
X7937083D01*
Y3484560D01*
X7936725D01*
Y3477755D01*
X7937083D01*
Y3475964D01*
X7937441D01*
Y3474889D01*
X7937799D01*
Y3473456D01*
X7938157D01*
Y3472740D01*
X7938515D01*
Y3472024D01*
X7938874D01*
Y3470949D01*
X7939232D01*
Y3470591D01*
X7939590D01*
Y3469874D01*
X7939948D01*
Y3469158D01*
X7940307D01*
Y3468800D01*
X7940665D01*
Y3468442D01*
X7941023D01*
Y3468083D01*
X7941381D01*
Y3467725D01*
X7941739D01*
Y3467367D01*
X7942098D01*
Y3467009D01*
X7942456D01*
Y3466651D01*
X7942814D01*
Y3466293D01*
X7943172D01*
Y3465934D01*
X7943530D01*
Y3465576D01*
X7943889D01*
Y3465218D01*
X7944605D01*
Y3464860D01*
X7944963D01*
Y3464502D01*
X7945680D01*
Y3464143D01*
X7946396D01*
Y3463785D01*
X7946754D01*
Y3463427D01*
X7947829D01*
Y3463069D01*
X7948903D01*
Y3462711D01*
X7950336D01*
Y3462352D01*
X7955709D01*
Y3462711D01*
X7957500D01*
Y3463069D01*
X7958933D01*
Y3463427D01*
X7960724D01*
Y3463785D01*
X7961798D01*
Y3464143D01*
X7963231D01*
Y3464502D01*
X7964306D01*
Y3464860D01*
X7965380D01*
Y3465218D01*
X7966455D01*
Y3465576D01*
X7967530D01*
Y3465934D01*
X7968604D01*
Y3466293D01*
X7970037D01*
Y3466651D01*
X7971470D01*
Y3467009D01*
X7972903D01*
Y3467367D01*
X7975052D01*
Y3467725D01*
X7978634D01*
Y3467367D01*
X7978276D01*
Y3467009D01*
X7977917D01*
Y3466651D01*
X7977559D01*
Y3466293D01*
X7977201D01*
Y3465934D01*
X7976843D01*
Y3465576D01*
X7976485D01*
Y3465218D01*
X7976126D01*
Y3464860D01*
X7975410D01*
Y3464502D01*
X7975052D01*
Y3464143D01*
X7974335D01*
Y3463785D01*
X7973977D01*
Y3463427D01*
X7973619D01*
Y3463069D01*
X7973261D01*
Y3462711D01*
X7972544D01*
Y3462352D01*
X7971828D01*
Y3461994D01*
X7971470D01*
Y3461636D01*
X7970753D01*
Y3461278D01*
X7970395D01*
Y3460919D01*
X7969321D01*
Y3460561D01*
X7968604D01*
Y3460203D01*
X7967888D01*
Y3459845D01*
X7967172D01*
Y3459487D01*
X7966097D01*
Y3459128D01*
X7965380D01*
Y3458770D01*
X7964664D01*
Y3458412D01*
X7963589D01*
Y3458054D01*
X7962157D01*
Y3457696D01*
X7960724D01*
Y3457338D01*
X7958933D01*
Y3456979D01*
X7957500D01*
Y3456621D01*
X7955351D01*
Y3456263D01*
X7949261D01*
Y3456621D01*
X7946754D01*
Y3456979D01*
X7945321D01*
Y3457338D01*
X7943889D01*
Y3457696D01*
X7942814D01*
Y3458054D01*
X7942098D01*
Y3458412D01*
X7941381D01*
Y3458770D01*
X7940665D01*
Y3459128D01*
X7939948D01*
Y3459487D01*
X7939590D01*
Y3459845D01*
X7938874D01*
Y3460203D01*
X7938515D01*
Y3460561D01*
X7938157D01*
Y3460919D01*
X7937799D01*
Y3461278D01*
X7937441D01*
Y3461636D01*
X7937083D01*
Y3461994D01*
X7936725D01*
Y3462352D01*
X7936366D01*
Y3462711D01*
X7936008D01*
Y3463069D01*
X7935650D01*
Y3463427D01*
X7935292D01*
Y3464143D01*
X7934934D01*
Y3464502D01*
X7934575D01*
Y3465218D01*
X7934217D01*
Y3465934D01*
X7933859D01*
Y3466293D01*
X7933501D01*
Y3467009D01*
X7933143D01*
Y3468083D01*
X7932784D01*
Y3469158D01*
X7932426D01*
Y3470233D01*
X7932068D01*
Y3471307D01*
X7931710D01*
Y3473456D01*
X7931352D01*
Y3476322D01*
X7930994D01*
Y3482053D01*
X7931352D01*
Y3485635D01*
X7931710D01*
Y3487784D01*
X7932068D01*
Y3489575D01*
X7932426D01*
Y3491008D01*
X7932784D01*
Y3492441D01*
X7933143D01*
Y3493874D01*
X7933501D01*
Y3494948D01*
X7933859D01*
Y3496023D01*
X7934217D01*
Y3497097D01*
X7934575D01*
Y3497814D01*
X7934934D01*
Y3498889D01*
X7935292D01*
Y3499605D01*
X7935650D01*
Y3500680D01*
X7936008D01*
Y3501396D01*
X7936366D01*
Y3502112D01*
X7936725D01*
Y3502829D01*
X7937083D01*
Y3503545D01*
X7937441D01*
Y3504261D01*
X7937799D01*
Y3504978D01*
X7938157D01*
Y3505336D01*
X7938515D01*
Y3506052D01*
X7938874D01*
Y3506769D01*
X7939232D01*
Y3507127D01*
X7939590D01*
Y3507843D01*
X7939948D01*
Y3508202D01*
X7940307D01*
Y3508560D01*
X7940665D01*
Y3509276D01*
X7941023D01*
Y3509993D01*
X7941739D01*
Y3510709D01*
X7942098D01*
Y3511067D01*
X7942456D01*
Y3511784D01*
X7942814D01*
Y3512142D01*
X7943172D01*
Y3512858D01*
X7943889D01*
Y3513575D01*
X7944247D01*
Y3513933D01*
X7944605D01*
Y3514291D01*
X7944963D01*
Y3514649D01*
X7945321D01*
Y3515007D01*
X7945680D01*
Y3515724D01*
X7946038D01*
Y3516082D01*
X7946396D01*
Y3516440D01*
X7946754D01*
Y3516798D01*
X7947471D01*
Y3517157D01*
X7947829D01*
Y3517515D01*
X7948187D01*
Y3517873D01*
X7948545D01*
Y3518231D01*
X7948903D01*
Y3518589D01*
X7949620D01*
Y3518947D01*
X7949978D01*
Y3519306D01*
X7950336D01*
Y3519664D01*
X7951052D01*
Y3520022D01*
X7951769D01*
Y3520380D01*
X7952485D01*
Y3520739D01*
X7953202D01*
Y3521097D01*
X7954635D01*
Y3521455D01*
X7959291D01*
Y3521097D01*
D02*
G37*
G36*
X7761207Y3506411D02*
X7763715D01*
Y3506052D01*
X7765506D01*
Y3505694D01*
X7767297D01*
Y3505336D01*
X7769088D01*
Y3504978D01*
X7770521D01*
Y3504620D01*
X7771595D01*
Y3504261D01*
X7772670D01*
Y3503903D01*
X7773744D01*
Y3503545D01*
X7774819D01*
Y3503187D01*
X7775894D01*
Y3502829D01*
X7776610D01*
Y3502471D01*
X7777685D01*
Y3502112D01*
X7778401D01*
Y3501754D01*
X7779118D01*
Y3501396D01*
X7779834D01*
Y3501038D01*
X7780550D01*
Y3500680D01*
X7781267D01*
Y3500321D01*
X7781983D01*
Y3499963D01*
X7782341D01*
Y3499605D01*
X7783058D01*
Y3499247D01*
X7783774D01*
Y3498889D01*
X7784132D01*
Y3498530D01*
X7784849D01*
Y3498172D01*
X7785207D01*
Y3497814D01*
X7785923D01*
Y3497456D01*
X7786281D01*
Y3497097D01*
X7786998D01*
Y3496739D01*
X7787356D01*
Y3496381D01*
X7787714D01*
Y3496023D01*
X7788073D01*
Y3495665D01*
X7788431D01*
Y3495306D01*
X7789147D01*
Y3494948D01*
X7789505D01*
Y3494590D01*
X7789864D01*
Y3494232D01*
X7790222D01*
Y3493874D01*
X7790580D01*
Y3493515D01*
X7790938D01*
Y3493157D01*
X7791296D01*
Y3492799D01*
X7791654D01*
Y3492441D01*
X7792013D01*
Y3492083D01*
X7792371D01*
Y3491725D01*
X7792729D01*
Y3491366D01*
X7793087D01*
Y3491008D01*
X7793445D01*
Y3490650D01*
X7793804D01*
Y3489934D01*
X7794162D01*
Y3489575D01*
X7794520D01*
Y3489217D01*
X7794878D01*
Y3488501D01*
X7795595D01*
Y3487784D01*
X7795953D01*
Y3487426D01*
X7796311D01*
Y3486710D01*
X7796669D01*
Y3486352D01*
X7797027D01*
Y3485635D01*
X7797385D01*
Y3485277D01*
X7797744D01*
Y3484560D01*
X7798102D01*
Y3484202D01*
X7798460D01*
Y3483486D01*
X7798818D01*
Y3482770D01*
X7799177D01*
Y3482053D01*
X7799535D01*
Y3481337D01*
X7799893D01*
Y3480620D01*
X7800251D01*
Y3479188D01*
X7800609D01*
Y3477755D01*
X7800968D01*
Y3473098D01*
X7800609D01*
Y3472024D01*
X7800251D01*
Y3471307D01*
X7799893D01*
Y3470591D01*
X7799535D01*
Y3470233D01*
X7799177D01*
Y3469516D01*
X7798818D01*
Y3469158D01*
X7798460D01*
Y3468800D01*
X7798102D01*
Y3468442D01*
X7797744D01*
Y3468083D01*
X7796669D01*
Y3470949D01*
X7796311D01*
Y3472740D01*
X7795953D01*
Y3473815D01*
X7795595D01*
Y3475248D01*
X7795236D01*
Y3476322D01*
X7794878D01*
Y3477039D01*
X7794520D01*
Y3478113D01*
X7794162D01*
Y3478829D01*
X7793804D01*
Y3479904D01*
X7793445D01*
Y3480620D01*
X7793087D01*
Y3480979D01*
X7792729D01*
Y3481695D01*
X7792371D01*
Y3482411D01*
X7792013D01*
Y3482770D01*
X7791654D01*
Y3483486D01*
X7791296D01*
Y3483844D01*
X7790938D01*
Y3484560D01*
X7790580D01*
Y3484919D01*
X7790222D01*
Y3485277D01*
X7789864D01*
Y3485993D01*
X7789505D01*
Y3486352D01*
X7789147D01*
Y3486710D01*
X7788789D01*
Y3487068D01*
X7788431D01*
Y3487426D01*
X7788073D01*
Y3487784D01*
X7787714D01*
Y3488143D01*
X7787356D01*
Y3488501D01*
X7786998D01*
Y3488859D01*
X7786640D01*
Y3489217D01*
X7786281D01*
Y3489575D01*
X7785923D01*
Y3489934D01*
X7785565D01*
Y3490292D01*
X7785207D01*
Y3490650D01*
X7784490D01*
Y3491008D01*
X7784132D01*
Y3491366D01*
X7783774D01*
Y3491725D01*
X7783416D01*
Y3492083D01*
X7782699D01*
Y3492441D01*
X7782341D01*
Y3492799D01*
X7781983D01*
Y3493157D01*
X7781267D01*
Y3493515D01*
X7780550D01*
Y3493874D01*
X7779834D01*
Y3494232D01*
X7779476D01*
Y3494590D01*
X7778759D01*
Y3494948D01*
X7778043D01*
Y3495306D01*
X7777327D01*
Y3495665D01*
X7776610D01*
Y3496023D01*
X7775894D01*
Y3496381D01*
X7775177D01*
Y3496739D01*
X7774461D01*
Y3497097D01*
X7773386D01*
Y3497456D01*
X7772670D01*
Y3497814D01*
X7771595D01*
Y3498172D01*
X7770521D01*
Y3498530D01*
X7769088D01*
Y3498889D01*
X7768013D01*
Y3499247D01*
X7766581D01*
Y3499605D01*
X7764790D01*
Y3499963D01*
X7762640D01*
Y3500321D01*
X7759775D01*
Y3500680D01*
X7748312D01*
Y3500321D01*
X7745447D01*
Y3499963D01*
X7743656D01*
Y3499605D01*
X7741865D01*
Y3499247D01*
X7740432D01*
Y3498889D01*
X7738999D01*
Y3498530D01*
X7738283D01*
Y3498172D01*
X7736850D01*
Y3497814D01*
X7735775D01*
Y3497456D01*
X7735059D01*
Y3497097D01*
X7733985D01*
Y3496739D01*
X7733268D01*
Y3496381D01*
X7732552D01*
Y3496023D01*
X7731835D01*
Y3495665D01*
X7730761D01*
Y3495306D01*
X7730403D01*
Y3494948D01*
X7729686D01*
Y3494590D01*
X7728970D01*
Y3494232D01*
X7728612D01*
Y3493874D01*
X7727895D01*
Y3493515D01*
X7727179D01*
Y3493157D01*
X7726820D01*
Y3492799D01*
X7726104D01*
Y3492441D01*
X7725746D01*
Y3492083D01*
X7725388D01*
Y3491725D01*
X7724671D01*
Y3491366D01*
X7724313D01*
Y3491008D01*
X7723955D01*
Y3490650D01*
X7723597D01*
Y3490292D01*
X7723239D01*
Y3489934D01*
X7722880D01*
Y3489575D01*
X7722522D01*
Y3489217D01*
X7722164D01*
Y3488859D01*
X7721806D01*
Y3488501D01*
X7721448D01*
Y3488143D01*
X7721089D01*
Y3487784D01*
X7720731D01*
Y3487426D01*
X7720373D01*
Y3487068D01*
X7720015D01*
Y3486352D01*
X7719657D01*
Y3485993D01*
X7719299D01*
Y3485635D01*
X7718940D01*
Y3484919D01*
X7718582D01*
Y3484560D01*
X7718224D01*
Y3484202D01*
X7717866D01*
Y3483486D01*
X7717508D01*
Y3482770D01*
X7717149D01*
Y3482411D01*
X7716791D01*
Y3481695D01*
X7716433D01*
Y3480620D01*
X7716075D01*
Y3480262D01*
X7715716D01*
Y3479546D01*
X7715358D01*
Y3478471D01*
X7715000D01*
Y3477755D01*
X7714642D01*
Y3476680D01*
X7714284D01*
Y3475964D01*
X7713925D01*
Y3474889D01*
X7713567D01*
Y3473815D01*
X7713209D01*
Y3472382D01*
X7712851D01*
Y3470949D01*
X7712493D01*
Y3469158D01*
X7712134D01*
Y3467725D01*
X7711776D01*
Y3465218D01*
X7711418D01*
Y3461636D01*
X7711060D01*
Y3451965D01*
X7711418D01*
Y3447308D01*
X7711776D01*
Y3444801D01*
X7712134D01*
Y3442651D01*
X7712493D01*
Y3440861D01*
X7712851D01*
Y3439069D01*
X7713209D01*
Y3437637D01*
X7713567D01*
Y3436204D01*
X7713925D01*
Y3434771D01*
X7714284D01*
Y3433696D01*
X7714642D01*
Y3432980D01*
X7715000D01*
Y3431906D01*
X7715358D01*
Y3430831D01*
X7715716D01*
Y3429756D01*
X7716075D01*
Y3429040D01*
X7716433D01*
Y3427965D01*
X7716791D01*
Y3426891D01*
X7717149D01*
Y3426174D01*
X7717508D01*
Y3425458D01*
X7717866D01*
Y3424741D01*
X7718224D01*
Y3424025D01*
X7718582D01*
Y3423309D01*
X7718940D01*
Y3422592D01*
X7719299D01*
Y3422234D01*
X7719657D01*
Y3421518D01*
X7720015D01*
Y3420801D01*
X7720373D01*
Y3420085D01*
X7720731D01*
Y3419369D01*
X7721089D01*
Y3419010D01*
X7721448D01*
Y3418294D01*
X7721806D01*
Y3417578D01*
X7722164D01*
Y3417219D01*
X7722522D01*
Y3416861D01*
X7722880D01*
Y3416145D01*
X7723239D01*
Y3415787D01*
X7723597D01*
Y3415428D01*
X7723955D01*
Y3414712D01*
X7724313D01*
Y3414354D01*
X7724671D01*
Y3413996D01*
X7725030D01*
Y3413279D01*
X7725388D01*
Y3412921D01*
X7725746D01*
Y3412563D01*
X7726104D01*
Y3412205D01*
X7726462D01*
Y3411846D01*
X7726820D01*
Y3411130D01*
X7727179D01*
Y3410772D01*
X7727537D01*
Y3410414D01*
X7727895D01*
Y3410055D01*
X7728253D01*
Y3409697D01*
X7728612D01*
Y3409339D01*
X7728970D01*
Y3408981D01*
X7729686D01*
Y3408264D01*
X7730044D01*
Y3407906D01*
X7730761D01*
Y3407548D01*
X7731119D01*
Y3407190D01*
X7731477D01*
Y3406832D01*
X7731835D01*
Y3406474D01*
X7732552D01*
Y3406115D01*
X7732910D01*
Y3405757D01*
X7733268D01*
Y3405399D01*
X7733985D01*
Y3405041D01*
X7734701D01*
Y3404683D01*
X7735417D01*
Y3404324D01*
X7736134D01*
Y3403966D01*
X7736492D01*
Y3403608D01*
X7737208D01*
Y3403250D01*
X7738283D01*
Y3402891D01*
X7739357D01*
Y3402533D01*
X7740432D01*
Y3402175D01*
X7742223D01*
Y3401817D01*
X7747954D01*
Y3402175D01*
X7749387D01*
Y3402533D01*
X7750820D01*
Y3402891D01*
X7751536D01*
Y3403250D01*
X7752611D01*
Y3403608D01*
X7753327D01*
Y3403966D01*
X7754044D01*
Y3404324D01*
X7754760D01*
Y3404683D01*
X7755118D01*
Y3405041D01*
X7755835D01*
Y3405399D01*
X7756193D01*
Y3405757D01*
X7756909D01*
Y3406115D01*
X7757626D01*
Y3406474D01*
X7757984D01*
Y3406832D01*
X7758342D01*
Y3407190D01*
X7759058D01*
Y3407548D01*
X7759417D01*
Y3407906D01*
X7760133D01*
Y3408264D01*
X7760491D01*
Y3408623D01*
X7760849D01*
Y3408981D01*
X7761207D01*
Y3409339D01*
X7761566D01*
Y3409697D01*
X7762282D01*
Y3410055D01*
X7762640D01*
Y3410414D01*
X7762999D01*
Y3410772D01*
X7763357D01*
Y3411130D01*
X7763715D01*
Y3411488D01*
X7764073D01*
Y3411846D01*
X7764431D01*
Y3412205D01*
X7764790D01*
Y3412563D01*
X7765148D01*
Y3412921D01*
X7765506D01*
Y3413279D01*
X7765864D01*
Y3413637D01*
X7766222D01*
Y3413996D01*
X7766581D01*
Y3414354D01*
X7766939D01*
Y3414712D01*
X7767297D01*
Y3415070D01*
X7767655D01*
Y3415428D01*
X7768013D01*
Y3415787D01*
X7768372D01*
Y3416145D01*
X7768730D01*
Y3416503D01*
X7769088D01*
Y3417219D01*
X7769446D01*
Y3417578D01*
X7769804D01*
Y3417936D01*
X7770163D01*
Y3418294D01*
X7770521D01*
Y3418652D01*
X7770879D01*
Y3419369D01*
X7771237D01*
Y3419727D01*
X7771595D01*
Y3420085D01*
X7771953D01*
Y3420443D01*
X7772312D01*
Y3420801D01*
X7772670D01*
Y3421518D01*
X7773028D01*
Y3421876D01*
X7773386D01*
Y3422592D01*
X7773744D01*
Y3422950D01*
X7774103D01*
Y3423309D01*
X7774461D01*
Y3424025D01*
X7774819D01*
Y3424383D01*
X7775177D01*
Y3424741D01*
X7775536D01*
Y3425458D01*
X7775894D01*
Y3425816D01*
X7776252D01*
Y3426174D01*
X7776610D01*
Y3426891D01*
X7776968D01*
Y3427249D01*
X7777327D01*
Y3427965D01*
X7777685D01*
Y3428324D01*
X7778043D01*
Y3429040D01*
X7778401D01*
Y3429398D01*
X7778759D01*
Y3429756D01*
X7779118D01*
Y3430473D01*
X7779476D01*
Y3430831D01*
X7779834D01*
Y3431547D01*
X7780192D01*
Y3431906D01*
X7780550D01*
Y3432622D01*
X7780908D01*
Y3432980D01*
X7781267D01*
Y3433696D01*
X7781625D01*
Y3434055D01*
X7781983D01*
Y3434771D01*
X7782341D01*
Y3435129D01*
X7782699D01*
Y3435846D01*
X7783058D01*
Y3436204D01*
X7783416D01*
Y3436920D01*
X7783774D01*
Y3437278D01*
X7784132D01*
Y3437995D01*
X7784490D01*
Y3438353D01*
X7784849D01*
Y3438711D01*
X7785207D01*
Y3439428D01*
X7785565D01*
Y3439786D01*
X7785923D01*
Y3440502D01*
X7786281D01*
Y3441219D01*
X7786640D01*
Y3441577D01*
X7786998D01*
Y3442293D01*
X7787356D01*
Y3442651D01*
X7787714D01*
Y3443368D01*
X7788073D01*
Y3444084D01*
X7788431D01*
Y3444442D01*
X7788789D01*
Y3445159D01*
X7789147D01*
Y3445517D01*
X7789505D01*
Y3446233D01*
X7789864D01*
Y3446592D01*
X7790222D01*
Y3446950D01*
X7790580D01*
Y3447666D01*
X7790938D01*
Y3448024D01*
X7791296D01*
Y3448382D01*
X7791654D01*
Y3449099D01*
X7792013D01*
Y3449457D01*
X7792371D01*
Y3449815D01*
X7792729D01*
Y3450174D01*
X7793087D01*
Y3450532D01*
X7793445D01*
Y3450890D01*
X7793804D01*
Y3451248D01*
X7794162D01*
Y3451606D01*
X7794520D01*
Y3451965D01*
X7794878D01*
Y3452323D01*
X7795236D01*
Y3452681D01*
X7795595D01*
Y3453039D01*
X7796311D01*
Y3453397D01*
X7796669D01*
Y3453756D01*
X7797027D01*
Y3454114D01*
X7797744D01*
Y3454472D01*
X7798102D01*
Y3454830D01*
X7798818D01*
Y3455188D01*
X7799535D01*
Y3454472D01*
X7799177D01*
Y3451965D01*
X7798818D01*
Y3450890D01*
X7798460D01*
Y3449457D01*
X7798102D01*
Y3448382D01*
X7797744D01*
Y3447308D01*
X7797385D01*
Y3446233D01*
X7797027D01*
Y3445517D01*
X7796669D01*
Y3444801D01*
X7796311D01*
Y3444084D01*
X7795953D01*
Y3443368D01*
X7795595D01*
Y3442293D01*
X7795236D01*
Y3441577D01*
X7794878D01*
Y3440861D01*
X7794520D01*
Y3440144D01*
X7794162D01*
Y3439786D01*
X7793804D01*
Y3439069D01*
X7793445D01*
Y3438353D01*
X7793087D01*
Y3437637D01*
X7792729D01*
Y3436920D01*
X7792371D01*
Y3436562D01*
X7792013D01*
Y3435846D01*
X7791654D01*
Y3435487D01*
X7791296D01*
Y3434771D01*
X7790938D01*
Y3434413D01*
X7790580D01*
Y3433696D01*
X7790222D01*
Y3432980D01*
X7789864D01*
Y3432622D01*
X7789505D01*
Y3431906D01*
X7789147D01*
Y3431547D01*
X7788789D01*
Y3430831D01*
X7788431D01*
Y3430473D01*
X7788073D01*
Y3429756D01*
X7787714D01*
Y3429398D01*
X7787356D01*
Y3429040D01*
X7786998D01*
Y3428324D01*
X7786640D01*
Y3427965D01*
X7786281D01*
Y3427249D01*
X7785923D01*
Y3426891D01*
X7785565D01*
Y3426174D01*
X7785207D01*
Y3425816D01*
X7784849D01*
Y3425100D01*
X7784490D01*
Y3424741D01*
X7784132D01*
Y3424025D01*
X7783774D01*
Y3423667D01*
X7783416D01*
Y3422950D01*
X7783058D01*
Y3422592D01*
X7782699D01*
Y3421876D01*
X7782341D01*
Y3421518D01*
X7781983D01*
Y3421160D01*
X7781625D01*
Y3420443D01*
X7781267D01*
Y3420085D01*
X7780908D01*
Y3419369D01*
X7780550D01*
Y3419010D01*
X7780192D01*
Y3418652D01*
X7779834D01*
Y3418294D01*
X7779476D01*
Y3417578D01*
X7779118D01*
Y3417219D01*
X7778759D01*
Y3416861D01*
X7778401D01*
Y3416145D01*
X7778043D01*
Y3415787D01*
X7777685D01*
Y3415428D01*
X7777327D01*
Y3414712D01*
X7776968D01*
Y3414354D01*
X7776610D01*
Y3413996D01*
X7776252D01*
Y3413637D01*
X7775894D01*
Y3413279D01*
X7775536D01*
Y3412563D01*
X7775177D01*
Y3412205D01*
X7774819D01*
Y3411846D01*
X7774461D01*
Y3411488D01*
X7774103D01*
Y3411130D01*
X7773744D01*
Y3410772D01*
X7773386D01*
Y3410414D01*
X7773028D01*
Y3410055D01*
X7772670D01*
Y3409339D01*
X7772312D01*
Y3408981D01*
X7771595D01*
Y3408264D01*
X7771237D01*
Y3407906D01*
X7770879D01*
Y3407548D01*
X7770521D01*
Y3407190D01*
X7769804D01*
Y3406832D01*
X7769446D01*
Y3406474D01*
X7769088D01*
Y3406115D01*
X7768730D01*
Y3405757D01*
X7768372D01*
Y3405399D01*
X7768013D01*
Y3405041D01*
X7767655D01*
Y3404683D01*
X7767297D01*
Y3404324D01*
X7766939D01*
Y3403966D01*
X7766222D01*
Y3403250D01*
X7765506D01*
Y3402891D01*
X7765148D01*
Y3402533D01*
X7764790D01*
Y3402175D01*
X7764073D01*
Y3401817D01*
X7763715D01*
Y3401459D01*
X7763357D01*
Y3401100D01*
X7762640D01*
Y3400742D01*
X7762282D01*
Y3400384D01*
X7761566D01*
Y3400026D01*
X7761207D01*
Y3399668D01*
X7760491D01*
Y3399309D01*
X7759775D01*
Y3398951D01*
X7759058D01*
Y3398593D01*
X7758342D01*
Y3398235D01*
X7757626D01*
Y3397877D01*
X7757267D01*
Y3397518D01*
X7756193D01*
Y3397160D01*
X7755476D01*
Y3396802D01*
X7754044D01*
Y3396444D01*
X7752969D01*
Y3396086D01*
X7751536D01*
Y3395728D01*
X7749745D01*
Y3395369D01*
X7741865D01*
Y3395728D01*
X7739716D01*
Y3396086D01*
X7738283D01*
Y3396444D01*
X7737208D01*
Y3396802D01*
X7736492D01*
Y3397160D01*
X7735417D01*
Y3397518D01*
X7734343D01*
Y3397877D01*
X7733626D01*
Y3398235D01*
X7732910D01*
Y3398593D01*
X7732194D01*
Y3398951D01*
X7731835D01*
Y3399309D01*
X7731119D01*
Y3399668D01*
X7730403D01*
Y3400026D01*
X7730044D01*
Y3400384D01*
X7729328D01*
Y3400742D01*
X7728970D01*
Y3401100D01*
X7728253D01*
Y3401459D01*
X7727895D01*
Y3401817D01*
X7727537D01*
Y3402175D01*
X7726820D01*
Y3402891D01*
X7726104D01*
Y3403250D01*
X7725746D01*
Y3403608D01*
X7725388D01*
Y3403966D01*
X7725030D01*
Y3404324D01*
X7724671D01*
Y3404683D01*
X7724313D01*
Y3405041D01*
X7723955D01*
Y3405399D01*
X7723597D01*
Y3405757D01*
X7723239D01*
Y3406115D01*
X7722880D01*
Y3406474D01*
X7722522D01*
Y3406832D01*
X7722164D01*
Y3407190D01*
X7721806D01*
Y3407548D01*
X7721448D01*
Y3407906D01*
X7721089D01*
Y3408623D01*
X7720731D01*
Y3408981D01*
X7720373D01*
Y3409339D01*
X7720015D01*
Y3409697D01*
X7719657D01*
Y3410414D01*
X7719299D01*
Y3410772D01*
X7718940D01*
Y3411130D01*
X7718582D01*
Y3411846D01*
X7718224D01*
Y3412563D01*
X7717866D01*
Y3412921D01*
X7717508D01*
Y3413637D01*
X7717149D01*
Y3413996D01*
X7716791D01*
Y3414712D01*
X7716433D01*
Y3415428D01*
X7716075D01*
Y3415787D01*
X7715716D01*
Y3416503D01*
X7715358D01*
Y3417219D01*
X7715000D01*
Y3417578D01*
X7714642D01*
Y3418294D01*
X7714284D01*
Y3419010D01*
X7713925D01*
Y3419727D01*
X7713567D01*
Y3420443D01*
X7713209D01*
Y3421160D01*
X7712851D01*
Y3421876D01*
X7712493D01*
Y3422592D01*
X7712134D01*
Y3423309D01*
X7711776D01*
Y3424383D01*
X7711418D01*
Y3425100D01*
X7711060D01*
Y3426174D01*
X7710702D01*
Y3426891D01*
X7710343D01*
Y3427965D01*
X7709985D01*
Y3428682D01*
X7709627D01*
Y3429756D01*
X7709269D01*
Y3430831D01*
X7708911D01*
Y3431906D01*
X7708553D01*
Y3432980D01*
X7708194D01*
Y3434055D01*
X7707836D01*
Y3435129D01*
X7707478D01*
Y3436204D01*
X7707120D01*
Y3437637D01*
X7706762D01*
Y3439069D01*
X7706403D01*
Y3440502D01*
X7706045D01*
Y3442293D01*
X7705687D01*
Y3443726D01*
X7705329D01*
Y3446233D01*
X7704971D01*
Y3448024D01*
X7704612D01*
Y3450890D01*
X7704254D01*
Y3454830D01*
X7703896D01*
Y3463785D01*
X7704254D01*
Y3467725D01*
X7704612D01*
Y3470233D01*
X7704971D01*
Y3472024D01*
X7705329D01*
Y3473815D01*
X7705687D01*
Y3475248D01*
X7706045D01*
Y3476322D01*
X7706403D01*
Y3477755D01*
X7706762D01*
Y3478829D01*
X7707120D01*
Y3479546D01*
X7707478D01*
Y3480620D01*
X7707836D01*
Y3481337D01*
X7708194D01*
Y3482411D01*
X7708553D01*
Y3483128D01*
X7708911D01*
Y3483844D01*
X7709269D01*
Y3484560D01*
X7709627D01*
Y3485277D01*
X7709985D01*
Y3485993D01*
X7710343D01*
Y3486352D01*
X7710702D01*
Y3487068D01*
X7711060D01*
Y3487784D01*
X7711418D01*
Y3488143D01*
X7711776D01*
Y3488859D01*
X7712134D01*
Y3489217D01*
X7712493D01*
Y3489934D01*
X7712851D01*
Y3490292D01*
X7713209D01*
Y3490650D01*
X7713567D01*
Y3491008D01*
X7713925D01*
Y3491366D01*
X7714284D01*
Y3492083D01*
X7714642D01*
Y3492441D01*
X7715000D01*
Y3492799D01*
X7715358D01*
Y3493157D01*
X7715716D01*
Y3493515D01*
X7716075D01*
Y3493874D01*
X7716433D01*
Y3494232D01*
X7716791D01*
Y3494590D01*
X7717149D01*
Y3494948D01*
X7717508D01*
Y3495306D01*
X7717866D01*
Y3495665D01*
X7718224D01*
Y3496023D01*
X7718940D01*
Y3496381D01*
X7719299D01*
Y3496739D01*
X7719657D01*
Y3497097D01*
X7720015D01*
Y3497456D01*
X7720731D01*
Y3497814D01*
X7721089D01*
Y3498172D01*
X7721806D01*
Y3498530D01*
X7722164D01*
Y3498889D01*
X7722880D01*
Y3499247D01*
X7723239D01*
Y3499605D01*
X7723955D01*
Y3499963D01*
X7724671D01*
Y3500321D01*
X7725030D01*
Y3500680D01*
X7726104D01*
Y3501038D01*
X7726820D01*
Y3501396D01*
X7727537D01*
Y3501754D01*
X7728253D01*
Y3502112D01*
X7728970D01*
Y3502471D01*
X7730044D01*
Y3502829D01*
X7731119D01*
Y3503187D01*
X7731835D01*
Y3503545D01*
X7733268D01*
Y3503903D01*
X7734343D01*
Y3504261D01*
X7735417D01*
Y3504620D01*
X7736850D01*
Y3504978D01*
X7738283D01*
Y3505336D01*
X7740074D01*
Y3505694D01*
X7741865D01*
Y3506052D01*
X7744014D01*
Y3506411D01*
X7746880D01*
Y3506769D01*
X7761207D01*
Y3506411D01*
D02*
G37*
G36*
X7911651Y3494590D02*
X7913442D01*
Y3494232D01*
X7914516D01*
Y3493874D01*
X7915233D01*
Y3493515D01*
X7915949D01*
Y3493157D01*
X7916665D01*
Y3492799D01*
X7917024D01*
Y3492441D01*
X7917740D01*
Y3492083D01*
X7918098D01*
Y3491725D01*
X7918457D01*
Y3491366D01*
X7918815D01*
Y3491008D01*
X7919173D01*
Y3490650D01*
X7919531D01*
Y3490292D01*
X7919889D01*
Y3489934D01*
X7920248D01*
Y3489575D01*
X7920606D01*
Y3489217D01*
X7920964D01*
Y3488501D01*
X7921680D01*
Y3487784D01*
X7922039D01*
Y3487068D01*
X7922397D01*
Y3486352D01*
X7922755D01*
Y3485635D01*
X7923113D01*
Y3485277D01*
X7923471D01*
Y3484560D01*
X7923829D01*
Y3483486D01*
X7924188D01*
Y3482770D01*
X7924546D01*
Y3481695D01*
X7924904D01*
Y3480620D01*
X7925262D01*
Y3479904D01*
X7925620D01*
Y3478829D01*
X7925979D01*
Y3477755D01*
X7926337D01*
Y3476680D01*
X7926695D01*
Y3475606D01*
X7927053D01*
Y3473815D01*
X7927411D01*
Y3472382D01*
X7927770D01*
Y3470591D01*
X7928128D01*
Y3469158D01*
X7928486D01*
Y3466293D01*
X7928844D01*
Y3463427D01*
X7929202D01*
Y3454472D01*
X7928844D01*
Y3451248D01*
X7928486D01*
Y3449815D01*
X7928128D01*
Y3448741D01*
X7927770D01*
Y3449099D01*
X7927411D01*
Y3449457D01*
X7927053D01*
Y3449815D01*
X7926695D01*
Y3450532D01*
X7926337D01*
Y3450890D01*
X7925979D01*
Y3451606D01*
X7925620D01*
Y3452323D01*
X7925262D01*
Y3453039D01*
X7924904D01*
Y3453756D01*
X7924546D01*
Y3454830D01*
X7924188D01*
Y3455905D01*
X7923829D01*
Y3457338D01*
X7923471D01*
Y3458770D01*
X7923113D01*
Y3460561D01*
X7922755D01*
Y3463427D01*
X7922397D01*
Y3465218D01*
X7922039D01*
Y3468083D01*
X7921680D01*
Y3470591D01*
X7921322D01*
Y3472740D01*
X7920964D01*
Y3474889D01*
X7920606D01*
Y3475964D01*
X7920248D01*
Y3477755D01*
X7919889D01*
Y3478471D01*
X7919531D01*
Y3479546D01*
X7919173D01*
Y3480262D01*
X7918815D01*
Y3480979D01*
X7918457D01*
Y3481695D01*
X7918098D01*
Y3482411D01*
X7917740D01*
Y3482770D01*
X7917382D01*
Y3483486D01*
X7917024D01*
Y3483844D01*
X7916665D01*
Y3484202D01*
X7916307D01*
Y3484560D01*
X7915949D01*
Y3484919D01*
X7915591D01*
Y3485277D01*
X7914874D01*
Y3485635D01*
X7914516D01*
Y3485993D01*
X7914158D01*
Y3486352D01*
X7913083D01*
Y3486710D01*
X7912725D01*
Y3487068D01*
X7911651D01*
Y3487426D01*
X7907352D01*
Y3487068D01*
X7906636D01*
Y3486710D01*
X7905561D01*
Y3486352D01*
X7905203D01*
Y3485993D01*
X7904487D01*
Y3485635D01*
X7903770D01*
Y3485277D01*
X7903412D01*
Y3484919D01*
X7902696D01*
Y3484560D01*
X7902338D01*
Y3484202D01*
X7901621D01*
Y3483844D01*
X7901263D01*
Y3483486D01*
X7900547D01*
Y3483128D01*
X7900188D01*
Y3482770D01*
X7899830D01*
Y3482411D01*
X7899114D01*
Y3482053D01*
X7898756D01*
Y3481695D01*
X7898039D01*
Y3481337D01*
X7897681D01*
Y3480979D01*
X7897323D01*
Y3480620D01*
X7896607D01*
Y3480262D01*
X7895890D01*
Y3479904D01*
X7895532D01*
Y3479546D01*
X7895174D01*
Y3479188D01*
X7894457D01*
Y3478829D01*
X7894099D01*
Y3478471D01*
X7893383D01*
Y3478113D01*
X7893024D01*
Y3477755D01*
X7892308D01*
Y3477397D01*
X7891950D01*
Y3477039D01*
X7891592D01*
Y3476680D01*
X7890875D01*
Y3476322D01*
X7890517D01*
Y3475964D01*
X7890159D01*
Y3475606D01*
X7889442D01*
Y3475248D01*
X7889084D01*
Y3474889D01*
X7888368D01*
Y3474531D01*
X7888010D01*
Y3474173D01*
X7887651D01*
Y3473815D01*
X7887293D01*
Y3473456D01*
X7886577D01*
Y3473098D01*
X7886219D01*
Y3472740D01*
X7885502D01*
Y3472382D01*
X7885144D01*
Y3472024D01*
X7884428D01*
Y3471665D01*
X7884070D01*
Y3471307D01*
X7883711D01*
Y3470949D01*
X7882995D01*
Y3470591D01*
X7882637D01*
Y3470233D01*
X7882279D01*
Y3469874D01*
X7881920D01*
Y3469516D01*
X7881562D01*
Y3469158D01*
X7880846D01*
Y3468800D01*
X7880487D01*
Y3468442D01*
X7879771D01*
Y3468083D01*
X7879413D01*
Y3467725D01*
X7879055D01*
Y3467367D01*
X7878338D01*
Y3467009D01*
X7877980D01*
Y3466651D01*
X7877622D01*
Y3466293D01*
X7876906D01*
Y3465934D01*
X7876547D01*
Y3465576D01*
X7875831D01*
Y3465218D01*
X7875473D01*
Y3464860D01*
X7874756D01*
Y3464502D01*
X7874398D01*
Y3464143D01*
X7873682D01*
Y3463785D01*
X7873324D01*
Y3463427D01*
X7872607D01*
Y3463069D01*
X7871891D01*
Y3462711D01*
X7871533D01*
Y3462352D01*
X7870816D01*
Y3461994D01*
X7870100D01*
Y3461636D01*
X7869383D01*
Y3461278D01*
X7868667D01*
Y3460919D01*
X7867950D01*
Y3460561D01*
X7867234D01*
Y3460203D01*
X7866518D01*
Y3459845D01*
X7865801D01*
Y3459487D01*
X7865085D01*
Y3459128D01*
X7864369D01*
Y3458770D01*
X7863294D01*
Y3458412D01*
X7862219D01*
Y3458054D01*
X7861503D01*
Y3457696D01*
X7860070D01*
Y3457338D01*
X7858996D01*
Y3456979D01*
X7857921D01*
Y3456621D01*
X7856488D01*
Y3456263D01*
X7854697D01*
Y3455905D01*
X7852906D01*
Y3455547D01*
X7850041D01*
Y3455188D01*
X7838578D01*
Y3455547D01*
X7836429D01*
Y3455905D01*
X7834280D01*
Y3456263D01*
X7832847D01*
Y3456621D01*
X7831056D01*
Y3456979D01*
X7829982D01*
Y3457338D01*
X7828549D01*
Y3457696D01*
X7827116D01*
Y3458054D01*
X7827474D01*
Y3458412D01*
X7828191D01*
Y3458770D01*
X7829265D01*
Y3459128D01*
X7829982D01*
Y3459487D01*
X7831056D01*
Y3459845D01*
X7832131D01*
Y3460203D01*
X7833564D01*
Y3460561D01*
X7835355D01*
Y3460919D01*
X7837504D01*
Y3461278D01*
X7841444D01*
Y3461636D01*
X7847175D01*
Y3461994D01*
X7851115D01*
Y3462352D01*
X7853981D01*
Y3462711D01*
X7855772D01*
Y3463069D01*
X7857205D01*
Y3463427D01*
X7858637D01*
Y3463785D01*
X7859354D01*
Y3464143D01*
X7860429D01*
Y3464502D01*
X7861145D01*
Y3464860D01*
X7862219D01*
Y3465218D01*
X7862936D01*
Y3465576D01*
X7863652D01*
Y3465934D01*
X7864369D01*
Y3466293D01*
X7865085D01*
Y3466651D01*
X7865443D01*
Y3467009D01*
X7866160D01*
Y3467367D01*
X7866518D01*
Y3467725D01*
X7867234D01*
Y3468083D01*
X7867950D01*
Y3468442D01*
X7868309D01*
Y3468800D01*
X7869025D01*
Y3469158D01*
X7869383D01*
Y3469516D01*
X7870100D01*
Y3469874D01*
X7870458D01*
Y3470233D01*
X7871174D01*
Y3470591D01*
X7871533D01*
Y3470949D01*
X7871891D01*
Y3471307D01*
X7872607D01*
Y3471665D01*
X7872965D01*
Y3472024D01*
X7873682D01*
Y3472382D01*
X7874040D01*
Y3472740D01*
X7874398D01*
Y3473098D01*
X7874756D01*
Y3473456D01*
X7875115D01*
Y3473815D01*
X7875831D01*
Y3474173D01*
X7876189D01*
Y3474531D01*
X7876547D01*
Y3474889D01*
X7877264D01*
Y3475248D01*
X7877622D01*
Y3475606D01*
X7877980D01*
Y3475964D01*
X7878338D01*
Y3476322D01*
X7878696D01*
Y3476680D01*
X7879055D01*
Y3477039D01*
X7879771D01*
Y3477397D01*
X7880129D01*
Y3477755D01*
X7880487D01*
Y3478113D01*
X7880846D01*
Y3478471D01*
X7881204D01*
Y3478829D01*
X7881920D01*
Y3479188D01*
X7882279D01*
Y3479546D01*
X7882637D01*
Y3479904D01*
X7882995D01*
Y3480262D01*
X7883353D01*
Y3480620D01*
X7884070D01*
Y3480979D01*
X7884428D01*
Y3481337D01*
X7884786D01*
Y3481695D01*
X7885144D01*
Y3482053D01*
X7885861D01*
Y3482770D01*
X7886577D01*
Y3483128D01*
X7886935D01*
Y3483486D01*
X7887293D01*
Y3483844D01*
X7888010D01*
Y3484202D01*
X7888368D01*
Y3484560D01*
X7888726D01*
Y3484919D01*
X7889084D01*
Y3485277D01*
X7889801D01*
Y3485635D01*
X7890159D01*
Y3485993D01*
X7890875D01*
Y3486352D01*
X7891233D01*
Y3486710D01*
X7891592D01*
Y3487068D01*
X7892308D01*
Y3487426D01*
X7892666D01*
Y3487784D01*
X7893024D01*
Y3488143D01*
X7893741D01*
Y3488501D01*
X7894457D01*
Y3488859D01*
X7894816D01*
Y3489217D01*
X7895532D01*
Y3489575D01*
X7895890D01*
Y3489934D01*
X7896607D01*
Y3490292D01*
X7896965D01*
Y3490650D01*
X7897681D01*
Y3491008D01*
X7898397D01*
Y3491366D01*
X7899114D01*
Y3491725D01*
X7899830D01*
Y3492083D01*
X7900547D01*
Y3492441D01*
X7901621D01*
Y3492799D01*
X7902338D01*
Y3493157D01*
X7903412D01*
Y3493515D01*
X7904128D01*
Y3493874D01*
X7905561D01*
Y3494232D01*
X7906278D01*
Y3494590D01*
X7908427D01*
Y3494948D01*
X7911651D01*
Y3494590D01*
D02*
G37*
G36*
X7927770Y3439786D02*
X7927411D01*
Y3439428D01*
X7926695D01*
Y3439069D01*
X7926337D01*
Y3438711D01*
X7925979D01*
Y3438353D01*
X7925262D01*
Y3437995D01*
X7924904D01*
Y3437637D01*
X7924188D01*
Y3437278D01*
X7923829D01*
Y3436920D01*
X7923113D01*
Y3436562D01*
X7922755D01*
Y3436204D01*
X7922039D01*
Y3435846D01*
X7921680D01*
Y3435487D01*
X7920964D01*
Y3435129D01*
X7920248D01*
Y3434771D01*
X7919531D01*
Y3434413D01*
X7918815D01*
Y3434055D01*
X7918457D01*
Y3433696D01*
X7917740D01*
Y3433338D01*
X7917382D01*
Y3432980D01*
X7916665D01*
Y3432622D01*
X7915949D01*
Y3432264D01*
X7915591D01*
Y3431906D01*
X7914874D01*
Y3431547D01*
X7914158D01*
Y3431189D01*
X7913800D01*
Y3430831D01*
X7913083D01*
Y3430473D01*
X7912725D01*
Y3430115D01*
X7912009D01*
Y3429756D01*
X7911651D01*
Y3429398D01*
X7911293D01*
Y3429040D01*
X7910576D01*
Y3428682D01*
X7910218D01*
Y3428324D01*
X7909860D01*
Y3427965D01*
X7909143D01*
Y3427607D01*
X7908785D01*
Y3427249D01*
X7908427D01*
Y3426891D01*
X7908069D01*
Y3426533D01*
X7907711D01*
Y3426174D01*
X7907352D01*
Y3425816D01*
X7906636D01*
Y3425458D01*
X7906278D01*
Y3425100D01*
X7905920D01*
Y3424741D01*
X7905561D01*
Y3424383D01*
X7905203D01*
Y3424025D01*
X7904845D01*
Y3423667D01*
X7904487D01*
Y3423309D01*
X7904128D01*
Y3422950D01*
X7903770D01*
Y3422592D01*
X7903412D01*
Y3422234D01*
X7903054D01*
Y3421876D01*
X7902696D01*
Y3421518D01*
X7902338D01*
Y3421160D01*
X7901979D01*
Y3420801D01*
X7901621D01*
Y3420443D01*
X7901263D01*
Y3420085D01*
X7900905D01*
Y3419727D01*
X7900547D01*
Y3419369D01*
X7900188D01*
Y3419010D01*
X7899830D01*
Y3418652D01*
X7899472D01*
Y3418294D01*
X7899114D01*
Y3417936D01*
X7898756D01*
Y3417578D01*
X7898397D01*
Y3417219D01*
X7898039D01*
Y3416503D01*
X7897681D01*
Y3416145D01*
X7897323D01*
Y3415787D01*
X7896965D01*
Y3415428D01*
X7896607D01*
Y3415070D01*
X7896248D01*
Y3414712D01*
X7895890D01*
Y3413996D01*
X7895532D01*
Y3413637D01*
X7895174D01*
Y3413279D01*
X7894816D01*
Y3412921D01*
X7894457D01*
Y3412563D01*
X7894099D01*
Y3411846D01*
X7893383D01*
Y3411130D01*
X7893024D01*
Y3410772D01*
X7892666D01*
Y3410414D01*
X7892308D01*
Y3410055D01*
X7891950D01*
Y3409339D01*
X7891233D01*
Y3409697D01*
X7890875D01*
Y3410414D01*
X7890517D01*
Y3410772D01*
X7890159D01*
Y3411488D01*
X7889801D01*
Y3411846D01*
X7889442D01*
Y3413637D01*
X7889084D01*
Y3415070D01*
X7889442D01*
Y3416145D01*
X7889801D01*
Y3417219D01*
X7890159D01*
Y3417936D01*
X7890517D01*
Y3418294D01*
X7890875D01*
Y3419010D01*
X7891233D01*
Y3419369D01*
X7891592D01*
Y3419727D01*
X7891950D01*
Y3420443D01*
X7892308D01*
Y3420801D01*
X7892666D01*
Y3421160D01*
X7893024D01*
Y3421518D01*
X7893383D01*
Y3421876D01*
X7893741D01*
Y3422234D01*
X7894099D01*
Y3422592D01*
X7894457D01*
Y3422950D01*
X7894816D01*
Y3423309D01*
X7895174D01*
Y3423667D01*
X7895532D01*
Y3424025D01*
X7895890D01*
Y3424383D01*
X7896248D01*
Y3424741D01*
X7896607D01*
Y3425100D01*
X7896965D01*
Y3425458D01*
X7897323D01*
Y3425816D01*
X7897681D01*
Y3426174D01*
X7898039D01*
Y3426533D01*
X7898397D01*
Y3426891D01*
X7898756D01*
Y3427249D01*
X7899114D01*
Y3427607D01*
X7899830D01*
Y3427965D01*
X7900188D01*
Y3428324D01*
X7900547D01*
Y3428682D01*
X7900905D01*
Y3429040D01*
X7901263D01*
Y3429398D01*
X7901621D01*
Y3429756D01*
X7902338D01*
Y3430115D01*
X7902696D01*
Y3430473D01*
X7903054D01*
Y3430831D01*
X7903412D01*
Y3431189D01*
X7904128D01*
Y3431547D01*
X7904487D01*
Y3431906D01*
X7905203D01*
Y3432264D01*
X7905561D01*
Y3432622D01*
X7905920D01*
Y3432980D01*
X7906636D01*
Y3433338D01*
X7906994D01*
Y3433696D01*
X7907711D01*
Y3434055D01*
X7908069D01*
Y3434413D01*
X7908785D01*
Y3434771D01*
X7909502D01*
Y3435129D01*
X7910218D01*
Y3435487D01*
X7910576D01*
Y3435846D01*
X7911293D01*
Y3436204D01*
X7912009D01*
Y3436562D01*
X7913083D01*
Y3436920D01*
X7913800D01*
Y3437278D01*
X7914158D01*
Y3437637D01*
X7915233D01*
Y3437995D01*
X7916307D01*
Y3438353D01*
X7917382D01*
Y3438711D01*
X7918815D01*
Y3439069D01*
X7920248D01*
Y3439428D01*
X7921680D01*
Y3439786D01*
X7924546D01*
Y3440144D01*
X7927770D01*
Y3439786D01*
D02*
G37*
G36*
X8143405Y3467009D02*
X8145196D01*
Y3466651D01*
X8146629D01*
Y3466293D01*
X8147703D01*
Y3465934D01*
X8148420D01*
Y3465576D01*
X8149136D01*
Y3465218D01*
X8149852D01*
Y3464860D01*
X8150927D01*
Y3464502D01*
X8151285D01*
Y3464143D01*
X8151643D01*
Y3463785D01*
X8152360D01*
Y3463427D01*
X8152718D01*
Y3463069D01*
X8153076D01*
Y3462711D01*
X8153434D01*
Y3462352D01*
X8153793D01*
Y3461994D01*
X8154151D01*
Y3461636D01*
X8154509D01*
Y3461278D01*
X8154867D01*
Y3460919D01*
X8155225D01*
Y3460561D01*
X8155584D01*
Y3460203D01*
X8155942D01*
Y3459487D01*
X8156300D01*
Y3459128D01*
X8156658D01*
Y3458412D01*
X8157016D01*
Y3458054D01*
X8157375D01*
Y3457696D01*
X8157733D01*
Y3456979D01*
X8158091D01*
Y3456263D01*
X8158449D01*
Y3455547D01*
X8158807D01*
Y3454830D01*
X8159166D01*
Y3454114D01*
X8159524D01*
Y3453039D01*
X8159882D01*
Y3451965D01*
X8160240D01*
Y3450890D01*
X8160598D01*
Y3449815D01*
X8160957D01*
Y3448382D01*
X8161315D01*
Y3446592D01*
X8161673D01*
Y3444801D01*
X8162031D01*
Y3441219D01*
X8162389D01*
Y3433338D01*
X8162031D01*
Y3429040D01*
X8161673D01*
Y3426891D01*
X8161315D01*
Y3424741D01*
X8160957D01*
Y3423309D01*
X8160598D01*
Y3421518D01*
X8160240D01*
Y3419727D01*
X8159882D01*
Y3418294D01*
X8159524D01*
Y3417219D01*
X8159166D01*
Y3415787D01*
X8158807D01*
Y3414712D01*
X8158449D01*
Y3413637D01*
X8158091D01*
Y3412921D01*
X8157733D01*
Y3411846D01*
X8157375D01*
Y3410772D01*
X8157016D01*
Y3409697D01*
X8156658D01*
Y3408981D01*
X8156300D01*
Y3407906D01*
X8155942D01*
Y3407190D01*
X8155584D01*
Y3406115D01*
X8155225D01*
Y3405399D01*
X8154867D01*
Y3405041D01*
X8154509D01*
Y3404324D01*
X8154151D01*
Y3403250D01*
X8153793D01*
Y3402533D01*
X8153434D01*
Y3402175D01*
X8153076D01*
Y3401459D01*
X8152718D01*
Y3401100D01*
X8152360D01*
Y3400384D01*
X8152001D01*
Y3399668D01*
X8151643D01*
Y3399309D01*
X8151285D01*
Y3398593D01*
X8150927D01*
Y3397877D01*
X8150569D01*
Y3397518D01*
X8150211D01*
Y3397160D01*
X8149852D01*
Y3396444D01*
X8149494D01*
Y3396086D01*
X8149136D01*
Y3395728D01*
X8148778D01*
Y3395369D01*
X8148420D01*
Y3395011D01*
X8148061D01*
Y3394653D01*
X8147703D01*
Y3394295D01*
X8147345D01*
Y3393937D01*
X8146987D01*
Y3393578D01*
X8146629D01*
Y3393220D01*
X8146270D01*
Y3392862D01*
X8145912D01*
Y3392504D01*
X8145554D01*
Y3392146D01*
X8145196D01*
Y3391787D01*
X8144480D01*
Y3391071D01*
X8143763D01*
Y3390713D01*
X8143405D01*
Y3390354D01*
X8142688D01*
Y3389996D01*
X8142330D01*
Y3389638D01*
X8141614D01*
Y3389280D01*
X8140897D01*
Y3388922D01*
X8140181D01*
Y3388563D01*
X8139465D01*
Y3388205D01*
X8138390D01*
Y3387847D01*
X8136599D01*
Y3387489D01*
X8133017D01*
Y3387847D01*
X8131584D01*
Y3388205D01*
X8130868D01*
Y3388563D01*
X8129793D01*
Y3388922D01*
X8129077D01*
Y3389280D01*
X8128719D01*
Y3389638D01*
X8128002D01*
Y3389996D01*
X8127644D01*
Y3390354D01*
X8127286D01*
Y3390713D01*
X8126928D01*
Y3391071D01*
X8126569D01*
Y3391429D01*
X8126211D01*
Y3391787D01*
X8126569D01*
Y3392146D01*
X8130510D01*
Y3392504D01*
X8131943D01*
Y3392862D01*
X8133734D01*
Y3393220D01*
X8134450D01*
Y3393578D01*
X8135524D01*
Y3393937D01*
X8136241D01*
Y3394295D01*
X8136957D01*
Y3394653D01*
X8137674D01*
Y3395011D01*
X8138390D01*
Y3395369D01*
X8139106D01*
Y3395728D01*
X8139465D01*
Y3396086D01*
X8140181D01*
Y3396444D01*
X8140539D01*
Y3396802D01*
X8141256D01*
Y3397518D01*
X8141972D01*
Y3397877D01*
X8142330D01*
Y3398235D01*
X8142688D01*
Y3398593D01*
X8143047D01*
Y3398951D01*
X8143405D01*
Y3399309D01*
X8143763D01*
Y3399668D01*
X8144121D01*
Y3400026D01*
X8144480D01*
Y3400384D01*
X8144838D01*
Y3400742D01*
X8145196D01*
Y3401100D01*
X8145554D01*
Y3401459D01*
X8145912D01*
Y3402175D01*
X8146270D01*
Y3402533D01*
X8146629D01*
Y3403250D01*
X8146987D01*
Y3403608D01*
X8147345D01*
Y3404324D01*
X8147703D01*
Y3404683D01*
X8148061D01*
Y3405399D01*
X8148420D01*
Y3406115D01*
X8148778D01*
Y3406832D01*
X8149136D01*
Y3407190D01*
X8149494D01*
Y3407906D01*
X8149852D01*
Y3408981D01*
X8150211D01*
Y3409697D01*
X8150569D01*
Y3410414D01*
X8150927D01*
Y3411488D01*
X8151285D01*
Y3412205D01*
X8151643D01*
Y3413279D01*
X8152001D01*
Y3414354D01*
X8152360D01*
Y3415428D01*
X8152718D01*
Y3416503D01*
X8153076D01*
Y3418294D01*
X8153434D01*
Y3419727D01*
X8153793D01*
Y3421518D01*
X8154151D01*
Y3423309D01*
X8154509D01*
Y3425458D01*
X8154867D01*
Y3429040D01*
X8155225D01*
Y3431906D01*
X8155584D01*
Y3440502D01*
X8155225D01*
Y3443368D01*
X8154867D01*
Y3445159D01*
X8154509D01*
Y3446233D01*
X8154151D01*
Y3447666D01*
X8153793D01*
Y3448741D01*
X8153434D01*
Y3449815D01*
X8153076D01*
Y3450532D01*
X8152718D01*
Y3451248D01*
X8152360D01*
Y3451965D01*
X8152001D01*
Y3452681D01*
X8151643D01*
Y3453397D01*
X8151285D01*
Y3453756D01*
X8150927D01*
Y3454472D01*
X8150569D01*
Y3454830D01*
X8150211D01*
Y3455188D01*
X8149852D01*
Y3455547D01*
X8149494D01*
Y3456263D01*
X8149136D01*
Y3456621D01*
X8148778D01*
Y3456979D01*
X8148420D01*
Y3457338D01*
X8148061D01*
Y3457696D01*
X8147345D01*
Y3458054D01*
X8146987D01*
Y3458412D01*
X8146270D01*
Y3458770D01*
X8145912D01*
Y3459128D01*
X8145196D01*
Y3459487D01*
X8144121D01*
Y3459845D01*
X8142688D01*
Y3460203D01*
X8137674D01*
Y3459845D01*
X8136599D01*
Y3459487D01*
X8135524D01*
Y3459128D01*
X8135166D01*
Y3458770D01*
X8134450D01*
Y3458412D01*
X8133734D01*
Y3457696D01*
X8133017D01*
Y3456979D01*
X8132659D01*
Y3456621D01*
X8132301D01*
Y3456263D01*
X8131943D01*
Y3455547D01*
X8131584D01*
Y3455188D01*
X8131226D01*
Y3454114D01*
X8130868D01*
Y3453039D01*
X8130510D01*
Y3451965D01*
X8130151D01*
Y3450532D01*
X8129793D01*
Y3441219D01*
X8130151D01*
Y3437637D01*
X8130510D01*
Y3434771D01*
X8130868D01*
Y3431906D01*
X8131226D01*
Y3426891D01*
X8131584D01*
Y3419369D01*
X8131226D01*
Y3416145D01*
X8130868D01*
Y3413996D01*
X8130510D01*
Y3412921D01*
X8130151D01*
Y3411846D01*
X8129793D01*
Y3410772D01*
X8129435D01*
Y3410055D01*
X8129077D01*
Y3408981D01*
X8128719D01*
Y3408623D01*
X8128360D01*
Y3408264D01*
X8128002D01*
Y3407548D01*
X8127644D01*
Y3407190D01*
X8127286D01*
Y3406832D01*
X8126928D01*
Y3406474D01*
X8126569D01*
Y3406115D01*
X8126211D01*
Y3405757D01*
X8125853D01*
Y3405399D01*
X8125495D01*
Y3405041D01*
X8125137D01*
Y3404683D01*
X8124420D01*
Y3404324D01*
X8124062D01*
Y3403966D01*
X8123346D01*
Y3403608D01*
X8122271D01*
Y3403250D01*
X8121197D01*
Y3402891D01*
X8120480D01*
Y3403608D01*
X8120838D01*
Y3403966D01*
X8121197D01*
Y3404683D01*
X8121555D01*
Y3405399D01*
X8121913D01*
Y3406115D01*
X8122271D01*
Y3406832D01*
X8122629D01*
Y3407548D01*
X8122988D01*
Y3408264D01*
X8123346D01*
Y3408981D01*
X8123704D01*
Y3409697D01*
X8124062D01*
Y3410772D01*
X8124420D01*
Y3411846D01*
X8124779D01*
Y3412921D01*
X8125137D01*
Y3414712D01*
X8125495D01*
Y3417578D01*
X8125853D01*
Y3423309D01*
X8125495D01*
Y3427249D01*
X8125137D01*
Y3430115D01*
X8124779D01*
Y3431906D01*
X8124420D01*
Y3434771D01*
X8124062D01*
Y3436920D01*
X8123704D01*
Y3439428D01*
X8123346D01*
Y3443010D01*
X8122988D01*
Y3450174D01*
X8123346D01*
Y3452681D01*
X8123704D01*
Y3454114D01*
X8124062D01*
Y3455547D01*
X8124420D01*
Y3456263D01*
X8124779D01*
Y3456979D01*
X8125137D01*
Y3457696D01*
X8125495D01*
Y3458412D01*
X8125853D01*
Y3459128D01*
X8126211D01*
Y3459845D01*
X8126569D01*
Y3460203D01*
X8126928D01*
Y3460561D01*
X8127286D01*
Y3461278D01*
X8128002D01*
Y3461994D01*
X8128360D01*
Y3462352D01*
X8128719D01*
Y3462711D01*
X8129077D01*
Y3463069D01*
X8129435D01*
Y3463427D01*
X8130151D01*
Y3463785D01*
X8130510D01*
Y3464143D01*
X8130868D01*
Y3464502D01*
X8131584D01*
Y3464860D01*
X8132301D01*
Y3465218D01*
X8132659D01*
Y3465576D01*
X8133734D01*
Y3465934D01*
X8134450D01*
Y3466293D01*
X8135524D01*
Y3466651D01*
X8136599D01*
Y3467009D01*
X8138390D01*
Y3467367D01*
X8143405D01*
Y3467009D01*
D02*
G37*
G36*
X8096839Y3438353D02*
X8099705D01*
Y3437995D01*
X8102212D01*
Y3437637D01*
X8103645D01*
Y3437278D01*
X8105078D01*
Y3436920D01*
X8105794D01*
Y3436562D01*
X8106869D01*
Y3436204D01*
X8107943D01*
Y3435846D01*
X8108660D01*
Y3435487D01*
X8109376D01*
Y3435129D01*
X8110092D01*
Y3434771D01*
X8110809D01*
Y3434413D01*
X8111525D01*
Y3434055D01*
X8112242D01*
Y3433696D01*
X8112600D01*
Y3433338D01*
X8113316D01*
Y3432980D01*
X8113674D01*
Y3432622D01*
X8114391D01*
Y3432264D01*
X8114749D01*
Y3431906D01*
X8115465D01*
Y3431547D01*
X8115823D01*
Y3431189D01*
X8116182D01*
Y3430831D01*
X8116540D01*
Y3430473D01*
X8116898D01*
Y3430115D01*
X8117256D01*
Y3429756D01*
X8117614D01*
Y3429398D01*
X8117973D01*
Y3429040D01*
X8118331D01*
Y3428324D01*
X8118689D01*
Y3427965D01*
X8119047D01*
Y3427607D01*
X8119406D01*
Y3426891D01*
X8119764D01*
Y3426533D01*
X8120122D01*
Y3425816D01*
X8120480D01*
Y3425100D01*
X8120838D01*
Y3424383D01*
X8121197D01*
Y3423667D01*
X8121555D01*
Y3422592D01*
X8121913D01*
Y3421518D01*
X8122271D01*
Y3420085D01*
X8122629D01*
Y3412563D01*
X8122271D01*
Y3410772D01*
X8121913D01*
Y3409339D01*
X8121555D01*
Y3408264D01*
X8121197D01*
Y3407190D01*
X8120838D01*
Y3406115D01*
X8120480D01*
Y3405399D01*
X8120122D01*
Y3404683D01*
X8119764D01*
Y3403966D01*
X8119406D01*
Y3403250D01*
X8119047D01*
Y3402891D01*
X8118689D01*
Y3402175D01*
X8118331D01*
Y3401459D01*
X8117973D01*
Y3401100D01*
X8117614D01*
Y3400384D01*
X8117256D01*
Y3400026D01*
X8116898D01*
Y3399668D01*
X8116540D01*
Y3398951D01*
X8116182D01*
Y3398593D01*
X8115823D01*
Y3398235D01*
X8115465D01*
Y3397518D01*
X8115107D01*
Y3397160D01*
X8114749D01*
Y3396802D01*
X8114391D01*
Y3396444D01*
X8114033D01*
Y3396086D01*
X8113674D01*
Y3395728D01*
X8113316D01*
Y3395369D01*
X8112958D01*
Y3395011D01*
X8112600D01*
Y3394653D01*
X8111883D01*
Y3394295D01*
X8111525D01*
Y3393937D01*
X8111167D01*
Y3393578D01*
X8110809D01*
Y3393220D01*
X8110092D01*
Y3392862D01*
X8109734D01*
Y3392504D01*
X8109018D01*
Y3392146D01*
X8108302D01*
Y3391787D01*
X8107585D01*
Y3391429D01*
X8106869D01*
Y3391071D01*
X8105794D01*
Y3390713D01*
X8105078D01*
Y3390354D01*
X8104003D01*
Y3389996D01*
X8102212D01*
Y3389638D01*
X8101137D01*
Y3389280D01*
X8099347D01*
Y3388922D01*
X8097914D01*
Y3388563D01*
X8096123D01*
Y3388205D01*
X8094332D01*
Y3387847D01*
X8092541D01*
Y3387489D01*
X8091466D01*
Y3387131D01*
X8090033D01*
Y3386773D01*
X8089317D01*
Y3386414D01*
X8088242D01*
Y3386056D01*
X8087168D01*
Y3385698D01*
X8086451D01*
Y3385340D01*
X8085377D01*
Y3384982D01*
X8084660D01*
Y3384623D01*
X8083586D01*
Y3384265D01*
X8082869D01*
Y3383907D01*
X8082153D01*
Y3383549D01*
X8081436D01*
Y3383191D01*
X8080362D01*
Y3382832D01*
X8079646D01*
Y3382474D01*
X8078929D01*
Y3382116D01*
X8078213D01*
Y3381758D01*
X8077496D01*
Y3381400D01*
X8076422D01*
Y3381041D01*
X8075705D01*
Y3380683D01*
X8075347D01*
Y3380325D01*
X8074273D01*
Y3379967D01*
X8073556D01*
Y3379609D01*
X8072840D01*
Y3379250D01*
X8072482D01*
Y3378892D01*
X8071407D01*
Y3378534D01*
X8070691D01*
Y3378176D01*
X8069974D01*
Y3377817D01*
X8069616D01*
Y3377459D01*
X8068541D01*
Y3377101D01*
X8067825D01*
Y3376743D01*
X8067467D01*
Y3376385D01*
X8066750D01*
Y3376027D01*
X8066034D01*
Y3375668D01*
X8064959D01*
Y3375310D01*
X8064243D01*
Y3374952D01*
X8063885D01*
Y3374594D01*
X8062810D01*
Y3374236D01*
X8062094D01*
Y3373877D01*
X8061378D01*
Y3373519D01*
X8061019D01*
Y3373161D01*
X8060303D01*
Y3372803D01*
X8059587D01*
Y3372445D01*
X8058870D01*
Y3372086D01*
X8058154D01*
Y3371728D01*
X8057437D01*
Y3371370D01*
X8056363D01*
Y3371012D01*
X8056004D01*
Y3370654D01*
X8055288D01*
Y3370296D01*
X8054572D01*
Y3369937D01*
X8053855D01*
Y3369579D01*
X8053497D01*
Y3369221D01*
X8052423D01*
Y3368863D01*
X8051706D01*
Y3368505D01*
X8050632D01*
Y3368146D01*
X8050273D01*
Y3367788D01*
X8049199D01*
Y3367430D01*
X8048482D01*
Y3367072D01*
X8047408D01*
Y3366713D01*
X8046333D01*
Y3366355D01*
X8044900D01*
Y3365997D01*
X8043109D01*
Y3365639D01*
X8038453D01*
Y3365997D01*
X8036662D01*
Y3366355D01*
X8035587D01*
Y3366713D01*
X8034871D01*
Y3367072D01*
X8034154D01*
Y3367430D01*
X8033438D01*
Y3367788D01*
X8033080D01*
Y3368146D01*
X8032722D01*
Y3368505D01*
X8032363D01*
Y3368863D01*
X8031647D01*
Y3369221D01*
X8031289D01*
Y3369579D01*
X8030931D01*
Y3369937D01*
X8030572D01*
Y3370296D01*
X8030214D01*
Y3370654D01*
X8029856D01*
Y3371370D01*
X8033438D01*
Y3371728D01*
X8037020D01*
Y3372086D01*
X8039169D01*
Y3372445D01*
X8040960D01*
Y3372803D01*
X8042393D01*
Y3373161D01*
X8043826D01*
Y3373519D01*
X8044900D01*
Y3373877D01*
X8046333D01*
Y3374236D01*
X8047408D01*
Y3374594D01*
X8048482D01*
Y3374952D01*
X8049199D01*
Y3375310D01*
X8050273D01*
Y3375668D01*
X8051348D01*
Y3376027D01*
X8052064D01*
Y3376385D01*
X8052781D01*
Y3376743D01*
X8053497D01*
Y3377101D01*
X8054572D01*
Y3377459D01*
X8055288D01*
Y3377817D01*
X8056004D01*
Y3378176D01*
X8056721D01*
Y3378534D01*
X8057437D01*
Y3378892D01*
X8058154D01*
Y3379250D01*
X8058870D01*
Y3379609D01*
X8059228D01*
Y3379967D01*
X8060303D01*
Y3380325D01*
X8061019D01*
Y3380683D01*
X8061736D01*
Y3381041D01*
X8062094D01*
Y3381400D01*
X8063169D01*
Y3381758D01*
X8063885D01*
Y3382116D01*
X8064243D01*
Y3382474D01*
X8064959D01*
Y3382832D01*
X8065676D01*
Y3383191D01*
X8066392D01*
Y3383549D01*
X8067109D01*
Y3383907D01*
X8067825D01*
Y3384265D01*
X8068541D01*
Y3384623D01*
X8069258D01*
Y3384982D01*
X8069974D01*
Y3385340D01*
X8070691D01*
Y3385698D01*
X8071407D01*
Y3386056D01*
X8072123D01*
Y3386414D01*
X8072840D01*
Y3386773D01*
X8073556D01*
Y3387131D01*
X8074273D01*
Y3387489D01*
X8074989D01*
Y3387847D01*
X8075705D01*
Y3388205D01*
X8076422D01*
Y3388563D01*
X8077138D01*
Y3388922D01*
X8077855D01*
Y3389280D01*
X8078213D01*
Y3389638D01*
X8079287D01*
Y3389996D01*
X8080004D01*
Y3390354D01*
X8080720D01*
Y3390713D01*
X8081436D01*
Y3391071D01*
X8082153D01*
Y3391429D01*
X8083228D01*
Y3391787D01*
X8083944D01*
Y3392146D01*
X8085019D01*
Y3392504D01*
X8086093D01*
Y3392862D01*
X8086810D01*
Y3393220D01*
X8087884D01*
Y3393578D01*
X8089317D01*
Y3393937D01*
X8090750D01*
Y3394295D01*
X8092182D01*
Y3394653D01*
X8094690D01*
Y3395011D01*
X8096481D01*
Y3395369D01*
X8098630D01*
Y3395728D01*
X8100421D01*
Y3396086D01*
X8101137D01*
Y3396444D01*
X8102570D01*
Y3396802D01*
X8103287D01*
Y3397160D01*
X8104003D01*
Y3397518D01*
X8104719D01*
Y3397877D01*
X8105436D01*
Y3398235D01*
X8105794D01*
Y3398593D01*
X8106510D01*
Y3398951D01*
X8106869D01*
Y3399309D01*
X8107227D01*
Y3399668D01*
X8107943D01*
Y3400026D01*
X8108302D01*
Y3400384D01*
X8108660D01*
Y3400742D01*
X8109018D01*
Y3401100D01*
X8109376D01*
Y3401459D01*
X8109734D01*
Y3401817D01*
X8110092D01*
Y3402175D01*
X8110451D01*
Y3402533D01*
X8110809D01*
Y3402891D01*
X8111167D01*
Y3403250D01*
X8111525D01*
Y3403608D01*
X8111883D01*
Y3404324D01*
X8112242D01*
Y3404683D01*
X8112600D01*
Y3405399D01*
X8112958D01*
Y3406115D01*
X8113316D01*
Y3406474D01*
X8113674D01*
Y3407190D01*
X8114033D01*
Y3408264D01*
X8114391D01*
Y3408981D01*
X8114749D01*
Y3410414D01*
X8115107D01*
Y3413637D01*
X8115465D01*
Y3414712D01*
X8115107D01*
Y3417578D01*
X8114749D01*
Y3419010D01*
X8114391D01*
Y3419727D01*
X8114033D01*
Y3420443D01*
X8113674D01*
Y3421518D01*
X8113316D01*
Y3422234D01*
X8112958D01*
Y3422592D01*
X8112600D01*
Y3423309D01*
X8112242D01*
Y3424025D01*
X8111883D01*
Y3424383D01*
X8111525D01*
Y3424741D01*
X8111167D01*
Y3425100D01*
X8110809D01*
Y3425458D01*
X8110451D01*
Y3425816D01*
X8110092D01*
Y3426174D01*
X8109734D01*
Y3426533D01*
X8109376D01*
Y3426891D01*
X8109018D01*
Y3427249D01*
X8108660D01*
Y3427607D01*
X8107943D01*
Y3427965D01*
X8107585D01*
Y3428324D01*
X8106869D01*
Y3428682D01*
X8106152D01*
Y3429040D01*
X8105794D01*
Y3429398D01*
X8105078D01*
Y3429756D01*
X8104003D01*
Y3430115D01*
X8103287D01*
Y3430473D01*
X8102212D01*
Y3430831D01*
X8101137D01*
Y3431189D01*
X8100063D01*
Y3431547D01*
X8098272D01*
Y3431906D01*
X8096481D01*
Y3432264D01*
X8093615D01*
Y3432622D01*
X8087884D01*
Y3432980D01*
X8087526D01*
Y3432622D01*
X8080720D01*
Y3432264D01*
X8077855D01*
Y3431906D01*
X8075347D01*
Y3431547D01*
X8073556D01*
Y3431189D01*
X8071407D01*
Y3430831D01*
X8069974D01*
Y3430473D01*
X8068183D01*
Y3430115D01*
X8066750D01*
Y3429756D01*
X8065318D01*
Y3429398D01*
X8064243D01*
Y3429040D01*
X8062810D01*
Y3428682D01*
X8061378D01*
Y3428324D01*
X8060303D01*
Y3427965D01*
X8059228D01*
Y3427607D01*
X8058154D01*
Y3427249D01*
X8057079D01*
Y3426891D01*
X8056004D01*
Y3426533D01*
X8054930D01*
Y3426174D01*
X8053855D01*
Y3425816D01*
X8052781D01*
Y3425458D01*
X8051706D01*
Y3425100D01*
X8050990D01*
Y3424741D01*
X8049915D01*
Y3424383D01*
X8048841D01*
Y3424025D01*
X8048124D01*
Y3423667D01*
X8047050D01*
Y3423309D01*
X8045975D01*
Y3422950D01*
X8044900D01*
Y3422592D01*
X8044184D01*
Y3422234D01*
X8043468D01*
Y3421876D01*
X8042393D01*
Y3421518D01*
X8041677D01*
Y3421160D01*
X8040960D01*
Y3420801D01*
X8039886D01*
Y3420443D01*
X8039169D01*
Y3420085D01*
X8038095D01*
Y3419727D01*
X8037378D01*
Y3419369D01*
X8036662D01*
Y3419010D01*
X8035945D01*
Y3418652D01*
X8035229D01*
Y3418294D01*
X8034513D01*
Y3417936D01*
X8033796D01*
Y3417578D01*
X8033438D01*
Y3417219D01*
X8032722D01*
Y3416861D01*
X8032005D01*
Y3416503D01*
X8031289D01*
Y3416145D01*
X8030931D01*
Y3415787D01*
X8030214D01*
Y3415428D01*
X8029856D01*
Y3415070D01*
X8029140D01*
Y3414712D01*
X8028782D01*
Y3414354D01*
X8028423D01*
Y3413996D01*
X8028065D01*
Y3413637D01*
X8027707D01*
Y3413279D01*
X8026991D01*
Y3412921D01*
X8026632D01*
Y3412563D01*
X8026274D01*
Y3412205D01*
X8025916D01*
Y3411846D01*
X8025558D01*
Y3411488D01*
X8025200D01*
Y3411130D01*
X8024841D01*
Y3410414D01*
X8024483D01*
Y3410055D01*
X8024125D01*
Y3409697D01*
X8023767D01*
Y3408981D01*
X8023408D01*
Y3408623D01*
X8023050D01*
Y3408264D01*
X8022692D01*
Y3407548D01*
X8022334D01*
Y3406832D01*
X8021976D01*
Y3406115D01*
X8021617D01*
Y3405399D01*
X8021259D01*
Y3404683D01*
X8020901D01*
Y3403966D01*
X8020543D01*
Y3402891D01*
X8020185D01*
Y3401817D01*
X8019826D01*
Y3400742D01*
X8019468D01*
Y3399309D01*
X8019110D01*
Y3397518D01*
X8018752D01*
Y3394653D01*
X8018394D01*
Y3387489D01*
X8018752D01*
Y3384623D01*
X8019110D01*
Y3382116D01*
X8019468D01*
Y3380325D01*
X8019826D01*
Y3379250D01*
X8020185D01*
Y3377817D01*
X8020543D01*
Y3376743D01*
X8020901D01*
Y3375668D01*
X8021259D01*
Y3374594D01*
X8021617D01*
Y3373519D01*
X8021976D01*
Y3372445D01*
X8022334D01*
Y3371728D01*
X8022692D01*
Y3370654D01*
X8023050D01*
Y3369937D01*
X8023408D01*
Y3369221D01*
X8023767D01*
Y3368505D01*
X8024125D01*
Y3367788D01*
X8024483D01*
Y3367072D01*
X8024841D01*
Y3366355D01*
X8025200D01*
Y3365639D01*
X8025558D01*
Y3364922D01*
X8025916D01*
Y3364206D01*
X8026274D01*
Y3363848D01*
X8025200D01*
Y3364206D01*
X8024483D01*
Y3364564D01*
X8023767D01*
Y3364922D01*
X8023050D01*
Y3365281D01*
X8022692D01*
Y3365639D01*
X8021976D01*
Y3365997D01*
X8021617D01*
Y3366355D01*
X8021259D01*
Y3366713D01*
X8020543D01*
Y3367072D01*
X8020185D01*
Y3367430D01*
X8019826D01*
Y3367788D01*
X8019468D01*
Y3368146D01*
X8019110D01*
Y3368863D01*
X8018394D01*
Y3369579D01*
X8018036D01*
Y3369937D01*
X8017677D01*
Y3370296D01*
X8017319D01*
Y3371012D01*
X8016961D01*
Y3371370D01*
X8016603D01*
Y3371728D01*
X8016245D01*
Y3372803D01*
X8015886D01*
Y3373161D01*
X8015528D01*
Y3373877D01*
X8015170D01*
Y3374594D01*
X8014812D01*
Y3375668D01*
X8014454D01*
Y3376385D01*
X8014095D01*
Y3377459D01*
X8013737D01*
Y3378176D01*
X8013379D01*
Y3379609D01*
X8013021D01*
Y3381041D01*
X8012663D01*
Y3382832D01*
X8012304D01*
Y3384982D01*
X8011946D01*
Y3388922D01*
X8011588D01*
Y3391787D01*
X8011946D01*
Y3397518D01*
X8012304D01*
Y3399668D01*
X8012663D01*
Y3401459D01*
X8013021D01*
Y3403250D01*
X8013379D01*
Y3404324D01*
X8013737D01*
Y3405399D01*
X8014095D01*
Y3406115D01*
X8014454D01*
Y3407548D01*
X8014812D01*
Y3408264D01*
X8015170D01*
Y3408981D01*
X8015528D01*
Y3410055D01*
X8015886D01*
Y3410414D01*
X8016245D01*
Y3411488D01*
X8016603D01*
Y3411846D01*
X8016961D01*
Y3412563D01*
X8017319D01*
Y3413279D01*
X8017677D01*
Y3413637D01*
X8018036D01*
Y3413996D01*
X8018394D01*
Y3414712D01*
X8018752D01*
Y3415070D01*
X8019110D01*
Y3415787D01*
X8019468D01*
Y3416145D01*
X8019826D01*
Y3416503D01*
X8020185D01*
Y3416861D01*
X8020543D01*
Y3417219D01*
X8020901D01*
Y3417578D01*
X8021259D01*
Y3417936D01*
X8021617D01*
Y3418294D01*
X8021976D01*
Y3419010D01*
X8022692D01*
Y3419369D01*
X8023050D01*
Y3419727D01*
X8023408D01*
Y3420085D01*
X8023767D01*
Y3420443D01*
X8024125D01*
Y3420801D01*
X8024483D01*
Y3421160D01*
X8024841D01*
Y3421518D01*
X8025558D01*
Y3421876D01*
X8025916D01*
Y3422234D01*
X8026274D01*
Y3422592D01*
X8026991D01*
Y3422950D01*
X8027349D01*
Y3423309D01*
X8027707D01*
Y3423667D01*
X8028423D01*
Y3424025D01*
X8028782D01*
Y3424383D01*
X8029498D01*
Y3424741D01*
X8029856D01*
Y3425100D01*
X8030572D01*
Y3425458D01*
X8031289D01*
Y3425816D01*
X8031647D01*
Y3426174D01*
X8032722D01*
Y3426533D01*
X8033438D01*
Y3426891D01*
X8033796D01*
Y3427249D01*
X8034513D01*
Y3427607D01*
X8035229D01*
Y3427965D01*
X8036304D01*
Y3428324D01*
X8037020D01*
Y3428682D01*
X8037378D01*
Y3429040D01*
X8038453D01*
Y3429398D01*
X8039169D01*
Y3429756D01*
X8040244D01*
Y3430115D01*
X8040960D01*
Y3430473D01*
X8042035D01*
Y3430831D01*
X8043109D01*
Y3431189D01*
X8044184D01*
Y3431547D01*
X8044900D01*
Y3431906D01*
X8045975D01*
Y3432264D01*
X8047408D01*
Y3432622D01*
X8048482D01*
Y3432980D01*
X8049557D01*
Y3433338D01*
X8050990D01*
Y3433696D01*
X8052423D01*
Y3434055D01*
X8053497D01*
Y3434413D01*
X8055288D01*
Y3434771D01*
X8057079D01*
Y3435129D01*
X8058512D01*
Y3435487D01*
X8060661D01*
Y3435846D01*
X8062452D01*
Y3436204D01*
X8064959D01*
Y3436562D01*
X8066750D01*
Y3436920D01*
X8069616D01*
Y3437278D01*
X8072482D01*
Y3437637D01*
X8075705D01*
Y3437995D01*
X8080004D01*
Y3438353D01*
X8086093D01*
Y3438711D01*
X8096839D01*
Y3438353D01*
D02*
G37*
G36*
X10884873Y3533754D02*
X10817212D01*
Y3532283D01*
X10815741D01*
Y3344008D01*
X10737783D01*
Y3533754D01*
X10670122D01*
Y3601415D01*
X10884873D01*
Y3533754D01*
D02*
G37*
G36*
X10620111Y3598473D02*
X10621582D01*
Y3595532D01*
X10623053D01*
Y3591119D01*
X10624524D01*
Y3586706D01*
X10625994D01*
Y3585235D01*
Y3582294D01*
X10627465D01*
Y3579352D01*
X10628936D01*
Y3574939D01*
X10630407D01*
Y3570526D01*
X10631878D01*
Y3566114D01*
X10633349D01*
Y3563172D01*
X10634820D01*
Y3558759D01*
X10636291D01*
Y3554346D01*
X10637762D01*
Y3551405D01*
X10639233D01*
Y3546992D01*
X10640704D01*
Y3542579D01*
X10642175D01*
Y3538166D01*
X10643645D01*
Y3535225D01*
X10645116D01*
Y3530812D01*
X10646587D01*
Y3526399D01*
X10648058D01*
Y3521987D01*
X10649529D01*
Y3519045D01*
X10651000D01*
Y3514632D01*
X10652471D01*
Y3510219D01*
X10653942D01*
Y3507278D01*
X10655413D01*
Y3502865D01*
X10656883D01*
Y3498452D01*
X10658354D01*
Y3494039D01*
X10659825D01*
Y3491098D01*
X10661296D01*
Y3486685D01*
X10662767D01*
Y3482272D01*
X10664238D01*
Y3477860D01*
X10665709D01*
Y3474918D01*
X10667180D01*
Y3470505D01*
X10668651D01*
Y3466092D01*
X10670122D01*
Y3463151D01*
X10671593D01*
Y3458738D01*
X10673063D01*
Y3454325D01*
X10674534D01*
Y3449913D01*
X10676005D01*
Y3446971D01*
X10677476D01*
Y3442558D01*
X10678947D01*
Y3438145D01*
X10680418D01*
Y3433733D01*
X10681889D01*
Y3430791D01*
X10683360D01*
Y3426378D01*
X10684831D01*
Y3421965D01*
X10686301D01*
Y3419024D01*
X10687772D01*
Y3414611D01*
X10689243D01*
Y3410198D01*
X10690714D01*
Y3407256D01*
X10692185D01*
Y3402844D01*
X10693656D01*
Y3398431D01*
X10695127D01*
Y3394018D01*
X10696598D01*
Y3391077D01*
X10698069D01*
Y3386664D01*
X10699540D01*
Y3382251D01*
X10701011D01*
Y3377839D01*
X10702481D01*
Y3374897D01*
X10703952D01*
Y3370484D01*
X10705423D01*
Y3366071D01*
X10706894D01*
Y3363129D01*
X10708365D01*
Y3358717D01*
X10709836D01*
Y3354304D01*
X10711307D01*
Y3349891D01*
X10712778D01*
Y3346950D01*
X10714249D01*
Y3344008D01*
X10625994D01*
Y3345479D01*
X10624524D01*
Y3351362D01*
X10623053D01*
Y3355775D01*
X10621582D01*
Y3360188D01*
X10620111D01*
Y3364600D01*
X10618640D01*
Y3370484D01*
X10617169D01*
Y3373426D01*
X10524502D01*
Y3370484D01*
X10523032D01*
Y3364600D01*
X10521561D01*
Y3360188D01*
X10520090D01*
Y3355775D01*
X10518619D01*
Y3351362D01*
X10517148D01*
Y3345479D01*
X10515677D01*
Y3344008D01*
X10427423D01*
Y3346950D01*
X10428894D01*
Y3349891D01*
X10430365D01*
Y3354304D01*
X10431836D01*
Y3358717D01*
X10433307D01*
Y3363129D01*
X10434778D01*
Y3366071D01*
X10436249D01*
Y3370484D01*
X10437720D01*
Y3374897D01*
X10439190D01*
Y3377839D01*
X10440661D01*
Y3382251D01*
X10442132D01*
Y3386664D01*
X10443603D01*
Y3391077D01*
X10445074D01*
Y3394018D01*
X10446545D01*
Y3398431D01*
X10448016D01*
Y3402844D01*
X10449487D01*
Y3407256D01*
X10450958D01*
Y3410198D01*
X10452428D01*
Y3414611D01*
X10453899D01*
Y3419024D01*
X10455370D01*
Y3421965D01*
X10456841D01*
Y3426378D01*
X10458312D01*
Y3430791D01*
X10459783D01*
Y3435203D01*
X10461254D01*
Y3438145D01*
X10462725D01*
Y3442558D01*
X10464196D01*
Y3446971D01*
X10465667D01*
Y3449913D01*
X10467138D01*
Y3454325D01*
X10468608D01*
Y3458738D01*
X10470079D01*
Y3463151D01*
X10471550D01*
Y3466092D01*
X10473021D01*
Y3470505D01*
X10474492D01*
Y3474918D01*
X10475963D01*
Y3477860D01*
X10477434D01*
Y3482272D01*
X10478905D01*
Y3486685D01*
X10480376D01*
Y3491098D01*
X10481846D01*
Y3494039D01*
X10483317D01*
Y3498452D01*
X10484788D01*
Y3502865D01*
X10486259D01*
Y3507278D01*
X10487730D01*
Y3510219D01*
X10489201D01*
Y3514632D01*
X10490672D01*
Y3519045D01*
X10492143D01*
Y3521987D01*
X10493614D01*
Y3526399D01*
X10495085D01*
Y3530812D01*
X10496555D01*
Y3535225D01*
X10498026D01*
Y3538166D01*
X10499497D01*
Y3542579D01*
X10500968D01*
Y3546992D01*
X10502439D01*
Y3551405D01*
X10503910D01*
Y3554346D01*
X10505381D01*
Y3558759D01*
X10506852D01*
Y3563172D01*
X10508323D01*
Y3566114D01*
X10509794D01*
Y3570526D01*
X10511264D01*
Y3574939D01*
X10512735D01*
Y3579352D01*
X10514206D01*
Y3582294D01*
X10515677D01*
Y3586706D01*
X10517148D01*
Y3591119D01*
X10518619D01*
Y3595532D01*
X10520090D01*
Y3598473D01*
X10521561D01*
Y3601415D01*
X10620111D01*
Y3598473D01*
D02*
G37*
G36*
X10412714Y3344008D02*
X10237677D01*
Y3411669D01*
X10334757D01*
Y3601415D01*
X10412714D01*
Y3344008D01*
D02*
G37*
G36*
X7821743Y3458770D02*
X7821385D01*
Y3457696D01*
X7821027D01*
Y3456979D01*
X7820668D01*
Y3456263D01*
X7820310D01*
Y3455547D01*
X7819952D01*
Y3454472D01*
X7819594D01*
Y3453756D01*
X7819236D01*
Y3452681D01*
X7818877D01*
Y3451965D01*
X7818519D01*
Y3451248D01*
X7818161D01*
Y3450532D01*
X7817803D01*
Y3449815D01*
X7817445D01*
Y3449099D01*
X7817086D01*
Y3448382D01*
X7816728D01*
Y3447666D01*
X7816370D01*
Y3446950D01*
X7816012D01*
Y3446233D01*
X7815654D01*
Y3445517D01*
X7815296D01*
Y3444801D01*
X7814937D01*
Y3444442D01*
X7814579D01*
Y3443726D01*
X7814221D01*
Y3443010D01*
X7813863D01*
Y3442293D01*
X7813505D01*
Y3441935D01*
X7813146D01*
Y3441219D01*
X7812788D01*
Y3440502D01*
X7812430D01*
Y3440144D01*
X7812072D01*
Y3439428D01*
X7811714D01*
Y3438711D01*
X7811355D01*
Y3438353D01*
X7810997D01*
Y3437637D01*
X7810639D01*
Y3437278D01*
X7810281D01*
Y3436920D01*
X7809922D01*
Y3436204D01*
X7809564D01*
Y3435487D01*
X7809206D01*
Y3434771D01*
X7808848D01*
Y3434413D01*
X7808490D01*
Y3434055D01*
X7808131D01*
Y3433338D01*
X7807773D01*
Y3432980D01*
X7807415D01*
Y3432622D01*
X7807057D01*
Y3431906D01*
X7806699D01*
Y3431547D01*
X7806340D01*
Y3430831D01*
X7805982D01*
Y3430473D01*
X7805624D01*
Y3429756D01*
X7805266D01*
Y3429398D01*
X7804908D01*
Y3429040D01*
X7804550D01*
Y3428324D01*
X7804191D01*
Y3427965D01*
X7803833D01*
Y3427607D01*
X7803475D01*
Y3426891D01*
X7803117D01*
Y3426533D01*
X7802759D01*
Y3426174D01*
X7802400D01*
Y3425458D01*
X7802042D01*
Y3425100D01*
X7801684D01*
Y3424741D01*
X7801326D01*
Y3424025D01*
X7800968D01*
Y3423667D01*
X7800609D01*
Y3423309D01*
X7800251D01*
Y3422592D01*
X7799893D01*
Y3422234D01*
X7799535D01*
Y3421876D01*
X7799177D01*
Y3421160D01*
X7798818D01*
Y3420801D01*
X7798460D01*
Y3420443D01*
X7798102D01*
Y3420085D01*
X7797744D01*
Y3419727D01*
X7797385D01*
Y3419010D01*
X7797027D01*
Y3418652D01*
X7796669D01*
Y3418294D01*
X7796311D01*
Y3417578D01*
X7795595D01*
Y3416861D01*
X7795236D01*
Y3416503D01*
X7794878D01*
Y3416145D01*
X7794520D01*
Y3415428D01*
X7794162D01*
Y3415070D01*
X7793804D01*
Y3414712D01*
X7793445D01*
Y3414354D01*
X7793087D01*
Y3413996D01*
X7792729D01*
Y3413279D01*
X7792371D01*
Y3412921D01*
X7792013D01*
Y3412563D01*
X7791654D01*
Y3412205D01*
X7791296D01*
Y3411846D01*
X7790938D01*
Y3411130D01*
X7790580D01*
Y3410772D01*
X7790222D01*
Y3410414D01*
X7789864D01*
Y3410055D01*
X7789505D01*
Y3409697D01*
X7789147D01*
Y3408981D01*
X7788789D01*
Y3408623D01*
X7788431D01*
Y3408264D01*
X7788073D01*
Y3407906D01*
X7787714D01*
Y3407548D01*
X7787356D01*
Y3407190D01*
X7786998D01*
Y3406474D01*
X7786640D01*
Y3406115D01*
X7786281D01*
Y3405757D01*
X7785923D01*
Y3405399D01*
X7785565D01*
Y3404683D01*
X7785207D01*
Y3404324D01*
X7784849D01*
Y3403966D01*
X7784490D01*
Y3403608D01*
X7784132D01*
Y3403250D01*
X7783774D01*
Y3402891D01*
X7783416D01*
Y3402175D01*
X7783058D01*
Y3401817D01*
X7782699D01*
Y3401459D01*
X7782341D01*
Y3401100D01*
X7781983D01*
Y3400384D01*
X7781267D01*
Y3399668D01*
X7780908D01*
Y3399309D01*
X7780550D01*
Y3398951D01*
X7780192D01*
Y3398235D01*
X7779476D01*
Y3397518D01*
X7779118D01*
Y3397160D01*
X7778759D01*
Y3396802D01*
X7778401D01*
Y3396086D01*
X7778043D01*
Y3395728D01*
X7777685D01*
Y3395369D01*
X7777327D01*
Y3395011D01*
X7776968D01*
Y3394653D01*
X7776610D01*
Y3394295D01*
X7776252D01*
Y3393578D01*
X7775536D01*
Y3392862D01*
X7775177D01*
Y3392504D01*
X7774819D01*
Y3391787D01*
X7774103D01*
Y3391071D01*
X7773744D01*
Y3390713D01*
X7773386D01*
Y3390354D01*
X7773028D01*
Y3389996D01*
X7772670D01*
Y3389638D01*
X7772312D01*
Y3388922D01*
X7771953D01*
Y3388563D01*
X7771595D01*
Y3387847D01*
X7771237D01*
Y3387489D01*
X7770879D01*
Y3387131D01*
X7770521D01*
Y3386773D01*
X7770163D01*
Y3386056D01*
X7769804D01*
Y3385698D01*
X7769446D01*
Y3385340D01*
X7769088D01*
Y3384982D01*
X7768730D01*
Y3384265D01*
X7768372D01*
Y3383907D01*
X7768013D01*
Y3383191D01*
X7767655D01*
Y3382832D01*
X7767297D01*
Y3382474D01*
X7766939D01*
Y3381758D01*
X7766581D01*
Y3381041D01*
X7766222D01*
Y3380683D01*
X7765864D01*
Y3380325D01*
X7765506D01*
Y3379609D01*
X7765148D01*
Y3378892D01*
X7764790D01*
Y3378534D01*
X7764431D01*
Y3377459D01*
X7764073D01*
Y3377101D01*
X7763715D01*
Y3376385D01*
X7763357D01*
Y3375668D01*
X7762999D01*
Y3375310D01*
X7762640D01*
Y3374594D01*
X7762282D01*
Y3373519D01*
X7761924D01*
Y3372803D01*
X7761566D01*
Y3372086D01*
X7761207D01*
Y3371012D01*
X7760849D01*
Y3370296D01*
X7760491D01*
Y3368863D01*
X7760133D01*
Y3368146D01*
X7759775D01*
Y3367072D01*
X7759417D01*
Y3365639D01*
X7759058D01*
Y3364206D01*
X7758700D01*
Y3362057D01*
X7758342D01*
Y3359191D01*
X7757984D01*
Y3353818D01*
X7758342D01*
Y3350953D01*
X7758700D01*
Y3349520D01*
X7759058D01*
Y3348087D01*
X7759417D01*
Y3347013D01*
X7759775D01*
Y3345938D01*
X7760133D01*
Y3344863D01*
X7760491D01*
Y3344147D01*
X7760849D01*
Y3343072D01*
X7761207D01*
Y3342356D01*
X7761566D01*
Y3341998D01*
X7761924D01*
Y3341281D01*
X7762282D01*
Y3340565D01*
X7762640D01*
Y3340207D01*
X7762999D01*
Y3339490D01*
X7763357D01*
Y3338774D01*
X7763715D01*
Y3338416D01*
X7764073D01*
Y3337699D01*
X7764431D01*
Y3337341D01*
X7764790D01*
Y3336625D01*
X7765148D01*
Y3336267D01*
X7765506D01*
Y3335908D01*
X7765864D01*
Y3335192D01*
X7766222D01*
Y3334834D01*
X7766581D01*
Y3334476D01*
X7766939D01*
Y3334118D01*
X7767297D01*
Y3333759D01*
X7767655D01*
Y3333043D01*
X7768372D01*
Y3332326D01*
X7769088D01*
Y3331610D01*
X7769804D01*
Y3330894D01*
X7770163D01*
Y3330535D01*
X7770521D01*
Y3330177D01*
X7771237D01*
Y3329461D01*
X7771953D01*
Y3329103D01*
X7772312D01*
Y3328744D01*
X7772670D01*
Y3328386D01*
X7773028D01*
Y3328028D01*
X7773386D01*
Y3327670D01*
X7774103D01*
Y3327312D01*
X7774461D01*
Y3326953D01*
X7774819D01*
Y3326595D01*
X7775177D01*
Y3326237D01*
X7775536D01*
Y3325879D01*
X7776252D01*
Y3325521D01*
X7776610D01*
Y3325163D01*
X7776968D01*
Y3324804D01*
X7777685D01*
Y3324446D01*
X7778043D01*
Y3324088D01*
X7778759D01*
Y3323730D01*
X7779118D01*
Y3323372D01*
X7779834D01*
Y3323013D01*
X7780192D01*
Y3322655D01*
X7780550D01*
Y3322297D01*
X7781267D01*
Y3321939D01*
X7781625D01*
Y3321581D01*
X7782341D01*
Y3321222D01*
X7783058D01*
Y3320864D01*
X7783416D01*
Y3320506D01*
X7784132D01*
Y3320148D01*
X7784849D01*
Y3319789D01*
X7785207D01*
Y3319431D01*
X7785923D01*
Y3319073D01*
X7786281D01*
Y3318715D01*
X7786998D01*
Y3318357D01*
X7787714D01*
Y3317998D01*
X7788431D01*
Y3317640D01*
X7788789D01*
Y3317282D01*
X7789864D01*
Y3316924D01*
X7790222D01*
Y3316566D01*
X7790938D01*
Y3316207D01*
X7791654D01*
Y3315849D01*
X7792013D01*
Y3315491D01*
X7792729D01*
Y3315133D01*
X7793445D01*
Y3314775D01*
X7794162D01*
Y3314417D01*
X7794878D01*
Y3314058D01*
X7795595D01*
Y3313700D01*
X7796669D01*
Y3313342D01*
X7797385D01*
Y3312984D01*
X7798102D01*
Y3312626D01*
X7798818D01*
Y3312267D01*
X7799535D01*
Y3311909D01*
X7800251D01*
Y3311551D01*
X7801326D01*
Y3311193D01*
X7802042D01*
Y3310835D01*
X7802759D01*
Y3310476D01*
X7803475D01*
Y3310118D01*
X7804550D01*
Y3309760D01*
X7805266D01*
Y3309402D01*
X7806340D01*
Y3309044D01*
X7807057D01*
Y3308685D01*
X7808131D01*
Y3308327D01*
X7808848D01*
Y3307969D01*
X7809922D01*
Y3307611D01*
X7810997D01*
Y3307253D01*
X7811714D01*
Y3306894D01*
X7812788D01*
Y3306536D01*
X7813863D01*
Y3306178D01*
X7814937D01*
Y3305820D01*
X7815654D01*
Y3305462D01*
X7817086D01*
Y3305103D01*
X7818519D01*
Y3304745D01*
X7819236D01*
Y3304387D01*
X7820310D01*
Y3304029D01*
X7821385D01*
Y3303671D01*
X7822818D01*
Y3303312D01*
X7824251D01*
Y3302954D01*
X7825325D01*
Y3302596D01*
X7826400D01*
Y3302238D01*
X7827832D01*
Y3301880D01*
X7829265D01*
Y3301521D01*
X7830698D01*
Y3301163D01*
X7832131D01*
Y3300805D01*
X7833922D01*
Y3300447D01*
X7835713D01*
Y3300089D01*
X7837146D01*
Y3299731D01*
X7838578D01*
Y3299372D01*
X7840728D01*
Y3299014D01*
X7842877D01*
Y3298656D01*
X7844668D01*
Y3298298D01*
X7847175D01*
Y3297940D01*
X7849683D01*
Y3297581D01*
X7852190D01*
Y3297223D01*
X7855055D01*
Y3296865D01*
X7858637D01*
Y3296507D01*
X7864010D01*
Y3296148D01*
X7871174D01*
Y3296507D01*
X7875831D01*
Y3296865D01*
X7880129D01*
Y3297223D01*
X7883711D01*
Y3297581D01*
X7895890D01*
Y3297223D01*
X7898756D01*
Y3296865D01*
X7900188D01*
Y3296507D01*
X7901263D01*
Y3295790D01*
X7900547D01*
Y3295432D01*
X7900188D01*
Y3295074D01*
X7899472D01*
Y3294716D01*
X7898756D01*
Y3294357D01*
X7898039D01*
Y3293999D01*
X7897323D01*
Y3293641D01*
X7896607D01*
Y3293283D01*
X7895890D01*
Y3292925D01*
X7894816D01*
Y3292566D01*
X7893741D01*
Y3292208D01*
X7893024D01*
Y3291850D01*
X7891592D01*
Y3291492D01*
X7890159D01*
Y3291134D01*
X7888726D01*
Y3290775D01*
X7886935D01*
Y3290417D01*
X7884428D01*
Y3290059D01*
X7881562D01*
Y3289701D01*
X7876906D01*
Y3289343D01*
X7867234D01*
Y3289701D01*
X7862219D01*
Y3290059D01*
X7858996D01*
Y3290417D01*
X7857205D01*
Y3290775D01*
X7854697D01*
Y3291134D01*
X7852906D01*
Y3291492D01*
X7851474D01*
Y3291850D01*
X7850041D01*
Y3292208D01*
X7848966D01*
Y3290775D01*
X7848608D01*
Y3289701D01*
X7848250D01*
Y3288268D01*
X7847892D01*
Y3287194D01*
X7847533D01*
Y3286119D01*
X7847175D01*
Y3285044D01*
X7846817D01*
Y3284328D01*
X7846459D01*
Y3283611D01*
X7846100D01*
Y3282895D01*
X7845742D01*
Y3281820D01*
X7845384D01*
Y3281104D01*
X7845026D01*
Y3280388D01*
X7844668D01*
Y3279313D01*
X7844309D01*
Y3278597D01*
X7843951D01*
Y3277880D01*
X7843593D01*
Y3277164D01*
X7843235D01*
Y3276448D01*
X7842877D01*
Y3275373D01*
X7842518D01*
Y3274299D01*
X7842160D01*
Y3273582D01*
X7841802D01*
Y3272507D01*
X7841444D01*
Y3271433D01*
X7841086D01*
Y3270000D01*
X7840728D01*
Y3268925D01*
X7840369D01*
Y3267851D01*
X7840011D01*
Y3266418D01*
X7839653D01*
Y3265343D01*
X7839295D01*
Y3264269D01*
X7838937D01*
Y3262836D01*
X7838578D01*
Y3261762D01*
X7838220D01*
Y3260687D01*
X7837862D01*
Y3259612D01*
X7837504D01*
Y3258538D01*
X7837146D01*
Y3257463D01*
X7836787D01*
Y3256747D01*
X7836429D01*
Y3256030D01*
X7836071D01*
Y3255314D01*
X7835713D01*
Y3254956D01*
X7835355D01*
Y3255314D01*
X7834996D01*
Y3256030D01*
X7834638D01*
Y3256747D01*
X7834280D01*
Y3257463D01*
X7833922D01*
Y3258538D01*
X7833564D01*
Y3259970D01*
X7833205D01*
Y3262478D01*
X7832847D01*
Y3266060D01*
X7833205D01*
Y3268567D01*
X7833564D01*
Y3270716D01*
X7833922D01*
Y3272149D01*
X7834280D01*
Y3273224D01*
X7834638D01*
Y3274657D01*
X7834996D01*
Y3275731D01*
X7835355D01*
Y3276448D01*
X7835713D01*
Y3277880D01*
X7836071D01*
Y3278597D01*
X7836429D01*
Y3279313D01*
X7836787D01*
Y3280388D01*
X7837146D01*
Y3281462D01*
X7837504D01*
Y3282179D01*
X7837862D01*
Y3282895D01*
X7838220D01*
Y3283970D01*
X7838578D01*
Y3285044D01*
X7838937D01*
Y3285761D01*
X7839295D01*
Y3286477D01*
X7839653D01*
Y3287552D01*
X7840011D01*
Y3288626D01*
X7840369D01*
Y3289343D01*
X7840728D01*
Y3290417D01*
X7841086D01*
Y3291492D01*
X7841444D01*
Y3292208D01*
X7841802D01*
Y3293283D01*
X7842160D01*
Y3294357D01*
X7842518D01*
Y3294716D01*
X7842160D01*
Y3295074D01*
X7839653D01*
Y3295432D01*
X7836429D01*
Y3295790D01*
X7833922D01*
Y3296148D01*
X7831414D01*
Y3296507D01*
X7829265D01*
Y3296865D01*
X7827474D01*
Y3297223D01*
X7825683D01*
Y3297581D01*
X7824251D01*
Y3297940D01*
X7822459D01*
Y3298298D01*
X7820668D01*
Y3298656D01*
X7819594D01*
Y3299014D01*
X7817803D01*
Y3299372D01*
X7816728D01*
Y3299731D01*
X7815296D01*
Y3300089D01*
X7813863D01*
Y3300447D01*
X7812788D01*
Y3300805D01*
X7811355D01*
Y3301163D01*
X7809922D01*
Y3301521D01*
X7809206D01*
Y3301880D01*
X7808131D01*
Y3302238D01*
X7807057D01*
Y3302596D01*
X7805982D01*
Y3302954D01*
X7804908D01*
Y3303312D01*
X7803833D01*
Y3303671D01*
X7802759D01*
Y3304029D01*
X7802042D01*
Y3304387D01*
X7800968D01*
Y3304745D01*
X7799893D01*
Y3305103D01*
X7799177D01*
Y3305462D01*
X7798102D01*
Y3305820D01*
X7797385D01*
Y3306178D01*
X7796669D01*
Y3306536D01*
X7795595D01*
Y3306894D01*
X7794878D01*
Y3307253D01*
X7794162D01*
Y3307611D01*
X7793445D01*
Y3307969D01*
X7792729D01*
Y3308327D01*
X7792013D01*
Y3308685D01*
X7790938D01*
Y3309044D01*
X7790580D01*
Y3309402D01*
X7789864D01*
Y3309760D01*
X7789147D01*
Y3310118D01*
X7788431D01*
Y3310476D01*
X7787714D01*
Y3310835D01*
X7786998D01*
Y3311193D01*
X7786640D01*
Y3311551D01*
X7785923D01*
Y3311909D01*
X7785207D01*
Y3312267D01*
X7784849D01*
Y3312626D01*
X7784132D01*
Y3312984D01*
X7783416D01*
Y3313342D01*
X7783058D01*
Y3313700D01*
X7782341D01*
Y3314058D01*
X7781983D01*
Y3314417D01*
X7781267D01*
Y3314775D01*
X7780550D01*
Y3315133D01*
X7780192D01*
Y3315491D01*
X7779476D01*
Y3315849D01*
X7779118D01*
Y3316207D01*
X7778401D01*
Y3316566D01*
X7778043D01*
Y3316924D01*
X7777685D01*
Y3317282D01*
X7776968D01*
Y3317640D01*
X7776252D01*
Y3317998D01*
X7775894D01*
Y3318357D01*
X7775177D01*
Y3318715D01*
X7774819D01*
Y3319073D01*
X7774103D01*
Y3319431D01*
X7773744D01*
Y3319789D01*
X7773028D01*
Y3320148D01*
X7772670D01*
Y3320506D01*
X7771953D01*
Y3320864D01*
X7771595D01*
Y3321222D01*
X7770879D01*
Y3321581D01*
X7770521D01*
Y3321939D01*
X7769804D01*
Y3322297D01*
X7769088D01*
Y3322655D01*
X7768730D01*
Y3323013D01*
X7767655D01*
Y3323372D01*
X7767297D01*
Y3323730D01*
X7766939D01*
Y3324088D01*
X7766222D01*
Y3324446D01*
X7765864D01*
Y3323372D01*
X7766222D01*
Y3323013D01*
X7766581D01*
Y3322297D01*
X7766939D01*
Y3321581D01*
X7767297D01*
Y3320506D01*
X7767655D01*
Y3320148D01*
X7768013D01*
Y3319073D01*
X7768372D01*
Y3318357D01*
X7768730D01*
Y3317640D01*
X7769088D01*
Y3316924D01*
X7769446D01*
Y3316207D01*
X7769804D01*
Y3315133D01*
X7770163D01*
Y3314417D01*
X7770521D01*
Y3313700D01*
X7770879D01*
Y3312984D01*
X7771237D01*
Y3312267D01*
X7771595D01*
Y3311193D01*
X7771953D01*
Y3310476D01*
X7772312D01*
Y3309402D01*
X7772670D01*
Y3308685D01*
X7773028D01*
Y3307611D01*
X7773386D01*
Y3306894D01*
X7773744D01*
Y3305820D01*
X7774103D01*
Y3304745D01*
X7774461D01*
Y3303671D01*
X7774819D01*
Y3302954D01*
X7775177D01*
Y3301880D01*
X7775536D01*
Y3300805D01*
X7775894D01*
Y3299372D01*
X7776252D01*
Y3298298D01*
X7776610D01*
Y3297223D01*
X7776968D01*
Y3295790D01*
X7777327D01*
Y3294357D01*
X7777685D01*
Y3293283D01*
X7778043D01*
Y3291850D01*
X7778401D01*
Y3290417D01*
X7778759D01*
Y3288626D01*
X7779118D01*
Y3287552D01*
X7779476D01*
Y3285761D01*
X7779834D01*
Y3284328D01*
X7780192D01*
Y3282537D01*
X7780550D01*
Y3280746D01*
X7780908D01*
Y3278955D01*
X7781267D01*
Y3276806D01*
X7781625D01*
Y3274657D01*
Y3274299D01*
X7781983D01*
Y3271433D01*
X7782341D01*
Y3268925D01*
X7782699D01*
Y3267134D01*
X7783058D01*
Y3265343D01*
X7783416D01*
Y3263911D01*
X7783774D01*
Y3262478D01*
X7784132D01*
Y3261045D01*
X7784490D01*
Y3259970D01*
X7784849D01*
Y3259254D01*
X7785207D01*
Y3258896D01*
X7785565D01*
Y3258179D01*
X7785923D01*
Y3257463D01*
X7786281D01*
Y3257105D01*
X7786640D01*
Y3256388D01*
X7786998D01*
Y3256030D01*
X7787356D01*
Y3255672D01*
X7787714D01*
Y3255314D01*
X7788073D01*
Y3254956D01*
X7788789D01*
Y3254598D01*
X7789505D01*
Y3254239D01*
X7793804D01*
Y3254598D01*
X7794878D01*
Y3254956D01*
X7795595D01*
Y3255314D01*
X7796669D01*
Y3255672D01*
X7797385D01*
Y3256030D01*
X7798460D01*
Y3256388D01*
X7798818D01*
Y3256747D01*
X7799535D01*
Y3257105D01*
X7800251D01*
Y3257463D01*
X7801326D01*
Y3257821D01*
X7802042D01*
Y3258179D01*
X7802759D01*
Y3258538D01*
X7803833D01*
Y3258896D01*
X7805266D01*
Y3259254D01*
X7806340D01*
Y3259612D01*
X7808490D01*
Y3259970D01*
X7811355D01*
Y3260329D01*
X7816728D01*
Y3259970D01*
X7819236D01*
Y3259612D01*
X7820668D01*
Y3259254D01*
X7822101D01*
Y3258896D01*
X7823176D01*
Y3258538D01*
X7823892D01*
Y3258179D01*
X7824609D01*
Y3257821D01*
X7825325D01*
Y3257463D01*
X7825683D01*
Y3257105D01*
X7826400D01*
Y3256747D01*
X7826758D01*
Y3256388D01*
X7827116D01*
Y3256030D01*
X7827832D01*
Y3255672D01*
X7828191D01*
Y3255314D01*
X7828549D01*
Y3254956D01*
X7828907D01*
Y3254239D01*
X7829265D01*
Y3253881D01*
X7829623D01*
Y3253523D01*
X7829982D01*
Y3252448D01*
X7830340D01*
Y3251732D01*
X7830698D01*
Y3251016D01*
X7831056D01*
Y3249941D01*
X7831414D01*
Y3248150D01*
X7831056D01*
Y3248508D01*
X7829982D01*
Y3248866D01*
X7829623D01*
Y3249225D01*
X7828907D01*
Y3249583D01*
X7828549D01*
Y3249941D01*
X7827832D01*
Y3250299D01*
X7827116D01*
Y3250657D01*
X7826758D01*
Y3251016D01*
X7826041D01*
Y3251374D01*
X7825325D01*
Y3251732D01*
X7824609D01*
Y3252090D01*
X7824251D01*
Y3252448D01*
X7823176D01*
Y3252807D01*
X7822459D01*
Y3253165D01*
X7821385D01*
Y3253523D01*
X7819952D01*
Y3253881D01*
X7818519D01*
Y3254239D01*
X7813863D01*
Y3253881D01*
X7812072D01*
Y3253523D01*
X7810997D01*
Y3253165D01*
X7809922D01*
Y3252807D01*
X7808848D01*
Y3252448D01*
X7808131D01*
Y3252090D01*
X7807057D01*
Y3251732D01*
X7806340D01*
Y3251374D01*
X7805624D01*
Y3251016D01*
X7804908D01*
Y3250657D01*
X7804191D01*
Y3250299D01*
X7803475D01*
Y3249941D01*
X7802400D01*
Y3249583D01*
X7801684D01*
Y3249225D01*
X7801326D01*
Y3248866D01*
X7800251D01*
Y3248508D01*
X7799177D01*
Y3248150D01*
X7798460D01*
Y3247792D01*
X7797385D01*
Y3247433D01*
X7796311D01*
Y3247075D01*
X7794878D01*
Y3246717D01*
X7792729D01*
Y3246359D01*
X7789864D01*
Y3246717D01*
X7788431D01*
Y3247075D01*
X7786998D01*
Y3247433D01*
X7786281D01*
Y3247792D01*
X7785565D01*
Y3248150D01*
X7785207D01*
Y3248508D01*
X7784490D01*
Y3248866D01*
X7784132D01*
Y3249225D01*
X7783416D01*
Y3249583D01*
X7783058D01*
Y3249941D01*
X7782699D01*
Y3250299D01*
X7782341D01*
Y3250657D01*
X7781983D01*
Y3251374D01*
X7781267D01*
Y3252090D01*
X7780908D01*
Y3252807D01*
X7780550D01*
Y3253165D01*
X7780192D01*
Y3253881D01*
X7779834D01*
Y3254239D01*
X7779476D01*
Y3255314D01*
X7779118D01*
Y3256030D01*
X7778759D01*
Y3257105D01*
X7778401D01*
Y3257821D01*
X7778043D01*
Y3259254D01*
X7777685D01*
Y3260329D01*
X7777327D01*
Y3261762D01*
X7776968D01*
Y3262836D01*
X7776610D01*
Y3264627D01*
X7776252D01*
Y3266418D01*
X7775894D01*
Y3268567D01*
X7775536D01*
Y3270358D01*
X7775177D01*
Y3272149D01*
X7774819D01*
Y3274299D01*
X7774461D01*
Y3275731D01*
X7774103D01*
Y3277164D01*
X7773744D01*
Y3278955D01*
X7773386D01*
Y3281104D01*
X7773028D01*
Y3282537D01*
X7772670D01*
Y3284328D01*
X7772312D01*
Y3285761D01*
X7771953D01*
Y3287552D01*
X7771595D01*
Y3288626D01*
X7771237D01*
Y3290417D01*
X7770879D01*
Y3292208D01*
X7770521D01*
Y3293283D01*
X7770163D01*
Y3294357D01*
X7769804D01*
Y3296148D01*
X7769446D01*
Y3297223D01*
X7769088D01*
Y3298656D01*
X7768730D01*
Y3299731D01*
X7768372D01*
Y3300805D01*
X7768013D01*
Y3301880D01*
X7767655D01*
Y3302954D01*
X7767297D01*
Y3304029D01*
X7766939D01*
Y3305103D01*
X7766581D01*
Y3305820D01*
X7766222D01*
Y3307253D01*
X7765864D01*
Y3307969D01*
X7765506D01*
Y3308685D01*
X7765148D01*
Y3309760D01*
X7764790D01*
Y3310476D01*
X7764431D01*
Y3311551D01*
X7764073D01*
Y3312267D01*
X7763715D01*
Y3312984D01*
X7763357D01*
Y3313700D01*
X7762999D01*
Y3314417D01*
X7762640D01*
Y3315133D01*
X7762282D01*
Y3315491D01*
X7761924D01*
Y3316207D01*
X7761566D01*
Y3316924D01*
X7761207D01*
Y3317282D01*
X7760849D01*
Y3317998D01*
X7760491D01*
Y3318715D01*
X7760133D01*
Y3319073D01*
X7759775D01*
Y3319789D01*
X7759417D01*
Y3320148D01*
X7759058D01*
Y3320864D01*
X7758700D01*
Y3321222D01*
X7758342D01*
Y3321939D01*
X7757984D01*
Y3322655D01*
X7757626D01*
Y3323013D01*
X7757267D01*
Y3323730D01*
X7756909D01*
Y3324088D01*
X7756551D01*
Y3324804D01*
X7756193D01*
Y3325521D01*
X7755835D01*
Y3325879D01*
X7755476D01*
Y3326595D01*
X7755118D01*
Y3326953D01*
X7754760D01*
Y3327670D01*
X7754402D01*
Y3328386D01*
X7754044D01*
Y3328744D01*
X7753686D01*
Y3329819D01*
X7753327D01*
Y3330535D01*
X7752969D01*
Y3330894D01*
X7752611D01*
Y3331968D01*
X7752253D01*
Y3332326D01*
X7753327D01*
Y3331968D01*
X7754402D01*
Y3331610D01*
X7755476D01*
Y3331252D01*
X7756551D01*
Y3330894D01*
X7757626D01*
Y3330535D01*
X7758700D01*
Y3330177D01*
X7759775D01*
Y3330894D01*
X7759417D01*
Y3331252D01*
X7759058D01*
Y3331610D01*
X7758700D01*
Y3332326D01*
X7758342D01*
Y3332685D01*
X7757984D01*
Y3333401D01*
X7757626D01*
Y3333759D01*
X7757267D01*
Y3334476D01*
X7756909D01*
Y3334834D01*
X7756551D01*
Y3335550D01*
X7756193D01*
Y3336267D01*
X7755835D01*
Y3336625D01*
X7755476D01*
Y3337341D01*
X7755118D01*
Y3338058D01*
X7754760D01*
Y3338774D01*
X7754402D01*
Y3339490D01*
X7754044D01*
Y3340207D01*
X7753686D01*
Y3341281D01*
X7753327D01*
Y3341998D01*
X7752969D01*
Y3343072D01*
X7752611D01*
Y3344505D01*
X7752253D01*
Y3345938D01*
X7751894D01*
Y3347013D01*
X7751536D01*
Y3348445D01*
X7751178D01*
Y3350236D01*
X7750820D01*
Y3353102D01*
X7750462D01*
Y3361699D01*
X7750820D01*
Y3364564D01*
X7751178D01*
Y3366713D01*
X7751536D01*
Y3368146D01*
X7751894D01*
Y3369221D01*
X7752253D01*
Y3370654D01*
X7752611D01*
Y3371728D01*
X7752969D01*
Y3372803D01*
X7753327D01*
Y3373877D01*
X7753686D01*
Y3374594D01*
X7754044D01*
Y3375668D01*
X7754402D01*
Y3376385D01*
X7754760D01*
Y3377459D01*
X7755118D01*
Y3377817D01*
X7755476D01*
Y3378892D01*
X7755835D01*
Y3379609D01*
X7756193D01*
Y3380325D01*
X7756551D01*
Y3380683D01*
X7756909D01*
Y3381400D01*
X7757267D01*
Y3382116D01*
X7757626D01*
Y3382832D01*
X7757984D01*
Y3383191D01*
X7758342D01*
Y3383907D01*
X7758700D01*
Y3384623D01*
X7759058D01*
Y3384982D01*
X7759417D01*
Y3385698D01*
X7759775D01*
Y3386056D01*
X7760133D01*
Y3386773D01*
X7760491D01*
Y3387489D01*
X7760849D01*
Y3387847D01*
X7761207D01*
Y3388563D01*
X7761566D01*
Y3388922D01*
X7761924D01*
Y3389638D01*
X7762282D01*
Y3389996D01*
X7762640D01*
Y3390354D01*
X7762999D01*
Y3391071D01*
X7763357D01*
Y3391429D01*
X7763715D01*
Y3391787D01*
X7764073D01*
Y3392504D01*
X7764431D01*
Y3392862D01*
X7764790D01*
Y3393220D01*
X7765148D01*
Y3393937D01*
X7765506D01*
Y3394295D01*
X7765864D01*
Y3394653D01*
X7766222D01*
Y3395369D01*
X7766581D01*
Y3395728D01*
X7766939D01*
Y3396086D01*
X7767297D01*
Y3396444D01*
X7767655D01*
Y3397160D01*
X7768013D01*
Y3397518D01*
X7768372D01*
Y3397877D01*
X7768730D01*
Y3398235D01*
X7769088D01*
Y3398593D01*
X7769446D01*
Y3398951D01*
X7769804D01*
Y3399668D01*
X7770163D01*
Y3400026D01*
X7770521D01*
Y3400384D01*
X7770879D01*
Y3400742D01*
X7771237D01*
Y3401100D01*
X7771595D01*
Y3401817D01*
X7771953D01*
Y3402175D01*
X7772312D01*
Y3402533D01*
X7772670D01*
Y3402891D01*
X7773028D01*
Y3403250D01*
X7773386D01*
Y3403608D01*
X7773744D01*
Y3403966D01*
X7774103D01*
Y3404324D01*
X7774461D01*
Y3404683D01*
X7774819D01*
Y3405399D01*
X7775536D01*
Y3406115D01*
X7775894D01*
Y3406474D01*
X7776252D01*
Y3406832D01*
X7776610D01*
Y3407190D01*
X7776968D01*
Y3407548D01*
X7777327D01*
Y3407906D01*
X7777685D01*
Y3408264D01*
X7778043D01*
Y3408981D01*
X7778401D01*
Y3409339D01*
X7778759D01*
Y3409697D01*
X7779118D01*
Y3410055D01*
X7779476D01*
Y3410414D01*
X7779834D01*
Y3410772D01*
X7780192D01*
Y3411130D01*
X7780550D01*
Y3411488D01*
X7780908D01*
Y3411846D01*
X7781267D01*
Y3412205D01*
X7781625D01*
Y3412563D01*
X7781983D01*
Y3412921D01*
X7782341D01*
Y3413279D01*
X7782699D01*
Y3413996D01*
X7783058D01*
Y3414354D01*
X7783416D01*
Y3414712D01*
X7783774D01*
Y3415070D01*
X7784132D01*
Y3415428D01*
X7784490D01*
Y3415787D01*
X7784849D01*
Y3416145D01*
X7785207D01*
Y3416503D01*
X7785565D01*
Y3416861D01*
X7785923D01*
Y3417219D01*
X7786281D01*
Y3417578D01*
X7786640D01*
Y3417936D01*
X7786998D01*
Y3418652D01*
X7787356D01*
Y3419010D01*
X7787714D01*
Y3419369D01*
X7788073D01*
Y3419727D01*
X7788431D01*
Y3420085D01*
X7788789D01*
Y3420443D01*
X7789147D01*
Y3420801D01*
X7789505D01*
Y3421160D01*
X7789864D01*
Y3421876D01*
X7790222D01*
Y3422234D01*
X7790580D01*
Y3422592D01*
X7790938D01*
Y3422950D01*
X7791296D01*
Y3423309D01*
X7791654D01*
Y3423667D01*
X7792013D01*
Y3424383D01*
X7792371D01*
Y3424741D01*
X7792729D01*
Y3425100D01*
X7793087D01*
Y3425458D01*
X7793445D01*
Y3426174D01*
X7793804D01*
Y3426533D01*
X7794162D01*
Y3426891D01*
X7794520D01*
Y3427249D01*
X7794878D01*
Y3427965D01*
X7795236D01*
Y3428324D01*
X7795595D01*
Y3429040D01*
X7796311D01*
Y3429756D01*
X7796669D01*
Y3430115D01*
X7797027D01*
Y3430831D01*
X7797385D01*
Y3431189D01*
X7797744D01*
Y3431547D01*
X7798102D01*
Y3432264D01*
X7798460D01*
Y3432980D01*
X7798818D01*
Y3433338D01*
X7799177D01*
Y3433696D01*
X7799535D01*
Y3434413D01*
X7799893D01*
Y3434771D01*
X7800251D01*
Y3435487D01*
X7800609D01*
Y3435846D01*
X7800968D01*
Y3436204D01*
X7801326D01*
Y3436920D01*
X7801684D01*
Y3437637D01*
X7802042D01*
Y3437995D01*
X7802400D01*
Y3438711D01*
X7802759D01*
Y3439069D01*
X7803117D01*
Y3439786D01*
X7803475D01*
Y3440144D01*
X7803833D01*
Y3440502D01*
X7804191D01*
Y3441219D01*
X7804550D01*
Y3441577D01*
X7804908D01*
Y3442293D01*
X7805266D01*
Y3442651D01*
X7805624D01*
Y3443368D01*
X7805982D01*
Y3443726D01*
X7806340D01*
Y3444442D01*
X7806699D01*
Y3444801D01*
X7807057D01*
Y3445517D01*
X7807773D01*
Y3446233D01*
X7808131D01*
Y3446950D01*
X7808490D01*
Y3447308D01*
X7808848D01*
Y3447666D01*
X7809206D01*
Y3448024D01*
X7809564D01*
Y3448382D01*
X7809922D01*
Y3449099D01*
X7810281D01*
Y3449457D01*
X7810639D01*
Y3449815D01*
X7810997D01*
Y3450532D01*
X7811355D01*
Y3450890D01*
X7811714D01*
Y3451248D01*
X7812072D01*
Y3451965D01*
X7812788D01*
Y3452681D01*
X7813146D01*
Y3453039D01*
X7813505D01*
Y3453397D01*
X7813863D01*
Y3453756D01*
X7814221D01*
Y3454114D01*
X7814579D01*
Y3454472D01*
X7814937D01*
Y3454830D01*
X7815296D01*
Y3455188D01*
X7815654D01*
Y3455547D01*
X7816012D01*
Y3455905D01*
X7816370D01*
Y3456263D01*
X7816728D01*
Y3456621D01*
X7817086D01*
Y3456979D01*
X7817803D01*
Y3457696D01*
X7818519D01*
Y3458054D01*
X7818877D01*
Y3458412D01*
X7819236D01*
Y3458770D01*
X7819952D01*
Y3459128D01*
X7820310D01*
Y3459487D01*
X7821027D01*
Y3459845D01*
X7821385D01*
Y3460203D01*
X7821743D01*
Y3458770D01*
D02*
G37*
G36*
X8008364Y3410772D02*
X8008006D01*
Y3408981D01*
X8007648D01*
Y3406832D01*
X8007290D01*
Y3404683D01*
X8006931D01*
Y3402175D01*
X8006573D01*
Y3399668D01*
X8006215D01*
Y3395369D01*
X8005857D01*
Y3386056D01*
X8006215D01*
Y3382474D01*
X8006573D01*
Y3380325D01*
X8006931D01*
Y3378534D01*
X8007290D01*
Y3377101D01*
X8007648D01*
Y3375668D01*
X8008006D01*
Y3374594D01*
X8008364D01*
Y3373519D01*
X8008722D01*
Y3372445D01*
X8009081D01*
Y3371728D01*
X8009439D01*
Y3370654D01*
X8009797D01*
Y3369579D01*
X8010155D01*
Y3368863D01*
X8010513D01*
Y3367788D01*
X8010871D01*
Y3367072D01*
X8011230D01*
Y3365997D01*
X8011588D01*
Y3365281D01*
X8011946D01*
Y3364564D01*
X8012304D01*
Y3363490D01*
X8012663D01*
Y3362773D01*
X8013021D01*
Y3362057D01*
X8013379D01*
Y3360982D01*
X8013737D01*
Y3360266D01*
X8014095D01*
Y3359191D01*
X8014454D01*
Y3358117D01*
X8014812D01*
Y3357400D01*
X8015170D01*
Y3356326D01*
X8015528D01*
Y3355251D01*
X8015886D01*
Y3354176D01*
X8016245D01*
Y3352744D01*
X8016603D01*
Y3351669D01*
X8016961D01*
Y3349878D01*
X8017319D01*
Y3348087D01*
X8017677D01*
Y3340207D01*
X8017319D01*
Y3338416D01*
X8016961D01*
Y3337341D01*
X8016603D01*
Y3335908D01*
X8016245D01*
Y3334834D01*
X8015886D01*
Y3334118D01*
X8015528D01*
Y3333401D01*
X8015170D01*
Y3332685D01*
X8014812D01*
Y3331968D01*
X8014454D01*
Y3331252D01*
X8014095D01*
Y3330535D01*
X8013737D01*
Y3330177D01*
X8013379D01*
Y3329461D01*
X8013021D01*
Y3329103D01*
X8012663D01*
Y3328744D01*
X8012304D01*
Y3328028D01*
X8011946D01*
Y3327670D01*
X8011588D01*
Y3327312D01*
X8011230D01*
Y3326595D01*
X8010513D01*
Y3325879D01*
X8010155D01*
Y3325521D01*
X8009797D01*
Y3325163D01*
X8009439D01*
Y3324804D01*
X8009081D01*
Y3324446D01*
X8008722D01*
Y3324088D01*
X8008364D01*
Y3323730D01*
X8008006D01*
Y3323372D01*
X8007648D01*
Y3323013D01*
X8007290D01*
Y3322655D01*
X8006931D01*
Y3322297D01*
X8006573D01*
Y3321939D01*
X8005857D01*
Y3321581D01*
X8005499D01*
Y3321222D01*
X8005140D01*
Y3320864D01*
X8004782D01*
Y3320506D01*
X8004066D01*
Y3320148D01*
X8003708D01*
Y3319789D01*
X8003350D01*
Y3319431D01*
X8002633D01*
Y3319073D01*
X8002275D01*
Y3318715D01*
X8001917D01*
Y3318357D01*
X8001200D01*
Y3317998D01*
X8000842D01*
Y3317640D01*
X8000126D01*
Y3317282D01*
X7999409D01*
Y3316924D01*
X7999051D01*
Y3316566D01*
X7998335D01*
Y3316207D01*
X7997618D01*
Y3315849D01*
X7996902D01*
Y3315491D01*
X7996544D01*
Y3315133D01*
X7995469D01*
Y3314775D01*
X7995111D01*
Y3314417D01*
X7994036D01*
Y3314058D01*
X7993320D01*
Y3313700D01*
X7992604D01*
Y3313342D01*
X7991887D01*
Y3312984D01*
X7990813D01*
Y3312626D01*
X7990096D01*
Y3312267D01*
X7989022D01*
Y3311909D01*
X7988305D01*
Y3311551D01*
X7987230D01*
Y3311193D01*
X7985798D01*
Y3310835D01*
X7984723D01*
Y3310476D01*
X7983648D01*
Y3310118D01*
X7981858D01*
Y3309760D01*
X7980425D01*
Y3309402D01*
X7978992D01*
Y3309044D01*
X7976485D01*
Y3308685D01*
X7973261D01*
Y3308327D01*
X7966455D01*
Y3308685D01*
X7963589D01*
Y3309044D01*
X7961798D01*
Y3309402D01*
X7960366D01*
Y3309760D01*
X7958933D01*
Y3310118D01*
X7957858D01*
Y3310476D01*
X7956784D01*
Y3310835D01*
X7956067D01*
Y3311193D01*
X7955351D01*
Y3311551D01*
X7954635D01*
Y3311909D01*
X7953918D01*
Y3312626D01*
X7954993D01*
Y3312984D01*
X7956067D01*
Y3313342D01*
X7958933D01*
Y3313700D01*
X7965739D01*
Y3314058D01*
X7969679D01*
Y3314417D01*
X7971828D01*
Y3314775D01*
X7973261D01*
Y3315133D01*
X7975052D01*
Y3315491D01*
X7976843D01*
Y3315849D01*
X7977917D01*
Y3316207D01*
X7979350D01*
Y3316566D01*
X7980783D01*
Y3316924D01*
X7981858D01*
Y3317282D01*
X7982932D01*
Y3317640D01*
X7984007D01*
Y3317998D01*
X7984723D01*
Y3318357D01*
X7986156D01*
Y3318715D01*
X7986872D01*
Y3319073D01*
X7987947D01*
Y3319431D01*
X7989022D01*
Y3319789D01*
X7989738D01*
Y3320148D01*
X7990454D01*
Y3320506D01*
X7991171D01*
Y3320864D01*
X7992245D01*
Y3321222D01*
X7992962D01*
Y3321581D01*
X7993320D01*
Y3321939D01*
X7994394D01*
Y3322297D01*
X7995111D01*
Y3322655D01*
X7995469D01*
Y3323013D01*
X7996185D01*
Y3323372D01*
X7996902D01*
Y3323730D01*
X7997260D01*
Y3324088D01*
X7997976D01*
Y3324446D01*
X7998335D01*
Y3324804D01*
X7999051D01*
Y3325163D01*
X7999767D01*
Y3325521D01*
X8000126D01*
Y3325879D01*
X8000484D01*
Y3326237D01*
X8001200D01*
Y3326595D01*
X8001559D01*
Y3326953D01*
X8001917D01*
Y3327312D01*
X8002633D01*
Y3327670D01*
X8002991D01*
Y3328028D01*
X8003350D01*
Y3328386D01*
X8003708D01*
Y3328744D01*
X8004066D01*
Y3329103D01*
X8004424D01*
Y3329461D01*
X8004782D01*
Y3329819D01*
X8005140D01*
Y3330177D01*
X8005499D01*
Y3330535D01*
X8005857D01*
Y3330894D01*
X8006215D01*
Y3331252D01*
X8006573D01*
Y3331968D01*
X8006931D01*
Y3332326D01*
X8007290D01*
Y3332685D01*
X8007648D01*
Y3333401D01*
X8008006D01*
Y3333759D01*
X8008364D01*
Y3334476D01*
X8008722D01*
Y3335192D01*
X8009081D01*
Y3335550D01*
X8009439D01*
Y3336625D01*
X8009797D01*
Y3337341D01*
X8010155D01*
Y3338416D01*
X8010513D01*
Y3339490D01*
X8010871D01*
Y3342356D01*
X8011230D01*
Y3343431D01*
X8010871D01*
Y3346654D01*
X8010513D01*
Y3348445D01*
X8010155D01*
Y3349878D01*
X8009797D01*
Y3350595D01*
X8009439D01*
Y3351669D01*
X8009081D01*
Y3352744D01*
X8008722D01*
Y3353460D01*
X8008364D01*
Y3354535D01*
X8008006D01*
Y3355251D01*
X8007648D01*
Y3355968D01*
X8007290D01*
Y3356684D01*
X8006931D01*
Y3357400D01*
X8006573D01*
Y3358117D01*
X8006215D01*
Y3358833D01*
X8005857D01*
Y3359550D01*
X8005499D01*
Y3360266D01*
X8005140D01*
Y3360982D01*
X8004782D01*
Y3361699D01*
X8004424D01*
Y3362415D01*
X8004066D01*
Y3363131D01*
X8003708D01*
Y3363848D01*
X8003350D01*
Y3364564D01*
X8002991D01*
Y3365281D01*
X8002633D01*
Y3365997D01*
X8002275D01*
Y3367072D01*
X8001917D01*
Y3367788D01*
X8001559D01*
Y3368863D01*
X8001200D01*
Y3369937D01*
X8000842D01*
Y3371012D01*
X8000484D01*
Y3372803D01*
X8000126D01*
Y3373877D01*
X7999767D01*
Y3375668D01*
X7999409D01*
Y3377459D01*
X7999051D01*
Y3380325D01*
X7998693D01*
Y3389996D01*
X7999051D01*
Y3392862D01*
X7999409D01*
Y3394653D01*
X7999767D01*
Y3396802D01*
X8000126D01*
Y3398593D01*
X8000484D01*
Y3400384D01*
X8000842D01*
Y3401459D01*
X8001200D01*
Y3402533D01*
X8001559D01*
Y3403966D01*
X8001917D01*
Y3405399D01*
X8002275D01*
Y3406115D01*
X8002633D01*
Y3407548D01*
X8002991D01*
Y3408981D01*
X8002633D01*
Y3408623D01*
X8002275D01*
Y3408264D01*
X8001917D01*
Y3407906D01*
X8001559D01*
Y3407548D01*
X8001200D01*
Y3407190D01*
X8000842D01*
Y3406832D01*
X8000484D01*
Y3406474D01*
X8000126D01*
Y3406115D01*
X7999767D01*
Y3405757D01*
X7999409D01*
Y3405399D01*
X7999051D01*
Y3405041D01*
X7998693D01*
Y3404683D01*
X7997976D01*
Y3404324D01*
X7997618D01*
Y3403966D01*
X7997260D01*
Y3403608D01*
X7996902D01*
Y3403250D01*
X7996544D01*
Y3402891D01*
X7996185D01*
Y3402533D01*
X7995827D01*
Y3402175D01*
X7995469D01*
Y3401817D01*
X7994753D01*
Y3401459D01*
X7994394D01*
Y3401100D01*
X7994036D01*
Y3400742D01*
X7993678D01*
Y3400384D01*
X7993320D01*
Y3400026D01*
X7992962D01*
Y3399668D01*
X7992604D01*
Y3399309D01*
X7991887D01*
Y3398951D01*
X7991529D01*
Y3398593D01*
X7991171D01*
Y3398235D01*
X7990454D01*
Y3397518D01*
X7989738D01*
Y3397160D01*
X7989380D01*
Y3396802D01*
X7989022D01*
Y3396444D01*
X7988663D01*
Y3396086D01*
X7987947D01*
Y3395728D01*
X7987589D01*
Y3395369D01*
X7987230D01*
Y3395011D01*
X7986872D01*
Y3394653D01*
X7986156D01*
Y3394295D01*
X7985798D01*
Y3393937D01*
X7985439D01*
Y3393578D01*
X7985081D01*
Y3393220D01*
X7984723D01*
Y3392862D01*
X7984365D01*
Y3392504D01*
X7983648D01*
Y3392146D01*
X7983290D01*
Y3391787D01*
X7982932D01*
Y3391429D01*
X7982574D01*
Y3391071D01*
X7982216D01*
Y3390713D01*
X7981499D01*
Y3390354D01*
X7981141D01*
Y3389996D01*
X7980783D01*
Y3389638D01*
X7980425D01*
Y3389280D01*
X7980067D01*
Y3388922D01*
X7979350D01*
Y3388563D01*
X7978992D01*
Y3388205D01*
X7978634D01*
Y3387847D01*
X7978276D01*
Y3387489D01*
X7977917D01*
Y3387131D01*
X7977559D01*
Y3386773D01*
X7976843D01*
Y3386056D01*
X7976126D01*
Y3385698D01*
X7975768D01*
Y3385340D01*
X7975410D01*
Y3384982D01*
X7975052D01*
Y3384623D01*
X7974693D01*
Y3384265D01*
X7974335D01*
Y3383907D01*
X7973977D01*
Y3383549D01*
X7973619D01*
Y3383191D01*
X7973261D01*
Y3382832D01*
X7972544D01*
Y3382474D01*
X7972186D01*
Y3382116D01*
X7971828D01*
Y3381758D01*
X7971470D01*
Y3381400D01*
X7971112D01*
Y3381041D01*
X7970753D01*
Y3380683D01*
X7970395D01*
Y3380325D01*
X7970037D01*
Y3379967D01*
X7969679D01*
Y3379609D01*
X7969321D01*
Y3379250D01*
X7968962D01*
Y3378892D01*
X7968604D01*
Y3378534D01*
X7968246D01*
Y3378176D01*
X7967888D01*
Y3377817D01*
X7967530D01*
Y3377459D01*
X7967172D01*
Y3377101D01*
X7966813D01*
Y3376743D01*
X7966455D01*
Y3376385D01*
X7966097D01*
Y3376027D01*
X7965739D01*
Y3375668D01*
X7965380D01*
Y3375310D01*
X7965022D01*
Y3374952D01*
X7964664D01*
Y3374236D01*
X7963948D01*
Y3373519D01*
X7963589D01*
Y3373161D01*
X7963231D01*
Y3372803D01*
X7962873D01*
Y3372445D01*
X7962515D01*
Y3372086D01*
X7962157D01*
Y3371728D01*
X7961798D01*
Y3371012D01*
X7961440D01*
Y3370654D01*
X7961082D01*
Y3370296D01*
X7960724D01*
Y3369937D01*
X7960366D01*
Y3369579D01*
X7960007D01*
Y3368863D01*
X7959649D01*
Y3368505D01*
X7959291D01*
Y3368146D01*
X7958933D01*
Y3367430D01*
X7958575D01*
Y3367072D01*
X7958216D01*
Y3366355D01*
X7957858D01*
Y3365997D01*
X7957500D01*
Y3365281D01*
X7957142D01*
Y3364922D01*
X7956784D01*
Y3364206D01*
X7956426D01*
Y3363848D01*
X7956067D01*
Y3363131D01*
X7955709D01*
Y3362773D01*
X7955351D01*
Y3362057D01*
X7954993D01*
Y3361340D01*
X7954635D01*
Y3360982D01*
X7954276D01*
Y3360266D01*
X7953918D01*
Y3359550D01*
X7953560D01*
Y3358833D01*
X7953202D01*
Y3358117D01*
X7952843D01*
Y3357400D01*
X7952485D01*
Y3356326D01*
X7952127D01*
Y3355609D01*
X7951769D01*
Y3354893D01*
X7951411D01*
Y3353818D01*
X7951052D01*
Y3352744D01*
X7950694D01*
Y3351669D01*
X7950336D01*
Y3350595D01*
X7949978D01*
Y3348804D01*
X7949620D01*
Y3347371D01*
X7949261D01*
Y3344863D01*
X7948903D01*
Y3319789D01*
X7948545D01*
Y3317282D01*
X7948187D01*
Y3315491D01*
X7947471D01*
Y3315849D01*
X7947112D01*
Y3316207D01*
X7946754D01*
Y3316566D01*
X7946396D01*
Y3316924D01*
X7946038D01*
Y3317282D01*
X7945680D01*
Y3317640D01*
X7945321D01*
Y3318357D01*
X7944963D01*
Y3318715D01*
X7944605D01*
Y3319431D01*
X7944247D01*
Y3319789D01*
X7943889D01*
Y3320148D01*
X7943530D01*
Y3320864D01*
X7943172D01*
Y3321581D01*
X7942814D01*
Y3322297D01*
X7942456D01*
Y3323013D01*
X7942098D01*
Y3323730D01*
X7941739D01*
Y3324446D01*
X7941381D01*
Y3325879D01*
X7941023D01*
Y3326595D01*
X7940665D01*
Y3328028D01*
X7940307D01*
Y3329819D01*
X7939948D01*
Y3333043D01*
X7939590D01*
Y3338058D01*
X7939948D01*
Y3341281D01*
X7940307D01*
Y3343789D01*
X7940665D01*
Y3345222D01*
X7941023D01*
Y3346654D01*
X7941381D01*
Y3347013D01*
Y3347371D01*
Y3348087D01*
X7941739D01*
Y3349520D01*
X7942098D01*
Y3350595D01*
X7942456D01*
Y3351669D01*
X7942814D01*
Y3352385D01*
X7943172D01*
Y3353460D01*
X7943530D01*
Y3354535D01*
X7943889D01*
Y3355251D01*
X7944247D01*
Y3355968D01*
X7944605D01*
Y3357042D01*
X7944963D01*
Y3357759D01*
X7945321D01*
Y3358475D01*
X7945680D01*
Y3359191D01*
X7946038D01*
Y3360266D01*
X7946396D01*
Y3360982D01*
X7946754D01*
Y3361340D01*
X7947112D01*
Y3362057D01*
X7947471D01*
Y3363131D01*
X7947829D01*
Y3363490D01*
X7948187D01*
Y3364206D01*
X7948545D01*
Y3364922D01*
X7948903D01*
Y3365281D01*
X7949261D01*
Y3365997D01*
X7949620D01*
Y3366713D01*
X7949978D01*
Y3367072D01*
X7950336D01*
Y3367788D01*
X7950694D01*
Y3368146D01*
X7951052D01*
Y3368863D01*
X7951411D01*
Y3369579D01*
X7951769D01*
Y3369937D01*
X7952127D01*
Y3370654D01*
X7952485D01*
Y3371012D01*
X7952843D01*
Y3371728D01*
X7953202D01*
Y3372086D01*
X7953560D01*
Y3372445D01*
X7953918D01*
Y3373161D01*
X7954276D01*
Y3373519D01*
X7954635D01*
Y3373877D01*
X7954993D01*
Y3374594D01*
X7955351D01*
Y3374952D01*
X7955709D01*
Y3375310D01*
X7956067D01*
Y3376027D01*
X7956426D01*
Y3376385D01*
X7956784D01*
Y3376743D01*
X7957142D01*
Y3377459D01*
X7957858D01*
Y3378176D01*
X7958216D01*
Y3378534D01*
X7958575D01*
Y3378892D01*
X7958933D01*
Y3379609D01*
X7959649D01*
Y3380325D01*
X7960007D01*
Y3380683D01*
X7960366D01*
Y3381041D01*
X7960724D01*
Y3381400D01*
X7961082D01*
Y3381758D01*
X7961440D01*
Y3382116D01*
X7961798D01*
Y3382474D01*
X7962157D01*
Y3382832D01*
X7962515D01*
Y3383191D01*
X7962873D01*
Y3383549D01*
X7963231D01*
Y3383907D01*
X7963589D01*
Y3384265D01*
X7963948D01*
Y3384623D01*
X7964664D01*
Y3384982D01*
X7965022D01*
Y3385340D01*
X7965380D01*
Y3385698D01*
X7965739D01*
Y3386056D01*
X7966097D01*
Y3386414D01*
X7966455D01*
Y3386773D01*
X7967172D01*
Y3387131D01*
X7967530D01*
Y3387489D01*
X7967888D01*
Y3387847D01*
X7968246D01*
Y3388205D01*
X7968962D01*
Y3388922D01*
X7969679D01*
Y3389280D01*
X7970037D01*
Y3389638D01*
X7970395D01*
Y3389996D01*
X7970753D01*
Y3390354D01*
X7971112D01*
Y3390713D01*
X7971828D01*
Y3391071D01*
X7972186D01*
Y3391429D01*
X7972544D01*
Y3391787D01*
X7973261D01*
Y3392146D01*
X7973619D01*
Y3392504D01*
X7973977D01*
Y3392862D01*
X7974693D01*
Y3393220D01*
X7975052D01*
Y3393578D01*
X7975410D01*
Y3393937D01*
X7975768D01*
Y3394295D01*
X7976126D01*
Y3394653D01*
X7976843D01*
Y3395011D01*
X7977201D01*
Y3395369D01*
X7977559D01*
Y3395728D01*
X7978276D01*
Y3396086D01*
X7978634D01*
Y3396444D01*
X7978992D01*
Y3396802D01*
X7979708D01*
Y3397160D01*
X7980067D01*
Y3397518D01*
X7980425D01*
Y3397877D01*
X7981141D01*
Y3398235D01*
X7981499D01*
Y3398593D01*
X7981858D01*
Y3398951D01*
X7982574D01*
Y3399309D01*
X7982932D01*
Y3399668D01*
X7983290D01*
Y3400026D01*
X7983648D01*
Y3400384D01*
X7984365D01*
Y3400742D01*
X7984723D01*
Y3401100D01*
X7985439D01*
Y3401459D01*
X7985798D01*
Y3401817D01*
X7986156D01*
Y3402175D01*
X7986514D01*
Y3402533D01*
X7987230D01*
Y3402891D01*
X7987589D01*
Y3403250D01*
X7988305D01*
Y3403608D01*
X7988663D01*
Y3403966D01*
X7989022D01*
Y3404324D01*
X7989738D01*
Y3404683D01*
X7990454D01*
Y3405041D01*
X7990813D01*
Y3405399D01*
X7991529D01*
Y3405757D01*
X7992245D01*
Y3406115D01*
X7992604D01*
Y3406474D01*
X7993320D01*
Y3406832D01*
X7994036D01*
Y3407190D01*
X7995111D01*
Y3407548D01*
X7995827D01*
Y3407906D01*
X7996902D01*
Y3408264D01*
X7997618D01*
Y3408623D01*
X7999051D01*
Y3408981D01*
X8001200D01*
Y3409339D01*
X8004782D01*
Y3409697D01*
X8005140D01*
Y3410414D01*
X8005499D01*
Y3410772D01*
X8005857D01*
Y3411488D01*
X8006215D01*
Y3411846D01*
X8006931D01*
Y3412205D01*
X8007290D01*
Y3412563D01*
X8007648D01*
Y3412921D01*
X8008364D01*
Y3410772D01*
D02*
G37*
G36*
X7843593Y3443368D02*
X7843951D01*
Y3443010D01*
X7844309D01*
Y3442651D01*
X7844668D01*
Y3442293D01*
X7845026D01*
Y3441935D01*
X7845384D01*
Y3441577D01*
X7845742D01*
Y3441219D01*
X7846100D01*
Y3440861D01*
X7846459D01*
Y3440502D01*
X7847175D01*
Y3439786D01*
X7847892D01*
Y3439428D01*
X7848250D01*
Y3439069D01*
X7848608D01*
Y3438711D01*
X7848966D01*
Y3438353D01*
X7849324D01*
Y3437995D01*
X7849683D01*
Y3437637D01*
X7850399D01*
Y3436920D01*
X7851115D01*
Y3436562D01*
X7851474D01*
Y3436204D01*
X7851832D01*
Y3435846D01*
X7852190D01*
Y3435487D01*
X7852906D01*
Y3434771D01*
X7853623D01*
Y3434413D01*
X7853981D01*
Y3434055D01*
X7854339D01*
Y3433696D01*
X7854697D01*
Y3433338D01*
X7855414D01*
Y3432980D01*
X7855772D01*
Y3432622D01*
X7856130D01*
Y3432264D01*
X7856488D01*
Y3431906D01*
X7857205D01*
Y3431547D01*
X7857563D01*
Y3431189D01*
X7857921D01*
Y3430831D01*
X7858637D01*
Y3430115D01*
X7859354D01*
Y3429756D01*
X7859712D01*
Y3429398D01*
X7860070D01*
Y3429040D01*
X7860787D01*
Y3428682D01*
X7861145D01*
Y3428324D01*
X7861503D01*
Y3427965D01*
X7861861D01*
Y3427607D01*
X7862578D01*
Y3427249D01*
X7862936D01*
Y3426891D01*
X7863294D01*
Y3426533D01*
X7863652D01*
Y3426174D01*
X7864369D01*
Y3425816D01*
X7864727D01*
Y3425458D01*
X7865443D01*
Y3425100D01*
X7865801D01*
Y3424741D01*
X7866160D01*
Y3424383D01*
X7866518D01*
Y3424025D01*
X7867234D01*
Y3423667D01*
X7867592D01*
Y3423309D01*
X7868309D01*
Y3422950D01*
X7868667D01*
Y3422592D01*
X7869025D01*
Y3422234D01*
X7869383D01*
Y3421876D01*
X7870100D01*
Y3421518D01*
X7870458D01*
Y3421160D01*
X7870816D01*
Y3420801D01*
X7871533D01*
Y3420443D01*
X7871891D01*
Y3420085D01*
X7872249D01*
Y3419727D01*
X7872965D01*
Y3419369D01*
X7873324D01*
Y3419010D01*
X7873682D01*
Y3418652D01*
X7874398D01*
Y3418294D01*
X7874756D01*
Y3417936D01*
X7875115D01*
Y3417578D01*
X7875831D01*
Y3417219D01*
X7876189D01*
Y3416861D01*
X7876547D01*
Y3416503D01*
X7876906D01*
Y3416145D01*
X7877622D01*
Y3415787D01*
X7877980D01*
Y3415428D01*
X7878338D01*
Y3415070D01*
X7879055D01*
Y3414712D01*
X7879413D01*
Y3414354D01*
X7879771D01*
Y3413996D01*
X7880487D01*
Y3413637D01*
X7880846D01*
Y3413279D01*
X7881562D01*
Y3412921D01*
X7881920D01*
Y3412563D01*
X7882279D01*
Y3412205D01*
X7882637D01*
Y3411846D01*
X7883353D01*
Y3411488D01*
X7883711D01*
Y3411130D01*
X7884070D01*
Y3410772D01*
X7884428D01*
Y3410414D01*
X7885144D01*
Y3410055D01*
X7885502D01*
Y3409697D01*
X7885861D01*
Y3409339D01*
X7886219D01*
Y3408981D01*
X7886935D01*
Y3408623D01*
X7887293D01*
Y3408264D01*
X7887651D01*
Y3407906D01*
X7888368D01*
Y3407548D01*
X7888726D01*
Y3407190D01*
X7889084D01*
Y3406832D01*
X7889442D01*
Y3406474D01*
X7890159D01*
Y3406115D01*
X7890517D01*
Y3405757D01*
X7890875D01*
Y3405399D01*
X7891233D01*
Y3405041D01*
X7891592D01*
Y3404683D01*
X7892308D01*
Y3404324D01*
X7892666D01*
Y3403966D01*
X7893024D01*
Y3403608D01*
X7893383D01*
Y3403250D01*
X7894099D01*
Y3402891D01*
X7894457D01*
Y3402533D01*
X7894816D01*
Y3402175D01*
X7895174D01*
Y3401817D01*
X7895532D01*
Y3401459D01*
X7895890D01*
Y3401100D01*
X7896607D01*
Y3400742D01*
X7896965D01*
Y3400384D01*
X7897323D01*
Y3400026D01*
X7897681D01*
Y3399668D01*
X7898039D01*
Y3399309D01*
X7898756D01*
Y3398951D01*
X7899114D01*
Y3398593D01*
X7899472D01*
Y3398235D01*
X7899830D01*
Y3397877D01*
X7900188D01*
Y3397518D01*
X7900547D01*
Y3397160D01*
X7900905D01*
Y3396802D01*
X7901263D01*
Y3396444D01*
X7901621D01*
Y3396086D01*
X7901979D01*
Y3395728D01*
X7902338D01*
Y3395369D01*
X7903054D01*
Y3394653D01*
X7903770D01*
Y3393937D01*
X7904487D01*
Y3393578D01*
X7904845D01*
Y3393220D01*
X7905203D01*
Y3392862D01*
X7905561D01*
Y3392504D01*
X7905920D01*
Y3392146D01*
X7906278D01*
Y3391787D01*
X7906636D01*
Y3391429D01*
X7906994D01*
Y3391071D01*
X7907352D01*
Y3390713D01*
X7907711D01*
Y3390354D01*
X7908069D01*
Y3389996D01*
X7908427D01*
Y3389638D01*
X7908785D01*
Y3388922D01*
X7909502D01*
Y3388205D01*
X7910218D01*
Y3387489D01*
X7910576D01*
Y3387131D01*
X7910934D01*
Y3386773D01*
X7911293D01*
Y3386056D01*
X7912009D01*
Y3385340D01*
X7912367D01*
Y3384982D01*
X7912725D01*
Y3384623D01*
X7913083D01*
Y3384265D01*
X7913442D01*
Y3383907D01*
X7913800D01*
Y3383191D01*
X7914158D01*
Y3382832D01*
X7914516D01*
Y3382474D01*
X7914874D01*
Y3382116D01*
X7915233D01*
Y3381400D01*
X7915591D01*
Y3381041D01*
X7915949D01*
Y3380683D01*
X7916307D01*
Y3380325D01*
X7916665D01*
Y3379609D01*
X7917024D01*
Y3379250D01*
X7917382D01*
Y3378892D01*
X7917740D01*
Y3378176D01*
X7918098D01*
Y3377817D01*
X7918457D01*
Y3377459D01*
X7918815D01*
Y3376743D01*
X7919173D01*
Y3376385D01*
X7919531D01*
Y3375668D01*
X7919889D01*
Y3375310D01*
X7920248D01*
Y3374594D01*
X7920606D01*
Y3373877D01*
X7920964D01*
Y3373519D01*
X7921322D01*
Y3372803D01*
X7921680D01*
Y3372445D01*
X7922039D01*
Y3371728D01*
X7922397D01*
Y3371012D01*
X7922755D01*
Y3370296D01*
X7923113D01*
Y3369579D01*
X7923471D01*
Y3368863D01*
X7923829D01*
Y3368146D01*
X7924188D01*
Y3367430D01*
X7924546D01*
Y3366355D01*
X7924904D01*
Y3365639D01*
X7925262D01*
Y3364564D01*
X7925620D01*
Y3363848D01*
X7925979D01*
Y3363131D01*
X7926337D01*
Y3361699D01*
X7926695D01*
Y3360266D01*
X7927053D01*
Y3359191D01*
X7927411D01*
Y3357759D01*
X7927770D01*
Y3356326D01*
X7928128D01*
Y3354535D01*
X7928486D01*
Y3351669D01*
X7928844D01*
Y3348087D01*
X7929202D01*
Y3343072D01*
X7928844D01*
Y3338774D01*
X7928486D01*
Y3336267D01*
X7928128D01*
Y3334476D01*
X7927770D01*
Y3333043D01*
X7927411D01*
Y3331610D01*
X7927053D01*
Y3330177D01*
X7926695D01*
Y3329103D01*
X7926337D01*
Y3328028D01*
X7925979D01*
Y3327312D01*
X7925620D01*
Y3326237D01*
X7925262D01*
Y3325163D01*
X7924904D01*
Y3324446D01*
X7924546D01*
Y3323730D01*
X7924188D01*
Y3323013D01*
X7923829D01*
Y3322297D01*
X7923471D01*
Y3321581D01*
X7923113D01*
Y3320864D01*
X7922755D01*
Y3320148D01*
X7922397D01*
Y3319789D01*
X7922039D01*
Y3319073D01*
X7921680D01*
Y3318357D01*
X7921322D01*
Y3317998D01*
X7920964D01*
Y3317282D01*
X7920606D01*
Y3316924D01*
X7920248D01*
Y3316207D01*
X7919889D01*
Y3315849D01*
X7919531D01*
Y3315491D01*
X7919173D01*
Y3315133D01*
X7918815D01*
Y3314417D01*
X7918457D01*
Y3314058D01*
X7918098D01*
Y3313700D01*
X7917740D01*
Y3312984D01*
X7917382D01*
Y3312626D01*
X7917024D01*
Y3312267D01*
X7916665D01*
Y3311909D01*
X7916307D01*
Y3311551D01*
X7915949D01*
Y3310835D01*
X7915233D01*
Y3310476D01*
X7914874D01*
Y3310118D01*
X7914516D01*
Y3309402D01*
X7913800D01*
Y3308685D01*
X7913083D01*
Y3308327D01*
X7912725D01*
Y3307969D01*
X7912367D01*
Y3307611D01*
X7912009D01*
Y3307253D01*
X7911651D01*
Y3306894D01*
X7910934D01*
Y3306536D01*
X7910576D01*
Y3306178D01*
X7910218D01*
Y3305820D01*
X7909860D01*
Y3305462D01*
X7909502D01*
Y3305103D01*
X7908785D01*
Y3304745D01*
X7908427D01*
Y3304387D01*
X7908069D01*
Y3305103D01*
X7908427D01*
Y3305820D01*
X7908785D01*
Y3306894D01*
X7909143D01*
Y3307611D01*
X7909502D01*
Y3308327D01*
X7909860D01*
Y3309044D01*
X7910218D01*
Y3309760D01*
X7910576D01*
Y3310476D01*
X7910934D01*
Y3311193D01*
X7911293D01*
Y3311909D01*
X7911651D01*
Y3312267D01*
X7912009D01*
Y3312984D01*
X7912367D01*
Y3313700D01*
X7912725D01*
Y3314417D01*
X7913083D01*
Y3315133D01*
X7913442D01*
Y3315491D01*
X7913800D01*
Y3316207D01*
X7914158D01*
Y3316566D01*
X7914516D01*
Y3317282D01*
X7914874D01*
Y3317998D01*
X7915233D01*
Y3318715D01*
X7915591D01*
Y3319431D01*
X7915949D01*
Y3320148D01*
X7916307D01*
Y3320506D01*
X7916665D01*
Y3321222D01*
X7917024D01*
Y3321939D01*
X7917382D01*
Y3322655D01*
X7917740D01*
Y3323372D01*
X7918098D01*
Y3324088D01*
X7918457D01*
Y3324446D01*
X7918815D01*
Y3325521D01*
X7919173D01*
Y3325879D01*
X7919531D01*
Y3326953D01*
X7919889D01*
Y3327670D01*
X7920248D01*
Y3328744D01*
X7920606D01*
Y3329461D01*
X7920964D01*
Y3330535D01*
X7921322D01*
Y3331610D01*
X7921680D01*
Y3332685D01*
X7922039D01*
Y3334476D01*
X7922397D01*
Y3335908D01*
X7922755D01*
Y3337341D01*
X7923113D01*
Y3342356D01*
X7923471D01*
Y3344863D01*
X7923113D01*
Y3349162D01*
X7922755D01*
Y3351669D01*
X7922397D01*
Y3353102D01*
X7922039D01*
Y3354535D01*
X7921680D01*
Y3355968D01*
X7921322D01*
Y3357400D01*
X7920964D01*
Y3358117D01*
X7920606D01*
Y3359191D01*
X7920248D01*
Y3360266D01*
X7919889D01*
Y3360982D01*
X7919531D01*
Y3362057D01*
X7919173D01*
Y3362773D01*
X7918815D01*
Y3363490D01*
X7918457D01*
Y3364206D01*
X7918098D01*
Y3364922D01*
X7917740D01*
Y3365997D01*
X7917382D01*
Y3366355D01*
X7917024D01*
Y3367072D01*
X7916665D01*
Y3367788D01*
X7916307D01*
Y3368146D01*
X7915949D01*
Y3368863D01*
X7915591D01*
Y3369579D01*
X7915233D01*
Y3370296D01*
X7914874D01*
Y3370654D01*
X7914516D01*
Y3371370D01*
X7914158D01*
Y3371728D01*
X7913800D01*
Y3372445D01*
X7913442D01*
Y3373161D01*
X7913083D01*
Y3373519D01*
X7912725D01*
Y3373877D01*
X7912367D01*
Y3374594D01*
X7912009D01*
Y3374952D01*
X7911651D01*
Y3375668D01*
X7911293D01*
Y3376027D01*
X7910934D01*
Y3376385D01*
X7910576D01*
Y3376743D01*
X7910218D01*
Y3377459D01*
X7909860D01*
Y3377817D01*
X7909502D01*
Y3378176D01*
X7909143D01*
Y3378892D01*
X7908785D01*
Y3379250D01*
X7908427D01*
Y3379609D01*
X7908069D01*
Y3379967D01*
X7907711D01*
Y3380325D01*
X7907352D01*
Y3381041D01*
X7906636D01*
Y3381758D01*
X7906278D01*
Y3382116D01*
X7905920D01*
Y3382474D01*
X7905561D01*
Y3382832D01*
X7905203D01*
Y3383191D01*
X7904845D01*
Y3383549D01*
X7904487D01*
Y3383907D01*
X7904128D01*
Y3384265D01*
X7903770D01*
Y3384623D01*
X7903412D01*
Y3384982D01*
X7903054D01*
Y3385340D01*
X7902696D01*
Y3385698D01*
X7902338D01*
Y3386056D01*
X7901979D01*
Y3386414D01*
X7901621D01*
Y3386773D01*
X7901263D01*
Y3387131D01*
X7900905D01*
Y3387489D01*
X7900547D01*
Y3387847D01*
X7900188D01*
Y3388205D01*
X7899472D01*
Y3388922D01*
X7898756D01*
Y3389280D01*
X7898397D01*
Y3389638D01*
X7898039D01*
Y3389996D01*
X7897681D01*
Y3390354D01*
X7897323D01*
Y3390713D01*
X7896607D01*
Y3391429D01*
X7895890D01*
Y3391787D01*
X7895532D01*
Y3392146D01*
X7895174D01*
Y3392504D01*
X7894816D01*
Y3392862D01*
X7894457D01*
Y3393220D01*
X7893741D01*
Y3393578D01*
X7893383D01*
Y3393937D01*
X7893024D01*
Y3394295D01*
X7892666D01*
Y3394653D01*
X7891950D01*
Y3395011D01*
X7891592D01*
Y3395369D01*
X7891233D01*
Y3395728D01*
X7890875D01*
Y3396086D01*
X7890159D01*
Y3396444D01*
X7889801D01*
Y3396802D01*
X7889442D01*
Y3397160D01*
X7889084D01*
Y3397518D01*
X7888368D01*
Y3397877D01*
X7888010D01*
Y3398235D01*
X7887651D01*
Y3398593D01*
X7887293D01*
Y3398951D01*
X7886577D01*
Y3399309D01*
X7886219D01*
Y3399668D01*
X7885861D01*
Y3400026D01*
X7885144D01*
Y3400384D01*
X7884428D01*
Y3401100D01*
X7883711D01*
Y3401459D01*
X7883353D01*
Y3401817D01*
X7882637D01*
Y3402175D01*
X7882279D01*
Y3402533D01*
X7881920D01*
Y3402891D01*
X7881204D01*
Y3403250D01*
X7880487D01*
Y3403966D01*
X7879771D01*
Y3404324D01*
X7879413D01*
Y3404683D01*
X7878696D01*
Y3405041D01*
X7878338D01*
Y3405399D01*
X7877980D01*
Y3405757D01*
X7877264D01*
Y3406115D01*
X7876547D01*
Y3406832D01*
X7875831D01*
Y3407190D01*
X7875473D01*
Y3407548D01*
X7874756D01*
Y3407906D01*
X7874398D01*
Y3408264D01*
X7874040D01*
Y3408623D01*
X7873324D01*
Y3408981D01*
X7872965D01*
Y3409339D01*
X7872249D01*
Y3409697D01*
X7871891D01*
Y3410055D01*
X7871533D01*
Y3410414D01*
X7870816D01*
Y3410772D01*
X7870458D01*
Y3411130D01*
X7870100D01*
Y3411488D01*
X7869383D01*
Y3411846D01*
X7869025D01*
Y3412205D01*
X7868667D01*
Y3412563D01*
X7867950D01*
Y3412921D01*
X7867592D01*
Y3413279D01*
X7867234D01*
Y3413637D01*
X7866518D01*
Y3413996D01*
X7866160D01*
Y3414354D01*
X7865801D01*
Y3414712D01*
X7865085D01*
Y3415070D01*
X7864727D01*
Y3415428D01*
X7864369D01*
Y3415787D01*
X7863652D01*
Y3416145D01*
X7863294D01*
Y3416503D01*
X7862936D01*
Y3416861D01*
X7862219D01*
Y3417219D01*
X7861861D01*
Y3417578D01*
X7861503D01*
Y3417936D01*
X7861145D01*
Y3418294D01*
X7860429D01*
Y3418652D01*
X7860070D01*
Y3419010D01*
X7859712D01*
Y3419369D01*
X7859354D01*
Y3419727D01*
X7858637D01*
Y3420443D01*
X7857921D01*
Y3420801D01*
X7857563D01*
Y3421160D01*
X7857205D01*
Y3421518D01*
X7856846D01*
Y3421876D01*
X7856130D01*
Y3422234D01*
X7855772D01*
Y3422592D01*
X7855414D01*
Y3422950D01*
X7855055D01*
Y3423309D01*
X7854697D01*
Y3423667D01*
X7854339D01*
Y3424025D01*
X7853623D01*
Y3424741D01*
X7852906D01*
Y3425100D01*
X7852548D01*
Y3425458D01*
X7852190D01*
Y3425816D01*
X7851832D01*
Y3426174D01*
X7851474D01*
Y3426533D01*
X7851115D01*
Y3426891D01*
X7850757D01*
Y3427249D01*
X7850399D01*
Y3427607D01*
X7850041D01*
Y3427965D01*
X7849683D01*
Y3428324D01*
X7849324D01*
Y3428682D01*
X7848966D01*
Y3429040D01*
X7848608D01*
Y3429398D01*
X7848250D01*
Y3429756D01*
X7847892D01*
Y3430115D01*
X7847533D01*
Y3430473D01*
X7847175D01*
Y3431189D01*
X7846817D01*
Y3431547D01*
X7846459D01*
Y3431906D01*
X7846100D01*
Y3432622D01*
X7845742D01*
Y3432980D01*
X7845384D01*
Y3433338D01*
X7845026D01*
Y3434055D01*
X7844668D01*
Y3434413D01*
X7844309D01*
Y3435129D01*
X7843951D01*
Y3435846D01*
X7843593D01*
Y3436920D01*
X7843235D01*
Y3437637D01*
X7842877D01*
Y3439069D01*
X7842518D01*
Y3443368D01*
X7842877D01*
Y3443726D01*
X7843593D01*
Y3443368D01*
D02*
G37*
G36*
X10172958Y3068950D02*
X10095000D01*
Y3167500D01*
X10002333D01*
Y3136611D01*
Y3135140D01*
Y3068950D01*
X9924376D01*
Y3327828D01*
X10002333D01*
Y3236632D01*
X10003804D01*
Y3235161D01*
X10093529D01*
Y3236632D01*
X10095000D01*
Y3327828D01*
X10172958D01*
Y3068950D01*
D02*
G37*
G36*
X7815654Y3248508D02*
X7817445D01*
Y3248150D01*
X7818519D01*
Y3247792D01*
X7819236D01*
Y3247433D01*
X7819952D01*
Y3247075D01*
X7820668D01*
Y3246717D01*
X7821385D01*
Y3246359D01*
X7821743D01*
Y3246001D01*
X7822101D01*
Y3245642D01*
X7822818D01*
Y3245284D01*
X7823176D01*
Y3244926D01*
X7823892D01*
Y3244568D01*
X7824251D01*
Y3243852D01*
X7824967D01*
Y3243493D01*
X7825325D01*
Y3242777D01*
X7825683D01*
Y3242419D01*
X7826041D01*
Y3242061D01*
X7826400D01*
Y3241344D01*
X7826758D01*
Y3240986D01*
X7827116D01*
Y3240270D01*
X7827474D01*
Y3239553D01*
X7827832D01*
Y3238837D01*
X7828191D01*
Y3238120D01*
X7828549D01*
Y3237046D01*
X7828907D01*
Y3236329D01*
X7829265D01*
Y3235255D01*
X7829623D01*
Y3234180D01*
X7829982D01*
Y3232389D01*
X7830340D01*
Y3230598D01*
X7830698D01*
Y3227733D01*
X7831056D01*
Y3218778D01*
X7830698D01*
Y3216270D01*
X7830340D01*
Y3214479D01*
X7829982D01*
Y3212688D01*
X7829623D01*
Y3211255D01*
X7829265D01*
Y3210181D01*
X7828907D01*
Y3208390D01*
X7828191D01*
Y3209464D01*
X7827832D01*
Y3210539D01*
X7827474D01*
Y3211972D01*
X7827116D01*
Y3213405D01*
X7826758D01*
Y3215554D01*
X7826400D01*
Y3218420D01*
X7826041D01*
Y3221285D01*
X7825683D01*
Y3224509D01*
X7825325D01*
Y3227016D01*
X7824967D01*
Y3228807D01*
X7824609D01*
Y3230598D01*
X7824251D01*
Y3231673D01*
X7823892D01*
Y3232747D01*
X7823534D01*
Y3233822D01*
X7823176D01*
Y3234538D01*
X7822818D01*
Y3235255D01*
X7822459D01*
Y3235971D01*
X7822101D01*
Y3236329D01*
X7821743D01*
Y3237046D01*
X7821385D01*
Y3237404D01*
X7821027D01*
Y3237762D01*
X7820668D01*
Y3238120D01*
X7820310D01*
Y3238479D01*
X7819952D01*
Y3238837D01*
X7819594D01*
Y3239195D01*
X7819236D01*
Y3239553D01*
X7818877D01*
Y3239911D01*
X7818519D01*
Y3240270D01*
X7817803D01*
Y3240628D01*
X7817086D01*
Y3240986D01*
X7816728D01*
Y3241344D01*
X7815654D01*
Y3241702D01*
X7814937D01*
Y3242061D01*
X7813505D01*
Y3242419D01*
X7809564D01*
Y3242061D01*
X7808131D01*
Y3241702D01*
X7807057D01*
Y3241344D01*
X7806340D01*
Y3240986D01*
X7805624D01*
Y3240628D01*
X7804908D01*
Y3240270D01*
X7804191D01*
Y3239911D01*
X7803475D01*
Y3239553D01*
X7803117D01*
Y3239195D01*
X7802759D01*
Y3238837D01*
X7802042D01*
Y3238479D01*
X7801684D01*
Y3238120D01*
X7801326D01*
Y3237762D01*
X7800968D01*
Y3237404D01*
X7800609D01*
Y3237046D01*
X7799893D01*
Y3236329D01*
X7799177D01*
Y3235613D01*
X7798460D01*
Y3234897D01*
X7797744D01*
Y3234180D01*
X7797385D01*
Y3233822D01*
X7797027D01*
Y3233464D01*
X7796669D01*
Y3233106D01*
X7796311D01*
Y3232747D01*
X7795953D01*
Y3232389D01*
X7795595D01*
Y3231673D01*
X7795236D01*
Y3231315D01*
X7794878D01*
Y3230598D01*
X7794520D01*
Y3230240D01*
X7794162D01*
Y3229882D01*
X7793804D01*
Y3229165D01*
X7793445D01*
Y3228807D01*
X7793087D01*
Y3228449D01*
X7792729D01*
Y3227733D01*
X7792371D01*
Y3227016D01*
X7792013D01*
Y3226658D01*
X7791654D01*
Y3225942D01*
X7791296D01*
Y3225583D01*
X7790938D01*
Y3224867D01*
X7790580D01*
Y3224151D01*
X7790222D01*
Y3223434D01*
X7789864D01*
Y3222718D01*
X7789505D01*
Y3222001D01*
X7789147D01*
Y3221643D01*
X7788789D01*
Y3220927D01*
X7788431D01*
Y3219852D01*
X7788073D01*
Y3219136D01*
X7787714D01*
Y3218420D01*
X7787356D01*
Y3217703D01*
X7786998D01*
Y3216987D01*
X7786640D01*
Y3215554D01*
X7786281D01*
Y3214121D01*
X7785923D01*
Y3209823D01*
X7786281D01*
Y3208390D01*
X7786640D01*
Y3208032D01*
X7786998D01*
Y3207315D01*
X7787714D01*
Y3206957D01*
X7788073D01*
Y3206599D01*
X7788431D01*
Y3206241D01*
X7789147D01*
Y3205883D01*
X7793445D01*
Y3206241D01*
X7794520D01*
Y3206599D01*
X7795595D01*
Y3206957D01*
X7796669D01*
Y3207315D01*
X7797385D01*
Y3207674D01*
X7798460D01*
Y3208032D01*
X7799177D01*
Y3208390D01*
X7799893D01*
Y3208748D01*
X7800609D01*
Y3209106D01*
X7801684D01*
Y3209464D01*
X7802759D01*
Y3209823D01*
X7804191D01*
Y3210181D01*
X7811714D01*
Y3209823D01*
X7813146D01*
Y3209464D01*
X7814221D01*
Y3209106D01*
X7814937D01*
Y3208748D01*
X7815654D01*
Y3208390D01*
X7816370D01*
Y3208032D01*
X7816728D01*
Y3207674D01*
X7817445D01*
Y3207315D01*
X7817803D01*
Y3206957D01*
X7818519D01*
Y3206599D01*
X7818877D01*
Y3206241D01*
X7819236D01*
Y3205883D01*
X7819594D01*
Y3205524D01*
X7819952D01*
Y3205166D01*
X7820310D01*
Y3204808D01*
X7820668D01*
Y3204092D01*
X7821027D01*
Y3203733D01*
X7821385D01*
Y3203017D01*
X7821743D01*
Y3202659D01*
X7822101D01*
Y3201942D01*
X7822459D01*
Y3201226D01*
X7822818D01*
Y3200510D01*
X7823176D01*
Y3199793D01*
X7823534D01*
Y3198360D01*
X7823892D01*
Y3196928D01*
X7824251D01*
Y3194778D01*
X7824609D01*
Y3193346D01*
X7824251D01*
Y3193704D01*
X7823892D01*
Y3194062D01*
X7823534D01*
Y3194420D01*
X7823176D01*
Y3194778D01*
X7822818D01*
Y3195137D01*
X7822459D01*
Y3195495D01*
X7822101D01*
Y3195853D01*
X7821743D01*
Y3196211D01*
X7821385D01*
Y3196569D01*
X7821027D01*
Y3196928D01*
X7820668D01*
Y3197286D01*
X7820310D01*
Y3197644D01*
X7819952D01*
Y3198002D01*
X7819594D01*
Y3198360D01*
X7819236D01*
Y3198719D01*
X7818877D01*
Y3199077D01*
X7818519D01*
Y3199435D01*
X7818161D01*
Y3199793D01*
X7817803D01*
Y3200151D01*
X7817445D01*
Y3200510D01*
X7817086D01*
Y3200868D01*
X7816728D01*
Y3201226D01*
X7816370D01*
Y3201584D01*
X7816012D01*
Y3201942D01*
X7815654D01*
Y3202301D01*
X7814937D01*
Y3202659D01*
X7814221D01*
Y3203017D01*
X7813863D01*
Y3203375D01*
X7813146D01*
Y3203733D01*
X7812430D01*
Y3204092D01*
X7811355D01*
Y3204450D01*
X7809922D01*
Y3204808D01*
X7807057D01*
Y3204450D01*
X7805266D01*
Y3204092D01*
X7804191D01*
Y3203733D01*
X7802759D01*
Y3203375D01*
X7802042D01*
Y3203017D01*
X7801326D01*
Y3202659D01*
X7799893D01*
Y3202301D01*
X7799177D01*
Y3201942D01*
X7798460D01*
Y3201584D01*
X7797385D01*
Y3201226D01*
X7796311D01*
Y3200868D01*
X7795236D01*
Y3200510D01*
X7793804D01*
Y3200151D01*
X7792729D01*
Y3199793D01*
X7789864D01*
Y3199435D01*
X7789505D01*
Y3199793D01*
X7786998D01*
Y3200151D01*
X7785923D01*
Y3200510D01*
X7785207D01*
Y3200868D01*
X7784849D01*
Y3201226D01*
X7784132D01*
Y3201584D01*
X7783774D01*
Y3201942D01*
X7783416D01*
Y3202301D01*
X7783058D01*
Y3202659D01*
X7782699D01*
Y3203375D01*
X7782341D01*
Y3203733D01*
X7781983D01*
Y3204450D01*
X7781625D01*
Y3204808D01*
X7781267D01*
Y3205883D01*
X7780908D01*
Y3207674D01*
X7780550D01*
Y3213046D01*
X7780908D01*
Y3215196D01*
X7781267D01*
Y3216629D01*
X7781625D01*
Y3218061D01*
X7781983D01*
Y3218778D01*
X7782341D01*
Y3220210D01*
X7782699D01*
Y3221285D01*
X7783058D01*
Y3222360D01*
X7783416D01*
Y3223076D01*
X7783774D01*
Y3224151D01*
X7784132D01*
Y3224867D01*
X7784490D01*
Y3225583D01*
X7784849D01*
Y3226658D01*
X7785207D01*
Y3227375D01*
X7785565D01*
Y3228091D01*
X7785923D01*
Y3228807D01*
X7786281D01*
Y3229524D01*
X7786640D01*
Y3229882D01*
X7786998D01*
Y3230598D01*
X7787356D01*
Y3231315D01*
X7787714D01*
Y3231673D01*
X7788073D01*
Y3232389D01*
X7788431D01*
Y3233106D01*
X7788789D01*
Y3233464D01*
X7789147D01*
Y3234180D01*
X7789505D01*
Y3234538D01*
X7789864D01*
Y3234897D01*
X7790222D01*
Y3235613D01*
X7790580D01*
Y3235971D01*
X7790938D01*
Y3236329D01*
X7791296D01*
Y3237046D01*
X7791654D01*
Y3237404D01*
X7792013D01*
Y3237762D01*
X7792371D01*
Y3238120D01*
X7792729D01*
Y3238479D01*
X7793087D01*
Y3238837D01*
X7793445D01*
Y3239195D01*
X7793804D01*
Y3239911D01*
X7794520D01*
Y3240270D01*
X7794878D01*
Y3240628D01*
X7795236D01*
Y3240986D01*
X7795595D01*
Y3241344D01*
X7795953D01*
Y3241702D01*
X7796311D01*
Y3242061D01*
X7796669D01*
Y3242419D01*
X7797027D01*
Y3242777D01*
X7797744D01*
Y3243135D01*
X7798102D01*
Y3243493D01*
X7798460D01*
Y3243852D01*
X7799177D01*
Y3244210D01*
X7799535D01*
Y3244568D01*
X7799893D01*
Y3244926D01*
X7800609D01*
Y3245284D01*
X7800968D01*
Y3245642D01*
X7801684D01*
Y3246001D01*
X7802400D01*
Y3246359D01*
X7803117D01*
Y3246717D01*
X7803833D01*
Y3247075D01*
X7804550D01*
Y3247433D01*
X7805624D01*
Y3247792D01*
X7806340D01*
Y3248150D01*
X7807773D01*
Y3248508D01*
X7809564D01*
Y3248866D01*
X7815654D01*
Y3248508D01*
D02*
G37*
G36*
X7944247Y3293999D02*
X7944605D01*
Y3293641D01*
X7944963D01*
Y3293283D01*
X7945321D01*
Y3292925D01*
X7946038D01*
Y3292566D01*
X7946396D01*
Y3292208D01*
X7946754D01*
Y3291850D01*
X7947112D01*
Y3291492D01*
X7947829D01*
Y3291134D01*
X7948187D01*
Y3290775D01*
X7948545D01*
Y3290417D01*
X7948903D01*
Y3290059D01*
X7949261D01*
Y3289701D01*
X7949620D01*
Y3289343D01*
X7950336D01*
Y3288626D01*
X7951052D01*
Y3287910D01*
X7951411D01*
Y3287552D01*
X7951769D01*
Y3287194D01*
X7952127D01*
Y3286835D01*
X7952485D01*
Y3286477D01*
X7952843D01*
Y3286119D01*
X7953202D01*
Y3285403D01*
X7953560D01*
Y3285044D01*
X7953918D01*
Y3284328D01*
X7954276D01*
Y3283611D01*
X7954635D01*
Y3283253D01*
X7954993D01*
Y3282537D01*
X7955351D01*
Y3281462D01*
X7955709D01*
Y3280746D01*
X7956067D01*
Y3279671D01*
X7956426D01*
Y3278239D01*
X7956784D01*
Y3277164D01*
X7957142D01*
Y3274299D01*
X7957500D01*
Y3265702D01*
X7957142D01*
Y3262836D01*
X7956784D01*
Y3261045D01*
X7956426D01*
Y3259254D01*
X7956067D01*
Y3257821D01*
X7955709D01*
Y3256747D01*
X7955351D01*
Y3255314D01*
X7954993D01*
Y3254239D01*
X7954635D01*
Y3253165D01*
X7954276D01*
Y3252090D01*
X7953918D01*
Y3251016D01*
X7953560D01*
Y3249941D01*
X7953202D01*
Y3248866D01*
X7952843D01*
Y3248150D01*
X7952485D01*
Y3247433D01*
X7952127D01*
Y3246359D01*
X7951769D01*
Y3245642D01*
X7951411D01*
Y3244568D01*
X7951052D01*
Y3243852D01*
X7950694D01*
Y3242777D01*
X7950336D01*
Y3242419D01*
X7949978D01*
Y3241702D01*
X7949620D01*
Y3240986D01*
X7949261D01*
Y3239911D01*
X7948903D01*
Y3239195D01*
X7948545D01*
Y3238479D01*
X7948187D01*
Y3237762D01*
X7947829D01*
Y3237046D01*
X7947471D01*
Y3236329D01*
X7947112D01*
Y3235971D01*
X7946754D01*
Y3235255D01*
X7946396D01*
Y3234538D01*
X7946038D01*
Y3233822D01*
X7945680D01*
Y3233106D01*
X7945321D01*
Y3232389D01*
X7944963D01*
Y3232031D01*
X7944605D01*
Y3231315D01*
X7944247D01*
Y3230598D01*
X7943889D01*
Y3230240D01*
X7943530D01*
Y3229524D01*
X7943172D01*
Y3229165D01*
X7942814D01*
Y3228449D01*
X7942456D01*
Y3227733D01*
X7942098D01*
Y3227375D01*
X7941739D01*
Y3226658D01*
X7941381D01*
Y3226300D01*
X7941023D01*
Y3225942D01*
X7940665D01*
Y3225225D01*
X7940307D01*
Y3224867D01*
X7939948D01*
Y3224509D01*
X7939590D01*
Y3223792D01*
X7939232D01*
Y3223434D01*
X7938874D01*
Y3223076D01*
X7938515D01*
Y3222718D01*
X7938157D01*
Y3222360D01*
X7937799D01*
Y3222001D01*
X7937441D01*
Y3221643D01*
X7937083D01*
Y3221285D01*
X7936725D01*
Y3220927D01*
X7936008D01*
Y3220569D01*
X7935650D01*
Y3220210D01*
X7935292D01*
Y3219852D01*
X7934934D01*
Y3219494D01*
X7934217D01*
Y3219136D01*
X7933859D01*
Y3218778D01*
X7933143D01*
Y3218420D01*
X7932784D01*
Y3218061D01*
X7932068D01*
Y3217703D01*
X7931352D01*
Y3217345D01*
X7930994D01*
Y3216987D01*
X7930277D01*
Y3216629D01*
X7929202D01*
Y3216270D01*
X7928486D01*
Y3215912D01*
X7927770D01*
Y3215554D01*
X7927053D01*
Y3215196D01*
X7926337D01*
Y3214838D01*
X7925262D01*
Y3214479D01*
X7924546D01*
Y3214121D01*
X7923471D01*
Y3213763D01*
X7922397D01*
Y3213405D01*
X7921322D01*
Y3213046D01*
X7920248D01*
Y3212688D01*
X7918815D01*
Y3212330D01*
X7917740D01*
Y3211972D01*
X7916665D01*
Y3211614D01*
X7915591D01*
Y3211255D01*
X7914158D01*
Y3210897D01*
X7912725D01*
Y3210539D01*
X7911293D01*
Y3210181D01*
X7909860D01*
Y3209823D01*
X7908427D01*
Y3209464D01*
X7906636D01*
Y3209106D01*
X7905561D01*
Y3208748D01*
X7904128D01*
Y3208390D01*
X7902696D01*
Y3208032D01*
X7901263D01*
Y3207674D01*
X7899830D01*
Y3207315D01*
X7898756D01*
Y3206957D01*
X7896965D01*
Y3206599D01*
X7895890D01*
Y3206241D01*
X7894816D01*
Y3205883D01*
X7893741D01*
Y3205524D01*
X7892308D01*
Y3205166D01*
X7891592D01*
Y3204808D01*
X7890517D01*
Y3204450D01*
X7890159D01*
Y3205524D01*
X7890517D01*
Y3205883D01*
X7890875D01*
Y3206599D01*
X7891233D01*
Y3207315D01*
X7891592D01*
Y3207674D01*
X7891950D01*
Y3208032D01*
X7892308D01*
Y3208390D01*
X7892666D01*
Y3208748D01*
X7893024D01*
Y3209464D01*
X7893383D01*
Y3209823D01*
X7893741D01*
Y3210181D01*
X7894099D01*
Y3210539D01*
X7894816D01*
Y3210897D01*
X7895174D01*
Y3211255D01*
X7895532D01*
Y3211614D01*
X7895890D01*
Y3211972D01*
X7896607D01*
Y3212330D01*
X7897323D01*
Y3212688D01*
X7897681D01*
Y3213046D01*
X7898397D01*
Y3213405D01*
X7899114D01*
Y3213763D01*
X7899830D01*
Y3214121D01*
X7900905D01*
Y3214479D01*
X7901621D01*
Y3214838D01*
X7902696D01*
Y3215196D01*
X7903412D01*
Y3215554D01*
X7904487D01*
Y3215912D01*
X7905920D01*
Y3216270D01*
X7907352D01*
Y3216629D01*
X7908427D01*
Y3216987D01*
X7910218D01*
Y3217345D01*
X7911651D01*
Y3217703D01*
X7913083D01*
Y3218061D01*
X7914516D01*
Y3218420D01*
X7915949D01*
Y3218778D01*
X7917382D01*
Y3219136D01*
X7918815D01*
Y3219494D01*
X7919889D01*
Y3219852D01*
X7921322D01*
Y3220210D01*
X7922397D01*
Y3220569D01*
X7923113D01*
Y3220927D01*
X7924188D01*
Y3221285D01*
X7925262D01*
Y3221643D01*
X7925979D01*
Y3222001D01*
X7926695D01*
Y3222360D01*
X7927411D01*
Y3222718D01*
X7928128D01*
Y3223076D01*
X7928486D01*
Y3223434D01*
X7929202D01*
Y3223792D01*
X7929561D01*
Y3224151D01*
X7930277D01*
Y3224509D01*
X7930635D01*
Y3224867D01*
X7930994D01*
Y3225225D01*
X7931352D01*
Y3225583D01*
X7932068D01*
Y3225942D01*
X7932426D01*
Y3226300D01*
X7932784D01*
Y3226658D01*
X7933143D01*
Y3227016D01*
X7933501D01*
Y3227375D01*
X7933859D01*
Y3227733D01*
X7934217D01*
Y3228091D01*
X7934575D01*
Y3228449D01*
X7934934D01*
Y3229165D01*
X7935292D01*
Y3229524D01*
X7935650D01*
Y3229882D01*
X7936008D01*
Y3230598D01*
X7936725D01*
Y3231315D01*
X7937083D01*
Y3231673D01*
X7937441D01*
Y3232389D01*
X7937799D01*
Y3232747D01*
X7938157D01*
Y3233464D01*
X7938515D01*
Y3233822D01*
X7938874D01*
Y3234538D01*
X7939232D01*
Y3234897D01*
X7939590D01*
Y3235613D01*
X7939948D01*
Y3236329D01*
X7940307D01*
Y3237046D01*
X7940665D01*
Y3237404D01*
X7941023D01*
Y3238120D01*
X7941381D01*
Y3238837D01*
X7941739D01*
Y3239553D01*
X7942098D01*
Y3239911D01*
X7942456D01*
Y3240986D01*
X7942814D01*
Y3241702D01*
X7943172D01*
Y3242419D01*
X7943530D01*
Y3243135D01*
X7943889D01*
Y3243852D01*
X7944247D01*
Y3244926D01*
X7944605D01*
Y3245642D01*
X7944963D01*
Y3246717D01*
X7945321D01*
Y3247433D01*
X7945680D01*
Y3248508D01*
X7946038D01*
Y3249583D01*
X7946396D01*
Y3250657D01*
X7946754D01*
Y3251374D01*
X7947112D01*
Y3252448D01*
X7947471D01*
Y3254239D01*
X7947829D01*
Y3255314D01*
X7948187D01*
Y3256388D01*
X7948545D01*
Y3258179D01*
X7948903D01*
Y3259612D01*
X7949261D01*
Y3261403D01*
X7949620D01*
Y3263911D01*
X7949978D01*
Y3267134D01*
X7950336D01*
Y3274299D01*
X7949978D01*
Y3276448D01*
X7949620D01*
Y3277880D01*
X7949261D01*
Y3278955D01*
X7948903D01*
Y3280030D01*
X7948545D01*
Y3280746D01*
X7948187D01*
Y3281820D01*
X7947829D01*
Y3282537D01*
X7947471D01*
Y3283253D01*
X7947112D01*
Y3283970D01*
X7946754D01*
Y3285044D01*
X7946396D01*
Y3285761D01*
X7946038D01*
Y3286477D01*
X7945680D01*
Y3287552D01*
X7945321D01*
Y3288268D01*
X7944963D01*
Y3289343D01*
X7944605D01*
Y3290417D01*
X7944247D01*
Y3291492D01*
X7943889D01*
Y3294357D01*
X7944247D01*
Y3293999D01*
D02*
G37*
G36*
X7935650Y3296865D02*
X7935292D01*
Y3296507D01*
X7934934D01*
Y3296148D01*
X7934575D01*
Y3295790D01*
X7934217D01*
Y3295432D01*
X7933501D01*
Y3295074D01*
X7933143D01*
Y3294716D01*
X7932426D01*
Y3294357D01*
X7932068D01*
Y3293999D01*
X7931352D01*
Y3293641D01*
X7930994D01*
Y3293283D01*
X7930277D01*
Y3292925D01*
X7929561D01*
Y3292566D01*
X7929202D01*
Y3292208D01*
X7928486D01*
Y3291850D01*
X7928128D01*
Y3291492D01*
X7927411D01*
Y3291134D01*
X7926695D01*
Y3290775D01*
X7925979D01*
Y3290417D01*
X7925262D01*
Y3290059D01*
X7924546D01*
Y3289701D01*
X7923829D01*
Y3289343D01*
X7923113D01*
Y3288985D01*
X7922397D01*
Y3288626D01*
X7921680D01*
Y3288268D01*
X7920964D01*
Y3287910D01*
X7920248D01*
Y3287552D01*
X7919531D01*
Y3287194D01*
X7918815D01*
Y3286835D01*
X7918098D01*
Y3286477D01*
X7917382D01*
Y3286119D01*
X7916665D01*
Y3285761D01*
X7915949D01*
Y3285403D01*
X7915233D01*
Y3285044D01*
X7914516D01*
Y3284686D01*
X7913800D01*
Y3284328D01*
X7913083D01*
Y3283970D01*
X7912367D01*
Y3283611D01*
X7911651D01*
Y3283253D01*
X7910934D01*
Y3282895D01*
X7910218D01*
Y3282537D01*
X7909502D01*
Y3282179D01*
X7909143D01*
Y3281820D01*
X7908427D01*
Y3281462D01*
X7907711D01*
Y3281104D01*
X7907352D01*
Y3280746D01*
X7906636D01*
Y3280388D01*
X7905920D01*
Y3280030D01*
X7905203D01*
Y3279671D01*
X7904845D01*
Y3279313D01*
X7904487D01*
Y3278955D01*
X7903770D01*
Y3278597D01*
X7903412D01*
Y3278239D01*
X7902696D01*
Y3277880D01*
X7902338D01*
Y3277522D01*
X7901979D01*
Y3277164D01*
X7901621D01*
Y3276806D01*
X7900905D01*
Y3276448D01*
X7900547D01*
Y3276089D01*
X7900188D01*
Y3275731D01*
X7899472D01*
Y3275373D01*
X7899114D01*
Y3275015D01*
X7898756D01*
Y3274657D01*
X7898397D01*
Y3274299D01*
X7897681D01*
Y3273582D01*
X7896965D01*
Y3273224D01*
X7896607D01*
Y3272866D01*
X7896248D01*
Y3272507D01*
X7895890D01*
Y3272149D01*
X7895532D01*
Y3271791D01*
X7895174D01*
Y3271433D01*
X7894457D01*
Y3270716D01*
X7893741D01*
Y3270000D01*
X7893024D01*
Y3269284D01*
X7892308D01*
Y3268567D01*
X7891592D01*
Y3267851D01*
X7891233D01*
Y3267493D01*
X7890875D01*
Y3267134D01*
X7890517D01*
Y3266776D01*
X7890159D01*
Y3266418D01*
X7889801D01*
Y3266060D01*
X7889442D01*
Y3265702D01*
X7889084D01*
Y3265343D01*
X7888726D01*
Y3264985D01*
X7888368D01*
Y3264269D01*
X7888010D01*
Y3263911D01*
X7887651D01*
Y3263553D01*
X7887293D01*
Y3262836D01*
X7886935D01*
Y3262478D01*
X7886577D01*
Y3262120D01*
X7886219D01*
Y3261762D01*
X7885861D01*
Y3261403D01*
X7885502D01*
Y3260687D01*
X7885144D01*
Y3260329D01*
X7884786D01*
Y3259970D01*
X7884428D01*
Y3259254D01*
X7884070D01*
Y3258538D01*
X7883711D01*
Y3258179D01*
X7883353D01*
Y3257821D01*
X7882995D01*
Y3257105D01*
X7882637D01*
Y3256388D01*
X7882279D01*
Y3256030D01*
X7881920D01*
Y3255314D01*
X7881562D01*
Y3254598D01*
X7881204D01*
Y3254239D01*
X7880846D01*
Y3253523D01*
X7880487D01*
Y3252807D01*
X7880129D01*
Y3252090D01*
X7879771D01*
Y3251374D01*
X7879413D01*
Y3250657D01*
X7879055D01*
Y3249941D01*
X7878696D01*
Y3249225D01*
X7878338D01*
Y3248508D01*
X7877980D01*
Y3247433D01*
X7877622D01*
Y3246717D01*
X7877264D01*
Y3245642D01*
X7876906D01*
Y3244926D01*
X7876547D01*
Y3243852D01*
X7876189D01*
Y3242777D01*
X7875831D01*
Y3241702D01*
X7875473D01*
Y3240986D01*
X7875115D01*
Y3239911D01*
X7874756D01*
Y3238479D01*
X7874398D01*
Y3237404D01*
X7874040D01*
Y3235971D01*
X7873682D01*
Y3234897D01*
X7873324D01*
Y3233464D01*
X7872965D01*
Y3232031D01*
X7872607D01*
Y3230598D01*
X7872249D01*
Y3229165D01*
X7871891D01*
Y3227375D01*
X7871533D01*
Y3225583D01*
X7871174D01*
Y3223792D01*
X7870816D01*
Y3221643D01*
X7870458D01*
Y3219852D01*
X7870100D01*
Y3217345D01*
X7869742D01*
Y3214121D01*
X7869383D01*
Y3211255D01*
X7869025D01*
Y3201584D01*
X7869383D01*
Y3198719D01*
X7869742D01*
Y3196928D01*
X7870100D01*
Y3195495D01*
X7870458D01*
Y3194062D01*
X7871174D01*
Y3194420D01*
X7871533D01*
Y3194778D01*
X7871891D01*
Y3195137D01*
X7872249D01*
Y3195495D01*
X7872607D01*
Y3195853D01*
X7873324D01*
Y3196211D01*
X7873682D01*
Y3196569D01*
X7874040D01*
Y3196928D01*
X7874756D01*
Y3197286D01*
X7875115D01*
Y3197644D01*
X7875831D01*
Y3198002D01*
X7876189D01*
Y3198360D01*
X7876906D01*
Y3198719D01*
X7877622D01*
Y3199077D01*
X7877980D01*
Y3199435D01*
X7878696D01*
Y3199793D01*
X7880129D01*
Y3200151D01*
X7881562D01*
Y3200510D01*
X7882995D01*
Y3200868D01*
X7886577D01*
Y3199793D01*
X7885861D01*
Y3199435D01*
X7885502D01*
Y3199077D01*
X7885144D01*
Y3198360D01*
X7884428D01*
Y3197644D01*
X7883711D01*
Y3196928D01*
X7882995D01*
Y3196211D01*
X7882279D01*
Y3195853D01*
X7881920D01*
Y3195495D01*
X7881562D01*
Y3195137D01*
X7881204D01*
Y3194778D01*
X7880846D01*
Y3194420D01*
X7880487D01*
Y3194062D01*
X7879771D01*
Y3193704D01*
X7879413D01*
Y3193346D01*
X7879055D01*
Y3192988D01*
X7878696D01*
Y3192629D01*
X7877980D01*
Y3192271D01*
X7877622D01*
Y3191913D01*
X7876906D01*
Y3191555D01*
X7876547D01*
Y3191197D01*
X7875831D01*
Y3190838D01*
X7874756D01*
Y3190480D01*
X7874040D01*
Y3190122D01*
X7872965D01*
Y3189764D01*
X7869383D01*
Y3190122D01*
X7868309D01*
Y3190480D01*
X7867950D01*
Y3190838D01*
X7867234D01*
Y3191197D01*
X7866876D01*
Y3191555D01*
X7866518D01*
Y3191913D01*
X7866160D01*
Y3192629D01*
X7865801D01*
Y3192988D01*
X7865443D01*
Y3193704D01*
X7865085D01*
Y3194420D01*
X7864727D01*
Y3195495D01*
X7864369D01*
Y3196928D01*
X7864010D01*
Y3220210D01*
X7864369D01*
Y3224151D01*
X7864727D01*
Y3226300D01*
Y3226658D01*
X7865085D01*
Y3228449D01*
X7865443D01*
Y3230240D01*
X7865801D01*
Y3232031D01*
X7866160D01*
Y3233464D01*
X7866518D01*
Y3234897D01*
X7866876D01*
Y3236329D01*
X7867234D01*
Y3237404D01*
X7867592D01*
Y3238837D01*
X7867950D01*
Y3239911D01*
X7868309D01*
Y3240986D01*
X7868667D01*
Y3241702D01*
X7869025D01*
Y3242777D01*
X7869383D01*
Y3243852D01*
X7869742D01*
Y3244926D01*
X7870100D01*
Y3245642D01*
X7870458D01*
Y3246717D01*
X7870816D01*
Y3247433D01*
X7871174D01*
Y3248508D01*
X7871533D01*
Y3249225D01*
X7871891D01*
Y3250299D01*
X7872249D01*
Y3250657D01*
X7872607D01*
Y3251732D01*
X7872965D01*
Y3252448D01*
X7873324D01*
Y3253165D01*
X7873682D01*
Y3253881D01*
X7874040D01*
Y3254598D01*
X7874398D01*
Y3255314D01*
X7874756D01*
Y3256030D01*
X7875115D01*
Y3256388D01*
X7875473D01*
Y3257105D01*
X7875831D01*
Y3258179D01*
X7876189D01*
Y3258538D01*
X7876547D01*
Y3259254D01*
X7876906D01*
Y3259970D01*
X7877264D01*
Y3260329D01*
X7877622D01*
Y3261045D01*
X7877980D01*
Y3261762D01*
X7878338D01*
Y3262120D01*
X7878696D01*
Y3262836D01*
X7879055D01*
Y3263194D01*
X7879413D01*
Y3263911D01*
X7879771D01*
Y3264269D01*
X7880129D01*
Y3264985D01*
X7880487D01*
Y3265343D01*
X7880846D01*
Y3265702D01*
X7881204D01*
Y3266418D01*
X7881562D01*
Y3266776D01*
X7881920D01*
Y3267493D01*
X7882279D01*
Y3267851D01*
X7882637D01*
Y3268567D01*
X7883353D01*
Y3269284D01*
X7883711D01*
Y3269642D01*
X7884070D01*
Y3270000D01*
X7884428D01*
Y3270716D01*
X7884786D01*
Y3271074D01*
X7885144D01*
Y3271433D01*
X7885502D01*
Y3271791D01*
X7885861D01*
Y3272149D01*
X7886219D01*
Y3272866D01*
X7886577D01*
Y3273224D01*
X7886935D01*
Y3273582D01*
X7887293D01*
Y3273940D01*
X7887651D01*
Y3274299D01*
X7888010D01*
Y3274657D01*
X7888368D01*
Y3275015D01*
X7888726D01*
Y3275373D01*
X7889084D01*
Y3275731D01*
X7889442D01*
Y3276089D01*
X7889801D01*
Y3276448D01*
X7890159D01*
Y3276806D01*
X7890517D01*
Y3277164D01*
X7890875D01*
Y3277522D01*
X7891233D01*
Y3277880D01*
X7891592D01*
Y3278239D01*
X7891950D01*
Y3278597D01*
X7892308D01*
Y3278955D01*
X7892666D01*
Y3279313D01*
X7893024D01*
Y3279671D01*
X7893383D01*
Y3280030D01*
X7894099D01*
Y3280388D01*
X7894457D01*
Y3280746D01*
X7894816D01*
Y3281104D01*
X7895174D01*
Y3281462D01*
X7895532D01*
Y3281820D01*
X7895890D01*
Y3282179D01*
X7896607D01*
Y3282537D01*
X7896965D01*
Y3282895D01*
X7897323D01*
Y3283253D01*
X7898039D01*
Y3283611D01*
X7898397D01*
Y3283970D01*
X7898756D01*
Y3284328D01*
X7899472D01*
Y3284686D01*
X7899830D01*
Y3285044D01*
X7900547D01*
Y3285403D01*
X7900905D01*
Y3285761D01*
X7901621D01*
Y3286119D01*
X7901979D01*
Y3286477D01*
X7902696D01*
Y3286835D01*
X7903054D01*
Y3287194D01*
X7903770D01*
Y3287552D01*
X7904487D01*
Y3287910D01*
X7905203D01*
Y3288268D01*
X7905561D01*
Y3288626D01*
X7906278D01*
Y3288985D01*
X7906994D01*
Y3289343D01*
X7907352D01*
Y3289701D01*
X7908427D01*
Y3290059D01*
X7909143D01*
Y3290417D01*
X7909502D01*
Y3290775D01*
X7910218D01*
Y3291134D01*
X7911293D01*
Y3291492D01*
X7912367D01*
Y3291850D01*
X7913083D01*
Y3292208D01*
X7913800D01*
Y3292566D01*
X7914874D01*
Y3292925D01*
X7915949D01*
Y3293283D01*
X7916665D01*
Y3293641D01*
X7917740D01*
Y3293999D01*
X7918815D01*
Y3294357D01*
X7920248D01*
Y3294716D01*
X7921680D01*
Y3295074D01*
X7922755D01*
Y3295432D01*
X7924546D01*
Y3295790D01*
X7926337D01*
Y3296148D01*
X7928486D01*
Y3296507D01*
X7930994D01*
Y3296865D01*
X7934934D01*
Y3297223D01*
X7935650D01*
Y3296865D01*
D02*
G37*
G36*
X7807057Y3198719D02*
X7808848D01*
Y3198360D01*
X7809922D01*
Y3198002D01*
X7810639D01*
Y3197644D01*
X7811714D01*
Y3197286D01*
X7812430D01*
Y3196928D01*
X7813146D01*
Y3196569D01*
X7813505D01*
Y3196211D01*
X7814221D01*
Y3195853D01*
X7814579D01*
Y3195495D01*
X7815296D01*
Y3195137D01*
X7815654D01*
Y3194778D01*
X7816012D01*
Y3194420D01*
X7816370D01*
Y3194062D01*
X7817086D01*
Y3193704D01*
X7817445D01*
Y3193346D01*
X7817803D01*
Y3192988D01*
X7818161D01*
Y3192629D01*
X7818519D01*
Y3192271D01*
X7818877D01*
Y3191913D01*
X7819236D01*
Y3191555D01*
X7819594D01*
Y3191197D01*
X7819952D01*
Y3190480D01*
X7820310D01*
Y3190122D01*
X7820668D01*
Y3189405D01*
X7821027D01*
Y3189047D01*
X7821385D01*
Y3188331D01*
X7821743D01*
Y3187614D01*
X7822101D01*
Y3187256D01*
X7822459D01*
Y3186182D01*
X7822818D01*
Y3185465D01*
X7823176D01*
Y3184749D01*
X7823534D01*
Y3183674D01*
X7823892D01*
Y3182600D01*
X7824251D01*
Y3181167D01*
X7824609D01*
Y3179734D01*
X7824967D01*
Y3178301D01*
X7824609D01*
Y3178660D01*
X7824251D01*
Y3179018D01*
X7823892D01*
Y3179376D01*
X7823534D01*
Y3179734D01*
X7822818D01*
Y3180451D01*
X7822101D01*
Y3181167D01*
X7821385D01*
Y3181883D01*
X7821027D01*
Y3182242D01*
X7820668D01*
Y3182600D01*
X7820310D01*
Y3182958D01*
X7819952D01*
Y3183316D01*
X7819594D01*
Y3183674D01*
X7819236D01*
Y3184032D01*
X7818877D01*
Y3184391D01*
X7818519D01*
Y3184749D01*
X7818161D01*
Y3185107D01*
X7817803D01*
Y3185465D01*
X7817445D01*
Y3185823D01*
X7817086D01*
Y3186182D01*
X7816728D01*
Y3186540D01*
X7816370D01*
Y3186898D01*
X7816012D01*
Y3187256D01*
X7815654D01*
Y3187614D01*
X7815296D01*
Y3187973D01*
X7814937D01*
Y3188331D01*
X7814579D01*
Y3188689D01*
X7814221D01*
Y3189047D01*
X7813505D01*
Y3189405D01*
X7813146D01*
Y3189764D01*
X7812788D01*
Y3190122D01*
X7812072D01*
Y3190480D01*
X7811355D01*
Y3190838D01*
X7810997D01*
Y3191197D01*
X7809922D01*
Y3191555D01*
X7808848D01*
Y3191913D01*
X7807773D01*
Y3192271D01*
X7804908D01*
Y3191913D01*
X7803475D01*
Y3191555D01*
X7802759D01*
Y3191197D01*
X7802042D01*
Y3190838D01*
X7801326D01*
Y3190480D01*
X7800968D01*
Y3190122D01*
X7800609D01*
Y3189764D01*
X7800251D01*
Y3189405D01*
X7799893D01*
Y3189047D01*
X7799535D01*
Y3188689D01*
X7799177D01*
Y3188331D01*
X7798818D01*
Y3187614D01*
X7798460D01*
Y3186898D01*
X7798102D01*
Y3186182D01*
X7797744D01*
Y3185465D01*
X7797385D01*
Y3184391D01*
X7797027D01*
Y3182600D01*
X7796669D01*
Y3180809D01*
X7796311D01*
Y3170421D01*
X7796669D01*
Y3167556D01*
X7797027D01*
Y3165406D01*
X7797385D01*
Y3163257D01*
X7797744D01*
Y3161466D01*
X7798102D01*
Y3160033D01*
X7798460D01*
Y3158600D01*
X7798818D01*
Y3156810D01*
X7799177D01*
Y3155735D01*
X7799535D01*
Y3155019D01*
X7799893D01*
Y3153944D01*
X7800251D01*
Y3153227D01*
X7800609D01*
Y3152511D01*
X7800968D01*
Y3151795D01*
X7801326D01*
Y3151078D01*
X7802042D01*
Y3150362D01*
X7802400D01*
Y3150004D01*
X7802759D01*
Y3149645D01*
X7803475D01*
Y3149287D01*
X7803833D01*
Y3148929D01*
X7804191D01*
Y3148571D01*
X7807773D01*
Y3148929D01*
X7808490D01*
Y3149287D01*
X7808848D01*
Y3149645D01*
X7809206D01*
Y3150004D01*
X7809564D01*
Y3150362D01*
X7809922D01*
Y3151078D01*
X7810639D01*
Y3152153D01*
X7810997D01*
Y3152511D01*
X7811355D01*
Y3153227D01*
X7811714D01*
Y3153944D01*
X7812072D01*
Y3155019D01*
X7812430D01*
Y3155735D01*
X7812788D01*
Y3156810D01*
X7813146D01*
Y3157526D01*
X7813505D01*
Y3158242D01*
X7813863D01*
Y3158600D01*
Y3159317D01*
X7814221D01*
Y3160391D01*
X7814579D01*
Y3161108D01*
X7814937D01*
Y3161824D01*
X7815296D01*
Y3162541D01*
X7815654D01*
Y3163257D01*
X7816012D01*
Y3163973D01*
X7816370D01*
Y3164690D01*
X7816728D01*
Y3165406D01*
X7817086D01*
Y3165764D01*
X7817445D01*
Y3166123D01*
X7817803D01*
Y3166481D01*
X7818161D01*
Y3167197D01*
X7818519D01*
Y3167556D01*
X7818877D01*
Y3167914D01*
X7819236D01*
Y3168272D01*
X7819594D01*
Y3168630D01*
X7819952D01*
Y3168988D01*
X7820310D01*
Y3169346D01*
X7821027D01*
Y3168272D01*
X7820668D01*
Y3166123D01*
X7820310D01*
Y3164331D01*
X7819952D01*
Y3162541D01*
X7819594D01*
Y3161108D01*
X7819236D01*
Y3159675D01*
X7818877D01*
Y3157884D01*
X7818519D01*
Y3156093D01*
X7818161D01*
Y3155019D01*
X7817803D01*
Y3153944D01*
X7817445D01*
Y3152869D01*
X7817086D01*
Y3152153D01*
X7816728D01*
Y3151436D01*
X7816370D01*
Y3150720D01*
X7816012D01*
Y3150004D01*
X7815654D01*
Y3149287D01*
X7815296D01*
Y3148929D01*
X7814937D01*
Y3148213D01*
X7814579D01*
Y3147855D01*
X7814221D01*
Y3147496D01*
X7813863D01*
Y3146780D01*
X7813505D01*
Y3146422D01*
X7813146D01*
Y3146064D01*
X7812788D01*
Y3145705D01*
X7812430D01*
Y3145347D01*
X7812072D01*
Y3144989D01*
X7811714D01*
Y3144631D01*
X7811355D01*
Y3144273D01*
X7810997D01*
Y3143914D01*
X7810639D01*
Y3143556D01*
X7809922D01*
Y3143198D01*
X7809206D01*
Y3142840D01*
X7808848D01*
Y3142482D01*
X7808131D01*
Y3142123D01*
X7807057D01*
Y3141765D01*
X7804908D01*
Y3141407D01*
X7804191D01*
Y3141765D01*
X7802759D01*
Y3142123D01*
X7801684D01*
Y3142482D01*
X7800968D01*
Y3142840D01*
X7800609D01*
Y3143198D01*
X7799893D01*
Y3143556D01*
X7799535D01*
Y3143914D01*
X7799177D01*
Y3144273D01*
X7798818D01*
Y3144631D01*
X7798460D01*
Y3145347D01*
X7797744D01*
Y3146064D01*
X7797385D01*
Y3146422D01*
X7797027D01*
Y3147138D01*
X7796669D01*
Y3147855D01*
X7796311D01*
Y3148213D01*
X7795953D01*
Y3148929D01*
X7795595D01*
Y3150004D01*
X7795236D01*
Y3150720D01*
X7794878D01*
Y3151436D01*
X7794520D01*
Y3152511D01*
X7794162D01*
Y3153227D01*
X7793804D01*
Y3154660D01*
X7793445D01*
Y3155377D01*
X7793087D01*
Y3156810D01*
X7792729D01*
Y3158242D01*
X7792371D01*
Y3159675D01*
X7792013D01*
Y3161108D01*
X7791654D01*
Y3162899D01*
X7791296D01*
Y3165406D01*
X7790938D01*
Y3167914D01*
X7790580D01*
Y3171137D01*
X7790222D01*
Y3175794D01*
X7789864D01*
Y3182600D01*
X7790222D01*
Y3186182D01*
X7790580D01*
Y3188331D01*
X7790938D01*
Y3189047D01*
X7791296D01*
Y3190122D01*
X7791654D01*
Y3191197D01*
X7792013D01*
Y3191913D01*
X7792371D01*
Y3192271D01*
X7792729D01*
Y3192988D01*
X7793087D01*
Y3193346D01*
X7793445D01*
Y3194062D01*
X7793804D01*
Y3194420D01*
X7794162D01*
Y3194778D01*
X7794520D01*
Y3195137D01*
X7794878D01*
Y3195495D01*
X7795236D01*
Y3195853D01*
X7795595D01*
Y3196211D01*
X7796311D01*
Y3196569D01*
X7796669D01*
Y3196928D01*
X7797385D01*
Y3197286D01*
X7797744D01*
Y3197644D01*
X7798460D01*
Y3198002D01*
X7799535D01*
Y3198360D01*
X7800609D01*
Y3198719D01*
X7802400D01*
Y3199077D01*
X7807057D01*
Y3198719D01*
D02*
G37*
G36*
X10324460Y3329299D02*
X10334757D01*
Y3327828D01*
X10342111D01*
Y3326357D01*
X10347995D01*
Y3324886D01*
X10352407D01*
Y3323415D01*
X10356820D01*
Y3321944D01*
X10361233D01*
Y3320473D01*
X10364175D01*
Y3319003D01*
X10367116D01*
Y3317532D01*
X10371529D01*
Y3316061D01*
X10374471D01*
Y3314590D01*
X10375942D01*
Y3313119D01*
X10378883D01*
Y3311648D01*
X10381825D01*
Y3310177D01*
X10384767D01*
Y3308706D01*
X10386238D01*
Y3307235D01*
X10389180D01*
Y3305764D01*
X10390651D01*
Y3304293D01*
X10393592D01*
Y3302822D01*
X10395063D01*
Y3301352D01*
X10396534D01*
Y3299881D01*
X10398005D01*
Y3298410D01*
X10400947D01*
Y3296939D01*
X10402418D01*
Y3295468D01*
X10403889D01*
Y3293997D01*
X10405360D01*
Y3292526D01*
X10406831D01*
Y3291055D01*
X10408302D01*
Y3289584D01*
X10409772D01*
Y3288114D01*
X10411243D01*
Y3286643D01*
X10412714D01*
Y3285172D01*
X10414185D01*
Y3282230D01*
X10415656D01*
Y3280759D01*
X10417127D01*
Y3279288D01*
X10418598D01*
Y3277817D01*
X10420069D01*
Y3274876D01*
X10421539D01*
Y3273405D01*
X10423010D01*
Y3270463D01*
X10424481D01*
Y3268992D01*
X10425952D01*
Y3266050D01*
X10427423D01*
Y3263108D01*
X10428894D01*
Y3260166D01*
X10430365D01*
Y3257225D01*
X10431836D01*
Y3254283D01*
X10433307D01*
Y3251341D01*
X10434778D01*
Y3246928D01*
X10436249D01*
Y3243987D01*
X10437720D01*
Y3238103D01*
X10439190D01*
Y3233690D01*
X10440661D01*
Y3226336D01*
X10442132D01*
Y3217510D01*
X10443603D01*
Y3177796D01*
X10442132D01*
Y3168971D01*
X10440661D01*
Y3163087D01*
X10439190D01*
Y3157203D01*
X10437720D01*
Y3152791D01*
X10436249D01*
Y3148378D01*
X10434778D01*
Y3143966D01*
X10433307D01*
Y3141024D01*
X10431836D01*
Y3138082D01*
X10430365D01*
Y3135140D01*
X10428894D01*
Y3132198D01*
X10427423D01*
Y3129256D01*
X10425952D01*
Y3127785D01*
X10424481D01*
Y3124844D01*
X10423010D01*
Y3123373D01*
X10421539D01*
Y3120431D01*
X10420069D01*
Y3118960D01*
X10418598D01*
Y3116018D01*
X10417127D01*
Y3114547D01*
X10415656D01*
Y3113077D01*
X10414185D01*
Y3111606D01*
X10412714D01*
Y3110135D01*
X10411243D01*
Y3107193D01*
X10409772D01*
Y3105722D01*
X10408302D01*
Y3104251D01*
X10406831D01*
Y3102780D01*
X10405360D01*
Y3101309D01*
X10403889D01*
Y3099838D01*
X10400947D01*
Y3098367D01*
X10399476D01*
Y3096897D01*
X10398005D01*
Y3095426D01*
X10396534D01*
Y3093955D01*
X10395063D01*
Y3092484D01*
X10392122D01*
Y3091013D01*
X10390651D01*
Y3089542D01*
X10387709D01*
Y3088071D01*
X10386238D01*
Y3086600D01*
X10383296D01*
Y3085129D01*
X10381825D01*
Y3083659D01*
X10378883D01*
Y3082188D01*
X10375942D01*
Y3080717D01*
X10373000D01*
Y3079246D01*
X10370058D01*
Y3077775D01*
X10367116D01*
Y3076304D01*
X10364175D01*
Y3074833D01*
X10359762D01*
Y3073362D01*
X10355349D01*
Y3071891D01*
X10350936D01*
Y3070420D01*
X10346524D01*
Y3068950D01*
X10340640D01*
Y3067479D01*
X10333286D01*
Y3066008D01*
X10322989D01*
Y3064537D01*
X10283275D01*
Y3066008D01*
X10274450D01*
Y3067479D01*
X10267095D01*
Y3068950D01*
X10262683D01*
Y3070420D01*
X10256799D01*
Y3071891D01*
X10253857D01*
Y3073362D01*
X10249444D01*
Y3074833D01*
X10246502D01*
Y3076304D01*
X10243561D01*
Y3077775D01*
X10240619D01*
Y3079246D01*
X10237677D01*
Y3080717D01*
X10236206D01*
Y3082188D01*
X10233265D01*
Y3083659D01*
X10230323D01*
Y3085129D01*
X10228852D01*
Y3086600D01*
X10227381D01*
Y3088071D01*
X10224439D01*
Y3089542D01*
X10222968D01*
Y3091013D01*
X10221497D01*
Y3092484D01*
X10220026D01*
Y3093955D01*
X10217084D01*
Y3095426D01*
X10215614D01*
Y3096897D01*
X10214143D01*
Y3098367D01*
X10212672D01*
Y3099838D01*
X10211201D01*
Y3101309D01*
X10209730D01*
Y3102780D01*
X10208259D01*
Y3105722D01*
X10206788D01*
Y3107193D01*
X10205317D01*
Y3108664D01*
X10203846D01*
Y3110135D01*
X10202376D01*
Y3113077D01*
X10200905D01*
Y3114547D01*
X10199434D01*
Y3116018D01*
X10197963D01*
Y3118960D01*
X10196492D01*
Y3120431D01*
X10195021D01*
Y3123373D01*
X10193550D01*
Y3126315D01*
X10192079D01*
Y3129256D01*
X10190608D01*
Y3130727D01*
X10189137D01*
Y3133669D01*
X10187666D01*
Y3138082D01*
X10186196D01*
Y3139553D01*
X10187666D01*
Y3141024D01*
X10190608D01*
Y3142495D01*
X10193550D01*
Y3143966D01*
X10196492D01*
Y3145436D01*
X10199434D01*
Y3146907D01*
X10202376D01*
Y3148378D01*
X10206788D01*
Y3149849D01*
X10209730D01*
Y3151320D01*
X10212672D01*
Y3152791D01*
X10215614D01*
Y3154262D01*
X10218555D01*
Y3155733D01*
X10221497D01*
Y3157203D01*
X10224439D01*
Y3158674D01*
X10228852D01*
Y3160145D01*
X10231794D01*
Y3161616D01*
X10234735D01*
Y3163087D01*
X10237677D01*
Y3164558D01*
X10240619D01*
Y3166029D01*
X10243561D01*
Y3167500D01*
X10247973D01*
Y3168971D01*
X10250915D01*
Y3170442D01*
X10253857D01*
Y3167500D01*
X10255328D01*
Y3164558D01*
X10256799D01*
Y3161616D01*
X10258270D01*
Y3158674D01*
X10259741D01*
Y3157203D01*
X10261212D01*
Y3154262D01*
X10262683D01*
Y3152791D01*
X10264153D01*
Y3151320D01*
X10265624D01*
Y3149849D01*
X10267095D01*
Y3148378D01*
X10268566D01*
Y3146907D01*
X10270037D01*
Y3145436D01*
X10271508D01*
Y3143966D01*
X10272979D01*
Y3142495D01*
X10275921D01*
Y3141024D01*
X10277391D01*
Y3139553D01*
X10280333D01*
Y3138082D01*
X10283275D01*
Y3136611D01*
X10287688D01*
Y3135140D01*
X10292100D01*
Y3133669D01*
X10315635D01*
Y3135140D01*
X10321518D01*
Y3136611D01*
X10325931D01*
Y3138082D01*
X10328873D01*
Y3139553D01*
X10331815D01*
Y3141024D01*
X10334757D01*
Y3142495D01*
X10337698D01*
Y3143966D01*
X10339169D01*
Y3145436D01*
X10340640D01*
Y3146907D01*
X10343582D01*
Y3148378D01*
X10345053D01*
Y3149849D01*
X10346524D01*
Y3151320D01*
X10347995D01*
Y3152791D01*
X10349465D01*
Y3154262D01*
X10350936D01*
Y3157203D01*
X10352407D01*
Y3158674D01*
X10353878D01*
Y3160145D01*
X10355349D01*
Y3163087D01*
X10356820D01*
Y3166029D01*
X10358291D01*
Y3168971D01*
X10359762D01*
Y3173383D01*
X10361233D01*
Y3177796D01*
X10362704D01*
Y3182209D01*
X10364175D01*
Y3192505D01*
X10365646D01*
Y3202801D01*
X10364175D01*
Y3213098D01*
X10362704D01*
Y3218981D01*
X10361233D01*
Y3223394D01*
X10359762D01*
Y3226336D01*
X10358291D01*
Y3229278D01*
X10356820D01*
Y3232219D01*
X10355349D01*
Y3235161D01*
X10353878D01*
Y3236632D01*
X10352407D01*
Y3238103D01*
X10350936D01*
Y3241045D01*
X10349465D01*
Y3242516D01*
X10347995D01*
Y3243987D01*
X10346524D01*
Y3245458D01*
X10345053D01*
Y3246928D01*
X10343582D01*
Y3248399D01*
X10342111D01*
Y3249870D01*
X10339169D01*
Y3251341D01*
X10337698D01*
Y3252812D01*
X10334757D01*
Y3254283D01*
X10333286D01*
Y3255754D01*
X10330344D01*
Y3257225D01*
X10325931D01*
Y3258696D01*
X10321518D01*
Y3260166D01*
X10317106D01*
Y3261637D01*
X10305339D01*
Y3263108D01*
X10300926D01*
Y3261637D01*
X10292100D01*
Y3260166D01*
X10287688D01*
Y3258696D01*
X10283275D01*
Y3257225D01*
X10280333D01*
Y3255754D01*
X10277391D01*
Y3254283D01*
X10275921D01*
Y3252812D01*
X10272979D01*
Y3251341D01*
X10271508D01*
Y3249870D01*
X10270037D01*
Y3248399D01*
X10268566D01*
Y3246928D01*
X10267095D01*
Y3245458D01*
X10265624D01*
Y3243987D01*
X10264153D01*
Y3242516D01*
X10262683D01*
Y3241045D01*
X10261212D01*
Y3239574D01*
X10259741D01*
Y3236632D01*
X10258270D01*
Y3235161D01*
X10256799D01*
Y3232219D01*
X10255328D01*
Y3227807D01*
X10253857D01*
Y3224865D01*
X10250915D01*
Y3226336D01*
X10247973D01*
Y3227807D01*
X10245032D01*
Y3229278D01*
X10242090D01*
Y3230748D01*
X10239148D01*
Y3232219D01*
X10236206D01*
Y3233690D01*
X10231794D01*
Y3235161D01*
X10228852D01*
Y3236632D01*
X10225910D01*
Y3238103D01*
X10222968D01*
Y3239574D01*
X10220026D01*
Y3241045D01*
X10217084D01*
Y3242516D01*
X10214143D01*
Y3243987D01*
X10209730D01*
Y3245458D01*
X10206788D01*
Y3246928D01*
X10203846D01*
Y3248399D01*
X10200905D01*
Y3249870D01*
X10197963D01*
Y3251341D01*
X10195021D01*
Y3252812D01*
X10192079D01*
Y3254283D01*
X10187666D01*
Y3255754D01*
X10186196D01*
Y3258696D01*
X10187666D01*
Y3261637D01*
X10189137D01*
Y3264579D01*
X10190608D01*
Y3267521D01*
X10192079D01*
Y3270463D01*
X10193550D01*
Y3271934D01*
X10195021D01*
Y3274876D01*
X10196492D01*
Y3277817D01*
X10197963D01*
Y3279288D01*
X10199434D01*
Y3282230D01*
X10200905D01*
Y3283701D01*
X10202376D01*
Y3285172D01*
X10203846D01*
Y3288114D01*
X10205317D01*
Y3289584D01*
X10206788D01*
Y3291055D01*
X10208259D01*
Y3292526D01*
X10209730D01*
Y3293997D01*
X10211201D01*
Y3295468D01*
X10212672D01*
Y3296939D01*
X10214143D01*
Y3298410D01*
X10215614D01*
Y3299881D01*
X10217084D01*
Y3301352D01*
X10218555D01*
Y3302822D01*
X10220026D01*
Y3304293D01*
X10221497D01*
Y3305764D01*
X10224439D01*
Y3307235D01*
X10225910D01*
Y3308706D01*
X10227381D01*
Y3310177D01*
X10230323D01*
Y3311648D01*
X10231794D01*
Y3313119D01*
X10234735D01*
Y3314590D01*
X10237677D01*
Y3316061D01*
X10239148D01*
Y3317532D01*
X10242090D01*
Y3319003D01*
X10245032D01*
Y3320473D01*
X10249444D01*
Y3321944D01*
X10252386D01*
Y3323415D01*
X10256799D01*
Y3324886D01*
X10261212D01*
Y3326357D01*
X10265624D01*
Y3327828D01*
X10272979D01*
Y3329299D01*
X10281804D01*
Y3330770D01*
X10324460D01*
Y3329299D01*
D02*
G37*
G36*
X7937083Y3200868D02*
X7937441D01*
Y3198719D01*
X7937799D01*
Y3191913D01*
X7937441D01*
Y3189764D01*
X7937083D01*
Y3188331D01*
X7936725D01*
Y3186898D01*
X7936366D01*
Y3185465D01*
X7936008D01*
Y3184749D01*
X7935650D01*
Y3183674D01*
X7935292D01*
Y3182958D01*
X7934934D01*
Y3182242D01*
X7934575D01*
Y3181167D01*
X7934217D01*
Y3180451D01*
X7933859D01*
Y3179734D01*
X7933501D01*
Y3179018D01*
X7933143D01*
Y3178301D01*
X7932784D01*
Y3177585D01*
X7932426D01*
Y3176868D01*
X7932068D01*
Y3176510D01*
X7931710D01*
Y3175794D01*
X7931352D01*
Y3175077D01*
X7930994D01*
Y3174361D01*
X7930635D01*
Y3174003D01*
X7930277D01*
Y3172928D01*
X7929919D01*
Y3172570D01*
X7929561D01*
Y3171854D01*
X7929202D01*
Y3171137D01*
X7928844D01*
Y3170421D01*
X7928486D01*
Y3169705D01*
X7928128D01*
Y3169346D01*
X7927770D01*
Y3168630D01*
X7927411D01*
Y3167914D01*
X7927053D01*
Y3167197D01*
X7926695D01*
Y3166481D01*
X7926337D01*
Y3166123D01*
X7925979D01*
Y3165048D01*
X7925620D01*
Y3164331D01*
X7925262D01*
Y3163615D01*
X7924904D01*
Y3162899D01*
X7924546D01*
Y3162182D01*
X7924188D01*
Y3161466D01*
X7923829D01*
Y3160391D01*
X7923471D01*
Y3159675D01*
X7923113D01*
Y3158600D01*
X7922755D01*
Y3157884D01*
X7922397D01*
Y3156810D01*
X7922039D01*
Y3156093D01*
X7921680D01*
Y3155019D01*
X7921322D01*
Y3153944D01*
X7920964D01*
Y3152511D01*
X7920606D01*
Y3151078D01*
X7920248D01*
Y3150004D01*
X7919889D01*
Y3148929D01*
X7919531D01*
Y3147138D01*
X7919173D01*
Y3145347D01*
X7918815D01*
Y3142840D01*
X7918457D01*
Y3139616D01*
X7918098D01*
Y3132810D01*
X7918457D01*
Y3129586D01*
X7918815D01*
Y3127437D01*
X7919173D01*
Y3125288D01*
X7919531D01*
Y3122423D01*
X7919889D01*
Y3119557D01*
X7920248D01*
Y3113826D01*
X7919889D01*
Y3112035D01*
X7919531D01*
Y3110960D01*
X7919173D01*
Y3109886D01*
X7918815D01*
Y3109169D01*
X7918457D01*
Y3108453D01*
X7918098D01*
Y3108095D01*
X7917740D01*
Y3107378D01*
X7917382D01*
Y3107020D01*
X7917024D01*
Y3106662D01*
X7916665D01*
Y3106303D01*
X7915949D01*
Y3105945D01*
X7915233D01*
Y3105587D01*
X7914874D01*
Y3109169D01*
X7914516D01*
Y3113826D01*
X7914158D01*
Y3118124D01*
X7913800D01*
Y3122423D01*
X7913442D01*
Y3127795D01*
X7913083D01*
Y3145705D01*
X7913442D01*
Y3149645D01*
X7913800D01*
Y3152153D01*
X7914158D01*
Y3154302D01*
X7914516D01*
Y3156451D01*
X7914874D01*
Y3158242D01*
X7915233D01*
Y3159675D01*
X7915591D01*
Y3160750D01*
X7915949D01*
Y3162182D01*
X7916307D01*
Y3163257D01*
X7916665D01*
Y3164331D01*
X7917024D01*
Y3165048D01*
X7917382D01*
Y3165764D01*
X7917740D01*
Y3166839D01*
X7918098D01*
Y3167556D01*
X7918457D01*
Y3168272D01*
X7918815D01*
Y3168988D01*
X7919173D01*
Y3169705D01*
X7919531D01*
Y3170063D01*
X7919889D01*
Y3170421D01*
Y3170779D01*
X7920248D01*
Y3171496D01*
X7920606D01*
Y3172212D01*
X7920964D01*
Y3172570D01*
X7921322D01*
Y3173287D01*
X7921680D01*
Y3174003D01*
X7922039D01*
Y3174361D01*
X7922397D01*
Y3175077D01*
X7922755D01*
Y3175436D01*
X7923113D01*
Y3176152D01*
X7923471D01*
Y3176510D01*
X7923829D01*
Y3176868D01*
X7924188D01*
Y3177585D01*
X7924546D01*
Y3178301D01*
X7924904D01*
Y3178660D01*
X7925262D01*
Y3179018D01*
X7925620D01*
Y3179734D01*
X7925979D01*
Y3180451D01*
X7926337D01*
Y3180809D01*
X7926695D01*
Y3181525D01*
X7927053D01*
Y3181883D01*
X7927411D01*
Y3182600D01*
X7927770D01*
Y3182958D01*
X7928128D01*
Y3183674D01*
X7928486D01*
Y3184032D01*
X7928844D01*
Y3184749D01*
X7929202D01*
Y3185465D01*
X7929561D01*
Y3185823D01*
X7929919D01*
Y3186540D01*
X7930277D01*
Y3187256D01*
X7930635D01*
Y3187614D01*
X7930994D01*
Y3188331D01*
X7931352D01*
Y3189047D01*
X7931710D01*
Y3189764D01*
X7932068D01*
Y3190480D01*
X7932426D01*
Y3191197D01*
X7932784D01*
Y3192271D01*
X7933143D01*
Y3193346D01*
X7933501D01*
Y3194062D01*
X7933859D01*
Y3195137D01*
X7934217D01*
Y3196211D01*
X7934575D01*
Y3197286D01*
X7934934D01*
Y3198360D01*
X7935292D01*
Y3199077D01*
X7935650D01*
Y3200151D01*
X7936008D01*
Y3200868D01*
X7936366D01*
Y3201584D01*
X7936725D01*
Y3201942D01*
X7937083D01*
Y3200868D01*
D02*
G37*
G36*
X7924546Y3205524D02*
X7926337D01*
Y3205166D01*
X7927411D01*
Y3204808D01*
X7928128D01*
Y3204450D01*
X7928486D01*
Y3204092D01*
X7928844D01*
Y3203733D01*
X7929561D01*
Y3203375D01*
X7929919D01*
Y3203017D01*
X7930277D01*
Y3202659D01*
X7930635D01*
Y3201942D01*
X7926695D01*
Y3201584D01*
X7923471D01*
Y3201226D01*
X7921322D01*
Y3200868D01*
X7919531D01*
Y3200510D01*
X7917740D01*
Y3200151D01*
X7916665D01*
Y3199793D01*
X7915233D01*
Y3199435D01*
X7913800D01*
Y3199077D01*
X7913083D01*
Y3198719D01*
X7911651D01*
Y3198360D01*
X7910934D01*
Y3198002D01*
X7909860D01*
Y3197644D01*
X7908785D01*
Y3197286D01*
X7908069D01*
Y3196928D01*
X7907352D01*
Y3196569D01*
X7906278D01*
Y3196211D01*
X7905561D01*
Y3195853D01*
X7904845D01*
Y3195495D01*
X7904128D01*
Y3195137D01*
X7903412D01*
Y3194778D01*
X7902696D01*
Y3194420D01*
X7901979D01*
Y3194062D01*
X7901263D01*
Y3193704D01*
X7900547D01*
Y3193346D01*
X7900188D01*
Y3192988D01*
X7899472D01*
Y3192629D01*
X7898756D01*
Y3192271D01*
X7898039D01*
Y3191913D01*
X7897681D01*
Y3191555D01*
X7896965D01*
Y3191197D01*
X7896607D01*
Y3190838D01*
X7895890D01*
Y3190480D01*
X7895532D01*
Y3190122D01*
X7894816D01*
Y3189764D01*
X7894457D01*
Y3189405D01*
X7893741D01*
Y3189047D01*
X7893383D01*
Y3188689D01*
X7893024D01*
Y3188331D01*
X7892308D01*
Y3187973D01*
X7891950D01*
Y3187614D01*
X7891592D01*
Y3187256D01*
X7891233D01*
Y3186898D01*
X7890517D01*
Y3186540D01*
X7890159D01*
Y3186182D01*
X7889801D01*
Y3185823D01*
X7889442D01*
Y3185465D01*
X7888726D01*
Y3184749D01*
X7888010D01*
Y3184032D01*
X7887293D01*
Y3183316D01*
X7886577D01*
Y3182600D01*
X7885861D01*
Y3182242D01*
X7885502D01*
Y3181883D01*
X7885144D01*
Y3181525D01*
X7884786D01*
Y3181167D01*
X7884428D01*
Y3180451D01*
X7883711D01*
Y3179734D01*
X7883353D01*
Y3179376D01*
X7882995D01*
Y3179018D01*
X7882637D01*
Y3178660D01*
X7882279D01*
Y3178301D01*
X7881920D01*
Y3177943D01*
X7881562D01*
Y3177227D01*
X7881204D01*
Y3176868D01*
X7880846D01*
Y3176510D01*
X7880487D01*
Y3175794D01*
X7880129D01*
Y3175436D01*
X7879771D01*
Y3175077D01*
X7879413D01*
Y3174719D01*
X7879055D01*
Y3174003D01*
X7878696D01*
Y3173287D01*
X7878338D01*
Y3172928D01*
X7877980D01*
Y3172212D01*
X7877622D01*
Y3171854D01*
X7877264D01*
Y3171137D01*
X7876906D01*
Y3170421D01*
X7876547D01*
Y3170063D01*
X7876189D01*
Y3169346D01*
X7875831D01*
Y3168630D01*
X7875473D01*
Y3167914D01*
X7875115D01*
Y3167197D01*
X7874756D01*
Y3166481D01*
X7874398D01*
Y3165764D01*
X7874040D01*
Y3164690D01*
X7873682D01*
Y3163973D01*
X7873324D01*
Y3163257D01*
X7872965D01*
Y3162182D01*
X7872607D01*
Y3160750D01*
X7872249D01*
Y3159675D01*
X7871891D01*
Y3158600D01*
X7871533D01*
Y3156810D01*
X7871174D01*
Y3155377D01*
X7870816D01*
Y3152869D01*
X7870458D01*
Y3150004D01*
X7870100D01*
Y3139616D01*
X7870458D01*
Y3136392D01*
X7870816D01*
Y3133885D01*
X7871174D01*
Y3132094D01*
X7871533D01*
Y3129945D01*
X7871891D01*
Y3128512D01*
X7872249D01*
Y3127079D01*
X7872607D01*
Y3126004D01*
X7872965D01*
Y3124572D01*
X7873324D01*
Y3123497D01*
X7873682D01*
Y3122423D01*
X7874040D01*
Y3120990D01*
X7874398D01*
Y3119557D01*
X7874756D01*
Y3118482D01*
X7875115D01*
Y3117766D01*
X7875473D01*
Y3116691D01*
X7875831D01*
Y3115617D01*
X7876189D01*
Y3114542D01*
X7876547D01*
Y3113467D01*
X7876906D01*
Y3112393D01*
X7877264D01*
Y3111677D01*
X7877622D01*
Y3110602D01*
X7877980D01*
Y3109527D01*
X7878338D01*
Y3108811D01*
X7878696D01*
Y3108095D01*
X7879055D01*
Y3107378D01*
X7879413D01*
Y3106662D01*
X7879771D01*
Y3105945D01*
X7880129D01*
Y3105229D01*
X7880487D01*
Y3104154D01*
X7880846D01*
Y3103438D01*
X7881204D01*
Y3103080D01*
X7881562D01*
Y3102363D01*
X7881920D01*
Y3101647D01*
X7882279D01*
Y3101289D01*
X7882637D01*
Y3100572D01*
X7882995D01*
Y3099856D01*
X7883353D01*
Y3099498D01*
X7883711D01*
Y3098781D01*
X7884070D01*
Y3098423D01*
X7884428D01*
Y3097707D01*
X7884786D01*
Y3097349D01*
X7885144D01*
Y3096991D01*
X7885502D01*
Y3096632D01*
X7885861D01*
Y3095916D01*
X7886219D01*
Y3095558D01*
X7886577D01*
Y3095199D01*
X7886935D01*
Y3094841D01*
X7887293D01*
Y3094483D01*
X7887651D01*
Y3094125D01*
X7888010D01*
Y3093766D01*
X7888368D01*
Y3093408D01*
X7888726D01*
Y3093050D01*
X7889442D01*
Y3092692D01*
X7889801D01*
Y3092334D01*
X7890159D01*
Y3091976D01*
X7890517D01*
Y3091617D01*
X7891233D01*
Y3091259D01*
X7891592D01*
Y3090901D01*
X7892308D01*
Y3090543D01*
X7892666D01*
Y3090185D01*
X7893383D01*
Y3089826D01*
X7894099D01*
Y3089468D01*
X7895174D01*
Y3089110D01*
X7895890D01*
Y3088752D01*
X7896965D01*
Y3088394D01*
X7898756D01*
Y3088035D01*
X7902696D01*
Y3088394D01*
X7903412D01*
Y3088752D01*
X7904487D01*
Y3089110D01*
X7905203D01*
Y3089468D01*
X7905920D01*
Y3089826D01*
X7906278D01*
Y3090185D01*
X7906994D01*
Y3090543D01*
X7907352D01*
Y3090901D01*
X7908069D01*
Y3091259D01*
X7908427D01*
Y3091617D01*
X7908785D01*
Y3091976D01*
X7909143D01*
Y3092334D01*
X7909860D01*
Y3092692D01*
X7910218D01*
Y3093050D01*
X7910576D01*
Y3093408D01*
X7910934D01*
Y3093766D01*
X7911651D01*
Y3094125D01*
X7912009D01*
Y3094483D01*
X7912367D01*
Y3094841D01*
X7912725D01*
Y3095199D01*
X7913083D01*
Y3095558D01*
X7913800D01*
Y3095916D01*
X7914158D01*
Y3096274D01*
X7914516D01*
Y3096632D01*
X7915233D01*
Y3096991D01*
X7915591D01*
Y3097349D01*
X7915949D01*
Y3097707D01*
X7916665D01*
Y3098065D01*
X7917382D01*
Y3098423D01*
X7918457D01*
Y3098781D01*
X7919173D01*
Y3099140D01*
X7919889D01*
Y3098423D01*
X7919531D01*
Y3097707D01*
X7919173D01*
Y3097349D01*
X7918815D01*
Y3096632D01*
X7918457D01*
Y3095916D01*
X7918098D01*
Y3095558D01*
X7917740D01*
Y3094841D01*
X7917382D01*
Y3094125D01*
X7917024D01*
Y3093766D01*
X7916665D01*
Y3093050D01*
X7916307D01*
Y3092692D01*
X7915949D01*
Y3091976D01*
X7915591D01*
Y3091617D01*
X7915233D01*
Y3090901D01*
X7914874D01*
Y3090543D01*
X7914516D01*
Y3090185D01*
X7914158D01*
Y3089468D01*
X7913800D01*
Y3089110D01*
X7913442D01*
Y3088752D01*
X7913083D01*
Y3088035D01*
X7912367D01*
Y3087319D01*
X7912009D01*
Y3086961D01*
X7911651D01*
Y3086603D01*
X7910934D01*
Y3085886D01*
X7910218D01*
Y3085528D01*
X7909860D01*
Y3085170D01*
X7909502D01*
Y3084812D01*
X7909143D01*
Y3084454D01*
X7908427D01*
Y3084095D01*
X7908069D01*
Y3083737D01*
X7907352D01*
Y3083379D01*
X7906636D01*
Y3083021D01*
X7905920D01*
Y3082662D01*
X7905203D01*
Y3082304D01*
X7904128D01*
Y3081946D01*
X7902696D01*
Y3081588D01*
X7900188D01*
Y3081230D01*
X7898756D01*
Y3081588D01*
X7895890D01*
Y3081946D01*
X7894816D01*
Y3082304D01*
X7893741D01*
Y3082662D01*
X7893024D01*
Y3083021D01*
X7892308D01*
Y3083379D01*
X7891592D01*
Y3083737D01*
X7890875D01*
Y3084095D01*
X7890159D01*
Y3084454D01*
X7889801D01*
Y3084812D01*
X7889442D01*
Y3085170D01*
X7888726D01*
Y3085528D01*
X7888368D01*
Y3085886D01*
X7888010D01*
Y3086245D01*
X7887293D01*
Y3086603D01*
X7886935D01*
Y3086961D01*
X7886577D01*
Y3087319D01*
X7886219D01*
Y3087677D01*
X7885861D01*
Y3088035D01*
X7885144D01*
Y3088752D01*
X7884428D01*
Y3089468D01*
X7884070D01*
Y3089826D01*
X7883711D01*
Y3090185D01*
X7883353D01*
Y3090543D01*
X7882995D01*
Y3090901D01*
X7882637D01*
Y3091259D01*
X7882279D01*
Y3091976D01*
X7881562D01*
Y3092692D01*
X7881204D01*
Y3093050D01*
X7880846D01*
Y3093766D01*
X7880487D01*
Y3094125D01*
X7880129D01*
Y3094483D01*
X7879771D01*
Y3095199D01*
X7879413D01*
Y3095558D01*
X7879055D01*
Y3095916D01*
X7878696D01*
Y3096632D01*
X7878338D01*
Y3097349D01*
X7877980D01*
Y3097707D01*
X7877622D01*
Y3098423D01*
X7877264D01*
Y3098781D01*
X7876906D01*
Y3099498D01*
X7876547D01*
Y3100214D01*
X7876189D01*
Y3100931D01*
X7875831D01*
Y3101647D01*
X7875473D01*
Y3102363D01*
X7875115D01*
Y3103080D01*
X7874756D01*
Y3103796D01*
X7874398D01*
Y3104512D01*
X7874040D01*
Y3105229D01*
X7873682D01*
Y3106303D01*
X7873324D01*
Y3107020D01*
X7872965D01*
Y3108095D01*
X7872607D01*
Y3108453D01*
Y3108811D01*
X7872249D01*
Y3109886D01*
X7871891D01*
Y3110602D01*
X7871533D01*
Y3111677D01*
X7871174D01*
Y3112751D01*
X7870816D01*
Y3113826D01*
X7870458D01*
Y3114900D01*
X7870100D01*
Y3115975D01*
X7869742D01*
Y3117049D01*
X7869383D01*
Y3118124D01*
X7869025D01*
Y3119557D01*
X7868667D01*
Y3120632D01*
X7868309D01*
Y3122064D01*
X7867950D01*
Y3123497D01*
X7867592D01*
Y3124572D01*
X7867234D01*
Y3126363D01*
X7866876D01*
Y3128154D01*
X7866518D01*
Y3129945D01*
X7866160D01*
Y3132094D01*
X7865801D01*
Y3134243D01*
X7865443D01*
Y3137467D01*
X7865085D01*
Y3142482D01*
X7864727D01*
Y3149287D01*
X7865085D01*
Y3153944D01*
X7865443D01*
Y3156810D01*
X7865801D01*
Y3158600D01*
X7866160D01*
Y3160391D01*
X7866518D01*
Y3161466D01*
X7866876D01*
Y3163257D01*
X7867234D01*
Y3164690D01*
X7867592D01*
Y3165406D01*
X7867950D01*
Y3166839D01*
X7868309D01*
Y3167556D01*
X7868667D01*
Y3168630D01*
X7869025D01*
Y3169705D01*
X7869383D01*
Y3170421D01*
X7869742D01*
Y3171137D01*
X7870100D01*
Y3172212D01*
X7870458D01*
Y3172928D01*
X7870816D01*
Y3173287D01*
X7871174D01*
Y3174361D01*
X7871533D01*
Y3175077D01*
X7871891D01*
Y3175436D01*
X7872249D01*
Y3176152D01*
X7872607D01*
Y3176868D01*
X7872965D01*
Y3177585D01*
X7873324D01*
Y3177943D01*
X7873682D01*
Y3178660D01*
X7874040D01*
Y3179018D01*
X7874398D01*
Y3179734D01*
X7874756D01*
Y3180092D01*
X7875115D01*
Y3180809D01*
X7875473D01*
Y3181167D01*
X7875831D01*
Y3181883D01*
X7876189D01*
Y3182242D01*
X7876547D01*
Y3182600D01*
X7876906D01*
Y3182958D01*
X7877264D01*
Y3183674D01*
X7877622D01*
Y3184032D01*
X7877980D01*
Y3184391D01*
X7878338D01*
Y3184749D01*
X7878696D01*
Y3185465D01*
X7879055D01*
Y3185823D01*
X7879413D01*
Y3186182D01*
X7879771D01*
Y3186540D01*
X7880129D01*
Y3186898D01*
X7880487D01*
Y3187256D01*
X7880846D01*
Y3187614D01*
X7881204D01*
Y3187973D01*
X7881562D01*
Y3188331D01*
X7881920D01*
Y3188689D01*
X7882279D01*
Y3189047D01*
X7882637D01*
Y3189405D01*
X7882995D01*
Y3189764D01*
X7883353D01*
Y3190122D01*
X7883711D01*
Y3190480D01*
X7884428D01*
Y3191197D01*
X7885144D01*
Y3191555D01*
X7885502D01*
Y3191913D01*
X7885861D01*
Y3192271D01*
X7886219D01*
Y3192629D01*
X7886935D01*
Y3192988D01*
X7887293D01*
Y3193346D01*
X7887651D01*
Y3193704D01*
X7888010D01*
Y3194062D01*
X7888726D01*
Y3194420D01*
X7889084D01*
Y3194778D01*
X7889801D01*
Y3195137D01*
X7890159D01*
Y3195495D01*
X7890875D01*
Y3195853D01*
X7891233D01*
Y3196211D01*
X7891950D01*
Y3196569D01*
X7892308D01*
Y3196928D01*
X7893024D01*
Y3197286D01*
X7893383D01*
Y3197644D01*
X7894099D01*
Y3198002D01*
X7894457D01*
Y3198360D01*
X7895174D01*
Y3198719D01*
X7895890D01*
Y3199077D01*
X7896607D01*
Y3199435D01*
X7896965D01*
Y3199793D01*
X7898039D01*
Y3200151D01*
X7898756D01*
Y3200510D01*
X7899114D01*
Y3200868D01*
X7899830D01*
Y3201226D01*
X7900905D01*
Y3201584D01*
X7901621D01*
Y3201942D01*
X7902338D01*
Y3202301D01*
X7903054D01*
Y3202659D01*
X7904128D01*
Y3203017D01*
X7905203D01*
Y3203375D01*
X7906278D01*
Y3203733D01*
X7907352D01*
Y3204092D01*
X7908785D01*
Y3204450D01*
X7910218D01*
Y3204808D01*
X7911651D01*
Y3205166D01*
X7913800D01*
Y3205524D01*
X7916665D01*
Y3205883D01*
X7924546D01*
Y3205524D01*
D02*
G37*
G36*
X7920606Y3084454D02*
X7920248D01*
Y3083021D01*
X7919889D01*
Y3081946D01*
X7919531D01*
Y3081230D01*
X7919173D01*
Y3080155D01*
X7918815D01*
Y3079439D01*
X7918457D01*
Y3079080D01*
X7918098D01*
Y3078364D01*
X7917740D01*
Y3078006D01*
X7917382D01*
Y3077290D01*
X7917024D01*
Y3076931D01*
X7916665D01*
Y3076573D01*
X7916307D01*
Y3076215D01*
X7915949D01*
Y3075857D01*
X7915233D01*
Y3075499D01*
X7914874D01*
Y3075140D01*
X7914516D01*
Y3074782D01*
X7913800D01*
Y3074424D01*
X7913083D01*
Y3074066D01*
X7912367D01*
Y3073708D01*
X7911651D01*
Y3073349D01*
X7910576D01*
Y3072991D01*
X7909502D01*
Y3072633D01*
X7908069D01*
Y3072275D01*
X7905203D01*
Y3071917D01*
X7897681D01*
Y3072275D01*
X7893024D01*
Y3072633D01*
X7890159D01*
Y3072991D01*
X7886219D01*
Y3073349D01*
X7875831D01*
Y3072991D01*
X7874040D01*
Y3072633D01*
X7872965D01*
Y3072275D01*
X7872249D01*
Y3071917D01*
X7871174D01*
Y3071558D01*
X7870458D01*
Y3071200D01*
X7870100D01*
Y3070842D01*
X7869025D01*
Y3070484D01*
X7868667D01*
Y3070125D01*
X7867950D01*
Y3069767D01*
X7867592D01*
Y3069409D01*
X7867234D01*
Y3069051D01*
X7866518D01*
Y3068693D01*
X7866160D01*
Y3068334D01*
X7865801D01*
Y3067976D01*
X7865443D01*
Y3067618D01*
X7865085D01*
Y3067260D01*
X7864727D01*
Y3066902D01*
X7864369D01*
Y3066185D01*
X7864010D01*
Y3065827D01*
X7863652D01*
Y3065111D01*
X7863294D01*
Y3064753D01*
X7862936D01*
Y3064036D01*
X7862578D01*
Y3063320D01*
X7862219D01*
Y3062245D01*
X7861861D01*
Y3060812D01*
X7861503D01*
Y3057947D01*
X7861861D01*
Y3056156D01*
X7862219D01*
Y3055081D01*
X7862578D01*
Y3054365D01*
X7862936D01*
Y3053648D01*
X7863294D01*
Y3052932D01*
X7863652D01*
Y3052574D01*
X7864010D01*
Y3051857D01*
X7864369D01*
Y3051141D01*
X7864727D01*
Y3050783D01*
X7865085D01*
Y3050067D01*
X7865443D01*
Y3049350D01*
X7865801D01*
Y3048634D01*
X7866160D01*
Y3047917D01*
X7866518D01*
Y3046843D01*
X7866160D01*
Y3047201D01*
X7864727D01*
Y3047559D01*
X7863652D01*
Y3047917D01*
X7862936D01*
Y3048276D01*
X7862219D01*
Y3048634D01*
X7861503D01*
Y3048992D01*
X7861145D01*
Y3049350D01*
X7860429D01*
Y3049708D01*
X7860070D01*
Y3050067D01*
X7859712D01*
Y3050425D01*
X7859354D01*
Y3050783D01*
X7858996D01*
Y3051141D01*
X7858637D01*
Y3051857D01*
X7858279D01*
Y3052216D01*
X7857921D01*
Y3052932D01*
X7857563D01*
Y3053648D01*
X7857205D01*
Y3054723D01*
X7856846D01*
Y3055798D01*
X7856488D01*
Y3057588D01*
X7856130D01*
Y3061171D01*
X7856488D01*
Y3063320D01*
X7856846D01*
Y3065111D01*
X7857205D01*
Y3065827D01*
X7857563D01*
Y3066902D01*
X7857921D01*
Y3067976D01*
X7858279D01*
Y3068334D01*
X7858637D01*
Y3069051D01*
X7858996D01*
Y3069767D01*
X7859354D01*
Y3070125D01*
X7859712D01*
Y3070842D01*
X7860070D01*
Y3071200D01*
X7860429D01*
Y3071558D01*
X7860787D01*
Y3072275D01*
X7861145D01*
Y3072633D01*
X7861503D01*
Y3072991D01*
X7861861D01*
Y3073349D01*
X7862219D01*
Y3073708D01*
X7862578D01*
Y3074066D01*
X7862936D01*
Y3074424D01*
X7863294D01*
Y3074782D01*
X7863652D01*
Y3075140D01*
X7864369D01*
Y3075499D01*
X7864727D01*
Y3075857D01*
X7865443D01*
Y3076215D01*
X7865801D01*
Y3076573D01*
X7866518D01*
Y3076931D01*
X7867234D01*
Y3077290D01*
X7867950D01*
Y3077648D01*
X7868667D01*
Y3078006D01*
X7869742D01*
Y3078364D01*
X7870816D01*
Y3078722D01*
X7871891D01*
Y3079080D01*
X7873682D01*
Y3079439D01*
X7875831D01*
Y3079797D01*
X7885861D01*
Y3079439D01*
X7890517D01*
Y3079080D01*
X7894816D01*
Y3078722D01*
X7903770D01*
Y3079080D01*
X7905561D01*
Y3079439D01*
X7906994D01*
Y3079797D01*
X7908069D01*
Y3080155D01*
X7909143D01*
Y3080513D01*
X7909860D01*
Y3080871D01*
X7910576D01*
Y3081230D01*
X7911293D01*
Y3081588D01*
X7912009D01*
Y3081946D01*
X7912725D01*
Y3082304D01*
X7913800D01*
Y3082662D01*
X7914158D01*
Y3083021D01*
X7915233D01*
Y3083379D01*
X7915949D01*
Y3083737D01*
X7916665D01*
Y3084095D01*
X7917382D01*
Y3084454D01*
X7918098D01*
Y3084812D01*
X7918815D01*
Y3085170D01*
X7920606D01*
Y3084454D01*
D02*
G37*
G36*
X10884873Y3258696D02*
X10815741D01*
Y3068950D01*
X10737783D01*
Y3258696D01*
X10670122D01*
Y3274876D01*
Y3276346D01*
Y3327828D01*
X10884873D01*
Y3258696D01*
D02*
G37*
G36*
X10652471Y3232219D02*
Y3230748D01*
Y3068950D01*
X10456841D01*
Y3136611D01*
X10573042D01*
Y3138082D01*
X10574513D01*
Y3164558D01*
X10459783D01*
Y3233690D01*
X10574513D01*
Y3258696D01*
X10456841D01*
Y3327828D01*
X10652471D01*
Y3232219D01*
D02*
G37*
G36*
X7923113Y3087677D02*
X7924188D01*
Y3087319D01*
X7925262D01*
Y3086961D01*
X7926337D01*
Y3086603D01*
X7927411D01*
Y3086245D01*
X7928128D01*
Y3085886D01*
X7928844D01*
Y3085528D01*
X7929561D01*
Y3085170D01*
X7930277D01*
Y3084812D01*
X7930635D01*
Y3084454D01*
X7931352D01*
Y3084095D01*
X7931710D01*
Y3083737D01*
X7932426D01*
Y3083379D01*
X7932784D01*
Y3083021D01*
X7933143D01*
Y3082662D01*
X7933501D01*
Y3082304D01*
X7934217D01*
Y3081588D01*
X7934575D01*
Y3081230D01*
X7934934D01*
Y3080871D01*
X7935292D01*
Y3080513D01*
X7935650D01*
Y3080155D01*
X7936008D01*
Y3079439D01*
X7936366D01*
Y3078722D01*
X7936725D01*
Y3078364D01*
X7937083D01*
Y3077648D01*
X7937441D01*
Y3076573D01*
X7937799D01*
Y3075857D01*
X7938157D01*
Y3075140D01*
X7938515D01*
Y3073708D01*
X7938874D01*
Y3072275D01*
X7939232D01*
Y3070125D01*
X7939590D01*
Y3065111D01*
X7939232D01*
Y3062245D01*
X7938874D01*
Y3060812D01*
X7938515D01*
Y3059380D01*
X7938157D01*
Y3058663D01*
X7937799D01*
Y3057588D01*
X7937441D01*
Y3056514D01*
X7937083D01*
Y3056156D01*
X7936725D01*
Y3055439D01*
X7936366D01*
Y3054723D01*
X7936008D01*
Y3054007D01*
X7935650D01*
Y3053648D01*
X7935292D01*
Y3052932D01*
X7934934D01*
Y3052574D01*
X7934575D01*
Y3052216D01*
X7934217D01*
Y3051499D01*
X7933859D01*
Y3051141D01*
X7933501D01*
Y3050783D01*
X7933143D01*
Y3050425D01*
X7932784D01*
Y3050067D01*
X7932426D01*
Y3049708D01*
X7932068D01*
Y3049350D01*
X7931710D01*
Y3048992D01*
X7931352D01*
Y3048634D01*
X7930994D01*
Y3048276D01*
X7930277D01*
Y3047917D01*
X7929919D01*
Y3047559D01*
X7929202D01*
Y3047201D01*
X7928844D01*
Y3046843D01*
X7928128D01*
Y3046484D01*
X7927411D01*
Y3046126D01*
X7926337D01*
Y3045768D01*
X7925620D01*
Y3045410D01*
X7924546D01*
Y3045052D01*
X7923113D01*
Y3044693D01*
X7920964D01*
Y3044335D01*
X7915949D01*
Y3044693D01*
X7913083D01*
Y3045052D01*
X7910934D01*
Y3045410D01*
X7909502D01*
Y3045768D01*
X7908069D01*
Y3046126D01*
X7906636D01*
Y3046484D01*
X7905203D01*
Y3046843D01*
X7903770D01*
Y3047201D01*
X7902696D01*
Y3047559D01*
X7900905D01*
Y3047917D01*
X7899830D01*
Y3048276D01*
X7898039D01*
Y3048634D01*
X7895890D01*
Y3048992D01*
X7893741D01*
Y3049350D01*
X7884428D01*
Y3048992D01*
X7881920D01*
Y3048634D01*
X7880129D01*
Y3048276D01*
X7878696D01*
Y3047917D01*
X7877264D01*
Y3047559D01*
X7875831D01*
Y3047201D01*
X7874756D01*
Y3046843D01*
X7874040D01*
Y3046484D01*
X7872965D01*
Y3046126D01*
X7871891D01*
Y3045768D01*
X7871174D01*
Y3046484D01*
X7871533D01*
Y3047201D01*
X7871891D01*
Y3047917D01*
X7872249D01*
Y3048634D01*
X7872607D01*
Y3049350D01*
X7872965D01*
Y3049708D01*
X7873324D01*
Y3050067D01*
X7873682D01*
Y3050783D01*
X7874040D01*
Y3051141D01*
X7874398D01*
Y3051499D01*
X7874756D01*
Y3051857D01*
X7875115D01*
Y3052216D01*
X7875473D01*
Y3052574D01*
X7875831D01*
Y3052932D01*
X7876189D01*
Y3053290D01*
X7876547D01*
Y3053648D01*
X7877264D01*
Y3054007D01*
X7877622D01*
Y3054365D01*
X7878696D01*
Y3054723D01*
X7879413D01*
Y3055081D01*
X7880129D01*
Y3055439D01*
X7881562D01*
Y3055798D01*
X7884428D01*
Y3056156D01*
X7887293D01*
Y3055798D01*
X7890159D01*
Y3055439D01*
X7892308D01*
Y3055081D01*
X7894099D01*
Y3054723D01*
X7895890D01*
Y3054365D01*
X7896965D01*
Y3054007D01*
X7898756D01*
Y3053648D01*
X7900188D01*
Y3053290D01*
X7901621D01*
Y3052932D01*
X7902696D01*
Y3052574D01*
X7904487D01*
Y3052216D01*
X7905561D01*
Y3051857D01*
X7907352D01*
Y3051499D01*
X7909143D01*
Y3051141D01*
X7911651D01*
Y3050783D01*
X7917740D01*
Y3051141D01*
X7919531D01*
Y3051499D01*
X7920606D01*
Y3051857D01*
X7921680D01*
Y3052216D01*
X7922397D01*
Y3052574D01*
X7923113D01*
Y3052932D01*
X7923829D01*
Y3053290D01*
X7924188D01*
Y3053648D01*
X7924904D01*
Y3054007D01*
X7925262D01*
Y3054365D01*
X7925620D01*
Y3054723D01*
X7925979D01*
Y3055081D01*
X7926337D01*
Y3055439D01*
X7926695D01*
Y3055798D01*
X7927053D01*
Y3056156D01*
X7927411D01*
Y3056514D01*
X7927770D01*
Y3057230D01*
X7928128D01*
Y3057588D01*
X7928486D01*
Y3058305D01*
X7928844D01*
Y3058663D01*
X7929202D01*
Y3059380D01*
X7929561D01*
Y3060454D01*
X7929919D01*
Y3061171D01*
X7930277D01*
Y3062245D01*
X7930635D01*
Y3064036D01*
X7930994D01*
Y3066902D01*
X7931352D01*
Y3068334D01*
X7930994D01*
Y3071917D01*
X7930635D01*
Y3073708D01*
X7930277D01*
Y3074782D01*
X7929919D01*
Y3075857D01*
X7929561D01*
Y3076573D01*
X7929202D01*
Y3077648D01*
X7928844D01*
Y3078364D01*
X7928486D01*
Y3078722D01*
X7928128D01*
Y3079439D01*
X7927770D01*
Y3080155D01*
X7927411D01*
Y3080871D01*
X7927053D01*
Y3081230D01*
X7926695D01*
Y3081946D01*
X7926337D01*
Y3082304D01*
X7925979D01*
Y3083021D01*
X7925620D01*
Y3083379D01*
X7925262D01*
Y3084095D01*
X7924904D01*
Y3084454D01*
X7924546D01*
Y3085170D01*
X7924188D01*
Y3085528D01*
X7923829D01*
Y3085886D01*
X7923471D01*
Y3086603D01*
X7923113D01*
Y3086961D01*
X7922755D01*
Y3087677D01*
X7922397D01*
Y3088035D01*
X7923113D01*
Y3087677D01*
D02*
G37*
%LPC*%
G36*
X10571571Y3523458D02*
X10570101D01*
Y3519045D01*
X10568630D01*
Y3514632D01*
X10567159D01*
Y3510219D01*
X10565688D01*
Y3505807D01*
X10564217D01*
Y3499923D01*
X10562746D01*
Y3495510D01*
X10561275D01*
Y3491098D01*
X10559804D01*
Y3486685D01*
X10558333D01*
Y3480802D01*
X10556862D01*
Y3476389D01*
X10555391D01*
Y3471976D01*
X10553920D01*
Y3466092D01*
X10552450D01*
Y3461680D01*
X10550979D01*
Y3457267D01*
X10549508D01*
Y3452854D01*
X10548037D01*
Y3446971D01*
X10546566D01*
Y3441087D01*
X10595106D01*
Y3446971D01*
X10593635D01*
Y3452854D01*
X10592164D01*
Y3457267D01*
X10590693D01*
Y3461680D01*
X10589222D01*
Y3466092D01*
X10587751D01*
Y3471976D01*
X10586280D01*
Y3476389D01*
X10584809D01*
Y3480802D01*
X10583338D01*
Y3486685D01*
X10581868D01*
Y3491098D01*
X10580397D01*
Y3495510D01*
X10578926D01*
Y3499923D01*
X10577455D01*
Y3505807D01*
X10575984D01*
Y3510219D01*
X10574513D01*
Y3514632D01*
X10573042D01*
Y3519045D01*
X10571571D01*
Y3523458D01*
D02*
G37*
%LPD*%
D59*
X6631999Y5144500D02*
Y5514500D01*
X6632000Y2844500D02*
Y3214500D01*
X10499000Y5206500D02*
Y5676500D01*
X9969000Y5206500D02*
Y5676500D01*
X8359500Y1905000D02*
X8371000D01*
X7986500D02*
X8044500D01*
X8359500Y2820000D02*
X8371000D01*
X7986500D02*
X8044500D01*
X8371000Y1905000D02*
Y2820000D01*
X9382500Y2407500D02*
X9402500D01*
X9382500Y2147500D02*
X9402500D01*
X9667500D02*
Y2372500D01*
X8662500Y3057500D02*
X8922500D01*
Y2772500D02*
X8922500Y2792500D01*
X8662500D02*
X8662500Y2772500D01*
X9200000Y2460000D02*
Y3085000D01*
X9560000Y2460000D02*
Y3085000D01*
X9200000Y2460000D02*
X9560000D01*
X8590000Y2525000D02*
X8630000D01*
X8590000Y2225000D02*
X8630000D01*
D60*
X8434500Y2065000D02*
G03*
X8434500Y2065000I-12500J0D01*
G01*
X9840000Y2610000D02*
G03*
X9840000Y2610000I-12500J0D01*
G01*
X9087500Y2465000D02*
G03*
X9087500Y2465000I-12500J0D01*
G01*
D64*
X8725000Y2535000D02*
G03*
X8725000Y2535000I-5000J0D01*
G01*
X8427500Y2674999D02*
Y2835000D01*
X8587500Y2674999D02*
Y2835000D01*
D65*
X10246513Y1506000D02*
X10286500D01*
X10246513Y1545987D01*
Y1555984D01*
X10256510Y1565981D01*
X10276503D01*
X10286500Y1555984D01*
X10226520D02*
X10216523Y1565981D01*
X10196529D01*
X10186533Y1555984D01*
Y1515997D01*
X10196529Y1506000D01*
X10216523D01*
X10226520Y1515997D01*
Y1555984D01*
X10126552Y1506000D02*
X10166539D01*
X10126552Y1545987D01*
Y1555984D01*
X10136549Y1565981D01*
X10156542D01*
X10166539Y1555984D01*
X10066571Y1565981D02*
X10086565Y1555984D01*
X10106558Y1535990D01*
Y1515997D01*
X10096562Y1506000D01*
X10076568D01*
X10066571Y1515997D01*
Y1525994D01*
X10076568Y1535990D01*
X10106558D01*
X10046578D02*
X10006591D01*
X9986597Y1506000D02*
X9966604D01*
X9976601D01*
Y1565981D01*
X9986597Y1555984D01*
X9936614Y1535990D02*
X9896627D01*
X9876633Y1555984D02*
X9866636Y1565981D01*
X9846643D01*
X9836646Y1555984D01*
Y1545987D01*
X9846643Y1535990D01*
X9856639D01*
X9846643D01*
X9836646Y1525994D01*
Y1515997D01*
X9846643Y1506000D01*
X9866636D01*
X9876633Y1515997D01*
X9816652Y1555984D02*
X9806656Y1565981D01*
X9786662D01*
X9776665Y1555984D01*
Y1515997D01*
X9786662Y1506000D01*
X9806656D01*
X9816652Y1515997D01*
Y1555984D01*
X10286500Y1623500D02*
Y1683481D01*
X10256510D01*
X10246513Y1673484D01*
Y1653490D01*
X10256510Y1643494D01*
X10286500D01*
X10266507D02*
X10246513Y1623500D01*
X10216523D02*
X10196529D01*
X10186533Y1633497D01*
Y1653490D01*
X10196529Y1663487D01*
X10216523D01*
X10226520Y1653490D01*
Y1633497D01*
X10216523Y1623500D01*
X10166539Y1683481D02*
Y1623500D01*
X10136549D01*
X10126552Y1633497D01*
Y1643494D01*
Y1653490D01*
X10136549Y1663487D01*
X10166539D01*
X10106558Y1623500D02*
X10086565D01*
X10096562D01*
Y1663487D01*
X10106558D01*
X10056575Y1623500D02*
Y1663487D01*
X10026584D01*
X10016588Y1653490D01*
Y1623500D01*
X9936614D02*
Y1683481D01*
X9916620Y1663487D01*
X9896627Y1683481D01*
Y1623500D01*
X9866636Y1663487D02*
X9846643D01*
X9836646Y1653490D01*
Y1623500D01*
X9866636D01*
X9876633Y1633497D01*
X9866636Y1643494D01*
X9836646D01*
X9776665Y1683481D02*
Y1623500D01*
X9806656D01*
X9816652Y1633497D01*
Y1653490D01*
X9806656Y1663487D01*
X9776665D01*
X9746675D02*
X9726682D01*
X9716685Y1653490D01*
Y1623500D01*
X9746675D01*
X9756672Y1633497D01*
X9746675Y1643494D01*
X9716685D01*
X9696691Y1663487D02*
Y1623500D01*
Y1643494D01*
X9686695Y1653490D01*
X9676698Y1663487D01*
X9666701D01*
X9714000Y1803477D02*
X9674013D01*
X9694007D01*
Y1743497D01*
X9654020Y1803477D02*
X9614033Y1743497D01*
Y1803477D02*
X9654020Y1743497D01*
X9594039Y1733500D02*
X9554052D01*
X9534058Y1743497D02*
Y1803477D01*
X9504068D01*
X9494071Y1793480D01*
Y1773487D01*
X9504068Y1763490D01*
X9534058D01*
X9434091Y1793480D02*
X9444088Y1803477D01*
X9464081D01*
X9474078Y1793480D01*
Y1753493D01*
X9464081Y1743497D01*
X9444088D01*
X9434091Y1753493D01*
X9414097Y1803477D02*
Y1743497D01*
X9384107D01*
X9374110Y1753493D01*
Y1763490D01*
X9384107Y1773487D01*
X9414097D01*
X9384107D01*
X9374110Y1783484D01*
Y1793480D01*
X9384107Y1803477D01*
X9414097D01*
X9714000Y1863500D02*
Y1923481D01*
X9684010D01*
X9674013Y1913484D01*
Y1893490D01*
X9684010Y1883494D01*
X9714000D01*
X9694007D02*
X9674013Y1863500D01*
X9614033Y1913484D02*
X9624029Y1923481D01*
X9644023D01*
X9654020Y1913484D01*
Y1873497D01*
X9644023Y1863500D01*
X9624029D01*
X9614033Y1873497D01*
X9594039Y1893490D02*
X9554052D01*
X9534058Y1923481D02*
X9494071Y1863500D01*
Y1923481D02*
X9534058Y1863500D01*
X9474078Y1923481D02*
Y1863500D01*
X9444088D01*
X9434091Y1873497D01*
Y1913484D01*
X9444088Y1923481D01*
X9474078D01*
X9364000Y1583487D02*
X9344006Y1543500D01*
X9324013Y1583487D01*
X9304019Y1593484D02*
X9294023Y1603481D01*
X9274029D01*
X9264033Y1593484D01*
Y1553497D01*
X9274029Y1543500D01*
X9294023D01*
X9304019Y1553497D01*
Y1593484D01*
%TF.MD5,75dcd0dfe6daea0087c3f60092afc4ec*%
M02*
