%TF.GenerationSoftware,Altium Limited,Altium Designer,26.2.0 (7)*%
G04 Layer_Color=32768*
%FSLAX45Y45*%
%MOMM*%
%TF.SameCoordinates,894498E9-F992-4E77-9241-7735D3C5E39B*%
%TF.FilePolarity,Positive*%
%TF.FileFunction,Other,Mechanical_15*%
%TF.Part,Single*%
G01*
G75*
%TA.AperFunction,NonConductor*%
%ADD59C,0.20000*%
%ADD64C,0.10000*%
%ADD107C,0.05000*%
D59*
X8462499Y2972500D02*
Y3627500D01*
X8142499Y3302500D02*
X8342499D01*
X8242499Y3202500D02*
Y3402500D01*
X7637498Y3627500D02*
X8462499D01*
X7637498Y2972500D02*
X8462499D01*
X7637498D02*
Y3627500D01*
D64*
X8075000Y4375000D02*
Y6615000D01*
X9965000Y4375000D02*
Y6615000D01*
X8075000D02*
X9965000D01*
X8075000Y4375000D02*
X9965000D01*
X10262500Y3182500D02*
Y3272500D01*
X10217500Y3227500D02*
X10307500D01*
X10107500Y3155000D02*
X10417500D01*
X10107500Y3300000D02*
X10417500D01*
Y3155000D02*
Y3300000D01*
X10107500Y3155000D02*
Y3300000D01*
X9342145Y2329645D02*
X9412855Y2400356D01*
X9342144D02*
X9412855Y2329645D01*
X10107500Y3017500D02*
Y3162500D01*
X10417500Y3017500D02*
Y3162500D01*
X10107500D02*
X10417500D01*
X10107500Y3017500D02*
X10417500D01*
X10217500Y3090000D02*
X10307500D01*
X10262500Y3045000D02*
Y3135000D01*
X10107500Y2880000D02*
Y3025000D01*
X10417500Y2880000D02*
Y3025000D01*
X10107500D02*
X10417500D01*
X10107500Y2880000D02*
X10417500D01*
X10217500Y2952500D02*
X10307500D01*
X10262500Y2907500D02*
Y2997500D01*
X8457500Y2755000D02*
X8557500D01*
X8507500Y2705000D02*
Y2804999D01*
X8427500Y2565000D02*
X8587500D01*
X8427500D02*
Y2944999D01*
X8587500D01*
Y2565000D02*
Y2944999D01*
X10085000Y2490000D02*
X10185000D01*
X10135000Y2440000D02*
Y2540000D01*
X9342500Y2277500D02*
X9442500D01*
X9392500Y2227500D02*
Y2327500D01*
X9878800Y2177500D02*
X9955000D01*
X10031200D01*
X9955000Y2101300D02*
Y2177500D01*
Y2253700D01*
X9555000Y1677500D02*
Y2677500D01*
Y1677500D02*
X10355000D01*
Y2677500D01*
X9555000D02*
X10355000D01*
X8932500Y3040000D02*
X9032500D01*
X8982500Y2990000D02*
Y3090000D01*
X8742500Y2782500D02*
X8842500D01*
X8792500Y2732500D02*
Y2832500D01*
X9330000Y2795000D02*
X9430000D01*
X9380000Y2745000D02*
Y2845000D01*
X8813500Y1192000D02*
Y1792000D01*
X7713500D02*
X8813500D01*
X7713500Y1192000D02*
Y1792000D01*
Y1192000D02*
X8813500D01*
X8263500Y1392000D02*
Y1592000D01*
X8163500Y1492000D02*
X8363500D01*
X8560000Y2375000D02*
X8660000D01*
X8610000Y2325000D02*
Y2425000D01*
X8924500Y1454400D02*
Y1530600D01*
Y1492500D02*
Y1530600D01*
Y1492500D02*
X8962600D01*
X8886400D02*
X8962600D01*
X8886400D02*
X8924500D01*
X8724500Y1162500D02*
X9124500D01*
Y1822500D01*
X8724500D02*
X9124500D01*
X8724500Y1162500D02*
Y1822500D01*
X9489645Y3059645D02*
X9560356Y3130355D01*
X9489644D02*
X9560355Y3059645D01*
D107*
X6602999Y5552500D02*
Y5682501D01*
Y5552500D02*
X6832999D01*
Y5682501D01*
X6602999D02*
X6832999D01*
X6717999Y5592501D02*
Y5642501D01*
X6692999Y5617501D02*
X6742999D01*
X6325499Y5300000D02*
Y5430001D01*
X6555499D01*
Y5300000D02*
Y5430001D01*
X6325499Y5300000D02*
X6555499D01*
X6440499Y5340000D02*
Y5390000D01*
X6415499Y5365000D02*
X6465499D01*
X5887999Y5395000D02*
X5937999D01*
X5912999Y5370000D02*
Y5420000D01*
X5847999Y5510000D02*
X5977999D01*
Y5280000D02*
Y5510000D01*
X5847999Y5280000D02*
X5977999D01*
X5847999D02*
Y5510000D01*
X6607999Y3240000D02*
Y3370001D01*
Y3240000D02*
X6838000D01*
Y3370001D01*
X6607999D02*
X6838000D01*
X6723000Y3280001D02*
Y3330000D01*
X6698000Y3305001D02*
X6747999D01*
X5888000Y3102500D02*
X5938000D01*
X5913000Y3077500D02*
Y3127500D01*
X5847999Y3217500D02*
X5978000D01*
Y2987500D02*
Y3217500D01*
X5847999Y2987500D02*
X5978000D01*
X5847999D02*
Y3217500D01*
X6415499Y3072500D02*
X6465499D01*
X6440499Y3047500D02*
Y3097500D01*
X6325499Y3007500D02*
X6555499D01*
Y3137500D01*
X6325499D02*
X6555499D01*
X6325499Y3007500D02*
Y3137500D01*
X9620000Y5302500D02*
X9670000D01*
X9645000Y5277500D02*
Y5327500D01*
X9530000Y5237500D02*
X9760000D01*
Y5367500D01*
X9530000D02*
X9760000D01*
X9530000Y5237500D02*
Y5367500D01*
X9620000Y5442500D02*
X9670000D01*
X9645000Y5417500D02*
Y5467500D01*
X9530000Y5377500D02*
X9760000D01*
Y5507500D01*
X9530000D02*
X9760000D01*
X9530000Y5377500D02*
Y5507500D01*
X9402500Y5137500D02*
Y5187500D01*
X9377500Y5162500D02*
X9427500D01*
X9287500Y5097500D02*
Y5227500D01*
X9517500D01*
Y5097500D02*
Y5227500D01*
X9287500Y5097500D02*
X9517500D01*
X9377500Y5305000D02*
X9427500D01*
X9402500Y5280000D02*
Y5330000D01*
X9287500Y5370000D02*
X9517500D01*
X9287500Y5240000D02*
Y5370000D01*
Y5240000D02*
X9517500D01*
Y5370000D01*
X9497500Y5722500D02*
X9547500D01*
X9522500Y5697500D02*
Y5747500D01*
X9407500Y5657500D02*
X9637500D01*
Y5787500D01*
X9407500D02*
X9637500D01*
X9407500Y5657500D02*
Y5787500D01*
X9620000Y5162500D02*
X9670000D01*
X9645000Y5137500D02*
Y5187500D01*
X9530000Y5097500D02*
X9760000D01*
Y5227500D01*
X9530000D02*
X9760000D01*
X9530000Y5097500D02*
Y5227500D01*
X9529999Y5517500D02*
Y5647500D01*
X9760000D01*
Y5517500D02*
Y5647500D01*
X9529999Y5517500D02*
X9760000D01*
X9645000Y5557500D02*
Y5607500D01*
X9620000Y5582500D02*
X9669999D01*
X9402500Y5557500D02*
Y5607500D01*
X9377500Y5582500D02*
X9427500D01*
X9287500Y5517500D02*
Y5647500D01*
X9517500D01*
Y5517500D02*
Y5647500D01*
X9287500Y5517500D02*
X9517500D01*
X9402500Y5417500D02*
Y5467500D01*
X9377500Y5442500D02*
X9427500D01*
X9287500Y5377500D02*
Y5507500D01*
X9517500D01*
Y5377500D02*
Y5507500D01*
X9287500Y5377500D02*
X9517500D01*
X10102500Y3037500D02*
X10232500D01*
Y2807500D02*
Y3037500D01*
X10102500Y2807500D02*
X10232500D01*
X10102500D02*
Y3037500D01*
X10142500Y2922500D02*
X10192500D01*
X10167500Y2897500D02*
Y2947500D01*
X10544142Y1209718D02*
X10706777Y1372353D01*
X10614853Y1464277D02*
X10706777Y1372353D01*
X10452218Y1301642D02*
X10614853Y1464277D01*
X10452218Y1301642D02*
X10544142Y1209718D01*
X10561820Y1319320D02*
X10597175Y1354675D01*
X10561820D02*
X10597175Y1319320D01*
X10370000Y2807500D02*
Y3037500D01*
X10240000D02*
X10370000D01*
X10240000Y2807500D02*
Y3037500D01*
Y2807500D02*
X10370000D01*
X10305000Y2897500D02*
Y2947500D01*
X10280000Y2922500D02*
X10330000D01*
X10440355Y1312721D02*
X10532279Y1404645D01*
X10277721Y1475355D02*
X10440355Y1312721D01*
X10277721Y1475355D02*
X10369645Y1567279D01*
X10532279Y1404645D01*
X10387322Y1422322D02*
X10422678Y1457678D01*
X10387322D02*
X10422678Y1422322D01*
X9710000Y1462500D02*
Y1592500D01*
X9480000Y1462500D02*
X9710000D01*
X9480000D02*
Y1592500D01*
X9710000D01*
X9595000Y1502500D02*
Y1552500D01*
X9570000Y1527500D02*
X9620000D01*
X9042500Y1211000D02*
Y1520000D01*
Y1211000D02*
X10382500D01*
Y1520000D01*
X9042500D02*
X10382500D01*
X9712500Y1315500D02*
Y1415500D01*
X9662500Y1365500D02*
X9762500D01*
X9377500Y3164031D02*
X10176531Y2365000D01*
X8578469D02*
X9377500Y1565970D01*
X8578469Y2365000D02*
X9377500Y3164031D01*
Y1565970D02*
X10176531Y2365000D01*
X9875000Y3025000D02*
Y3155000D01*
Y3025000D02*
X10105000D01*
Y3155000D01*
X9875000D02*
X10105000D01*
X9990000Y3065000D02*
Y3115000D01*
X9965000Y3090000D02*
X10015000D01*
X9875000Y3162500D02*
Y3292500D01*
Y3162500D02*
X10105000D01*
Y3292500D01*
X9875000D02*
X10105000D01*
X9990000Y3202500D02*
Y3252500D01*
X9965000Y3227500D02*
X10015000D01*
X9875000Y2887500D02*
Y3017500D01*
Y2887500D02*
X10105000D01*
Y3017500D01*
X9875000D02*
X10105000D01*
X9990000Y2927500D02*
Y2977500D01*
X9965000Y2952500D02*
X10015000D01*
X8643223Y2407353D02*
X8805858Y2244718D01*
X8643223Y2407353D02*
X8735147Y2499277D01*
X8897782Y2336642D01*
X8805858Y2244718D02*
X8897782Y2336642D01*
X8752825Y2389675D02*
X8788180Y2354320D01*
X8752825D02*
X8788180Y2389675D01*
X9282721Y1637145D02*
X9445355Y1799779D01*
X9537279Y1707855D01*
X9374645Y1545221D02*
X9537279Y1707855D01*
X9282721Y1637145D02*
X9374645Y1545221D01*
X9392322Y1654822D02*
X9427678Y1690178D01*
X9392322D02*
X9427678Y1654822D01*
X8097500Y2862500D02*
Y2992500D01*
X7867500Y2862500D02*
X8097500D01*
X7867500D02*
Y2992500D01*
X8097500D01*
X7982500Y2902500D02*
Y2952500D01*
X7957500Y2927500D02*
X8007500D01*
X8107500Y2862500D02*
X8337500D01*
Y2992500D01*
X8107500D02*
X8337500D01*
X8107500Y2862500D02*
Y2992500D01*
X8197500Y2927500D02*
X8247500D01*
X8222500Y2902500D02*
Y2952500D01*
X9647500Y3172500D02*
Y3222500D01*
X9622500Y3197500D02*
X9672500D01*
X9532500Y3132500D02*
Y3262500D01*
X9762500D01*
Y3132500D02*
Y3262500D01*
X9532500Y3132500D02*
X9762500D01*
X9532500Y3267500D02*
X9762500D01*
Y3397500D01*
X9532500D02*
X9762500D01*
X9532500Y3267500D02*
Y3397500D01*
X9622500Y3332500D02*
X9672500D01*
X9647500Y3307500D02*
Y3357500D01*
X9965000Y2395000D02*
Y2585000D01*
X10305000Y2395000D02*
Y2585000D01*
X9965000D02*
X10305000D01*
X9965000Y2395000D02*
X10305000D01*
X9632500Y2112500D02*
Y2442500D01*
X9152500Y2112500D02*
Y2442500D01*
X9632500D01*
X9152500Y2112500D02*
X9632500D01*
X8812500Y3135000D02*
X8812500Y2945000D01*
X9152500D02*
Y3135000D01*
X8812500D02*
X9152500D01*
X8812500Y2945000D02*
X9152500D01*
X8957500Y2542500D02*
Y3022500D01*
X8627500Y2542500D02*
Y3022500D01*
Y2542500D02*
X8957500D01*
X8627500Y3022500D02*
X8957500D01*
X8955000Y2435000D02*
Y3155000D01*
X9805000Y2435000D02*
Y3155000D01*
X8955000Y2435000D02*
X9805000D01*
X8955000Y3155000D02*
X9805000D01*
X9225355Y1810221D02*
X9317279Y1902145D01*
X9062721Y1972855D02*
X9225355Y1810221D01*
X9062721Y1972855D02*
X9154645Y2064779D01*
X9317279Y1902145D01*
X9172322Y1919822D02*
X9207678Y1955178D01*
X9172322D02*
X9207678Y1919822D01*
X8795000Y2210000D02*
Y2540000D01*
X8425000Y2210000D02*
Y2540000D01*
X8795000D01*
X8425000Y2210000D02*
X8795000D01*
X9652527Y1553126D02*
X9716874Y1617473D01*
X9523126Y1682527D02*
X9652527Y1553126D01*
X9523126Y1682527D02*
X9587473Y1746874D01*
X9716874Y1617473D01*
X9602322Y1632322D02*
X9637678Y1667678D01*
X9602322D02*
X9637678Y1632322D01*
X9763127Y1597473D02*
X9827473Y1533126D01*
X9763127Y1597473D02*
X9892527Y1726874D01*
X9956874Y1662527D01*
X9827473Y1533126D02*
X9956874Y1662527D01*
X9842322Y1647678D02*
X9877678Y1612322D01*
X9842322D02*
X9877678Y1647678D01*
X8545221Y2509644D02*
X8637145Y2417720D01*
X8799779Y2580355D01*
X8707855Y2672279D02*
X8799779Y2580355D01*
X8545221Y2509644D02*
X8707855Y2672279D01*
X8654822Y2562677D02*
X8690178Y2527322D01*
X8654822D02*
X8690178Y2562677D01*
X8450221Y2604645D02*
X8542145Y2512720D01*
X8704780Y2675355D01*
X8612856Y2767279D02*
X8704780Y2675355D01*
X8450221Y2604645D02*
X8612856Y2767279D01*
X8559823Y2657677D02*
X8595178Y2622322D01*
X8559823D02*
X8595178Y2657677D01*
X9337617Y3148033D02*
X9578033Y2907617D01*
X9471967Y3282383D02*
X9712383Y3041967D01*
X9578033Y2907617D02*
X9712383Y3041967D01*
X9337617Y3148033D02*
X9471967Y3282383D01*
X9294822Y1787678D02*
X9330178Y1752322D01*
X9294822D02*
X9330178Y1787678D01*
X9347855Y1897279D02*
X9439779Y1805355D01*
X9185221Y1734645D02*
X9347855Y1897279D01*
X9185221Y1734645D02*
X9277145Y1642721D01*
X9439779Y1805355D01*
X9964822Y2047322D02*
X10000178Y2082678D01*
X9964822D02*
X10000178Y2047322D01*
X9855221Y2029645D02*
X10017855Y2192279D01*
X10109779Y2100355D01*
X9947145Y1937721D02*
X10109779Y2100355D01*
X9855221Y2029645D02*
X9947145Y1937721D01*
X10037322Y1714822D02*
X10072678Y1750177D01*
X10037322D02*
X10072678Y1714822D01*
X10090355Y1605220D02*
X10182279Y1697144D01*
X10019645Y1859779D02*
X10182279Y1697144D01*
X9927721Y1767855D02*
X10019645Y1859779D01*
X9927721Y1767855D02*
X10090355Y1605220D01*
X9867322Y1915178D02*
X9902678Y1879822D01*
X9867322D02*
X9902678Y1915178D01*
X9757721Y1932855D02*
X9920355Y1770220D01*
X9757721Y1932855D02*
X9849645Y2024779D01*
X10012279Y1862145D01*
X9920355Y1770220D02*
X10012279Y1862145D01*
X9252721Y3035355D02*
X9415355Y2872721D01*
X9252721Y3035355D02*
X9344645Y3127279D01*
X9507279Y2964645D01*
X9415355Y2872721D02*
X9507279Y2964645D01*
X9362322Y3017678D02*
X9397678Y2982322D01*
X9362322D02*
X9397678Y3017678D01*
X8367500Y2282500D02*
X8497500D01*
X8367500Y2052500D02*
Y2282500D01*
Y2052500D02*
X8497500D01*
Y2282500D01*
X8407500Y2167500D02*
X8457500D01*
X8432500Y2142500D02*
Y2192500D01*
%TF.MD5,dfa7a29f090816297b712b2ef166bef7*%
M02*
