%TF.GenerationSoftware,Altium Limited,Altium Designer,26.2.0 (7)*%
G04 Layer_Color=16711935*
%FSLAX45Y45*%
%MOMM*%
%TF.SameCoordinates,894498E9-F992-4E77-9241-7735D3C5E39B*%
%TF.FilePolarity,Positive*%
%TF.FileFunction,Other,Mechanical_1*%
%TF.Part,Single*%
G01*
G75*
%TA.AperFunction,NonConductor*%
%ADD58C,0.25400*%
%ADD59C,0.20000*%
%ADD104C,0.50000*%
%ADD105C,0.15240*%
D58*
X11325000Y3840000D02*
X11375800Y3687600D01*
X11274200D02*
X11325000Y3840000D01*
X11274200Y1192400D02*
X11325000Y1040000D01*
X11375800Y1192400D01*
X11325000Y2782789D02*
Y3840000D01*
Y1040000D02*
Y2015931D01*
X10932900Y3840000D02*
X11350400D01*
X10932899Y1040000D02*
X11350400D01*
X11307500Y6615000D02*
X11358300Y6462600D01*
X11256700D02*
X11307500Y6615000D01*
X11256700Y4367400D02*
X11307500Y4215000D01*
X11358300Y4367400D01*
X11307500Y5757789D02*
Y6615000D01*
Y4215000D02*
Y4990931D01*
X10432899Y6615000D02*
X11332900D01*
X10432899Y4215000D02*
X11332900D01*
X7582500Y7192500D02*
X7734900Y7243300D01*
X7582500Y7192500D02*
X7734900Y7141700D01*
X10430099D02*
X10582499Y7192500D01*
X10430099Y7243300D02*
X10582499Y7192500D01*
X7582500D02*
X8658430D01*
X9425288D02*
X10582499D01*
X7582500Y6465400D02*
Y7217900D01*
X10582499Y6465400D02*
Y7217900D01*
X5330000Y7522500D02*
X5482400Y7573300D01*
X5330000Y7522500D02*
X5482400Y7471700D01*
X10877600D02*
X11030000Y7522500D01*
X10877600Y7573300D02*
X11030000Y7522500D01*
X5330000D02*
X7755931D01*
X8522789D02*
X11030000D01*
X5330000Y7065400D02*
Y7547900D01*
X11030000Y7065400D02*
Y7547900D01*
X11557500Y7015001D02*
X11608300Y6862601D01*
X11506700D02*
X11557500Y7015001D01*
X11506700Y1217400D02*
X11557500Y1065000D01*
X11608300Y1217400D01*
X11557500Y4382790D02*
Y7015001D01*
Y1065000D02*
Y3615931D01*
X11080400Y7015001D02*
X11582900D01*
X10980399Y1065000D02*
X11582900D01*
X6831749Y5437533D02*
Y5488317D01*
Y5462925D01*
X6958707D01*
X6984099Y5488317D01*
Y5513709D01*
X6958707Y5539100D01*
X6984099Y5386750D02*
Y5335966D01*
Y5361358D01*
X6831749D01*
X6857140Y5386750D01*
Y5259791D02*
X6831749Y5234399D01*
Y5183615D01*
X6857140Y5158224D01*
X6958707D01*
X6984099Y5183615D01*
Y5234399D01*
X6958707Y5259791D01*
X6857140D01*
X6984099Y5031265D02*
X6831749D01*
X6907924Y5107440D01*
Y5005873D01*
X6831749Y3137533D02*
Y3188317D01*
Y3162925D01*
X6958708D01*
X6984100Y3188317D01*
Y3213709D01*
X6958708Y3239100D01*
X6984100Y3086750D02*
Y3035966D01*
Y3061358D01*
X6831749D01*
X6857141Y3086750D01*
Y2959791D02*
X6831749Y2934399D01*
Y2883616D01*
X6857141Y2858224D01*
X6958708D01*
X6984100Y2883616D01*
Y2934399D01*
X6958708Y2959791D01*
X6857141D01*
X6831749Y2705873D02*
Y2807440D01*
X6907924D01*
X6882532Y2756657D01*
Y2731265D01*
X6907924Y2705873D01*
X6958708D01*
X6984100Y2731265D01*
Y2782048D01*
X6958708Y2807440D01*
X10299251Y5223467D02*
Y5172683D01*
Y5198075D01*
X10172292D01*
X10146900Y5172683D01*
Y5147292D01*
X10172292Y5121900D01*
X10146900Y5274251D02*
Y5325034D01*
Y5299642D01*
X10299251D01*
X10273859Y5274251D01*
Y5401209D02*
X10299251Y5426601D01*
Y5477385D01*
X10273859Y5502777D01*
X10172292D01*
X10146900Y5477385D01*
Y5426601D01*
X10172292Y5401209D01*
X10273859D01*
X10146900Y5553560D02*
Y5604344D01*
Y5578952D01*
X10299251D01*
X10273859Y5553560D01*
X10736251Y2829032D02*
Y2879816D01*
Y2854424D01*
X10609292D01*
X10583900Y2879816D01*
Y2905208D01*
X10609292Y2930600D01*
X10583900Y2778249D02*
Y2727465D01*
Y2752857D01*
X10736251D01*
X10710859Y2778249D01*
Y2651290D02*
X10736251Y2625898D01*
Y2575115D01*
X10710859Y2549723D01*
X10609292D01*
X10583900Y2575115D01*
Y2625898D01*
X10609292Y2651290D01*
X10710859D01*
Y2498939D02*
X10736251Y2473548D01*
Y2422764D01*
X10710859Y2397372D01*
X10685468D01*
X10660076Y2422764D01*
Y2448156D01*
Y2422764D01*
X10634684Y2397372D01*
X10609292D01*
X10583900Y2422764D01*
Y2473548D01*
X10609292Y2498939D01*
X10604749Y1541967D02*
Y1491183D01*
Y1516575D01*
X10731708D01*
X10757100Y1491183D01*
Y1465792D01*
X10731708Y1440400D01*
X10757100Y1592751D02*
Y1643534D01*
Y1618143D01*
X10604749D01*
X10630141Y1592751D01*
Y1719710D02*
X10604749Y1745101D01*
Y1795885D01*
X10630141Y1821277D01*
X10731708D01*
X10757100Y1795885D01*
Y1745101D01*
X10731708Y1719710D01*
X10630141D01*
X10757100Y1973627D02*
Y1872060D01*
X10655533Y1973627D01*
X10630141D01*
X10604749Y1948236D01*
Y1897452D01*
X10630141Y1872060D01*
D59*
X6592999Y4950001D02*
Y5810000D01*
X5702999D02*
X6592999D01*
X5702999Y4950001D02*
Y5810000D01*
Y4950001D02*
X6592999D01*
Y2657500D02*
Y3517500D01*
X5702999D02*
X6592999D01*
X5702999Y2657500D02*
Y3517500D01*
Y2657500D02*
X6592999D01*
D104*
X8040000Y1065000D02*
G03*
X7780000Y1065000I-130000J0D01*
G01*
X10880000D02*
G03*
X10620000Y1065000I-130000J0D01*
G01*
X10930000D02*
G03*
X11030000Y1165000I0J100000D01*
G01*
X5330000Y7015000D02*
X11030000Y7015001D01*
X5329999Y1065000D02*
X5330000Y7015000D01*
X5329999Y1065000D02*
X7680000Y1065000D01*
X10880000D02*
X10929999D01*
X7680000D02*
X7780000D01*
X11030000Y1165000D02*
X11030000Y7015000D01*
X8040000Y1065000D02*
X10620000D01*
D105*
X11416415Y2158138D02*
Y2056571D01*
X11314848Y2158138D01*
X11289456D01*
X11264065Y2132746D01*
Y2081963D01*
X11289456Y2056571D01*
Y2208921D02*
X11264065Y2234313D01*
Y2285097D01*
X11289456Y2310489D01*
X11314848D01*
X11340240Y2285097D01*
X11365632Y2310489D01*
X11391023D01*
X11416415Y2285097D01*
Y2234313D01*
X11391023Y2208921D01*
X11365632D01*
X11340240Y2234313D01*
X11314848Y2208921D01*
X11289456D01*
X11340240Y2234313D02*
Y2285097D01*
X11416415Y2361272D02*
X11391023D01*
Y2386664D01*
X11416415D01*
Y2361272D01*
X11289456Y2488231D02*
X11264065Y2513623D01*
Y2564406D01*
X11289456Y2589798D01*
X11391023D01*
X11416415Y2564406D01*
Y2513623D01*
X11391023Y2488231D01*
X11289456D01*
Y2640582D02*
X11264065Y2665974D01*
Y2716757D01*
X11289456Y2742149D01*
X11391023D01*
X11416415Y2716757D01*
Y2665974D01*
X11391023Y2640582D01*
X11289456D01*
X11398915Y5133138D02*
Y5031571D01*
X11297348Y5133138D01*
X11271956D01*
X11246564Y5107746D01*
Y5056962D01*
X11271956Y5031571D01*
X11398915Y5260097D02*
X11246564D01*
X11322740Y5183921D01*
Y5285489D01*
X11398915Y5336272D02*
X11373523D01*
Y5361664D01*
X11398915D01*
Y5336272D01*
X11271956Y5463231D02*
X11246564Y5488623D01*
Y5539406D01*
X11271956Y5564798D01*
X11373523D01*
X11398915Y5539406D01*
Y5488623D01*
X11373523Y5463231D01*
X11271956D01*
Y5615582D02*
X11246564Y5640973D01*
Y5691757D01*
X11271956Y5717149D01*
X11373523D01*
X11398915Y5691757D01*
Y5640973D01*
X11373523Y5615582D01*
X11271956D01*
X8699070Y7228043D02*
X8724462Y7253435D01*
X8775246D01*
X8800637Y7228043D01*
Y7202652D01*
X8775246Y7177260D01*
X8749854D01*
X8775246D01*
X8800637Y7151868D01*
Y7126476D01*
X8775246Y7101085D01*
X8724462D01*
X8699070Y7126476D01*
X8851421Y7228043D02*
X8876813Y7253435D01*
X8927596D01*
X8952988Y7228043D01*
Y7126476D01*
X8927596Y7101085D01*
X8876813D01*
X8851421Y7126476D01*
Y7228043D01*
X9003772Y7101085D02*
Y7126476D01*
X9029164D01*
Y7101085D01*
X9003772D01*
X9130731Y7228043D02*
X9156122Y7253435D01*
X9206906D01*
X9232298Y7228043D01*
Y7126476D01*
X9206906Y7101085D01*
X9156122D01*
X9130731Y7126476D01*
Y7228043D01*
X9283081D02*
X9308473Y7253435D01*
X9359257D01*
X9384648Y7228043D01*
Y7126476D01*
X9359257Y7101085D01*
X9308473D01*
X9283081Y7126476D01*
Y7228043D01*
X7898138Y7583435D02*
X7796571D01*
Y7507260D01*
X7847354Y7532652D01*
X7872746D01*
X7898138Y7507260D01*
Y7456477D01*
X7872746Y7431085D01*
X7821963D01*
X7796571Y7456477D01*
X7948922Y7583435D02*
X8050489D01*
Y7558044D01*
X7948922Y7456477D01*
Y7431085D01*
X8101272D02*
Y7456477D01*
X8126664D01*
Y7431085D01*
X8101272D01*
X8228231Y7558044D02*
X8253623Y7583435D01*
X8304407D01*
X8329798Y7558044D01*
Y7456477D01*
X8304407Y7431085D01*
X8253623D01*
X8228231Y7456477D01*
Y7558044D01*
X8380582D02*
X8405974Y7583435D01*
X8456757D01*
X8482149Y7558044D01*
Y7456477D01*
X8456757Y7431085D01*
X8405974D01*
X8380582Y7456477D01*
Y7558044D01*
X11496565Y3758139D02*
Y3656571D01*
X11572740D01*
X11547348Y3707355D01*
Y3732747D01*
X11572740Y3758139D01*
X11623524D01*
X11648915Y3732747D01*
Y3681963D01*
X11623524Y3656571D01*
Y3808922D02*
X11648915Y3834314D01*
Y3885097D01*
X11623524Y3910489D01*
X11521957D01*
X11496565Y3885097D01*
Y3834314D01*
X11521957Y3808922D01*
X11547348D01*
X11572740Y3834314D01*
Y3910489D01*
X11648915Y3961273D02*
X11623524D01*
Y3986665D01*
X11648915D01*
Y3961273D01*
X11496565Y4189799D02*
Y4088232D01*
X11572740D01*
X11547348Y4139015D01*
Y4164407D01*
X11572740Y4189799D01*
X11623524D01*
X11648915Y4164407D01*
Y4113623D01*
X11623524Y4088232D01*
X11521957Y4240582D02*
X11496565Y4265974D01*
Y4316758D01*
X11521957Y4342150D01*
X11623524D01*
X11648915Y4316758D01*
Y4265974D01*
X11623524Y4240582D01*
X11521957D01*
%TF.MD5,e691d82a1929bf8d3401906acd046b87*%
M02*
