%TF.GenerationSoftware,Altium Limited,Altium Designer,26.2.0 (7)*%
G04 Layer_Color=16711935*
%FSLAX45Y45*%
%MOMM*%
%TF.SameCoordinates,894498E9-F992-4E77-9241-7735D3C5E39B*%
%TF.FilePolarity,Positive*%
%TF.FileFunction,Other,Mechanical_13*%
%TF.Part,Single*%
G01*
G75*
%TA.AperFunction,NonConductor*%
%ADD58C,0.25400*%
%ADD59C,0.20000*%
%ADD60C,0.25000*%
%ADD61C,0.12700*%
%ADD64C,0.10000*%
%ADD107C,0.05000*%
D58*
X8924500Y1492500D02*
X8824532D01*
Y1542484D01*
X8841193Y1559145D01*
X8874516D01*
X8891177Y1542484D01*
Y1492500D01*
X8924500Y1592468D02*
Y1625790D01*
Y1609129D01*
X8824532D01*
X8841193Y1592468D01*
Y1675774D02*
X8824532Y1692436D01*
Y1725758D01*
X8841193Y1742419D01*
X8907838D01*
X8924500Y1725758D01*
Y1692436D01*
X8907838Y1675774D01*
X8841193D01*
X8924500Y1842387D02*
Y1775742D01*
X8857855Y1842387D01*
X8841193D01*
X8824532Y1825726D01*
Y1792403D01*
X8841193Y1775742D01*
D59*
X10342501Y3257500D02*
G03*
X10342501Y3257500I-10000J0D01*
G01*
Y3120000D02*
G03*
X10342501Y3120000I-10000J0D01*
G01*
Y2982500D02*
G03*
X10342501Y2982500I-10000J0D01*
G01*
X7672499Y3597498D02*
X8432499D01*
X7672499Y3000000D02*
Y3597498D01*
Y3000000D02*
X8432499D01*
Y3597498D01*
X9416016Y3505813D02*
X10180000D01*
Y4547500D01*
X9416016D02*
X10180000D01*
X9416016Y3505813D02*
Y4547500D01*
X9212498Y2417501D02*
X9572498D01*
X9212498Y2137501D02*
Y2417501D01*
Y2137501D02*
X9572498D01*
Y2417501D01*
X8652499Y2962498D02*
X8932499D01*
Y2602498D02*
Y2962498D01*
X8652499Y2602498D02*
X8932499D01*
X8652499D02*
Y2962498D01*
X9820000Y3927531D02*
Y4010838D01*
X9836661Y4027499D01*
X9869984D01*
X9886645Y4010838D01*
Y3927531D01*
X9919968Y4027499D02*
X9953290D01*
X9936629D01*
Y3927531D01*
X9919968Y3944193D01*
X10003274D02*
X10019936Y3927531D01*
X10053258D01*
X10069919Y3944193D01*
Y4010838D01*
X10053258Y4027499D01*
X10019936D01*
X10003274Y4010838D01*
Y3944193D01*
X10103242Y4027499D02*
X10136564D01*
X10119903D01*
Y3927531D01*
X10103242Y3944193D01*
D60*
X10201639Y2573300D02*
X10184978Y2589962D01*
X10151656D01*
X10134994Y2573300D01*
Y2506655D01*
X10151656Y2489994D01*
X10184978D01*
X10201639Y2506655D01*
X10234962Y2489994D02*
X10268285D01*
X10251624D01*
Y2589962D01*
X10234962Y2573300D01*
X10318269D02*
X10334930Y2589962D01*
X10368253D01*
X10384914Y2573300D01*
Y2506655D01*
X10368253Y2489994D01*
X10334930D01*
X10318269Y2506655D01*
Y2573300D01*
X10418236Y2506655D02*
X10434898Y2489994D01*
X10468220D01*
X10484881Y2506655D01*
Y2573300D01*
X10468220Y2589962D01*
X10434898D01*
X10418236Y2573300D01*
Y2556639D01*
X10434898Y2539978D01*
X10484881D01*
X9325863Y2360798D02*
X9342524Y2377460D01*
X9375847D01*
X9392508Y2360798D01*
Y2294153D01*
X9375847Y2277492D01*
X9342524D01*
X9325863Y2294153D01*
X9292540Y2277492D02*
X9259218D01*
X9275879D01*
Y2377460D01*
X9292540Y2360798D01*
X9209234Y2277492D02*
X9175911D01*
X9192572D01*
Y2377460D01*
X9209234Y2360798D01*
X9125927D02*
X9109266Y2377460D01*
X9075943D01*
X9059282Y2360798D01*
Y2294153D01*
X9075943Y2277492D01*
X9109266D01*
X9125927Y2294153D01*
Y2360798D01*
X9049139Y3123300D02*
X9032478Y3139961D01*
X8999156D01*
X8982494Y3123300D01*
Y3056655D01*
X8999156Y3039994D01*
X9032478D01*
X9049139Y3056655D01*
X9082462Y3039994D02*
X9115785D01*
X9099124D01*
Y3139961D01*
X9082462Y3123300D01*
X9165769D02*
X9182430Y3139961D01*
X9215752D01*
X9232414Y3123300D01*
Y3056655D01*
X9215752Y3039994D01*
X9182430D01*
X9165769Y3056655D01*
Y3123300D01*
X9265736Y3139961D02*
X9332381D01*
Y3123300D01*
X9265736Y3056655D01*
Y3039994D01*
X8709202Y2715863D02*
X8692540Y2732524D01*
Y2765846D01*
X8709202Y2782508D01*
X8775847D01*
X8792508Y2765846D01*
Y2732524D01*
X8775847Y2715863D01*
X8792508Y2682540D02*
Y2649217D01*
Y2665879D01*
X8692540D01*
X8709202Y2682540D01*
Y2599234D02*
X8692540Y2582572D01*
Y2549250D01*
X8709202Y2532589D01*
X8775847D01*
X8792508Y2549250D01*
Y2582572D01*
X8775847Y2599234D01*
X8709202D01*
Y2499266D02*
X8692540Y2482604D01*
Y2449282D01*
X8709202Y2432621D01*
X8725863D01*
X8742524Y2449282D01*
X8759186Y2432621D01*
X8775847D01*
X8792508Y2449282D01*
Y2482604D01*
X8775847Y2499266D01*
X8759186D01*
X8742524Y2482604D01*
X8725863Y2499266D01*
X8709202D01*
X8742524Y2482604D02*
Y2449282D01*
X9631023Y3106781D02*
Y3130343D01*
X9607461Y3153906D01*
X9583898D01*
X9536773Y3106781D01*
Y3083218D01*
X9560335Y3059656D01*
X9583898D01*
X9595680Y3024311D02*
X9619242Y3000749D01*
X9607461Y3012530D01*
X9678149Y3083218D01*
X9654586D01*
X9713493Y3024311D02*
X9737055D01*
X9760618Y3000749D01*
X9760618Y2977186D01*
X9713493Y2930061D01*
X9689930Y2930061D01*
X9666368Y2953624D01*
Y2977186D01*
X9713493Y3024311D01*
X9784181Y2953624D02*
X9807743D01*
X9831306Y2930061D01*
Y2906498D01*
X9784181Y2859373D01*
X9760618Y2859373D01*
X9737055Y2882936D01*
Y2906498D01*
X9784181Y2953624D01*
D61*
X8675000Y6595000D02*
X9554999D01*
X8644999Y4435000D02*
X9585000D01*
X8644999D02*
Y4735000D01*
X8320000D02*
X8644999D01*
X9895000Y5030000D02*
Y5840000D01*
Y6075000D01*
Y4745000D02*
Y5030000D01*
X9554999Y6075000D02*
X9895000D01*
X8335000D02*
X8675000D01*
X9554999D02*
Y6595000D01*
X8675000Y6075000D02*
Y6595000D01*
X8134999Y5895000D02*
X8335000D01*
X8134999Y4935000D02*
X8320000D01*
X8134999D02*
Y5895000D01*
X8335000D02*
Y6075000D01*
X8320000Y4735000D02*
Y4935000D01*
X9585000Y4435000D02*
Y4745000D01*
X9895000D01*
D64*
X9427500Y1997305D02*
G03*
X9427500Y1997305I-50000J0D01*
G01*
X6637999Y5577501D02*
Y5657500D01*
X6797999D01*
Y5577501D02*
Y5657500D01*
X6637999Y5577501D02*
X6797999D01*
X6360499Y5325001D02*
Y5405000D01*
Y5325001D02*
X6520499D01*
Y5405000D01*
X6360499D02*
X6520499D01*
X5872999Y5315000D02*
Y5475000D01*
Y5315000D02*
X5952999D01*
Y5475000D01*
X5872999D02*
X5952999D01*
X6642999Y3265001D02*
Y3345000D01*
X6803000D01*
Y3265001D02*
Y3345000D01*
X6642999Y3265001D02*
X6803000D01*
X5873000Y3022500D02*
Y3182500D01*
Y3022500D02*
X5953000D01*
Y3182500D01*
X5873000D02*
X5953000D01*
X6360499Y3112500D02*
X6520500D01*
Y3032500D02*
Y3112500D01*
X6360499Y3032500D02*
X6520500D01*
X6360499D02*
Y3112500D01*
X9565000Y5342500D02*
X9725000D01*
Y5262500D02*
Y5342500D01*
X9565000Y5262500D02*
X9725000D01*
X9565000D02*
Y5342500D01*
Y5482500D02*
X9725000D01*
Y5402500D02*
Y5482500D01*
X9565000Y5402500D02*
X9725000D01*
X9565000D02*
Y5482500D01*
X9322500Y5122500D02*
X9482500D01*
Y5202500D01*
X9322500D02*
X9482500D01*
X9322500Y5122500D02*
Y5202500D01*
Y5265000D02*
X9482500D01*
X9322500D02*
Y5345000D01*
X9482500D01*
Y5265000D02*
Y5345000D01*
X9442500Y5762500D02*
X9602500D01*
Y5682500D02*
Y5762500D01*
X9442500Y5682500D02*
X9602500D01*
X9442500D02*
Y5762500D01*
X9565000Y5202500D02*
X9725000D01*
Y5122500D02*
Y5202500D01*
X9565000Y5122500D02*
X9725000D01*
X9565000D02*
Y5202500D01*
X9564999Y5542500D02*
Y5622500D01*
Y5542500D02*
X9725000D01*
Y5622500D01*
X9564999D02*
X9725000D01*
X9322500Y5542500D02*
X9482500D01*
Y5622500D01*
X9322500D02*
X9482500D01*
X9322500Y5542500D02*
Y5622500D01*
Y5402500D02*
X9482500D01*
Y5482500D01*
X9322500D02*
X9482500D01*
X9322500Y5402500D02*
Y5482500D01*
X10127500Y3002500D02*
X10207500D01*
X10127500Y2842500D02*
Y3002500D01*
Y2842500D02*
X10207500D01*
Y3002500D01*
X10494645Y1308713D02*
X10551213Y1252145D01*
X10494645Y1308713D02*
X10607782Y1421850D01*
X10664350Y1365282D01*
X10551213Y1252145D02*
X10664350Y1365282D01*
X10265000Y2842500D02*
X10345000D01*
X10265000D02*
Y3002500D01*
X10345000D01*
Y2842500D02*
Y3002500D01*
X10433284Y1355147D02*
X10489853Y1411715D01*
X10376716Y1524853D02*
X10489853Y1411715D01*
X10320147Y1468284D02*
X10376716Y1524853D01*
X10320147Y1468284D02*
X10433284Y1355147D01*
X9675000Y1487500D02*
Y1567500D01*
X9515000D02*
X9675000D01*
X9515000Y1487500D02*
Y1567500D01*
Y1487500D02*
X9675000D01*
X10347500Y1238500D02*
Y1492500D01*
X9077500Y1238500D02*
Y1492500D01*
Y1238500D02*
X10347500D01*
X9077500Y1492500D02*
X10347500D01*
X10177500Y3182500D02*
X10347500D01*
X10177500Y3272500D02*
X10347500D01*
Y3182500D02*
Y3272500D01*
X10177500Y3182500D02*
Y3272500D01*
X9377500Y2859975D02*
X9872475Y2365000D01*
X8882525D02*
X9377500Y1870025D01*
X8882525Y2365000D02*
X9377500Y2859975D01*
Y1870025D02*
X9872475Y2365000D01*
X10177500Y3045000D02*
Y3135000D01*
X10347500Y3045000D02*
Y3135000D01*
X10177500D02*
X10347500D01*
X10177500Y3045000D02*
X10347500D01*
X9910000Y3050000D02*
Y3130000D01*
X10070000D01*
Y3050000D02*
Y3130000D01*
X9910000Y3050000D02*
X10070000D01*
X10177500Y2907500D02*
Y2997500D01*
X10347500Y2907500D02*
Y2997500D01*
X10177500D02*
X10347500D01*
X10177500Y2907500D02*
X10347500D01*
X9910000Y3187500D02*
Y3267500D01*
X10070000D01*
Y3187500D02*
Y3267500D01*
X9910000Y3187500D02*
X10070000D01*
X9910000Y2912500D02*
Y2992500D01*
X10070000D01*
Y2912500D02*
Y2992500D01*
X9910000Y2912500D02*
X10070000D01*
X8798787Y2287145D02*
X8855355Y2343713D01*
X8742218Y2456850D02*
X8855355Y2343713D01*
X8685650Y2400282D02*
X8742218Y2456850D01*
X8685650Y2400282D02*
X8798787Y2287145D01*
X9325147Y1644216D02*
X9381716Y1587647D01*
X9494853Y1700785D01*
X9438284Y1757353D02*
X9494853Y1700785D01*
X9325147Y1644216D02*
X9438284Y1757353D01*
X8062500Y2887500D02*
Y2967500D01*
X7902500D02*
X8062500D01*
X7902500Y2887500D02*
Y2967500D01*
Y2887500D02*
X8062500D01*
X8142500D02*
Y2967500D01*
X8302500D01*
Y2887500D02*
Y2967500D01*
X8142500Y2887500D02*
X8302500D01*
X8424513Y2595016D02*
X8590519D01*
X8424513D02*
Y2915016D01*
X8590519D01*
Y2595016D02*
Y2915016D01*
X9567500Y3157500D02*
X9727500D01*
Y3237500D01*
X9567500D02*
X9727500D01*
X9567500Y3157500D02*
Y3237500D01*
Y3292500D02*
Y3372500D01*
X9727500D01*
Y3292500D02*
Y3372500D01*
X9567500Y3292500D02*
X9727500D01*
X10030000Y2422500D02*
Y2557500D01*
X10240000Y2422500D02*
Y2557500D01*
X10030000D02*
X10240000D01*
X10030000Y2422500D02*
X10240000D01*
X9629977Y2527484D02*
X10279998Y2527492D01*
Y1827500D02*
Y2527492D01*
X9629986Y1827468D02*
X10279998Y1827500D01*
X9629977Y2527484D02*
X9629986Y1827468D01*
X8877500Y2972500D02*
Y3107500D01*
X9087500Y2972500D02*
Y3107500D01*
X8877500D02*
X9087500D01*
X8877500Y2972500D02*
X9087500D01*
X9195000Y2460000D02*
X9195000Y3130000D01*
X9565000Y2460000D02*
Y3130000D01*
X9195000Y2460000D02*
X9565000D01*
X9195000Y3130000D02*
X9565000D01*
X9218284Y1852647D02*
X9274853Y1909216D01*
X9161715Y2022353D02*
X9274853Y1909216D01*
X9105147Y1965784D02*
X9161715Y2022353D01*
X9105147Y1965784D02*
X9218284Y1852647D01*
X8680000Y2223000D02*
Y2527000D01*
X8540000Y2223000D02*
Y2527000D01*
X8680000D01*
X8540000Y2223000D02*
X8680000D01*
X8587647Y2516715D02*
X8644216Y2460147D01*
X8587647Y2516715D02*
X8700784Y2629853D01*
X8757353Y2573284D01*
X8644216Y2460147D02*
X8757353Y2573284D01*
X8492647Y2611715D02*
X8549216Y2555147D01*
X8492647Y2611715D02*
X8605785Y2724853D01*
X8662353Y2668284D01*
X8549216Y2555147D02*
X8662353Y2668284D01*
X9403024Y3121516D02*
X9551516Y2973024D01*
X9498483Y3216976D02*
X9646976Y3068484D01*
X9551516Y2973024D02*
X9646976Y3068484D01*
X9403024Y3121516D02*
X9498483Y3216976D01*
X9284216Y1685147D02*
X9397353Y1798284D01*
X9227647Y1741716D02*
X9284216Y1685147D01*
X9227647Y1741716D02*
X9340784Y1854853D01*
X9397353Y1798284D01*
X9954216Y1980147D02*
X10067353Y2093284D01*
X10010784Y2149853D02*
X10067353Y2093284D01*
X9897647Y2036716D02*
X10010784Y2149853D01*
X9897647Y2036716D02*
X9954216Y1980147D01*
X9970147Y1760784D02*
X10083284Y1647647D01*
X9970147Y1760784D02*
X10026716Y1817352D01*
X10139853Y1704215D01*
X10083284Y1647647D02*
X10139853Y1704215D01*
X9856716Y1982353D02*
X9969853Y1869215D01*
X9800147Y1925784D02*
X9856716Y1982353D01*
X9800147Y1925784D02*
X9913284Y1812647D01*
X9969853Y1869215D01*
X9408284Y2915147D02*
X9464853Y2971716D01*
X9351716Y3084853D02*
X9464853Y2971716D01*
X9295147Y3028285D02*
X9351716Y3084853D01*
X9295147Y3028285D02*
X9408284Y2915147D01*
X8392500Y2247500D02*
X8472500D01*
Y2087500D02*
Y2247500D01*
X8392500Y2087500D02*
X8472500D01*
X8392500D02*
Y2247500D01*
X8253500Y1482000D02*
Y1432016D01*
X8228508D01*
X8220178Y1440347D01*
Y1457008D01*
X8228508Y1465339D01*
X8253500D01*
X8203516Y1482000D02*
X8186855D01*
X8195186D01*
Y1432016D01*
X8203516Y1440347D01*
X8161863D02*
X8153533Y1432016D01*
X8136871D01*
X8128541Y1440347D01*
Y1473669D01*
X8136871Y1482000D01*
X8153533D01*
X8161863Y1473669D01*
Y1440347D01*
X8111880D02*
X8103549Y1432016D01*
X8086888D01*
X8078557Y1440347D01*
Y1473669D01*
X8086888Y1482000D01*
X8103549D01*
X8111880Y1473669D01*
Y1440347D01*
X8239992Y3307500D02*
X8299973D01*
Y3277510D01*
X8289976Y3267513D01*
X8269982D01*
X8259986Y3277510D01*
Y3307500D01*
X8239992Y3247519D02*
Y3227526D01*
Y3237523D01*
X8299973D01*
X8289976Y3247519D01*
Y3197536D02*
X8299973Y3187539D01*
Y3167545D01*
X8289976Y3157549D01*
X8249989D01*
X8239992Y3167545D01*
Y3187539D01*
X8249989Y3197536D01*
X8289976D01*
X8239992Y3137555D02*
Y3117561D01*
Y3127558D01*
X8299973D01*
X8289976Y3137555D01*
X9389995Y2705032D02*
Y2755016D01*
X9399992Y2765013D01*
X9419986D01*
X9429982Y2755016D01*
Y2705032D01*
X9449976Y2765013D02*
X9469970D01*
X9459973D01*
Y2705032D01*
X9449976Y2715029D01*
X9499960D02*
X9509956Y2705032D01*
X9529950D01*
X9539947Y2715029D01*
Y2755016D01*
X9529950Y2765013D01*
X9509956D01*
X9499960Y2755016D01*
Y2715029D01*
X9599927Y2765013D02*
X9559940D01*
X9599927Y2725026D01*
Y2715029D01*
X9589931Y2705032D01*
X9569937D01*
X9559940Y2715029D01*
X9895013Y2167497D02*
X9936666D01*
X9944997Y2159166D01*
Y2142505D01*
X9936666Y2134174D01*
X9895013D01*
X9944997Y2117513D02*
Y2100852D01*
Y2109182D01*
X9895013D01*
X9903343Y2117513D01*
Y2075860D02*
X9895013Y2067529D01*
Y2050868D01*
X9903343Y2042537D01*
X9936666D01*
X9944997Y2050868D01*
Y2067529D01*
X9936666Y2075860D01*
X9903343D01*
Y2025876D02*
X9895013Y2017546D01*
Y2000884D01*
X9903343Y1992554D01*
X9911674D01*
X9920005Y2000884D01*
Y2009215D01*
Y2000884D01*
X9928335Y1992554D01*
X9936666D01*
X9944997Y2000884D01*
Y2017546D01*
X9936666Y2025876D01*
X6654499Y5592101D02*
Y5642084D01*
X6679491D01*
X6687822Y5633754D01*
Y5617092D01*
X6679491Y5608762D01*
X6654499D01*
X6671160D02*
X6687822Y5592101D01*
X6704483D02*
X6721144D01*
X6712814D01*
Y5642084D01*
X6704483Y5633754D01*
X6746136D02*
X6754467Y5642084D01*
X6771128D01*
X6779459Y5633754D01*
Y5600431D01*
X6771128Y5592101D01*
X6754467D01*
X6746136Y5600431D01*
Y5633754D01*
X6796120Y5600431D02*
X6804450Y5592101D01*
X6821112D01*
X6829442Y5600431D01*
Y5633754D01*
X6821112Y5642084D01*
X6804450D01*
X6796120Y5633754D01*
Y5625423D01*
X6804450Y5617092D01*
X6829442D01*
X6376999Y5390400D02*
Y5340417D01*
X6401991D01*
X6410322Y5348747D01*
Y5365409D01*
X6401991Y5373739D01*
X6376999D01*
X6393660D02*
X6410322Y5390400D01*
X6426983D02*
X6443644D01*
X6435314D01*
Y5340417D01*
X6426983Y5348747D01*
X6468636D02*
X6476967Y5340417D01*
X6493628D01*
X6501959Y5348747D01*
Y5382070D01*
X6493628Y5390400D01*
X6476967D01*
X6468636Y5382070D01*
Y5348747D01*
X6518620D02*
X6526950Y5340417D01*
X6543612D01*
X6551942Y5348747D01*
Y5357078D01*
X6543612Y5365409D01*
X6551942Y5373739D01*
Y5382070D01*
X6543612Y5390400D01*
X6526950D01*
X6518620Y5382070D01*
Y5373739D01*
X6526950Y5365409D01*
X6518620Y5357078D01*
Y5348747D01*
X6526950Y5365409D02*
X6543612D01*
X5896346Y5441678D02*
X5888016Y5450009D01*
Y5466670D01*
X5896346Y5475000D01*
X5929669D01*
X5937999Y5466670D01*
Y5450009D01*
X5929669Y5441678D01*
X5937999Y5425017D02*
Y5408356D01*
Y5416686D01*
X5888016D01*
X5896346Y5425017D01*
X5937999Y5383364D02*
Y5366703D01*
Y5375033D01*
X5888016D01*
X5896346Y5383364D01*
X5937999Y5341710D02*
Y5325049D01*
Y5333380D01*
X5888016D01*
X5896346Y5341710D01*
X6659500Y3279601D02*
Y3329584D01*
X6684491D01*
X6692822Y3321254D01*
Y3304592D01*
X6684491Y3296262D01*
X6659500D01*
X6676161D02*
X6692822Y3279601D01*
X6709483D02*
X6726144D01*
X6717814D01*
Y3329584D01*
X6709483Y3321254D01*
X6751136Y3279601D02*
X6767797D01*
X6759467D01*
Y3329584D01*
X6751136Y3321254D01*
X6792790Y3329584D02*
X6826112D01*
Y3321254D01*
X6792790Y3287931D01*
Y3279601D01*
X5896346Y3149178D02*
X5888016Y3157509D01*
Y3174170D01*
X5896346Y3182500D01*
X5929669D01*
X5938000Y3174170D01*
Y3157509D01*
X5929669Y3149178D01*
X5938000Y3132517D02*
Y3115856D01*
Y3124186D01*
X5888016D01*
X5896346Y3132517D01*
X5938000Y3090864D02*
Y3074202D01*
Y3082533D01*
X5888016D01*
X5896346Y3090864D01*
X5938000Y3015888D02*
Y3049210D01*
X5904677Y3015888D01*
X5896346D01*
X5888016Y3024218D01*
Y3040880D01*
X5896346Y3049210D01*
X6376999Y3097900D02*
Y3047917D01*
X6401991D01*
X6410322Y3056247D01*
Y3072909D01*
X6401991Y3081239D01*
X6376999D01*
X6393661D02*
X6410322Y3097900D01*
X6426983D02*
X6443644D01*
X6435314D01*
Y3047917D01*
X6426983Y3056247D01*
X6468636Y3097900D02*
X6485297D01*
X6476967D01*
Y3047917D01*
X6468636Y3056247D01*
X6543612Y3047917D02*
X6526951Y3056247D01*
X6510289Y3072909D01*
Y3089570D01*
X6518620Y3097900D01*
X6535281D01*
X6543612Y3089570D01*
Y3081239D01*
X6535281Y3072909D01*
X6510289D01*
X9581500Y5327900D02*
Y5277916D01*
X9606492D01*
X9614822Y5286246D01*
Y5302908D01*
X9606492Y5311239D01*
X9581500D01*
X9598161D02*
X9614822Y5327900D01*
X9631483D02*
X9648145D01*
X9639814D01*
Y5277916D01*
X9631483Y5286246D01*
X9673137Y5327900D02*
X9689798D01*
X9681467D01*
Y5277916D01*
X9673137Y5286246D01*
X9739782Y5327900D02*
Y5277916D01*
X9714790Y5302908D01*
X9748112D01*
X9581500Y5467900D02*
Y5417916D01*
X9606492D01*
X9614822Y5426246D01*
Y5442908D01*
X9606492Y5451239D01*
X9581500D01*
X9598161D02*
X9614822Y5467900D01*
X9631483D02*
X9648145D01*
X9639814D01*
Y5417916D01*
X9631483Y5426246D01*
X9673137Y5467900D02*
X9689798D01*
X9681467D01*
Y5417916D01*
X9673137Y5426246D01*
X9714790D02*
X9723121Y5417916D01*
X9739782D01*
X9748112Y5426246D01*
Y5434577D01*
X9739782Y5442908D01*
X9731451D01*
X9739782D01*
X9748112Y5451239D01*
Y5459569D01*
X9739782Y5467900D01*
X9723121D01*
X9714790Y5459569D01*
X9355822Y5145846D02*
X9347491Y5137516D01*
X9330830D01*
X9322500Y5145846D01*
Y5179169D01*
X9330830Y5187500D01*
X9347491D01*
X9355822Y5179169D01*
X9372483Y5187500D02*
X9389144D01*
X9380814D01*
Y5137516D01*
X9372483Y5145846D01*
X9414136Y5187500D02*
X9430797D01*
X9422467D01*
Y5137516D01*
X9414136Y5145846D01*
X9480781Y5187500D02*
Y5137516D01*
X9455790Y5162508D01*
X9489112D01*
X9466000Y5279600D02*
Y5329583D01*
X9441008D01*
X9432677Y5321253D01*
Y5304592D01*
X9441008Y5296261D01*
X9466000D01*
X9449338D02*
X9432677Y5279600D01*
X9416016D02*
X9399355D01*
X9407685D01*
Y5329583D01*
X9416016Y5321253D01*
X9374363Y5279600D02*
X9357702D01*
X9366032D01*
Y5329583D01*
X9374363Y5321253D01*
X9332710D02*
X9324379Y5329583D01*
X9307718D01*
X9299387Y5321253D01*
Y5287930D01*
X9307718Y5279600D01*
X9324379D01*
X9332710Y5287930D01*
Y5321253D01*
X9459000Y5747900D02*
Y5697916D01*
X9483992D01*
X9492322Y5706247D01*
Y5722908D01*
X9483992Y5731239D01*
X9459000D01*
X9475661D02*
X9492322Y5747900D01*
X9508984D02*
X9525645D01*
X9517314D01*
Y5697916D01*
X9508984Y5706247D01*
X9550637Y5747900D02*
X9567298D01*
X9558967D01*
Y5697916D01*
X9550637Y5706247D01*
X9625612Y5747900D02*
X9592290D01*
X9625612Y5714577D01*
Y5706247D01*
X9617282Y5697916D01*
X9600621D01*
X9592290Y5706247D01*
X9581500Y5187900D02*
Y5137916D01*
X9606492D01*
X9614822Y5146247D01*
Y5162908D01*
X9606492Y5171239D01*
X9581500D01*
X9598161D02*
X9614822Y5187900D01*
X9631483D02*
X9648145D01*
X9639814D01*
Y5137916D01*
X9631483Y5146247D01*
X9673137Y5187900D02*
X9689798D01*
X9681467D01*
Y5137916D01*
X9673137Y5146247D01*
X9714790Y5187900D02*
X9731451D01*
X9723121D01*
Y5137916D01*
X9714790Y5146247D01*
X9581500Y5607900D02*
Y5557916D01*
X9606491D01*
X9614822Y5566246D01*
Y5582908D01*
X9606491Y5591239D01*
X9581500D01*
X9598161D02*
X9614822Y5607900D01*
X9631483D02*
X9648144D01*
X9639814D01*
Y5557916D01*
X9631483Y5566246D01*
X9673136Y5607900D02*
X9689797D01*
X9681467D01*
Y5557916D01*
X9673136Y5566246D01*
X9748112Y5557916D02*
X9714790D01*
Y5582908D01*
X9731451Y5574577D01*
X9739781D01*
X9748112Y5582908D01*
Y5599569D01*
X9739781Y5607900D01*
X9723120D01*
X9714790Y5599569D01*
X9355822Y5565846D02*
X9347491Y5557516D01*
X9330830D01*
X9322500Y5565846D01*
Y5599169D01*
X9330830Y5607500D01*
X9347491D01*
X9355822Y5599169D01*
X9372483Y5607500D02*
X9389144D01*
X9380814D01*
Y5557516D01*
X9372483Y5565846D01*
X9414136Y5607500D02*
X9430797D01*
X9422467D01*
Y5557516D01*
X9414136Y5565846D01*
X9489112Y5557516D02*
X9455790D01*
Y5582508D01*
X9472451Y5574177D01*
X9480781D01*
X9489112Y5582508D01*
Y5599169D01*
X9480781Y5607500D01*
X9464120D01*
X9455790Y5599169D01*
X9355822Y5425846D02*
X9347491Y5417516D01*
X9330830D01*
X9322500Y5425846D01*
Y5459169D01*
X9330830Y5467500D01*
X9347491D01*
X9355822Y5459169D01*
X9372483Y5467500D02*
X9389144D01*
X9380814D01*
Y5417516D01*
X9372483Y5425846D01*
X9414136Y5467500D02*
X9430797D01*
X9422467D01*
Y5417516D01*
X9414136Y5425846D01*
X9455790D02*
X9464120Y5417516D01*
X9480781D01*
X9489112Y5425846D01*
Y5434177D01*
X9480781Y5442508D01*
X9472451D01*
X9480781D01*
X9489112Y5450838D01*
Y5459169D01*
X9480781Y5467500D01*
X9464120D01*
X9455790Y5459169D01*
X10192900Y2986000D02*
X10142916D01*
Y2961008D01*
X10151247Y2952678D01*
X10167908D01*
X10176239Y2961008D01*
Y2986000D01*
Y2969339D02*
X10192900Y2952678D01*
Y2936016D02*
Y2919355D01*
Y2927686D01*
X10142916D01*
X10151247Y2936016D01*
X10192900Y2861041D02*
Y2894363D01*
X10159578Y2861041D01*
X10151247D01*
X10142916Y2869371D01*
Y2886033D01*
X10151247Y2894363D01*
X10192900Y2844380D02*
Y2827718D01*
Y2836049D01*
X10142916D01*
X10151247Y2844380D01*
X10558267Y1292216D02*
X10558267Y1280435D01*
X10546486Y1268654D01*
X10534705Y1268653D01*
X10511142Y1292216D01*
Y1303997D01*
X10522923Y1315778D01*
X10534705D01*
X10540595Y1333450D02*
X10552376Y1345231D01*
X10546486Y1339341D01*
X10581829Y1303997D01*
X10570048Y1303997D01*
X10593611Y1386466D02*
X10570048Y1362904D01*
X10617174D01*
X10623064Y1357013D01*
Y1345232D01*
X10611283Y1333450D01*
X10599502D01*
X10605392Y1398247D02*
X10617173Y1410029D01*
X10611283Y1404138D01*
X10646627Y1368794D01*
X10634845Y1368794D01*
X10321653Y2875823D02*
X10329984Y2867492D01*
Y2850831D01*
X10321653Y2842500D01*
X10288331D01*
X10280000Y2850831D01*
Y2867492D01*
X10288331Y2875823D01*
X10280000Y2892484D02*
Y2909145D01*
Y2900814D01*
X10329984D01*
X10321653Y2892484D01*
X10280000Y2967459D02*
Y2934137D01*
X10313323Y2967459D01*
X10321653D01*
X10329984Y2959129D01*
Y2942468D01*
X10321653Y2934137D01*
Y2984121D02*
X10329984Y2992451D01*
Y3009112D01*
X10321653Y3017443D01*
X10288331D01*
X10280000Y3009112D01*
Y2992451D01*
X10288331Y2984121D01*
X10321653D01*
X10431941Y1377138D02*
X10467285Y1412482D01*
X10449613Y1430154D01*
X10437832Y1430154D01*
X10426050Y1418373D01*
Y1406591D01*
X10443722Y1388919D01*
X10431941Y1400701D02*
X10408378Y1400701D01*
X10396597Y1412482D02*
X10384816Y1424263D01*
X10390706Y1418373D01*
X10426050Y1453716D01*
X10426050Y1441935D01*
X10343581Y1465498D02*
X10367144Y1441935D01*
Y1489061D01*
X10373034Y1494951D01*
X10384816D01*
X10396597Y1483170D01*
Y1471388D01*
X10308237Y1500842D02*
X10331800Y1477279D01*
Y1524404D01*
X10337691Y1530295D01*
X10349472Y1530295D01*
X10361253Y1518514D01*
X10361253Y1506732D01*
X9658500Y1502100D02*
Y1552084D01*
X9633508D01*
X9625178Y1543753D01*
Y1527092D01*
X9633508Y1518761D01*
X9658500D01*
X9641839D02*
X9625178Y1502100D01*
X9608516D02*
X9591855D01*
X9600186D01*
Y1552084D01*
X9608516Y1543753D01*
X9533541Y1502100D02*
X9566863D01*
X9533541Y1535423D01*
Y1543753D01*
X9541871Y1552084D01*
X9558533D01*
X9566863Y1543753D01*
X9516880D02*
X9508549Y1552084D01*
X9491888D01*
X9483557Y1543753D01*
Y1535423D01*
X9491888Y1527092D01*
X9500218D01*
X9491888D01*
X9483557Y1518761D01*
Y1510431D01*
X9491888Y1502100D01*
X9508549D01*
X9516880Y1510431D01*
X10177500Y3262081D02*
Y3202100D01*
X10207490D01*
X10217487Y3212097D01*
Y3252084D01*
X10207490Y3262081D01*
X10177500D01*
X10237481Y3202100D02*
X10257474D01*
X10247477D01*
Y3262081D01*
X10237481Y3252084D01*
X10287464D02*
X10297461Y3262081D01*
X10317455D01*
X10327451Y3252084D01*
Y3212097D01*
X10317455Y3202100D01*
X10297461D01*
X10287464Y3212097D01*
Y3252084D01*
X10347445D02*
X10357442Y3262081D01*
X10377435D01*
X10387432Y3252084D01*
Y3242087D01*
X10377435Y3232090D01*
X10367438D01*
X10377435D01*
X10387432Y3222094D01*
Y3212097D01*
X10377435Y3202100D01*
X10357442D01*
X10347445Y3212097D01*
X10177500Y3124580D02*
Y3064600D01*
X10207490D01*
X10217487Y3074597D01*
Y3114584D01*
X10207490Y3124580D01*
X10177500D01*
X10237481Y3064600D02*
X10257474D01*
X10247477D01*
Y3124580D01*
X10237481Y3114584D01*
X10287464D02*
X10297461Y3124580D01*
X10317455D01*
X10327451Y3114584D01*
Y3074597D01*
X10317455Y3064600D01*
X10297461D01*
X10287464Y3074597D01*
Y3114584D01*
X10387432Y3064600D02*
X10347445D01*
X10387432Y3104587D01*
Y3114584D01*
X10377435Y3124580D01*
X10357442D01*
X10347445Y3114584D01*
X9926500Y3064600D02*
Y3114584D01*
X9951492D01*
X9959823Y3106253D01*
Y3089592D01*
X9951492Y3081261D01*
X9926500D01*
X9943161D02*
X9959823Y3064600D01*
X9976484D02*
X9993145D01*
X9984814D01*
Y3114584D01*
X9976484Y3106253D01*
X10018137D02*
X10026468Y3114584D01*
X10043129D01*
X10051459Y3106253D01*
Y3072931D01*
X10043129Y3064600D01*
X10026468D01*
X10018137Y3072931D01*
Y3106253D01*
X10101443Y3114584D02*
X10068121D01*
Y3089592D01*
X10084782Y3097922D01*
X10093112D01*
X10101443Y3089592D01*
Y3072931D01*
X10093112Y3064600D01*
X10076451D01*
X10068121Y3072931D01*
X10177500Y2987081D02*
Y2927100D01*
X10207490D01*
X10217487Y2937097D01*
Y2977084D01*
X10207490Y2987081D01*
X10177500D01*
X10237481Y2927100D02*
X10257474D01*
X10247477D01*
Y2987081D01*
X10237481Y2977084D01*
X10287464D02*
X10297461Y2987081D01*
X10317455D01*
X10327451Y2977084D01*
Y2937097D01*
X10317455Y2927100D01*
X10297461D01*
X10287464Y2937097D01*
Y2977084D01*
X10377435Y2927100D02*
Y2987081D01*
X10347445Y2957090D01*
X10387432D01*
X9926500Y3202100D02*
Y3252084D01*
X9951492D01*
X9959823Y3243753D01*
Y3227092D01*
X9951492Y3218761D01*
X9926500D01*
X9943161D02*
X9959823Y3202100D01*
X9976484D02*
X9993145D01*
X9984814D01*
Y3252084D01*
X9976484Y3243753D01*
X10018137D02*
X10026468Y3252084D01*
X10043129D01*
X10051459Y3243753D01*
Y3210431D01*
X10043129Y3202100D01*
X10026468D01*
X10018137Y3210431D01*
Y3243753D01*
X10101443Y3252084D02*
X10084782Y3243753D01*
X10068121Y3227092D01*
Y3210431D01*
X10076451Y3202100D01*
X10093112D01*
X10101443Y3210431D01*
Y3218761D01*
X10093112Y3227092D01*
X10068121D01*
X9926500Y2927100D02*
Y2977084D01*
X9951492D01*
X9959823Y2968753D01*
Y2952092D01*
X9951492Y2943761D01*
X9926500D01*
X9943161D02*
X9959823Y2927100D01*
X9976484D02*
X9993145D01*
X9984814D01*
Y2977084D01*
X9976484Y2968753D01*
X10018137D02*
X10026468Y2977084D01*
X10043129D01*
X10051459Y2968753D01*
Y2935431D01*
X10043129Y2927100D01*
X10026468D01*
X10018137Y2935431D01*
Y2968753D01*
X10068121Y2977084D02*
X10101443D01*
Y2968753D01*
X10068121Y2935431D01*
Y2927100D01*
X8791733Y2327216D02*
X8791733Y2315435D01*
X8803514Y2303654D01*
X8815295Y2303653D01*
X8838858Y2327216D01*
Y2338997D01*
X8827077Y2350778D01*
X8815295D01*
X8809405Y2368450D02*
X8797624Y2380231D01*
X8803514Y2374341D01*
X8768170Y2338997D01*
X8779952Y2338997D01*
X8750498Y2368450D02*
X8738717D01*
X8726936Y2380232D01*
Y2392013D01*
X8750498Y2415576D01*
X8762280D01*
X8774061Y2403794D01*
Y2392013D01*
X8750498Y2368450D01*
X8721045Y2456810D02*
X8744608Y2433247D01*
X8697483D01*
X8691592Y2427357D01*
X8691592Y2415576D01*
X8703373Y2403794D01*
X8715155Y2403794D01*
X9365218Y1651270D02*
X9353437Y1651269D01*
X9341656Y1639488D01*
X9341656Y1627707D01*
X9365218Y1604145D01*
X9377000D01*
X9388781Y1615926D01*
Y1627707D01*
X9406453Y1633598D02*
X9418234Y1645379D01*
X9412343Y1639488D01*
X9377000Y1674832D01*
X9377000Y1663051D01*
X9435906D02*
X9447687Y1674832D01*
X9441797Y1668942D01*
X9406453Y1704285D01*
Y1692504D01*
X9459469Y1698395D02*
X9471250D01*
X9483031Y1710176D01*
Y1721957D01*
X9459469Y1745520D01*
X9447687Y1745520D01*
X9435906Y1733739D01*
X9435906Y1721957D01*
X9441797Y1716067D01*
X9453578D01*
X9471250Y1733739D01*
X8046000Y2902100D02*
Y2952084D01*
X8021008D01*
X8012677Y2943753D01*
Y2927092D01*
X8021008Y2918761D01*
X8046000D01*
X8029339D02*
X8012677Y2902100D01*
X7996016D02*
X7979355D01*
X7987686D01*
Y2952084D01*
X7996016Y2943753D01*
X7954363D02*
X7946032Y2952084D01*
X7929371D01*
X7921041Y2943753D01*
Y2910431D01*
X7929371Y2902100D01*
X7946032D01*
X7954363Y2910431D01*
Y2943753D01*
X7904379Y2902100D02*
X7887718D01*
X7896049D01*
Y2952084D01*
X7904379Y2943753D01*
X8175822Y2910847D02*
X8167492Y2902516D01*
X8150831D01*
X8142500Y2910847D01*
Y2944169D01*
X8150831Y2952500D01*
X8167492D01*
X8175822Y2944169D01*
X8192483Y2952500D02*
X8209145D01*
X8200814D01*
Y2902516D01*
X8192483Y2910847D01*
X8234137D02*
X8242467Y2902516D01*
X8259129D01*
X8267459Y2910847D01*
Y2944169D01*
X8259129Y2952500D01*
X8242467D01*
X8234137Y2944169D01*
Y2910847D01*
X8317443Y2902516D02*
X8300781Y2910847D01*
X8284120Y2927508D01*
Y2944169D01*
X8292451Y2952500D01*
X8309112D01*
X8317443Y2944169D01*
Y2935839D01*
X8309112Y2927508D01*
X8284120D01*
X9600822Y3180847D02*
X9592492Y3172516D01*
X9575830D01*
X9567500Y3180847D01*
Y3214169D01*
X9575830Y3222500D01*
X9592492D01*
X9600822Y3214169D01*
X9617483Y3222500D02*
X9634145D01*
X9625814D01*
Y3172516D01*
X9617483Y3180847D01*
X9659137D02*
X9667467Y3172516D01*
X9684128D01*
X9692459Y3180847D01*
Y3214169D01*
X9684128Y3222500D01*
X9667467D01*
X9659137Y3214169D01*
Y3180847D01*
X9742443Y3172516D02*
X9709120D01*
Y3197508D01*
X9725781Y3189178D01*
X9734112D01*
X9742443Y3197508D01*
Y3214169D01*
X9734112Y3222500D01*
X9717451D01*
X9709120Y3214169D01*
X9600822Y3315847D02*
X9592492Y3307516D01*
X9575830D01*
X9567500Y3315847D01*
Y3349169D01*
X9575830Y3357500D01*
X9592492D01*
X9600822Y3349169D01*
X9617483Y3357500D02*
X9634145D01*
X9625814D01*
Y3307516D01*
X9617483Y3315847D01*
X9659137D02*
X9667467Y3307516D01*
X9684128D01*
X9692459Y3315847D01*
Y3349169D01*
X9684128Y3357500D01*
X9667467D01*
X9659137Y3349169D01*
Y3315847D01*
X9734112Y3357500D02*
Y3307516D01*
X9709120Y3332508D01*
X9742443D01*
X9216941Y1874638D02*
X9252285Y1909982D01*
X9234612Y1927654D01*
X9222831Y1927654D01*
X9211050Y1915873D01*
Y1904091D01*
X9228722Y1886420D01*
X9216941Y1898201D02*
X9193378Y1898201D01*
X9181597Y1909982D02*
X9169816Y1921763D01*
X9175706Y1915873D01*
X9211050Y1951217D01*
X9211050Y1939435D01*
X9128581Y1962998D02*
X9152144Y1939435D01*
Y1986561D01*
X9158034Y1992451D01*
X9169816D01*
X9181597Y1980670D01*
Y1968889D01*
X9146253Y2004232D02*
X9146253Y2016014D01*
X9134472Y2027795D01*
X9122691Y2027795D01*
X9099128Y2004232D01*
Y1992451D01*
X9110909Y1980670D01*
X9122691D01*
X9146253Y2004232D01*
X8645559Y2482138D02*
X8610215Y2517482D01*
X8627887Y2535154D01*
X8639669Y2535154D01*
X8651450Y2523372D01*
Y2511591D01*
X8633778Y2493919D01*
X8645559Y2505700D02*
X8669122Y2505701D01*
X8680903Y2517482D02*
X8692684Y2529263D01*
X8686794Y2523372D01*
X8651450Y2558716D01*
X8651450Y2546935D01*
X8680903Y2576388D02*
Y2588170D01*
X8692684Y2599951D01*
X8704466D01*
X8728028Y2576388D01*
Y2564607D01*
X8716247Y2552826D01*
X8704466D01*
X8680903Y2576388D01*
X8769263Y2605841D02*
X8745700Y2582279D01*
Y2629404D01*
X8739809Y2635295D01*
X8728028Y2635294D01*
X8716247Y2623513D01*
X8716247Y2611732D01*
X8550559Y2577138D02*
X8515216Y2612482D01*
X8532888Y2630154D01*
X8544669Y2630154D01*
X8556450Y2618372D01*
Y2606591D01*
X8538778Y2588919D01*
X8550559Y2600700D02*
X8574122Y2600701D01*
X8585903Y2612482D02*
X8597684Y2624263D01*
X8591794Y2618372D01*
X8556450Y2653716D01*
X8556450Y2641935D01*
X8585903Y2671388D02*
Y2683170D01*
X8597685Y2694951D01*
X8609466D01*
X8633028Y2671388D01*
Y2659607D01*
X8621247Y2647826D01*
X8609466D01*
X8585903Y2671388D01*
X8621247Y2706732D02*
X8621247Y2718513D01*
X8633028Y2730295D01*
X8644809Y2730295D01*
X8650700Y2724404D01*
Y2712623D01*
X8644809Y2706732D01*
X8650700Y2712623D01*
X8662482D01*
X8668372Y2706732D01*
Y2694951D01*
X8656591Y2683170D01*
X8644809D01*
X9357282Y1791230D02*
X9369063Y1791231D01*
X9380844Y1803012D01*
X9380844Y1814793D01*
X9357282Y1838355D01*
X9345500D01*
X9333719Y1826574D01*
Y1814793D01*
X9316047Y1808902D02*
X9304266Y1797121D01*
X9310157Y1803012D01*
X9345500Y1767668D01*
X9345500Y1779449D01*
X9316047Y1749996D02*
Y1738215D01*
X9304266Y1726433D01*
X9292485D01*
X9268922Y1749996D01*
Y1761777D01*
X9280703Y1773559D01*
X9292485D01*
X9316047Y1749996D01*
X9280704Y1714652D02*
X9280703Y1702871D01*
X9268922Y1691090D01*
X9257141Y1691090D01*
X9251250Y1696980D01*
Y1708762D01*
X9257141Y1714652D01*
X9251250Y1708762D01*
X9239469D01*
X9233578Y1714652D01*
Y1726433D01*
X9245359Y1738215D01*
X9257141D01*
X9955559Y2002138D02*
X9920215Y2037482D01*
X9937887Y2055154D01*
X9949668Y2055154D01*
X9961450Y2043373D01*
Y2031591D01*
X9943778Y2013920D01*
X9955559Y2025701D02*
X9979122Y2025701D01*
X9990903Y2037482D02*
X10002684Y2049263D01*
X9996794Y2043373D01*
X9961450Y2078716D01*
X9961450Y2066935D01*
X10020356D02*
X10032137Y2078716D01*
X10026247Y2072826D01*
X9990903Y2108170D01*
Y2096388D01*
X10020356Y2125842D02*
X10020356Y2137623D01*
X10032138Y2149404D01*
X10043919Y2149404D01*
X10049809Y2143514D01*
Y2131732D01*
X10061591D01*
X10067482Y2125842D01*
Y2114061D01*
X10055700Y2102279D01*
X10043919D01*
X10038028Y2108170D01*
Y2119951D01*
X10026247D01*
X10020356Y2125842D01*
X10038028Y2119951D02*
X10049809Y2131732D01*
X10076230Y1687718D02*
X10076231Y1675937D01*
X10088012Y1664156D01*
X10099793Y1664155D01*
X10123355Y1687718D01*
Y1699500D01*
X10111574Y1711281D01*
X10099793D01*
X10093902Y1728953D02*
X10082121Y1740734D01*
X10088012Y1734843D01*
X10052668Y1699500D01*
X10064449Y1699499D01*
Y1758406D02*
X10052668Y1770187D01*
X10058558Y1764296D01*
X10023215Y1728953D01*
X10034996D01*
X9976090Y1776078D02*
X9993761Y1770187D01*
X10017324Y1770187D01*
X10029105Y1781968D01*
Y1793750D01*
X10017324Y1805531D01*
X10005543D01*
X9999652Y1799641D01*
Y1787859D01*
X10017324Y1770187D01*
X9947862Y1870559D02*
X9912518Y1835215D01*
X9894846Y1852887D01*
X9894846Y1864668D01*
X9906627Y1876450D01*
X9918409D01*
X9936080Y1858778D01*
X9924299Y1870559D02*
X9924299Y1894122D01*
X9912518Y1905903D02*
X9900737Y1917684D01*
X9906627Y1911793D01*
X9871284Y1876450D01*
X9883065Y1876450D01*
Y1935356D02*
X9871284Y1947137D01*
X9877174Y1941247D01*
X9841830Y1905903D01*
X9853611D01*
X9847721Y1958919D02*
Y1970700D01*
X9835939Y1982481D01*
X9824158D01*
X9800596Y1958919D01*
X9800596Y1947138D01*
X9812377Y1935356D01*
X9824158Y1935356D01*
X9830049Y1941247D01*
Y1953028D01*
X9812377Y1970700D01*
X9401230Y2955218D02*
X9401231Y2943437D01*
X9413012Y2931656D01*
X9424793Y2931656D01*
X9448355Y2955218D01*
Y2967000D01*
X9436574Y2978781D01*
X9424793D01*
X9418902Y2996453D02*
X9407121Y3008234D01*
X9413012Y3002343D01*
X9377668Y2967000D01*
X9389449Y2967000D01*
X9359996Y2996453D02*
X9348215D01*
X9336433Y3008234D01*
Y3020016D01*
X9359996Y3043578D01*
X9371777D01*
X9383559Y3031797D01*
Y3020016D01*
X9359996Y2996453D01*
X9354105Y3061250D02*
X9342324Y3073031D01*
X9348215Y3067141D01*
X9312871Y3031797D01*
X9324652Y3031797D01*
X8407100Y2231000D02*
X8457084D01*
Y2206008D01*
X8448753Y2197678D01*
X8432092D01*
X8423761Y2206008D01*
Y2231000D01*
Y2214339D02*
X8407100Y2197678D01*
Y2181016D02*
Y2164355D01*
Y2172686D01*
X8457084D01*
X8448753Y2181016D01*
Y2139363D02*
X8457084Y2131033D01*
Y2114371D01*
X8448753Y2106041D01*
X8415431D01*
X8407100Y2114371D01*
Y2131033D01*
X8415431Y2139363D01*
X8448753D01*
Y2089380D02*
X8457084Y2081049D01*
Y2064388D01*
X8448753Y2056057D01*
X8415431D01*
X8407100Y2064388D01*
Y2081049D01*
X8415431Y2089380D01*
X8448753D01*
D107*
X9566967Y1667678D02*
X9637678Y1596967D01*
X9602322Y1703033D02*
X9673033Y1632322D01*
X9566967Y1667678D02*
X9602322Y1703033D01*
X9637678Y1596967D02*
X9673033Y1632322D01*
X9806967Y1612322D02*
X9877678Y1683033D01*
X9842322Y1576967D02*
X9913033Y1647678D01*
X9877678Y1683033D02*
X9913033Y1647678D01*
X9806967Y1612322D02*
X9842322Y1576967D01*
X8477484Y2614999D02*
X8507474D01*
Y2629994D01*
X8502476Y2634993D01*
X8492479D01*
X8487481Y2629994D01*
Y2614999D01*
Y2624996D02*
X8477484Y2634993D01*
Y2644990D02*
Y2654986D01*
Y2649988D01*
X8507474D01*
X8502476Y2644990D01*
Y2669981D02*
X8507474Y2674980D01*
Y2684977D01*
X8502476Y2689975D01*
X8482482D01*
X8477484Y2684977D01*
Y2674980D01*
X8482482Y2669981D01*
X8502476D01*
X8477484Y2714967D02*
X8507474D01*
X8492479Y2699972D01*
Y2719965D01*
X9630617Y1618182D02*
Y1611113D01*
X9637686Y1604044D01*
X9644755D01*
X9658892Y1618181D01*
Y1625250D01*
X9651823Y1632319D01*
X9644754D01*
X9641220Y1642922D02*
X9634151Y1649991D01*
X9637686Y1646457D01*
X9616479Y1625250D01*
X9623548D01*
Y1660594D02*
X9616480Y1667663D01*
X9620014Y1664128D01*
X9598807Y1642922D01*
X9605876D01*
X9584670Y1657060D02*
X9570532Y1671197D01*
X9574067Y1674732D01*
X9602342Y1674731D01*
X9605876Y1678266D01*
X9828182Y1619383D02*
X9821113D01*
X9814044Y1612315D01*
Y1605245D01*
X9828182Y1591108D01*
X9835250D01*
X9842319Y1598177D01*
Y1605246D01*
X9852922Y1608780D02*
X9859991Y1615849D01*
X9856457Y1612315D01*
X9835250Y1633521D01*
Y1626452D01*
X9870594D02*
X9877663Y1633520D01*
X9874129Y1629986D01*
X9852922Y1651193D01*
Y1644124D01*
X9870594Y1661796D02*
Y1668865D01*
X9877663Y1675933D01*
X9884732D01*
X9888266Y1672399D01*
Y1665330D01*
X9895335D01*
X9898869Y1661796D01*
Y1654727D01*
X9891800Y1647658D01*
X9884732D01*
X9881197Y1651193D01*
Y1658261D01*
X9874128D01*
X9870594Y1661796D01*
X9881197Y1658261D02*
X9888266Y1665330D01*
%TF.MD5,5e04d26dacea65a7fc9f45faeb63ddb8*%
M02*
