%TF.GenerationSoftware,Altium Limited,Altium Designer,26.2.0 (7)*%
G04 Layer_Color=0*
%FSLAX45Y45*%
%MOMM*%
%TF.SameCoordinates,894498E9-F992-4E77-9241-7735D3C5E39B*%
%TF.FilePolarity,Positive*%
%TF.FileFunction,Plated,1,4,PTH,Drill*%
%TF.Part,Single*%
G01*
G75*
%TA.AperFunction,ComponentDrill*%
%ADD204C,0.80000*%
%ADD205C,0.90000*%
%ADD206C,1.00000*%
%ADD207C,1.20000*%
%ADD208C,1.50000*%
%ADD209C,1.10000*%
%ADD210C,0.40000*%
%ADD211C,0.80000*%
%ADD212O,2.10000X0.60000*%
%ADD213O,1.40000X0.60000*%
%ADD214C,0.90000*%
%TA.AperFunction,ViaDrill,NotFilled*%
%ADD215C,0.40000*%
D204*
X6412999Y5110000D02*
D03*
X6162999D02*
D03*
X5912999D02*
D03*
Y5650000D02*
D03*
X6162999D02*
D03*
X6412999D02*
D03*
Y2817500D02*
D03*
X6162999D02*
D03*
X5912999D02*
D03*
Y3357500D02*
D03*
X6162999D02*
D03*
X6412999D02*
D03*
D205*
X6755499Y5183500D02*
D03*
X7009499Y5310500D02*
D03*
X6755499Y5437500D02*
D03*
X7009499Y5564500D02*
D03*
X7009500Y3264500D02*
D03*
X6755500Y3137500D02*
D03*
X7009500Y3010500D02*
D03*
X6755500Y2883500D02*
D03*
X10375500Y5731500D02*
D03*
Y5477500D02*
D03*
X10121500Y5350500D02*
D03*
X10375500Y5223500D02*
D03*
X10121500Y5604500D02*
D03*
Y5096500D02*
D03*
X10782500Y1923000D02*
D03*
X10812500Y2575000D02*
D03*
X10558500Y2702000D02*
D03*
X10812500Y2829000D02*
D03*
X10558500Y2956000D02*
D03*
X10528500Y2050000D02*
D03*
Y1796000D02*
D03*
X10782500Y1669000D02*
D03*
X10528500Y1542000D02*
D03*
X10782500Y1415000D02*
D03*
D206*
X9115000Y4542000D02*
D03*
X8242000Y5415000D02*
D03*
Y5165000D02*
D03*
X9365000Y4542000D02*
D03*
X8242000Y5665000D02*
D03*
X8865000Y4542000D02*
D03*
X9546000Y3527500D02*
D03*
X10054000D02*
D03*
X9800000D02*
D03*
D207*
X9440000Y5990000D02*
D03*
X8789999D02*
D03*
Y6440000D02*
D03*
X9440000D02*
D03*
D208*
X8482500Y5915000D02*
D03*
X9747499D02*
D03*
X8482500Y4915000D02*
D03*
X9747499D02*
D03*
D209*
X7882500Y1365000D02*
D03*
X10220500Y1365500D02*
D03*
X9966500D02*
D03*
X9458500D02*
D03*
X9204500D02*
D03*
X9712500D02*
D03*
X8644500Y1619000D02*
D03*
Y1365000D02*
D03*
X8390500Y1619000D02*
D03*
Y1365000D02*
D03*
X8136500Y1619000D02*
D03*
Y1365000D02*
D03*
X7882500Y1619000D02*
D03*
X8924500Y1619500D02*
D03*
Y1365500D02*
D03*
D210*
X8300000Y2065000D02*
D03*
X8165000D02*
D03*
X8300000Y2660000D02*
D03*
X8165000D02*
D03*
Y2150000D02*
D03*
Y2235000D02*
D03*
Y2320000D02*
D03*
Y2405000D02*
D03*
Y2490000D02*
D03*
Y2575000D02*
D03*
X8300000D02*
D03*
Y2490000D02*
D03*
Y2405000D02*
D03*
Y2320000D02*
D03*
Y2235000D02*
D03*
Y2150000D02*
D03*
D211*
X8297500Y3202500D02*
D03*
Y3402500D02*
D03*
D212*
X8202000Y2795000D02*
D03*
Y1930000D02*
D03*
D213*
X7864000Y2795000D02*
D03*
Y1930000D02*
D03*
D214*
X8685000Y3562500D02*
D03*
X9185000Y3232500D02*
D03*
X8935000Y3562500D02*
D03*
X9185000D02*
D03*
X8935000Y3232500D02*
D03*
X8685000D02*
D03*
D215*
X9227500Y5302500D02*
D03*
X9417500D02*
D03*
X9742500Y5730000D02*
D03*
X9829830Y5443079D02*
D03*
X9337500Y1697500D02*
D03*
X10052500Y3357500D02*
D03*
X9547500Y2517500D02*
D03*
X8832500Y2605000D02*
D03*
X8600000Y2375000D02*
D03*
X8492500Y2740000D02*
D03*
X8762500Y3080000D02*
D03*
X9417500Y3077500D02*
D03*
X7874997Y3149999D02*
D03*
X7799998Y3299999D02*
D03*
X7874997Y3449999D02*
D03*
X8024997Y3149999D02*
D03*
X7949998Y3299999D02*
D03*
X8024997Y3449999D02*
D03*
X8099998Y3299999D02*
D03*
Y3599999D02*
D03*
X10874997Y3449999D02*
D03*
X8100000Y3060000D02*
D03*
X9501498Y3233679D02*
D03*
X10292500Y2667500D02*
D03*
X10315000Y2290000D02*
D03*
X9377500Y2202500D02*
D03*
X10477500Y3660000D02*
D03*
X10252500Y3512500D02*
D03*
X10892500Y3155000D02*
D03*
X10197500Y2745000D02*
D03*
X9450000Y2012500D02*
D03*
X8699169Y2049161D02*
D03*
X8515000Y1960000D02*
D03*
X8672500Y2157500D02*
D03*
X9035013Y2460000D02*
D03*
X9112500Y2327500D02*
D03*
X9017500Y2332500D02*
D03*
X9102500Y2217500D02*
D03*
X9512964Y1632580D02*
D03*
X9687500Y2332500D02*
D03*
X8565000Y2150000D02*
D03*
X9050000Y1842500D02*
D03*
X9252500Y2082500D02*
D03*
X9362500Y1962500D02*
D03*
X10225000Y2222500D02*
D03*
X9725000Y3000000D02*
D03*
X9082500Y2910000D02*
D03*
X9825000Y3227500D02*
D03*
X9572500Y2160000D02*
D03*
X9522500Y2210000D02*
D03*
Y2097500D02*
D03*
X10210000Y2347500D02*
D03*
%TF.MD5,d3489035da7626487a3830b3b778bf8a*%
M02*
