%TF.GenerationSoftware,Altium Limited,Altium Designer,26.2.0 (7)*%
G04 Layer_Color=8421504*
%FSLAX45Y45*%
%MOMM*%
%TF.SameCoordinates,894498E9-F992-4E77-9241-7735D3C5E39B*%
%TF.FilePolarity,Positive*%
%TF.FileFunction,Paste,Top*%
%TF.Part,Single*%
G01*
G75*
%TA.AperFunction,SMDPad,CuDef*%
%ADD10R,0.60000X1.00000*%
%ADD11R,1.00000X0.60000*%
G04:AMPARAMS|DCode=12|XSize=0.6mm|YSize=1mm|CornerRadius=0mm|HoleSize=0mm|Usage=FLASHONLY|Rotation=135.000|XOffset=0mm|YOffset=0mm|HoleType=Round|Shape=Rectangle|*
%AMROTATEDRECTD12*
4,1,4,0.56569,0.14142,-0.14142,-0.56569,-0.56569,-0.14142,0.14142,0.56569,0.56569,0.14142,0.0*
%
%ADD12ROTATEDRECTD12*%

G04:AMPARAMS|DCode=13|XSize=0.6mm|YSize=1mm|CornerRadius=0mm|HoleSize=0mm|Usage=FLASHONLY|Rotation=225.000|XOffset=0mm|YOffset=0mm|HoleType=Round|Shape=Rectangle|*
%AMROTATEDRECTD13*
4,1,4,-0.14142,0.56569,0.56569,-0.14142,0.14142,-0.56569,-0.56569,0.14142,-0.14142,0.56569,0.0*
%
%ADD13ROTATEDRECTD13*%

G04:AMPARAMS|DCode=14|XSize=0.3mm|YSize=1.4mm|CornerRadius=0mm|HoleSize=0mm|Usage=FLASHONLY|Rotation=135.000|XOffset=0mm|YOffset=0mm|HoleType=Round|Shape=Rectangle|*
%AMROTATEDRECTD14*
4,1,4,0.60104,0.38891,-0.38891,-0.60104,-0.60104,-0.38891,0.38891,0.60104,0.60104,0.38891,0.0*
%
%ADD14ROTATEDRECTD14*%

G04:AMPARAMS|DCode=15|XSize=0.3mm|YSize=1.4mm|CornerRadius=0mm|HoleSize=0mm|Usage=FLASHONLY|Rotation=225.000|XOffset=0mm|YOffset=0mm|HoleType=Round|Shape=Rectangle|*
%AMROTATEDRECTD15*
4,1,4,-0.38891,0.60104,0.60104,-0.38891,0.38891,-0.60104,-0.60104,0.38891,-0.38891,0.60104,0.0*
%
%ADD15ROTATEDRECTD15*%

%ADD16R,1.20000X1.40000*%
G04:AMPARAMS|DCode=17|XSize=0.63mm|YSize=0.61mm|CornerRadius=0.14945mm|HoleSize=0mm|Usage=FLASHONLY|Rotation=315.000|XOffset=0mm|YOffset=0mm|HoleType=Round|Shape=RoundedRectangle|*
%AMROUNDEDRECTD17*
21,1,0.63000,0.31110,0,0,315.0*
21,1,0.33110,0.61000,0,0,315.0*
1,1,0.29890,0.00707,-0.22706*
1,1,0.29890,-0.22706,0.00707*
1,1,0.29890,-0.00707,0.22706*
1,1,0.29890,0.22706,-0.00707*
%
%ADD17ROUNDEDRECTD17*%
G04:AMPARAMS|DCode=19|XSize=0.63mm|YSize=0.61mm|CornerRadius=0.14945mm|HoleSize=0mm|Usage=FLASHONLY|Rotation=225.000|XOffset=0mm|YOffset=0mm|HoleType=Round|Shape=RoundedRectangle|*
%AMROUNDEDRECTD19*
21,1,0.63000,0.31110,0,0,225.0*
21,1,0.33110,0.61000,0,0,225.0*
1,1,0.29890,-0.22706,-0.00707*
1,1,0.29890,0.00707,0.22706*
1,1,0.29890,0.22706,0.00707*
1,1,0.29890,-0.00707,-0.22706*
%
%ADD19ROUNDEDRECTD19*%
G04:AMPARAMS|DCode=20|XSize=0.75mm|YSize=0.65mm|CornerRadius=0mm|HoleSize=0mm|Usage=FLASHONLY|Rotation=315.000|XOffset=0mm|YOffset=0mm|HoleType=Round|Shape=Rectangle|*
%AMROTATEDRECTD20*
4,1,4,-0.49497,0.03535,-0.03535,0.49497,0.49497,-0.03535,0.03535,-0.49497,-0.49497,0.03535,0.0*
%
%ADD20ROTATEDRECTD20*%

G04:AMPARAMS|DCode=21|XSize=0.55mm|YSize=0.6mm|CornerRadius=0mm|HoleSize=0mm|Usage=FLASHONLY|Rotation=315.000|XOffset=0mm|YOffset=0mm|HoleType=Round|Shape=Rectangle|*
%AMROTATEDRECTD21*
4,1,4,-0.40659,-0.01768,0.01768,0.40659,0.40659,0.01768,-0.01768,-0.40659,-0.40659,-0.01768,0.0*
%
%ADD21ROTATEDRECTD21*%

G04:AMPARAMS|DCode=22|XSize=1.4mm|YSize=1.2mm|CornerRadius=0mm|HoleSize=0mm|Usage=FLASHONLY|Rotation=45.000|XOffset=0mm|YOffset=0mm|HoleType=Round|Shape=Rectangle|*
%AMROTATEDRECTD22*
4,1,4,-0.07071,-0.91924,-0.91924,-0.07071,0.07071,0.91924,0.91924,0.07071,-0.07071,-0.91924,0.0*
%
%ADD22ROTATEDRECTD22*%

%ADD23R,0.80000X0.80000*%
%ADD24R,1.15000X1.22000*%
G36*
X9790104Y1675147D02*
X9744142Y1629185D01*
X9691109Y1682218D01*
X9726465Y1717574D01*
X9747677D01*
X9790104Y1675147D01*
D02*
G37*
D10*
X6787999Y5617501D02*
D03*
X6647999D02*
D03*
X6793000Y3305001D02*
D03*
X6652999D02*
D03*
X9920000Y3090000D02*
D03*
X10060000D02*
D03*
Y3227500D02*
D03*
X9920000D02*
D03*
X10060000Y2952500D02*
D03*
X9920000D02*
D03*
D11*
X8432500Y2097500D02*
D03*
Y2237500D02*
D03*
D12*
X8721005Y2421495D02*
D03*
X9330503Y3049498D02*
D03*
X10104497Y1683002D02*
D03*
X8820000Y2322500D02*
D03*
X10005502Y1781997D02*
D03*
X9934498Y1848002D02*
D03*
X9835503Y1946997D02*
D03*
X9429498Y2950503D02*
D03*
D13*
X9263003Y1720503D02*
D03*
X9360502Y1623003D02*
D03*
X9459497Y1721998D02*
D03*
X8528003Y2590502D02*
D03*
X8721998Y2594497D02*
D03*
X8623003Y2495502D02*
D03*
X8626998Y2689497D02*
D03*
X9361998Y1819498D02*
D03*
X9933002Y2015502D02*
D03*
X10031997Y2114497D02*
D03*
D14*
X9236079Y1905380D02*
D03*
X9518921Y2824619D02*
D03*
X8882525Y2258934D02*
D03*
X8953236Y2188223D02*
D03*
X8917880Y2223579D02*
D03*
X8988591Y2152868D02*
D03*
X9200723Y1940736D02*
D03*
X9165368Y1976091D02*
D03*
X9130012Y2011447D02*
D03*
X9094657Y2046802D02*
D03*
X9059302Y2082157D02*
D03*
X9023946Y2117513D02*
D03*
X9271434Y1870025D02*
D03*
X9624987Y2718554D02*
D03*
X9483566Y2859975D02*
D03*
X9660343Y2683198D02*
D03*
X9695698Y2647843D02*
D03*
X9731053Y2612488D02*
D03*
X9766408Y2577132D02*
D03*
X9801764Y2541777D02*
D03*
X9589632Y2753909D02*
D03*
X9554277Y2789264D02*
D03*
X9837119Y2506421D02*
D03*
X9872475Y2471066D02*
D03*
D15*
X8917881Y2506421D02*
D03*
X9731053Y2117512D02*
D03*
X9695698Y2082157D02*
D03*
X9766408Y2152868D02*
D03*
X9837119Y2223578D02*
D03*
X9872475Y2258934D02*
D03*
X9518921Y1905380D02*
D03*
X9554277Y1940736D02*
D03*
X9589632Y1976091D02*
D03*
X9801764Y2188223D02*
D03*
X8882525Y2471066D02*
D03*
X8953236Y2541777D02*
D03*
X8988591Y2577132D02*
D03*
X9023947Y2612488D02*
D03*
X9059302Y2647843D02*
D03*
X9094657Y2683198D02*
D03*
X9130013Y2718554D02*
D03*
X9165368Y2753909D02*
D03*
X9200723Y2789264D02*
D03*
X9236079Y2824619D02*
D03*
X9271434Y2859975D02*
D03*
X9483566Y1870025D02*
D03*
X9660343Y2046802D02*
D03*
X9624987Y2011447D02*
D03*
D16*
X8897500Y3040000D02*
D03*
X10050000Y2490000D02*
D03*
X10220000D02*
D03*
X9067500Y3040000D02*
D03*
D17*
X9657123Y1612877D02*
D03*
X9582877Y1687123D02*
D03*
D19*
X9822877Y1592877D02*
D03*
X9897123Y1667123D02*
D03*
D20*
X9719393Y1841317D02*
D03*
X9648683Y1770607D02*
D03*
X9811317Y1749393D02*
D03*
D21*
X10282582Y1849770D02*
D03*
X10102270Y2030082D02*
D03*
X10198437Y1765624D02*
D03*
X10018124Y1945937D02*
D03*
D22*
X9464896Y3155104D02*
D03*
X9585104Y3034896D02*
D03*
D23*
X10337500Y3227500D02*
D03*
Y2952500D02*
D03*
Y3090000D02*
D03*
X10187500Y3227500D02*
D03*
Y3090000D02*
D03*
Y2952500D02*
D03*
D24*
X8427500Y1875000D02*
D03*
X8737500D02*
D03*
%TF.MD5,465ebcff8bf33daa6d7036ad6d95c455*%
M02*
