%TF.GenerationSoftware,Altium Limited,Altium Designer,26.2.0 (7)*%
G04 Layer_Color=32768*
%FSLAX45Y45*%
%MOMM*%
%TF.SameCoordinates,894498E9-F992-4E77-9241-7735D3C5E39B*%
%TF.FilePolarity,Positive*%
%TF.FileFunction,Other,Route_Tool_Path*%
%TF.Part,Single*%
G01*
G75*
%TA.AperFunction,NonConductor*%
%ADD104C,0.50000*%
%ADD106C,1.00000*%
D104*
X8042500Y1040000D02*
G03*
X7782500Y1040000I-130000J0D01*
G01*
X10882499D02*
G03*
X10622499Y1040000I-130000J0D01*
G01*
X11057500Y3740000D02*
G03*
X10957500Y3840000I-100000J0D01*
G01*
X7557500Y1140000D02*
G03*
X7657500Y1040000I100000J0D01*
G01*
Y3840000D02*
G03*
X7557500Y3740000I0J-100000D01*
G01*
X10957500Y1040000D02*
G03*
X11057500Y1140000I0J100000D01*
G01*
X7782501Y3840000D02*
G03*
X8042501Y3840000I130000J0D01*
G01*
X10622500D02*
G03*
X10882500Y3840000I130000J0D01*
G01*
X7182499Y6164500D02*
G03*
X6982500Y6364500I-200000J0D01*
G01*
X6982499Y4464501D02*
G03*
X7182499Y4664500I0J200000D01*
G01*
X5582500Y4664501D02*
G03*
X5782500Y4464501I200000J0D01*
G01*
Y6364500D02*
G03*
X5582500Y6164500I0J-200000D01*
G01*
X6982499Y2164501D02*
G03*
X7182499Y2364500I0J200000D01*
G01*
Y3864500D02*
G03*
X6982500Y4064500I-200000J0D01*
G01*
X5582500Y2364501D02*
G03*
X5782500Y2164501I200000J0D01*
G01*
Y4064500D02*
G03*
X5582500Y3864501I0J-200000D01*
G01*
X7582500Y4415000D02*
G03*
X7782500Y4215000I200000J0D01*
G01*
X7782500Y6615000D02*
G03*
X7582500Y6415000I0J-200000D01*
G01*
X10382499Y4215000D02*
G03*
X10582500Y4415000I0J200000D01*
G01*
X10582499Y6415000D02*
G03*
X10382499Y6615000I-200000J0D01*
G01*
X8042501Y3840000D02*
X8182501D01*
X10482500D02*
X10622500D01*
X8042500Y1040000D02*
X10622499D01*
X10882500Y3840000D02*
X10932500D01*
X7657500Y1040000D02*
X7782500D01*
X7557500Y1140000D02*
Y3715000D01*
Y3714775D02*
Y3839775D01*
X8042501Y3840000D01*
X7557500Y3839775D02*
X7682500Y3840000D01*
X10882499Y1040000D02*
X10957500D01*
X11057500Y1140000D02*
Y3715000D01*
X11057500Y3715000D02*
Y3840000D01*
X10622500D02*
X11057500D01*
X6682499Y6364500D02*
X6982499D01*
X6682499Y4464501D02*
X6982499D01*
X7182500Y5714501D02*
Y6164501D01*
Y4664500D02*
Y5114501D01*
X5582500Y4664500D02*
Y5114500D01*
X5782500Y6364500D02*
X6082500D01*
X5782500Y4464501D02*
X6082500D01*
X5582500Y5714500D02*
Y6164500D01*
X6682499Y4064500D02*
X6982499D01*
X6682500Y2164501D02*
X6982500D01*
X7182499Y3414500D02*
Y3864500D01*
Y2364499D02*
Y2814500D01*
X5782500Y4064500D02*
X6082500D01*
X5582500Y3414501D02*
Y3864502D01*
X5782500Y2164501D02*
X6082500D01*
X5582500Y2364501D02*
Y2814501D01*
X9882499Y4215000D02*
X10382499D01*
X7782500D02*
X8182500D01*
X8782500D02*
X9282500D01*
X7582500Y4415000D02*
Y4715000D01*
Y6115000D02*
Y6415000D01*
X7782500Y6615000D02*
X8082499D01*
X8682500D02*
X9582500D01*
X10182499D02*
X10382499D01*
X7582500Y5315000D02*
Y5515000D01*
X10582500Y6115000D02*
Y6415000D01*
Y4415000D02*
Y4715000D01*
Y5315000D02*
Y5515000D01*
X8782501Y3840000D02*
X9882501D01*
D106*
X7851879Y3805000D02*
G03*
X7973122Y3805000I60622J35000D01*
G01*
X10691878D02*
G03*
X10813122Y3805000I60622J35000D01*
G01*
%TF.MD5,67401a1988593021d4a97ca1be7064c0*%
M02*
