%TF.GenerationSoftware,Altium Limited,Altium Designer,26.2.0 (7)*%
G04 Layer_Color=16711935*
%FSLAX45Y45*%
%MOMM*%
%TF.SameCoordinates,894498E9-F992-4E77-9241-7735D3C5E39B*%
%TF.FilePolarity,Negative*%
%TF.FileFunction,Soldermask,Bot*%
%TF.Part,Single*%
G01*
G75*
%TA.AperFunction,ComponentPad*%
%ADD30C,1.40000*%
%ADD36C,0.65000*%
G04:AMPARAMS|DCode=42|XSize=0.9mm|YSize=2.4mm|CornerRadius=0.45mm|HoleSize=0mm|Usage=FLASHONLY|Rotation=90.000|XOffset=0mm|YOffset=0mm|HoleType=Round|Shape=RoundedRectangle|*
%AMROUNDEDRECTD42*
21,1,0.90000,1.50000,0,0,90.0*
21,1,0.00000,2.40000,0,0,90.0*
1,1,0.90000,0.75000,0.00000*
1,1,0.90000,0.75000,0.00000*
1,1,0.90000,-0.75000,0.00000*
1,1,0.90000,-0.75000,0.00000*
%
%ADD42ROUNDEDRECTD42*%
G04:AMPARAMS|DCode=43|XSize=0.9mm|YSize=1.7mm|CornerRadius=0.45mm|HoleSize=0mm|Usage=FLASHONLY|Rotation=90.000|XOffset=0mm|YOffset=0mm|HoleType=Round|Shape=RoundedRectangle|*
%AMROUNDEDRECTD43*
21,1,0.90000,0.80000,0,0,90.0*
21,1,0.00000,1.70000,0,0,90.0*
1,1,0.90000,0.40000,0.00000*
1,1,0.90000,0.40000,0.00000*
1,1,0.90000,-0.40000,0.00000*
1,1,0.90000,-0.40000,0.00000*
%
%ADD43ROUNDEDRECTD43*%
%ADD44R,1.40000X1.40000*%
%TA.AperFunction,SMDPad,CuDef*%
%ADD66R,0.80320X1.20320*%
%ADD67R,1.20320X0.80320*%
G04:AMPARAMS|DCode=68|XSize=0.8032mm|YSize=1.2032mm|CornerRadius=0mm|HoleSize=0mm|Usage=FLASHONLY|Rotation=135.000|XOffset=0mm|YOffset=0mm|HoleType=Round|Shape=Rectangle|*
%AMROTATEDRECTD68*
4,1,4,0.70937,0.14142,-0.14142,-0.70937,-0.70937,-0.14142,0.14142,0.70937,0.70937,0.14142,0.0*
%
%ADD68ROTATEDRECTD68*%

G04:AMPARAMS|DCode=69|XSize=0.8032mm|YSize=1.2032mm|CornerRadius=0mm|HoleSize=0mm|Usage=FLASHONLY|Rotation=225.000|XOffset=0mm|YOffset=0mm|HoleType=Round|Shape=Rectangle|*
%AMROTATEDRECTD69*
4,1,4,-0.14142,0.70937,0.70937,-0.14142,0.14142,-0.70937,-0.70937,0.14142,-0.14142,0.70937,0.0*
%
%ADD69ROTATEDRECTD69*%

%TA.AperFunction,WasherPad*%
%ADD78R,0.20320X0.20320*%
%ADD79R,0.20320X0.20320*%
%TA.AperFunction,ComponentPad*%
%ADD80C,1.60320*%
%ADD81C,1.40320*%
%ADD82C,0.20320*%
%ADD83C,1.80320*%
%ADD84C,2.00320*%
%ADD85C,2.70320*%
%ADD86C,1.90320*%
%ADD87R,2.20320X2.20320*%
%ADD88C,1.55320*%
%ADD89R,1.80320X1.80320*%
%ADD90R,1.55320X1.55320*%
%ADD91C,2.20320*%
%ADD92R,1.90320X1.90320*%
%ADD93C,1.70320*%
%TA.AperFunction,ViaPad*%
%ADD94C,0.40000*%
%TA.AperFunction,SMDPad,CuDef*%
%ADD95R,1.85320X3.00320*%
%ADD96R,1.80320X1.10320*%
%ADD97R,1.60320X1.30320*%
%ADD98R,3.00320X1.85320*%
%ADD99R,2.10320X1.10320*%
%ADD100R,1.40320X1.80320*%
%ADD101R,3.50320X1.80320*%
%ADD102R,2.10320X3.40320*%
%ADD103R,1.60320X1.10320*%
D30*
X8685000Y3562500D02*
D03*
X9185000Y3232500D02*
D03*
X8935000Y3562500D02*
D03*
X9185000D02*
D03*
X8935000Y3232500D02*
D03*
D36*
X8300000Y2065000D02*
D03*
X8165000D02*
D03*
X8300000Y2660000D02*
D03*
X8165000D02*
D03*
Y2150000D02*
D03*
Y2235000D02*
D03*
Y2320000D02*
D03*
Y2405000D02*
D03*
Y2490000D02*
D03*
Y2575000D02*
D03*
X8300000D02*
D03*
Y2490000D02*
D03*
Y2405000D02*
D03*
Y2320000D02*
D03*
Y2235000D02*
D03*
Y2150000D02*
D03*
D42*
X8202000Y2795000D02*
D03*
Y1930000D02*
D03*
D43*
X7864000Y2795000D02*
D03*
Y1930000D02*
D03*
D44*
X8685000Y3232500D02*
D03*
D66*
X6510499Y5365000D02*
D03*
X6370499D02*
D03*
X6370499Y3072500D02*
D03*
X6510500D02*
D03*
X9715000Y5302500D02*
D03*
X9575000D02*
D03*
X9715000Y5442500D02*
D03*
X9575000D02*
D03*
X9472500Y5162500D02*
D03*
X9332499D02*
D03*
X9472500Y5305000D02*
D03*
X9332499D02*
D03*
X9452500Y5722500D02*
D03*
X9592500D02*
D03*
X9575000Y5162500D02*
D03*
X9715000D02*
D03*
X9574999Y5582500D02*
D03*
X9715000D02*
D03*
X9472500D02*
D03*
X9332499D02*
D03*
Y5442500D02*
D03*
X9472500D02*
D03*
X8152500Y2927500D02*
D03*
X8052500D02*
D03*
X9577500Y3197500D02*
D03*
Y3332500D02*
D03*
X9525000Y1527500D02*
D03*
X9665000D02*
D03*
X7912500Y2927500D02*
D03*
X8292500D02*
D03*
X9717500Y3197500D02*
D03*
Y3332500D02*
D03*
D67*
X5912999Y5465000D02*
D03*
Y5325000D02*
D03*
X5913000Y3172500D02*
D03*
Y3032500D02*
D03*
X10305000Y2852500D02*
D03*
X10167500D02*
D03*
Y2992500D02*
D03*
X10305000D02*
D03*
D68*
X9239497Y1888003D02*
D03*
X10355503Y1489497D02*
D03*
X10454498Y1390502D02*
D03*
X9140502Y1986998D02*
D03*
D69*
X10530000Y1287500D02*
D03*
X10628995Y1386495D02*
D03*
D78*
X7332500Y6364500D02*
D03*
X7202500D02*
D03*
X7462500D02*
D03*
X7462499Y2164501D02*
D03*
X7332499D02*
D03*
X7202499D02*
D03*
X6882499Y6064500D02*
D03*
X6447499Y6364500D02*
D03*
X6317499D02*
D03*
X6187499D02*
D03*
X6577499D02*
D03*
X5882499Y4764501D02*
D03*
X6187499Y4464501D02*
D03*
X6317499D02*
D03*
X6577499D02*
D03*
X6447499D02*
D03*
X5882499Y6064500D02*
D03*
X6882499Y4764501D02*
D03*
X6882500Y2464501D02*
D03*
X6577499Y4064500D02*
D03*
X6882500Y3764500D02*
D03*
X6317500Y2164501D02*
D03*
X6187500D02*
D03*
X6187499Y4064500D02*
D03*
X6352499D02*
D03*
X5882500Y3764500D02*
D03*
Y2464501D02*
D03*
X6447500Y2164501D02*
D03*
X6577500D02*
D03*
X8577499Y6615000D02*
D03*
X9947500D02*
D03*
X8187499D02*
D03*
X8317499D02*
D03*
X8447499D02*
D03*
X9687500D02*
D03*
X9817500D02*
D03*
X7882500Y6315000D02*
D03*
Y4515000D02*
D03*
X10282499Y6315000D02*
D03*
X10077500Y6615000D02*
D03*
X10282499Y4515000D02*
D03*
X9517500Y4215000D02*
D03*
X9777500D02*
D03*
X8287500D02*
D03*
X9647500D02*
D03*
X9387500D02*
D03*
X8512500D02*
D03*
X8677500D02*
D03*
X10192501Y3815000D02*
D03*
X8677501D02*
D03*
X8417501D02*
D03*
X8547501D02*
D03*
X8287501D02*
D03*
X10377501D02*
D03*
X9987501D02*
D03*
D79*
X10582500Y4065000D02*
D03*
Y4195000D02*
D03*
Y3935000D02*
D03*
X5582500Y4394500D02*
D03*
Y4134500D02*
D03*
Y4264500D02*
D03*
X7557500Y4189775D02*
D03*
Y3964775D02*
D03*
X5582500Y5479501D02*
D03*
Y5609501D02*
D03*
Y5219501D02*
D03*
Y5349501D02*
D03*
X7182499Y5404501D02*
D03*
Y5219501D02*
D03*
Y5609501D02*
D03*
Y3179500D02*
D03*
Y3049500D02*
D03*
X5582500Y3049501D02*
D03*
Y3179501D02*
D03*
Y3309501D02*
D03*
X7182499Y3309500D02*
D03*
X5582500Y2919501D02*
D03*
X7182499Y2919500D02*
D03*
X7582500Y5750000D02*
D03*
Y4820000D02*
D03*
Y5210000D02*
D03*
Y5880000D02*
D03*
Y4950000D02*
D03*
Y6010000D02*
D03*
Y5620000D02*
D03*
Y5080000D02*
D03*
X10582500Y5210000D02*
D03*
Y4950000D02*
D03*
Y4820000D02*
D03*
Y5080000D02*
D03*
Y6010000D02*
D03*
Y5750000D02*
D03*
Y5880000D02*
D03*
Y5620000D02*
D03*
D80*
X6412999Y5110000D02*
D03*
X6162999D02*
D03*
X5912999D02*
D03*
Y5650000D02*
D03*
X6162999D02*
D03*
X6412999D02*
D03*
Y2817500D02*
D03*
X6162999D02*
D03*
X5912999D02*
D03*
Y3357500D02*
D03*
X6162999D02*
D03*
X6412999D02*
D03*
D81*
X6755499Y5183500D02*
D03*
X7009499Y5310500D02*
D03*
X6755499Y5437500D02*
D03*
X7009499Y5564500D02*
D03*
X7009500Y3264500D02*
D03*
X6755500Y3137500D02*
D03*
X7009500Y3010500D02*
D03*
X6755500Y2883500D02*
D03*
X10375500Y5731500D02*
D03*
Y5477500D02*
D03*
X10121500Y5350500D02*
D03*
X10375500Y5223500D02*
D03*
X10121500Y5604500D02*
D03*
Y5096500D02*
D03*
X10782500Y1923000D02*
D03*
X10812500Y2575000D02*
D03*
X10558500Y2702000D02*
D03*
X10812500Y2829000D02*
D03*
X10558500Y2956000D02*
D03*
X10528500Y2050000D02*
D03*
Y1796000D02*
D03*
X10782500Y1669000D02*
D03*
X10528500Y1542000D02*
D03*
X10782500Y1415000D02*
D03*
D82*
X6935499Y5043500D02*
D03*
X6935499Y2743500D02*
D03*
X10195500Y5871500D02*
D03*
X10632500Y2435000D02*
D03*
X10708500Y2190000D02*
D03*
D83*
X9115000Y4542000D02*
D03*
X8242000Y5415000D02*
D03*
Y5165000D02*
D03*
X9365000Y4542000D02*
D03*
X8242000Y5665000D02*
D03*
X8865000Y4542000D02*
D03*
X10220500Y1365500D02*
D03*
X9966500D02*
D03*
X9458500D02*
D03*
X9712500D02*
D03*
D84*
X9440000Y5990000D02*
D03*
X8789999D02*
D03*
Y6440000D02*
D03*
X9440000D02*
D03*
D85*
X8482500Y5915000D02*
D03*
X9747499D02*
D03*
X8482500Y4915000D02*
D03*
X9747499D02*
D03*
D86*
X7882500Y1365000D02*
D03*
X8644500D02*
D03*
X8390500Y1619000D02*
D03*
Y1365000D02*
D03*
X8136500Y1619000D02*
D03*
Y1365000D02*
D03*
X7882500Y1619000D02*
D03*
D87*
X9546000Y3527500D02*
D03*
D88*
X8297500Y3202500D02*
D03*
D89*
X9204500Y1365500D02*
D03*
D90*
X8297500Y3402500D02*
D03*
D91*
X10054000Y3527500D02*
D03*
X9800000D02*
D03*
D92*
X8644500Y1619000D02*
D03*
D93*
X8924500Y1619500D02*
D03*
Y1365500D02*
D03*
D94*
X9227500Y5302500D02*
D03*
X9417500D02*
D03*
X9742500Y5730000D02*
D03*
X9829830Y5443079D02*
D03*
X9337500Y1697500D02*
D03*
X10052500Y3357500D02*
D03*
X9547500Y2517500D02*
D03*
X8832500Y2605000D02*
D03*
X8600000Y2375000D02*
D03*
X8492500Y2740000D02*
D03*
X8762500Y3080000D02*
D03*
X9417500Y3077500D02*
D03*
X7874997Y3149999D02*
D03*
X7799998Y3299999D02*
D03*
X7874997Y3449999D02*
D03*
X8024997Y3149999D02*
D03*
X7949998Y3299999D02*
D03*
X8024997Y3449999D02*
D03*
X8099998Y3299999D02*
D03*
Y3599999D02*
D03*
X10874997Y3449999D02*
D03*
X8100000Y3060000D02*
D03*
X9501498Y3233679D02*
D03*
X10292500Y2667500D02*
D03*
X10315000Y2290000D02*
D03*
X9377500Y2202500D02*
D03*
X10477500Y3660000D02*
D03*
X10252500Y3512500D02*
D03*
X10892500Y3155000D02*
D03*
X10197500Y2745000D02*
D03*
X9450000Y2012500D02*
D03*
X8699169Y2049161D02*
D03*
X8515000Y1960000D02*
D03*
X8672500Y2157500D02*
D03*
X9035013Y2460000D02*
D03*
X9112500Y2327500D02*
D03*
X9017500Y2332500D02*
D03*
X9102500Y2217500D02*
D03*
X9512964Y1632580D02*
D03*
X9687500Y2332500D02*
D03*
X8565000Y2150000D02*
D03*
X9050000Y1842500D02*
D03*
X9252500Y2082500D02*
D03*
X9362500Y1962500D02*
D03*
X10225000Y2222500D02*
D03*
X9725000Y3000000D02*
D03*
X9082500Y2910000D02*
D03*
X9825000Y3227500D02*
D03*
X9572500Y2160000D02*
D03*
X9522500Y2210000D02*
D03*
Y2097500D02*
D03*
X10210000Y2347500D02*
D03*
D95*
X9260000Y2277500D02*
D03*
X9525000D02*
D03*
D96*
X8507500Y2610000D02*
D03*
Y2900000D02*
D03*
D97*
X8720000Y2450000D02*
D03*
D98*
X8792500Y2650000D02*
D03*
Y2915000D02*
D03*
D99*
X9075000Y2565000D02*
D03*
X9075000Y2795000D02*
D03*
X9075000Y3025000D02*
D03*
D100*
X9725000Y2497500D02*
D03*
X10185000D02*
D03*
X9955000D02*
D03*
D101*
Y1857500D02*
D03*
D102*
X9685000Y2795000D02*
D03*
D103*
X8500000Y2470000D02*
D03*
X8720000Y2280000D02*
D03*
X8500000D02*
D03*
%TF.MD5,70f045df0a22016124b5cacee2ea932b*%
M02*
