%TF.GenerationSoftware,Altium Limited,Altium Designer,26.2.0 (7)*%
G04 Layer_Color=8388736*
%FSLAX45Y45*%
%MOMM*%
%TF.SameCoordinates,894498E9-F992-4E77-9241-7735D3C5E39B*%
%TF.FilePolarity,Negative*%
%TF.FileFunction,Soldermask,Top*%
%TF.Part,Single*%
G01*
G75*
%TA.AperFunction,SMDPad,CuDef*%
G04:AMPARAMS|DCode=20|XSize=0.75mm|YSize=0.65mm|CornerRadius=0mm|HoleSize=0mm|Usage=FLASHONLY|Rotation=315.000|XOffset=0mm|YOffset=0mm|HoleType=Round|Shape=Rectangle|*
%AMROTATEDRECTD20*
4,1,4,-0.49497,0.03535,-0.03535,0.49497,0.49497,-0.03535,0.03535,-0.49497,-0.49497,0.03535,0.0*
%
%ADD20ROTATEDRECTD20*%

%ADD24R,1.15000X1.22000*%
%TA.AperFunction,ComponentPad*%
%ADD30C,1.40000*%
%ADD36C,0.65000*%
G04:AMPARAMS|DCode=42|XSize=0.9mm|YSize=2.4mm|CornerRadius=0.45mm|HoleSize=0mm|Usage=FLASHONLY|Rotation=90.000|XOffset=0mm|YOffset=0mm|HoleType=Round|Shape=RoundedRectangle|*
%AMROUNDEDRECTD42*
21,1,0.90000,1.50000,0,0,90.0*
21,1,0.00000,2.40000,0,0,90.0*
1,1,0.90000,0.75000,0.00000*
1,1,0.90000,0.75000,0.00000*
1,1,0.90000,-0.75000,0.00000*
1,1,0.90000,-0.75000,0.00000*
%
%ADD42ROUNDEDRECTD42*%
G04:AMPARAMS|DCode=43|XSize=0.9mm|YSize=1.7mm|CornerRadius=0.45mm|HoleSize=0mm|Usage=FLASHONLY|Rotation=90.000|XOffset=0mm|YOffset=0mm|HoleType=Round|Shape=RoundedRectangle|*
%AMROUNDEDRECTD43*
21,1,0.90000,0.80000,0,0,90.0*
21,1,0.00000,1.70000,0,0,90.0*
1,1,0.90000,0.40000,0.00000*
1,1,0.90000,0.40000,0.00000*
1,1,0.90000,-0.40000,0.00000*
1,1,0.90000,-0.40000,0.00000*
%
%ADD43ROUNDEDRECTD43*%
%ADD44R,1.40000X1.40000*%
%TA.AperFunction,SMDPad,CuDef*%
%ADD66R,0.80320X1.20320*%
%ADD67R,1.20320X0.80320*%
G04:AMPARAMS|DCode=68|XSize=0.8032mm|YSize=1.2032mm|CornerRadius=0mm|HoleSize=0mm|Usage=FLASHONLY|Rotation=135.000|XOffset=0mm|YOffset=0mm|HoleType=Round|Shape=Rectangle|*
%AMROTATEDRECTD68*
4,1,4,0.70937,0.14142,-0.14142,-0.70937,-0.70937,-0.14142,0.14142,0.70937,0.70937,0.14142,0.0*
%
%ADD68ROTATEDRECTD68*%

G04:AMPARAMS|DCode=69|XSize=0.8032mm|YSize=1.2032mm|CornerRadius=0mm|HoleSize=0mm|Usage=FLASHONLY|Rotation=225.000|XOffset=0mm|YOffset=0mm|HoleType=Round|Shape=Rectangle|*
%AMROTATEDRECTD69*
4,1,4,-0.14142,0.70937,0.70937,-0.14142,0.14142,-0.70937,-0.70937,0.14142,-0.14142,0.70937,0.0*
%
%ADD69ROTATEDRECTD69*%

G04:AMPARAMS|DCode=70|XSize=0.5032mm|YSize=1.6032mm|CornerRadius=0mm|HoleSize=0mm|Usage=FLASHONLY|Rotation=135.000|XOffset=0mm|YOffset=0mm|HoleType=Round|Shape=Rectangle|*
%AMROTATEDRECTD70*
4,1,4,0.74473,0.38891,-0.38891,-0.74473,-0.74473,-0.38891,0.38891,0.74473,0.74473,0.38891,0.0*
%
%ADD70ROTATEDRECTD70*%

G04:AMPARAMS|DCode=71|XSize=0.5032mm|YSize=1.6032mm|CornerRadius=0mm|HoleSize=0mm|Usage=FLASHONLY|Rotation=225.000|XOffset=0mm|YOffset=0mm|HoleType=Round|Shape=Rectangle|*
%AMROTATEDRECTD71*
4,1,4,-0.38891,0.74473,0.74473,-0.38891,0.38891,-0.74473,-0.74473,0.38891,-0.38891,0.74473,0.0*
%
%ADD71ROTATEDRECTD71*%

%ADD72R,1.40320X1.60320*%
G04:AMPARAMS|DCode=73|XSize=0.8332mm|YSize=0.8132mm|CornerRadius=0.25105mm|HoleSize=0mm|Usage=FLASHONLY|Rotation=315.000|XOffset=0mm|YOffset=0mm|HoleType=Round|Shape=RoundedRectangle|*
%AMROUNDEDRECTD73*
21,1,0.83320,0.31110,0,0,315.0*
21,1,0.33110,0.81320,0,0,315.0*
1,1,0.50210,0.00707,-0.22706*
1,1,0.50210,-0.22706,0.00707*
1,1,0.50210,-0.00707,0.22706*
1,1,0.50210,0.22706,-0.00707*
%
%ADD73ROUNDEDRECTD73*%
G04:AMPARAMS|DCode=74|XSize=0.8332mm|YSize=0.8132mm|CornerRadius=0.25105mm|HoleSize=0mm|Usage=FLASHONLY|Rotation=225.000|XOffset=0mm|YOffset=0mm|HoleType=Round|Shape=RoundedRectangle|*
%AMROUNDEDRECTD74*
21,1,0.83320,0.31110,0,0,225.0*
21,1,0.33110,0.81320,0,0,225.0*
1,1,0.50210,-0.22706,-0.00707*
1,1,0.50210,0.00707,0.22706*
1,1,0.50210,0.22706,0.00707*
1,1,0.50210,-0.00707,-0.22706*
%
%ADD74ROUNDEDRECTD74*%
G04:AMPARAMS|DCode=75|XSize=0.7532mm|YSize=0.8032mm|CornerRadius=0mm|HoleSize=0mm|Usage=FLASHONLY|Rotation=315.000|XOffset=0mm|YOffset=0mm|HoleType=Round|Shape=Rectangle|*
%AMROTATEDRECTD75*
4,1,4,-0.55027,-0.01768,0.01768,0.55027,0.55027,0.01768,-0.01768,-0.55027,-0.55027,-0.01768,0.0*
%
%ADD75ROTATEDRECTD75*%

G04:AMPARAMS|DCode=76|XSize=1.6032mm|YSize=1.4032mm|CornerRadius=0mm|HoleSize=0mm|Usage=FLASHONLY|Rotation=45.000|XOffset=0mm|YOffset=0mm|HoleType=Round|Shape=Rectangle|*
%AMROTATEDRECTD76*
4,1,4,-0.07071,-1.06292,-1.06292,-0.07071,0.07071,1.06292,1.06292,0.07071,-0.07071,-1.06292,0.0*
%
%ADD76ROTATEDRECTD76*%

%ADD77R,1.00320X1.00320*%
%TA.AperFunction,WasherPad*%
%ADD78R,0.20320X0.20320*%
%ADD79R,0.20320X0.20320*%
%TA.AperFunction,ComponentPad*%
%ADD80C,1.60320*%
%ADD81C,1.40320*%
%ADD82C,0.20320*%
%ADD83C,1.80320*%
%ADD84C,2.00320*%
%ADD85C,2.70320*%
%ADD86C,1.90320*%
%ADD87R,2.20320X2.20320*%
%ADD88C,1.55320*%
%ADD89R,1.80320X1.80320*%
%ADD90R,1.55320X1.55320*%
%ADD91C,2.20320*%
%ADD92R,1.90320X1.90320*%
%ADD93C,1.70320*%
%TA.AperFunction,ViaPad*%
%ADD94C,0.40000*%
G36*
X9790104Y1675147D02*
X9744142Y1629185D01*
X9691109Y1682218D01*
X9726465Y1717574D01*
X9747677D01*
X9790104Y1675147D01*
D02*
G37*
D20*
X9719393Y1841317D02*
D03*
X9648683Y1770607D02*
D03*
X9811317Y1749393D02*
D03*
D24*
X8427500Y1875000D02*
D03*
X8737500D02*
D03*
D30*
X8685000Y3562500D02*
D03*
X9185000Y3232500D02*
D03*
X8935000Y3562500D02*
D03*
X9185000D02*
D03*
X8935000Y3232500D02*
D03*
D36*
X8300000Y2065000D02*
D03*
X8165000D02*
D03*
X8300000Y2660000D02*
D03*
X8165000D02*
D03*
Y2150000D02*
D03*
Y2235000D02*
D03*
Y2320000D02*
D03*
Y2405000D02*
D03*
Y2490000D02*
D03*
Y2575000D02*
D03*
X8300000D02*
D03*
Y2490000D02*
D03*
Y2405000D02*
D03*
Y2320000D02*
D03*
Y2235000D02*
D03*
Y2150000D02*
D03*
D42*
X8202000Y2795000D02*
D03*
Y1930000D02*
D03*
D43*
X7864000Y2795000D02*
D03*
Y1930000D02*
D03*
D44*
X8685000Y3232500D02*
D03*
D66*
X6787999Y5617501D02*
D03*
X6647999D02*
D03*
X6793000Y3305001D02*
D03*
X6652999D02*
D03*
X9920000Y3090000D02*
D03*
X10060000D02*
D03*
Y3227500D02*
D03*
X9920000D02*
D03*
X10060000Y2952500D02*
D03*
X9920000D02*
D03*
D67*
X8432500Y2097500D02*
D03*
Y2237500D02*
D03*
D68*
X8721005Y2421495D02*
D03*
X9330503Y3049498D02*
D03*
X10104497Y1683002D02*
D03*
X8820000Y2322500D02*
D03*
X10005502Y1781997D02*
D03*
X9934498Y1848002D02*
D03*
X9835503Y1946997D02*
D03*
X9429498Y2950503D02*
D03*
D69*
X9263003Y1720503D02*
D03*
X9360502Y1623003D02*
D03*
X9459497Y1721998D02*
D03*
X8528003Y2590502D02*
D03*
X8721998Y2594497D02*
D03*
X8623003Y2495502D02*
D03*
X8626998Y2689497D02*
D03*
X9361998Y1819498D02*
D03*
X9933002Y2015502D02*
D03*
X10031997Y2114497D02*
D03*
D70*
X9236079Y1905380D02*
D03*
X9518921Y2824619D02*
D03*
X8882525Y2258934D02*
D03*
X8953236Y2188223D02*
D03*
X8917880Y2223579D02*
D03*
X8988591Y2152868D02*
D03*
X9200723Y1940736D02*
D03*
X9165368Y1976091D02*
D03*
X9130012Y2011447D02*
D03*
X9094657Y2046802D02*
D03*
X9059302Y2082157D02*
D03*
X9023946Y2117513D02*
D03*
X9271434Y1870025D02*
D03*
X9624987Y2718554D02*
D03*
X9483566Y2859975D02*
D03*
X9660343Y2683198D02*
D03*
X9695698Y2647843D02*
D03*
X9731053Y2612488D02*
D03*
X9766408Y2577132D02*
D03*
X9801764Y2541777D02*
D03*
X9589632Y2753909D02*
D03*
X9554277Y2789264D02*
D03*
X9837119Y2506421D02*
D03*
X9872475Y2471066D02*
D03*
D71*
X8917881Y2506421D02*
D03*
X9731053Y2117512D02*
D03*
X9695698Y2082157D02*
D03*
X9766408Y2152868D02*
D03*
X9837119Y2223578D02*
D03*
X9872475Y2258934D02*
D03*
X9518921Y1905380D02*
D03*
X9554277Y1940736D02*
D03*
X9589632Y1976091D02*
D03*
X9801764Y2188223D02*
D03*
X8882525Y2471066D02*
D03*
X8953236Y2541777D02*
D03*
X8988591Y2577132D02*
D03*
X9023947Y2612488D02*
D03*
X9059302Y2647843D02*
D03*
X9094657Y2683198D02*
D03*
X9130013Y2718554D02*
D03*
X9165368Y2753909D02*
D03*
X9200723Y2789264D02*
D03*
X9236079Y2824619D02*
D03*
X9271434Y2859975D02*
D03*
X9483566Y1870025D02*
D03*
X9660343Y2046802D02*
D03*
X9624987Y2011447D02*
D03*
D72*
X8897500Y3040000D02*
D03*
X10050000Y2490000D02*
D03*
X10220000D02*
D03*
X9067500Y3040000D02*
D03*
D73*
X9657123Y1612877D02*
D03*
X9582877Y1687123D02*
D03*
D74*
X9822877Y1592877D02*
D03*
X9897123Y1667123D02*
D03*
D75*
X10282582Y1849770D02*
D03*
X10102270Y2030082D02*
D03*
X10198437Y1765624D02*
D03*
X10018124Y1945937D02*
D03*
D76*
X9464896Y3155104D02*
D03*
X9585104Y3034896D02*
D03*
D77*
X10337500Y3227500D02*
D03*
Y2952500D02*
D03*
Y3090000D02*
D03*
X10187500Y3227500D02*
D03*
Y3090000D02*
D03*
Y2952500D02*
D03*
D78*
X7332500Y6364500D02*
D03*
X7202500D02*
D03*
X7462500D02*
D03*
X7462499Y2164501D02*
D03*
X7332499D02*
D03*
X7202499D02*
D03*
X6882499Y6064500D02*
D03*
X6447499Y6364500D02*
D03*
X6317499D02*
D03*
X6187499D02*
D03*
X6577499D02*
D03*
X5882499Y4764501D02*
D03*
X6187499Y4464501D02*
D03*
X6317499D02*
D03*
X6577499D02*
D03*
X6447499D02*
D03*
X5882499Y6064500D02*
D03*
X6882499Y4764501D02*
D03*
X6882500Y2464501D02*
D03*
X6577499Y4064500D02*
D03*
X6882500Y3764500D02*
D03*
X6317500Y2164501D02*
D03*
X6187500D02*
D03*
X6187499Y4064500D02*
D03*
X6352499D02*
D03*
X5882500Y3764500D02*
D03*
Y2464501D02*
D03*
X6447500Y2164501D02*
D03*
X6577500D02*
D03*
X8577499Y6615000D02*
D03*
X9947500D02*
D03*
X8187499D02*
D03*
X8317499D02*
D03*
X8447499D02*
D03*
X9687500D02*
D03*
X9817500D02*
D03*
X7882500Y6315000D02*
D03*
Y4515000D02*
D03*
X10282499Y6315000D02*
D03*
X10077500Y6615000D02*
D03*
X10282499Y4515000D02*
D03*
X9517500Y4215000D02*
D03*
X9777500D02*
D03*
X8287500D02*
D03*
X9647500D02*
D03*
X9387500D02*
D03*
X8512500D02*
D03*
X8677500D02*
D03*
X10192501Y3815000D02*
D03*
X8677501D02*
D03*
X8417501D02*
D03*
X8547501D02*
D03*
X8287501D02*
D03*
X10377501D02*
D03*
X9987501D02*
D03*
D79*
X10582500Y4065000D02*
D03*
Y4195000D02*
D03*
Y3935000D02*
D03*
X5582500Y4394500D02*
D03*
Y4134500D02*
D03*
Y4264500D02*
D03*
X7557500Y4189775D02*
D03*
Y3964775D02*
D03*
X5582500Y5479501D02*
D03*
Y5609501D02*
D03*
Y5219501D02*
D03*
Y5349501D02*
D03*
X7182499Y5404501D02*
D03*
Y5219501D02*
D03*
Y5609501D02*
D03*
Y3179500D02*
D03*
Y3049500D02*
D03*
X5582500Y3049501D02*
D03*
Y3179501D02*
D03*
Y3309501D02*
D03*
X7182499Y3309500D02*
D03*
X5582500Y2919501D02*
D03*
X7182499Y2919500D02*
D03*
X7582500Y5750000D02*
D03*
Y4820000D02*
D03*
Y5210000D02*
D03*
Y5880000D02*
D03*
Y4950000D02*
D03*
Y6010000D02*
D03*
Y5620000D02*
D03*
Y5080000D02*
D03*
X10582500Y5210000D02*
D03*
Y4950000D02*
D03*
Y4820000D02*
D03*
Y5080000D02*
D03*
Y6010000D02*
D03*
Y5750000D02*
D03*
Y5880000D02*
D03*
Y5620000D02*
D03*
D80*
X6412999Y5110000D02*
D03*
X6162999D02*
D03*
X5912999D02*
D03*
Y5650000D02*
D03*
X6162999D02*
D03*
X6412999D02*
D03*
Y2817500D02*
D03*
X6162999D02*
D03*
X5912999D02*
D03*
Y3357500D02*
D03*
X6162999D02*
D03*
X6412999D02*
D03*
D81*
X6755499Y5183500D02*
D03*
X7009499Y5310500D02*
D03*
X6755499Y5437500D02*
D03*
X7009499Y5564500D02*
D03*
X7009500Y3264500D02*
D03*
X6755500Y3137500D02*
D03*
X7009500Y3010500D02*
D03*
X6755500Y2883500D02*
D03*
X10375500Y5731500D02*
D03*
Y5477500D02*
D03*
X10121500Y5350500D02*
D03*
X10375500Y5223500D02*
D03*
X10121500Y5604500D02*
D03*
Y5096500D02*
D03*
X10782500Y1923000D02*
D03*
X10812500Y2575000D02*
D03*
X10558500Y2702000D02*
D03*
X10812500Y2829000D02*
D03*
X10558500Y2956000D02*
D03*
X10528500Y2050000D02*
D03*
Y1796000D02*
D03*
X10782500Y1669000D02*
D03*
X10528500Y1542000D02*
D03*
X10782500Y1415000D02*
D03*
D82*
X6935499Y5043500D02*
D03*
X6935499Y2743500D02*
D03*
X10195500Y5871500D02*
D03*
X10632500Y2435000D02*
D03*
X10708500Y2190000D02*
D03*
D83*
X9115000Y4542000D02*
D03*
X8242000Y5415000D02*
D03*
Y5165000D02*
D03*
X9365000Y4542000D02*
D03*
X8242000Y5665000D02*
D03*
X8865000Y4542000D02*
D03*
X10220500Y1365500D02*
D03*
X9966500D02*
D03*
X9458500D02*
D03*
X9712500D02*
D03*
D84*
X9440000Y5990000D02*
D03*
X8789999D02*
D03*
Y6440000D02*
D03*
X9440000D02*
D03*
D85*
X8482500Y5915000D02*
D03*
X9747499D02*
D03*
X8482500Y4915000D02*
D03*
X9747499D02*
D03*
D86*
X7882500Y1365000D02*
D03*
X8644500D02*
D03*
X8390500Y1619000D02*
D03*
Y1365000D02*
D03*
X8136500Y1619000D02*
D03*
Y1365000D02*
D03*
X7882500Y1619000D02*
D03*
D87*
X9546000Y3527500D02*
D03*
D88*
X8297500Y3202500D02*
D03*
D89*
X9204500Y1365500D02*
D03*
D90*
X8297500Y3402500D02*
D03*
D91*
X10054000Y3527500D02*
D03*
X9800000D02*
D03*
D92*
X8644500Y1619000D02*
D03*
D93*
X8924500Y1619500D02*
D03*
Y1365500D02*
D03*
D94*
X9227500Y5302500D02*
D03*
X9417500D02*
D03*
X9742500Y5730000D02*
D03*
X9829830Y5443079D02*
D03*
X9337500Y1697500D02*
D03*
X10052500Y3357500D02*
D03*
X9547500Y2517500D02*
D03*
X8832500Y2605000D02*
D03*
X8600000Y2375000D02*
D03*
X8492500Y2740000D02*
D03*
X8762500Y3080000D02*
D03*
X9417500Y3077500D02*
D03*
X7874997Y3149999D02*
D03*
X7799998Y3299999D02*
D03*
X7874997Y3449999D02*
D03*
X8024997Y3149999D02*
D03*
X7949998Y3299999D02*
D03*
X8024997Y3449999D02*
D03*
X8099998Y3299999D02*
D03*
Y3599999D02*
D03*
X10874997Y3449999D02*
D03*
X8100000Y3060000D02*
D03*
X9501498Y3233679D02*
D03*
X10292500Y2667500D02*
D03*
X10315000Y2290000D02*
D03*
X9377500Y2202500D02*
D03*
X10477500Y3660000D02*
D03*
X10252500Y3512500D02*
D03*
X10892500Y3155000D02*
D03*
X10197500Y2745000D02*
D03*
X9450000Y2012500D02*
D03*
X8699169Y2049161D02*
D03*
X8515000Y1960000D02*
D03*
X8672500Y2157500D02*
D03*
X9035013Y2460000D02*
D03*
X9112500Y2327500D02*
D03*
X9017500Y2332500D02*
D03*
X9102500Y2217500D02*
D03*
X9512964Y1632580D02*
D03*
X9687500Y2332500D02*
D03*
X8565000Y2150000D02*
D03*
X9050000Y1842500D02*
D03*
X9252500Y2082500D02*
D03*
X9362500Y1962500D02*
D03*
X10225000Y2222500D02*
D03*
X9725000Y3000000D02*
D03*
X9082500Y2910000D02*
D03*
X9825000Y3227500D02*
D03*
X9572500Y2160000D02*
D03*
X9522500Y2210000D02*
D03*
Y2097500D02*
D03*
X10210000Y2347500D02*
D03*
%TF.MD5,bd3ac45ed66fdb288c8ce9e531d843d7*%
M02*
